<?xml version="1.0" encoding="utf-8"?>
<!-- Generator: Adobe Illustrator 22.0.1, SVG Export Plug-In . SVG Version: 6.00 Build 0)  -->
<svg version="1.1" xmlns="http://www.w3.org/2000/svg" xmlns:xlink="http://www.w3.org/1999/xlink" x="0px" y="0px"
	 viewBox="0 0 80 80" style="enable-background:new 0 0 80 80;" xml:space="preserve">
<style type="text/css">
	.st0{fill:#F7F7F7;}
	.st1{fill:#FC7769;}
	.st2{fill:#FFFFFF;}
	.st3{fill:#27C79D;}
	.st4{fill:#27B1F1;}
	.st5{fill:none;stroke:#27C79D;stroke-linecap:round;stroke-linejoin:round;stroke-miterlimit:10;}
	.st6{fill:none;stroke:#FFFFFF;stroke-linecap:round;stroke-linejoin:round;stroke-miterlimit:10;}
	.st7{fill:none;stroke:#000000;stroke-linecap:round;stroke-linejoin:round;stroke-miterlimit:10;}
	.st8{fill:none;stroke:#27B1F1;stroke-linecap:round;stroke-linejoin:round;stroke-miterlimit:10;}
	.st9{fill:none;stroke:#FFFFFF;stroke-miterlimit:10;}
	.st10{fill:#6BD1FF;}
	.st11{clip-path:url(#SVGID_2_);}
	.st12{clip-path:url(#SVGID_4_);}
	.st13{clip-path:url(#SVGID_6_);}
	.st14{fill:#C9C9C9;}
	.st15{fill:#D14D3F;}
	.st16{fill:#1F8CBF;}
	.st17{fill:none;}
	.st18{fill:none;stroke:#FC7769;stroke-miterlimit:10;}
	.st19{clip-path:url(#SVGID_8_);}
	.st20{fill:none;stroke:#FC7769;stroke-width:7;stroke-linecap:round;stroke-linejoin:round;stroke-miterlimit:10;}
</style>
<g id="Layer_1">
</g>
<g id="Layer_2">
	<g>
		<g>
			<path class="st1" d="M40,13.9c-8.1-8.1-21.1-8.1-29.2,0C2.8,21.9,2.8,35,10.8,43L40,72.2L69.2,43c8.1-8.1,8.1-21.1,0-29.2
				C61.1,5.8,48.1,5.8,40,13.9z"/>
		</g>
		<g>
			<path d="M42.6,21.2v13.1c0,1.4-0.5,2.7-1.5,3.6l-1.7,1.7c-0.9,0.9-1.4,2.1-1.4,3.3v18.9c0,1.7,1.4,3.1,3.1,3.1h0
				c0.8,0,1.6-0.3,2.2-0.9l20.9-20.9c1.1-1.1,1.6-2.5,1.6-4v-4.7c0-1.1,0.4-2.1,1.2-2.8l1.6-1.6c0.6-0.6,1-1.4,1.1-2.3l0.6-4.6
				c0.2-1.8-0.4-3.6-1.7-4.9l-6.1-5.7c-1.5-1.4-3.8-1.4-5.3-0.1l-0.3,0.3c-0.9,0.8-2.4,0.8-3.2-0.1l0,0c-1.4-1.4-3.7-1.4-5.1,0
				l-4.5,4.6C43.2,18.2,42.6,19.7,42.6,21.2z"/>
		</g>
		<g>
			<path class="st3" d="M65.2,41.7c0.2-0.3,0.3-0.7,0.4-1H49.7c-0.1,0-0.3,0.1-0.4,0.1l-8.2,8.2H38v1h3.3c0.1,0,0.3-0.1,0.4-0.1
				l8.2-8.2H65.2z"/>
			<path class="st3" d="M46,41.7c1.2,0,2.2-1,2.2-2.2s-1-2.2-2.2-2.2s-2.2,1-2.2,2.2c0,0.5,0.1,0.9,0.4,1.2l-4.3,4.6H38v1h2
				c0.1,0,0.3-0.1,0.4-0.2l4.4-4.7C45.2,41.6,45.6,41.7,46,41.7z"/>
			<path class="st3" d="M52.4,47.8c-0.1,0-0.3,0.1-0.4,0.2L41.1,59.1H38v1h3.3c0.1,0,0.3-0.1,0.4-0.2l10.9-11.2h5.9l1-1H52.4z"/>
			<path class="st3" d="M51,44.1c-0.1,0-0.3,0.1-0.4,0.1l-7.9,7.9c-0.3-0.2-0.7-0.3-1.2-0.3c-1.2,0-2.2,1-2.2,2.2s1,2.2,2.2,2.2
				c1.2,0,2.2-1,2.2-2.2c0-0.4-0.1-0.8-0.3-1.2l7.8-7.8h11l1-1H51z"/>
			<path class="st3" d="M65.9,37.1H55.1c-0.2-1-1.1-1.7-2.2-1.7c-1.2,0-2.2,1-2.2,2.2c0,1.2,1,2.2,2.2,2.2c1.1,0,1.9-0.7,2.2-1.7
				h10.8V37.1z"/>
			<path class="st3" d="M65.4,15H53.2c-0.1,0-0.3,0.1-0.4,0.1l-7.6,7.6h-2.7v1h2.9c0.1,0,0.3-0.1,0.4-0.1l7.6-7.6h13L65.4,15z"/>
			<path class="st3" d="M42.6,26.2v1h4.3c0.1,0,0.3-0.1,0.4-0.1l7.5-7.5h3.5c0.2,1,1.1,1.7,2.2,1.7c1.2,0,2.2-1,2.2-2.2
				c0-1.2-1-2.2-2.2-2.2c-1.1,0-1.9,0.7-2.2,1.7h-3.7c-0.1,0-0.3,0.1-0.4,0.1l-7.5,7.5H42.6z"/>
			<path class="st3" d="M70.2,20.5c-0.1-0.3-0.3-0.7-0.5-1h-3.6c-0.1,0-0.3,0.1-0.4,0.1l-4.2,4.2c-0.3-0.2-0.7-0.3-1.2-0.3
				c-1.2,0-2.2,1-2.2,2.2c0,1.2,1,2.2,2.2,2.2c1.2,0,2.2-1,2.2-2.2c0-0.4-0.1-0.8-0.3-1.2l4.1-4.1H70.2z"/>
			<path class="st3" d="M65.9,34.4c0-0.3,0-0.6,0.1-0.8l-5.2,0L57,29.8c-0.1-0.1-0.2-0.1-0.4-0.1h-14v1h13.8l3.8,3.8
				c0.1,0.1,0.2,0.1,0.4,0.1c0,0,0,0,0,0l5.3,0V34.4z"/>
		</g>
		<g>
			<path class="st17" d="M42.6,21.2v13.1c0,1.4-0.5,2.7-1.5,3.6l-1.7,1.7c-0.9,0.9-1.4,2.1-1.4,3.3v18.9c0,1.7,1.4,3.1,3.1,3.1h0
				c0.8,0,1.6-0.3,2.2-0.9l20.9-20.9c1.1-1.1,1.6-2.5,1.6-4v-4.7c0-1.1,0.4-2.1,1.2-2.8l1.6-1.6c0.6-0.6,1-1.4,1.1-2.3l0.6-4.6
				c0.2-1.8-0.4-3.6-1.7-4.9l-6.1-5.7c-1.5-1.4-3.8-1.4-5.3-0.1l-0.3,0.3c-0.9,0.8-2.4,0.8-3.2-0.1l0,0c-1.4-1.4-3.7-1.4-5.1,0
				l-4.5,4.6C43.2,18.2,42.6,19.7,42.6,21.2z"/>
		</g>
	</g>
</g>
</svg>
