<?xml version="1.0" encoding="utf-8"?>
<!-- Generator: Adobe Illustrator 22.0.1, SVG Export Plug-In . SVG Version: 6.00 Build 0)  -->
<svg version="1.1" xmlns="http://www.w3.org/2000/svg" xmlns:xlink="http://www.w3.org/1999/xlink" x="0px" y="0px"
	 viewBox="0 0 80 80" style="enable-background:new 0 0 80 80;" xml:space="preserve">
<style type="text/css">
	.st0{fill:#F7F7F7;}
	.st1{fill:#FC7769;}
	.st2{fill:#FFFFFF;}
	.st3{fill:#27C79D;}
	.st4{fill:#27B1F1;}
	.st5{fill:none;stroke:#27C79D;stroke-linecap:round;stroke-linejoin:round;stroke-miterlimit:10;}
	.st6{fill:none;stroke:#FFFFFF;stroke-linecap:round;stroke-linejoin:round;stroke-miterlimit:10;}
	.st7{fill:none;stroke:#000000;stroke-linecap:round;stroke-linejoin:round;stroke-miterlimit:10;}
	.st8{fill:none;stroke:#27B1F1;stroke-linecap:round;stroke-linejoin:round;stroke-miterlimit:10;}
	.st9{fill:none;stroke:#FFFFFF;stroke-miterlimit:10;}
	.st10{fill:#6BD1FF;}
	.st11{clip-path:url(#SVGID_2_);}
	.st12{clip-path:url(#SVGID_4_);}
	.st13{clip-path:url(#SVGID_6_);}
	.st14{fill:#C9C9C9;}
	.st15{fill:#D14D3F;}
	.st16{fill:#1F8CBF;}
	.st17{fill:none;}
	.st18{fill:none;stroke:#FC7769;stroke-miterlimit:10;}
	.st19{clip-path:url(#SVGID_8_);}
	.st20{fill:none;stroke:#FC7769;stroke-width:7;stroke-linecap:round;stroke-linejoin:round;stroke-miterlimit:10;}
</style>
<g id="Layer_1">
	<g>
		<g>
			<path d="M64.2,47.2H14.3l-6.9-3.8c-1.4-0.8-2.3-2.2-2.3-3.9V24.8c0-1.8,1.9-2.9,3.5-2.1l5.7,3.1h49.9c5.9,0,10.7,4.8,10.7,10.7v0
				C74.9,42.4,70.1,47.2,64.2,47.2z"/>
		</g>
		<g>
			<path class="st1" d="M64.2,44.4H14.3l-6.9-3.8c-1.4-0.8-2.3-2.2-2.3-3.9V22c0-1.8,1.9-2.9,3.5-2.1l5.7,3.1h49.9
				c5.9,0,10.7,4.8,10.7,10.7v0C74.9,39.6,70.1,44.4,64.2,44.4z"/>
		</g>
		<g>
			<path class="st2" d="M14.1,42.6L8,39.2C7.5,39,7.2,38.5,7.2,38v-6.4L14.1,42.6z"/>
		</g>
		<g>
			<path class="st3" d="M28.6,42.6c-0.1,0-0.2,0-0.3-0.1L7,28.1c-0.2-0.2-0.3-0.5-0.1-0.7c0.2-0.2,0.5-0.3,0.7-0.1l21.1,14.3
				l19.6-14.7c0.2-0.1,0.4-0.1,0.6,0l21,12.6c0.2,0.1,0.3,0.4,0.2,0.7c-0.1,0.2-0.4,0.3-0.7,0.2L48.6,27.8L28.9,42.5
				C28.8,42.6,28.7,42.6,28.6,42.6z"/>
		</g>
		<g>
			<path class="st4" d="M65.7,52.6H14.3c-2.1,0-3.9,1.7-3.9,3.9v0c0,2.1,1.7,3.9,3.9,3.9h51.4c2.1,0,3.9-1.7,3.9-3.9v0
				C69.6,54.3,67.8,52.6,65.7,52.6z"/>
		</g>
		<g>
			<g>
				<path class="st2" d="M63.7,25.8h-1.4c-0.3,0-0.5-0.2-0.5-0.5s0.2-0.5,0.5-0.5h1.4c0.3,0,0.5,0.2,0.5,0.5S64,25.8,63.7,25.8z"/>
			</g>
			<g>
				<path class="st2" d="M53.9,42.6h-2.1c-0.3,0-0.5-0.2-0.5-0.5s0.2-0.5,0.5-0.5h1.8L63.3,25c0.1-0.2,0.3-0.2,0.4-0.2c0,0,0,0,0,0
					c0.2,0,0.3,0.1,0.4,0.2l7.3,12.5c0.1,0.2,0.1,0.5-0.2,0.7c-0.2,0.1-0.5,0.1-0.7-0.2l-6.8-11.8l-9.4,16.1
					C54.2,42.5,54,42.6,53.9,42.6z"/>
			</g>
			<g>
				<path d="M52.8,42.6h-2c-0.2,0-0.3-0.1-0.4-0.3s-0.1-0.3,0-0.5L60.3,25c0.1-0.2,0.3-0.2,0.4-0.2h2c0.2,0,0.3,0.1,0.4,0.3
					s0.1,0.3,0,0.5l-9.8,16.9C53.2,42.5,53,42.6,52.8,42.6z M51.8,41.6h0.8l9.2-15.9H61L51.8,41.6z"/>
			</g>
			<g>
				<polygon points="62.7,25.3 52.8,42.1 50.9,42.1 60.7,25.3 				"/>
			</g>
		</g>
		<g>
			<g>
				<path class="st2" d="M47,42.6h-2c-0.2,0-0.3-0.1-0.4-0.3s-0.1-0.3,0-0.5L54.4,25c0.1-0.2,0.3-0.2,0.4-0.2h1.5
					c0.2,0,0.3,0.1,0.4,0.2c0.1,0.2,0.1,0.3,0,0.5l-9.3,16.9C47.4,42.5,47.2,42.6,47,42.6z M45.9,41.6h0.9l8.8-15.9h-0.4L45.9,41.6z
					"/>
			</g>
			<g>
				<path d="M48,42.6h-2c-0.2,0-0.3-0.1-0.4-0.3s-0.1-0.3,0-0.5L55.4,25c0.1-0.2,0.3-0.2,0.4-0.2h2c0.2,0,0.3,0.1,0.4,0.3
					s0.1,0.3,0,0.5l-9.8,16.9C48.3,42.5,48.2,42.6,48,42.6z M46.9,41.6h0.8l9.2-15.9h-0.8L46.9,41.6z"/>
			</g>
			<g>
				<polygon points="57.8,25.3 48,42.1 46,42.1 55.9,25.3 				"/>
			</g>
		</g>
		<g>
			<g>
				<path class="st2" d="M16.3,42.6h-2c-0.2,0-0.3-0.1-0.4-0.3s-0.1-0.3,0-0.5L23.7,25c0.1-0.2,0.3-0.2,0.4-0.2h1.5
					c0.2,0,0.3,0.1,0.4,0.2c0.1,0.2,0.1,0.3,0,0.5l-9.3,16.9C16.7,42.5,16.5,42.6,16.3,42.6z M15.2,41.6H16l8.8-15.9h-0.4L15.2,41.6
					z"/>
			</g>
			<g>
				<path d="M17.3,42.6h-2c-0.2,0-0.3-0.1-0.4-0.3s-0.1-0.3,0-0.5L24.7,25c0.1-0.2,0.3-0.2,0.4-0.2h2c0.2,0,0.3,0.1,0.4,0.3
					s0.1,0.3,0,0.5l-9.8,16.9C17.7,42.5,17.5,42.6,17.3,42.6z M16.2,41.6H17l9.2-15.9h-0.8L16.2,41.6z"/>
			</g>
			<g>
				<polygon points="27.1,25.3 17.3,42.1 15.3,42.1 25.2,25.3 				"/>
			</g>
		</g>
		<g>
			<g>
				<polygon class="st4" points="25.3,25.3 35.1,42.1 38.1,42.1 28.3,25.3 				"/>
			</g>
			<g>
				<path class="st2" d="M25.6,25.8h-1.4c-0.3,0-0.5-0.2-0.5-0.5s0.2-0.5,0.5-0.5h1.4c0.3,0,0.5,0.2,0.5,0.5S25.9,25.8,25.6,25.8z"
					/>
			</g>
			<g>
				<path class="st2" d="M37.2,42.6h-3.1c-0.2,0-0.3-0.1-0.4-0.2l-9.8-16.9c-0.1-0.2-0.1-0.5,0.2-0.7c0.2-0.1,0.5-0.1,0.7,0.2
					l9.7,16.6h2.8c0.3,0,0.5,0.2,0.5,0.5S37.5,42.6,37.2,42.6z"/>
			</g>
			<g>
				<path class="st4" d="M38.1,42.6h-3c-0.2,0-0.3-0.1-0.4-0.2l-9.8-16.9c-0.1-0.2-0.1-0.3,0-0.5s0.3-0.3,0.4-0.3h3
					c0.2,0,0.3,0.1,0.4,0.2l9.8,16.9c0.1,0.2,0.1,0.3,0,0.5S38.3,42.6,38.1,42.6z M35.4,41.6h1.8L28,25.8h-1.8L35.4,41.6z"/>
			</g>
		</g>
		<g>
			<g>
				<path class="st2" d="M45,42.6h-3c-0.2,0-0.3-0.1-0.4-0.3l-9.3-16.9c-0.1-0.2-0.1-0.3,0-0.5c0.1-0.2,0.3-0.2,0.4-0.2h2.5
					c0.2,0,0.3,0.1,0.4,0.2l9.8,16.9c0.1,0.2,0.1,0.3,0,0.5S45.2,42.6,45,42.6z M42.3,41.6h1.9l-9.2-15.9h-1.4L42.3,41.6z"/>
			</g>
			<g>
				<path class="st4" d="M43.9,42.6h-3c-0.2,0-0.3-0.1-0.4-0.2l-9.8-16.9c-0.1-0.2-0.1-0.3,0-0.5s0.3-0.3,0.4-0.3h3
					c0.2,0,0.3,0.1,0.4,0.2l9.8,16.9c0.1,0.2,0.1,0.3,0,0.5S44.1,42.6,43.9,42.6z M41.3,41.6h1.8l-9.2-15.9H32L41.3,41.6z"/>
			</g>
			<g>
				<polygon class="st4" points="31.1,25.3 41,42.1 43.9,42.1 34.1,25.3 				"/>
			</g>
		</g>
		<g>
			<circle class="st3" cx="18.5" cy="33.7" r="6.1"/>
		</g>
		<g>
			<path class="st2" d="M71.1,38.1c0.1,0.1,0.2,0.1,0.2,0c0.7-1.3,1.1-2.7,1.1-4.3c0-5-4.1-9-9.1-9c0,0,0,0,0,0L71.1,38.1z"/>
		</g>
		<g>
			<rect x="13.9" y="32.2" transform="matrix(0.5 -0.866 0.866 0.5 -19.9373 32.8996)" class="st2" width="9.2" height="3"/>
		</g>
		<g>
			<circle cx="60.2" cy="40.8" r="1.9"/>
		</g>
		<g>
			<circle cx="41.4" cy="26.7" r="1.9"/>
		</g>
	</g>
</g>
<g id="Layer_2">
</g>
</svg>
