<?xml version="1.0" encoding="utf-8"?>
<!-- Generator: Adobe Illustrator 21.1.0, SVG Export Plug-In . SVG Version: 6.00 Build 0)  -->
<svg version="1.1" xmlns="http://www.w3.org/2000/svg" xmlns:xlink="http://www.w3.org/1999/xlink" x="0px" y="0px"
	 viewBox="0 0 200 200" style="enable-background:new 0 0 200 200;" xml:space="preserve">
<style type="text/css">
	.st0{fill:none;stroke:#B3C0C7;stroke-miterlimit:10;}
	.st1{fill:#778085;}
	.st2{fill:#FD7E23;}
	.st3{fill:#30E6B6;}
	.st4{fill:#29C49B;}
	.st5{fill:#FDD353;}
	.st6{fill:#FDE4D2;}
	.st7{fill:#F2C2A0;}
	.st8{fill:#4D5052;}
	.st9{fill:#FD6A5D;}
	.st10{fill:#D1584D;}
	.st11{fill:#B8FFEC;}
	.st12{fill:#FFFFFF;}
	.st13{fill:#C9C9C9;}
	.st14{fill:#1DAAF1;}
	.st15{fill:#1682B8;}
	.st16{fill:#5EC9FF;}
	.st17{fill:#DB5F07;}
	.st18{fill:#C4F2EB;}
	.st19{fill:#B4DED7;}
	.st20{fill:#ABABAB;}
	.st21{fill:#757575;}
	.st22{fill:#878787;}
	.st23{fill:#C9EDFF;}
	.st24{fill:#93C2D9;}
	.st25{fill:#FDA29A;}
	.st26{fill:#9C9C9C;}
	.st27{fill:url(#SVGID_1_);}
	.st28{fill:url(#SVGID_2_);}
	.st29{fill:url(#SVGID_3_);}
	.st30{fill:url(#SVGID_4_);}
	.st31{fill:#A5F2DE;}
</style>
<g id="marks">
</g>
<g id="icons">
	<g>
		<g>
			<circle class="st2" cx="100" cy="100" r="69.8"/>
		</g>
		<g>
			<path class="st17" d="M153.6,113c5-1.2,7.5-6.7,9.3-15.8c1-5.1,2.2-10.8,3.9-17c-2.2-7.4-5.5-14.2-9.9-20.3
				c-0.4,0.4-0.8,0.8-1.2,1.2c-10.3,11-13.2,19.8-13.2,19.8s-3.2-13.2-35-13.2c-31.8,0-35,13.2-35,13.2S69.8,72,59.5,61
				c-3.3-3.5-6.8-6.4-10.3-8.8c-2.8,3-5.3,6.2-7.6,9.6c0.4,0.8,0.8,1.7,1.2,2.5C48.3,77,50.5,88,52.3,97.2
				c1.8,9.2,3.3,13.1,7.8,15.3c4.5,2.2,6.9-0.1,6.9-0.1s-1.1,9,4.7,17c0.6,0.8,1.2,1.6,1.9,2.3c0,0,0,0,0,0
				c-11.4,2.3-17.4,8.5-21.1,16.9c0,0,2.8,4.4,8.9,9.6c11,7.3,24.3,11.6,38.5,11.6c24.9,0,46.7-13,59-32.6c-2-3-4.7-6-8.1-8.7
				c-3.5-2.7-8.5-4.2-8.5-4.2c3.8-5.7,4.3-11.6,4.3-11.6S150.1,113.8,153.6,113z"/>
		</g>
		<g>
			<path class="st13" d="M45,143.4c3.7-8.5,9.6-14.6,21.1-16.9c5.5-1.1,21.4,4.8,21.4,4.8s33.8-0.6,38-3.5c4.2-2.8,7.7-1.6,15.4,1.2
				c10.8,4,14.3,15.7,14.3,15.7c-2.3,1.4-21.4,25.4-52.7,25.3C61.9,169.8,45,143.4,45,143.4z"/>
		</g>
		<g>
			<path class="st20" d="M56.8,143.4c-1.3,2.5-4,8-4,8l6.6,4.9c0,0,0.2-7.4,3.2-12.8s10.7-10.8,10.7-10.8s-0.5-2.5-3.9-0.5
				C65.9,134.2,60,137,56.8,143.4z"/>
		</g>
		<g>
			<path class="st20" d="M121.3,166.7c4-1.4,7.5-5.9,9.2-10.9c0.9-2.6,1.2-5.1,1.4-7c0.2-1.7,1.6-3,3.2-3h0c1.2,0,2.3,0.7,2.9,1.7
				c1,1.9,2.3,5.2,2.6,9.5L121.3,166.7z"/>
		</g>
		<g>
			<path class="st20" d="M97.4,147.7c5,0,7.4,2,7.9,4.2c0.9,3.8-2.6,5.8-2.6,5.8c-2.8,0.7,9.1-2.7,11.8-5c2.6-2.2,2.6-5.2,1.4-5.5
				c-2.3-0.6-4.6-0.3-7.6,0.2S97.4,147.7,97.4,147.7z"/>
		</g>
		<g>
			<path class="st20" d="M85.9,138.5c5.2,1,16.3,3.8,32.7,2.5s23.7-8,25-9.7c1.3-1.8-9.8-6.5-14.5-2.7c-4.8,3.8-10.2,8.3-19.7,9.1
				C100,138.5,85.9,138.5,85.9,138.5z"/>
		</g>
		<g>
			<path class="st3" d="M100,138.5c-14.5,0-27.2-2.5-35.8-14.3c-5.9-8-4.7-17-4.7-17s-2.4,2.3-6.9,0.1c-4.6-2.2-6-6.1-7.8-15.3
				c-1.8-9.2-4-20.2-9.5-32.8c-2.3-5.4-5-10.1-7.2-13.8c-1.5-2.5,1.1-5.5,3.8-4.2c5.8,2.9,13.5,7.6,20.1,14.6
				C62.2,66.8,65,75.7,65,75.7s3.2-13.2,35-13.2s35,13.2,35,13.2s2.8-8.8,13.2-19.8c6.6-7,14.3-11.7,20.1-14.6
				c2.6-1.3,5.3,1.7,3.8,4.2c-2.3,3.6-4.9,8.4-7.2,13.8c-5.5,12.7-7.7,23.7-9.5,32.8s-4.4,14.6-9.3,15.8c-3.5,0.8-7-0.3-7-0.3
				s0,8.8-6,16.7C125.3,134.3,114.5,138.5,100,138.5z"/>
		</g>
		<g>
			<path class="st4" d="M34.8,49c1.8,2.6,9.1,16.6,12,26.8s3.9,19.9,6,20.9c2.1,1,5.9,1.1,6.3-1.4c0.3-2.5-3.6-23.3-12-33.4
				S34.8,49,34.8,49z"/>
		</g>
		<g>
			<path class="st4" d="M58.4,98c1.6-0.8,3.8-1.9,4.7-7.1c0.8-5.2,1.6-12.1,1.6-12.1s1-3.7-2.6-9.2c-3.5-5.5-11.7-16-18.3-20.9
				c-10-7.4-15.6-7.4-15.6-7.4s9,6.5,15.5,14.8c9.5,12.1,14.3,24.6,15.7,30.2C60.8,92,58.4,98,58.4,98z"/>
		</g>
		<g>
			<path class="st4" d="M92.9,102.4c0,0,0.3,4.9,4.4,4.9s4.4-4.9,4.4-4.9H92.9z"/>
		</g>
		<g>
			<path class="st4" d="M105.3,83.2c1.1,5.6,4.3,11,12.4,13.6s12.2,3.5,13.7,6.3c1.5,2.7,0.9-6.6-10.2-9.5c-11.1-3-12.3-3.3-14.3-8
				S105.3,83.2,105.3,83.2z"/>
		</g>
		<g>
			<path class="st4" d="M65.5,102c1.2-2.5,3.9-5.1,13.7-5.8s12.9-3.4,14.5-7.1c1.6-3.7,1.8-15.1,1-16.5c-0.9-1.4-1.2,0.9-1.8,4.8
				s1.1,10.6-6.1,12.6c-7.2,2-12.2,0.2-15.6,2.8C65.5,97,65.5,102,65.5,102z"/>
		</g>
		<g>
			<path class="st4" d="M143.2,96.8c2.7,2.1,7.8,1.8,9.7-11.4c1.9-13.2,8.4-29.3,11.4-34.2s1.7-4.4-1.6-0.9s-16.2,18.2-18.9,31.5
				C141,95.1,143.2,96.8,143.2,96.8z"/>
		</g>
		<g>
			<path class="st8" d="M100,171c-39.1,0-71-31.9-71-71c0-11.7,2.9-23.2,8.4-33.5c0.3-0.5,0.9-0.7,1.4-0.4c0.5,0.3,0.7,0.9,0.4,1.4
				C33.8,77.4,31,88.7,31,100c0,38,31,69,69,69s69-31,69-69c0-11.3-2.8-22.6-8.1-32.5c-0.3-0.5-0.1-1.1,0.4-1.4
				c0.5-0.3,1.1-0.1,1.4,0.4c5.5,10.2,8.4,21.8,8.4,33.5C171,139.1,139.1,171,100,171z"/>
		</g>
		<g>
			<path class="st8" d="M48.5,53.6c-0.2,0-0.5-0.1-0.7-0.3c-0.4-0.4-0.4-1-0.1-1.4C61.2,37.3,80.2,29,100,29
				c19.8,0,38.8,8.3,52.2,22.9c0.4,0.4,0.3,1-0.1,1.4c-0.4,0.4-1,0.3-1.4-0.1C137.7,39.1,119.2,31,100,31
				c-19.2,0-37.7,8.1-50.7,22.2C49.1,53.5,48.8,53.6,48.5,53.6z"/>
		</g>
		<g>
			<path class="st8" d="M144.5,99.4c-0.7,0-1.4-0.2-2.1-0.6c-5.1-2.8-3.2-14,5.1-30c6-11.7,16.6-21.4,17.1-21.8
				c0.4-0.4,1-0.3,1.4,0.1s0.3,1-0.1,1.4c-0.1,0.1-10.8,9.9-16.6,21.2c-8.5,16.5-9.1,25.6-5.9,27.3c0.8,0.4,1.6,0.4,2.5,0
				c2.1-1.1,4-4.6,4.4-8.2c0.1-0.5,0.6-0.9,1.1-0.9c0.5,0.1,0.9,0.6,0.9,1.1c-0.5,4.3-2.7,8.3-5.5,9.8
				C146,99.3,145.2,99.4,144.5,99.4z"/>
		</g>
		<g>
			<path class="st8" d="M132,106c-0.5,0-1-0.4-1-1c0-0.4-0.4-9.1-10.9-10.8c-9.1-1.5-13.4-4.8-14.9-11.7c-0.9-4.3-0.9-9.2-0.9-9.4
				c0-0.6,0.4-1,1-1c0.6,0,1,0.5,1,1c0,0-0.1,4.9,0.8,9c1.1,5,3.7,8.6,13.2,10.2c12.2,1.9,12.6,12.6,12.6,12.7
				C133,105.5,132.6,106,132,106C132,106,132,106,132,106z"/>
		</g>
		<g>
			<path class="st8" d="M118.7,103.3c-12.8,0-14.8-11.3-14.8-11.4c-0.1-0.8,0.4-1.6,1.2-1.7c0.8-0.1,1.6,0.4,1.7,1.2
				c0.1,0.4,1.7,8.9,11.9,8.9c5.6,0,7.3-3.3,7.4-3.5c0.4-0.7,1.3-1,2-0.7c0.7,0.4,1.1,1.2,0.7,2C128.6,98.4,126.2,103.3,118.7,103.3
				z"/>
		</g>
		<g>
			<path class="st8" d="M100,139.5c-12.8,0-27.1-1.8-36.6-14.7c-4.5-6.1-5-12.7-5-15.9c-1.4,0.5-3.5,0.7-6.3-0.7
				c-5.2-2.5-6.6-7-8.4-16l-0.1-0.3c-1.8-8.9-4-19.9-9.4-32.3c-2-4.6-4.4-9.1-7.2-13.6c-0.9-1.5-0.8-3.4,0.4-4.7
				c1.2-1.3,3-1.7,4.6-0.9c5.5,2.7,13.6,7.5,20.4,14.8c7.4,7.9,11,14.7,12.5,18c2.5-4,10.4-11.7,34.9-11.7s32.5,7.7,34.9,11.7
				c1.5-3.3,5.1-10.1,12.5-18c6.9-7.3,14.9-12.1,20.4-14.8c1.6-0.8,3.4-0.4,4.6,0.9c1.2,1.3,1.4,3.2,0.4,4.7
				c-2.8,4.5-5.2,9.1-7.2,13.6c-5.4,12.4-7.6,23.5-9.4,32.3l-0.1,0.3c-1.5,7.4-3.8,15.1-10.1,16.6c-2.5,0.6-4.9,0.3-6.3,0
				c-0.2,2.8-1.3,9.6-6.1,16C126.2,134.8,115.4,139.5,100,139.5z M59.4,106.2c0.2,0,0.3,0,0.5,0.1c0.4,0.2,0.6,0.6,0.5,1
				c0,0.1-1,8.7,4.5,16.3c9,12.3,22.8,13.9,35,13.9c14.7,0,25-4.4,32.2-13.9c5.7-7.6,5.8-16,5.8-16.1c0-0.3,0.2-0.6,0.4-0.8
				c0.3-0.2,0.6-0.2,0.9-0.1c0,0,3.3,1.1,6.5,0.3c4.1-1,6.7-5.5,8.6-15.1l0.1-0.3c1.8-9,4-20.1,9.5-32.7c2-4.6,4.5-9.3,7.3-13.9
				c0.6-0.9,0.3-1.8-0.2-2.3c-0.5-0.5-1.3-0.9-2.3-0.4c-5.4,2.6-13.2,7.3-19.8,14.4C138.9,67.2,136,75.9,136,76
				c-0.1,0.4-0.5,0.7-1,0.7c-0.4,0-0.8-0.3-0.9-0.8c0,0-0.8-3.1-5.4-6.1c-4.2-2.9-12.7-6.3-28.7-6.3s-24.4,3.4-28.7,6.3
				c-4.5,3-5.4,6.1-5.4,6.1c-0.1,0.4-0.5,0.7-0.9,0.8c-0.4,0-0.8-0.3-1-0.7c0-0.1-2.9-8.8-12.9-19.5c-6.7-7.1-14.5-11.7-19.8-14.4
				c-1-0.5-1.8-0.1-2.3,0.4c-0.5,0.5-0.8,1.4-0.2,2.3c2.8,4.6,5.3,9.2,7.3,13.9c5.5,12.6,7.7,23.8,9.5,32.7l0.1,0.3
				c1.8,9.2,3.1,12.6,7.3,14.6c3.7,1.8,5.7,0.1,5.8,0C58.9,106.3,59.2,106.2,59.4,106.2z"/>
		</g>
		<g>
			<path class="st8" d="M57.2,99c-0.4,0-0.7-0.2-0.9-0.5c-0.3-0.5-0.1-1.1,0.4-1.4c3.2-1.7,2.6-10.8-5.9-27.3
				c-5.8-11.4-16.5-21.1-16.6-21.2c-0.4-0.4-0.4-1-0.1-1.4c0.4-0.4,1-0.4,1.4-0.1c0.4,0.4,11,10.1,17.1,21.8
				c8.2,16,10.1,27.2,5.1,30C57.5,99,57.3,99,57.2,99z"/>
		</g>
		<g>
			<path class="st8" d="M64.7,102.8C64.6,102.8,64.6,102.8,64.7,102.8c-0.6,0-1-0.5-1-1.1c0-0.1,1-11.1,12.2-11.1
				c10.5,0,13.6-3,15.2-7.5c1.3-3.8,1.6-10.8,1.7-10.9c0-0.6,0.5-1,1-1c0.6,0,1,0.5,1,1c0,0.3-0.3,7.4-1.8,11.5
				c-2.2,6.3-7.1,8.8-17.1,8.8c-9.3,0-10.1,8.9-10.2,9.3C65.6,102.4,65.2,102.8,64.7,102.8z"/>
		</g>
		<g>
			<path class="st8" d="M78.9,103.3c-7.5,0-10-5-10.1-5.2c-0.4-0.7,0-1.6,0.7-2c0.7-0.4,1.6,0,2,0.7c0.1,0.1,1.8,3.5,7.3,3.5
				c4.3,0,7.6-1.5,9.8-4.5c1.6-2.2,2-4.4,2-4.4c0.1-0.8,0.9-1.4,1.7-1.2c0.8,0.1,1.4,0.9,1.2,1.7C93.7,92,91.7,103.3,78.9,103.3z"/>
		</g>
		<g>
			<path class="st8" d="M97.4,104c-1.9,0-3.5-0.8-4.3-1.4c-0.4-0.3-0.5-1-0.2-1.4c0.3-0.4,1-0.5,1.4-0.2c0.1,0.1,2.9,2.2,6.3-0.1
				c0.5-0.3,1.1-0.2,1.4,0.3c0.3,0.5,0.2,1.1-0.3,1.4C100.2,103.7,98.7,104,97.4,104z"/>
		</g>
		<g>
			<path class="st8" d="M97.4,122.2c-1.5,0-2.7-0.5-3.7-1.6c-2-2.2-2.1-6.3-2-8.2h-2.3c-0.6,0-1-0.4-1-1s0.4-1,1-1h3.3
				c0.3,0,0.6,0.1,0.7,0.3c0.2,0.2,0.3,0.5,0.2,0.8c-0.2,1.5-0.3,5.9,1.4,7.8c0.6,0.6,1.3,0.9,2.2,0.9s1.6-0.3,2.2-0.9
				c1.7-1.9,1.6-6.3,1.4-7.8c0-0.3,0.1-0.6,0.2-0.8c0.2-0.2,0.5-0.3,0.7-0.3h3.3c0.6,0,1,0.4,1,1s-0.4,1-1,1h-2.3c0.1,2,0,6-2,8.2
				C100.1,121.6,98.9,122.2,97.4,122.2z"/>
		</g>
		<g>
			<path class="st8" d="M51,93.5c-0.2,0-0.5-0.2-0.5-0.4c-1.5-11.3-6.1-22.3-6.1-22.4c-0.1-0.3,0-0.5,0.3-0.7c0.3-0.1,0.5,0,0.7,0.3
				c0,0.1,4.7,11.2,6.2,22.6C51.5,93.2,51.3,93.5,51,93.5C51,93.5,51,93.5,51,93.5z"/>
		</g>
		<g>
			<path class="st8" d="M154,143.8c-5.2-13.9-22.4-16.7-22.6-16.8c-0.5-0.1-0.9-0.6-0.8-1.1c0.1-0.5,0.6-0.9,1.1-0.8
				c0.7,0.1,17.9,3,23.8,17.2C155.6,142.5,154.1,144.2,154,143.8z"/>
		</g>
		<g>
			<path class="st8" d="M44.3,142c5.9-14,20.9-16.4,21.6-16.5c0.5-0.1,1.1,0.3,1.1,0.8c0.1,0.5-0.3,1.1-0.8,1.1
				c-0.2,0-15.3,2.5-20.4,16.3C45.6,144.2,44.2,142.4,44.3,142z"/>
		</g>
		<g>
			<path class="st8" d="M55.4,146.3c-0.1,0-0.1,0-0.2,0c-0.3-0.1-0.4-0.4-0.3-0.7c0-0.1,4.5-9.9,16-14.8c0.3-0.1,0.5,0,0.7,0.3
				c0.1,0.3,0,0.5-0.3,0.7c-11.1,4.8-15.5,14.2-15.5,14.3C55.8,146.2,55.6,146.3,55.4,146.3z"/>
		</g>
		<g>
			<path class="st8" d="M142.1,146.3c-0.2,0-0.4-0.1-0.5-0.3c0-0.1-4.4-9.5-15.5-14.3c-0.3-0.1-0.4-0.4-0.3-0.7s0.4-0.4,0.7-0.3
				c11.5,5,16,14.7,16,14.8c0.1,0.3,0,0.5-0.3,0.7C142.2,146.3,142.2,146.3,142.1,146.3z"/>
		</g>
		<g>
			<path class="st8" d="M89.5,159.8c-0.3,0-0.5-0.2-0.5-0.5s0.2-0.5,0.5-0.5c9.9,0,18.6-2.5,26-7.3c1.2-0.8,1.2-2.1,0.9-2.9
				c-0.3-0.8-1.2-1.7-2.6-1.5c-4.9,0.8-10.4,1.2-16.3,1.1c-16.2-0.3-23.4-4.1-23.6-4.3c-0.2-0.1-0.3-0.4-0.2-0.7
				c0.1-0.2,0.4-0.3,0.7-0.2c0.1,0,7.3,3.9,23.2,4.2c5.8,0.1,11.3-0.3,16.1-1.1c1.9-0.3,3.2,0.8,3.7,2.1c0.5,1.3,0.3,3-1.3,4.1
				C108.5,157.3,99.6,159.8,89.5,159.8z"/>
		</g>
		<g>
			<path class="st8" d="M63.3,150.3C63.3,150.3,63.3,150.3,63.3,150.3c-0.4-0.1-0.5-0.3-0.5-0.6c0.1-0.4,2-9.6,12.2-16.3
				c0.2-0.1,0.5-0.1,0.7,0.1c0.2,0.2,0.1,0.5-0.1,0.7c-9.9,6.5-11.8,15.6-11.8,15.7C63.8,150.2,63.6,150.3,63.3,150.3z"/>
		</g>
		<g>
			<path class="st8" d="M154.9,59.2c-4.1,5.8-9.8,20.5-9,28.5c0.5,5.4,4.7,4,4.7,4s-4.3,8.5-7.8,6.3s-2.7-11.2,1.6-20.4
				S154.9,59.2,154.9,59.2z"/>
		</g>
		<g>
			<path class="st4" d="M102.9,134.7c0,0,13.7,1,23.4-8.5c8.8-8.6,9.6-19.5,9.6-19.5s-3.2,9.5-15.1,18.8
				C113.3,131.3,102.9,134.7,102.9,134.7z"/>
		</g>
		<g>
			<path class="st4" d="M107.6,66.3c0,0,9.9,0.7,17,4.2c7.6,3.7,9.6,10.6,9.6,10.6S134.3,89,135,93s1.5,7,1.5,7s-2.6-7.5-7.2-10.9
				c-4.6-3.4-11.2-4.5-15.4-9.7C108.9,73.1,107.6,66.3,107.6,66.3z"/>
		</g>
		<g>
			<path class="st11" d="M67.5,85.4c0.6-5.4,2.8-10.8,7-13.9s16.2-5.2,16.2-5.2s-0.2,6.7-6.6,12.4S67.5,85.4,67.5,85.4z"/>
		</g>
		<g>
			<path class="st11" d="M63.3,111.3c0,0,1.2,8.2,6,12.7c4.8,4.5,9.8,5.8,9.8,5.8s-6.4-6.5-9.8-10.7
				C65.5,114.5,63.3,111.3,63.3,111.3z"/>
		</g>
	</g>
</g>
</svg>
