<?xml version="1.0" encoding="utf-8"?>
<!-- Generator: Adobe Illustrator 21.1.0, SVG Export Plug-In . SVG Version: 6.00 Build 0)  -->
<svg version="1.1" xmlns="http://www.w3.org/2000/svg" xmlns:xlink="http://www.w3.org/1999/xlink" x="0px" y="0px"
	 viewBox="0 0 200 200" style="enable-background:new 0 0 200 200;" xml:space="preserve">
<style type="text/css">
	.st0{fill:none;stroke:#B3C0C7;stroke-miterlimit:10;}
	.st1{fill:#778085;}
	.st2{fill:#FD7E23;}
	.st3{fill:#30E6B6;}
	.st4{fill:#29C49B;}
	.st5{fill:#FDD353;}
	.st6{fill:#FDE4D2;}
	.st7{fill:#F2C2A0;}
	.st8{fill:#4D5052;}
	.st9{fill:#FD6A5D;}
	.st10{fill:#D1584D;}
	.st11{fill:#B8FFEC;}
	.st12{fill:#FFFFFF;}
	.st13{fill:#C9C9C9;}
	.st14{fill:#1DAAF1;}
	.st15{fill:#1682B8;}
	.st16{fill:#5EC9FF;}
	.st17{fill:#DB5F07;}
	.st18{fill:#C4F2EB;}
	.st19{fill:#B4DED7;}
	.st20{fill:#ABABAB;}
	.st21{fill:#757575;}
	.st22{fill:#878787;}
	.st23{fill:#C9EDFF;}
	.st24{fill:#93C2D9;}
	.st25{fill:#FDA29A;}
	.st26{fill:#9C9C9C;}
	.st27{fill:url(#SVGID_1_);}
	.st28{fill:url(#SVGID_2_);}
	.st29{fill:url(#SVGID_3_);}
	.st30{fill:url(#SVGID_4_);}
	.st31{fill:#A5F2DE;}
</style>
<g id="marks">
</g>
<g id="icons">
	<g>
		<g>
			<circle class="st2" cx="136" cy="88.3" r="6.6"/>
		</g>
		<g>
			<circle class="st2" cx="165.4" cy="88.3" r="6.6"/>
		</g>
		<g>
			<path class="st2" d="M110.4,88.3l42.1-42.1c-10.8-10.8-25.7-17.4-42.1-17.4c-32.9,0-59.6,26.7-59.6,59.6s26.7,59.6,59.6,59.6
				c16.4,0,31.3-6.7,42.1-17.4L110.4,88.3z"/>
		</g>
		<g>
			<path class="st8" d="M98,172.2c-39.1,0-71-31.9-71-71c0-36.9,28.8-68,65.6-70.8c0.6,0,1,0.4,1.1,0.9c0,0.6-0.4,1-0.9,1.1
				C57,35.1,29,65.3,29,101.2c0,38,31,69,69,69c38,0,69-31,69-69c0-2.2-0.1-4.4-0.3-6.6c-0.1-0.5,0.4-1,0.9-1.1
				c0.6-0.1,1,0.4,1.1,0.9c0.2,2.2,0.3,4.5,0.3,6.8C169,140.4,137.1,172.2,98,172.2z"/>
		</g>
		<g>
			<path class="st8" d="M165.3,82.8c-0.4,0-0.8-0.3-1-0.7c-3.2-11.3-9.4-21.6-17.7-29.9c-0.4-0.4-0.4-1,0-1.4c0.4-0.4,1-0.4,1.4,0
				c8.6,8.5,14.9,19.2,18.2,30.7c0.2,0.5-0.2,1.1-0.7,1.2C165.5,82.8,165.4,82.8,165.3,82.8z"/>
		</g>
		<g>
			<path class="st8" d="M110.4,148.9c-33.4,0-60.6-27.2-60.6-60.6s27.2-60.6,60.6-60.6c16.2,0,31.4,6.3,42.8,17.7
				c0.4,0.4,0.4,1,0,1.4l-41.4,41.4l41.4,41.4c0.4,0.4,0.4,1,0,1.4C141.8,142.6,126.6,148.9,110.4,148.9z M110.4,29.8
				c-32.3,0-58.6,26.3-58.6,58.6s26.3,58.6,58.6,58.6c15.3,0,29.7-5.8,40.7-16.4l-41.4-41.4c-0.4-0.4-0.4-1,0-1.4l41.4-41.4
				C140.2,35.6,125.8,29.8,110.4,29.8z"/>
		</g>
		<g>
			<g>
				<path class="st12" d="M120.1,104.9c-0.1,0-0.3,0-0.4-0.1l-16.1-16.1c-0.2-0.2-0.2-0.5,0-0.7l42.1-42.1c0.2-0.2,0.5-0.2,0.7,0
					s0.2,0.5,0,0.7l-41.8,41.8l15.7,15.7c0.2,0.2,0.2,0.5,0,0.7C120.3,104.9,120.2,104.9,120.1,104.9z"/>
			</g>
		</g>
		<g>
			<g>
				<path class="st12" d="M146.1,131c-0.1,0-0.3,0-0.4-0.1l-15.6-15.6c-0.2-0.2-0.2-0.5,0-0.7s0.5-0.2,0.7,0l15.6,15.6
					c0.2,0.2,0.2,0.5,0,0.7C146.3,130.9,146.2,131,146.1,131z"/>
			</g>
		</g>
		<g>
			<path class="st8" d="M136,95.9c-4.2,0-7.6-3.4-7.6-7.6s3.4-7.6,7.6-7.6c4.2,0,7.6,3.4,7.6,7.6S140.2,95.9,136,95.9z M136,82.8
				c-3.1,0-5.6,2.5-5.6,5.6c0,3.1,2.5,5.6,5.6,5.6s5.6-2.5,5.6-5.6C141.6,85.3,139.1,82.8,136,82.8z"/>
		</g>
		<g>
			<path class="st8" d="M165.4,95.9c-4.2,0-7.6-3.4-7.6-7.6s3.4-7.6,7.6-7.6c4.2,0,7.6,3.4,7.6,7.6S169.6,95.9,165.4,95.9z
				 M165.4,82.8c-3.1,0-5.6,2.5-5.6,5.6c0,3.1,2.5,5.6,5.6,5.6s5.6-2.5,5.6-5.6C171,85.3,168.5,82.8,165.4,82.8z"/>
		</g>
		<g>
			<path class="st8" d="M165.4,94.9c-3.6,0-6.6-2.9-6.6-6.6c0-3.4,2.6-6.3,6-6.6c-0.6-2.6-1.3-5-2-7c-4.1-12.4-15.5-23.2-15.5-23.2
				l-36.8,36.8l42.1,42.1c-10.8,10.8-25.7,17.4-42.1,17.4c-32.9,0-59.6-26.7-59.6-59.6c0-26.7,17.6-49.3,41.8-56.9
				c5.6-1.7-5,0.5-11.1,1.7S33.9,46.2,28,94.9c-5.7,47.6,35.6,77.4,70,76.3c34.4-1.1,51.9-19.7,63-39.4c6.6-11.8,7.4-25.4,6.2-37.1
				C166.6,94.8,166,94.9,165.4,94.9z M136,94.9c-3.6,0-6.6-2.9-6.6-6.6c0-3.6,2.9-6.6,6.6-6.6c3.6,0,6.6,2.9,6.6,6.6
				C142.6,92,139.6,94.9,136,94.9z"/>
		</g>
		<g>
			<path class="st5" d="M121.2,36.9c-3.4-0.7-6.8-1-10.4-1c-29,0-52.5,23.5-52.5,52.5c0,3.6,0.4,7,1,10.4L121.2,36.9z"/>
		</g>
		<g>
			<path class="st5" d="M137.9,43.4c-3.1-1.9-6.3-3.4-9.8-4.6l-66.9,66.9c1.2,3.4,2.8,6.7,4.6,9.8L137.9,43.4z"/>
		</g>
		<g>
			<path class="st17" d="M124.4,117l-23,23c3.1,0.6,6.2,0.8,9.4,0.8c10.7,0,20.6-3.2,28.9-8.6L124.4,117z"/>
		</g>
	</g>
</g>
</svg>
