<?xml version="1.0" encoding="utf-8"?>
<!-- Generator: Adobe Illustrator 21.1.0, SVG Export Plug-In . SVG Version: 6.00 Build 0)  -->
<svg version="1.1" xmlns="http://www.w3.org/2000/svg" xmlns:xlink="http://www.w3.org/1999/xlink" x="0px" y="0px"
	 viewBox="0 0 200 200" style="enable-background:new 0 0 200 200;" xml:space="preserve">
<style type="text/css">
	.st0{fill:none;stroke:#B3C0C7;stroke-miterlimit:10;}
	.st1{fill:#778085;}
	.st2{fill:#FD7E23;}
	.st3{fill:#30E6B6;}
	.st4{fill:#29C49B;}
	.st5{fill:#FDD353;}
	.st6{fill:#FDE4D2;}
	.st7{fill:#F2C2A0;}
	.st8{fill:#4D5052;}
	.st9{fill:#FD6A5D;}
	.st10{fill:#D1584D;}
	.st11{fill:#B8FFEC;}
	.st12{fill:#FFFFFF;}
	.st13{fill:#C9C9C9;}
	.st14{fill:#1DAAF1;}
	.st15{fill:#1682B8;}
	.st16{fill:#5EC9FF;}
	.st17{fill:#DB5F07;}
	.st18{fill:#C4F2EB;}
	.st19{fill:#B4DED7;}
	.st20{fill:#ABABAB;}
	.st21{fill:#757575;}
	.st22{fill:#878787;}
	.st23{fill:#C9EDFF;}
	.st24{fill:#93C2D9;}
	.st25{fill:#FDA29A;}
	.st26{fill:#9C9C9C;}
	.st27{fill:url(#SVGID_1_);}
	.st28{fill:url(#SVGID_2_);}
	.st29{fill:url(#SVGID_3_);}
	.st30{fill:url(#SVGID_4_);}
	.st31{fill:#A5F2DE;}
</style>
<g id="marks">
</g>
<g id="icons">
	<g>
		<g>
			<circle class="st2" cx="100" cy="104.9" r="70"/>
		</g>
		<path class="st17" d="M107.3,35.3l-37,69.5c-1.3,2.4-0.4,5.3,2,6.5l46.4,24.7c2.4,1.3,5.3,0.4,6.5-2L160,68.8
			C148.9,50.4,129.7,37.6,107.3,35.3z"/>
		<g>
			
				<rect x="58.1" y="61" transform="matrix(0.4697 -0.8828 0.8828 0.4697 -23.9807 137.2163)" class="st12" width="88.2" height="55.1"/>
		</g>
		<path class="st31" d="M103.2,59l-6.3-3.3c-0.8-0.4-1-1.3-0.6-2.1l3.3-6.3c0.4-0.8,1.3-1,2.1-0.6l6.3,3.3c0.8,0.4,1,1.3,0.6,2.1
			l-3.3,6.3C104.9,59.1,103.9,59.4,103.2,59z"/>
		<path class="st31" d="M118.2,67l-6.3-3.3c-0.8-0.4-1-1.3-0.6-2.1l3.3-6.3c0.4-0.8,1.3-1,2.1-0.6L123,58c0.8,0.4,1,1.3,0.6,2.1
			l-3.3,6.3C119.9,67.1,119,67.4,118.2,67z"/>
		<path class="st23" d="M132.8,74.6l-6.3-3.3c-0.8-0.4-1-1.3-0.6-2.1l3.3-6.3c0.4-0.8,1.3-1,2.1-0.6l6.3,3.3c0.8,0.4,1,1.3,0.6,2.1
			l-3.3,6.3C134.5,74.8,133.6,75,132.8,74.6z"/>
		<path class="st5" d="M96.2,72.8l-6.3-3.3c-0.8-0.4-1-1.3-0.6-2.1l3.3-6.3c0.4-0.8,1.3-1,2.1-0.6l6.3,3.3c0.8,0.4,1,1.3,0.6,2.1
			l-3.3,6.3C97.9,72.9,96.9,73.2,96.2,72.8z"/>
		<path class="st23" d="M111.2,80.8l-6.3-3.3c-0.8-0.4-1-1.3-0.6-2.1l3.3-6.3c0.4-0.8,1.3-1,2.1-0.6l6.3,3.3c0.8,0.4,1,1.3,0.6,2.1
			l-3.3,6.3C112.9,80.9,112,81.2,111.2,80.8z"/>
		<path class="st31" d="M125.8,88.4l-6.3-3.3c-0.8-0.4-1-1.3-0.6-2.1l3.3-6.3c0.4-0.8,1.3-1,2.1-0.6l6.3,3.3c0.8,0.4,1,1.3,0.6,2.1
			l-3.3,6.3C127.5,88.5,126.6,88.8,125.8,88.4z"/>
		<path class="st11" d="M88.7,86.9l-6.3-3.3c-0.8-0.4-1-1.3-0.6-2.1l3.3-6.3c0.4-0.8,1.3-1,2.1-0.6l6.3,3.3c0.8,0.4,1,1.3,0.6,2.1
			l-3.3,6.3C90.4,87,89.5,87.3,88.7,86.9z"/>
		<path class="st23" d="M103.7,94.9l-6.3-3.3c-0.8-0.4-1-1.3-0.6-2.1l3.3-6.3c0.4-0.8,1.3-1,2.1-0.6l6.3,3.3c0.8,0.4,1,1.3,0.6,2.1
			l-3.3,6.3C105.4,95,104.5,95.3,103.7,94.9z"/>
		<path class="st5" d="M118.3,102.5l-6.3-3.3c-0.8-0.4-1-1.3-0.6-2.1l3.3-6.3c0.4-0.8,1.3-1,2.1-0.6l6.3,3.3c0.8,0.4,1,1.3,0.6,2.1
			l-3.3,6.3C120,102.6,119.1,102.9,118.3,102.5z"/>
		<path class="st23" d="M110.8,116.7l-6.3-3.3c-0.8-0.4-1-1.3-0.6-2.1l3.3-6.3c0.4-0.8,1.3-1,2.1-0.6l6.3,3.3c0.8,0.4,1,1.3,0.6,2.1
			l-3.3,6.3C112.5,116.8,111.6,117.1,110.8,116.7z"/>
		<g>
			<path class="st8" d="M100,175.9c-39.1,0-71-31.9-71-71s31.9-71,71-71s71,31.9,71,71S139.1,175.9,100,175.9z M100,35.9
				c-38,0-69,31-69,69s31,69,69,69s69-31,69-69S138,35.9,100,35.9z"/>
		</g>
		<g>
			<path class="st8" d="M105.8,140.9c-0.1,0-0.2,0-0.2-0.1L57,115c-0.1-0.1-0.2-0.2-0.2-0.3c0-0.1,0-0.3,0-0.4l41.4-77.9
				c0.1-0.2,0.4-0.3,0.7-0.2l48.6,25.9c0.2,0.1,0.3,0.4,0.2,0.7l-41.4,77.9c-0.1,0.1-0.2,0.2-0.3,0.2
				C105.9,140.9,105.9,140.9,105.8,140.9z M57.9,114.4l47.7,25.4l41-77L98.8,37.4L57.9,114.4z"/>
		</g>
		<g>
			<path class="st8" d="M117.5,167.1c-0.2,0-0.4-0.1-0.6-0.2l-11-8.3c-0.4-0.3-0.5-1-0.2-1.4c0.3-0.4,1-0.5,1.4-0.2l11,8.3
				c0.4,0.3,0.5,1,0.2,1.4C118.1,166.9,117.8,167.1,117.5,167.1z"/>
		</g>
		<g>
			<path class="st8" d="M134,154.5C134,154.5,134,154.5,134,154.5l-24.3-0.4c-0.6,0-1-0.5-1-1c0-0.5,0.5-1,1-1c0,0,0,0,0,0l24.3,0.4
				c0.6,0,1,0.5,1,1C135,154,134.6,154.5,134,154.5z"/>
		</g>
		<g>
			<path class="st8" d="M93.5,168.8c-0.2,0-0.3,0-0.5-0.1c-0.5-0.3-0.6-0.9-0.4-1.4l5.1-8.9c0.3-0.5,0.9-0.6,1.4-0.4
				c0.5,0.3,0.6,0.9,0.4,1.4l-5.1,8.9C94.2,168.6,93.9,168.8,93.5,168.8z"/>
		</g>
		<g>
			<path class="st8" d="M75.2,165.3c-0.4,0-0.8-0.2-0.9-0.6c-0.2-0.5,0-1.1,0.5-1.3l18.4-8c0.5-0.2,1.1,0,1.3,0.5
				c0.2,0.5,0,1.1-0.5,1.3l-18.4,8C75.5,165.2,75.3,165.3,75.2,165.3z"/>
		</g>
		<g>
			<path class="st8" d="M111.9,147.4c-0.4,0-0.8-0.2-0.9-0.6c-0.2-0.5,0-1.1,0.5-1.3l22.1-9.3c0.5-0.2,1.1,0,1.3,0.5
				c0.2,0.5,0,1.1-0.5,1.3l-22.1,9.3C112.2,147.4,112,147.4,111.9,147.4z"/>
		</g>
		<g>
			<path class="st8" d="M90.9,153.5l-11.8-1.4c-0.5-0.1-0.9-0.6-0.9-1.1c0.1-0.5,0.6-0.9,1.1-0.9l11.8,1.4c0.5,0.1,0.9,0.6,0.9,1.1
				C91.9,153.2,91.4,153.6,90.9,153.5z"/>
		</g>
		<g>
			<path class="st21" d="M123.7,105.8l0.5-0.9l-10-2.2c-0.2,0-0.4,0-0.5,0.2l-6.6,9.8l-8,5.3l-0.6-5.8l9.8-12.1
				c0.1-0.2,0.1-0.4,0.1-0.5l-8.1-15.6l7.9,0.2c0,0,0,0,0,0c0.1,0,0.2,0,0.2-0.1c0,0,0,0,0,0c0,0,0.1-0.1,0.1-0.1c0,0,0,0,0,0
				l5.3-6.6l8.8,0.6c0.2,0,0.4-0.1,0.5-0.3l4-8.1c0.1-0.2,0-0.5-0.2-0.7c-0.2-0.1-0.5,0-0.7,0.2l-3.9,7.8l-8.7-0.6
				c-0.2,0-0.3,0.1-0.4,0.2l-5,6.2l-2.9-4.9l12.5-13.5c0.2-0.2,0.2-0.5,0-0.7l-5-5.2c-0.2-0.2-0.5-0.2-0.7,0c-0.2,0.2-0.2,0.5,0,0.7
				l4.7,4.9L99,83.2c0,0,0,0,0,0.1c0,0-0.1,0.1-0.1,0.2c0,0,0,0,0,0.1c0,0,0,0,0,0c0,0.1,0,0.2,0.1,0.2c0,0,0,0,0,0l8.3,16.1
				l-5.8,7.2l-0.8-8.6c0-0.1-0.1-0.2-0.1-0.3L93.3,90l1-1.9c0.1-0.1,0.1-0.3,0-0.4s-0.2-0.2-0.3-0.3l-8-3.1L88,73.2
				c0-0.3-0.1-0.5-0.4-0.6c-0.3,0-0.5,0.1-0.6,0.4l-1.9,11.6c0,0.2,0.1,0.5,0.3,0.5l7.8,3l-0.9,1.7c-0.1,0.2-0.1,0.4,0.1,0.6
				l7.3,8.3l0.9,9.4l-7.9,9.8l-5.4-2.6v-7c0-0.1-0.1-0.3-0.2-0.4c-0.1-0.1-0.3-0.1-0.4-0.1l-13.9,1.8c-0.3,0-0.5,0.3-0.4,0.6
				c0,0.3,0.3,0.5,0.6,0.4l13.4-1.7v6.8c0,0.2,0.1,0.4,0.3,0.4l5.9,2.9l7.7,12.6l-7.9-5.3c-0.1-0.1-0.3-0.1-0.4-0.1l-8.3,1.8
				l1.4,0.7l6.9-1.5l8.6,5.8l-5.5,1.1l1.4,0.7l5.1-1l3.4,5.5l0.9,0.5l0.3-0.5l-3.5-5.8l8.2-3l0.7-1.3l-8.8,3.2l3.5-9.7l1.9,2.2
				c0,0.1,0.1,0.2,0.2,0.3l3.2,3.8l0.5-0.9l-2.5-2.9l4.5-0.8l1-2l-6.9-9.2l6.2-9.3L123.7,105.8z M104.5,78.7l2.7,4.5l-6.7-0.1
				L104.5,78.7z M97.6,113.4l0.5,5l-4.4-0.3L97.6,113.4z M93.6,119.2l4.5,0.3l0.5,7.9L93.6,119.2z M105.4,121.6
				C105.4,121.6,105.4,121.6,105.4,121.6l-3.9,10.5l-1.8-2.9l-0.6-9.9l7.6-5L105.4,121.6z M114.3,123.2l-5.6,1l-2.2-2.6l1.3-7.2
				L114.3,123.2z"/>
		</g>
		<g>
			<path class="st8" d="M152.9,49.4l-46.4-24.7c-2.4-1.3-5.3-0.4-6.5,2l-50.3,94.5c-1.3,2.4-0.4,5.3,2,6.5L98,152.5
				c2.4,1.3,5.3,0.4,6.5-2l50.3-94.5C156.1,53.6,155.2,50.6,152.9,49.4z M78.3,137.5c-2.2,0-3.9-1.8-3.9-3.9c0-2.2,1.8-3.9,3.9-3.9
				s3.9,1.8,3.9,3.9C82.2,135.8,80.4,137.5,78.3,137.5z M105.8,140.4l-48.6-25.9l41.4-77.9l48.6,25.9L105.8,140.4z"/>
		</g>
		<path class="st21" d="M55.2,115.7l-3.7,6.7c-0.5,0.9-0.2,2.1,0.8,2.6l11.9,6.5L55.2,115.7z"/>
		<path class="st21" d="M149.2,61.5l3.7-6.7c0.5-0.9,0.2-2.1-0.8-2.6l-11.9-6.5L149.2,61.5z"/>
		<g>
			<circle class="st13" cx="78.2" cy="133.7" r="4"/>
		</g>
		<path class="st21" d="M130,48.5l-9.4-5c-0.5-0.3-0.7-0.9-0.4-1.4l0,0c0.3-0.5,0.9-0.7,1.4-0.4l9.4,5c0.5,0.3,0.7,0.9,0.4,1.4l0,0
			C131.2,48.6,130.5,48.8,130,48.5z"/>
	</g>
</g>
</svg>
