<?xml version="1.0" encoding="utf-8"?>
<!-- Generator: Adobe Illustrator 21.1.0, SVG Export Plug-In . SVG Version: 6.00 Build 0)  -->
<svg version="1.1" xmlns="http://www.w3.org/2000/svg" xmlns:xlink="http://www.w3.org/1999/xlink" x="0px" y="0px"
	 viewBox="0 0 200 200" style="enable-background:new 0 0 200 200;" xml:space="preserve">
<style type="text/css">
	.st0{fill:none;stroke:#B3C0C7;stroke-miterlimit:10;}
	.st1{fill:#778085;}
	.st2{fill:#FD7E23;}
	.st3{fill:#30E6B6;}
	.st4{fill:#29C49B;}
	.st5{fill:#FDD353;}
	.st6{fill:#FDE4D2;}
	.st7{fill:#F2C2A0;}
	.st8{fill:#4D5052;}
	.st9{fill:#FD6A5D;}
	.st10{fill:#D1584D;}
	.st11{fill:#B8FFEC;}
	.st12{fill:#FFFFFF;}
	.st13{fill:#C9C9C9;}
	.st14{fill:#1DAAF1;}
	.st15{fill:#1682B8;}
	.st16{fill:#5EC9FF;}
	.st17{fill:#DB5F07;}
	.st18{fill:#C4F2EB;}
	.st19{fill:#B4DED7;}
	.st20{fill:#ABABAB;}
	.st21{fill:#757575;}
	.st22{fill:#878787;}
	.st23{fill:#C9EDFF;}
	.st24{fill:#93C2D9;}
	.st25{fill:#FDA29A;}
	.st26{fill:#9C9C9C;}
	.st27{fill:url(#SVGID_1_);}
	.st28{fill:url(#SVGID_2_);}
	.st29{fill:url(#SVGID_3_);}
	.st30{fill:url(#SVGID_4_);}
	.st31{fill:#A5F2DE;}
</style>
<g id="marks">
</g>
<g id="icons">
	<g>
		<g>
			<g>
				<g>
					<path class="st3" d="M101.1,30.4c-13.7,0-26.5,3.9-37.3,10.7l-6.5,4.7c-16,12.8-26.2,32.5-26.2,54.6c0,38.7,31.3,70,70,70
						c38.7,0,70-31.3,70-70C171.1,61.7,139.7,30.4,101.1,30.4z"/>
				</g>
			</g>
			<path class="st11" d="M109.6,81.1c-0.5,0.5-15.5,89-15.5,89s22.9,1.5,32.8-4.6c9.9-6.1-1.2-75.9-1.2-75.9L109.6,81.1z"/>
			<path class="st11" d="M60,117.8L71.7,163c0,0-15.8-8.4-22.6-16.5s-11.2-16.2-11.2-16.2l5-15.4L60,117.8z"/>
			<path class="st11" d="M139.8,119.5l-19.2,48.1c0,0,21.8-8.9,31.4-19.2c9.6-10.3,12-15.9,12-15.9l-5.4-13.5L139.8,119.5z"/>
			<polygon class="st12" points="85.8,103.4 89,91.8 115.7,96.2 118.2,105.9 			"/>
			<path class="st12" d="M25.5,94.3c-0.2-0.5,4.8-6.2,4.8-6.2l20.2,1.1l-3.7,10.4l-21.5-3.3L25.5,94.3z"/>
			<path class="st13" d="M19.9,103.4c0.2,1.8,0.2,2.6,1,2.9s9.5,1.8,9.5,1.8l0.2,3.9c0,0-0.7-0.1-1.5,0s-0.8,2.5,0,2.6
				s85.4,12.9,85.4,12.9l-2-17.3l2.7,0.4l1.2-4.2c0,0-60.7-5.8-70.6-7.4c-9.9-1.6-21.3-3.2-21.5-3.1s-4,2.6-4,2.6L19.9,103.4z"/>
			<path class="st12" d="M21.2,97.8l5.1-1.8c0,0,33.4,4.9,44.4,6.2s46.5,3.8,46.5,3.8s1.2,0.7,0,2.6s-3.3,1.9-3.3,1.9
				s-74.7-8.1-75-8.2s-18.2-3.5-18.2-3.5L21.2,97.8z"/>
			<path class="st13" d="M161.2,60.5c2-4.1,5.5-9.3,5.5-9.3s1.2-0.1,1.5,2.4c0.3,2.5-3.4,9.9-3.4,9.9L161.2,60.5z"/>
			<path class="st13" d="M137.9,52.5c2.2-1.9,3.2-3.7,4.4-4.2c1.3-0.5,1.7,0.9,2.1,2.3c0.4,1.4,1.3,2.3,1.3,2.3l-7.4-0.5H137.9z"/>
			<path class="st13" d="M97.4,58.1c1.4-1,3.5-2.2,3.5-2.2s22.8-4.5,24-4.5c1.2,0,26.6,1.1,28.3,2.1c1.8,1,1.4,1.2,1.4,1.2
				S143.6,59,143.4,59S97.4,58.1,97.4,58.1z"/>
			<path class="st12" d="M110.6,73.4L126,59l14.9,0.7l-11.6,13.7c0,0-5.2,1.7-5.6,1.7c-0.3-0.1-11.9-0.7-11.9-0.7L110.6,73.4z"/>
			<g>
				<path class="st21" d="M138.3,109.9c0.4-2,1.7-3.8,1.7-3.8s8.3,0.7,11.1,0.7c2.7,0-1.8-3.4-3.4-4c-1.6-0.6-1-2.2-0.3-2.7
					c0.7-0.5,8.5,0,11.2,1.7s6.4,6,4.9,8.9c-1.5,2.9-13.7,9.2-13.7,9.2s-9.4-2.5-10.1-3.9s0-0.6,0-0.6L138.3,109.9z"/>
			</g>
			<g>
				<path class="st21" d="M149.3,100.1c0,0,1.1-1.8,0.8-5.2c-0.3-3.4-2.3-3.6-5.1-0.6c-2.8,3-4.8,8.2-6.7,13l2-0.5
					c1.9,1,8.9,0.9,8.9,0.9l-0.6-7.2L149.3,100.1z"/>
			</g>
			<g>
				<path class="st20" d="M144.4,95.3c1.3,1.4,2.1,3.1,2.6,5c0.5,1.9,0.9,3.7,0.9,3.7h1c0,0,0.1-3.9-1.5-7c-1.7-3-2.3-2.8-2.3-2.8
					L144.4,95.3z"/>
			</g>
			<g>
				<path class="st20" d="M142.6,98.6c0.6,1,1.1,2.3,1.4,4.2c0.3,1.9,0.5,4.5,0.5,4.5s2.9,1.5,2.4-1.2c-0.5-2.7-3-9.3-3.4-9.2
					C143.1,96.9,142.6,98.6,142.6,98.6z"/>
			</g>
			<g>
				<path class="st20" d="M120.1,96l2.6,6.1l-3.9,2.8l-2.4,1.2l-1.4,4.6l-2.5,4.3l1.9,12.7l16-6.1c0,0,2,0.2,3.6-2.5
					s8-20.9,10.4-23.6c2.4-2.7,5-3.8,5.7,0.5s0.2,4.8,1.9,4.5c1.7-0.3,4.6-1.3,7.8-5c3.1-3.8,6.7-3.9,9-9.5s1.3-5.8,2.3-7.9
					c1-2.1-0.5-1.1,1.4,0.5c1.8,1.6,1.8,2.8,1.8,2.8l2.8-0.2c0,0-1.3-10.4-5.6-10c0,0-1.7-2.7-4.8-5.6c-5.3-5.1-12.6-10.7-12.6-10.7
					L144,58.4l3.2,17.8L120.1,96z"/>
			</g>
			<path class="st21" d="M171.8,76.3c1.2-1.5,2.9-1.5,3.4,0.1s1,4.6,1,4.6l-2.2-0.6L171.8,76.3z"/>
			<path class="st21" d="M151.1,90.7l15.3-10.6c0,0-0.5,5.1-2.2,9.1s-7.5,8.8-8.9,9.7c-1.4,0.8-1.5-1.6-1.9-3.2
				S151.1,90.7,151.1,90.7z"/>
			<g>
				<path class="st21" d="M168,88.6c0,0,6.2,1,8.7,0c2.5-1,3.8-3.4,3.8-4.2c0-0.9-0.9-2.5-3.4-3.4s-3.6-0.9-3.6-0.9s1.1,2.4,1.8,3.9
					s-0.5,1.9-2.4,1.9s-3.4-0.3-3.4-0.3L168,88.6z"/>
			</g>
			<path class="st21" d="M169.5,83.6c1.2-4.7,1.6-7.7,3.7-4.3s4.2,6.8,1.1,7.5c-3.2,0.8-5.2-0.5-5.2-0.5L169.5,83.6z"/>
			<path class="st20" d="M170.5,80.1c0,0,0.2,0.8,1.3,3.1c0.8,1.6,1.1,2.7,1.1,2.7s1.2,0,1.4-0.1c0.1-0.1-2.9-6.4-3.2-7.1
				S170.5,80.1,170.5,80.1z"/>
			<g>
				<path class="st13" d="M40.1,84.3c5.7-2.2,42-14.5,42-14.5s10,2.4,22.9,4.2s40.3,1.1,40.3,1.1s5-0.1-0.6,4.1S120.1,96,120.1,96
					s-26.7-7.3-49-8.9S35.7,86,35.7,86L40.1,84.3z"/>
			</g>
			<g>
				<path class="st8" d="M101.7,171c-33.2,0-62.4-23.5-69.4-56c-0.1-0.5,0.7,0,1.2-0.1c0.5-0.1,0.7-0.3,0.7-0.3
					C41,146.1,69.4,169,101.7,169c38,0,69-31,69-69c0-1.5-0.1-3.1-0.2-4.6c0-0.6,0.4-1,0.9-1.1c0.6,0,1,0.4,1.1,0.9
					c0.1,1.6,0.2,3.2,0.2,4.7C172.7,139.1,140.8,171,101.7,171z"/>
			</g>
			<g>
				<path class="st8" d="M32.9,88.1c-0.1,0-0.1,0-0.2,0c-0.5-0.1-0.9-0.6-0.8-1.2C38.2,53.3,67.5,29,101.7,29
					c20.2,0,39.5,8.6,52.9,23.7c0.5,0.6,1.1,1.2,1.6,1.8c0.4,0.4,0.3,1.1-0.1,1.4c-0.4,0.4-0.4-0.2-0.8-0.6
					c-0.5-0.6-1.7-0.7-2.2-1.3c-13.1-14.6-31.8-23-51.4-23C68.5,31,40,54.7,33.9,87.2C33.8,87.7,33.3,88.1,32.9,88.1z"/>
			</g>
			<g>
				<g>
					<path class="st8" d="M117.8,107C117.8,107,117.8,107,117.8,107c-0.2,0-19.9-1-52.7-4.7c-32.8-3.8-40.8-5-40.8-5
						c-0.3-0.1-0.6-0.3-0.8-0.6c-0.1-0.3-0.1-0.7,0.1-1l5.3-8.1c0.2-0.3,0.5-0.4,0.8-0.5c0.3,0,7.1-0.4,36.7,2.1
						c32.1,2.6,49.8,7.2,50,7.3c0.4,0.1,0.7,0.4,0.7,0.8l1.7,8.5c0.1,0.3,0,0.6-0.2,0.8C118.4,106.9,118.1,107,117.8,107z
						 M26.1,95.5c3.6,0.5,14.1,1.9,39.2,4.8c28,3.2,46.4,4.4,51.3,4.7l-1.3-6.7c-3.3-0.8-20.4-4.7-49-7.1
						c-25.2-2.1-33.9-2.1-35.9-2.1L26.1,95.5z"/>
				</g>
				<g>
					<path class="st8" d="M136.3,76.3c-6.5,0-15.8-0.2-27.4-1.2c-24.1-2-31.1-3.2-31.4-3.2c-0.4-0.1-0.7-0.4-0.8-0.8
						c-0.1-0.4,0.1-0.8,0.5-1l21.2-12.5c0.2-0.1,0.4-0.2,0.6-0.1c0,0,4.1,0.3,19,0.6c14.1,0.3,25.8,0,25.9,0c0.5,0,0.9,0.3,1,0.8
						l3.1,16c0.1,0.3,0,0.6-0.2,0.8S147.3,76,147,76C146.9,76,143.2,76.3,136.3,76.3z M80.6,70.3c3.9,0.5,12.4,1.5,28.4,2.8
						c20.1,1.6,33,1.2,36.7,1L143,60c-2.9,0.1-13.2,0.3-25.2,0c-12.8-0.3-17.6-0.5-18.7-0.6L80.6,70.3z"/>
				</g>
				<g>
					<g>
						<path class="st8" d="M128.8,59.2L128.8,59.2c-3.3,0-7.1-0.1-11-0.1c-15.1-0.4-19-0.6-19-0.6L77.6,70.9c0,0,7,1.2,31.3,3.2
							c0.9,0.1,1.7,0.1,2.6,0.2L128.8,59.2z"/>
					</g>
					<g>
						<path class="st8" d="M143.8,59c0,0-2,0.1-5.5,0.1h0l-14.6,15.9c14.9,0.6,23.1,0,23.1,0L143.8,59z"/>
					</g>
				</g>
				<g>
					<path class="st8" d="M115.8,111.6c0,0-0.1,0-0.1,0c-0.2,0-16.9-2.3-50.9-6.1c-34-3.8-45-5.9-45.1-6c-0.4-0.1-0.7-0.4-0.8-0.8
						c-0.1-0.4,0.2-0.8,0.5-1l4.5-2.3c0.5-0.3,1.1-0.1,1.3,0.4c0.2,0.5,0.1,1.1-0.4,1.3L23,98.1c5.1,0.8,17.6,2.7,42,5.4
						c31.5,3.5,48.2,5.7,50.6,6.1l18.8-9.7c0.5-0.3,1.1-0.1,1.3,0.4c0.3,0.5,0.1,1.1-0.4,1.3l-19.1,9.8
						C116.1,111.6,115.9,111.6,115.8,111.6z"/>
				</g>
				<g>
					<path class="st8" d="M19.1,98.6l0.8,4.9c0,0,9,2,40.6,6.4c32.7,4.6,52.8,6.1,52.8,6.1l16-4.1l-2-7.1l-11.5,5.9
						c0,0-44.1-5.3-54-6.5C51.9,103,19.1,98.6,19.1,98.6z"/>
				</g>
				<g>
					<path class="st8" d="M118.4,106.7c0.9-0.6,6.7-4.3,6.7-4.3l-2.3-8c0,0-14.6-4.5-48.1-7.2c-33.5-2.7-38.4-2.2-38.4-2.2l-7.1,2.3
						c0,0,19.4,1.5,41.9,3.2s45,6.8,45,6.8L118.4,106.7z"/>
				</g>
				<g>
					<path class="st8" d="M101.1,105.9c-0.1,0-0.1,0-0.2,0c-0.5-0.1-0.9-0.6-0.8-1.2l1.8-10.6c0.1-0.5,0.6-0.9,1.2-0.8
						c0.5,0.1,0.9,0.6,0.8,1.2l-1.8,10.6C102,105.5,101.6,105.9,101.1,105.9z"/>
				</g>
				<g>
					<path class="st8" d="M35.3,98.7c-0.1,0-0.3,0-0.4-0.1c-0.5-0.2-0.8-0.8-0.5-1.3l4-9.6c0.2-0.5,0.8-0.8,1.3-0.5
						c0.5,0.2,0.8,0.8,0.5,1.3l-4,9.6C36.1,98.5,35.7,98.7,35.3,98.7z"/>
				</g>
				<g>
					<path class="st8" d="M45.7,99l3.5-10.8l41.2,4.3l-2.9,11.2c0,0-13.3-1.3-24.4-2.6S45.7,99,45.7,99z"/>
				</g>
				<g>
					<path class="st8" d="M30.1,89.2c-0.4,0-0.8-0.2-0.9-0.6c-0.2-0.5,0-1.1,0.6-1.3C30,87.1,57.1,76.3,77.8,70
						c0.5-0.2,1.1,0.1,1.2,0.7c0.2,0.5-0.1,1.1-0.7,1.2c-20.6,6.2-47.6,17-47.9,17.1C30.3,89.1,30.2,89.2,30.1,89.2z"/>
				</g>
				<g>
					<path class="st8" d="M136.9,86c-0.3,0-0.6-0.1-0.8-0.4c-0.3-0.5-0.2-1.1,0.2-1.4c3.2-2.3,6.4-4.7,9.5-7.1
						c0.4-0.3,1.1-0.3,1.4,0.2c0.3,0.4,0.3,1.1-0.2,1.4c-3.1,2.4-6.3,4.8-9.5,7.1C137.3,86,137.1,86,136.9,86z"/>
				</g>
				<g>
					<path class="st8" d="M117.5,98.5c-0.4,0-0.7-0.2-0.9-0.5c-0.3-0.5-0.1-1.1,0.4-1.4c0.1,0,5.3-2.9,12.8-8
						c0.5-0.3,1.1-0.2,1.4,0.3c0.3,0.5,0.2,1.1-0.3,1.4c-7.7,5.1-12.9,8-13,8.1C117.8,98.5,117.7,98.5,117.5,98.5z"/>
				</g>
				<g>
					<path class="st8" d="M133.1,113.1c0,0-0.1,0-0.1,0c-0.5-0.1-0.9-0.6-0.9-1.1c0.1-0.8,2.2-18.7,8.9-23.8
						c3.6-2.7,6.3-2.4,7.9-1.6c2.3,1.1,5.2,4.3,5.8,13.5c0,0.6-0.4,1-0.9,1.1c-0.6,0-1-0.4-1.1-0.9c-0.4-6.4-2-10.6-4.6-11.8
						c-2-0.9-4.3,0.2-5.8,1.4c-6,4.6-8.1,22.3-8.1,22.4C134.1,112.7,133.6,113.1,133.1,113.1z"/>
				</g>
				<g>
					<path class="st8" d="M152.4,74.4l-4.1-15.7l0,0c2.7,1,5.2,2.5,7.2,4.5l6,6L152.4,74.4z"/>
				</g>
				<g>
					<path class="st8" d="M164.3,68.9c-0.3,0-0.5-0.1-0.7-0.3c-4-4-11.2-10.5-13.4-11c-2.7-0.6-27.4-1.3-36.8-1.5c-0.6,0-1-0.5-1-1
						c0-0.5,0.5-1,1-1c0,0,0,0,0,0c1.4,0,33.8,0.8,37.2,1.6c3.5,0.8,13.3,10.5,14.4,11.6c0.4,0.4,0.4,1,0,1.4
						C164.9,68.8,164.6,68.9,164.3,68.9z"/>
				</g>
				<g>
					<path class="st8" d="M152,91.2c-0.4,0-0.7-0.2-0.9-0.5c-0.3-0.5-0.1-1.1,0.4-1.4c0.1,0,5.3-2.8,9.4-5.7
						c3.1-2.2,5.1-4.2,5.1-4.3c0.4-0.4,1-0.4,1.4,0c0.4,0.4,0.4,1,0,1.4c-0.1,0.1-2.2,2.2-5.4,4.5c-4.2,3-9.4,5.8-9.6,5.9
						C152.3,91.2,152.1,91.2,152,91.2z"/>
				</g>
				<g>
					<path class="st8" d="M153.7,101.1c-0.3,0-0.7-0.2-0.9-0.5c-0.3-0.5-0.1-1.1,0.4-1.4c0.1,0,7.5-4.4,10.2-10.7
						c1.5-3.4,2-6.5,2.4-9.2c0.4-2.5,0.7-4.7,1.8-6.2c2.4-3.3,5-2.5,5.1-2.4c0.5,0.2,0.8,0.8,0.6,1.3c-0.2,0.5-0.8,0.8-1.3,0.6
						c0,0-1.3-0.3-2.8,1.7c-0.8,1.1-1.1,3-1.5,5.3c-0.4,2.7-0.9,6-2.5,9.7c-3.1,6.9-10.8,11.4-11.1,11.6
						C154,101,153.8,101.1,153.7,101.1z"/>
				</g>
				<g>
					<path class="st8" d="M168.8,68.3c-0.2,0-0.5-0.1-0.7-0.3l-12.7-11.9c-1.4-1.3-3.2-2.1-5.2-2.2l-24.7-0.9c-0.6,0-1-0.5-1-1
						s0.5-1,1-1l24.7,0.9c2.4,0.1,4.7,1.1,6.5,2.7l12.7,11.9c0.4,0.4,0.4,1,0,1.4C169.3,68.2,169,68.3,168.8,68.3z"/>
				</g>
				<g>
					<polygon class="st8" points="156.1,55.4 158.7,50.8 166.7,51.2 162.1,61.1 					"/>
				</g>
				<g>
					<path class="st8" d="M163.9,62.7c-0.1-0.1,4.3-9.1,4.3-9.1l1.5,13.7L163.9,62.7z"/>
				</g>
				<g>
					<polygon class="st8" points="124.7,52.1 124.8,51.5 126.6,49 138.3,49.2 136.9,52.5 					"/>
				</g>
				<g>
					<path class="st8" d="M165.8,94.5c-0.2,0-0.3,0-0.5-0.1c-0.5-0.3-0.6-0.9-0.4-1.4c0,0,2.7-4.8,3.8-10.2c1.3-6.5,2.5-8,3.2-8.4
						c0.5-0.3,1.1-0.1,1.4,0.4c0.3,0.4,0.1,1-0.3,1.3c-0.1,0.1-1.1,1.4-2.3,7.1c-1.2,5.7-3.9,10.6-4.1,10.8
						C166.5,94.3,166.2,94.5,165.8,94.5z M172.9,76.2C172.9,76.2,172.9,76.2,172.9,76.2C172.9,76.2,172.9,76.2,172.9,76.2z
						 M172.9,76.2L172.9,76.2C172.9,76.2,172.9,76.2,172.9,76.2z"/>
				</g>
				<g>
					<path class="st8" d="M136.9,114.4c-0.2,0-0.3,0-0.5-0.1c-0.5-0.2-0.7-0.8-0.4-1.3c0-0.1,0.2-0.5,0.3-1
						c1.4-4.1,5.5-16.4,9.4-19.8c1.5-1.3,2.6-1.1,3.3-0.8c2.3,1.2,2.2,6.6,2.1,8.2c0,0.6-0.5,1-1.1,0.9c-0.6,0-1-0.5-0.9-1.1
						c0.2-3-0.3-6-1-6.3c-0.1,0-0.4,0-1.1,0.5c-2.3,2-5.3,8.4-8.8,18.9c-0.3,0.9-0.4,1.1-0.4,1.2
						C137.6,114.2,137.2,114.4,136.9,114.4z"/>
				</g>
				<g>
					<path class="st8" d="M30.1,108.1c0,0,19.8,2.4,42,5.8c22.2,3.4,41.4,4.6,41.4,4.6l19-4.1v3.7l-18.3,7.1l-83.5-13.1L30.1,108.1z
						"/>
				</g>
				<g>
					<path class="st8" d="M136.9,110.4c0,0,10.5,3,19.3,0.2c7.9-2.5,5.7-6.4,3.2-7.9c-1.6-1-3.1-1.5-3.1-1.5s7,0.8,8.1,5.5
						s1.2,9.7,0,11.6s-4.8,5.7-14.6,5.9c-9.8,0.2-16.5-2.9-16.5-2.9L136.9,110.4z"/>
				</g>
				<g>
					<path class="st8" d="M149.3,107.6c0.9,0,1.8-0.1,2.7-0.3c6.2-1.2,2.3-3.7-0.7-4.5c-3-0.8-2.6-0.5-2.6-0.5L149.3,107.6z"/>
				</g>
				<g>
					<path class="st8" d="M168.2,88.2c0,0,2.4,0.8,7,0.1s5.3-3.9,5.3-3.9l0.6,8.5c0,0-0.9,2.2-6.7,2.9c-4.7,0.6-9.1-1.5-9.1-1.5
						L168.2,88.2z"/>
				</g>
				<g>
					<path class="st8" d="M175.6,85.5c-0.2,0-0.4-0.2-0.5-0.4c-0.7-2.9-4-7.9-4.1-8c-0.2-0.2-0.1-0.5,0.1-0.7
						c0.2-0.2,0.5-0.1,0.7,0.1c0.1,0.2,3.5,5.2,4.2,8.3c0.1,0.3-0.1,0.5-0.4,0.6C175.7,85.5,175.7,85.5,175.6,85.5z"/>
				</g>
				<g>
					<path class="st8" d="M146.9,107.2c-0.3,0-0.5-0.2-0.5-0.5c-0.3-4.9-2.8-8.9-2.8-9c-0.1-0.2-0.1-0.5,0.2-0.7
						c0.2-0.1,0.5-0.1,0.7,0.2c0.1,0.2,2.6,4.3,3,9.4C147.4,107,147.2,107.2,146.9,107.2C146.9,107.2,146.9,107.2,146.9,107.2z"/>
				</g>
				<g>
					<path class="st8" d="M114.5,128.1C114.4,128.1,114.4,128.1,114.5,128.1l-85.4-13.4c-0.3,0-0.5-0.3-0.4-0.6
						c0-0.3,0.3-0.5,0.6-0.4l85.2,13.4l17.4-6.7c0.3-0.1,0.5,0,0.6,0.3c0.1,0.3,0,0.5-0.3,0.6l-17.5,6.7
						C114.6,128.1,114.5,128.1,114.5,128.1z"/>
				</g>
				<g>
					<path class="st8" d="M145.3,53.6c-0.2,0-0.4-0.1-0.5-0.4c0,0-0.7-2.5-1.2-4c-0.2-0.5-0.4-0.6-0.5-0.6c-0.5-0.1-1.4,0.4-2.3,1.8
						c-0.2,0.2-0.5,0.3-0.7,0.1c-0.2-0.2-0.3-0.5-0.1-0.7c1.1-1.5,2.3-2.3,3.3-2.2c0.3,0.1,1,0.3,1.3,1.2c0.5,1.5,1.3,4,1.3,4
						c0.1,0.3-0.1,0.5-0.3,0.6C145.4,53.6,145.3,53.6,145.3,53.6z"/>
				</g>
				<g>
					<path class="st8" d="M131.7,163.7c0,0-0.1,0-0.1,0c-0.3-0.1-0.4-0.3-0.4-0.6l8.6-35c0.1-0.3,0.3-0.4,0.6-0.4
						c0.3,0.1,0.4,0.3,0.4,0.6l-8.6,35C132.2,163.6,132,163.7,131.7,163.7z"/>
				</g>
				<g>
					<path class="st8" d="M147,153.8C147,153.8,147,153.8,147,153.8c-0.3,0-0.5-0.2-0.5-0.5l0.2-23.9c0-0.3,0.2-0.5,0.5-0.5
						c0,0,0,0,0,0c0.3,0,0.5,0.2,0.5,0.5l-0.2,23.9C147.5,153.6,147.3,153.8,147,153.8z"/>
				</g>
				<g>
					<path class="st8" d="M158.1,141.3c-0.2,0-0.5-0.2-0.5-0.4l-1.9-11.4c0-0.3,0.1-0.5,0.4-0.6c0.3,0,0.5,0.1,0.6,0.4l1.9,11.4
						C158.6,141,158.4,141.2,158.1,141.3C158.1,141.3,158.1,141.3,158.1,141.3z"/>
				</g>
				<g>
					<path class="st8" d="M163.9,132.5c-0.2,0-0.4-0.1-0.5-0.3l-2.5-6.5c-0.1-0.3,0-0.5,0.3-0.6c0.3-0.1,0.5,0,0.6,0.3l2.5,6.5
						c0.1,0.3,0,0.5-0.3,0.6C164.1,132.5,164,132.5,163.9,132.5z"/>
				</g>
				<g>
					<path class="st8" d="M44.5,141.3C44.5,141.3,44.5,141.3,44.5,141.3c-0.4,0-0.5-0.3-0.5-0.6l3.1-19.9c0-0.3,0.3-0.5,0.6-0.4
						c0.3,0,0.5,0.3,0.4,0.6L45,140.8C45,141.1,44.8,141.3,44.5,141.3z"/>
				</g>
				<g>
					<path class="st8" d="M55.4,153c-0.3,0-0.5-0.2-0.5-0.5l-1.3-28.9c0-0.3,0.2-0.5,0.5-0.5c0.3,0,0.5,0.2,0.5,0.5l1.3,28.9
						C55.9,152.8,55.7,153,55.4,153C55.4,153,55.4,153,55.4,153z"/>
				</g>
				<g>
					<path class="st8" d="M67.9,149.2c-0.2,0-0.4-0.1-0.5-0.4L61,123.7c-0.1-0.3,0.1-0.5,0.4-0.6c0.3-0.1,0.5,0.1,0.6,0.4l6.5,25.1
						c0.1,0.3-0.1,0.5-0.4,0.6C68,149.2,68,149.2,67.9,149.2z"/>
				</g>
				<g>
					<path class="st8" d="M38.4,130.9c0,0-0.1,0-0.2,0c-0.3-0.1-0.4-0.4-0.3-0.6l3.5-10.9c0.1-0.3,0.4-0.4,0.6-0.3
						c0.3,0.1,0.4,0.4,0.3,0.6l-3.5,10.9C38.8,130.8,38.6,130.9,38.4,130.9z"/>
				</g>
			</g>
			<g>
				<path class="st8" d="M124.7,151c-0.1,0-0.1,0-0.2,0c-0.3-0.1-0.4-0.4-0.3-0.7l10.2-23c0.1-0.3,0.4-0.4,0.7-0.3
					c0.3,0.1,0.4,0.4,0.3,0.7l-10.2,23C125.1,150.9,124.9,151,124.7,151z"/>
			</g>
			<g>
				<path class="st20" d="M148.9,110.5c3.1-0.4,6.3-1.8,7.8-2.9c2.6-1.8,1.7-4,1.7-4s3.3,1.3,0.8,3.9
					C156.6,110.5,148.9,110.5,148.9,110.5z"/>
			</g>
		</g>
		<polygon class="st12" points="54.1,83.2 80.2,73.7 91.5,74.8 69.7,84.1 		"/>
		<polygon class="st12" points="73.9,84.7 94.1,75.1 96.6,75.2 77.1,84.9 		"/>
		<path class="st12" d="M112.9,89.1c0,0,1.2,0.2,2.8,0.4s2.9,0.7,2.9,0.7l19.6-12.4h-3.3L112.9,89.1z"/>
		<path class="st9" d="M89,109.6c0.8-0.7,1.4-1.2,1.8-1.4c0.2-0.1,0.4-0.2,0.6-0.2l8.1,1.1c0.7,0.1,1,0.9,0.6,1.4l-1.1,1.3
			c-0.2,0.2-0.5,0.3-0.8,0.3l-8.8-1C88.7,111.1,88.4,110.1,89,109.6z"/>
		<path class="st9" d="M33.6,102.7c0.7-0.6,1.3-1.1,1.7-1.4c0.2-0.1,0.4-0.2,0.6-0.2l7.8,1.1c0.6,0.1,0.9,0.8,0.5,1.3l-1,1.3
			c-0.2,0.2-0.5,0.3-0.7,0.3l-8.4-1C33.3,104.1,33,103.2,33.6,102.7z"/>
	</g>
</g>
</svg>
