<?xml version="1.0" encoding="utf-8"?>
<!-- Generator: Adobe Illustrator 21.1.0, SVG Export Plug-In . SVG Version: 6.00 Build 0)  -->
<svg version="1.1" xmlns="http://www.w3.org/2000/svg" xmlns:xlink="http://www.w3.org/1999/xlink" x="0px" y="0px"
	 viewBox="0 0 200 200" style="enable-background:new 0 0 200 200;" xml:space="preserve">
<style type="text/css">
	.st0{fill:none;stroke:#B3C0C7;stroke-miterlimit:10;}
	.st1{fill:#778085;}
	.st2{fill:#FD7E23;}
	.st3{fill:#30E6B6;}
	.st4{fill:#29C49B;}
	.st5{fill:#FDD353;}
	.st6{fill:#FDE4D2;}
	.st7{fill:#F2C2A0;}
	.st8{fill:#4D5052;}
	.st9{fill:#FD6A5D;}
	.st10{fill:#D1584D;}
	.st11{fill:#B8FFEC;}
	.st12{fill:#FFFFFF;}
	.st13{fill:#C9C9C9;}
	.st14{fill:#1DAAF1;}
	.st15{fill:#1682B8;}
	.st16{fill:#5EC9FF;}
	.st17{fill:#DB5F07;}
	.st18{fill:#C4F2EB;}
	.st19{fill:#B4DED7;}
	.st20{fill:#ABABAB;}
	.st21{fill:#757575;}
	.st22{fill:#878787;}
	.st23{fill:#C9EDFF;}
	.st24{fill:#93C2D9;}
	.st25{fill:#FDA29A;}
	.st26{fill:#9C9C9C;}
	.st27{fill:url(#SVGID_1_);}
	.st28{fill:url(#SVGID_2_);}
	.st29{fill:url(#SVGID_3_);}
	.st30{fill:url(#SVGID_4_);}
	.st31{fill:#A5F2DE;}
</style>
<g id="marks">
</g>
<g id="icons">
	<g>
		<path class="st14" d="M87,62.5l0.2-25c0,0-21.5,5.7-35.8,21.7s-20.1,44.4-16.2,62.5s18.5,36.6,28,42.3s18.7,7.8,18.7,7.8
			s-13.3-2.8-20-20.9s-6.2-31.9-6.2-31.9s9.4,7.9,16.6,11.9S85,138.2,90.4,145s8.7,16.6,8.7,16.6l-0.6-49.8c0,0-10.7,3.7-17-8.8
			s-3.9-38.9-3.9-38.9L87,62.5z"/>
		<path class="st14" d="M121.6,62.5l-0.2-25c0,0,21.5,5.7,35.8,21.7s20.1,44.4,16.2,62.5c-3.9,18.2-18.5,36.6-28,42.3
			c-9.5,5.7-18.7,7.8-18.7,7.8s14.6-3.5,21.3-21.6s4.8-31.3,4.8-31.3s-4.9,6.6-16.6,11.9c-7.5,3.4-12.7,7.4-18.1,14.2
			s-8.7,16.6-8.7,16.6l0.6-49.8c0,0,10.7,3.7,17-8.8c6.4-12.4,3.9-38.9,3.9-38.9L121.6,62.5z"/>
		<path class="st16" d="M36,91.3c0.1-0.4,7-8,21-8.1c18.5-0.1,31.4,9.6,56.6,2.8s39.7-30.2,39.7-30.2s15,15.4,17.4,27.4
			c3,14.8-25.4,25-44.5,18.2c-17.2-6.1-13.9,1-21,3.9s-20.9-4.8-38.1-1.5c-21.6,4.1-28.5,25.7-28.5,25.7S30.2,109.4,36,91.3z"/>
		<path class="st16" d="M37.6,129.7c0,0,11.3-12.9,35-12.5s41.3,4.5,56.9,4.8s28.3-4.9,34.8-10.2c6.5-5.3,9.5-13.2,9.5-13.2
			s-0.7,9.5,0,14.5c0.7,5-12.8,19.9-34.5,23.2s-56.1,0-68.9,6.1s-17.1,11.9-17.1,11.9L37.6,129.7z"/>
		<path class="st14" d="M95.6,37.9c0,0,2.1-2.3,8.8-1.3s9.8,0.4,9.8,0.4l-1.5,27.2l-16.4-1.7L95.6,37.9z"/>
		<g>
			<polyline class="st3" points="99.5,176.2 99.5,111.8 109.5,111.8 109.5,176.2 			"/>
		</g>
		<g>
			<path class="st3" d="M109.5,176.2c0.2-6.2-1.9-22.5,11.4-35.1c11.3-10.7,25.8-12.5,32.4-22.2c0,0,0.8,19.8-8.4,36.4
				C133.3,176.2,109.5,176.2,109.5,176.2"/>
		</g>
		<g>
			<path class="st3" d="M99.5,176.2c-0.2-6.2,1.9-22.5-11.4-35.1c-11.2-10.7-25.7-12.5-32.4-22.2c0,0-0.8,19.8,8.4,36.4
				C75.7,176.2,99.5,176.2,99.5,176.2"/>
		</g>
		<path class="st11" d="M61.1,136.8c0,0,4,15.9,14.4,26.1c10,9.8,18.4,8.9,18.4,8.9s-3.4-9.5-15.2-19S61.1,136.8,61.1,136.8z"/>
		<g>
			<path class="st8" d="M104.5,177.3c-39.1,0-71-31.9-71-71c0-32.6,22.1-61,53.7-68.9c0.5-0.1,1.1,0.2,1.2,0.7
				c0.1,0.5-0.2,1.1-0.7,1.2C57,47.1,35.5,74.6,35.5,106.3c0,38,31,69,69,69s69-31,69-69c0-31.7-21.5-59.3-52.2-66.9
				c-0.5-0.1-0.9-0.7-0.7-1.2c0.1-0.5,0.7-0.9,1.2-0.7c31.6,7.9,53.7,36.2,53.7,68.9C175.5,145.5,143.7,177.3,104.5,177.3z"/>
		</g>
		<g>
			<path class="st8" d="M95.6,37.9c-0.5,0-0.9-0.4-1-0.9c-0.1-0.5,0.3-1,0.9-1.1c5.9-0.7,11.9-0.7,17.8,0c0.5,0.1,0.9,0.6,0.9,1.1
				s-0.6,0.9-1.1,0.9c-5.7-0.7-11.6-0.7-17.3,0C95.7,37.9,95.7,37.9,95.6,37.9z"/>
		</g>
		<g>
			<path class="st8" d="M109.5,177.2c-0.6,0-1-0.4-1-1v-63.3h-8v63.3c0,0.6-0.4,1-1,1s-1-0.4-1-1v-64.3c0-0.6,0.4-1,1-1h10
				c0.6,0,1,0.4,1,1v64.3C110.5,176.7,110.1,177.2,109.5,177.2z"/>
		</g>
		<g>
			<path class="st8" d="M109.5,177.2c-0.3,0-0.5-0.1-0.7-0.3c-0.2-0.2-0.3-0.5-0.3-0.7c0-0.8,0-1.7,0-2.7
				c-0.1-7.6-0.3-21.7,11.7-33.1c5.4-5.1,11.6-8.3,17.1-11.1c6.3-3.2,11.8-6,15.2-10.9c0.2-0.4,0.7-0.5,1.1-0.4
				c0.4,0.1,0.7,0.5,0.7,0.9c0,0.8,0.7,20.3-8.5,36.9C134,176.9,109.8,177.2,109.5,177.2z M152.3,121.8c-3.7,4-8.8,6.6-14.1,9.3
				c-5.6,2.9-11.5,5.8-16.6,10.8c-11.3,10.7-11.1,24.3-11.1,31.6c0,0.6,0,1.2,0,1.7c4.6-0.3,23.7-2.6,33.5-20.3
				C151,142.3,152.1,127.8,152.3,121.8z"/>
		</g>
		<g>
			<path class="st8" d="M113.8,166.9c-0.2,0-0.3,0-0.5-0.1c-0.5-0.3-0.7-0.9-0.4-1.3c0.2-0.4,4.9-9.2,15-16.8
				c14.2-10.7,21.3-19.4,24.5-30c0.2-0.5,0.7-0.8,1.2-0.7c0.5,0.2,0.8,0.7,0.7,1.2c-3.3,11.1-10.6,20-25.2,31
				c-9.7,7.3-14.3,16-14.4,16.1C114.5,166.7,114.1,166.9,113.8,166.9z"/>
		</g>
		<g>
			<path class="st8" d="M114.7,164.8c-0.1,0-0.2,0-0.3-0.1c-0.2-0.2-0.3-0.5-0.1-0.7c0.2-0.2,4.4-5.9,13-7.1
				c3.5-0.5,8.3-1.2,10.3-2.4c4.1-2.3,5.3-5.7,5.4-5.7c0.1-0.3,0.4-0.4,0.6-0.3c0.3,0.1,0.4,0.4,0.3,0.6c-0.1,0.2-1.4,3.8-5.8,6.3
				c-2.2,1.2-6.9,2-10.7,2.5c-8.2,1.1-12.3,6.6-12.3,6.7C115,164.7,114.9,164.8,114.7,164.8z"/>
		</g>
		<g>
			<path class="st8" d="M99.5,177.2c-0.2,0-24.5-0.2-36.2-21.3c-9.3-16.6-8.6-36.1-8.5-36.9c0-0.4,0.3-0.8,0.7-0.9
				c0.4-0.1,0.9,0,1.1,0.4c3.4,4.9,8.9,7.7,15.2,10.9c5.5,2.8,11.7,6,17.1,11.1c11.9,11.3,11.8,25.5,11.7,33.1c0,1,0,1.9,0,2.7
				c0,0.3-0.1,0.5-0.3,0.7C100,177.1,99.8,177.2,99.5,177.2z M56.7,121.8c0.2,6,1.3,20.6,8.3,33.1c9.8,17.6,28.9,20,33.5,20.3
				c0-0.5,0-1.1,0-1.7c0.1-7.3,0.3-20.9-11.1-31.6c-5.2-4.9-11-7.9-16.6-10.8C65.5,128.3,60.4,125.8,56.7,121.8z"/>
		</g>
		<g>
			<path class="st8" d="M95.2,166.9c-0.4,0-0.7-0.2-0.9-0.5c0-0.1-4.7-8.9-14.4-16.1c-14.6-11-21.9-20-25.2-31
				c-0.2-0.5,0.1-1.1,0.7-1.2c0.5-0.2,1.1,0.1,1.2,0.7c3.1,10.6,10.2,19.3,24.5,30c10.1,7.5,14.8,16.4,15,16.8
				c0.3,0.5,0.1,1.1-0.4,1.3C95.5,166.9,95.4,166.9,95.2,166.9z"/>
		</g>
		<g>
			<path class="st8" d="M94.3,164.8c-0.2,0-0.3-0.1-0.4-0.2c0-0.1-4.2-5.6-12.3-6.7c-3.8-0.5-8.5-1.3-10.7-2.5
				c-4.5-2.5-5.8-6.1-5.8-6.3c-0.1-0.3,0-0.5,0.3-0.6c0.3-0.1,0.5,0,0.6,0.3c0,0,1.2,3.5,5.4,5.7c2.1,1.1,6.9,1.9,10.3,2.4
				c8.6,1.2,12.8,6.8,13,7.1c0.2,0.2,0.1,0.5-0.1,0.7C94.5,164.8,94.4,164.8,94.3,164.8z"/>
		</g>
		<g>
			<g>
				<path class="st8" d="M121.6,66.4h-8.2c-0.6,0-1-0.4-1-1V33.8c0-2.8,2.3-5.1,5.1-5.1s5.1,2.3,5.1,5.1v31.6
					C122.6,66,122.1,66.4,121.6,66.4z M114.4,64.4h6.2V33.8c0-1.7-1.4-3.1-3.1-3.1s-3.1,1.4-3.1,3.1V64.4z"/>
			</g>
			<g>
				<path class="st8" d="M95.6,66.4h-8.2c-0.6,0-1-0.4-1-1V33.8c0-2.8,2.3-5.1,5.1-5.1c2.8,0,5.1,2.3,5.1,5.1v31.6
					C96.6,66,96.2,66.4,95.6,66.4z M88.5,64.4h6.2V33.8c0-1.7-1.4-3.1-3.1-3.1s-3.1,1.4-3.1,3.1V64.4z"/>
			</g>
		</g>
		<g>
			<g>
				<path class="st8" d="M112.6,113.1H96.4c-11.2,0-20.2-9.1-20.2-20.2V62.5h56.8v30.4C132.9,104,123.8,113.1,112.6,113.1z"/>
			</g>
			<g>
				<path class="st12" d="M113.2,109.6c-0.3,0-0.5-0.2-0.5-0.5s0.2-0.5,0.5-0.5c8.5,0,15.4-6.9,15.4-15.4c0-0.3,0.2-0.5,0.5-0.5
					s0.5,0.2,0.5,0.5C129.5,102.2,122.2,109.6,113.2,109.6z"/>
			</g>
			<g>
				<path class="st12" d="M79.1,76.3c-0.3,0-0.5-0.2-0.5-0.5V65.4c0-0.3,0.2-0.5,0.5-0.5h10.5c0.3,0,0.5,0.2,0.5,0.5
					s-0.2,0.5-0.5,0.5h-10v9.8C79.6,76,79.4,76.3,79.1,76.3z"/>
			</g>
		</g>
		<path class="st11" d="M113.6,159.7c0,0,3.8-11.4,10.8-17.3s13.3-8.2,16.7-9.9c3.3-1.7,4.3-3.2,4.3-3.2s-5.4,8-17.5,16.2
			C119.9,150.9,113.6,159.7,113.6,159.7z"/>
		<rect x="102.1" y="114.6" class="st11" width="2.4" height="58.8"/>
		<path class="st13" d="M92.4,33.9L92.4,33.9c-0.5,0-0.8,0.4-0.8,0.8v26.4h1.7V34.7C93.2,34.3,92.8,33.9,92.4,33.9z"/>
		<path class="st13" d="M118.3,33.9L118.3,33.9c-0.5,0-0.8,0.4-0.8,0.8v26.4h1.7V34.7C119.1,34.3,118.8,33.9,118.3,33.9z"/>
	</g>
</g>
</svg>
