<?xml version="1.0" encoding="utf-8"?>
<!-- Generator: Adobe Illustrator 21.1.0, SVG Export Plug-In . SVG Version: 6.00 Build 0)  -->
<svg version="1.1" xmlns="http://www.w3.org/2000/svg" xmlns:xlink="http://www.w3.org/1999/xlink" x="0px" y="0px"
	 viewBox="0 0 200 200" style="enable-background:new 0 0 200 200;" xml:space="preserve">
<style type="text/css">
	.st0{fill:none;stroke:#B3C0C7;stroke-miterlimit:10;}
	.st1{fill:#778085;}
	.st2{fill:#FD7E23;}
	.st3{fill:#30E6B6;}
	.st4{fill:#29C49B;}
	.st5{fill:#FDD353;}
	.st6{fill:#FDE4D2;}
	.st7{fill:#F2C2A0;}
	.st8{fill:#4D5052;}
	.st9{fill:#FD6A5D;}
	.st10{fill:#D1584D;}
	.st11{fill:#B8FFEC;}
	.st12{fill:#FFFFFF;}
	.st13{fill:#C9C9C9;}
	.st14{fill:#1DAAF1;}
	.st15{fill:#1682B8;}
	.st16{fill:#5EC9FF;}
	.st17{fill:#DB5F07;}
	.st18{fill:#C4F2EB;}
	.st19{fill:#B4DED7;}
	.st20{fill:#ABABAB;}
	.st21{fill:#757575;}
	.st22{fill:#878787;}
	.st23{fill:#C9EDFF;}
	.st24{fill:#93C2D9;}
	.st25{fill:#FDA29A;}
	.st26{fill:#9C9C9C;}
	.st27{fill:url(#SVGID_1_);}
	.st28{fill:url(#SVGID_2_);}
	.st29{fill:url(#SVGID_3_);}
	.st30{fill:url(#SVGID_4_);}
	.st31{fill:#A5F2DE;}
</style>
<g id="marks">
</g>
<g id="icons">
	<g>
		<g>
			<g>
				<circle class="st9" cx="111.5" cy="100.3" r="70"/>
			</g>
		</g>
		<path class="st10" d="M170.9,107.4c0-0.1,0-0.1,0.1-0.2c0,0,0.4-2.3,1.1-5.8c0.5-2.5,2.4-15-13.3-19.6
			c-10.6-3.1-16.3,3.8-18.2,6.7c-0.4-0.2-0.9-0.4-1.4-0.4c-1.8-0.1-3.6,1.4-4.5,2.7c-0.9,1.4-1.4,3.6-1.7,5.1
			c-4.8-2.2-7.5-3-8.6-1.4c-0.2,0.4-0.3,0.8-0.2,1.3c0.3,1.3,2.3,2.6,3.9,3.6c-1.4-0.2-3-0.4-4.3-0.7c-1.8-0.3-3.3-0.4-4.3,0
			c-3.1-0.7-23.8-5.6-35.6-8.1C71.3,88,54.5,84,54.3,84c-0.5-0.1-0.9,0.1-1.1,0.6c0,0.1-0.4,0.9-1,2.4c-0.1-0.1-0.3-0.1-0.4-0.2
			c-1.7-0.8-2.9-1.2-4.2-4c-0.9-1.8-1.9-2.9-3-3.6c-2.1,6.6-3.2,13.6-3.2,20.9c0.5,0.1,0.9,0.1,1.4,0.1c2.2,0,3.7-0.6,4.5-0.9
			l1.9,0.6c-0.1,1.3-0.1,2.1-0.1,2.2c0,0.5,0.3,0.9,0.8,1c0.1,0,13.4,2.8,23.6,5.1c10.9,2.5,29.1,6.6,36.5,12.3
			c7.3,5.7,6.6,13.2,4.8,22.5c-0.8,4.5-4.1,19.3-5.9,27.3c0.8,0,1.7,0.1,2.6,0.1c18.9,0,36.1-7.5,48.7-19.7l2-8c0,0,3.8-2.7,8.4-4.7
			c5.3-8.3,8.9-17.8,10.3-28C178,108.9,174.5,108.1,170.9,107.4z"/>
		<g>
			<path class="st3" d="M45.2,96.2c0,0-2.2-0.5-0.5-6.6c1.7-6.1,3.7-9.6,3.7-9.6s18.5,4.6,26.2,5.7c7.6,1.1,37.5,7.6,37.5,7.6
				s2.4,2.2,1.6,2.5c-0.7,0.2-4.9,0.9-4.1,1.8c0.8,0.9,4.2,2.3,4.2,2.3s-4.3,0.8-4.1,2.3s1.6,1.9,5.5,2.7c3.9,0.8,10.1,2.5,10.1,2.5
				s-4,1.3-6,3.8s-1.1,4.5,0.3,3.8c1.5-0.6,4.1-2.9,7.8-2.8s4,5.3,10.7,7.3s12.1-3.8,12.1-3.8l-13.9-0.7l4.8-16.6
				c0,0,25.6,1.8,35.9,6.4c10.3,4.6,11.4,7.3,10.3,11.7c-1.1,4.3-15.6,12.6-20.9,14.6c-5.4,1.9-10.5,5.6-10.5,5.6l-5.4,21.7
				c0,0-8.2,5.4-20.8,9.1c-12.7,3.6-27.6,2.1-27.6,2.1s8-35.1,8.6-40.8c1.2-11-5.9-16.2-12.7-18.8C91.2,107.4,45.2,96.2,45.2,96.2z"
				/>
		</g>
		<path class="st11" d="M113.6,127.9c-0.4,5.1-1.5,14-3.1,22.2s-3.6,16.6-3.6,16.6s6.7-4,9.8-10.6c3.1-6.6,4.7-17.5,4.2-23.2
			c-0.5-5.8-3.2-9.3-5-11s-3.6-2.6-3.6-2.6S113.9,123.2,113.6,127.9z"/>
		<path class="st11" d="M142.9,100.3l-1.9,8.1c0,0,4.3-3.1,8.6-4.5c4.9-1.6,9.2-1.1,9.2-1.1S146.9,100.3,142.9,100.3z"/>
		<path class="st11" d="M127.9,161.7c3-4.1,5.1-7.2,8-10.6c4.4-5.2,9.3-8.2,9.3-8.2s-3.3,5.6-7.4,10.7
			C133.6,158.7,127.9,161.7,127.9,161.7z"/>
		<g>
			<path class="st4" d="M124.1,107.8c-2.5-0.4-10.3-1.6-11.5-1.7c-1.5-0.2-3.5,2.7,0,3.1c1.5,0.2,4.4,0.8,7.1,1.5
				C121,109.3,122.9,108.3,124.1,107.8z"/>
			<path class="st4" d="M112.3,104.1c0.2,0.1,0.4,0.2,0.7,0.2c2.9,0.9,9.3,2.8,11.3,3.4c0.6-0.3,1-0.4,1-0.4s-6.2-1.7-10.1-2.5
				C114,104.6,113.1,104.4,112.3,104.1z"/>
			<path class="st4" d="M133.7,117.1c-2.7-2.2-3.6-4.8-6.2-4.9c-0.6,0-1.1,0-1.6,0.1c0.3,0.1,0.5,0.1,0.5,0.1s-4,1.7-6,3.8
				c-2,2.2-0.3,5.2,1.8,3.2c2.2-1.9,5.5-2.4,7.3-2.6C130.4,116.9,132,117.1,133.7,117.1z"/>
		</g>
		<path class="st4" d="M45.2,88.8c-0.3,2.3,5.7,5,13.7,7.6c8,2.6,19.1,5.7,24.5,7.4c5.3,1.7,7.9,3.6,7.9,3.6S64.1,99.6,56,98.3
			C47.8,96.9,44,96,44,96L45.2,88.8z"/>
		<path class="st4" d="M129.7,167.4c3.4-2.1,11.2-7.1,16.8-17.3c3.2-5.8,6.7-13.3,10.3-16.3c3.6-3-1,1.3-1,3.5s-4,19.3-4,19.3
			L129.7,167.4z"/>
		<path class="st4" d="M159.7,116.4c4.8,0.9,14.6,0.3,17.6-2.4c3.1-2.7-1.2-9.5-9.9-11.7s16.4,2,19.5,8.8
			c3.1,6.9-3.4,11.4-10.1,14.5c-6.8,3.1-20.3,11.4-20.3,11.4s-1.5,1.1-1.4-0.5s5.2-6,12-9.8c6.8-3.8,7.1-5.5,2.1-7.2
			C164.2,117.8,159.7,116.4,159.7,116.4z"/>
		<path class="st4" d="M143.5,125.8c2.6,0.9,8.7,2.8,14.6,0.8c5.8-2,9-7.8,9-7.8l-13.6-2.7L143.5,125.8z"/>
		<g>
			<path class="st12" d="M129.3,116.9c0,0,3.4,4.7,5.5,10.5c2.2,6,0.7,15.1,0.7,15.1s2.8-10.9,7.5-16.1c2.7-3,7.1-6,7.1-6
				c1.6-0.6,3.2-3.6,3.2-3.6s-6.7,3.9-11.1,3.6c-4.3-0.3-13.7-8.6-13.7-8.6l-2.4,0.4C126,112.3,127.8,114.6,129.3,116.9z"/>
		</g>
		<path class="st13" d="M129.3,116.9c0,0,0.1,0.1,0.2,0.3l4.2-0.1c0,0-1.2-1.6-2.5-3c-1.6-1.3-2.7-2.2-2.7-2.2l-2.4,0.4
			C126,112.3,127.8,114.6,129.3,116.9z"/>
		<g>
			<path class="st13" d="M153.2,116.9c0,0-6.7,3.9-11.1,3.6c-3.6-0.3-10.4-5.9-12.8-7.9l-0.5-0.1c0,0,4.1,7.1,8.7,10.2
				c4.6,3.1,6,3.2,6,3.2l0,0c2.7-2.8,6.5-5.4,6.5-5.4c0.1,0,0.2-0.1,0.3-0.1l1.1-0.9C152.4,118.4,153.2,116.9,153.2,116.9z"/>
		</g>
		<g>
			<path class="st7" d="M140.3,120.2c2.8,0.7,5.7,0.4,8.3-1.3c2.6-1.7,4.8-2.8,2.3-3.1s-13.8-0.8-14.1-0.7c-0.3,0,0-3.1,0-3.1
				s-3.7,0.9-5.6,0.4c-1.9-0.5-2.8-0.5-2.8-0.5s4.2,4.6,6.9,5.9S140.3,120.2,140.3,120.2z"/>
		</g>
		<g>
			<path class="st6" d="M128.3,88.6c1.2-3.1,1.9-6.4,4.8-5.1s2.9,5.4,2.9,6.5s0,5.1,0,5.1s1.3-0.2,5.6-4.1c4.3-3.9,5.7-3.3,6.5-1.6
				c0.8,1.7,3.5,7.2,8.3,8.4c4.9,1.1,8.2-1.3,8.2-1.3s1,5.4-2.2,4.9s-14.1-2.9-17.5-3s-5.2,1.7-6.8-0.3c-1.6-1.9-10.8-7-10.8-7
				L128.3,88.6z"/>
		</g>
		<path class="st7" d="M130.4,91.6c0.2-2.3,1.2-5.1,2.1-3.8c1,1.3,1.6,2.6,1.1,3.1s2,0,2,0l-0.5,3.9L130.4,91.6z"/>
		<path class="st7" d="M145.8,98.2c3.5-0.4,6.5-2.2,6.5-2.2s4.7,2.8,8.1,2.5s5-1.9,5-1.9l-1.5,4.6L145.8,98.2z"/>
		<g>
			<path class="st14" d="M135.6,87.4c-0.3-2-2.5-2.2,0.4-5.2c2.8-2.9,8.5-9,17.6-5c9.1,4,11.8,8.2,11.7,12.1s0.9,8-2.3,8.6
				s-8.2,0.8-11.2-2.4c-3-3.1-3.3-7.5-5.4-7.5s-4.4,1.7-5.8,3.5c-1.4,1.8-3.8,5-3.8,5l-1.8-1.4C135.1,95.1,136,90.2,135.6,87.4z"/>
		</g>
		<path class="st15" d="M148,89.2c1.7,2.7,5.2,5.3,8.8,3.8c3.6-1.5,3.3-5.7,2-8.6c-1.3-3-5.7-7.2-5.7-7.2s10.1,5.4,11.6,8.6
			c1.5,3.2,2.5,11.2-2.3,12.3s-10.2-1.2-11.2-2.2S148,89.2,148,89.2z"/>
		<g>
			<path class="st6" d="M131.3,93.2c-5.3-2.5-11.1-5.4-12-4c-0.6,0.9,1.6,2.5,3.6,3.6c2,1.1,3.8,2.3,3.8,2.3s-5.2-0.6-9-1.2
				s-4.2,0.1-4.3,0.8c-0.1,0.5-0.2,1.3,1.4,1.9c-2.2-0.6-4.4-1.3-5,0c-0.3,0.8-0.3,2.1,2,2.8c3.5,1,11.9,3.5,11.9,3.5
				s-10.8-1.7-12.3-1.8c-1.5-0.2-3.5,2.7,0,3.1c3.5,0.4,13.8,3.2,13.8,3.2s-4,1.7-6,3.8c-2,2.2-0.3,5.2,1.8,3.2
				c2.2-1.9,5.5-2.4,7.3-2.6c1.8-0.2,7.5,1.2,8.7-1.7c1.2-2.8,2.8-10.2,2.8-10.2S136.6,95.7,131.3,93.2z"/>
		</g>
		<path class="st7" d="M127.5,111.1c2.9-0.2,6.1-1.2,7.1-3.6c1-2.4-0.5-4.5-1.7-4.7c-1.2-0.2,1,0.4,2.1-1.9c1.1-2.3-1-6-2.1-6.6
			c-1.1-0.6,7.1,5.7,7.1,5.7l-2.3,10.4c0,0-1.6,2-4.8,1.4C129.7,111.3,127.5,111.1,127.5,111.1z"/>
		<g>
			<path class="st6" d="M46.5,82.3c-2.4-1.2-4.1-1.3-5.8-5c-1.8-3.8-4.4-3.9-5.9-5.5s-4.6-3.4-5.6-4.4s-2,0.6-1.2,2.4
				s4.4,4.9,4.4,4.9s0,0.6,0,1.5l0,0c0,0-13.8-2.1-16.1-2.5s-2.6,2.1-0.9,2.8s10,2.6,10,2.6s-8.9-1-11.1-1s-2.1,2.1-1.2,2.8
				s12,2.5,12,2.5s-8.9-1.5-9.6-0.7c-0.8,0.8-0.9,2.4,1.6,3.2c0.3,0.1,0.7,0.2,1.1,0.3l0,0c-1.1-0.3-2,1.8,0,2.7s12.1,3.2,16.2,4.1
				s6.8-0.7,6.8-0.7l2.3,0.7L46.5,82.3z"/>
		</g>
		<path class="st7" d="M30.1,75.9c0.3,1,1,2.2,0.8,4.6s0,5.6,0,5.6s4.4-1.5,5.6-1.1S33.7,83.4,33,80c-0.8-3.4-0.5-4.8-0.5-4.8
			L30.1,75.9z"/>
		<path class="st7" d="M39.7,76.4c1.4,3.5,2,6.6,2.7,7.9c0.7,1.4-0.4,6.7-1.3,7.2s2.9,1.7,3,1.4c0.1-0.4,3.2-10.8,2.9-10.7
			c-0.4,0.1-4.2-0.7-5-2.5C41,77.8,39.7,76.4,39.7,76.4z"/>
		<g>
			<path class="st8" d="M110.7,171c-39.1,0-71-31.9-71-71c0-2.7,0.1-5.4,0.4-8c0.1-0.5,0.6-0.9,1.1-0.9c0.5,0.1,0.9,0.6,0.9,1.1
				c-0.3,2.6-0.4,5.2-0.4,7.8c0,38,31,69,69,69c28.3,0,53.4-16.9,64-43.1c0.2-0.5,0.8-0.8,1.3-0.6c0.5,0.2,0.8,0.8,0.6,1.3
				C165.6,153.6,139.7,171,110.7,171z"/>
		</g>
		<g>
			<path class="st8" d="M180.4,107C180.4,107,180.3,107,180.4,107c-0.6-0.1-1-0.5-1-1.1c0.2-2,0.3-4,0.3-5.9c0-38-31-69-69-69
				c-30.7,0-58,20.6-66.4,50c-0.2,0.5-0.7,0.8-1.2,0.7c-0.5-0.2-0.8-0.7-0.7-1.2C51,50.2,79.1,29,110.7,29c39.1,0,71,31.9,71,71
				c0,2-0.1,4.1-0.3,6.1C181.3,106.6,180.9,107,180.4,107z"/>
		</g>
		<g>
			<path class="st8" d="M119.8,116c-0.6,0-1.2-0.3-1.6-0.7c-1-1.1-1.2-3.2,0.4-4.9c1.1-1.1,2.6-2.1,3.9-2.9
				c-3.3-0.8-8.8-2.2-11.1-2.5c-2.3-0.3-2.9-1.5-2.8-2.6c0.2-1.4,1.7-2.6,3-2.5c1.5,0.2,11.9,1.8,12.4,1.8c0.5,0.1,0.9,0.6,0.8,1.1
				s-0.6,0.9-1.1,0.8c-0.1,0-10.8-1.7-12.3-1.8c-0.1,0-0.4,0.1-0.6,0.4c-0.2,0.2-0.2,0.4-0.2,0.4c0,0,0.3,0.3,1.1,0.4
				c3.5,0.5,13.5,3.1,14,3.2c0.4,0.1,0.7,0.5,0.7,0.9s-0.2,0.8-0.6,1c0,0-3.8,1.6-5.7,3.6c-0.8,0.9-0.7,1.8-0.4,2.1
				c0.2,0.2,0.7-0.2,0.9-0.3c1.8-1.6,4.3-2.5,7.9-2.8c0.5,0,1.2,0,2,0.1c2.1,0.1,5.2,0.4,5.8-1.1c1-2.3,2.3-7.9,2.7-9.5
				c-0.9-1.1-3.8-4.2-8-6.2l-1.4-0.6c-3-1.4-7.5-3.5-9.1-3.6c0.4,0.4,1.3,1.2,2.9,2.1c2,1.1,3.8,2.3,3.9,2.4
				c0.4,0.3,0.5,0.7,0.4,1.2c-0.2,0.4-0.6,0.7-1,0.6c-0.1,0-5.3-0.6-9.1-1.3c-2.6-0.5-3.1-0.1-3.2-0.1l0,0c0,0,0,0,0,0.1
				c0,0.2,0,0.2,0,0.2c0,0.1,0.4,0.5,2,0.9c2.9,0.7,8.6,1.9,8.6,1.9l-0.4,2c0,0-5.7-1.3-8.6-1.9c-1.7-0.4-2.8-1-3.3-1.8
				c-0.5-0.8-0.3-1.5-0.2-1.8c0.5-2,2.5-2,5.5-1.5c1.3,0.2,2.9,0.5,4.3,0.7c-1.6-0.9-3.6-2.2-3.9-3.6c-0.1-0.5-0.1-0.9,0.2-1.3
				c1.2-1.9,4.9-0.3,11.9,3l1.3,0.6c5.5,2.6,8.9,6.9,9,7.1c0.2,0.2,0.2,0.5,0.2,0.8c-0.1,0.3-1.7,7.4-2.9,10.3
				c-1.2,2.8-5.1,2.5-7.8,2.3c-0.7,0-1.4-0.1-1.7-0.1c-3.1,0.3-5.3,1-6.8,2.3C121.1,115.8,120.4,116,119.8,116z"/>
		</g>
		<g>
			<path class="st8" d="M123.5,103.8c0,0-8.5-2.5-11.9-3.5c-1.3-0.4-2.2-1-2.6-1.9c-0.3-0.7-0.3-1.5-0.1-2.2c0.8-2,3.3-1.3,5.6-0.7
				l0.6,0.2c0.5,0.1,0.9,0.7,0.7,1.2c-0.1,0.5-0.7,0.9-1.2,0.7l-0.6-0.2c-0.9-0.3-2.9-0.8-3.2-0.5c-0.1,0.2-0.1,0.4,0,0.6
				c0.2,0.3,0.7,0.6,1.4,0.9c3.5,1,11.9,3.5,11.9,3.5L123.5,103.8z"/>
		</g>
		<g>
			<path class="st8" d="M138.2,107.4c-0.3,0-0.5-0.2-0.5-0.5c-0.1-1.1-0.5-1.9-1.2-2.5c-1.9-1.5-5.2-1.1-5.2-1.1
				c-0.3,0-0.5-0.2-0.6-0.4s0.2-0.5,0.4-0.6c0.2,0,3.7-0.4,5.9,1.3c1,0.8,1.5,1.8,1.6,3.2C138.7,107.1,138.5,107.4,138.2,107.4
				C138.2,107.4,138.2,107.4,138.2,107.4z"/>
		</g>
		<g>
			<path class="st8" d="M151.8,157.6c-0.1,0-0.1,0-0.2,0c-0.5-0.1-0.9-0.6-0.8-1.2l4.2-20c0.1-0.3,0.2-0.5,0.5-0.7
				c0.1,0,7.9-4.4,17.9-9.5c10.1-5.1,13.8-8.6,13.2-12.3c-0.5-3.1-2-5.1-9.3-8.2c-6.2-2.6-14.5-3.9-22.4-5.1l-3.7-0.6
				c-7.1-1.1-9.9-1.5-10.3,0.1c-0.1,0.5-0.6,0.9-1.2,0.8c-0.5-0.1-0.9-0.6-0.8-1.2c0.7-3.6,4.4-3,12.5-1.7l3.7,0.6
				c8.1,1.2,16.5,2.5,22.9,5.2c7.2,3,9.8,5.4,10.5,9.7c0.9,5.5-4.8,9.6-14.3,14.4c-8.7,4.4-15.7,8.3-17.4,9.3l-4.1,19.5
				C152.7,157.3,152.3,157.6,151.8,157.6z"/>
		</g>
		<g>
			<path class="st8" d="M173.6,122.5c-0.2,0-0.3,0-0.5-0.1c0,0-3.9-2.1-12.2-3.9c-8.4-1.8-24.8-2.5-24.9-2.5c-0.3,0-0.6-0.2-0.8-0.4
				s-0.2-0.5-0.2-0.8c0,0,0.6-2.6,1.7-6.5c0.1-0.5,0.7-0.8,1.2-0.7c0.5,0.1,0.8,0.7,0.7,1.2c-0.6,2.3-1.1,4.2-1.4,5.3
				c4,0.2,16.7,0.9,24.1,2.5c8.7,1.9,12.6,4,12.8,4.1c0.5,0.3,0.7,0.9,0.4,1.4C174.3,122.3,174,122.5,173.6,122.5z"/>
		</g>
		<g>
			<path class="st8" d="M142.7,121.5c-0.7,0-1.5-0.1-2.3-0.2c-6.4-1.4-9.3-5.5-9.4-5.6c-0.3-0.5-0.2-1.1,0.2-1.4
				c0.5-0.3,1.1-0.2,1.4,0.2c0,0,2.6,3.6,8.2,4.8c5.5,1.2,10.8-3.8,10.8-3.8c0.4-0.4,1-0.4,1.4,0c0.4,0.4,0.4,1,0,1.4
				C152.9,117.1,148.3,121.5,142.7,121.5z"/>
		</g>
		<g>
			<path class="st8" d="M127.8,92.5c0,0-0.1,0-0.1,0c-0.5-0.1-0.9-0.6-0.9-1.1c0-0.5,0.5-4.5,1.9-6.5c0.9-1.4,2.7-2.8,4.5-2.7
				c1,0,1.9,0.6,2.4,1.5c1.3,2.3,1.4,6.8,1.4,7.4c0,0.6-0.4,1-1,1c-0.6,0-1-0.4-1-1c0-1.3-0.3-4.8-1.2-6.4c-0.3-0.5-0.6-0.5-0.8-0.5
				c-0.8,0-2,0.8-2.7,1.8c-0.9,1.4-1.4,4.5-1.5,5.6C128.7,92.2,128.3,92.5,127.8,92.5z"/>
		</g>
		<g>
			<path class="st8" d="M133.1,91.4c-0.3,0-0.5-0.2-0.5-0.5c0-2.9-1.1-3.9-1.1-3.9c-0.2-0.2-0.2-0.5-0.1-0.7
				c0.2-0.2,0.5-0.2,0.7-0.1c0.1,0.1,1.4,1.2,1.4,4.6C133.6,91.1,133.4,91.4,133.1,91.4C133.1,91.4,133.1,91.4,133.1,91.4z"/>
		</g>
		<g>
			<path class="st8" d="M163.8,102.1c-0.1,0-0.1,0-0.2,0c-0.5-0.1-0.9-0.6-0.8-1.1c0,0,0.4-2.4,1.1-5.9c2-9.6-4.8-15.2-11.9-17.2
				c-11.5-3.3-16.3,6.4-16.5,6.8c-0.2,0.5-0.8,0.7-1.3,0.5c-0.5-0.2-0.7-0.8-0.5-1.3c0.1-0.1,5.7-11.7,18.9-7.9
				c15.6,4.5,13.8,17.1,13.3,19.6c-0.7,3.4-1.1,5.8-1.1,5.8C164.7,101.8,164.3,102.1,163.8,102.1z"/>
		</g>
		<g>
			<path class="st8" d="M160,98.9c-1,0-2.2-0.2-3.7-0.5c-3.9-1-6.5-3.4-8-7.3c-0.5-1.4-1.1-2.1-1.7-2.3c-0.7-0.2-1.6,0.2-2.8,1.1
				c-2.8,2.2-5.2,4.9-5.2,5c-0.2,0.2-0.5,0.2-0.7,0.1c-0.2-0.2-0.2-0.5-0.1-0.7c0.1-0.1,2.4-2.8,5.3-5.1c1.5-1.2,2.7-1.6,3.7-1.3
				c1,0.3,1.7,1.2,2.4,2.9c1.4,3.6,3.8,5.8,7.3,6.7c4.2,1.1,6,0.2,7.7-0.6l0.3,0.4l0.2,0.5C163.5,98.2,162.2,98.9,160,98.9z"/>
		</g>
		<g>
			<path class="st8" d="M102.6,170.5c-0.1,0-0.1,0-0.2,0c-0.5-0.1-0.9-0.7-0.8-1.2c0.1-0.3,5.9-26.2,7-32.4
				c1.8-9.3,2.5-16.8-4.8-22.5c-7.4-5.7-25.6-9.9-36.5-12.3C57.2,99.8,44,97,43.8,96.9c-0.5-0.1-0.8-0.5-0.8-1
				c0-0.2-0.1-4.3,1.1-8.6c1.4-5.4,2.9-8.7,3-8.8c0.2-0.4,0.7-0.7,1.1-0.6c0.2,0,17,4,29.7,6.7c12.7,2.7,35.8,8.1,36,8.2
				c0.5,0.1,0.9,0.7,0.7,1.2c-0.1,0.5-0.7,0.9-1.2,0.7c-0.2-0.1-23.3-5.5-36-8.2c-11.1-2.4-25.4-5.7-29-6.6c-0.5,1.2-1.6,4-2.6,7.8
				c-0.8,2.9-1,5.9-1,7.2c3,0.6,14.1,3,22.8,5c11,2.5,29.5,6.7,37.3,12.7c8.2,6.4,7.4,14.9,5.5,24.5c-1.2,6.2-7,32.2-7,32.5
				C103.5,170.2,103.1,170.5,102.6,170.5z"/>
		</g>
		<g>
			<path class="st8" d="M38.6,86.8c-0.2,0-0.3,0-0.5-0.1c-0.1-0.1-2.8-1.5-5-4.3c-1.8-2.4-2-5.9-2-7.2c-1-0.9-3.6-3.3-4.3-5
				c-0.6-1.5-0.4-3.1,0.6-3.8c0.7-0.5,1.6-0.4,2.2,0.3c0.4,0.4,1.1,0.9,2,1.5c1.3,0.9,2.7,1.9,3.7,2.9c0.4,0.5,1,0.8,1.6,1.2
				c1.4,0.8,3.1,1.8,4.4,4.6c1.3,2.8,2.5,3.3,4.2,4c0.4,0.2,0.8,0.3,1.2,0.5c0.5,0.2,0.7,0.8,0.5,1.3c-0.2,0.5-0.8,0.7-1.3,0.5
				c-0.4-0.2-0.8-0.4-1.1-0.5c-1.8-0.8-3.6-1.5-5.2-5c-1-2.2-2.4-3-3.6-3.7c-0.7-0.4-1.5-0.9-2.1-1.5c-0.8-0.9-2.2-1.8-3.4-2.6
				c-0.8-0.6-1.5-1.1-2-1.5c0,0.3,0,0.6,0.2,1.1c0.5,1.1,2.8,3.4,4.1,4.6c0.2,0.2,0.4,0.5,0.3,0.8c0,0-0.2,4.1,1.5,6.4
				c1.8,2.4,4.3,3.7,4.3,3.7c0.5,0.3,0.7,0.9,0.4,1.3C39.3,86.6,39,86.8,38.6,86.8z"/>
		</g>
		<g>
			<path class="st8" d="M26,88.4c0,0-0.1,0-0.1,0c-0.3,0-6.8-0.8-9.3-1.7C14.6,86,14,85,13.8,84.2c-0.2-0.7,0-1.4,0.4-2
				c-1-0.2-1.7-0.5-1.9-0.6c-0.8-0.6-1.2-1.8-0.9-2.8c0.3-1.1,1.4-1.7,2.7-1.7c0,0,0.1,0,0.2,0c-0.9-0.6-1.4-1.7-1.1-2.7
				c0.3-1,1.3-1.9,3.1-1.6c2.4,0.4,16.1,2.5,16.1,2.5l-0.3,2c0,0-13.8-2.1-16.1-2.5c-0.5-0.1-0.8,0-0.8,0.2c0,0.2,0.1,0.5,0.5,0.7
				c1.4,0.6,7.6,2,9.8,2.5c0.5,0.1,0.9,0.6,0.8,1.1c-0.1,0.5-0.6,0.9-1.1,0.8c-0.1,0-8.9-1-11-1c-0.3,0-0.7,0.1-0.8,0.3
				c-0.1,0.2,0,0.5,0.1,0.6c0.7,0.3,6.4,1.4,11.6,2.3c0,0,0,0,0,0c0.5,0.1,0.9,0.6,0.8,1.1c-0.1,0.5-0.6,0.9-1.1,0.8c0,0,0,0,0,0
				l0,0c0,0,0,0,0,0c-3.5-0.6-7.8-1.1-8.8-0.9c-0.1,0.1-0.1,0.3-0.1,0.4c0.1,0.4,0.6,0.8,1.4,1.1c2.4,0.8,8.8,1.6,8.9,1.6
				c0.5,0.1,0.9,0.6,0.9,1.1C26.9,88,26.5,88.4,26,88.4z"/>
		</g>
		<g>
			<path class="st8" d="M36.7,94.1c-0.8,0-1.7-0.1-2.7-0.3c-0.1,0-13.9-3-16.4-4.2c-1.7-0.7-2-2.2-1.7-3.3c0.4-1,1.4-1.6,2.3-1.3
				c0.5,0.2,0.8,0.7,0.7,1.2c-0.1,0.5-0.6,0.8-1.1,0.7c0,0,0,0.1,0,0.2c0,0.2,0.2,0.4,0.6,0.6c1.7,0.8,10.8,2.9,16,4
				c3.6,0.8,6-0.6,6.1-0.6c0.2-0.1,0.5-0.2,0.8-0.1l2.3,0.7c0.5,0.2,0.8,0.7,0.7,1.3c-0.2,0.5-0.7,0.8-1.3,0.7l-1.9-0.6
				C40.5,93.5,38.9,94.1,36.7,94.1z"/>
		</g>
		<g>
			<path class="st8" d="M31.4,87c-0.4,0-0.8-0.2-0.9-0.6c-0.2-0.5,0-1.1,0.5-1.3c0.2-0.1,3.8-1.5,7.9-0.3c0.5,0.2,0.8,0.7,0.7,1.2
				c-0.2,0.5-0.7,0.8-1.2,0.7c-3.4-1-6.6,0.2-6.6,0.3C31.6,87,31.5,87,31.4,87z"/>
		</g>
		<g>
			<path class="st8" d="M125.4,101.6c-0.3,0-0.5-0.2-0.5-0.5c0-0.1-0.2-2.8,2.8-7.4c0.2-0.2,0.5-0.3,0.7-0.1
				c0.2,0.2,0.3,0.5,0.1,0.7c-2.8,4.3-2.7,6.8-2.7,6.8C125.9,101.3,125.7,101.6,125.4,101.6C125.4,101.6,125.4,101.6,125.4,101.6z"
				/>
		</g>
		<g>
			<path class="st8" d="M151.8,156.6l4.8-20.3l19-10c0,0-3.9,10.5-11.2,18.6C158.4,151.6,151.8,156.6,151.8,156.6z"/>
		</g>
		<g>
			<g>
				<path class="st8" d="M65.4,153.4c0,0,1.2,1,11.8,8.1s24.9,8,24.9,8l8.6-40.8L65.4,153.4z"/>
			</g>
			<g>
				<polygon class="st8" points="163.8,101.1 180.4,106 180.7,90.9 				"/>
			</g>
		</g>
		<g>
			<path class="st8" d="M158,56.6l-1.9-5.8l-14.1,6.7l-2.4-10.6l11.8-3.8c-2.2-1.5-4.5-2.9-6.3-4l-12.3,4.2l7.5,34.6
				c1.2-0.8,3.1-1.7,5.7-2l-2.8-12.4L158,56.6z"/>
		</g>
		<g>
			<g>
				<path class="st8" d="M127.5,91.1c-0.8-4.2-2-11.3-3.3-19c4.6-1.7,10.6-6.1,9.3-14c-0.7-4.1-2.5-7.1-5.4-9
					c-0.2-0.2-0.5-0.3-0.7-0.4c-2.7-1.5-6-1.7-8.9-0.8l-4.2,1.3l0.3,1.7c3.4,20.2,5.3,31.5,6.4,37.9
					C122.4,88.6,125.2,89.9,127.5,91.1z M124.8,54c1.5,1,2.4,2.6,2.8,5c0.6,3.9-2.1,5.9-4.4,7c-0.7-4.1-0.2-1.1-2-12.1
					C122.3,53.5,123.6,53.3,124.8,54z"/>
			</g>
			<g>
				<path class="st8" d="M121.4,90.9c0,0.2,0.1,0.4,0.1,0.6l0,0C121.5,91.4,121.5,91.2,121.4,90.9z"/>
			</g>
		</g>
		<g>
			<g>
				<path class="st8" d="M77.6,85.7l11.6,2.6l-5.2-30l-5.8,1.8l4.1,23.8C80.8,84.4,79.2,85.1,77.6,85.7z"/>
			</g>
			<g>
				<path class="st8" d="M69.6,83.9c-1.4-9.4-2.5-17.1-3-20.3l-5.8,1.8c0.4,2.7,1.1,7.7,2.5,17.1L69.6,83.9z"/>
			</g>
			<g>
				<path class="st8" d="M88.1,106.3c-0.3-0.1-1-0.3-1.9-0.5l3.4,19.8l5.9-1l-2.9-16.7C91.1,107.3,89.3,106.7,88.1,106.3z"/>
			</g>
			<g>
				<path class="st8" d="M66,100.9c1.4,9.2,3.1,20.5,5.2,34.6l5.9-0.9c-1.1-7.6-3-19.9-4.8-32.2C70.1,101.9,68,101.4,66,100.9z"/>
			</g>
		</g>
		<g>
			<g>
				<path class="st8" d="M100.4,111.1l-0.6,8.9l6,0.4l0.3-5C104.8,114,102.9,112.5,100.4,111.1z"/>
			</g>
			<g>
				<polygon class="st8" points="101.7,91.1 107.7,92.4 110.4,50.2 104.3,52.1 103.4,66.2 95.1,54.9 89.1,56.8 102.8,75.5 				"/>
			</g>
		</g>
		<g>
			<path class="st8" d="M135.4,143c0,0-0.1,0-0.1,0c-0.3-0.1-0.4-0.3-0.4-0.6c0-0.1,1.5-9.1-0.6-14.9c-2-5.6-5.4-10.3-5.4-10.4
				c-0.2-0.2-0.1-0.5,0.1-0.7c0.2-0.2,0.5-0.1,0.7,0.1c0,0,3.4,4.8,5.5,10.6c1.2,3.3,1.3,7.4,1.2,10.6c1.3-3.6,3.4-8.6,6.2-11.7
				c2.8-3.1,7-5.9,7.2-6c0.2-0.2,0.5-0.1,0.7,0.1c0.2,0.2,0.1,0.5-0.1,0.7c0,0-4.3,2.9-7,5.9c-4.6,5-7.4,15.8-7.4,15.9
				C135.8,142.9,135.6,143,135.4,143z"/>
		</g>
		<g>
			<path class="st8" d="M122.5,152.9c0,0-0.1,0-0.1,0c-0.3-0.1-0.4-0.3-0.4-0.6c0-0.1,1.5-7.3,2.2-14.1c0.7-6.8,0.6-19.9,0.6-20
				c0-0.3,0.2-0.5,0.5-0.5c0,0,0,0,0,0c0.3,0,0.5,0.2,0.5,0.5c0,0.1,0.1,13.3-0.6,20.1c-0.7,6.8-2.2,14.1-2.2,14.2
				C122.9,152.7,122.7,152.9,122.5,152.9z"/>
		</g>
		<g>
			<path class="st8" d="M147.4,153.6c0,0-0.1,0-0.1,0c-0.3-0.1-0.4-0.4-0.3-0.6c0-0.1,3.2-10.7,3.5-27.4c0-0.3,0.2-0.5,0.5-0.5
				c0.3,0,0.5,0.2,0.5,0.5c-0.2,16.8-3.5,27.6-3.5,27.7C147.8,153.5,147.6,153.6,147.4,153.6z"/>
		</g>
		<g>
			<path class="st8" d="M159.4,80l7.6-3.6l-2-5.7l-12.7,6C154.4,77.2,157.1,78.1,159.4,80z"/>
		</g>
	</g>
</g>
</svg>
