<?xml version="1.0" encoding="utf-8"?>
<!-- Generator: Adobe Illustrator 21.1.0, SVG Export Plug-In . SVG Version: 6.00 Build 0)  -->
<svg version="1.1" xmlns="http://www.w3.org/2000/svg" xmlns:xlink="http://www.w3.org/1999/xlink" x="0px" y="0px"
	 viewBox="0 0 200 200" style="enable-background:new 0 0 200 200;" xml:space="preserve">
<style type="text/css">
	.st0{fill:none;stroke:#B3C0C7;stroke-miterlimit:10;}
	.st1{fill:#778085;}
	.st2{fill:#FD7E23;}
	.st3{fill:#30E6B6;}
	.st4{fill:#29C49B;}
	.st5{fill:#FDD353;}
	.st6{fill:#FDE4D2;}
	.st7{fill:#F2C2A0;}
	.st8{fill:#4D5052;}
	.st9{fill:#FD6A5D;}
	.st10{fill:#D1584D;}
	.st11{fill:#B8FFEC;}
	.st12{fill:#FFFFFF;}
	.st13{fill:#C9C9C9;}
	.st14{fill:#1DAAF1;}
	.st15{fill:#1682B8;}
	.st16{fill:#5EC9FF;}
	.st17{fill:#DB5F07;}
	.st18{fill:#C4F2EB;}
	.st19{fill:#B4DED7;}
	.st20{fill:#ABABAB;}
	.st21{fill:#757575;}
	.st22{fill:#878787;}
	.st23{fill:#C9EDFF;}
	.st24{fill:#93C2D9;}
	.st25{fill:#FDA29A;}
	.st26{fill:#9C9C9C;}
	.st27{fill:url(#SVGID_1_);}
	.st28{fill:url(#SVGID_2_);}
	.st29{fill:url(#SVGID_3_);}
	.st30{fill:url(#SVGID_4_);}
	.st31{fill:#A5F2DE;}
</style>
<g id="marks">
</g>
<g id="icons">
	<g>
		<g>
			<path class="st14" d="M106.3,29.2c-13.7,0-26.5,3.9-37.3,10.7l-6.5,4.7c-16,12.8-26.2,32.5-26.2,54.6c0,38.7,31.3,70,70,70
				c38.7,0,70-31.3,70-70C176.3,60.5,145,29.2,106.3,29.2z"/>
		</g>
		<g>
			<path class="st15" d="M175.5,110.2c0-0.3,0.1-0.6,0.1-0.8c0.2-1,0.3-2.1,0.4-3.1c-0.3,0.7-0.7,1.7-1.2,3c0.1-0.5,0.2-1,0.3-1.5
				c0.5-2.2,0.9-4.5,1.2-6.7c0-0.6,0-1.3,0-1.9c0-4.7-0.5-9.3-1.3-13.7c-0.9-2.6-2.1-5.1-3.9-7.5c-6.5-8.9-15.8-10-26.6-7.5
				c-10.8,2.5-16,9.5-19.3,16.4s-9,24.7-9,24.7l3.2,6.3c0,0,1.2,2,3.5,6c2.3,4,3.1,6.9-0.5,8.5s-6.4-5.8-9.1-10.2
				c-2.7-4.4-3.3-4.5-6.6-4.3c-3.3,0.2-7.2,0-15.5,5.7c-8.3,5.7-14.1,20.5-18.8,31.7c0,0,0-0.5-0.7,1.8c-0.4,1.1-0.2,2.2,1.5,3.7
				c9.9,5.4,21.3,8.4,33.3,8.4C141.2,169.2,170.2,143.6,175.5,110.2z"/>
		</g>
		<g>
			<path class="st13" d="M64.8,150.2c4.7-11.2,10.5-26,18.8-31.7c8.3-5.7,12.2-5.5,15.5-5.7c3.3-0.2,3.9,0,6.6,4.3
				c2.7,4.4,5.6,11.9,9.1,10.2c3.6-1.7,2.8-4.6,0.5-8.5c-2.3-4-3.5-6-3.5-6l-3.2-6.3c0,0,5.7-17.8,9-24.7S126.2,68,137,65.5
				c10.8-2.5,20.1-1.5,26.6,7.5s6.5,19.3,4,29.8c-2.4,10.5-2.8,20.7-2.7,20.8c0.1,0.1,0.3,2.7,2.3,4.1s2.9,1.7,1.3,4.4
				c-1.6,2.7-7.2,14-18.6,22.6S124,169,115,169.4s-24.4,0.5-37.3-6.3s-14.5-8.8-13.7-11.1C64.9,149.7,64.8,150.2,64.8,150.2z"/>
		</g>
		<path class="st20" d="M75.7,161.9c2.1-3.2,6.3-10.4,9.3-17.4c3.1-7.1,3.5-9.5,5.8-8.8c2.3,0.7-0.4,11.5-2.4,18.1
			c-2,6.6,0.1,7.5,2.1,5.5s4.2-9,5.8-14.8c1.7-5.8,2.6-13.3,2.6-13.3s0.9,6.3-2.2,19.5s-4.6,16.7-8.9,16
			C83.5,165.9,75.7,161.9,75.7,161.9z"/>
		<g>
			<path class="st20" d="M126.9,126.2c0,0,4.3,7.1,5.8,9.5c1.5,2.3,0.4,5-0.6,6.2s0.6,3.1,0.6,3.1s1.5-0.7,2.2,0.4c0.7,1.1,0,2,0,2
				s0.6-0.4,1.2,0.6c0.6,1,0,2,0,2s1.1-0.2,1.9,0.8s-0.3,1.9-0.3,1.9s1.1-0.2,2,0.9c0.9,1.2-0.4,2.1-0.4,2.1s0.9-0.3,1.8,0.6
				s-0.3,2-0.3,2l1,1.6l-4,2l-18.2-31.3L126.9,126.2z"/>
		</g>
		<g>
			<g>
				<path class="st20" d="M122.8,167.4c-2.3,0.3-4.8-2.2-6.8-5c-1.5-2.1-3.3-9.4-3.5-12.3c0,0-0.4,2.9-0.6,4.5
					c-0.2,2.8-1.4,4.7-3.3,4.8c-1.9,0.1-3.8-1.8-3.2-6.4c0.6-4.6,0-15.3,0-15.3s-1.3,4.9-3,2.1s-2.4-8.8-2.4-8.8s0.3,3-0.6,7.4
					l-1.6,9.4c-2.2,9.6-5.9,17-6.9,18.9c-1,1.9,7.6,2.7,14.7,2.5C112.7,169,125.1,167.1,122.8,167.4z"/>
			</g>
		</g>
		<g>
			<path class="st12" d="M115.4,113.6l4.6,7.3c0,0,1.8,0,3.7-2.7c1.2-1.7,1.2-3.8,1.2-3.8l-2.4-8.3c0,0,0,3.2-2.8,5.4
				S115.4,113.6,115.4,113.6z"/>
		</g>
		<g>
			<path class="st12" d="M112.2,103.4c1.6-4.3,5.4-19.9,12.8-27.7s11.1-9.9,11.1-9.9s-13.5,6.5-15,23.5c-0.4,4.4-0.4,7.8,0.3,13.5
				c0.4,3.3-2.1,5.3-4,6.6c-2.4,1.6-7.1,1.8-8.4-0.3C109,109.1,110.7,107.3,112.2,103.4z"/>
		</g>
		<g>
			<path class="st22" d="M125.8,143.2l-0.7,0.4c-2.5,1.4-5.6,0.6-7.1-1.8l-4.6-7.7l9.6-5.6l4.6,7.7
				C129.1,138.6,128.3,141.7,125.8,143.2z"/>
		</g>
		<g>
			<path class="st22" d="M140,161.1l-8.4-14.7c-0.2-0.4-0.7-0.5-1.1-0.3l-4.9,3c-0.4,0.2-0.5,0.7-0.3,1.1l8.3,14L140,161.1z"/>
		</g>
		<g>
			<path class="st20" d="M144.7,150.2c0,0,6.5-9.7,9.6-16.6c3.1-6.9,5.3-11.7,5.3-11.7s0.1-0.9,3.2,1.4s7.8,4.8,6.4,7.3
				s-8.2,14.4-14.7,19.6c-6.5,5.1-13.1,9.6-13.1,9.6S144.2,151.8,144.7,150.2z"/>
		</g>
		<linearGradient id="SVGID_1_" gradientUnits="userSpaceOnUse" x1="76.0516" y1="83.2544" x2="82.3016" y2="79.3794">
			<stop  offset="0" style="stop-color:#30E6B6;stop-opacity:0"/>
			<stop  offset="1" style="stop-color:#30E6B6"/>
		</linearGradient>
		<path class="st27" d="M92.5,113.6c2.9-1.3,11.9-1.2,11.9-1.2L63.6,44.2c0,0-5.6,4-8.5,7.8L92.5,113.6z"/>
		<linearGradient id="SVGID_2_" gradientUnits="userSpaceOnUse" x1="98.6632" y1="72.015" x2="92.3587" y2="75.8372">
			<stop  offset="0" style="stop-color:#30E6B6;stop-opacity:0"/>
			<stop  offset="1" style="stop-color:#30E6B6"/>
		</linearGradient>
		<path class="st28" d="M78.9,35.6l40.4,71.1c0,0-5.7,7.9-7.9,4.2s-42-70.3-42-70.3s3.8-2.1,6.2-3.3C78.1,36.1,78.9,35.6,78.9,35.6z
			"/>
		<g>
			<path class="st3" d="M115.9,126.7L115.9,126.7c-1.7,1-4,0.4-5-1.3L54,28.9c-1-1.7-0.4-4,1.3-5l0,0c1.7-1,4-0.4,5,1.3l56.8,96.5
				C118.2,123.4,117.6,125.7,115.9,126.7z"/>
		</g>
		<g>
			<path class="st8" d="M106.3,170.2c-39.1,0-71-31.9-71-71c0-21.6,9.7-41.8,26.6-55.4c0.4-0.3,1.1-0.3,1.4,0.2
				c0.3,0.4,0.3,1.1-0.2,1.4C46.7,58.5,37.3,78.2,37.3,99.2c0,38,31,69,69,69s69-31,69-69s-31-69-69-69c-13.1,0-25.8,3.7-36.8,10.6
				c-0.5,0.3-1.1,0.2-1.4-0.3c-0.3-0.5-0.2-1.1,0.3-1.4c11.3-7.1,24.4-10.9,37.8-10.9c39.1,0,71,31.9,71,71S145.5,170.2,106.3,170.2
				z"/>
		</g>
		<g>
			<path class="st8" d="M114,128.2c-0.4,0-0.8,0-1.2-0.2c-1.2-0.3-2.2-1.1-2.9-2.1L53.2,29.4c-0.6-1.1-0.8-2.3-0.5-3.5
				s1.1-2.2,2.2-2.9c1.1-0.6,2.3-0.8,3.5-0.5c1.2,0.3,2.2,1.1,2.9,2.1l56.8,96.5c0.6,1.1,0.8,2.3,0.5,3.5c-0.3,1.2-1.1,2.2-2.1,2.9
				l0,0C115.7,128,114.9,128.2,114,128.2z M57.2,24.4c-0.5,0-0.9,0.1-1.3,0.4c-0.6,0.4-1.1,0.9-1.2,1.6c-0.2,0.7-0.1,1.4,0.3,2
				l56.8,96.5c0.4,0.6,0.9,1,1.6,1.2c0.7,0.2,1.4,0.1,2-0.3c0,0,0,0,0,0c0.6-0.4,1-0.9,1.2-1.6c0.2-0.7,0.1-1.4-0.3-2L59.5,25.7
				C59,24.9,58.1,24.4,57.2,24.4z"/>
		</g>
		<g>
			<path class="st8" d="M109.2,137.5c-0.3,0-0.7-0.2-0.9-0.5c-0.3-0.5-0.1-1.1,0.4-1.4l18.5-10.9c0.5-0.3,1.1-0.1,1.4,0.4
				c0.3,0.5,0.1,1.1-0.4,1.4l-18.5,10.9C109.6,137.5,109.4,137.5,109.2,137.5z"/>
		</g>
		<g>
			<path class="st8" d="M126.2,152.9c-0.3,0-0.7-0.2-0.9-0.5c-0.3-0.5-0.1-1.1,0.4-1.4l6.8-4c0.5-0.3,1.1-0.1,1.4,0.4
				c0.3,0.5,0.1,1.1-0.4,1.4l-6.8,4C126.5,152.9,126.3,152.9,126.2,152.9z"/>
		</g>
		<g>
			<path class="st8" d="M128,156.1c-0.3,0-0.7-0.2-0.9-0.5c-0.3-0.5-0.1-1.1,0.4-1.4l6.8-4c0.5-0.3,1.1-0.1,1.4,0.4
				c0.3,0.5,0.1,1.1-0.4,1.4l-6.8,4C128.4,156,128.2,156.1,128,156.1z"/>
		</g>
		<g>
			<path class="st8" d="M129.9,159.2c-0.3,0-0.7-0.2-0.9-0.5c-0.3-0.5-0.1-1.1,0.4-1.4l6.8-4c0.5-0.3,1.1-0.1,1.4,0.4
				c0.3,0.5,0.1,1.1-0.4,1.4l-6.8,4C130.2,159.2,130,159.2,129.9,159.2z"/>
		</g>
		<g>
			<path class="st8" d="M131.7,162.4c-0.3,0-0.7-0.2-0.9-0.5c-0.3-0.5-0.1-1.1,0.4-1.4l6.8-4c0.5-0.3,1.1-0.1,1.4,0.4
				c0.3,0.5,0.1,1.1-0.4,1.4l-6.8,4C132.1,162.3,131.9,162.4,131.7,162.4z"/>
		</g>
		<g>
			<path class="st8" d="M122.6,145.3c-0.5,0-1-0.1-1.6-0.2c-1.6-0.4-2.9-1.4-3.8-2.8l-4.6-7.7c-0.3-0.5-0.1-1.1,0.4-1.4l9.6-5.6
				c0.2-0.1,0.5-0.2,0.8-0.1c0.3,0.1,0.5,0.2,0.6,0.5l4.6,7.7c1.7,2.9,0.7,6.7-2.2,8.4l0,0l-0.7,0.4
				C124.7,145,123.7,145.3,122.6,145.3z M114.9,134.4l4.1,6.9c1.2,2,3.7,2.6,5.7,1.5l0.7-0.4c2-1.2,2.6-3.7,1.5-5.7l-4.1-6.9
				L114.9,134.4z M125.8,143.2L125.8,143.2L125.8,143.2z"/>
		</g>
		<g>
			
				<rect x="124.9" y="142.6" transform="matrix(0.8616 -0.5075 0.5075 0.8616 -56.1944 84.4875)" class="st8" width="3.8" height="5.3"/>
		</g>
		<g>
			
				<ellipse transform="matrix(0.8616 -0.5075 0.5075 0.8616 -52.3233 79.3157)" class="st8" cx="119.3" cy="135.6" rx="1.4" ry="1.4"/>
		</g>
		<g>
			
				<ellipse transform="matrix(0.8616 -0.5075 0.5075 0.8616 -53.8551 80.888)" class="st8" cx="121.4" cy="139.2" rx="1.4" ry="1.4"/>
		</g>
		<g>
			<g>
				<path class="st3" d="M81.7,49.7c-0.1,0-0.2,0-0.3,0c-0.3-0.1-0.4-0.4-0.3-0.6l2.6-7.8c0.1-0.3,0.4-0.4,0.6-0.3
					c0.3,0.1,0.4,0.4,0.3,0.6L82,49.3C82,49.5,81.9,49.6,81.7,49.7z"/>
			</g>
		</g>
		<g>
			<g>
				<path class="st3" d="M97.9,73.6c-0.2,0-0.3-0.1-0.4-0.2c-0.1-0.2-0.1-0.5,0.2-0.7l15.7-9.3c0.2-0.1,0.5-0.1,0.7,0.2
					c0.1,0.2,0.1,0.5-0.2,0.7l-15.7,9.3C98,73.6,97.9,73.6,97.9,73.6z"/>
			</g>
		</g>
		<g>
			<g>
				<path class="st3" d="M91.4,60.8c-0.1,0-0.2,0-0.3-0.1c-0.2-0.2-0.2-0.5,0-0.7l8.1-9.2c0.2-0.2,0.5-0.2,0.7,0
					c0.2,0.2,0.2,0.5,0,0.7l-8.1,9.2C91.6,60.8,91.5,60.8,91.4,60.8z"/>
			</g>
		</g>
		<g>
			<g>
				<path class="st3" d="M102.9,84.7c-0.2,0-0.4-0.1-0.5-0.4c-0.1-0.3,0.1-0.5,0.3-0.6l11.5-3.5c0.3-0.1,0.5,0.1,0.6,0.3
					c0.1,0.3-0.1,0.5-0.3,0.6L103,84.7C103,84.7,102.9,84.7,102.9,84.7z"/>
			</g>
		</g>
		<g>
			<g>
				<path class="st3" d="M58.9,60.2c-0.2-0.1-0.4-0.3-0.4-0.5c0-0.3,0.3-0.5,0.5-0.5l8.1,0.6c0.3,0,0.5,0.3,0.5,0.5
					c0,0.3-0.3,0.5-0.5,0.5L58.9,60.2C58.9,60.2,58.9,60.2,58.9,60.2z"/>
			</g>
		</g>
		<g>
			<g>
				<path class="st3" d="M62.2,94.6c-0.2,0-0.3-0.1-0.4-0.2c-0.1-0.2-0.1-0.5,0.2-0.7l15.7-9.3c0.2-0.1,0.5-0.1,0.7,0.2
					s0.1,0.5-0.2,0.7l-15.7,9.3C62.3,94.6,62.2,94.6,62.2,94.6z"/>
			</g>
		</g>
		<g>
			<g>
				<path class="st3" d="M58.5,78c-0.2,0-0.4-0.1-0.5-0.3c-0.1-0.3,0.1-0.5,0.3-0.6l14.3-4.5c0.3-0.1,0.5,0.1,0.6,0.3
					c0.1,0.3-0.1,0.5-0.3,0.6L58.6,78C58.6,78,58.5,78,58.5,78z"/>
			</g>
		</g>
		<g>
			<g>
				<path class="st3" d="M75,105.6c-0.1,0-0.3-0.1-0.4-0.2c-0.2-0.2-0.2-0.5,0.1-0.7l11.1-9.5c0.2-0.2,0.5-0.2,0.7,0.1
					c0.2,0.2,0.2,0.5-0.1,0.7l-11.1,9.5C75.2,105.6,75.1,105.6,75,105.6z"/>
			</g>
		</g>
		<g>
			<path class="st8" d="M143.3,144.9C143.3,144.9,143.3,144.9,143.3,144.9c-0.4,0-0.8-0.3-1-0.7c0-0.1-2.9-9.5-4.7-13.6
				c-1.4-3.2-2.6-5.8-3.6-8c-3.2-7-4.9-10.8-6.5-18.3c-2.7-13-0.2-25,6.5-31.3c4.3-4,9.8-5.3,15.7-3.7c5.9,1.6,10.3,5.6,12.7,11.6
				c3.8,9.2,2.3,21.3-4,32.4c-10.2,17.9-14.2,30.8-14.3,30.9C144.1,144.6,143.7,144.9,143.3,144.9z M144.9,70.6
				c-3.5,0-6.7,1.3-9.4,3.8c-6.2,5.8-8.5,17.1-5.9,29.4c1.5,7.3,3.2,11,6.3,17.9c1,2.3,2.2,4.9,3.6,8.1c1.2,2.8,2.9,7.8,3.9,11
				c1.8-4.8,6-15.3,13.5-28.4c5.9-10.4,7.4-22.1,3.9-30.6c-2.2-5.4-6.2-9-11.4-10.4C147.8,70.8,146.3,70.6,144.9,70.6z"/>
		</g>
		<g>
			<path class="st8" d="M149.6,70.3c-14.9-4.1-25.5,11.8-21,33.8c2,9.8,4.5,13.4,10,26.1c1.8,4.2,4.7,13.8,4.7,13.8
				s4-12.9,14.4-31.1S164.4,74.4,149.6,70.3z M136.7,94.4c-4-1.7-3.7-4.3-3.7-4.3s2.3-0.6,5.3,1.1s4,3.8,4,3.8
				S139.4,95.6,136.7,94.4z M157,97.9c-2.9,0.4-5.6-1-5.6-1s1.5-1.8,4.9-2.5s5.4,0.4,5.4,0.4S161.3,97.4,157,97.9z"/>
		</g>
		<g>
			<path class="st8" d="M153,137.5c-0.1,0-0.3,0-0.4-0.1c-0.5-0.2-0.7-0.8-0.5-1.3c0-0.1,3.9-9.3,11.3-24.5
				c4.7-9.7,6.6-25.7,0.8-36.2c-3.3-5.9-8.4-9.3-15.4-10.1c-9-1-16.1,2-21.1,9c-3.8,5.3-4.8,11.1-4.8,11.1c-0.1,0.5-0.6,0.9-1.2,0.8
				c-0.5-0.1-0.9-0.6-0.8-1.2c0-0.2,4.7-24.5,28.1-21.8c7.6,0.9,13.4,4.7,17,11.2c6.1,11.2,4.3,27.6-0.8,38
				c-7.3,15.1-11.2,24.3-11.2,24.4C153.8,137.3,153.4,137.5,153,137.5z"/>
		</g>
		<g>
			<path class="st8" d="M129,122.9c-0.3,0-0.6-0.2-0.8-0.4c-5.8-8.7-7.2-18.9-7.3-19.4c-0.1-0.5,0.3-1,0.9-1.1
				c0.6-0.1,1,0.3,1.1,0.9c0,0.1,1.4,10.2,7,18.5c0.3,0.5,0.2,1.1-0.3,1.4C129.4,122.8,129.2,122.9,129,122.9z"/>
		</g>
		<g>
			<path class="st8" d="M169.6,130.1c-0.6,0-1.6-0.8-10.2-8.4c-0.4-0.4-0.5-1-0.1-1.4c0.4-0.4,1-0.5,1.4-0.1c3.2,2.8,8.5,7.4,9.3,8
				c0.5,0.2,0.7,0.8,0.5,1.3c-0.1,0.3-0.4,0.5-0.7,0.6C169.8,130.1,169.7,130.1,169.6,130.1z"/>
		</g>
		<g>
			<path class="st8" d="M168.8,100.4c-0.1,0.2-3.4,14.8-0.7,27.5l-8-6.9C163.2,114.4,168.8,100.4,168.8,100.4z"/>
		</g>
		<g>
			<path class="st8" d="M111.4,112.9c-0.4,0-0.8-0.2-0.9-0.6c-0.2-0.5,0-1.1,0.6-1.3c0.1,0,1.7-0.7,3.7-1.3c3.1-0.9,3.6-3.1,3.6-3.1
				c0.1-0.5,0.6-0.9,1.2-0.8c0.5,0.1,0.9,0.6,0.8,1.2c0,0.1-0.6,3.4-5,4.7c-1.9,0.6-3.5,1.2-3.5,1.2
				C111.7,112.9,111.5,112.9,111.4,112.9z"/>
		</g>
		<g>
			<path class="st8" d="M64,154.6l-1.8-0.8c0,0,3-7.3,5-12l0.1-0.2c2.1-5,6-14.3,14.2-22.6c4.2-4.3,8.8-6.6,14.5-7.1
				c4.5-0.4,6.4-0.4,6.5-0.4c0.6,0,1,0.5,1,1c0,0.6-0.4,1-1,1c0,0,0,0,0,0l0,0c0,0-1.9,0-6.3,0.4c-5.2,0.5-9.4,2.6-13.3,6.5
				c-7.9,8-11.7,17.1-13.7,22l-0.1,0.2C67,147.3,64,154.6,64,154.6z"/>
		</g>
		<g>
			<path class="st8" d="M90.5,168.4c-0.2,0-0.4-0.1-0.6-0.2c-0.5-0.3-0.6-0.9-0.3-1.4c0-0.1,4.6-6.8,7.3-19.5
				c2.3-10.7,2-17.2,2-17.3c0-0.6,0.4-1,1-1c0.5,0,1,0.4,1,1c0,0.3,0.2,6.8-2.1,17.7c-2.8,13.2-7.4,20-7.6,20.2
				C91.1,168.2,90.8,168.4,90.5,168.4z"/>
		</g>
		<g>
			<path class="st8" d="M102.7,170.1c-0.1,0-0.2,0-0.3-0.1c-0.5-0.2-0.8-0.8-0.6-1.3c0-0.1,2.6-7.4,2.2-18.8c0-0.6,0.4-1,1-1
				c0.5,0,1,0.4,1,1c0.5,11.8-2.2,19.2-2.3,19.6C103.5,169.8,103.1,170.1,102.7,170.1z"/>
		</g>
		<g>
			<path class="st8" d="M121.9,168.4c-0.1,0-0.2,0-0.2,0c-7.8-1.9-9-9.7-9-10c-0.1-0.5,0.3-1.1,0.8-1.1c0.5-0.1,1.1,0.3,1.1,0.8l0,0
				c0,0.3,1.1,6.8,7.5,8.4c0.5,0.1,0.9,0.7,0.7,1.2C122.8,168.1,122.4,168.4,121.9,168.4z"/>
		</g>
		<g>
			<path class="st8" d="M143,152c-2.6,0-4.7-3.5-7.9-10.5c-0.2-0.5,0-1.1,0.5-1.3c0.5-0.2,1.1,0,1.3,0.5c1.3,2.8,4.3,9.3,6.1,9.3
				c1,0,3.8-3.7,6-7.9c0.3-0.5,0.9-0.7,1.3-0.4c0.5,0.3,0.7,0.9,0.4,1.3C149.7,145.2,145.9,152,143,152z"/>
		</g>
		<g>
			<path class="st8" d="M163.6,140.5c-0.4,0-0.7-0.2-0.9-0.5l-2.7-5.3c-0.2-0.5-0.1-1.1,0.4-1.3c0.5-0.3,1.1-0.1,1.3,0.4l2.7,5.3
				c0.2,0.5,0.1,1.1-0.4,1.3C163.9,140.4,163.7,140.5,163.6,140.5z"/>
		</g>
		<g>
			<path class="st8" d="M120.7,77.3c-0.2,0-0.4-0.1-0.6-0.2c-0.5-0.3-0.6-0.9-0.2-1.4c0.1-0.1,10.1-14,27.5-12.4
				c0.5,0,1,0.5,0.9,1.1c0,0.5-0.5,1-1.1,0.9c-16.2-1.4-25.6,11.5-25.7,11.6C121.3,77.1,121,77.3,120.7,77.3z"/>
		</g>
		<g>
			<path class="st8" d="M108.6,108.1c0,0-0.1,0-0.1,0c-0.5-0.1-0.9-0.6-0.8-1.1c0-0.2,0.8-5.1,2.4-9.7c1.4-3.9,4-8.6,4.1-8.8
				c0.3-0.5,0.9-0.7,1.4-0.4c0.5,0.3,0.7,0.9,0.4,1.4c0,0-2.6,4.8-3.9,8.5c-1.6,4.5-2.3,9.3-2.4,9.4
				C109.5,107.8,109.1,108.1,108.6,108.1z"/>
		</g>
		<g>
			<g>
				<path class="st3" d="M87.9,110.9c-0.1,0-0.3,0-0.4,0c-0.2-0.1-0.3-0.4-0.2-0.7l3.6-6.5c0.1-0.2,0.4-0.3,0.7-0.2
					c0.2,0.1,0.3,0.4,0.2,0.7l-3.6,6.5C88.1,110.8,88,110.8,87.9,110.9z"/>
			</g>
		</g>
		<g>
			<g>
				<path class="st3" d="M114.4,97.8C114.4,97.8,114.4,97.8,114.4,97.8l-5.9-0.1c-0.3,0-0.5-0.2-0.5-0.5s0.2-0.5,0.5-0.5
					c0,0,0,0,0,0l5.9,0.1c0.3,0,0.5,0.2,0.5,0.5S114.6,97.8,114.4,97.8z"/>
			</g>
		</g>
		<g>
			<path class="st12" d="M81.5,125.7c4.1-4.2,6.5-7.3,10.8-8.4c4.3-1.1,9.4-0.7,9.4-0.7l5.8,9.1c0,0-4.2-2.1-9-0.7
				s-5.9,2.1-10.1,2.4C84.3,127.6,81.5,125.7,81.5,125.7z"/>
		</g>
		<path class="st21" d="M147.1,95.4c0.8,0,1.6,2.1,1.8,4.1c0.1,1.2,0.3,3,0.5,4.1c0.1,0.8-0.5,1.6-1.3,1.7c-0.4,0.1-1,0.1-1.6-0.1
			c-2-0.4-3-0.7-3.8-0.4c-1.4,0.4-1.8-2.3,0-2.7c2.4-0.5,1.8-4.7,2.4-5.9C145.6,95.2,146.4,95.4,147.1,95.4z"/>
		<path class="st3" d="M136.7,94.4c-4-1.7-3.7-4.3-3.7-4.3s2.3-0.6,5.3,1.1s4,3.8,4,3.8S139.4,95.6,136.7,94.4z"/>
		<path class="st3" d="M157,97.9c-2.9,0.4-5.6-1-5.6-1s1.5-1.8,4.9-2.5s5.4,0.4,5.4,0.4S161.3,97.4,157,97.9z"/>
		<path class="st21" d="M140.3,114.6c1.5-0.9,1.9-0.4,3.3,0s1.4,2.2,1.3,3.4s-1.8,0.9-3.9,0S139,115.4,140.3,114.6z"/>
		<path class="st21" d="M134.5,86.5c0,0,6.2,0.7,8.6,1.5s3.4-0.8,3.6-2.5c0.2-1.7,0.4-4.2,0.4-5.7s-2-2.4-4.5-0.7
			S137,82.9,134.5,86.5z"/>
	</g>
</g>
</svg>
