<?xml version="1.0" encoding="utf-8"?>
<!-- Generator: Adobe Illustrator 21.1.0, SVG Export Plug-In . SVG Version: 6.00 Build 0)  -->
<svg version="1.1" xmlns="http://www.w3.org/2000/svg" xmlns:xlink="http://www.w3.org/1999/xlink" x="0px" y="0px"
	 viewBox="0 0 200 200" style="enable-background:new 0 0 200 200;" xml:space="preserve">
<style type="text/css">
	.st0{fill:none;stroke:#B3C0C7;stroke-miterlimit:10;}
	.st1{fill:#778085;}
	.st2{fill:#FD7E23;}
	.st3{fill:#30E6B6;}
	.st4{fill:#29C49B;}
	.st5{fill:#FDD353;}
	.st6{fill:#FDE4D2;}
	.st7{fill:#F2C2A0;}
	.st8{fill:#4D5052;}
	.st9{fill:#FD6A5D;}
	.st10{fill:#D1584D;}
	.st11{fill:#B8FFEC;}
	.st12{fill:#FFFFFF;}
	.st13{fill:#C9C9C9;}
	.st14{fill:#1DAAF1;}
	.st15{fill:#1682B8;}
	.st16{fill:#5EC9FF;}
	.st17{fill:#DB5F07;}
	.st18{fill:#C4F2EB;}
	.st19{fill:#B4DED7;}
	.st20{fill:#ABABAB;}
	.st21{fill:#757575;}
	.st22{fill:#878787;}
	.st23{fill:#C9EDFF;}
	.st24{fill:#93C2D9;}
	.st25{fill:#FDA29A;}
	.st26{fill:#9C9C9C;}
	.st27{fill:url(#SVGID_1_);}
	.st28{fill:url(#SVGID_2_);}
	.st29{fill:url(#SVGID_3_);}
	.st30{fill:url(#SVGID_4_);}
	.st31{fill:#A5F2DE;}
</style>
<g id="marks">
</g>
<g id="icons">
	<g>
		<g>
			<path class="st3" d="M100.4,36.4c38.5,0.2,69.6,31.5,69.6,70c0,38.7-31.3,70-70,70s-70-31.3-70-70c0-35,25.6-63.9,59.1-69.2"/>
		</g>
		<g>
			<path class="st4" d="M145.4,86.3c-3.7-0.8-4.7,6.9-5.5,9.7s-1.7,5.5-3.9,10.2c-2.1,4.8-4.7,5.6-5.3,5.6l-0.4-0.3
				c0.2-1.5,0.3-3,0.4-4.4c0.1-4.9-0.9-6.1-4.1-6.7c-3.1-0.5-4.2,0.5-5,2.7c-0.3,0.9-0.6,2.9-0.7,5.2l-1.1,0.2
				c0.5-4.4,0.7-7.9,0.2-9.4c-0.8-2.5-1.8-2.9-5.5-2.8c-1.7,0.1-3.7,0.5-4.5,6.1c-0.1,0.7-0.2,1.5-0.3,2.3c0,0,0,0,0,0
				c0.4-5.7-1.2-7.5-4.1-7.9c-1.3-0.2-2.9,0.2-4,0.3c-4,0.4-7.1,6.5-7.4,9.2c-0.4,2.9,0.8,4.9-1.6,12.9c-0.9,3.1-2.9,4.8-3.5,2.8
				l0,0c-1.6-4.3-4.8-7.8-4.8-7.8s-2.7-9.8-9.8-13.6c-4.1-2.1-6.8-1.8-8.5-0.9c-1.3,0.7-1.6,2.5-0.5,3.5c1.7,1.6,4.4,4.4,6.4,7.8
				c3.2,5.5,4.4,9.8,4.5,12.8c0.1,2.9-0.1,4.7,2.4,6.1c2.5,1.5,4.8,8.8,5.9,15c1.1,6.3,3.3,8.9,6.5,10.4c3.2,1.5,4.7,4.4,2.4,9.6
				c-1,2.4-3.2,6.9-4.8,10.5c3.6,0.6,7.3,0.9,11.1,0.9c7.3,0,14.4-1.1,21-3.2c1.3-5.8,2.5-12,4.6-14.1c3.2-3.3,5.7-7.9,7.2-13.2
				c1.9-6.5,1.5-12,4-16.2c2.5-4.3,1.7-9.8,3.1-12.2c1.3-2.4,4-9.3,5.6-15.8C147,95.1,149.1,87.1,145.4,86.3z"/>
		</g>
		<g>
			<path class="st2" d="M123.7,87.4c0.9-6,8.2-11.1,7.6-23.1c-0.7-14.2-11.2-19.4-11.2-19.4s2.4,4.5,1,11c-1.2,5.7-5.6,10-5.6,10
				s2.9-8.4-3-16.7c-4.1-5.7-10.3-7.1-12.5-13.5c-2.2-6.4,4-12.1,4-12.1s-7.9,0.6-12.4,7.8c-5.7,9.2-2,18.2,0,23.9S92.7,64.9,90,66
				c-2.7,1.1-6.3-0.9-5.8-5.4c0.7-7.2-4.3-9.1-4.3-9.1c1.9,3.2,1.7,6.9-1.5,10.5c-2.5,2.8-7.1,10-5.1,21.1
				c2.1,11.1,10.2,14.5,10.2,14.5s5.3,3.4,12.5,5.2c9.3,2.4,21.3,3.5,25.4,3.2c5.5-0.4,5.5-5.1,6.8-9l-2.3-2.6
				C125.9,94.4,122.9,92.4,123.7,87.4z"/>
		</g>
		<g>
			<path class="st5" d="M103,52.6c0,0,5.9,3.9,5.4,10.5c-0.5,6.6-0.6,9.5,3.1,10.9c4.6,1.7,11.3-4,11.3-4s-3.2,4.2-3.1,9.3
				c0,3.1,0.4,7.9-1.5,11.6c-1.4,2.6-5.7,6.2-5.7,6.2s-0.1-2.3-1.4-3.8s-2.3-1.8-4.5-1.8c-4.6,0-5,3.9-5,3.9s-0.2-1.1-1.6-2.4
				c-1.3-1.2-4.2-1.6-6.8-0.6c-0.7,0.2-4.1,3-4.1,3s-3.7-3.1-5.1-6.6c-2.5-6.1-0.3-12.8-0.3-12.8s2.1,4.6,6.2,4.4
				c3.3-0.2,5.4-2.2,5.8-5.9c0.7-5.8,2.3-7.9,4.8-10.1C106.2,59.2,103,52.6,103,52.6z"/>
		</g>
		<g>
			<path class="st6" d="M135.9,81.6c-3.6-0.8-4.5,6.7-5.3,9.4s-1.7,5.3-3.7,9.9c-2.1,4.6-4.5,5.4-5.1,5.4l-0.4-0.3
				c0.2-1.4,0.3-2.9,0.4-4.2c0.1-4.8-0.9-5.9-3.9-6.4c-3-0.5-4,0.5-4.8,2.6c-0.3,0.9-0.6,2.8-0.7,5.1l-1,0.1
				c0.4-4.2,0.7-7.6,0.2-9.1c-0.8-2.4-1.7-2.8-5.3-2.7c-1.7,0.1-3.6,0.5-4.3,5.9c-0.1,0.7-0.2,1.4-0.3,2.2c0,0,0,0,0,0
				c0.4-5.5-1.2-7.3-3.9-7.6c-1.3-0.2-2.8,0.2-3.9,0.3c-3.8,0.3-6.8,6.3-7.2,8.9c-0.4,2.8,0.8,4.8-1.5,12.5c-0.9,3-2.8,4.6-3.4,2.7
				l0,0c-1.6-4.2-4.6-7.5-4.6-7.5s-2.6-9.5-9.5-13.1c-4-2.1-6.6-1.7-8.3-0.9c-1.3,0.7-1.5,2.4-0.5,3.4c1.7,1.6,4.2,4.2,6.2,7.5
				c3.1,5.3,4.2,9.5,4.4,12.3s-0.1,4.5,2.3,5.9c2.4,1.4,4.6,8.5,5.7,14.5c1,6,3.2,8.6,6.3,10c3.1,1.4,4.5,4.2,2.3,9.3
				c-1.8,4.1-6.8,14.8-6.8,14.8s6.1,3.6,15.2,3.7s15.2-1,15.2-1c0.1-0.4,1.7-4.4,2.6-8.8c1.3-5.8,2.5-12.3,4.6-14.5
				c3.1-3.1,5.5-7.6,6.9-12.7c1.8-6.3,1.4-11.6,3.9-15.7c2.4-4.1,1.7-9.5,3-11.8c1.3-2.3,3.9-9,5.4-15.3
				C137.4,90.1,139.5,82.4,135.9,81.6z"/>
		</g>
		<g>
			<g>
				<path class="st7" d="M98,151.4c1.2-5.8,3.6-13.4,7-17.2c1.9-2.1,6-5.5,9.3-5.8s5.7-1,7.4-2.7c1.8-1.7-2.6-0.6-7.4-1
					c-4.9-0.4-12-1.4-12.8-1.5s-6.7-0.9-7.2-0.9c-0.3,0-0.4,0.7-0.4,1.9c-2.1-2.8-4.6-4.3-6.5-4.6c-3.4-0.5-5.7-1.9-5.7-1.9
					s-1.7-5.4-3.4-7.5c-1.7-2.1-1.7-2.1-1.7-2.1s-0.6-2.7-2.5-6c-1.9-3.3-5.6-5.9-5.6-5.9c3.2,2.7,4.2,6.6,4.4,9.9
					c0.2,3.4-0.9,7.1-0.9,7.1s1.1-1.3,2.2-1s3,5.2,3.1,7.7s-0.8,4-0.8,4s2.9-1,5.2-0.7c3.9,0.6,6.7,2.2,9.1,6.4
					c2.5,4.2,6,10.9,6.8,15.6C98.4,149.4,98,151.4,98,151.4z"/>
			</g>
			<g>
				<path class="st7" d="M129.1,105.3c-2.5,1.4-4.9,0-4.9,0l-2.9,1.6l-1.7,9.8c0,0,2.4-0.1,4.1,2c1.7,2.1,1.4,6.8-0.9,10.3
					c-1.7,2.5-2.9,5.1-4.7,8.2c0,0,0,0,0,0.1c0,0-0.1,0.1-0.1,0.1c-0.7,1.2-1.5,2.5-2.4,3.8c-0.4,0.6-0.9,1.2-1.4,1.7
					c-1.3,1.4-2.7,2.5-4.6,3c0,0,0,0-0.1,0c-3.3,0.9-6.1,1.5-6.1,1.5s3.3,3.5,8.3,4.1c3.2,0.3,5.6-1.2,7-2.3c2.3-3.7,5-8.5,5.5-11.8
					c0.7-4.8,3.1-13.3,4.5-16.5c1.4-3.3,0.9-7.7,2.3-10.2c1.1-1.8,3.5-10,4.5-13.2C134.4,100,131.3,104,129.1,105.3z"/>
			</g>
		</g>
		<g>
			<path class="st7" d="M119.2,148.9l-10.4,0.6c0,0-3.1,11.9-3.9,15.3c-1,4.3-2.4,8.5-3.5,11.3c4.9-0.3,8-0.9,8-0.9
				c0.1-0.4,1.7-4.4,2.6-8.8c1.3-5.8,2.5-12.3,4.6-14.5C117.6,151,118.5,150,119.2,148.9z"/>
		</g>
		<g>
			<path class="st7" d="M90.2,115.8c0,0.2,0.1,0.4,0.1,0.6c-0.1,4.7,1.8,7.3,4.6,9c3,1.8,6.5-0.6,6.5-0.6s1.9,2.9,5.4,3.3
				c4.9,0.7,7.4-2.2,7.4-2.2s3.5,2.4,7.4-0.1c3.9-2.5,3.1-8.1,2.6-9.2s-4.2-2.2-4.2-2.2s-1.4,7.8-3.8,7.9c-2.3,0.1-4.5-5.8-4.5-5.8
				l-2.2-0.5c0,0-1.5,5.2-3.6,5.5c-2.1,0.3-5.3-5.8-5.3-5.8s-2.4,5-4.5,5c-2.8,0-5.9-4.5-5.9-4.5"/>
		</g>
		<g>
			<path class="st7" d="M90.8,112.9c0.8,2.1,5.1-0.7,7.2-4.7c2.6-4.9,3.5-12.1,3.5-12.1s-0.1,11.2-1.4,16.6s0.2,8-3,8
				c-3.2,0-6.5-0.6-6.3-3C91,115.3,90.8,112.9,90.8,112.9z"/>
		</g>
		<g>
			<path class="st7" d="M100.6,114.3c0,0,5.5,0,7.6-4.6c2.1-4.5,3.2-12.7,3.2-12.7s-1,15.9-2.1,20.4c-1.1,4.4-3.4,5-5.3,5.1
				C102.2,122.6,100.6,117.3,100.6,114.3z"/>
		</g>
		<g>
			<path class="st7" d="M121.3,97.6c-0.2,3.2-2.4,12.2-5,16.1s-4.5,4-4.5,4s0.6,6.2,4.5,4.4c3.9-1.8,3.3-9.3,4.7-13.7
				S121.3,97.6,121.3,97.6z"/>
		</g>
		<g>
			<path class="st7" d="M135.5,97.4c0.2-0.4,0.3-0.7,0.4-1C136.1,95.8,135.9,96.3,135.5,97.4z"/>
		</g>
		<g>
			<path class="st8" d="M100,177.4c-39.1,0-71-31.9-71-71c0-17,6.1-33.5,17.2-46.4c11-12.7,26.2-21.2,42.7-23.8
				c0.5-0.1,1.1,0.3,1.1,0.8c0.1,0.5-0.3,1.1-0.8,1.1C73.2,40.8,58.5,49,47.8,61.4C37,73.9,31,89.9,31,106.4c0,38,31,69,69,69
				s69-31,69-69c0-37.8-30.8-68.8-68.6-69c-0.6,0-1-0.5-1-1c0-0.6,0.5-1,1-1c0,0,0,0,0,0c38.9,0.2,70.5,32.1,70.5,71
				C171,145.6,139.1,177.4,100,177.4z"/>
		</g>
		<g>
			<path class="st8" d="M79.1,173.5c-0.1,0-0.3,0-0.4-0.1c-0.5-0.2-0.7-0.8-0.5-1.3c0.1-0.1,5-10.7,6.8-14.7c1.7-4,1.1-6.6-1.8-7.9
				c-3.8-1.8-5.9-5-6.9-10.8c-1.2-6.8-3.4-12.8-5.2-13.8c-2.6-1.5-2.7-3.5-2.8-5.8c0-0.3,0-0.6,0-0.9c-0.1-1.9-0.7-5.9-4.2-11.9
				c-1.8-3.1-4.3-5.7-6-7.3c-0.7-0.7-1.1-1.7-0.9-2.7c0.1-1,0.8-1.9,1.7-2.3c1.7-0.9,4.7-1.4,9.2,0.9c6.7,3.5,9.5,12,9.9,13.5
				c0.7,0.9,3.8,4.6,5.1,8.9c1.2,0.2,3.9,0.8,6.7,2.7c2.1,1.4,8.9,6.8,8.9,16.3c0,0.6-0.4,1-1,1s-1-0.4-1-1c0-8.5-6.2-13.4-8-14.6
				c-3.3-2.3-6.4-2.4-6.4-2.4c-0.4,0-0.8-0.3-0.9-0.8c-1.1-4.7-4.9-8.9-4.9-8.9c-0.1-0.1-0.2-0.3-0.2-0.4c0-0.1-2.5-9.1-9-12.5
				c-2.9-1.5-5.5-1.8-7.3-0.9c-0.3,0.2-0.5,0.5-0.6,0.8c-0.1,0.4,0.1,0.7,0.3,1c1.8,1.7,4.4,4.4,6.3,7.8c3.7,6.3,4.4,10.7,4.5,12.8
				c0,0.3,0,0.6,0,0.9c0.1,2.2,0.1,3.2,1.8,4.2c3.8,2.2,5.9,13.9,6.1,15.2c1.1,6.3,3.4,8.2,5.7,9.3c2.3,1.1,5.7,3.8,2.8,10.6
				c-1.8,4.1-6.8,14.7-6.8,14.8C79.8,173.3,79.5,173.5,79.1,173.5z"/>
		</g>
		<g>
			<path class="st8" d="M95.3,122c-1,0-1.9-0.3-2.6-0.8c-1.8-1.3-2.8-4-2.9-8.3c-0.2-5.9-0.1-13.7-0.1-13.8c0-0.6,0.4-1,1-1
				c0.6,0,1,0.5,1,1c0,0.1,0,7.8,0.1,13.7c0.1,3.5,0.8,5.9,2.1,6.8c0.7,0.5,1.7,0.6,2.9,0.2c0.8-0.3,2.7-4.9,3.7-20.3
				c0.4-5.7-1.4-6.4-3.1-6.6c-0.8-0.1-1.8,0-2.6,0.2c-0.4,0.1-0.7,0.1-1,0.1c-3.2,0.3-5.9,5.7-6.3,8c-0.1,0.8-0.1,1.5-0.1,2.4
				c0.1,2,0.1,4.7-1.5,10.2c-0.6,2.1-2,4.2-3.5,4.2c0,0,0,0,0,0c-0.4,0-1.3-0.1-1.7-1.5c-0.2-0.5,0.1-1.1,0.7-1.2
				c0.5-0.2,1.1,0.1,1.2,0.6c0.4-0.3,1-1.1,1.5-2.7c1.6-5.2,1.5-7.6,1.4-9.6c0-0.9-0.1-1.8,0.1-2.7c0.4-2.5,3.4-9.3,8.1-9.7
				c0.3,0,0.6-0.1,0.9-0.1c0.9-0.1,2.1-0.3,3.1-0.2c4.8,0.6,5.1,5.2,4.8,8.7c-1.4,20.9-4.1,21.8-5.1,22.1
				C96.7,121.9,96,122,95.3,122z"/>
		</g>
		<g>
			<path class="st8" d="M109.5,176.2c-0.1,0-0.2,0-0.3-0.1c-0.5-0.2-0.8-0.7-0.6-1.3l0.1-0.3c1.1-3,1.9-5.8,2.5-8.3
				c0.2-0.7,0.3-1.4,0.5-2.1c1.2-5.6,2.3-10.8,4.4-12.9c2.9-3,5.2-7.2,6.7-12.3c0.7-2.5,1.1-4.8,1.4-7c0.5-3.2,1-6.3,2.5-8.9
				c1.3-2.2,1.6-4.9,1.9-7.2c0.2-1.8,0.4-3.4,1-4.6c1.2-2.1,3.7-8.7,5.3-15l0.2-0.8c1.1-4.6,2.5-10.3,1.3-12.3
				c-0.2-0.3-0.4-0.5-0.8-0.5c-2-0.4-3.1,4.3-3.7,6.9c-0.2,0.7-0.3,1.3-0.4,1.8c-0.8,2.7-1.7,5.3-3.8,10c-2.1,4.7-4.8,6-6.1,6
				c-0.6,0-1-0.4-1-1c0-0.6,0.4-1,1-1c0.1,0,2.2-0.3,4.2-4.8c2.1-4.7,2.9-7.2,3.7-9.8c0.1-0.4,0.3-1,0.4-1.7c0.8-3.5,2.1-9.2,6-8.4
				c0.9,0.2,1.6,0.7,2,1.4c1.7,2.7,0.3,8.3-1.1,13.8l-0.2,0.8c-1.6,6.6-4.2,13.3-5.5,15.5c-0.4,0.8-0.6,2.3-0.8,3.8
				c-0.3,2.4-0.6,5.4-2.2,8c-1.4,2.3-1.8,5-2.3,8.2c-0.3,2.2-0.7,4.6-1.5,7.2c-1.6,5.4-4,9.9-7.2,13.1c-1.7,1.7-2.9,7.2-3.9,12
				c-0.2,0.7-0.3,1.4-0.5,2.1c-0.6,2.6-1.4,5.5-2.6,8.6l-0.1,0.3C110.3,175.9,109.9,176.2,109.5,176.2z"/>
		</g>
		<g>
			<path class="st8" d="M115,123.3c-0.4,0-0.8,0-1.2-0.1c-3.8-0.7-3.4-5.9-3-11c0.1-1.5,0.2-3.2,0.3-4.8c0.2-4.2,0.5-8.2,1-9.8
				c0.8-2.1,2-3.9,5.9-3.2c3.7,0.6,4.9,2.4,4.8,7.4c-0.1,3.9-0.9,8.3-1.6,11.8c-0.2,0.9-0.3,1.7-0.4,2.4
				C120.2,118.6,119.4,123.3,115,123.3z M116.4,96.2c-1.5,0-2,0.7-2.5,2.1c-0.5,1.3-0.7,5.5-0.9,9.2c-0.1,1.7-0.2,3.3-0.3,4.8
				c-0.3,4.3-0.7,8.6,1.4,9l0,0c3,0.5,3.9-1.5,4.6-5.6c0.1-0.7,0.3-1.5,0.5-2.4c0.7-3.4,1.5-7.7,1.6-11.5c0.1-4.7-0.9-5-3.1-5.4
				C117.2,96.3,116.8,96.2,116.4,96.2z"/>
		</g>
		<g>
			<path class="st8" d="M104.5,123.3c-2.5,0-4.6-0.8-4.8-7.1c-0.3-8,0.8-16.6,1.2-19.1c0.8-5.8,3-6.7,5.3-6.8
				c3.8-0.1,5.3,0.4,6.3,3.4c0.7,2.1,0.2,6.9-0.7,14.6c-0.2,1.4-0.3,2.9-0.5,4.4c-0.8,7.4-2.5,10.4-5.9,10.5l-0.4,0
				C104.8,123.3,104.7,123.3,104.5,123.3z M107.2,92.4c-0.3,0-0.6,0-1,0c0,0,0,0,0,0c-1.1,0-2.7,0.1-3.4,5.1
				c-0.3,2.4-1.4,10.9-1.1,18.7c0.2,5.3,1.5,5.2,3.2,5.2l0.4,0c1,0,3,0,3.9-8.7c0.2-1.5,0.3-3,0.5-4.4c0.7-6.2,1.4-12,0.8-13.8
				C110,92.9,109.8,92.4,107.2,92.4z M106.2,91.4L106.2,91.4L106.2,91.4z"/>
		</g>
		<g>
			<path class="st8" d="M108.7,151.5c-0.5,0-0.7,0-0.8,0c-0.6,0-1-0.5-0.9-1.1s0.5-1,1.1-0.9c0.1,0,4,0.3,7.7-1.9
				c0.5-0.3,1.1-0.1,1.4,0.3c0.3,0.5,0.1,1.1-0.3,1.4C113.5,151.2,110.2,151.5,108.7,151.5z"/>
		</g>
		<g>
			<path class="st8" d="M108.3,131.9c-0.1,0-0.3-0.1-0.4-0.2c-0.2-0.2-0.2-0.5,0-0.7c3.2-2.8,8.2-4.1,12.4-3.1
				c0.3,0.1,0.4,0.3,0.4,0.6c-0.1,0.3-0.3,0.4-0.6,0.4c-3.8-0.9-8.6,0.3-11.5,2.9C108.5,131.8,108.4,131.9,108.3,131.9z"/>
		</g>
		<g>
			<path class="st8" d="M128.4,113.7c-1.3,0-2.6-0.4-2.9-0.5c-0.5-0.2-0.8-0.8-0.6-1.3c0.2-0.5,0.8-0.8,1.3-0.6
				c1.2,0.4,3.1,0.7,3.4,0c0.2-0.5,0.8-0.7,1.3-0.5c0.5,0.2,0.7,0.8,0.5,1.3C130.8,113.3,129.6,113.7,128.4,113.7z"/>
		</g>
		<g>
			<path class="st8" d="M94.3,118.2C94.3,118.2,94.3,118.2,94.3,118.2c-0.3,0-0.5-0.3-0.5-0.5c0-0.2,0.3-5,3.1-5
				c0.8,0,1.3,0.2,1.8,0.7c0.9,1,0.8,2.6,0.8,2.7c0,0.3-0.2,0.5-0.5,0.5c-0.3,0-0.5-0.3-0.5-0.5c0-0.3,0-1.4-0.5-1.9
				c-0.2-0.3-0.6-0.4-1-0.4c-1.8,0-2.1,4.1-2.1,4.1C94.8,118,94.5,118.2,94.3,118.2z"/>
		</g>
		<g>
			<path class="st8" d="M108.3,121C108.3,121,108.2,121,108.3,121c-0.3,0-0.5-0.3-0.5-0.6c0.2-1,0.3-4-0.6-5.1
				c-0.3-0.3-0.6-0.5-1-0.5c-0.5,0-0.9,0.1-1.2,0.5c-1,1-1.1,3.2-1.1,4c0,0.3-0.2,0.5-0.5,0.5c-0.3,0-0.5-0.2-0.5-0.5
				c0-0.1-0.1-3.3,1.4-4.8c0.5-0.5,1.2-0.8,1.9-0.7c0.7,0,1.3,0.3,1.7,0.9c1.4,1.8,0.9,5.7,0.9,5.9C108.7,120.8,108.5,121,108.3,121
				z"/>
		</g>
		<g>
			<path class="st8" d="M116.8,119.1C116.7,119.1,116.7,119.1,116.8,119.1c-0.3,0-0.5-0.3-0.5-0.6c0.1-0.8,0.1-1.8-0.5-2.2
				c-0.5-0.3-1.1-0.1-1.2,0c-0.2,0.2-0.5,0.1-0.7-0.1c-0.2-0.2-0.1-0.5,0.1-0.7c0.3-0.2,1.4-0.5,2.2,0c0.6,0.4,1.2,1.2,1,3.1
				C117.2,118.9,117,119.1,116.8,119.1z"/>
		</g>
		<g>
			<path class="st8" d="M83.5,98.6c-0.1,0-0.3,0-0.4-0.1c-0.4-0.1-8.6-3.8-10.7-15.2c-2.2-11.8,3-19.3,5.3-21.9
				c2.8-3.2,3.2-6.3,1.4-9.4c-0.2-0.4-0.2-0.8,0.1-1.2c0.3-0.3,0.7-0.4,1.1-0.3c0.2,0.1,5.7,2.3,4.9,10.1c-0.2,1.8,0.4,3.2,1.5,4
				c0.9,0.6,2,0.8,3,0.4c2.3-0.9,2.7-4.9,1-9.6l-0.3-0.9c-2.1-5.8-5.2-14.7,0.4-23.8c4.7-7.5,12.8-8.2,13.2-8.2c0.4,0,0.8,0.2,1,0.6
				c0.2,0.4,0.1,0.8-0.2,1.1c-0.1,0.1-5.7,5.3-3.7,11c1.2,3.4,3.5,5.3,6.3,7.4c2.1,1.6,4.2,3.3,6.1,5.8c3.7,5.1,4.1,10.2,3.9,13.6
				c1.2-1.7,2.4-4,2.9-6.6c1.3-6-0.9-10.3-0.9-10.3c-0.2-0.4-0.1-0.9,0.2-1.2c0.3-0.3,0.8-0.4,1.2-0.2c0.5,0.2,11,5.6,11.8,20.3
				c0.4,7.9-2.5,13-4.9,17c-1.3,2.3-2.5,4.3-2.8,6.3c-0.7,4.3,1.7,6,1.8,6.1c0.4,0.3,0.5,0.9,0.2,1.4c-0.3,0.4-0.9,0.6-1.4,0.2
				c-0.1-0.1-3.5-2.5-2.6-8c0.4-2.4,1.7-4.6,3-7c2.3-4,5-8.6,4.6-15.9c-0.5-9.4-5.3-14.7-8.3-17c0.5,2.1,0.9,5.1,0.1,8.7
				c-1.2,6-5.7,10.4-5.9,10.5c-0.3,0.3-0.8,0.4-1.2,0.1c-0.4-0.2-0.6-0.7-0.4-1.2c0-0.1,2.7-8.1-2.9-15.8c-1.7-2.3-3.7-3.9-5.7-5.4
				c-2.9-2.2-5.6-4.3-6.9-8.3c-1.5-4.4,0.5-8.4,2.2-10.8c-2.6,0.8-6.3,2.6-8.9,6.7c-5.1,8.3-2.2,16.6-0.2,22l0.3,1
				c2.1,5.9,1.2,10.7-2.2,12.1c-1.6,0.7-3.5,0.4-4.9-0.6c-1.7-1.2-2.5-3.4-2.3-5.8c0.3-2.7-0.3-4.5-1.1-5.8c0.3,2.7-0.7,5.4-2.9,7.9
				c-2.1,2.4-6.9,9.3-4.8,20.2c1.9,10.4,9.5,13.7,9.6,13.8c0.5,0.2,0.7,0.8,0.5,1.3C84.2,98.3,83.9,98.6,83.5,98.6z"/>
		</g>
		<path class="st2" d="M134.2,56.3c1.8,2.8,2.4,5.5,2.3,8.5c-0.1,3.4-1.7,7.1-1.7,7.1s5.4-2.7,5.4-8.6
			C140.2,57.2,134.2,56.3,134.2,56.3z"/>
		<path class="st2" d="M70.2,71.2c-3.8,3.2-5.8,6.4-4.5,11.4c1.1,4.2,5.3,4.8,5.3,4.8s-2-3.6-2.1-7.9C68.9,75.6,70.2,71.2,70.2,71.2
			z"/>
		<path class="st2" d="M76.6,45.5c2-0.1,3.5,0.3,5.8,2.1c2.2,1.7,3.2,4.6,3.2,4.6s1.2-4.7-1.1-7.2C81.2,41.4,76.6,45.5,76.6,45.5z"
			/>
	</g>
</g>
</svg>
