<?xml version="1.0" encoding="utf-8"?>
<!-- Generator: Adobe Illustrator 21.1.0, SVG Export Plug-In . SVG Version: 6.00 Build 0)  -->
<svg version="1.1" xmlns="http://www.w3.org/2000/svg" xmlns:xlink="http://www.w3.org/1999/xlink" x="0px" y="0px"
	 viewBox="0 0 200 200" style="enable-background:new 0 0 200 200;" xml:space="preserve">
<style type="text/css">
	.st0{fill:none;stroke:#B3C0C7;stroke-miterlimit:10;}
	.st1{fill:#778085;}
	.st2{fill:#FD7E23;}
	.st3{fill:#30E6B6;}
	.st4{fill:#29C49B;}
	.st5{fill:#FDD353;}
	.st6{fill:#FDE4D2;}
	.st7{fill:#F2C2A0;}
	.st8{fill:#4D5052;}
	.st9{fill:#FD6A5D;}
	.st10{fill:#D1584D;}
	.st11{fill:#B8FFEC;}
	.st12{fill:#FFFFFF;}
	.st13{fill:#C9C9C9;}
	.st14{fill:#1DAAF1;}
	.st15{fill:#1682B8;}
	.st16{fill:#5EC9FF;}
	.st17{fill:#DB5F07;}
	.st18{fill:#C4F2EB;}
	.st19{fill:#B4DED7;}
	.st20{fill:#ABABAB;}
	.st21{fill:#757575;}
	.st22{fill:#878787;}
	.st23{fill:#C9EDFF;}
	.st24{fill:#93C2D9;}
	.st25{fill:#FDA29A;}
	.st26{fill:#9C9C9C;}
	.st27{fill:url(#SVGID_1_);}
	.st28{fill:url(#SVGID_2_);}
	.st29{fill:url(#SVGID_3_);}
	.st30{fill:url(#SVGID_4_);}
	.st31{fill:#A5F2DE;}
</style>
<g id="marks">
</g>
<g id="icons">
	<g>
		<g>
			<path class="st13" d="M124.3,149.3c8-3.8,18.1-6.4,24-6.9c3.8-0.3,5.3,0,5.3,0l-7.4,8.3c0,0-1.5-0.5-6.1-2.1
				C132.7,145.9,124.3,149.3,124.3,149.3z"/>
		</g>
		<g>
			<path class="st13" d="M132.3,73.6c0.9,1.2,1.3,2.5,1.9,4.6c0.5,2.1,0.5,2.1,0.5,2.1s0.9-2.7,4-3.5c2.9-0.7,5.1,2,5.6,3.5
				s0.6,2.5,0.6,2.5s1.5-5.6-1.2-8.2c-2.7-2.6-5.5-3.6-7.3-3.1C134.6,72.1,132.3,73.6,132.3,73.6z"/>
		</g>
		<g>
			<path class="st13" d="M28.1,100.1c2.5,0.1,6.6,0.6,9.4,2.6c2.9,2.1,4.6,5.3,4.6,5.3s4.7-1.7,8.8,0c6,2.5,6.8,8.9,6.8,8.9
				s-2.9-0.1-5.5,1s-6.8,4.1-6.8,4.1s1.7-1.5-0.5-4c-2.2-2.5-3.7-2.6-5.2-2.3c-4.6,0.7-9.2,2.3-9.2,2.3s0.7-1.4,0-2.4
				c-0.8-1-2.3-14.8-2.3-14.8L28.1,100.1z"/>
		</g>
		<g>
			<path class="st13" d="M66,162.1c0,0,2.9-4.3,9.3-6.1s14,3,14,3s2.1-3.5,6.3-4.4s8,0.6,9.9,2s2.5,2.8,2.5,2.8s-3.3-0.5-7.1,0.2
				c-3.9,0.7-6.4,3.4-7.6,5.2c-1.2,1.8-2,5.8-4,5.1c-2.9-1.1-16-4-18.5-5.5C68.3,162.9,66,162.1,66,162.1z"/>
		</g>
		<g>
			<path class="st13" d="M70.4,125.5c0,0.1,4.5-2.1,9.3,0c4.8,2.1,5.6,7.8,5.6,7.8s-1.7-1.2-4.6-1.3c-2.9,0-5.2,0.6-6.5,1.5
				c-1.3,0.9-2.2,1.7-2.2,1.7s0.6-2.8-0.1-5.3C71.3,127.3,70.4,125.5,70.4,125.5z"/>
		</g>
		<g>
			<path class="st13" d="M88.7,137.3c0,0,2.9-1.5,6.4-0.4c4.9,1.5,6.2,6.5,6.2,6.5s-3.8-0.8-6.3,0c-2.5,0.8-5.7,3-5.7,3
				s0.7-3,0.5-5.8S88.7,137.3,88.7,137.3z"/>
		</g>
		<g>
			<path class="st13" d="M95.7,62.7c2.9-0.5,5.7,1.8,6.9,3c2,2,2,5.2,2,5.2s3.1-3.1,4.2-3.5s1.5,0.2,0-1.7s-2.9-3.5-5.4-3.7
				S95.7,62.7,95.7,62.7z"/>
		</g>
		<g>
			<path class="st13" d="M70.4,59.9c2.4-1.8,7.7-1.9,11,2.8c3.3,4.7,0,12,0,12s4.5-1.4,8.5,1.8c4.7,3.7,4.1,10.1,4.1,10.1
				s1.4-8.2-1.1-16.8c-2.6-9-4.5-9.6-7.3-11.2s-6.9-1.5-8.4-1.2C75.6,57.7,70.4,59.9,70.4,59.9z"/>
		</g>
		<g>
			<path class="st13" d="M133.6,94c0,0,0.2-4.9,5.1-6.8s9.2,1.6,9.2,1.6s-2.4-4.6,1.4-8.6S160,79,160,79s-0.1-1.9,0.8-3.1
				c0.9-1.2,1.5-1.2,1.5-1.2s2.8,8.3,3.4,11.7c0.6,3.4,3,4.8-1.8,5.7s-10.6,1.5-14.1,1.8c-3.5,0.3-6.9-1-9.2-0.8S133.6,94,133.6,94z
				"/>
		</g>
		<g>
			<path class="st13" d="M145.3,130.7c0,0,1.9-2.3,3.5-3.3c1.6-1,3.3-2.8,7.1-2.3c3.8,0.4,6.6,2.4,7.5,0c0.9-2.4,2.4-7.7,2.4-7.7
				s1.2-0.7-2-0.2c-3.2,0.5-14.4,3.3-14.4,3.3s-3.4-0.2-4.1,1.9c-0.7,2.1-1.1,3.5-1,5.1C144.5,129.1,145.3,130.7,145.3,130.7z"/>
		</g>
		<g>
			<path class="st13" d="M101,129.1c-0.9,4.4,2.7,8.5,7.1,7.8c0,0,0.1,0,0.1,0c3.7-0.6,5-2.7,7.8-5.1c2.8-2.3,5.7-5,7.8-5.2
				c2-0.2,2.5-1.2,2.6-2.9c0.1-1.7-0.6-6.1,0-8.1c0.6-2,2.1-4.4,2.1-4.4s-4.3-1.5-8.7,1.2c-6.2,3.9-4.3,10.4-4.3,10.4
				s-2.1-0.9-5.2-1.1c-3.9-0.3-7.7,2-8.9,6.2C101.2,128.3,101.1,128.7,101,129.1z"/>
		</g>
		<g>
			<path class="st14" d="M110,67.1c0,0-2.1-5.4-9.1-5.4c-7.3,0-9.3,4.7-9.3,4.7s-2.3-9.1-12.5-9.1c-11.2,0-14,9.8-14,9.8
				s-5.6-5.9-13.1-7.8s-11.4,0.5-11.4,0.5s-5.2,5.6,8.6-10.7s46.7-23,69.1-16.4s36.8,28.2,36.8,28.2s-1.7-0.6-6.5,3.8
				S145,76.2,145,76.2s-1.1-3.8-5.8-4.6c-4.6-0.7-7,2-7,2s-2.7-5.3-9.7-7.2C115.5,64.4,110,67.1,110,67.1z"/>
		</g>
		<g>
			<path class="st13" d="M19,73.6c2-5.9,3.7-9.1,4.7-10.1c0.9-1,1.9-2.1,5.1-1.6c3.3,0.5,10.4,1.8,11.7,3.3s2.9,1.2,4.3,2.5
				c1.3,1.4,3,0.5,8.8,1.8c5.9,1.4,14.7,5.8,14.7,5.8s3.2-0.7,5.8,1.8c1.8,1.8,2.3,6.7,2.3,6.7s4.5,0.2,7.8,2.9
				c3.2,2.6,9.2,9,10.4,13.2c1.2,4.2,2,7.3,2,7.3s-1.5,0.6-4.2-1.7c-2.7-2.3-3-5.9-3-5.9l-4.9-7.8L79.7,91c0,0,1.7,2.7,3.4,6.7
				s3.4,7.1,3.4,12.3s-0.9,9.5-1.5,8.7c-0.6-0.8-2.8-5.4-2.1-8.9c0.8-3.5-6.3-11.4-6.3-11.4L70,91l-10.4-3.4c0,0,4.8,7.3,7.4,10.8
				c2.6,3.5,3.9,6.4,3.9,7.9c0,1.5-2.3,6.2-5.7,2.2c-3.4-4.1-6.4-9.9-6.4-9.9s-3.6-0.3-5-2.2c-1.3-1.9-1.3-1.9-1.3-1.9
				s-1.9,0.7-2.4,0.6c-0.4-0.1-7.1-4-8.1-6.1c-1-2.1-4.3-8.3-4.3-8.3s-0.7,4.3-1.9,5s-2,0.8-8-0.6c-5.9-1.4-9.1-1.6-9.1-4.8
				C18.7,76.9,19,73.6,19,73.6z"/>
		</g>
		<g>
			<path class="st12" d="M65.1,79.4c0,0,0.1-0.9,1.3-2.1c1-1.1,2.4-1.1,2.4-1.1s0.1,0.1-3.4-2.2c-3.5-2.3-8.6-3.6-13-4.4s-7,0-7,0
				l0.2,2.7c0,0,5,0.3,10.6,2.4S65.1,79.4,65.1,79.4z"/>
		</g>
		<g>
			<path class="st12" d="M53.1,89.6c0.1-0.1,0.1-0.1,0.2-0.2c1.8-1.9,2.6-1.8,3.4-0.1c0.8,1.7,2.9,5.2,2.9,5.2s-0.9,0.5-1.5,1.2
				s-0.8,2.1-0.8,2.1s-5.3-3.7-5.2-5.4C52.3,90.6,53.1,89.6,53.1,89.6z"/>
		</g>
		<g>
			<path class="st12" d="M23.5,69.5L35,65.2l-7.9-1.3C27.1,63.9,24.4,67.4,23.5,69.5z"/>
		</g>
		<g>
			<path class="st12" d="M41.6,79.8c0.3-1,0.8-1.7,1.8-2.2c1.1-0.5,10,6.2,10,6.2s-1.7,0.9-2.4,1.7c-0.7,0.7-2.4,3.8-2.4,3.8
				s-5.1-5.1-6.3-6.9S41.6,79.8,41.6,79.8z"/>
		</g>
		<g>
			<path class="st12" d="M21.7,76.2l10-4c0,0-0.8,2.2-0.9,4.4s0,5,0,5l-9-1.6L21.7,76.2z"/>
		</g>
		<g>
			<path class="st6" d="M178.4,92.7c-0.4-1.2-1.6-1.9-2.9-1.6c-1.8,0.4-4.5,0.9-7.9,0.7c-4.8-0.2-14.5,1.7-16.8,2
				c-4.4,0.6-6.4-0.1-8.7-0.3c-3.2-0.3-5,1.1-8.4,0.6c-3.4-0.5-5.1-1.6-8-0.8c-2.8,0.8-8.8,3.4-10.4,3.8c-1.6,0.4-3.1,0.2-5.4,1.7
				c-1.7,1.2-5.5,2.8-7.3,3.5c-0.6,0.3-0.8,1-0.4,1.6c0.8,1.1,2.7,2.4,7.3,1.3c3.8-0.9,6-2.3,6-2.3s2.8-0.1,4.7-0.4
				c2.8-0.4,3.8-0.8,3.8-0.8s2.2,0.8,4,1.2c1.7,0.4,3.2,0.8,3.2,0.8s0.6,1.8,2.5,3l-0.1,0.1c0,0-3.6,2.9-5,4.6
				c-0.9,1-2.1,3.5-2.1,6.6c0,2.7,0.5,14.5,0.7,18c0,0.5,0.6,1.6,1.1,1.5c0.9-0.3,2.4-0.4,3.3-2.5c0.1-0.2,0.1-0.4,0.2-0.6l0,0.2
				l-0.2,0.4c0,1-0.2,4.2,0.3,5.7c0.5,1.5,3,1.9,4-1.6c1-3.5,0.7-5.3,0.7-5.3l1.3-7.8c0.4-0.7,0.8-1.6,1.3-2.4
				c-0.4,1.6-0.5,4.3,0.5,6.2c1.1,2.2,1.3,3.7,3.3,4.2c1.2,0.3,2.5,0.8,3.9,1.3c0.5,0.2,1.1-0.1,1.2-0.7c0.2-0.7,0.1-1.7-1.1-2.8
				c-1.4-1.3-2.5-3-2.5-3s0.3-1.7,0.1-3.4c0,0,1.3-2.6,1.2-4.8l0.1-0.1c0.3,0,0.6,0.1,0.9,0.1c6.3,0,11.6-1.7,16-2.9
				c7-1.8,7.3-5.8,10.3-6c3.7-0.3,8.2-0.1,8.2-0.1C182.1,107.9,180.9,100.7,178.4,92.7z"/>
		</g>
		<g>
			<path class="st7" d="M127.6,135.8c1.8-0.2,2.1-3,2.2-4.9c0.1-1.9,0.1-5.1,1-7.2c0.9-2.1,0.4-7.1,0.4-7.1s7.8-0.2,8.1-0.3
				c0.3-0.1,2.8,2.7,4.3,3.4c1.4,0.6,2.4,1.1,1.8,2.7c-0.6,1.6-2.4,5.2-0.5,7.1c1.8,1.9,3.2,3.3,2.9,4.4c-0.3,1.1-1.5,0.8-3.2,0.2
				c-1.8-0.6-3.9-1.2-4.2-2.6c-0.4-1.4-2-5.1-1.9-6c0.1-0.9,1.6-4.7,1.6-4.7s-2.8,4.9-3.2,10.1c-0.5,5.2-0.8,9-1.9,10
				s-3.1,0.6-3.3-1.1c-0.2-1.7-0.5-4-0.5-4s-1.4,1.7-2.2,1.7C128,137.3,127.6,135.8,127.6,135.8z"/>
		</g>
		<g>
			<path class="st7" d="M134.7,116.6c2.8,0.1,7.6-2.9,9-4.8s3.8-3.2,6.4-2.7c2.5,0.5,9.5,0.4,13.1-2.4c3.6-2.8,6.1-5.3,7.3-6.8
				c1.2-1.5,2.5,0,2.1,2.2c-0.4,2.1-1.8,4.8-3.8,6.6c-2,1.8-8.2,4.7-12.2,4.1c-4-0.6-6.3-2.3-8.6-1.4s-2.6,2.4-5.6,3.8
				C139.2,116.6,134.7,116.6,134.7,116.6z"/>
		</g>
		<g>
			<path class="st7" d="M140.2,116.1c2.7-1.5,6.3-4.7,8.6-4.5c2.4,0.2,6,1.8,9.5,1.2c3.5-0.5,7.3-0.9,9.3-3.4c2-2.6,3.8-6,6.6-6.9
				c2.8-0.9,6.3-1.1,6.3-1.1s0.9,4.3,0.8,6.5c-0.1,2.2-0.5,3.6-0.5,3.6s-6.9-0.5-8.6,0c-1.7,0.5-1.6,1-3.3,2.5
				c-1.7,1.5-2.8,2.7-7.1,3.8c-4.2,1.1-12.1,2.4-14.4,2.8c-2.3,0.4-5.8-1.5-6.6-2.4C140.1,117.2,140.2,116.1,140.2,116.1z"/>
		</g>
		<g>
			<path class="st7" d="M102.6,103.2c2.1,1,5.6,0.1,8.4-0.9s2.9-2.4,2.9-2.4s2.6,0.8,5.6,0.3c3-0.5,5.4-2.2,5.4-2.2s2.1,1.8,4.2,2.3
				c2.1,0.5,5.5-1.3,5.5-1.3s1.5,2.6,5,2.7s8.7-1.8,8.7-1.8s-1.4,2.8-2.5,3.8s-7.9,3.4-9.4,3.8s-4.1-1.4-4.9-3.1
				c-0.8-1.7-1.5-1.6-4-2c-2.4-0.4-3.6-0.7-3.6-0.7s-3.2,1-5.6,1.2c-2.4,0.2-3.5,0.3-3.5,0.3s-4.6,1.9-7.1,2.4
				C103.3,106.3,102.6,103.2,102.6,103.2z"/>
		</g>
		<g>
			<path class="st8" d="M97.9,170.9c-16.9,0-33-5.9-46-17c-14.4-12.3-23.1-29.5-24.6-48.4c-0.6-7-0.1-14.1,1.4-20.9
				c0.1-0.5,0.7-0.9,1.2-0.8c0.5,0.1,0.9,0.7,0.8,1.2c-1.5,6.6-1.9,13.5-1.4,20.3c1.4,18.4,9.9,35.1,23.9,47
				c14,12,31.8,17.8,50.2,16.3c30-2.3,54.8-23.6,61.7-52.8c0.1-0.5,0.7-0.9,1.2-0.7c0.5,0.1,0.9,0.7,0.7,1.2
				c-7.1,30.1-32.7,51.9-63.5,54.3C101.7,170.9,99.8,170.9,97.9,170.9z"/>
		</g>
		<g>
			<path class="st8" d="M166.6,92.8c-0.5,0-0.9-0.4-1-0.9c-4.3-36.9-36.8-63.5-73.8-60.6C69.9,33,49.9,45.2,38.4,63.9
				c-0.3,0.5-0.9,0.6-1.4,0.3c-0.5-0.3-0.6-0.9-0.3-1.4C48.5,43.6,69.1,31,91.6,29.3c38.1-3,71.5,24.4,76,62.4
				c0.1,0.5-0.3,1-0.9,1.1C166.6,92.8,166.6,92.8,166.6,92.8z"/>
		</g>
		<g>
			<path class="st8" d="M145,76.7c-0.2,0-0.4-0.1-0.5-0.4c0-0.1-1.1-3.5-5.3-4.2c-4.3-0.7-6.5,1.8-6.6,1.8c-0.2,0.2-0.5,0.2-0.7,0.1
				c-0.2-0.2-0.2-0.5-0.1-0.7c0.1-0.1,2.6-2.9,7.5-2.2c2.6,0.4,4.1,1.7,5.1,2.9c0-2.5,0.7-6.7,3.9-9.7c4.7-4.4,6.7-4,7-3.9
				c0.3,0.1,0.4,0.4,0.3,0.6c-0.1,0.3-0.4,0.4-0.6,0.3c-0.1,0-1.8-0.3-6,3.6c-4.5,4.1-3.5,11-3.5,11.1c0,0.3-0.1,0.5-0.4,0.6
				C145.1,76.7,145.1,76.7,145,76.7z"/>
		</g>
		<g>
			<path class="st8" d="M65.1,67.6c-0.1,0-0.3-0.1-0.4-0.2c-0.1-0.1-5.6-5.8-12.9-7.6c-7.2-1.8-10.9,0.4-11,0.4
				c-0.2,0.1-0.5,0.1-0.7-0.2s-0.1-0.5,0.2-0.7c0.2-0.1,4.1-2.5,11.7-0.6c6.3,1.6,11.2,5.8,12.8,7.3c1-2.3,4.7-9.4,14.2-9.4
				c0,0,0,0,0,0c8.3,0,11.6,5.9,12.6,8.4c1-1.5,3.6-4,9.2-4c7.2,0,9.5,5.6,9.5,5.7c0.1,0.3,0,0.5-0.3,0.6c-0.3,0.1-0.5,0-0.6-0.3
				c-0.1-0.2-2.1-5-8.6-5c-6.9,0-8.8,4.2-8.8,4.4c-0.1,0.2-0.3,0.3-0.5,0.3c-0.2,0-0.4-0.2-0.4-0.4c-0.1-0.4-2.4-8.7-12-8.7
				c0,0,0,0,0,0c-10.6,0-13.5,9.3-13.5,9.4c-0.1,0.2-0.2,0.3-0.4,0.3C65.2,67.6,65.1,67.6,65.1,67.6z"/>
		</g>
		<g>
			<path class="st8" d="M146.4,121.5C146.4,121.5,146.4,121.5,146.4,121.5c-0.9,0-1.7-0.2-2.6-0.4c-0.9-0.3-2.1-0.9-3.1-1.8
				c-1.8-1.6-2.1-2.5-2.1-3.1c0-0.6,0.5-1,1-1c0.5,0,0.9,0.4,1,0.9c0,0.1,0.3,0.6,1.5,1.7c0.8,0.7,1.8,1.1,2.5,1.4
				c0.6,0.2,1.2,0.3,1.9,0.3c0,0,0,0,0,0c5.3,0,9.8-1.2,13.8-2.3c0.7-0.2,1.3-0.4,2-0.5c3.8-1,5.4-2.6,6.8-3.9c1.1-1,2.1-2,3.7-2.1
				c2.8-0.2,6.1-0.2,7.5-0.1c0.7-3.3-0.3-9.6-2.8-17.4c-0.2-0.7-1-1.1-1.7-1c-1.8,0.4-4.6,0.9-8.2,0.7c-3.7-0.2-10.8,1-14.6,1.7
				c-0.9,0.2-1.6,0.3-2.1,0.3c-3.4,0.5-5.4,0.2-7.2-0.1c-0.6-0.1-1.2-0.2-1.7-0.2c-1.3-0.1-2.4,0.1-3.5,0.3
				c-1.4,0.3-2.9,0.6-4.9,0.3c-1.1-0.2-2-0.4-2.8-0.6c-1.7-0.4-3-0.7-4.7-0.2c-1.5,0.4-3.8,1.3-5.9,2.1c-2,0.8-3.7,1.4-4.5,1.6
				c-0.5,0.1-0.9,0.2-1.3,0.2c-1.1,0.2-2.2,0.3-3.7,1.4c-1.8,1.2-5.5,2.8-7.5,3.6c1,1.4,3.2,1.7,6.2,1c3.5-0.9,5.7-2.2,5.7-2.2
				c0.1-0.1,0.3-0.1,0.5-0.2c0,0,2.8-0.1,4.6-0.4c2.6-0.4,3.6-0.8,3.6-0.8c0.2-0.1,0.5-0.1,0.7,0c0,0,2.2,0.8,3.9,1.1
				c1.8,0.4,3.2,0.8,3.3,0.9c0.3,0.1,0.6,0.3,0.7,0.6c0,0.1,0.9,2.6,4.1,3.2c0.5,0.1,0.9,0.6,0.8,1.2c-0.1,0.5-0.6,0.9-1.2,0.8
				c-3.4-0.7-4.9-3-5.4-4.1c-0.6-0.2-1.6-0.4-2.7-0.7c-1.4-0.3-3.1-0.9-3.8-1.1c-0.5,0.2-1.7,0.5-3.7,0.8c-1.6,0.2-3.9,0.4-4.6,0.4
				c-0.7,0.4-2.8,1.5-6.1,2.3c-5,1.2-7.3-0.2-8.3-1.7c-0.4-0.5-0.5-1.2-0.3-1.8c0.2-0.6,0.6-1.1,1.2-1.3c1.6-0.7,5.5-2.3,7.2-3.4
				c1.9-1.3,3.3-1.5,4.5-1.7c0.4-0.1,0.8-0.1,1.2-0.2c0.7-0.2,2.4-0.8,4.3-1.5c2.1-0.8,4.6-1.8,6.1-2.2c2.2-0.6,3.8-0.2,5.7,0.2
				c0.8,0.2,1.7,0.4,2.7,0.6c1.7,0.3,2.9,0,4.3-0.2c1.2-0.2,2.5-0.5,4.1-0.3c0.6,0.1,1.2,0.1,1.9,0.2c1.7,0.3,3.5,0.5,6.6,0.1
				c0.4-0.1,1.1-0.2,2-0.3c3.9-0.6,11-1.8,15-1.7c3.3,0.2,6-0.3,7.6-0.7c1.7-0.4,3.5,0.6,4.1,2.3c1.6,5.2,4.1,14.6,2.6,19.4
				c-0.1,0.4-0.5,0.7-1,0.7c0,0-4.5-0.1-8.1,0.1c-0.9,0.1-1.4,0.6-2.4,1.6c-1.4,1.4-3.4,3.3-7.7,4.4c-0.6,0.2-1.3,0.3-2,0.5
				C156.6,120.2,152,121.5,146.4,121.5z M140.6,116.2C140.6,116.2,140.6,116.2,140.6,116.2C140.6,116.2,140.6,116.2,140.6,116.2z
				 M140.6,116.2C140.6,116.2,140.6,116.2,140.6,116.2C140.6,116.2,140.6,116.2,140.6,116.2z M140.6,116.2L140.6,116.2L140.6,116.2z
				 M140.6,116.1L140.6,116.1L140.6,116.1z"/>
		</g>
		<g>
			<path class="st8" d="M134.8,117.9c-5.1,0-6.7-2.8-7.1-4.2c-1.2-3.6,1.7-4.8,4.7-6.1c2-0.8,3.8-1.3,5.7-1.8c1-0.3,2-0.6,3.1-0.9
				c3.1-0.9,4.2-1.9,5.6-4.6c1.6-3.2,6.5-4.9,6.7-5c0.5-0.2,1.1,0.1,1.3,0.6c0.2,0.5-0.1,1.1-0.6,1.3c0,0-4.3,1.5-5.5,4
				c-1.6,3.2-3.2,4.5-6.8,5.6c-1.1,0.4-2.2,0.6-3.2,0.9c-1.9,0.5-3.6,1-5.4,1.8c-3.8,1.6-4.1,2.1-3.6,3.6c0.8,2.3,3.6,3.3,7.6,2.6
				c4.4-0.7,6.2-2.1,8.3-3.6l0.6-0.5c2.2-1.6,4-1.1,6.3-0.5c0.8,0.2,1.6,0.4,2.6,0.6c3.9,0.7,8.9-0.5,11.6-2.8
				c2.1-1.8,3.7-4.1,3.7-4.2c0.3-0.5,0.9-0.6,1.4-0.3c0.5,0.3,0.6,0.9,0.3,1.4c-0.1,0.1-1.7,2.6-4.1,4.6c-3.2,2.7-8.8,4-13.2,3.2
				c-1-0.2-1.9-0.4-2.7-0.6c-2.3-0.6-3.3-0.8-4.7,0.2l-0.6,0.5c-2.2,1.6-4.3,3.2-9.2,4C136.6,117.8,135.7,117.9,134.8,117.9z"/>
		</g>
		<g>
			<path class="st8" d="M128.1,138.3c-0.3,0-0.6-0.1-0.8-0.3c-0.7-0.5-1.1-1.6-1.1-2.2c-0.2-3.4-0.7-15.4-0.7-18.1
				c0-3.2,1.2-6,2.3-7.3c1.5-1.7,5-4.5,5.2-4.7c0.4-0.3,1.1-0.3,1.4,0.1c0.3,0.4,0.3,1.1-0.1,1.4c0,0-3.6,2.9-4.9,4.4
				c-0.7,0.8-1.8,3.1-1.8,6c0,2.7,0.5,14.6,0.7,18c0,0.1,0.1,0.3,0.2,0.5c0,0,0,0,0,0c0.9-0.2,1.7-0.4,2.3-1.8
				c1-2.5,0.7-5.1,0.5-6.1c-0.1-0.5-0.1-1,0.1-1.4c0.4-1.1,1.3-3.8,1.6-5.5c0.3-2.2,0.4-4.5,0.4-4.5c0-0.6,0.5-1,1-1
				c0.6,0,1,0.5,1,1c0,0.1-0.1,2.4-0.4,4.7c-0.3,1.9-1.3,4.8-1.7,5.9c0,0.1-0.1,0.2,0,0.4c0.2,1.2,0.6,4.3-0.6,7.3
				c-1,2.3-2.6,2.7-3.6,3c-0.1,0-0.2,0.1-0.3,0.1C128.3,138.3,128.2,138.3,128.1,138.3z M128.4,136.4L128.4,136.4L128.4,136.4z"/>
		</g>
		<g>
			<path class="st8" d="M133.3,142.6c-1.1,0-2.1-0.7-2.5-1.8c-0.4-1.3-0.4-3.4-0.3-5.6l0-0.4c0-0.5,0.5-1,1-1c0,0,0,0,0,0
				c0.6,0,1,0.5,1,1l0,0.5c0,1.1-0.1,3.8,0.2,4.9c0.1,0.2,0.3,0.4,0.6,0.4c0.5,0,1.1-0.5,1.5-1.9c0.9-3.2,0.7-4.8,0.7-4.8
				c0-0.1,0-0.2,0-0.3l1.3-7.8c0-0.1,0.1-0.2,0.1-0.3c1.5-2.8,3.6-7.2,3.7-7.3c0.2-0.5,0.8-0.7,1.3-0.5c0.5,0.2,0.7,0.8,0.5,1.3
				c0,0-2.1,4.4-3.6,7.2l-1.2,7.5c0,0.6,0.1,2.4-0.8,5.5C135.8,142.3,133.9,142.6,133.3,142.6C133.3,142.6,133.3,142.6,133.3,142.6z
				"/>
		</g>
		<g>
			<path class="st8" d="M146.9,136.2c-0.2,0-0.4,0-0.7-0.1c-1.5-0.5-2.8-1-3.8-1.3c-2-0.6-2.6-1.9-3.3-3.5c-0.2-0.4-0.4-0.8-0.6-1.2
				c-1.3-2.5-1-6.1-0.3-7.6c0.2-0.5,0.8-0.7,1.3-0.5c0.5,0.2,0.7,0.8,0.5,1.3c-0.5,1.1-0.7,4.1,0.2,5.9c0.2,0.5,0.4,0.9,0.6,1.3
				c0.7,1.6,1,2.1,2,2.4c1.1,0.3,2.4,0.8,3.9,1.3c0.1-0.5-0.2-1.1-0.9-1.8c-1.5-1.4-2.6-3.1-2.7-3.1c-0.1-0.2-0.2-0.5-0.2-0.7
				c0,0,0.3-1.6,0.1-3.2c0-0.2,0-0.4,0.1-0.6c0,0,1.2-2.3,1.1-4.2c0-0.6,0.4-1,0.9-1.1c0.6,0,1,0.4,1.1,0.9c0.2,2-0.8,4.3-1.2,5
				c0.1,1.3,0,2.4-0.1,3c0.4,0.5,1.2,1.6,2.1,2.5c1.6,1.5,1.7,2.9,1.4,3.8c-0.1,0.5-0.5,1-1,1.3
				C147.6,136.1,147.3,136.2,146.9,136.2z"/>
		</g>
		<g>
			<path class="st8" d="M59.6,101c-0.2,0-0.4-0.1-0.6-0.2c-0.2-0.1-4.8-3.5-6.6-5.9c-2-2.7-1.3-5-1.3-5.1c0-0.1,0-0.1,0.1-0.1
				c1.7-3.3,5.3-4.9,7.7-4.5c1.9,0.4,2.5,2.4,3,4.1c0.2,0.7,0.4,1.4,0.7,2c0.9,2,3.6,4.7,3.6,4.7c0.3,0.3,0.4,0.9,0.1,1.3
				c-0.3,0.4-0.8,0.6-1.2,0.4c0,0-1.3-0.5-2.8,0.1c-1.5,0.6-1.7,2.3-1.7,2.3c0,0.4-0.3,0.7-0.6,0.8C59.8,101,59.7,101,59.6,101z
				 M53,90.5c-0.1,0.3-0.2,1.6,1,3.2c1.1,1.5,3.6,3.5,5,4.6c0.4-0.9,1.1-1.9,2.5-2.4c0.5-0.2,1-0.3,1.5-0.4c-0.8-1-1.8-2.3-2.3-3.4
				c-0.3-0.7-0.6-1.6-0.8-2.3c-0.4-1.6-0.8-2.6-1.4-2.7C57.1,86.9,54.4,87.9,53,90.5z"/>
		</g>
		<g>
			<path class="st8" d="M133.6,114.4c-0.6,0-1,0-1.1,0c-0.3,0-0.5-0.3-0.5-0.5c0-0.3,0.3-0.5,0.5-0.5c1.4,0.1,4.3,0,4.5-1.1
				c0.1-0.6,0.1-1.4-0.6-2c-0.8-0.8-2.5-0.9-4.5-0.4c-0.3,0.1-0.5-0.1-0.6-0.4c-0.1-0.3,0.1-0.5,0.4-0.6c2.4-0.6,4.3-0.4,5.4,0.6
				c0.8,0.7,1.1,1.7,0.9,2.8C137.7,114.2,135.1,114.4,133.6,114.4z"/>
		</g>
		<g>
			<path class="st22" d="M62.8,105.7c0.8-1.6,3.1-2.9,3.1-2.9s3.3,2.3,1.5,5C66.1,109.6,62.8,105.7,62.8,105.7z"/>
		</g>
		<g>
			<path class="st8" d="M50.4,95.9c-1.2,0-2.6-0.7-4.1-2.2c-6.2-5.8-12-11.4-8.9-16.8c2.8-4.9,7.5-4.4,11.7-3.2
				c5,1.4,10.4,5.9,12.8,7.8l0.6,0.5c0.6,0.5,0.9,1.1,1,1.9c0.2,1.9-1.4,4-1.6,4.2c-0.4,0.4-1,0.5-1.4,0.1c-0.4-0.3-0.5-1-0.1-1.4
				c0.5-0.6,1.3-1.9,1.2-2.7c0-0.2-0.1-0.4-0.3-0.5l-0.6-0.5c-2.2-1.8-7.4-6.1-12-7.4c-5.1-1.4-7.7-0.8-9.4,2.3
				c-2.2,3.8,2,8.2,8.5,14.4c1.8,1.7,2.7,1.7,3,1.6c0.6-0.2,0.8-1.1,0.8-1.1c0.1-0.5,0.7-0.9,1.2-0.7c0.5,0.1,0.9,0.7,0.7,1.2
				c0,0.2-0.5,2-2.2,2.6C50.9,95.9,50.6,95.9,50.4,95.9z"/>
		</g>
		<g>
			<path class="st8" d="M34.5,87.1c-0.1,0-0.2,0-0.3,0c0,0-4.8-1.6-10.9-2.4c-0.6-0.1-1.2-0.2-1.7-0.2c-2.2-0.3-4-2.2-4-4.4
				c-0.1-3,0.1-7.2,1.6-10.7c2.3-5.8,5.5-8.3,5.6-8.4c0.2-0.1,0.3-0.2,0.5-0.2c0.1,0,2.6-0.2,7,0.7c4.6,1,7,1.5,7,1.6
				c0.3,0.1,0.6,0.3,0.7,0.6c0.1,0.3,0.1,0.7-0.1,0.9c0,0-3.2,4.6-4.5,10.3c-1.5,6.6,0,10.9,0,11c0.1,0.4,0,0.8-0.2,1
				C35,87,34.8,87.1,34.5,87.1z M25.8,62.7c-0.7,0.7-3,3-4.8,7.4c-1.3,3.2-1.5,7.1-1.4,9.9c0,1.3,1,2.3,2.3,2.5
				c0.5,0.1,1.1,0.1,1.7,0.2c4.1,0.6,7.6,1.4,9.5,2c-0.4-2-0.7-5.6,0.4-10.3c1-4.3,2.9-8,4-9.8c-1.1-0.3-3-0.7-5.6-1.2
				C28.7,62.8,26.6,62.7,25.8,62.7z"/>
		</g>
		<g>
			<circle class="st8" cx="70" cy="82.4" r="3"/>
		</g>
		<g>
			<circle class="st22" cx="70" cy="82.4" r="1.4"/>
		</g>
		<g>
			<path class="st8" d="M67.9,110.9c-2.1,0-4.4-2.2-7.1-6.6c-2.3-3.8-2.3-4.1-2.1-4.5c0.1-0.3,0.2-0.5,0.5-0.6
				c0.5-0.3,1.1-0.1,1.4,0.4c0.1,0.1,0.1,0.3,0.1,0.4c0.1,0.2,0.4,1,1.9,3.4c3.7,6,5.4,5.8,5.9,5.6c0.8-0.4,1.9-0.9,1.3-3.8
				c-0.7-2.8-2.3-5.3-4.9-7.5c-0.4-0.4-0.5-1-0.1-1.4c0.4-0.4,1-0.5,1.4-0.1c2.9,2.5,4.8,5.4,5.5,8.6c0.9,4-0.9,5.4-2.4,6.1
				C68.8,110.8,68.3,110.9,67.9,110.9z M60.1,100.9L60.1,100.9C60.1,100.9,60.1,100.9,60.1,100.9z M60.5,100.4
				c-0.1,0.2-0.2,0.3-0.4,0.5C60.3,100.7,60.4,100.6,60.5,100.4z"/>
		</g>
		<g>
			<path class="st8" d="M81.8,97.8c-1.8,0-5.1-0.3-7.7-2.5c-2-1.7-3-3.8-3.4-5c-4.6,0.9-9.3-3.2-9.5-3.4c-0.4-0.4-0.4-1-0.1-1.4
				c0.4-0.4,1-0.4,1.4-0.1c0,0,4.7,4.2,8.5,2.7c0.3-0.1,0.6-0.1,0.9,0.1c0.3,0.1,0.4,0.4,0.5,0.7c0,0,0.5,2.8,3,4.9
				c2,1.7,4.5,2,6,2.1c-0.6-1.2-1.7-3-3.2-4.5c-0.4-0.4-0.4-1,0-1.4c0.4-0.4,1-0.4,1.4,0c2.9,2.9,4.2,6.4,4.3,6.5
				c0.1,0.3,0.1,0.6-0.1,0.9c-0.2,0.3-0.4,0.4-0.7,0.5C83,97.7,82.5,97.8,81.8,97.8z"/>
		</g>
		<g>
			<path class="st8" d="M76.5,83.9c-0.5,0-1-0.4-1-1c-0.2-5.3-3.7-6.1-3.8-6.1c-0.5-0.1-0.9-0.6-0.8-1.2c0.1-0.5,0.6-0.9,1.2-0.8
				c1.8,0.3,5.2,2.4,5.4,8C77.5,83.4,77.1,83.9,76.5,83.9C76.5,83.9,76.5,83.9,76.5,83.9z"/>
		</g>
		<g>
			<path class="st8" d="M39.1,76.2l2.8-9.5c0.2-0.7,1-1.2,1.7-0.9l2.5,0.8c0.7,0.2,1.1,1,0.9,1.7L45.4,74c0,0-1.2-0.8-3.2,0.2
				S39.1,76.2,39.1,76.2z"/>
		</g>
		<g>
			<path class="st8" d="M68.4,76.3c-0.2,0-0.5-0.1-0.6-0.2c0,0-3.6-3-9.4-4.4c-7.2-1.7-13-1.6-13.1-1.6c-0.6,0-1-0.4-1-1s0.4-1,1-1
				c0.2,0,6.2-0.2,13.6,1.6c6.3,1.5,10,4.7,10.2,4.8c0.4,0.4,0.5,1,0.1,1.4C69,76.2,68.7,76.3,68.4,76.3z"/>
		</g>
		<g>
			<path class="st8" d="M65.4,79.7c-0.2,0-0.4-0.1-0.6-0.2c-7.9-6.3-19.9-7-20-7c-0.6,0-1-0.5-1-1c0-0.6,0.5-1,1-1
				c0.5,0,12.7,0.7,21.1,7.4c0.4,0.3,0.5,1,0.2,1.4C66,79.6,65.7,79.7,65.4,79.7z"/>
		</g>
		<g>
			<path class="st8" d="M82.1,92.5c-0.1,0-0.1,0-0.2,0c-0.1,0-6-1.2-7.7-4.4c-0.7-1.3-0.5-2.9,0.4-4.1c1.1-1.3,2.8-1.7,4.7-1
				c4.5,1.5,8,5,8.1,5.1c0.2,0.2,0.3,0.5,0.3,0.8c0,0.3-0.2,0.6-0.5,0.7l-4.7,2.7C82.4,92.5,82.2,92.5,82.1,92.5z M77.6,84.7
				c-0.6,0-1.1,0.2-1.5,0.6c-0.4,0.5-0.5,1.3-0.2,1.9c1,1.8,4.4,2.9,6,3.3l3.2-1.9c-1.3-1.1-3.6-2.8-6.3-3.7
				C78.3,84.8,77.9,84.7,77.6,84.7z"/>
		</g>
		<g>
			<path class="st8" d="M88.1,98.8c-0.3,0-0.6-0.2-0.8-0.4l-2.8-3.9c-0.2-0.3-0.2-0.6-0.1-1c0.7-1.7,1.3-4.9,1.4-4.9
				c0.1-0.3,0.3-0.6,0.6-0.7s0.7-0.1,0.9,0.1c0.1,0.1,2,1.4,3.7,3.6c1.7,2.2,3.1,5,3.1,5.1c0.1,0.3,0.1,0.6,0,0.9
				c-0.2,0.3-0.4,0.5-0.8,0.5l-5.1,0.6C88.2,98.8,88.2,98.8,88.1,98.8z M86.5,93.7l2.1,2.9l3.1-0.4c-0.5-1-1.4-2.4-2.3-3.6
				c-0.7-0.9-1.5-1.7-2.1-2.2C87.1,91.5,86.8,92.8,86.5,93.7z"/>
		</g>
		<g>
			<path class="st8" d="M96.1,108.4c-0.2,0-0.3,0-0.5-0.1c-1.3-0.4-3.2-1.2-4.5-3c-2-2.6-2.3-4.8-1.1-6.5c0.8-1.1,2.5-2.4,2.7-2.5
				c0.2-0.2,0.5-0.2,0.8-0.2c0.3,0,0.5,0.2,0.7,0.4c0.1,0.1,1.4,2,1.7,4c0.1,0.8,0.8,2.8,2,5.4c0.3,0.7,0.2,1.4-0.3,1.9
				C97.1,108.2,96.6,108.4,96.1,108.4z M96.2,106.4L96.2,106.4L96.2,106.4z M93,98.6c-0.5,0.4-1.1,1-1.4,1.4c-0.3,0.4-1,1.4,1,4.1
				c0.9,1.2,2.1,1.8,3.1,2.2c-1.1-2.6-1.8-4.5-1.9-5.5C93.7,100.1,93.3,99.3,93,98.6z"/>
		</g>
		<g>
			<path class="st8" d="M85.6,108.4c-0.1,0-0.1,0-0.2,0c-1.2-0.1-3-0.6-4.7-2.3c-2.8-2.8-2.3-6.3-1.1-7.8c1-1.3,2.6-2.4,2.7-2.4
				c0.3-0.2,0.6-0.2,0.9-0.1c0.3,0.1,0.5,0.3,0.6,0.6l3.5,9.6c0.2,0.6,0.1,1.2-0.3,1.7C86.7,108.2,86.2,108.4,85.6,108.4z
				 M85.6,106.4L85.6,106.4L85.6,106.4z M82.4,98.3c-0.4,0.3-0.9,0.8-1.2,1.2c-0.6,0.7-1.1,3.1,1,5.2c1.1,1.1,2.3,1.5,3.1,1.7
				L82.4,98.3z"/>
		</g>
		<g>
			<path class="st8" d="M85.6,120.1c-0.5,0-1.1-0.2-1.4-0.7c-0.7-0.8-1.3-1.6-1.6-2.3c-1.2-2.3-2.3-5-0.4-7.2
				c1.4-1.6,3.5-3.6,3.6-3.7c0.3-0.3,0.7-0.4,1.1-0.2c0.4,0.2,0.6,0.5,0.6,0.9v11.3c0,0.8-0.5,1.5-1.2,1.8
				C86,120,85.8,120.1,85.6,120.1z M85.4,109.3c-0.6,0.6-1.2,1.3-1.8,1.9c-0.9,1-0.7,2.3,0.6,5c0.3,0.5,0.6,1.1,1.1,1.7V109.3z"/>
		</g>
		<g>
			<path class="st8" d="M69.4,89.3c0,0,0.2,3.7,2.2,6c1.5,1.7,2.7,3,2.7,3s-0.7,0.6-0.7,3.1c0,1.9,0.3,3.2,0.3,3.2l-3.1,3.3
				c0,0-2.5,2.6-2.4,4.9c0,1.1,1.3,1.7,2.2,1l7.6-5.6c0.6-0.5,1-1.2,1.1-1.9c0.2-1.5,0.5-4,0.5-3.9c0,0-0.7-3.4,0.6-4
				s1.5-1.1-0.7-1.6c-2.1-0.5-7.3-3.6-7.9-6.3C71.1,87.7,69.4,89.3,69.4,89.3z"/>
		</g>
		<g>
			<path class="st8" d="M71.8,92.5c0.6,1.1-0.1,4-1,5.6c-0.9,1.7-1.8,2.6-1.8,2.6l-4.6-5c0,0,1.1-3.4,0.7-4s-2.2-1.1-3.3-1.8
				c-1.1-0.7-2.5-3.6,2.1-2.3C70.8,89.6,71.8,92.5,71.8,92.5z"/>
		</g>
		<g>
			<path class="st8" d="M61.7,104.4c-0.9,1.6-1.7,3.4-0.4,5.1c1.3,1.6,3.8-1,3.8-1L61.7,104.4z"/>
		</g>
		<g>
			<path class="st8" d="M43.5,70.1c-0.2,0-0.4-0.1-0.6-0.2c-2.6-2.1-5.3-2.5-5.3-2.5c-0.5-0.1-0.9-0.6-0.8-1.1
				c0.1-0.5,0.6-0.9,1.1-0.8c0.1,0,3.2,0.5,6.2,2.9c0.4,0.3,0.5,1,0.2,1.4C44.1,70,43.8,70.1,43.5,70.1z"/>
		</g>
		<g>
			<path class="st8" d="M42.1,72.5c-0.1,0-0.3,0-0.4-0.1c-3.7-1.7-5.4-0.8-5.4-0.8c-0.5,0.3-1.1,0.1-1.4-0.4
				c-0.3-0.5-0.1-1.1,0.3-1.3c0.3-0.2,2.6-1.5,7.3,0.7c0.5,0.2,0.7,0.8,0.5,1.3C42.8,72.3,42.4,72.5,42.1,72.5z"/>
		</g>
		<g>
			<path class="st8" d="M37.5,81.5c0,0-0.1,0-0.1,0c-1.9-0.2-3.4,0-3.4,0c-0.5,0.1-1.1-0.3-1.1-0.9c-0.1-0.5,0.3-1.1,0.9-1.1
				c0.1,0,1.7-0.2,3.9,0c0.5,0.1,0.9,0.5,0.9,1.1C38.5,81.1,38,81.5,37.5,81.5z"/>
		</g>
		<g>
			<path class="st8" d="M48.7,89.8c-0.1,0-0.2,0-0.3-0.1c0,0-2.7-2.6-5.6-6c-1.2-1.3-1.7-2.6-1.6-3.9c0.1-1.4,1.1-2.1,1.1-2.2
				c0.2-0.2,0.5-0.1,0.7,0.1c0.2,0.2,0.1,0.5-0.1,0.7c0,0-0.7,0.5-0.7,1.5c-0.1,0.9,0.4,2,1.3,3.1c2.1,2.4,4.1,4.4,5,5.4
				c0.7-1.8,3.1-5.9,9.1-6c0.3,0,0.5,0.2,0.5,0.5c0,0.3-0.2,0.5-0.5,0.5c-6.8,0.1-8.4,5.8-8.5,6c0,0.2-0.2,0.3-0.3,0.4
				C48.8,89.8,48.7,89.8,48.7,89.8z"/>
		</g>
		<g>
			<path class="st8" d="M30.7,82.1C30.7,82.1,30.6,82.1,30.7,82.1l-9.1-1.6c-0.2,0-0.4-0.2-0.4-0.4c0-0.1-0.4-3.4,0.5-7.1
				c1.2-4.9,3.7-6.9,3.8-7c0.2-0.2,0.5-0.1,0.7,0.1c0.2,0.2,0.1,0.5-0.1,0.7c0,0-2.3,1.9-3.5,6.4c-0.7,2.8-0.6,5.4-0.5,6.4l8,1.4
				c-0.2-2-0.3-8,3.2-13.5c0.1-0.2,0.5-0.3,0.7-0.1c0.2,0.2,0.3,0.5,0.1,0.7c-4,6.2-3,13.4-3,13.5c0,0.2,0,0.3-0.1,0.4
				C31,82,30.8,82.1,30.7,82.1z"/>
		</g>
		<g>
			<path class="st8" d="M34.5,75.6c-0.4,0-0.8-0.2-0.9-0.6c-0.2-0.5,0-1.1,0.6-1.3c0.2-0.1,3.8-1.5,8-0.5c0.5,0.1,0.9,0.7,0.7,1.2
				c-0.1,0.5-0.7,0.9-1.2,0.7c-3.6-0.8-6.7,0.4-6.7,0.4C34.8,75.6,34.6,75.6,34.5,75.6z"/>
		</g>
		<g>
			<path class="st8" d="M134.9,82.1c-0.3,0-0.5-0.2-0.5-0.5c0,0-0.4-3.8-2.5-7.5c-2.8-5-7.2-7.6-13-7.9
				c-13.5-0.6-16.4,9.7-16.5,10.1c-0.1,0.3-0.3,0.4-0.6,0.4c-0.3-0.1-0.4-0.3-0.4-0.6c0-0.1,3.2-11.5,17.5-10.8
				c7.7,0.3,11.8,4.8,13.8,8.4c2.2,3.9,2.6,7.7,2.6,7.9C135.4,81.8,135.2,82,134.9,82.1C134.9,82.1,134.9,82.1,134.9,82.1z"/>
		</g>
		<g>
			<path class="st8" d="M108,149.1c-0.2,0-0.3-0.1-0.4-0.2c0,0-3.2-4.9-8-5.3c-6.8-0.5-9.8,3-9.9,3.1c-0.1,0.2-0.4,0.2-0.6,0.1
				c-0.2-0.1-0.3-0.3-0.3-0.6c0-0.1,2.2-8.7-3.7-12.5c-6.6-4.2-12.7,1.7-12.7,1.8c-0.1,0.1-0.4,0.2-0.6,0.1
				c-0.2-0.1-0.3-0.3-0.3-0.5c0-0.1,0.9-13.6-9.2-16.7c-10.1-3.1-16.5,3.8-16.6,3.9c-0.1,0.2-0.4,0.2-0.6,0.1
				c-0.2-0.1-0.3-0.3-0.3-0.5c0,0,0.7-3.9-2-5.2c-2.7-1.3-4.4-0.1-4.4-0.1c-0.2,0.2-0.5,0.1-0.7-0.1c-0.2-0.2-0.1-0.5,0.1-0.7
				c0.1-0.1,2.1-1.7,5.4-0.1c2.3,1.1,2.6,3.5,2.6,5c2.2-1.9,8.3-5.8,16.7-3.3c9,2.8,9.9,13.2,9.9,16.6c2-1.6,7.4-4.8,13.1-1.2
				c5,3.2,4.8,9.3,4.4,12.1c1.5-1.1,4.6-2.8,9.6-2.4c5.4,0.4,8.7,5.5,8.8,5.7c0.1,0.2,0.1,0.5-0.2,0.7
				C108.2,149,108.1,149.1,108,149.1z"/>
		</g>
		<g>
			<path class="st8" d="M107.4,137.4c-1.7,0-2.8-0.5-2.9-0.5c-0.3-0.1-0.4-0.4-0.3-0.7c0.1-0.3,0.4-0.4,0.7-0.3
				c0.2,0.1,3.8,1.5,7.1-1.2c0.8-0.7,1.6-1.4,2.5-2.2c3-2.8,6.5-6,11.8-7.4c0.3-0.1,0.5,0.1,0.6,0.4s-0.1,0.5-0.4,0.6
				c-5.1,1.3-8.5,4.4-11.4,7.1c-0.9,0.8-1.7,1.6-2.5,2.2C110.8,137,108.9,137.4,107.4,137.4z"/>
		</g>
		<g>
			<path class="st8" d="M108.9,126.2c-0.2,0-0.3-0.1-0.4-0.2c-2.7-4.3-6.6-4-7.4-3.7c-0.1,0.2-0.3,0.2-0.6,0.2
				c-0.2-0.1-0.4-0.3-0.4-0.5c0-0.4,0.5-0.6,0.7-0.6c1.4-0.4,5.7-0.4,8.5,4.1c0.1,0.2,0.1,0.5-0.2,0.7
				C109.1,126.2,109,126.2,108.9,126.2z"/>
		</g>
		<g>
			<path class="st8" d="M145.8,131.2c-0.1,0-0.2,0-0.2-0.1c-0.2-0.1-0.3-0.4-0.2-0.7c0.1-0.1,5.4-9.4,17.7-4.4
				c0.3,0.1,0.4,0.4,0.3,0.7c-0.1,0.3-0.4,0.4-0.7,0.3c-11.5-4.6-16.4,3.9-16.4,4C146.1,131.1,145.9,131.2,145.8,131.2z"/>
		</g>
		<g>
			<path class="st8" d="M34.5,87.3c2.7,0.1,3.5-1.6,3.7-2.8c0.2-1.2-0.6-3.9-0.6-3.9s0-0.2-1.8-0.1C33.9,80.5,34.5,87.3,34.5,87.3z"
				/>
		</g>
		<g>
			<path class="st8" d="M38.7,62.7c2.6,0.7,2.6,1.6,3.2,2.4c0.4,0.6,0.2,2.4,0.2,2.4l-3.9-1.3L38.7,62.7z"/>
		</g>
		<g>
			<path class="st8" d="M82.9,90.7c0,0-0.5,0.9,1,1.9c1,0.7,1.9-0.1,1.9-0.1l0.6-3.2L82.9,90.7z"/>
		</g>
		<g>
			<path class="st8" d="M88.6,97.7c0,0-0.5,0.9,1,1.9c1,0.7,1.9-0.1,1.9-0.1l1.8-2.4L88.6,97.7z"/>
		</g>
		<g>
			<path class="st8" d="M82.1,106.6c0,0-0.7,0.2-0.8,1.6c0,1.5,1.6,2.3,1.6,2.3l2.7-2.8L82.1,106.6z"/>
		</g>
		<g>
			<path class="st8" d="M90.9,170.1C90.8,170.1,90.8,170.1,90.9,170.1c-0.4-0.1-0.5-0.3-0.5-0.6c0-0.2,1.1-5.7,7.7-9.2
				c5.7-3.1,11.8-1,13.7-0.2c0.7-2,4-8.7,14.5-11.9c11.2-3.4,19.7,2.6,19.8,2.6c0.2,0.2,0.3,0.5,0.1,0.7s-0.5,0.3-0.7,0.1
				c-0.1-0.1-8.3-5.8-19-2.5c-11.6,3.5-14,11.7-14,11.8c0,0.1-0.1,0.3-0.3,0.3c-0.1,0.1-0.3,0.1-0.4,0c-0.1,0-7.1-3.3-13.3,0
				c-6.2,3.3-7.2,8.5-7.2,8.5C91.3,169.9,91.1,170.1,90.9,170.1z"/>
		</g>
		<g>
			<path class="st13" d="M93.6,78.1c0,0,4.5-1.1,8.5,1.3c4,2.5,4.9,8.2,4.9,8.2s-1.9-3.8-6.3-3.8c-4.5,0-6.7,2.8-6.7,2.8
				s0.6-3.6-0.4-6.1C92.6,78,93.6,78.1,93.6,78.1z"/>
		</g>
		<g>
			<path class="st12" d="M149.9,102.8c1.3-2.7,4-4.1,7.3-5.1c3.2-0.9,4.6-1.5,4.6-1.5s0.1,3.3-3.1,4.4
				C155.4,101.8,149.9,102.8,149.9,102.8z"/>
		</g>
	</g>
</g>
</svg>
