<?xml version="1.0" encoding="utf-8"?>
<!-- Generator: Adobe Illustrator 21.1.0, SVG Export Plug-In . SVG Version: 6.00 Build 0)  -->
<svg version="1.1" xmlns="http://www.w3.org/2000/svg" xmlns:xlink="http://www.w3.org/1999/xlink" x="0px" y="0px"
	 viewBox="0 0 200 200" style="enable-background:new 0 0 200 200;" xml:space="preserve">
<style type="text/css">
	.st0{fill:none;stroke:#B3C0C7;stroke-miterlimit:10;}
	.st1{fill:#778085;}
	.st2{fill:#FD7E23;}
	.st3{fill:#30E6B6;}
	.st4{fill:#29C49B;}
	.st5{fill:#FDD353;}
	.st6{fill:#FDE4D2;}
	.st7{fill:#F2C2A0;}
	.st8{fill:#4D5052;}
	.st9{fill:#FD6A5D;}
	.st10{fill:#D1584D;}
	.st11{fill:#B8FFEC;}
	.st12{fill:#FFFFFF;}
	.st13{fill:#C9C9C9;}
	.st14{fill:#1DAAF1;}
	.st15{fill:#1682B8;}
	.st16{fill:#5EC9FF;}
	.st17{fill:#DB5F07;}
	.st18{fill:#C4F2EB;}
	.st19{fill:#B4DED7;}
	.st20{fill:#ABABAB;}
	.st21{fill:#757575;}
	.st22{fill:#878787;}
	.st23{fill:#C9EDFF;}
	.st24{fill:#93C2D9;}
	.st25{fill:#FDA29A;}
	.st26{fill:#9C9C9C;}
	.st27{fill:url(#SVGID_1_);}
	.st28{fill:url(#SVGID_2_);}
	.st29{fill:url(#SVGID_3_);}
	.st30{fill:url(#SVGID_4_);}
	.st31{fill:#A5F2DE;}
</style>
<g id="marks">
</g>
<g id="icons">
	<g>
		<g>
			<circle class="st9" cx="100" cy="104" r="70"/>
		</g>
		<g>
			<path class="st10" d="M154.9,147.4c-2.9-2.2-6.9-5-11.6-8c-5.8-3.7-10.7-5.7-13.7-6.7c0.5-0.3,1-0.7,1.4-1
				c6.5-4.8,9.1-11.9,9.1-11.9l0.4,4.8c0,0,1.1,4.8,7.5,3.5c7.2-1.5,13-17.7,15-24.3c1.4-4.9,3.4-14.1,4.4-18.7
				c-0.2-0.7-0.4-1.4-0.6-2.1c-1,0.6-2.9,1.7-6.5,3.8c-7.7,4.5-13.2,16.1-13.2,16.1s0.1-0.7,0.3-2c1.6-4.5,3.7-11.4,5.4-20.4
				c1.6-8.4,1.5-16.5-0.8-23.6c-12.2-13.4-29.5-22.1-48.9-22.9l0.4,31c-2.2-3.4-7.6-10.9-15.1-12.7C78.3,50,68.3,50,60.7,62.2
				c-7.6,12.2-2.3,24.9-0.7,35c1.6,10,0.4,6.5-0.6,3.6c-1-2.8-3.9-5.7-7.9-10.3c-4-4.6-11.7-8.2-11.7-8.2s2.5,10.4,4.8,20.7
				c2.3,10.3,7,19.6,10.4,22.1c3.5,2.6,7.7,3.6,11.5,0.5c2.2-1.9,2-3.9,1.5-5.3c0.7,1.3,1.8,3.1,2.6,4.3
				c1.3,2.1,11.3,12.4,18.4,14.9c5.4,1.9,10.4,2.6,15.5,2.7l-0.4,0.3c0,0,0,0,0,0v0l11.2,1.5c10.1,2.8,18.6,9.4,23.9,18.1
				C145.1,158.1,150.4,153.1,154.9,147.4z"/>
		</g>
		<g>
			<path class="st23" d="M100.6,60.5c3.1-7.1,14.8-15.7,27.8-12.9s18.9,13.2,17.4,26.8s-2.7,22-2.7,22s5.5-11.5,13.1-16.1
				c7.7-4.5,7.7-4.5,7.7-4.5s-3,14.8-4.9,21.4c-1.9,6.6-6.6,22.2-13.8,23.3s-8.6-2.6-8.6-2.6l-0.4-4.8c0,0-2.6,7.1-9,11.8
				s-15.3,9.9-21.9,10.3c-6.6,0.4-13-0.1-20-2.5c-7-2.5-16.9-12.8-18.3-14.8c-1.3-2.1-3.5-5.9-3.5-5.9s3.2,3.8-0.5,7
				c-3.7,3.2-8,2.1-11.4-0.5c-3.5-2.5-8.1-11.7-10.4-22s-4.7-20.6-4.7-20.6S44,79.4,48,84s6.9,7.4,7.9,10.3c1,2.8,2.1,6.4,0.6-3.6
				S49.6,68,57.2,55.9s17.5-12.1,27.3-9.8S100.6,60.5,100.6,60.5z"/>
		</g>
		<g>
			<circle class="st3" cx="124.4" cy="87.2" r="15"/>
		</g>
		<g>
			<circle class="st3" cx="75.7" cy="87.2" r="15"/>
		</g>
		<g>
			<path class="st11" d="M82.3,77.2c-1.9-1.2-4.1-2-6.5-2c-6.6,0-11.9,5.3-11.9,11.9c0,2.4,0.7,4.7,2,6.5L82.3,77.2z"/>
		</g>
		<g>
			<path class="st11" d="M131.2,77.2c-1.9-1.2-4.1-2-6.5-2c-6.6,0-11.9,5.3-11.9,11.9c0,2.4,0.7,4.7,2,6.5L131.2,77.2z"/>
		</g>
		<g>
			<polygon class="st12" points="102.7,115.3 105.2,120.5 107.7,115.3 			"/>
		</g>
		<g>
			<polygon class="st12" points="92.9,115.3 95.5,120.5 97.9,115.3 			"/>
		</g>
		<g>
			<path class="st24" d="M46.3,102.7C44.8,97.3,45,88.7,45,88.7s10.7,13.7,11.9,21.9c1.1,8.2-2.6,7.1-5.9,2.2
				C48.1,108.4,47.1,105.6,46.3,102.7z"/>
		</g>
		<g>
			<path class="st24" d="M74,48.8c-4.4,1.4-10.2,5.5-13.3,13.3c-3.2,8.4-4.9,20.2-2.7,31.4s-7.5-15.9-5.1-28.5s11.4-16.6,14.9-17.5
				S74,48.8,74,48.8z"/>
		</g>
		<g>
			<path class="st24" d="M100.5,63.7c3.4-5.6,14.9-13.2,28.6-6s12.4,21.4,9.8,33c-2.3,10.3-6.7,20.8-13.5,28.4
				c-8,9-16.9,12.9-25.3,13.6c-8.4,0.8-16-1.3-16-1.3s9.6,4,21.5,3.4s20.3-8.1,24.1-12.7c3.9-4.6,11.7-16.6,14.5-34.9
				s6-24.3-3.4-34.5s-17.1-12.2-25-8.6S101.9,56.5,101,59.6S100.5,63.7,100.5,63.7z"/>
		</g>
		<g>
			<path class="st24" d="M146.3,102c2.1-4.2,4-9.1,7.5-12.3c3.5-3.2,9.2-11.1,7.9-5.2s-2.4,13.6-4.9,19.5c-2.4,6-3.8,9.7-5.7,11.8
				c-1.9,2.1-5.7,2.8-7.2,0.6C142.4,114.1,144.1,106.5,146.3,102z"/>
		</g>
		<g>
			<path class="st12" d="M59,157.6c6.5-9.5,18.5-19.5,25.8-20.5c7.3-1,25.3-2.1,33,1c7.7,3.1,23.5,19.8,23.5,19.8s2.1,2.8-6.9,7.1
				s-21.6,10.5-40.1,9c-18.5-1.4-34.8-13-34.8-13L59,157.6z"/>
		</g>
		<g>
			<path class="st13" d="M100,142.2l4,31.9c0,0-4,1.3-4-0.1C100,168.9,100,142.2,100,142.2z"/>
		</g>
		<g>
			<path class="st13" d="M67.2,164.5c1.7-4.2,4.2-10.3,9-15.4c4.8-5.1,13-11.8,24-12.6s-15.1-3.3-21.9-0.4s-18.5,16.7-18.7,16.7
				c-0.2-0.1-1.2,7.7-1.2,7.7s2.8,3.7,4.9,4.1C65.4,164.8,67.2,164.5,67.2,164.5z"/>
		</g>
		<g>
			<path class="st13" d="M107.2,137.3c4.7,1.1,12.3,7.3,16,15.9c3.2,7.6,3.8,15.1,3.8,15.1l12.2-6.3c0,0-3.8-9.3-10.2-15.2
				c-6.4-5.9-13.3-8.4-16.6-9.2C109.1,136.7,107.2,137.3,107.2,137.3z"/>
		</g>
		<g>
			<path class="st8" d="M100,175c-39.1,0-71-31.9-71-71s31.9-71,71-71s71,31.9,71,71S139.1,175,100,175z M100,35c-38,0-69,31-69,69
				s31,69,69,69s69-31,69-69S138,35,100,35z"/>
		</g>
		<g>
			<path class="st8" d="M100.1,136.7C100,136.7,100,136.7,100.1,136.7c-0.6,0-1.1-0.5-1.1-1c0-0.5,0.5-1,1-1c0,0,0,0,0.1,0
				c1.2,0,20.1-0.3,31.8-16.6c12.5-17.6,12.9-44.1,12.9-47.1c0-12.4-10.1-22.5-22.5-22.5c-9.7,0-18.3,6.2-21.3,15.4
				c-0.1,0.4-0.5,0.7-0.9,0.7s-0.8-0.3-0.9-0.7c-3-9.2-11.6-15.4-21.3-15.4c-12.4,0-22.5,10.1-22.5,22.5c0,0.6-0.4,1-1,1s-1-0.4-1-1
				c0-13.5,11-24.5,24.5-24.5c9.7,0,18.4,5.7,22.3,14.4c3.9-8.7,12.6-14.4,22.3-14.4c13.5,0,24.4,11,24.5,24.4
				c0,3-0.4,30.2-13.3,48.2C121.3,136.4,101.4,136.7,100.1,136.7z"/>
		</g>
		<g>
			<path class="st8" d="M124.4,103.2c-8.8,0-16-7.2-16-16s7.2-16,16-16s16,7.2,16,16S133.2,103.2,124.4,103.2z M124.4,73.2
				c-7.7,0-14,6.3-14,14s6.3,14,14,14s14-6.3,14-14S132.1,73.2,124.4,73.2z"/>
		</g>
		<g>
			<path class="st8" d="M106.9,97.7c-0.2,0-0.4-0.1-0.5-0.3c-5.9-12.9,1.7-22.7,1.8-22.8c0.2-0.2,0.5-0.2,0.7-0.1
				c0.2,0.2,0.2,0.5,0.1,0.7c-0.1,0.1-7.4,9.4-1.7,21.7c0.1,0.3,0,0.5-0.2,0.7C107.1,97.7,107,97.7,106.9,97.7z"/>
		</g>
		<g>
			<path class="st8" d="M131,91.1c0-3-2.3-3.8-4.9-4.4v-6.4c1.4,0.3,2.7,0.9,3.3,2.1l1.1-0.6c-0.9-1.6-2.7-2.4-4.4-2.7v-2.5h-1v2.3
				h-1v-2.3h-1v2.5c-2.4,0.4-4.7,1.7-4.7,4.3c0.1,2.6,2.2,3.4,4.7,3.9v6.9c-1.6-0.3-3.3-1-4-2.4l-1.1,0.6c1,1.9,3.1,2.8,5.2,3.1v2.4
				h1v-2.3h1c0,0,0,0,0,0v2.3h1v-2.4C128.5,95.1,131,93.8,131,91.1z M124.5,80.1c0.2,0,0.3,0,0.5,0v6.4c-0.2,0-0.3-0.1-0.5-0.1
				c-0.2,0-0.4-0.1-0.6-0.1v-6.2C124.2,80.1,124.4,80.1,124.5,80.1z M119.6,83.3c-0.1-1.8,1.7-2.7,3.4-3.1v5.8
				C121,85.6,119.6,85,119.6,83.3z M124.5,94.3c-0.2,0-0.3,0-0.5,0v-6.8c0.1,0,0.2,0,0.4,0.1c0.2,0,0.5,0.1,0.7,0.1v6.6
				C124.9,94.3,124.7,94.3,124.5,94.3z M126.1,94.2v-6.2c2,0.5,3.7,1.2,3.7,3.2C129.8,93,127.9,93.9,126.1,94.2z"/>
		</g>
		<g>
			<path class="st8" d="M110.4,116.3H89.6c-0.6,0-1-0.4-1-1s0.4-1,1-1h20.8c0.6,0,1,0.4,1,1S111,116.3,110.4,116.3z"/>
		</g>
		<g>
			<path class="st8" d="M105.2,121.5c-0.4,0-0.7-0.2-0.9-0.6l-2.6-5.2c-0.2-0.3-0.1-0.7,0-1c0.2-0.3,0.5-0.5,0.8-0.5h5
				c0.3,0,0.7,0.2,0.8,0.5s0.2,0.7,0.1,1l-2.4,5.2C106,121.3,105.6,121.5,105.2,121.5C105.2,121.5,105.2,121.5,105.2,121.5z
				 M104.3,116.3l0.9,1.9l0.9-1.9H104.3z"/>
		</g>
		<g>
			<path class="st8" d="M95.5,121.5c-0.4,0-0.7-0.2-0.9-0.6l-2.6-5.2c-0.2-0.3-0.1-0.7,0-1c0.2-0.3,0.5-0.5,0.8-0.5h5
				c0.3,0,0.7,0.2,0.8,0.5s0.2,0.7,0.1,1l-2.4,5.2C96.2,121.3,95.9,121.5,95.5,121.5C95.5,121.5,95.5,121.5,95.5,121.5z M94.5,116.3
				l0.9,1.9l0.9-1.9H94.5z"/>
		</g>
		<g>
			<path class="st8" d="M99.2,25.1c0,0,22-1.3,35.7,8.4c13.6,9.6,16.8,24.5,13.8,40.8s-7.6,26-7.6,26s12.2-32.1-3.5-46.6
				s-31.6-0.2-33.4,2.1c-1.8,2.3-4.6,8-4.6,8L99.2,25.1z"/>
		</g>
		<g>
			<path class="st8" d="M142,122c-1.5,0-2.8-0.4-4-1.1c-3.1-1.9-3.8-5.7-3.8-5.9c-0.1-0.5,0.3-1.1,0.8-1.1c0.5-0.1,1.1,0.3,1.1,0.8
				c0,0,0.5,3.1,2.9,4.5c1.5,0.9,3.3,1,5.6,0.3c4.2-1.3,10.1-7.4,14.7-29.3c1.1-5.2,2.3-10.2,2.9-12.8c-1.7,0.8-4.7,2.6-8.6,6.4
				c-6.1,5.9-10.6,14.4-10.6,14.5c-0.3,0.5-0.9,0.7-1.3,0.4c-0.5-0.3-0.7-0.9-0.4-1.3c0.2-0.4,4.7-8.9,11-15
				c6.9-6.6,11.1-7.5,11.3-7.5c0.3-0.1,0.7,0,0.9,0.3c0.2,0.2,0.3,0.6,0.2,0.9c0,0.1-1.8,7.1-3.4,14.6c-3.8,18.4-9.2,28.8-16.1,30.8
				C144.2,121.8,143,122,142,122z"/>
		</g>
		<g>
			<path class="st8" d="M145.4,105c-0.1,0-0.2,0-0.4-0.1c-0.5-0.2-0.8-0.8-0.6-1.3c0.1-0.3,3-7.5,8.2-13.7c4.5-5.4,8.8-8.5,9-8.6
				c0.4-0.3,1.1-0.2,1.4,0.2c0.3,0.4,0.2,1.1-0.2,1.4c0,0-4.3,3.1-8.6,8.3c-5,5.9-7.8,13.1-7.9,13.2
				C146.2,104.8,145.8,105,145.4,105z"/>
		</g>
		<g>
			<path class="st8" d="M147.1,118.4c-1,0-1.9-0.3-2.8-1c-3.3-2.4-1-8.8-0.9-9.1c0.1-0.3,0.4-0.4,0.6-0.3c0.3,0.1,0.4,0.4,0.3,0.6
				c0,0.1-2.1,5.9,0.6,7.9c1,0.7,1.9,1,2.9,0.7c2-0.5,3.8-2.7,4.8-4.6c0.1-0.2,0.4-0.3,0.7-0.2c0.2,0.1,0.3,0.4,0.2,0.7
				c-1.1,2.1-3.1,4.6-5.4,5.1C147.7,118.3,147.4,118.4,147.1,118.4z"/>
		</g>
		<g>
			<path class="st8" d="M138.4,163.5c-0.4,0-0.8-0.2-0.9-0.7c-5.8-15.6-20.8-26.1-37.5-26.1c-16.6,0-31.7,10.5-37.5,26.1
				c-0.2,0.5-0.8,0.8-1.3,0.6c-0.5-0.2-0.8-0.8-0.6-1.3c6.1-16.4,21.9-27.4,39.3-27.4c17.5,0,33.3,11,39.4,27.4
				c0.2,0.5-0.1,1.1-0.6,1.3C138.6,163.4,138.5,163.5,138.4,163.5z"/>
		</g>
		<g>
			<path class="st8" d="M115,132.7c-4.6,1.9-9.6,2.9-14.8,3v0c17.6,0,32.6,11.1,38.4,26.7c4.9-3.1,9.5-7,13.6-12
				C141.7,141.5,129,135.3,115,132.7z"/>
		</g>
		<g>
			<path class="st8" d="M100.1,136.7c-1.4,0-21.2-0.3-33.4-17.4C53.6,101,53.3,73.6,53.3,70.5c0-0.6,0.4-1,1-1h0c0.6,0,1,0.4,1,1
				c0,1.2,0.1,29.5,13,47.6c11.9,16.7,31.6,16.6,31.8,16.6c0,0,0,0,0,0c0.5,0,1,0.4,1,1C101.2,136.2,100.7,136.7,100.1,136.7
				C100.2,136.7,100.1,136.7,100.1,136.7z"/>
		</g>
		<g>
			<path class="st8" d="M75.7,103.2c-8.8,0-16-7.2-16-16s7.2-16,16-16s16,7.2,16,16S84.5,103.2,75.7,103.2z M75.7,73.2
				c-7.7,0-14,6.3-14,14s6.3,14,14,14s14-6.3,14-14S83.4,73.2,75.7,73.2z"/>
		</g>
		<g>
			<path class="st8" d="M93.2,97.7c-0.1,0-0.1,0-0.2,0c-0.3-0.1-0.4-0.4-0.2-0.7c5.7-12.3-1.6-21.6-1.7-21.7
				c-0.2-0.2-0.1-0.5,0.1-0.7c0.2-0.2,0.5-0.1,0.7,0.1c0.1,0.1,7.8,9.9,1.8,22.8C93.6,97.6,93.4,97.7,93.2,97.7z"/>
		</g>
		<g>
			<path class="st8" d="M82.3,91.1c0-3-2.3-3.8-4.9-4.4v-6.4c1.4,0.3,2.7,0.9,3.3,2.1l1.1-0.6c-0.9-1.6-2.7-2.4-4.4-2.7v-2.5h-1v2.3
				h-1v-2.3h-1v2.5c-2.4,0.4-4.7,1.7-4.7,4.3c0.1,2.6,2.2,3.4,4.7,3.9v6.9c-1.6-0.3-3.3-1-4-2.4l-1.1,0.6c1,1.9,3.1,2.8,5.2,3.1v2.4
				h1v-2.3h1c0,0,0,0,0,0l0,2.3h1v-2.4C79.8,95.1,82.3,93.8,82.3,91.1z M75.8,80.1c0.2,0,0.3,0,0.5,0v6.4c-0.2,0-0.3-0.1-0.5-0.1
				c-0.2,0-0.4-0.1-0.6-0.1v-6.2C75.5,80.1,75.7,80.1,75.8,80.1z M70.9,83.3c-0.1-1.8,1.7-2.7,3.4-3.1v5.8
				C72.3,85.6,70.9,85,70.9,83.3z M75.8,94.3c-0.2,0-0.3,0-0.5,0v-6.8c0.1,0,0.2,0,0.4,0.1c0.2,0,0.5,0.1,0.7,0.1v6.6
				C76.2,94.3,76,94.3,75.8,94.3z M77.4,94.2v-6.2c2,0.5,3.7,1.2,3.7,3.2C81.1,93,79.2,93.9,77.4,94.2z"/>
		</g>
		<g>
			<path class="st8" d="M101,25.1c0,0-22-1.3-35.7,8.4c-13.6,9.6-16.8,24.5-13.8,40.8s7.6,26,7.6,26S47,68.1,62.6,53.6
				s31.6-0.2,33.4,2.1c1.8,2.3,4.6,8,4.6,8L101,25.1z"/>
		</g>
		<g>
			<path class="st8" d="M58.1,122c-1,0-2.1-0.2-3.3-0.5C48,119.4,42.6,109,38.7,90.7c-1.5-7.5-3.3-14.5-3.4-14.6
				c-0.1-0.3,0-0.7,0.2-0.9c0.2-0.3,0.6-0.4,0.9-0.3c0.2,0,4.4,0.9,11.3,7.5c6.4,6.1,10.8,14.6,11,15c0.3,0.5,0.1,1.1-0.4,1.3
				c-0.5,0.3-1.1,0.1-1.3-0.4c0-0.1-4.5-8.6-10.6-14.5c-3.9-3.8-6.9-5.6-8.6-6.4c0.6,2.6,1.8,7.6,2.9,12.8
				c4.5,21.9,10.5,28,14.7,29.3c2.3,0.7,4.2,0.6,5.6-0.3c2.3-1.4,2.9-4.5,2.9-4.5c0.1-0.5,0.6-0.9,1.2-0.8c0.5,0.1,0.9,0.6,0.8,1.1
				c0,0.2-0.7,4-3.8,5.9C60.9,121.6,59.6,122,58.1,122z"/>
		</g>
		<g>
			<path class="st8" d="M54.7,105c-0.4,0-0.8-0.2-0.9-0.6c0-0.1-2.8-7.3-7.8-13.1c-2.4-2.8-4.1-4.4-4.1-4.4c-0.4-0.4-0.4-1,0-1.4
				c0.4-0.4,1-0.4,1.4,0c0.1,0.1,1.8,1.7,4.3,4.6c5.2,6.1,8.1,13.4,8.2,13.7c0.2,0.5-0.1,1.1-0.6,1.3C55,105,54.8,105,54.7,105z"/>
		</g>
		<g>
			<path class="st8" d="M53.1,118.4c-0.3,0-0.6,0-1-0.1c-2.3-0.5-4.3-3-5.4-5.1c-0.1-0.2,0-0.5,0.2-0.7c0.2-0.1,0.5,0,0.7,0.2
				c1,1.9,2.8,4.2,4.8,4.6c1,0.2,2,0,2.9-0.7c2.7-2,0.6-7.9,0.6-7.9c-0.1-0.3,0-0.5,0.3-0.6c0.3-0.1,0.5,0,0.6,0.3
				c0.1,0.3,2.3,6.6-0.9,9.1C55,118,54.1,118.4,53.1,118.4z"/>
		</g>
		<g>
			<path class="st8" d="M85.2,132.7c4.6,1.9,9.6,2.9,14.8,3v0c-17.6,0-32.6,11.1-38.4,26.7c-4.9-3.1-9.5-7-13.6-12
				C58.5,141.5,71.2,135.3,85.2,132.7z"/>
		</g>
		<g>
			<path class="st8" d="M100,174.5c-0.3,0-0.5-0.2-0.5-0.5v-32.8c0-0.3,0.2-0.5,0.5-0.5s0.5,0.2,0.5,0.5V174
				C100.5,174.3,100.3,174.5,100,174.5z"/>
		</g>
		<g>
			<path class="st12" d="M65.5,104.7c0.8,0.7,3.1,1.6,6.1,1.9c2.6,0.3,5,0,5,0s0.4,4.4,3.1,10.7c2.4,5.8,5.4,7.9,5.4,7.9
				s-8.4-4.3-13.8-10.6C67.7,110.5,65.5,104.7,65.5,104.7z"/>
		</g>
		<g>
			<path class="st12" d="M63.7,69.5c0,0,2.1-3,8.1-4.2c4.7-1,7.2,0.2,7.2,0.2s0.7-10.6-3.3-11.6c-4.1-1-8.7,5.4-10.3,9.6
				C64.5,66,63.7,69.5,63.7,69.5z"/>
		</g>
		<g>
			<path class="st21" d="M85,30.7c-10.8,1.9-20,7.7-24.8,14.3c0,0,5.7-4.3,15-4.6c11.1-0.3,15.5,4.6,15.5,4.6s-0.5-2.9,0.7-7.8
				c1.4-5.5,4.4-7.7,4.4-7.7S94.1,29.1,85,30.7z"/>
		</g>
	</g>
</g>
</svg>
