<?xml version="1.0" encoding="utf-8"?>
<!-- Generator: Adobe Illustrator 21.1.0, SVG Export Plug-In . SVG Version: 6.00 Build 0)  -->
<svg version="1.1" xmlns="http://www.w3.org/2000/svg" xmlns:xlink="http://www.w3.org/1999/xlink" x="0px" y="0px"
	 viewBox="0 0 200 200" style="enable-background:new 0 0 200 200;" xml:space="preserve">
<style type="text/css">
	.st0{fill:none;stroke:#B3C0C7;stroke-miterlimit:10;}
	.st1{fill:#778085;}
	.st2{fill:#FD7E23;}
	.st3{fill:#30E6B6;}
	.st4{fill:#29C49B;}
	.st5{fill:#FDD353;}
	.st6{fill:#FDE4D2;}
	.st7{fill:#F2C2A0;}
	.st8{fill:#4D5052;}
	.st9{fill:#FD6A5D;}
	.st10{fill:#D1584D;}
	.st11{fill:#B8FFEC;}
	.st12{fill:#FFFFFF;}
	.st13{fill:#C9C9C9;}
	.st14{fill:#1DAAF1;}
	.st15{fill:#1682B8;}
	.st16{fill:#5EC9FF;}
	.st17{fill:#DB5F07;}
	.st18{fill:#C4F2EB;}
	.st19{fill:#B4DED7;}
	.st20{fill:#ABABAB;}
	.st21{fill:#757575;}
	.st22{fill:#878787;}
	.st23{fill:#C9EDFF;}
	.st24{fill:#93C2D9;}
	.st25{fill:#FDA29A;}
	.st26{fill:#9C9C9C;}
	.st27{fill:url(#SVGID_1_);}
	.st28{fill:url(#SVGID_2_);}
	.st29{fill:url(#SVGID_3_);}
	.st30{fill:url(#SVGID_4_);}
	.st31{fill:#A5F2DE;}
</style>
<g id="marks">
</g>
<g id="icons">
	<g>
		<path class="st13" d="M63.7,69.7c0,0-0.8,4.8,4.1,8.2s12.5,5.4,12.5,5.4s-4,2.1-10.3,1.2s-12.3-5.6-12.3-5.6s-2.1-2.1,0.7-4.8
			S63.7,69.7,63.7,69.7z"/>
		<path class="st13" d="M58.4,86c0,0,4.2,1.4,8,3.8c3.8,2.3,4.8,7.1,4.8,7.1s7.6-5.1,7.2-5s-7.6-4.5-11.6-5.9
			c-4-1.3-8.3-5.7-8.3-5.7V86z"/>
		<path class="st13" d="M68.4,44.2c0,0,2.7,2,8.4,3.4c5.7,1.3,12.9,4.2,12.9,4.2s-9-2.1-13.5-1.5s-9.1,1.5-9.1,1.5L68.4,44.2z"/>
		<path class="st13" d="M105.5,89.2l4.1,7.4c0,0,4.5,3.1,5.9,4.4s-0.7,5.7-0.7,5.7l5.2,1.6c0,0-0.2,3.1-5.9,3.2s-20.2,0.8-20.1,0.8
			s19.6,3,19.6,3l-3,2.4c0,0-1.7,4.6-6.2,7.7s-7.6,3-7.6,3s12.2,0.8,17.5-3.7s9.2-10.2,11.1-13.8c1.9-3.6,2.2-5.1,2-5
			s2.9-0.1,2.9-0.1l1-8.8c0,0-2-1.9-8.5-2.3s-14.3-3.6-14.3-3.6L105.5,89.2z"/>
		<path class="st13" d="M85.5,153.4c0,0,4.7,2,17.6,3.1s27.6,1.2,27.6,1.2l8.4,4.2c0,0-2.8,1.8-13,2s-20.9-2.1-29.5-4.9
			S85.5,153.4,85.5,153.4z"/>
		<path class="st13" d="M69.4,145.1c0.2,0,13.9-6.5,13.9-6.5l19,1.9c0,0-3.9,2.6-11.1,4.5S69.4,145.1,69.4,145.1z"/>
		<path class="st13" d="M64.8,164.1c0.9,0.2,8.9,4.3,27.2,2.9s25-3.2,25-3.2l20.6-1.2c0,0-10,6.8-20.6,9.3s-20.5,3.1-30.4,1
			S64.8,164.1,64.8,164.1z"/>
		<path class="st13" d="M128.5,135c0,0.1-6.7,6.6-6.7,6.6l-10-2.5l13.4-5.8L128.5,135z"/>
		<polygon class="st13" points="145.3,148.1 150.4,144.8 153.6,148.1 151.1,151.7 		"/>
		<path class="st13" d="M99.5,134.4c0,0,8,0.7,13.3-1.8c5.3-2.5,7.8-7.7,7.8-7.7l4.8,8.1c0,0-5.2,3.1-10.5,5
			C109.6,139.9,99.5,134.4,99.5,134.4z"/>
		<path class="st13" d="M59.7,129.8l4.7-16.9l6.6-3.6l1.6,2.2l2.2-1.2l3.5,6.4c0,0-5.8,0.2-9.9,4S59.7,129.8,59.7,129.8z"/>
		<path class="st13" d="M125,94c0.3,0.1,15.5-4.8,15.5-4.8l-6.2,7.2l-4.1,0.8L125,94z"/>
		<path class="st13" d="M117.6,79.7c0.4,0,12.8-10,12.8-10l6.8,2.6l-2.5,3.1l-11.8,5.3L117.6,79.7z"/>
		<polygon class="st13" points="119.6,56.4 115.5,46.3 101.3,46.3 		"/>
		<path class="st13" d="M90.5,44.4c0.4,0,12.9,0.8,21-2.4s11.4-6.4,11.4-6.4l5.7,6.1c0,0-5.1,3.2-10.6,3.9s-16.6,0.9-20.9,0.3
			S90.5,44.4,90.5,44.4z"/>
		<path class="st13" d="M126.6,29.1l1.2,9.4c0,0-6.3-4.5-6.4-4.7s-2.6-2.6-2.6-2.6L126.6,29.1z"/>
		<path class="st13" d="M111.8,85c0,0,7.8,3.2,16.2,0s11.8-7.1,11.8-7.1s1,1.3,0.5,4.3s-3.9,6.1-8.6,7.6c-4.7,1.5-7.6,1.6-12.2,0.9
			C115,90,111.8,85,111.8,85z"/>
		<circle class="st9" cx="84.4" cy="72.3" r="4.5"/>
		<path class="st9" d="M115.9,76.8c-2.5,0-8.9-2.2-8.9-4.7c0-2.5,4.5-3,7-3s6.5,0.7,6.5,3.2C120.4,74.7,118.3,76.8,115.9,76.8z"/>
		<path class="st14" d="M118.7,122.7l6.4-11.2l2.4-4.8l3.7-2l-0.3-8.4c0,0,1.1,0.3,5.8-3.4s7.3-5.8,7.3-5.8s2.2-4.1,0-8.2
			s-4.2-7.6-4.2-7.6l-2.6,1.7l-2.2-2.1c0,0,2.2-0.4,2.4-4.1s-0.4-9.8-0.4-9.8l-2.5,0.2c0,0-0.6-5.7-1.6-9.8s-2.6-6.6-2.6-6.6
			s20.1,5.7,32.5,32.2s7,47.1,1.4,58.1s-9.7,17.5-9.7,17.5l-4.3-3.2l0.8-2.2l-9.4-6.9l-2.3,2.8c0,0-14-5.8-14-5.8
			c0,0-2.9-6.8-2.9-6.8l-1.9-3.4l-1.6,1.4L118.7,122.7z"/>
		<path class="st15" d="M145,50c0,0,1.8,5.1,1.9,7.3s1.3,1.1,2.5,2S149,71.8,149,71.8s2.8,1.5,3.8,7.1s-1.9,10.3-1.9,10.3
			s-2.6,6.6-5.6,8.7s-4.9,1.8-4.9,1.8s-1,7.7-2.8,9.1c-1.8,1.4-2.1,3.7-4.1,8.4s-4.2,5.6-4.2,5.6l3.5,5.6c0,0,5.5,1.3,8.3,1.9
			s1.8-1.8,5.8,0s8.6,5.3,8.6,5.3v2.7l3.8,1.6l-5.7,8.6l-3.2-3.8c0,0,1.5-0.4-0.9-2.4c-2.4-2.1-7.5-5.4-7.5-5.4l-2.9,2.2l-14-5.8
			l-4.8-9.4l-1.7,1.5l0.1-4.4c0,0,5.2-8.1,7.8-12.2c2.5-4.1,3.7-3,3.7-3v-8.6c0,0,6-1.3,8.3-4.9c2.3-3.6,4.9-4.6,4.9-4.6
			s0.3-8-1.1-12.4s-2.9-3.3-4-2.8s-2.2-0.8-2.2-0.8s0.9-4.9,1-7.8s-0.2-6.9-0.2-6.9l-2.2-0.9c0,0-5.1-15.9-4.5-15.4S145,50,145,50z"
			/>
		<path class="st14" d="M77.6,115.8c-0.9,0.5-12.4,6.6-14.1,9.9c-1.7,3.4-6.9,6.5-13.5,5.9c-6.6-0.6-2.5-7.2-2.5-7.2l-5.3-3.3
			l0.6-11.3c0,0,8.8,1.5,10.3,1.5c1.5,0,1.8,3.1-1.6,4.4c-3.4,1.3-3.2,4.4,1.9,4.3c5.1-0.1,7.1-4.5,10-7.1c2.8-2.6,7.5-3.6,7.5-3.6
			l1.3,2.3l0,0l-3.1-6.9l0.3-8.4c0,0-3.3,0.9-8-2.8s-2.6-13.3-2.6-13.3s-2.4-2.2-1.8-4.1c1.5-4.4,3.4-4.9,3.4-4.9l6.5-3.2l-0.6-3.2
			c0,0-2.7,2.7-2.9-1.1s0.8-10.4,0.8-10.4l1.6-1.1c0,0,0.5-0.9,1.5-5s2.6-6.6,2.6-6.6S50,46.5,37.6,73s-7,47.1-1.4,58.1
			s9.7,17.5,9.7,17.5l1-4.7l4.6-2.3l1.2,1l8.3-3.5c0,0,17.8-5.3,12.3-6.5l2.9-3.2l3.6-6.4l1.6,1.4l0.1-1.7L77.6,115.8z"/>
		<g>
			<path class="st8" d="M100,174.7c-39.1,0-71-31.9-71-71c0-27.5,16.1-52.8,41.1-64.4c0.5-0.2,1.1,0,1.3,0.5c0.2,0.5,0,1.1-0.5,1.3
				C46.7,52.4,31,76.9,31,103.7c0,38,31,69,69,69s69-31,69-69c0-28.3-16.9-53.4-43.1-64c-0.5-0.2-0.8-0.8-0.6-1.3
				c0.2-0.5,0.8-0.8,1.3-0.6c27,10.9,44.4,36.8,44.4,65.8C171,142.8,139.1,174.7,100,174.7z"/>
		</g>
		<g>
			<path class="st8" d="M100,129.8c-0.5,0-11.4-0.1-19.7-8.7c-2.7-2.8-5-6.2-6.8-10c-0.2-0.5,0-1.1,0.5-1.3c0.5-0.2,1.1,0,1.3,0.5
				c1.7,3.6,3.8,6.8,6.4,9.5c7.8,8,18.2,8.1,18.3,8.1c0.1,0,10.5-0.1,18.3-8.1c3.7-3.8,6.5-8.6,8.3-14.2c0.2-0.5,0.7-0.8,1.3-0.6
				c0.5,0.2,0.8,0.7,0.6,1.3c-1.9,5.9-4.8,11-8.7,15C111.4,129.7,100.5,129.8,100,129.8z"/>
		</g>
		<g>
			<path class="st8" d="M69.7,97.7c-1.4,0-3.8-0.3-6.3-2.1c-4-2.8-7.9-8.8-5.8-16c0.1-0.5,0.7-0.8,1.2-0.7c0.5,0.1,0.8,0.7,0.7,1.2
				c-1.8,6.3,1.6,11.4,5.1,13.9c3,2.1,5.8,1.7,5.9,1.7c0.5-0.1,1.1,0.3,1.2,0.8c0.1,0.5-0.3,1.1-0.8,1.2
				C70.8,97.7,70.4,97.7,69.7,97.7z"/>
		</g>
		<g>
			<path class="st8" d="M66.9,71.3c-0.5,0-0.9-0.3-1-0.8c0-0.1-0.4-1.6-0.5-4.5c0-0.6,0.4-1,0.9-1.1c0.5,0,1,0.4,1.1,0.9
				c0.2,2.8,0.5,4.2,0.5,4.2c0.1,0.5-0.2,1.1-0.8,1.2C67.1,71.3,67,71.3,66.9,71.3z"/>
		</g>
		<g>
			<path class="st8" d="M128.3,42.8c-0.3,0-0.7-0.2-0.9-0.5c-6-9.7-15.7-15-27.5-15c-10.9,0-19.9,4.4-26,12.7
				c-0.3,0.4-1,0.5-1.4,0.2c-0.4-0.3-0.5-1-0.2-1.4c6.5-8.9,16-13.6,27.6-13.6c12.5,0,22.8,5.7,29.2,15.9c0.3,0.5,0.1,1.1-0.3,1.4
				C128.7,42.7,128.5,42.8,128.3,42.8z"/>
		</g>
		<g>
			<path class="st8" d="M137.6,74.1c-0.3,0-0.5-0.1-0.7-0.3c-1.7-1.7-3.3-2-3.3-2c-0.5-0.1-0.9-0.6-0.8-1.2c0.1-0.5,0.6-0.9,1.2-0.8
				c0.1,0,2.1,0.4,4.3,2.6c0.4,0.4,0.4,1,0,1.4C138.1,74,137.9,74.1,137.6,74.1z"/>
		</g>
		<g>
			<path class="st8" d="M153.4,149.9c-0.4,0-0.8-0.2-0.9-0.6c0,0-0.7-1.6-3.1-3.7c-0.4-0.4-0.5-1-0.1-1.4c0.4-0.4,1-0.5,1.4-0.1
				c2.8,2.4,3.6,4.3,3.7,4.5c0.2,0.5-0.1,1.1-0.6,1.3C153.6,149.9,153.5,149.9,153.4,149.9z"/>
		</g>
		<g>
			<path class="st8" d="M139.4,140c-0.1,0-0.2,0-0.3-0.1c-1.6-0.6-3.2-1.1-4.9-1.6c-3.5-1.1-7.2-2.3-10.2-3.9
				c-0.5-0.3-0.7-0.9-0.4-1.4s0.9-0.7,1.4-0.4c2.8,1.5,6.4,2.6,9.8,3.7c1.6,0.5,3.3,1.1,4.9,1.6c0.5,0.2,0.8,0.8,0.6,1.3
				C140.2,139.8,139.8,140,139.4,140z"/>
		</g>
		<g>
			<path class="st8" d="M118.7,126.4c-0.5,0-0.9-0.3-1-0.8c-0.5-3.2,0.3-5.5,0.4-5.6c0.2-0.5,0.8-0.8,1.3-0.6
				c0.5,0.2,0.8,0.8,0.6,1.3c0,0-0.7,1.9-0.3,4.5c0.1,0.5-0.3,1.1-0.8,1.1C118.8,126.4,118.7,126.4,118.7,126.4z"/>
		</g>
		<g>
			<path class="st8" d="M52.6,144.1c-0.3,0-0.6-0.2-0.8-0.4c-0.3-0.5-0.2-1.1,0.3-1.4c0.9-0.6,2-1.3,3.1-1.8c3-1.6,6.7-2.8,10.3-4
				c3-0.9,6-1.9,8.6-3.1c0.5-0.2,1.1,0,1.3,0.5c0.2,0.5,0,1.1-0.5,1.3c-2.7,1.2-5.8,2.2-8.8,3.2c-3.5,1.1-7.2,2.3-10,3.8
				c-1,0.6-2,1.1-2.9,1.7C53,144,52.8,144.1,52.6,144.1z"/>
		</g>
		<g>
			<path class="st8" d="M81.4,125.7C81.4,125.7,81.4,125.7,81.4,125.7c-0.6,0-1-0.5-1-1.1c0.2-2.2-0.1-3.4-0.1-3.4
				c-0.1-0.5,0.2-1.1,0.8-1.2c0.5-0.1,1.1,0.2,1.2,0.7c0,0.1,0.3,1.4,0.1,4C82.4,125.3,81.9,125.7,81.4,125.7z"/>
		</g>
		<g>
			<path class="st8" d="M131.1,71.8c-3.4,0-8.1-0.1-12.5-0.7c-5.1-0.7-11-1.9-17.8-3.2c-4.4-0.9-9-1.8-13.8-2.7
				c-11.9-2.2-22.7,1.3-22.8,1.3c-0.3,0.1-0.5,0.1-0.8-0.1C63.2,66.3,63,66,63,65.8c0-0.1-0.8-2.7-0.5-6.7c0.3-4.1,1.6-6.4,1.6-6.5
				c0.1-0.2,0.3-0.3,0.5-0.4c0.2-0.1,5.4-2.3,15.1-2.1c8.7,0.2,24.8,2.9,35.9,5.1c8.5,1.7,21.6,0.9,21.7,0.9c0.3,0,0.5,0.1,0.7,0.3
				c0.2,0.2,0.3,0.5,0.3,0.7c0,0,0,2.1,0,5c0,4.3-1.2,8.7-1.3,8.9c-0.1,0.4-0.5,0.7-0.9,0.7C136.1,71.7,134.1,71.8,131.1,71.8z
				 M78.7,62.4c2.7,0,5.7,0.2,8.7,0.8c4.8,0.9,9.4,1.8,13.8,2.7c6.8,1.4,12.7,2.5,17.7,3.2c6.8,0.9,14.1,0.7,16.4,0.6
				c0.3-1.4,1-4.6,1-7.7c0-1.6,0-3,0-3.9c-3.4,0.2-13.8,0.5-21.2-1c-11.1-2.2-27-4.9-35.6-5.1c-7.8-0.2-12.6,1.3-13.9,1.8
				c-0.3,0.7-1.1,2.6-1.2,5.4c-0.1,2.2,0.1,4,0.2,5C66.8,63.7,72.1,62.4,78.7,62.4z"/>
		</g>
		<g>
			<path class="st8" d="M121.3,58c-0.2,0-0.4-0.1-0.6-0.2c-0.1-0.1-12.6-8.7-25.5-11.3c-11.4-2.3-20.9-5.6-23.3-6.5
				c-0.6,0.6-1.8,2.1-2.7,4.3c-1.2,3.2-1.3,8-1.3,8c0,0.6-0.5,0.9-1,1c-0.6,0-1-0.5-1-1c0-0.2,0.1-5.1,1.4-8.7
				c1.4-3.7,3.6-5.5,3.7-5.6c0.3-0.2,0.7-0.3,1-0.2c0.1,0,10.6,4,23.6,6.6c13.3,2.6,25.7,11.2,26.3,11.6c0.5,0.3,0.6,0.9,0.2,1.4
				C121.9,57.8,121.6,58,121.3,58z"/>
		</g>
		<g>
			<path class="st8" d="M135.4,58.1c-0.5,0-0.9-0.4-1-0.9c0,0-0.6-5-1.6-8c-0.9-2.7-2.1-5.5-2.8-7c-1.4,0.9-4.2,2.3-9.5,3.9
				c-10.2,3-24.4,0.7-24.5,0.7c-0.5-0.1-0.9-0.6-0.8-1.2c0.1-0.5,0.6-0.9,1.2-0.8c0.2,0,13.9,2.2,23.5-0.7c7.5-2.2,9.7-4.2,9.8-4.2
				c0.2-0.2,0.6-0.3,0.9-0.2c0.3,0.1,0.6,0.3,0.7,0.5c0.1,0.2,2.1,4.4,3.4,8.4c1.1,3.2,1.6,8.2,1.7,8.4c0.1,0.5-0.3,1-0.9,1.1
				C135.5,58.1,135.5,58.1,135.4,58.1z"/>
		</g>
		<g>
			<path class="st8" d="M121.9,95.3c-2.6,0-5.2-0.4-7.7-1.1c-3.2-0.9-5.3-2.1-7.1-3c-1.8-1-3.2-1.7-5-1.8c-3.7-0.2-7.3,1.6-10.1,3.1
				c-1.1,0.6-2.2,1.1-3.2,1.5c-6.2,2.4-11-0.4-15.7-3.8c-2.4-1.7-4.9-2.7-7.1-3.5c-2.5-0.9-4.6-1.8-6-3.3c-3.3-3.7-4.1-6.6-4.1-6.7
				c-0.1-0.2,0-0.5,0.1-0.7c0.1-0.2,2-4,5-6c2.8-1.9,4.8-2.5,4.8-2.5c0.5-0.2,1.1,0.2,1.2,0.7c0.2,0.5-0.2,1.1-0.7,1.2
				c0,0-1.7,0.5-4.3,2.2c-2,1.4-3.6,3.9-4.1,4.9c0.3,0.8,1.3,2.9,3.6,5.5c1.1,1.2,3,1.9,5.2,2.8c2.3,0.9,5,1.9,7.6,3.8
				c5.3,3.7,9,5.4,13.9,3.5c0.9-0.3,1.9-0.9,3-1.4c3.1-1.6,6.9-3.6,11.2-3.3c2.2,0.1,3.9,1,5.8,2.1c1.7,0.9,3.7,2,6.7,2.8
				c5.8,1.7,12,1.2,18.2-1.2c5.8-2.3,8.8-4.7,9.5-5.3c0.3-0.8,1.1-3.9,0-7.4c-0.8-2.5-2-4.6-2.7-5.6c-1.7,1.2-5.7,4-8.5,5.5
				l-0.4,0.2c-4.3,2.3-6.9,3.6-13,3.1c-5.2-0.4-9.3-1.2-14.1-3.9c-2.7-1.6-6-0.3-8.9,0.9c-1.1,0.4-2.1,0.8-3.1,1.1l-0.1,0
				c-3.6,0.9-8.5,2.1-15.2,0C67.8,76.8,66,70.8,66,70.6c-0.1-0.5,0.2-1.1,0.7-1.2c0.5-0.1,1.1,0.2,1.2,0.7c0.1,0.2,1.6,5.3,9.2,7.7
				c6.2,2,10.7,0.8,14.1,0l0.1,0c0.8-0.2,1.8-0.6,2.9-1c3.1-1.2,7-2.8,10.6-0.7c4.4,2.5,8.2,3.3,13.3,3.7c5.5,0.5,7.8-0.7,11.9-2.9
				l0.4-0.2c3.5-1.9,9.1-5.9,9.1-5.9c0.4-0.3,1-0.2,1.4,0.2c0.1,0.1,2.3,3,3.5,7.1c1.5,4.7-0.1,8.7-0.2,8.9
				c-0.1,0.1-0.1,0.3-0.2,0.4c-0.1,0.1-3.2,3-10.3,5.8C129.7,94.6,125.7,95.3,121.9,95.3z"/>
		</g>
		<g>
			<path class="st8" d="M125.7,70.8c0,0-2.4-0.4-6.3-1c0.4,0.7,0.7,1.5,0.7,2.4c0,2.5-2,4.5-4.5,4.5c-2.5,0-4.5-2-4.5-4.5
				c0-1.4,0.7-2.6,1.7-3.5c-6.5-1.1-14.5-2.5-21.8-3.9c-4.9-1-15.2-1.9-24.3,0.3l0.2,5.1c0,0,2.9,7.3,13.5,9.3
				c3.7,0.7,10.2-0.7,15.8-2.6c5.6-1.9,6.5-0.7,6.5-0.7s5.4,3.2,11,3.8c8.5,1,11.8-1.9,14.3-4.4c3.3-3.4,3.3-4.9,3.3-4.9L125.7,70.8
				z M84.4,76.8c-2.5,0-4.5-2-4.5-4.5c0-2.5,2-4.5,4.5-4.5s4.5,2,4.5,4.5C88.9,74.7,86.9,76.8,84.4,76.8z"/>
		</g>
		<g>
			<path class="st8" d="M102.9,37.7c-1.2,0-2.3,0-3.6-0.1c-12.9-0.8-19.5-3.9-19.8-4c-0.5-0.2-0.7-0.8-0.5-1.3
				c0.2-0.5,0.8-0.7,1.3-0.5c0.1,0,6.6,3.1,19,3.8c12.4,0.7,21.4-2.8,21.5-2.9c0.5-0.2,1.1,0,1.3,0.6c0.2,0.5,0,1.1-0.6,1.3
				C121.3,34.7,113.8,37.7,102.9,37.7z"/>
		</g>
		<g>
			<path class="st8" d="M91.5,36.7c-0.3,0-0.5-0.1-0.7-0.3c-0.4-0.4-0.4-1,0-1.4c0.4-0.4,9.6-9.6,18.2-8.6c0.5,0.1,0.9,0.6,0.9,1.1
				c-0.1,0.5-0.6,0.9-1.1,0.9c-7.7-0.9-16.4,8-16.5,8C92.1,36.6,91.8,36.7,91.5,36.7z"/>
		</g>
		<g>
			<path class="st8" d="M126.2,39.8c-0.4,0-0.8-0.3-0.9-0.7c-0.2-0.5,0.1-1.1,0.6-1.3c4.3-1.5,8.2-1.1,10.5-0.6l-3.3-7.5
				c-1.2-0.2-4.4-0.5-8,0.4c-4,0.9-6.1,2.3-6.2,2.3c-0.5,0.3-1.1,0.2-1.4-0.3c-0.3-0.5-0.2-1.1,0.3-1.4c0.1-0.1,2.4-1.6,6.8-2.6
				c4.9-1.1,9.1-0.3,9.3-0.3c0.3,0.1,0.6,0.3,0.7,0.6l4.3,10c0.2,0.4,0.1,0.8-0.2,1.1s-0.7,0.4-1.1,0.2c-0.1,0-5.4-2-11.3,0
				C126.5,39.7,126.4,39.8,126.2,39.8z"/>
		</g>
		<g>
			<path class="st8" d="M62.4,94.5C62.4,94.5,62.4,94.5,62.4,94.5c-0.6,0-1-0.5-1-1c0-0.2,0.1-5.1,9.3-6.7c0.5-0.1,1.1,0.3,1.2,0.8
				s-0.3,1.1-0.8,1.2c-7.4,1.3-7.7,4.8-7.7,4.8C63.4,94.1,63,94.5,62.4,94.5z"/>
		</g>
		<g>
			<path class="st8" d="M127.2,106.7c-0.9,0-3.5-0.1-6.7-1.5c-2.9-1.2-5.1-3-7.2-4.9c-1.6-1.4-3.1-2.7-4.8-3.5
				c-3.2-1.5-5.5-1.6-9.3-1.6c-0.6,0-1.2,0-1.9,0c-1.5,0-3,0.1-4.5,0.1c-3.2,0.2-6.6,0.4-10.4-0.7c-0.5-0.1-0.8-0.7-0.7-1.2
				c0.1-0.5,0.7-0.8,1.2-0.7c3.5,1,6.6,0.8,9.8,0.6c1.5-0.1,3-0.2,4.6-0.1c0.7,0,1.3,0,1.9,0c3.9,0,6.6,0.1,10.1,1.8
				c1.9,0.9,3.5,2.3,5.2,3.7c2,1.7,4.1,3.5,6.6,4.5c3.5,1.5,6.2,1.3,6.2,1.3l1.7,0l0.6-7.5c0-0.5,0.5-1,1.1-0.9c0.6,0,1,0.5,0.9,1.1
				l-0.7,8.4c0,0.5-0.5,0.9-1,0.9c0,0,0,0,0,0l-2.6,0C127.5,106.7,127.4,106.7,127.2,106.7z"/>
		</g>
		<g>
			<path class="st8" d="M130.9,98c-0.7,0-1.4-0.2-1.9-0.4c-1.4-0.5-6.1-2.3-6.3-2.4c-0.5-0.2-0.8-0.8-0.6-1.3
				c0.2-0.5,0.8-0.8,1.3-0.6c0,0,4.8,1.8,6.3,2.3c1.2,0.4,2.7,0.5,5.8-1.7c1.6-1.2,3.1-3.2,4.1-5.5c0.2-0.5,0.8-0.7,1.3-0.5
				c0.5,0.2,0.7,0.8,0.5,1.3c-1.1,2.7-2.8,4.9-4.8,6.3C134.1,97.4,132.3,98,130.9,98z"/>
		</g>
		<g>
			<path class="st8" d="M72.2,112.9c-0.1,0-0.2,0-0.2,0c-0.3-0.1-0.5-0.2-0.6-0.5c-0.1-0.2-2.1-3.9-2.7-7.1
				c-0.8-4.5-0.8-6.8-0.8-6.9c0-0.3,0.1-0.6,0.3-0.7c0,0,1.3-1.1,4.5-3c3.8-2.2,6-2.9,6.1-2.9c0.5-0.2,1.1,0.1,1.2,0.7
				c0.2,0.5-0.1,1.1-0.7,1.2c0,0-2.1,0.6-5.7,2.7c-2.1,1.2-3.3,2.1-3.9,2.5c0,0.9,0.2,2.9,0.8,6.1c0.4,2,1.4,4.3,2,5.5
				c2-1.2,6.8-3.9,12-5.2c6.5-1.6,13.2-3.3,22.5-2c9.1,1.3,18.6,6.2,19,6.4c0.5,0.3,0.7,0.9,0.4,1.4c-0.3,0.5-0.9,0.7-1.3,0.4
				c-0.1,0-9.6-5-18.3-6.2c-8.9-1.2-15.4,0.4-21.7,2c-6.3,1.6-12.3,5.5-12.3,5.5C72.6,112.9,72.4,112.9,72.2,112.9z"/>
		</g>
		<g>
			<path class="st8" d="M121.3,118.7c-0.1,0-0.2,0-0.3,0c-0.1,0-11.1-3.5-22-4.8c-4.3-0.5-11.7-0.9-22.4,0.4
				c-0.9,0.1-1.3,0.2-1.7-0.4c-0.3-0.5-0.1-1.1,0.4-1.4c0.2-0.1,0.3-0.1,0.5-0.1c0.1,0,0.3,0,0.6-0.1c8.8-1.1,16.5-1.2,22.9-0.4
				c11.1,1.4,22.2,4.9,22.3,4.9c0.5,0.2,0.8,0.7,0.7,1.3C122.1,118.4,121.7,118.7,121.3,118.7z"/>
		</g>
		<g>
			<path class="st8" d="M85.8,122.5c-2.4,0-3.8-0.2-3.9-0.2c-0.5-0.1-0.9-0.6-0.9-1.1c0.1-0.5,0.6-0.9,1.1-0.9c0.1,0,6.2,0.7,16.2-1
				c10-1.7,16.2-4.3,16.3-4.4c0.5-0.2,1.1,0,1.3,0.5c0.2,0.5,0,1.1-0.5,1.3c-0.3,0.1-6.4,2.7-16.7,4.5
				C93.1,122.3,88.7,122.5,85.8,122.5z"/>
		</g>
		<g>
			<path class="st8" d="M98.2,141.6c-3.2,0-6.5-0.2-9.8-0.8c-11.9-1.9-16.4-7.2-16.6-7.5c-0.2-0.2-0.3-0.6-0.2-0.9
				c0.1-0.3,0.3-0.6,0.6-0.7c0,0,2.7-1.1,4.2-3c1.5-2,1.8-5.4,1.8-5.4c0-0.3,0.2-0.6,0.5-0.8c0.3-0.2,0.7-0.2,0.9,0l2.3,1.3
				c3.2,1.8,7.9,3.7,18.1,4c16.4,0.4,19.5-4.2,19.5-4.3c0.2-0.3,0.5-0.5,0.9-0.5c0.4,0,0.7,0.2,0.9,0.5l5.2,9
				c0.1,0.2,0.2,0.5,0.1,0.8c-0.1,0.3-0.3,0.5-0.5,0.6c0,0-3.5,1.8-9,4.3C112.9,140.1,106.1,141.6,98.2,141.6z M74.3,133
				c1.8,1.5,6.3,4.5,14.4,5.9c11.3,1.8,22.2,0,27.6-2.4c3.8-1.7,6.6-3.1,7.9-3.8l-4-6.9c-2,1.7-7.2,4.4-20.2,4.1l0,0
				c-10.6-0.3-15.6-2.3-19-4.2l-1-0.6c-0.3,1.4-0.9,3.4-1.9,4.9C76.9,131.3,75.4,132.4,74.3,133z"/>
		</g>
		<g>
			<path class="st8" d="M41.9,122.5C41.9,122.5,41.9,122.5,41.9,122.5c-0.6,0-1-0.5-1-1l0.5-12.2c0-0.3,0.2-0.6,0.4-0.8
				c0.3-0.2,0.6-0.2,0.9-0.1c0.1,0,5.5,1.8,8.8,1.8c2.4,0,3.5,1.4,3.6,2.6c0.2,1.4-0.7,3.3-3.3,4.1c-1.6,0.5-2.2,1.3-2.1,1.6
				c0,0.2,0.7,0.8,2.4,0.9c4.1,0.3,6.1-0.8,9.5-5c2.1-2.6,5.2-4.7,8.8-5.9l0.1,0l0.4,0.9l0.9,0.4c-0.2,0.4-0.5,0.5-0.8,0.6
				c-3.2,1.1-6,2.9-7.9,5.3c-3.4,4.1-5.9,6-11.2,5.7c-3.6-0.2-4.2-1.9-4.3-2.6c-0.2-1.6,1.2-3,3.5-3.7c1.4-0.4,2.1-1.3,2-1.9
				c-0.1-0.5-0.7-0.9-1.7-0.9c-2.6,0-6.3-1-8.2-1.5l-0.4,10.9C42.9,122.1,42.5,122.5,41.9,122.5z"/>
		</g>
		<g>
			<path class="st8" d="M51.6,133c-0.7,0-1.3,0-1.8-0.1c-2.2-0.2-3.9-2.2-3.7-4.5l1.9-10.9c0.1-0.5,0.6-0.9,1.2-0.8
				c0.5,0.1,0.9,0.6,0.8,1.2L48,128.6c-0.1,1.1,0.8,2.1,2,2.3c2.5,0.2,6.2,0,9.4-2.3c1.3-1,2.5-2.4,3.8-3.9c2-2.4,4.1-4.9,7.2-6.2
				c3-1.3,7.2-2.7,7.4-2.7c0.5-0.2,1.1,0.1,1.3,0.6c0.2,0.5-0.1,1.1-0.6,1.3c0,0-4.3,1.4-7.2,2.7c-2.6,1.1-4.5,3.4-6.4,5.7
				c-1.3,1.6-2.6,3.1-4.1,4.2C57.6,132.4,54.3,133,51.6,133z"/>
		</g>
		<g>
			<path class="st8" d="M47.4,124.4c-0.1,0-0.2,0-0.2,0l-5.5-1.4c-0.5-0.1-0.9-0.7-0.7-1.2c0.1-0.5,0.7-0.9,1.2-0.7l5.5,1.4
				c0.5,0.1,0.9,0.7,0.7,1.2C48.3,124.1,47.9,124.4,47.4,124.4z"/>
		</g>
		<g>
			<path class="st8" d="M105.6,127.9c0,0,7.1-3,9.4-4.5c2.3-1.5,3.6-3.3,3.7-0.7c0,1.1,0.2,2-0.1,2.7c-0.3,1-1.3,1.7-4.2,2.1
				C109.5,128.2,105.6,127.9,105.6,127.9z"/>
		</g>
		<g>
			<path class="st8" d="M81.1,122.4c0.3,0.1,0.6,2.5,0.6,2.5l8.2,2.6c0,0-5.8-4.3-5.9-4.4c-0.2-0.1-2.7-1.6-2.7-1.6L81.1,122.4z"/>
		</g>
		<g>
			<path class="st8" d="M81.1,147.4c-1,0-2.1,0-3.2-0.1c-16.1-1-20.5-6.4-20.6-6.6c-0.3-0.4-0.3-1.1,0.2-1.4
				c0.4-0.3,1.1-0.3,1.4,0.2c0.1,0.1,4.2,4.9,19.2,5.8c15.3,1,24.4-5.7,24.5-5.7c0.4-0.3,1.1-0.2,1.4,0.2c0.3,0.4,0.2,1.1-0.2,1.4
				C103.4,141.4,95.2,147.4,81.1,147.4z"/>
		</g>
		<g>
			<path class="st8" d="M85.5,146.4c0,0,22.4-0.2,38.4,3.7s21,7.3,21,7.3l-6.8,5.2c0,0-7-4.5-21.7-9.1
				C98.3,147.7,85.5,146.4,85.5,146.4z"/>
		</g>
		<g>
			<path class="st8" d="M150.8,152.8c-0.2,0-0.4-0.1-0.6-0.2c-0.1-0.1-7.9-5.2-17.6-8.3c-9.8-3.1-21-4.3-21.1-4.3
				c-0.5-0.1-0.9-0.5-0.9-1.1c0.1-0.5,0.5-1,1.1-0.9c0.1,0,11.5,1.2,21.5,4.4c10,3.2,17.8,8.3,18.1,8.6c0.5,0.3,0.6,0.9,0.3,1.4
				C151.5,152.7,151.1,152.8,150.8,152.8z"/>
		</g>
		<g>
			<path class="st8" d="M145,149.4c-0.4,0-0.7-0.2-0.9-0.6c-0.2-0.5,0-1.1,0.5-1.3c3-1.3,4.7-3.2,5.5-4.2c-1.7-1.5-5.9-4-8.2-5.3
				c-0.6,0.8-1.7,1.9-3.7,2.9c-3.2,1.7-9.4,2.1-9.7,2.1c-0.6,0-1-0.4-1.1-0.9c0-0.6,0.4-1,0.9-1.1c0.1,0,6.1-0.4,8.9-1.9
				c2.7-1.4,3.3-2.8,3.3-2.8c0.1-0.3,0.3-0.5,0.6-0.6c0.3-0.1,0.6-0.1,0.8,0c0.9,0.5,8.4,4.7,10.2,6.8c0.3,0.3,0.3,0.8,0.1,1.2
				c-0.1,0.1-2.1,3.5-6.8,5.6C145.2,149.4,145.1,149.4,145,149.4z"/>
		</g>
		<g>
			<path class="st8" d="M122.5,164.8c-4,0-8.1-0.1-11.6-0.3c-17.2-1-31.4-4.3-44.6-10.4c-8.6-4-13.4-8.9-15-11.1
				c-1.2,0.8-3.6,2.5-4.8,5.1c-0.2,0.5-0.8,0.7-1.3,0.5c-0.5-0.2-0.7-0.8-0.5-1.3c2.1-4.2,6.3-6.4,6.5-6.4c0.3-0.1,0.6-0.1,0.9,0
				c0.2,0.1,0.4,0.3,0.5,0.6c0.4,0.8,4.9,6.5,14.6,11c13,5.9,26.9,9.2,43.9,10.2c13.2,0.8,23.8,0.1,25.6-0.7
				c0.1-0.3,0.4-0.5,0.7-0.6c0.5-0.1,1.1,0.3,1.2,0.8c0.1,0.4,0,0.8-0.3,1.1C137,164.4,130,164.8,122.5,164.8z M136.5,162.3
				C136.5,162.3,136.5,162.3,136.5,162.3C136.5,162.3,136.5,162.3,136.5,162.3z"/>
		</g>
		<g>
			<path class="st8" d="M119.8,89.8c-4.3,0-8.6-1.6-11.2-3.5c-3.3-2.5-5.2-3.6-8-3.9c-0.3,0-0.5-0.3-0.4-0.6c0-0.3,0.3-0.5,0.6-0.4
				c3,0.3,5.1,1.5,8.5,4.1c3.1,2.3,8.8,4.1,13.7,3c0.3-0.1,0.5,0.1,0.6,0.4c0.1,0.3-0.1,0.5-0.4,0.6C122.1,89.7,121,89.8,119.8,89.8
				z"/>
		</g>
		<g>
			<path class="st8" d="M84,89.2c-3.6,0-6.1-1.3-6.3-1.4c-0.2-0.1-0.3-0.4-0.2-0.7c0.1-0.2,0.4-0.3,0.7-0.2c0.1,0,6.4,3.3,13-0.8
				c0.2-0.1,0.5-0.1,0.7,0.2c0.1,0.2,0.1,0.5-0.2,0.7C89,88.7,86.3,89.2,84,89.2z"/>
		</g>
		<g>
			<path class="st8" d="M122.3,52.3c-0.3,0-0.5-0.2-0.5-0.5c0-0.3,0.2-0.5,0.5-0.5c0.1,0,5.5-0.2,11.3-2.9c0.2-0.1,0.5,0,0.7,0.2
				c0.1,0.2,0,0.5-0.2,0.7C128,52.1,122.5,52.3,122.3,52.3C122.3,52.3,122.3,52.3,122.3,52.3z"/>
		</g>
		<g>
			<path class="st8" d="M58.1,124.9c-0.1,0-0.3-0.1-0.4-0.2c-0.2-0.2-0.2-0.5,0-0.7c0.2-0.2,4.2-3.9,8.3-6.4
				c6.3-3.7,9.6-3.7,9.7-3.7c0.3,0,0.5,0.2,0.5,0.5s-0.2,0.5-0.5,0.5c0,0-3.2,0.1-9.2,3.6c-4.1,2.4-8.1,6.2-8.2,6.3
				C58.3,124.9,58.2,124.9,58.1,124.9z"/>
		</g>
		<g>
			<path class="st8" d="M110.9,171.2c-14.2,0-27.4-4-27.6-4.1c-0.3-0.1-0.4-0.4-0.3-0.6c0.1-0.3,0.4-0.4,0.6-0.3
				c0.2,0.1,23.9,7.3,41.9,2.2c0.3-0.1,0.5,0.1,0.6,0.3c0.1,0.3-0.1,0.5-0.3,0.6C121,170.7,115.9,171.2,110.9,171.2z"/>
		</g>
		<g>
			<path class="st8" d="M67.9,81.5c0,0-0.1,0-0.2,0c-9.3-2.9-7.6-10.2-7.6-10.2c0.1-0.3,0.3-0.4,0.6-0.4c0.3,0.1,0.4,0.3,0.4,0.6
				c-0.1,0.3-1.5,6.4,6.9,9c0.3,0.1,0.4,0.4,0.3,0.6C68.3,81.4,68.1,81.5,67.9,81.5z"/>
		</g>
		<path class="st13" d="M105.5,58c0,0,4,0.9,12.6,2.1s16.2,0.8,16.2,0.8l-0.7,7.2c0,0-6.2,0.4-11.6-0.7
			C112.9,65.5,105.5,58,105.5,58z"/>
	</g>
</g>
</svg>
