<?xml version="1.0" encoding="utf-8"?>
<!-- Generator: Adobe Illustrator 21.1.0, SVG Export Plug-In . SVG Version: 6.00 Build 0)  -->
<svg version="1.1" xmlns="http://www.w3.org/2000/svg" xmlns:xlink="http://www.w3.org/1999/xlink" x="0px" y="0px"
	 viewBox="0 0 200 200" style="enable-background:new 0 0 200 200;" xml:space="preserve">
<style type="text/css">
	.st0{fill:none;stroke:#B3C0C7;stroke-miterlimit:10;}
	.st1{fill:#778085;}
	.st2{fill:#FD7E23;}
	.st3{fill:#30E6B6;}
	.st4{fill:#29C49B;}
	.st5{fill:#FDD353;}
	.st6{fill:#FDE4D2;}
	.st7{fill:#F2C2A0;}
	.st8{fill:#4D5052;}
	.st9{fill:#FD6A5D;}
	.st10{fill:#D1584D;}
	.st11{fill:#B8FFEC;}
	.st12{fill:#FFFFFF;}
	.st13{fill:#C9C9C9;}
	.st14{fill:#1DAAF1;}
	.st15{fill:#1682B8;}
	.st16{fill:#5EC9FF;}
	.st17{fill:#DB5F07;}
	.st18{fill:#C4F2EB;}
	.st19{fill:#B4DED7;}
	.st20{fill:#ABABAB;}
	.st21{fill:#757575;}
	.st22{fill:#878787;}
	.st23{fill:#C9EDFF;}
	.st24{fill:#93C2D9;}
	.st25{fill:#FDA29A;}
	.st26{fill:#9C9C9C;}
	.st27{fill:url(#SVGID_1_);}
	.st28{fill:url(#SVGID_2_);}
	.st29{fill:url(#SVGID_3_);}
	.st30{fill:url(#SVGID_4_);}
	.st31{fill:#A5F2DE;}
</style>
<g id="marks">
</g>
<g id="icons">
	<g>
		<g>
			<circle class="st12" cx="100" cy="100" r="70"/>
		</g>
		<g>
			<path class="st13" d="M157,95.2c0-7.9-6.4-14.4-14.4-14.4c-6.3,0-12.4,3.9-14.4,9.5l0,0c-1.9-5.6-8.1-9.5-14.4-9.5
				c-7.9,0-14.4,6.4-14.4,14.4c0,3.8,1,6.9,3.9,9.9l0,0l0.3,0.3c0,0,24.3,24.8,24.3,24.8l23.8-23.8C154.4,103.5,157,99.7,157,95.2z"
				/>
		</g>
		<g>
			<path class="st4" d="M118.5,120.6H68.7c-10.1,0-18.3-8.2-18.3-18.3v0c0-10.1,8.2-18.3,18.3-18.3h27.5c0,0-4.3,7.1,0.5,13.9
				C100.1,102.7,118.5,120.6,118.5,120.6z"/>
		</g>
		<path class="st3" d="M118.5,120.6c0,0-18.4-17.8-21.7-22.6c-2-2.9-2.4-5.8-2.2-8.2h-23c-10.1,0-18.3,8.2-18.3,18.3v0
			c0,1.8,0.3,3.5,0.7,5.1c3.3,4.5,8.7,7.4,14.7,7.4H118.5z"/>
		<g>
			<path class="st9" d="M152.3,90.5c0-7.9-6.4-14.4-14.4-14.4c-6.3,0-12.4,3.9-14.4,9.5l0,0c-1.9-5.6-8.1-9.5-14.4-9.5
				c-7.9,0-14.4,6.4-14.4,14.4c0,3.8,1,6.9,3.9,9.9l0,0l0.3,0.3c0,0,24.3,24.8,24.3,24.8l23.8-23.8C149.6,98.8,152.3,95,152.3,90.5z
				"/>
		</g>
		<g>
			<path class="st25" d="M99.1,89.3c0.8-3.7,2.4-7.6,6.9-8.9c4.5-1.3,8.7,0.9,10.3,2.8l-14.6,14.6C101.8,97.8,98.2,93.6,99.1,89.3z"
				/>
		</g>
		<g>
			<path class="st4" d="M148.8,99.5L128,120.6h2.7c10.1,0,18.3-8.2,18.3-18.3C149,101.4,148.9,100.4,148.8,99.5z"/>
		</g>
		<g>
			<path class="st8" d="M100,171c-39.1,0-71-31.9-71-71s31.9-71,71-71s71,31.9,71,71S139.1,171,100,171z M100,31c-38,0-69,31-69,69
				s31,69,69,69s69-31,69-69S138,31,100,31z"/>
		</g>
		<g>
			<path class="st8" d="M130.7,121.6H128c-0.6,0-1-0.4-1-1s0.4-1,1-1h2.7c9.5,0,17.3-7.7,17.3-17.3c0-0.9-0.1-1.8-0.2-2.7
				c-0.1-0.5,0.3-1.1,0.8-1.1c0.5-0.1,1.1,0.3,1.1,0.8c0.2,1,0.2,2,0.2,3C150,112.9,141.3,121.6,130.7,121.6z"/>
		</g>
		<g>
			<path class="st8" d="M118.5,121.6H68.7c-10.6,0-19.3-8.6-19.3-19.3s8.6-19.3,19.3-19.3h27.5c0.6,0,1,0.4,1,1s-0.4,1-1,1H68.7
				c-9.5,0-17.3,7.7-17.3,17.3s7.7,17.3,17.3,17.3h49.7c0.6,0,1,0.4,1,1S119,121.6,118.5,121.6z"/>
		</g>
		<g>
			<path class="st8" d="M123.2,126.4C123.2,126.4,123.2,126.4,123.2,126.4c-0.3,0-0.5-0.1-0.7-0.3c0,0-24.1-24.7-24.3-24.8l-0.3-0.3
				c0,0-0.1-0.1-0.1-0.1c-2.9-3-4.1-6.1-4.1-10.4c0-8.5,6.9-15.4,15.4-15.4c6,0,11.7,3.3,14.4,8.1c2.7-4.8,8.4-8.1,14.4-8.1
				c8.5,0,15.4,6.9,15.4,15.4c0,4-1.8,7.8-5.6,11.8l-23.8,23.8C123.7,126.3,123.5,126.4,123.2,126.4z M99.5,99.8l0.1,0.1
				c0,0,12.7,12.9,23.6,24.1l23.1-23.1c3.4-3.6,5-7,5-10.5c0-7.4-6-13.4-13.4-13.4c-6,0-11.7,3.7-13.4,8.9c-0.1,0.4-0.5,0.7-0.9,0.7
				c0,0,0,0,0,0c-0.4,0-0.8-0.3-0.9-0.7c-1.8-5.1-7.4-8.9-13.4-8.9c-7.4,0-13.4,6-13.4,13.4c0,3.9,1.1,6.5,3.6,9.2
				C99.4,99.7,99.4,99.7,99.5,99.8z"/>
		</g>
		<g>
			<path class="st8" d="M113,109.8c-0.1,0-0.3,0-0.4-0.2l-6.4-6.5c-2.4-2.5-4.2-4.3-4.2-4.3l-0.2-0.2c0,0,0-0.1-0.1-0.1
				c-2.2-2.3-3.2-4.7-3.2-8.1c0-3.2,1.2-6.2,3.5-8.4c0.2-0.2,0.5-0.2,0.7,0s0.2,0.5,0,0.7c-2.1,2.1-3.2,4.8-3.2,7.7
				c0,3.1,0.9,5.4,3,7.5c0,0,0,0.1,0.1,0.1l0.1,0.1c0,0,1.8,1.8,4.2,4.3l6.4,6.5c0.2,0.2,0.2,0.5,0,0.7
				C113.3,109.8,113.2,109.8,113,109.8z"/>
		</g>
		<g>
			<path class="st10" d="M123.5,119.4c-0.3-0.2,20.5-20.5,22.8-22.8s3-7,1.9-9.1l-28,28L123.5,119.4z"/>
		</g>
	</g>
</g>
</svg>
