<?xml version="1.0" encoding="utf-8"?>
<!-- Generator: Adobe Illustrator 21.1.0, SVG Export Plug-In . SVG Version: 6.00 Build 0)  -->
<svg version="1.1" xmlns="http://www.w3.org/2000/svg" xmlns:xlink="http://www.w3.org/1999/xlink" x="0px" y="0px"
	 viewBox="0 0 200 200" style="enable-background:new 0 0 200 200;" xml:space="preserve">
<style type="text/css">
	.st0{fill:none;stroke:#B3C0C7;stroke-miterlimit:10;}
	.st1{fill:#778085;}
	.st2{fill:#FD7E23;}
	.st3{fill:#30E6B6;}
	.st4{fill:#29C49B;}
	.st5{fill:#FDD353;}
	.st6{fill:#FDE4D2;}
	.st7{fill:#F2C2A0;}
	.st8{fill:#4D5052;}
	.st9{fill:#FD6A5D;}
	.st10{fill:#D1584D;}
	.st11{fill:#B8FFEC;}
	.st12{fill:#FFFFFF;}
	.st13{fill:#C9C9C9;}
	.st14{fill:#1DAAF1;}
	.st15{fill:#1682B8;}
	.st16{fill:#5EC9FF;}
	.st17{fill:#DB5F07;}
	.st18{fill:#C4F2EB;}
	.st19{fill:#B4DED7;}
	.st20{fill:#ABABAB;}
	.st21{fill:#757575;}
	.st22{fill:#878787;}
	.st23{fill:#C9EDFF;}
	.st24{fill:#93C2D9;}
	.st25{fill:#FDA29A;}
	.st26{fill:#9C9C9C;}
	.st27{fill:url(#SVGID_1_);}
	.st28{fill:url(#SVGID_2_);}
	.st29{fill:url(#SVGID_3_);}
	.st30{fill:url(#SVGID_4_);}
	.st31{fill:#A5F2DE;}
</style>
<g id="marks">
</g>
<g id="icons">
	<g>
		<g>
			<path class="st9" d="M143,45.1c16.4,12.8,27,32.8,27,55.2c0,38.7-31.3,70-70,70s-70-31.3-70-70s31.3-70,70-70
				c4.6,0,9.1,0.4,13.5,1.3"/>
		</g>
		<g>
			<g>
				<path class="st10" d="M152.6,146.4c0-0.2-0.1-0.4-0.2-0.5c-1.4-2.2-13.8-9.2-14.2-8.9c1.3-7.3,1.5-12.3,1.5-12.3l0-0.9
					c1.3,0.2,2.9-0.1,4.5-1.8c4.5-4.8-0.8-8.5,4.5-19c4.1-8.1,2.7-11.4-0.3-12.3l0,0c-0.5-8.7,2.3-11.5,4.4-22.4
					c0.8-4.3,1.3-8.4,1.5-12.1c-3.3-4.1-7.1-7.8-11.3-11l-21-9.6c-4.4,1.7-8.8,3.8-13,6.1c-12.1,6.6-10.2,10.5-16.9,15
					c-6.6,4.5-10.1,10.8-10.1,10.8l0,0c-8.3,3.9-8.3,9.4-8.3,9.4l0,0c-5.5,0.8-9.8,5.5-9.8,11.3c0,6.3,5.1,11.4,11.4,11.4
					c0.2,0,0.4,0,0.6,0l-0.1,0.5l1.5,13.8v0.3c-0.6,2.2-1.1,3.9-1.4,5c-0.2,0.9-0.2,1.6,0.1,2.1l-0.4,1c-0.7,1-4,4-8.2,6.6
					c-4.5,2.8-4.6,8.4,4.2,8.3c5.9,0,8.8-1.4,13.1-2.1c0,0,3.5,3,7.5,5c4,2,1.5,2.6,8.2,4.3c1.9,0.5,3,1.2,3.9,1.9
					c-1.2-0.7-2.5,0.7-4.5,2.8c-2.6,2.7-3.6,7.3-3.6,7.3s-4.1,1-10.4,4.6c-4.8,2.7-6.9,4.3-8.2,4.3c1.4,0.6,4,1.8,7.6,3
					c1.1,0.4,2.5,0.8,4.2,1.3c3.5,0.5,7,0.8,10.6,0.8C121,170.3,139.8,161.1,152.6,146.4z M119.9,153.3c-8.9,0.4-12.9-3.2-14.6-5.9
					c0,0,0,0,0,0c1.5,1.8,2.7,3.9,8.3,5C115.8,152.9,117.9,153.2,119.9,153.3C120,153.3,120,153.3,119.9,153.3z"/>
			</g>
			<g>
				<path class="st10" d="M77.6,165.1c-0.7-0.3-1-0.5-1-0.5C76.9,165,77.2,165.1,77.6,165.1z"/>
			</g>
		</g>
		<g>
			<path class="st13" d="M142.6,154c0,0,1.3-2.5,0-4.9c-1.3-2.4,1.5-0.9,3,0s3.3,1.4,1.4,3.1C145.1,153.8,141.3,156.8,142.6,154z"/>
		</g>
		<g>
			<path class="st12" d="M65.8,161.9c1.3,1.4,3-0.2,9.3-3.8c6.2-3.6,10.4-4.6,10.4-4.6s1-4.7,3.6-7.3c2.6-2.7,4-4.3,5.6-1.6
				s5.7,6.3,14.6,5.9s14.1-1.6,15.8-5.6c1.7-4,0.9-8.3,4-6.7c3.1,1.6,10.5,5.8,11.9,7.9c1.4,2.2,2.9,3.9,1.9,6.9c-1,3-1.6,4-4.8,6
				c-3.3,2-13.8,8.8-28.7,10.6s-29.4-2.4-34.8-4.3C69.1,163.5,65.8,161.9,65.8,161.9z"/>
		</g>
		<g>
			<path class="st13" d="M127.3,164.7c3.3-2.5,7.1-4.9,8.6-10.3c1.1-4.3,0.8-6.5,0-9.4c-0.6-2.1-3.2-4-3.2-4s5.5,2.3,7.8,5.8
				c2.3,3.5,3.8,8.1-0.6,10.9C135.6,160.6,127.3,164.7,127.3,164.7z"/>
		</g>
		<g>
			<path class="st13" d="M69.5,161.9l12-7.4l4-0.1c0,0-2.7,7.3-3.7,8.7s-1.7,4.1-4.9,3.2c-3.2-0.9-8-3.4-8-3.4L69.5,161.9z"/>
		</g>
		<g>
			<path class="st6" d="M134.7,31.9c-9.4-5.8-24.2,0.2-36.4,6.9s-10.2,10.5-16.9,15c-6.6,4.5-10.1,10.8-10.1,10.8l0,0
				c0.7-0.3,0,0,0,0C63,68.5,63,74,63,74l0,0c-5.5,0.8-9.8,5.5-9.8,11.3c0,6.3,5.1,11.4,11.4,11.4c0.2,0,0.4,0,0.6,0l-0.1,0.5
				l1.5,13.8v0.3c-0.6,2.2-1.1,3.9-1.4,5c-0.2,0.9-0.2,1.6,0.1,2.1l-0.4,1c-0.7,1-4,4-8.2,6.6c-4.5,2.7-4.6,8.4,4.2,8.3
				c5.9,0,8.8-1.4,13.1-2.1c0,0,3.5,3,7.5,5c4,2,1.5,2.6,8.2,4.3c6.8,1.7,3.8,6.2,13.3,8.2s20.2,1.5,22.8-5.5s3.2-22.2,3.2-22.2
				l0-0.9c1.3,0.2,2.9-0.1,4.5-1.8c4.5-4.8-0.8-8.5,4.5-19c4.1-8.1,2.7-11.4-0.3-12.3l0,0c-0.5-8.7,2.3-11.5,4.4-22.4
				C145.1,50.2,144.1,37.7,134.7,31.9z"/>
		</g>
		<g>
			<path class="st7" d="M69.6,119.3c3.9-1.7,9.5-3.9,16.2-4c6.7-0.1,8.2-1.6,8.9-4.5s-3.6-7.6-6-8.3c-2.4-0.7,2.9,2.5,0.4,5.6
				c-2.5,3.1-9.6,3.9-13.1,6.4S69.6,119.3,69.6,119.3z"/>
		</g>
		<g>
			<path class="st7" d="M94,139.4c4.6-0.2,9.6-1.3,12.1-3c2.4-1.7,10.7,10,9.5,14.4l-13.4-1.3C101.4,144.5,94,139.4,94,139.4z"/>
		</g>
		<g>
			<path class="st7" d="M85.2,89.6c2.4,3.7,3.2,7.1,11.7,10.7s14.7,3.7,19.6,0c3.9-3,3.8-8,3.5-10.1c-0.5-4.3-4.1-6.7-4.1-6.7
				L85.2,89.6z"/>
		</g>
		<g>
			<path class="st7" d="M65.6,102.5c0-0.4-2.6-4,1.6-6c4.3-2.1,5.6-2.4,3.8,2.3c-1.9,4.7-4.5,11.5-4.5,11.5L65.6,102.5z"/>
		</g>
		<g>
			<path class="st7" d="M127.3,100.3c2.4-3.4,5.8-8.7,7.8-7.5c2,1.2-1.5,5.7-2.4,8.5c-0.9,2.8-1.2,8.6-1.1,11.5s-3.7,3.1-5.7,1.8
				S123.6,105.7,127.3,100.3z"/>
		</g>
		<g>
			<circle class="st18" cx="64.6" cy="85.4" r="11.4"/>
		</g>
		<g>
			<path class="st12" d="M53.5,87.7l16.2-12.5c0,0-7.6-2.6-11.7,0.8C53.9,79.3,51.6,83.7,53.5,87.7z"/>
		</g>
		<g>
			<circle class="st18" cx="95.8" cy="85.4" r="11.4"/>
		</g>
		<g>
			<path class="st12" d="M84.9,87.7l16.2-12.5c0,0-7.6-2.6-11.7,0.8C85.3,79.3,83,83.7,84.9,87.7z"/>
		</g>
		<g>
			<path class="st19" d="M107.1,86.5c0.1-4.9-2.2-9.6-5.6-10.9c-3.4-1.3,9.8,1.5,11.1,2.7c1.3,1.2,5.2,6.6,3.6,10.5
				c-1.6,3.9-0.7,5.8-7.4,6.6s-10.1,1.1-10.1,1.1s5.2-2.1,6.9-5.3S107.1,86.5,107.1,86.5z"/>
		</g>
		<g>
			<path class="st19" d="M76,85.4c0-2.6-0.2-5-2.5-7.2c-2.4-2.2-4.5-3.3,1.7-1.8c6.2,1.5,7.6,3.8,8.5,6.4s1.8,4.3-1.3,4.9
				s-5.2,1.5-6.5,3.1C74.4,92.5,76,88.2,76,85.4z"/>
		</g>
		<g>
			<path class="st3" d="M87.5,165.1c2.9-4.3,4.4-7.6,3.9-12.1c-0.5-4.5,1.9-8,5.9-5c4.1,3,14.4,5.2,19.7,3c5.3-2.2,6.4-1.8,7.6-4.4
				c1.2-2.6,1.1-6.4,4.2-3.9c3.2,2.5,2,10.5-1.6,15.5s-6,10.8-16.7,11.6s-21.8,0.8-23.8,0C84.8,169,86.2,167,87.5,165.1z"/>
		</g>
		<g>
			<path class="st8" d="M110.1,162c-2.5,0-4.7-0.2-6.1-0.3c-5.2-0.6-9.7-2.8-12.1-5.9c-1.4-1.8-1.9-3.9-1.6-5.9
				c0.4-2.1,1.2-3.6,2.5-4.3c1.6-0.9,3.1-0.4,3.3-0.4c0.5,0.2,0.8,0.7,0.6,1.3c-0.2,0.5-0.7,0.8-1.3,0.6c0,0-0.9-0.3-1.6,0.2
				c-0.7,0.4-1.2,1.5-1.5,2.9c-0.3,1.5,0.1,2.9,1.2,4.3c2,2.6,6.1,4.6,10.7,5.1c8.7,1,16.5-0.2,20.8-3.2c4.1-2.8,4.1-5.6,4.1-9.1
				l0-0.1c0-3.6-2.8-4-2.9-4c-0.5-0.1-0.9-0.6-0.9-1.1c0.1-0.5,0.6-0.9,1.1-0.9c1.6,0.2,4.6,1.7,4.6,6l0,0.1c0,3.6,0,7.3-4.9,10.7
				C121.6,161.3,115.2,162,110.1,162z"/>
		</g>
		<g>
			<path class="st8" d="M100,171.3c-39.1,0-71-31.9-71-71s31.9-71,71-71c4.6,0,9.2,0.4,13.7,1.3c0.5,0.1,0.9,0.6,0.8,1.2
				c-0.1,0.5-0.6,0.9-1.2,0.8c-4.3-0.8-8.8-1.3-13.3-1.3c-38,0-69,31-69,69s31,69,69,69s69-31,69-69c0-21.4-9.7-41.3-26.6-54.4
				c-0.4-0.3-0.5-1-0.2-1.4c0.3-0.4,1-0.5,1.4-0.2c17.4,13.6,27.4,34,27.4,56C171,139.4,139.1,171.3,100,171.3z"/>
		</g>
		<g>
			<path class="st8" d="M66.9,120.3c-0.7,0-1.2-0.1-1.7-0.5c-0.7-0.5-1.5-1.5-1-3.7c0-0.2,4.8-19.8,10.7-26.1
				c5.5-5.8,9.8-2.8,10-2.7c0.4,0.3,0.5,1,0.2,1.4c-0.3,0.4-0.9,0.5-1.4,0.2c-0.1-0.1-3.1-2-7.4,2.4c-4.6,4.8-9,20.1-10.3,25.1
				c-0.2,0.8-0.2,1.4,0.1,1.5c0.6,0.4,3-0.1,6.3-2.6c4.7-3.5,8.2-4.6,12.7-6l0.6-0.2c2.2-0.7,2.9-2.4,2.8-3.7
				c-0.1-1.2-0.8-2.5-2.6-2.8c-0.5-0.1-0.9-0.6-0.8-1.2c0.1-0.5,0.6-0.9,1.2-0.8c2.4,0.4,4.1,2.2,4.3,4.7c0.2,2.2-1.1,4.8-4.2,5.8
				l-0.7,0.2c-4.4,1.4-7.7,2.4-12,5.7C71.1,119.2,68.7,120.3,66.9,120.3z"/>
		</g>
		<g>
			<path class="st8" d="M113.5,131.3c-0.5,0-1-0.4-1-0.9c-0.2-2.9-2.6-8.5-8.5-14.7c-6.2-6.5-10-11.6-10.1-11.6
				c-0.3-0.4-0.2-1.1,0.2-1.4c0.4-0.3,1.1-0.2,1.4,0.2c0,0,3.8,5,9.9,11.4c6.2,6.5,8.7,12.5,9,15.9
				C114.5,130.8,114.1,131.2,113.5,131.3C113.5,131.3,113.5,131.3,113.5,131.3z"/>
		</g>
		<g>
			<path class="st8" d="M60.8,135.3c-6.2,0-7.6-2.7-7.9-3.8c-0.6-2.2,0.7-4.7,3.4-6.3c4.4-2.7,7.6-5.8,8-6.3
				c0.3-0.5,0.9-0.7,1.3-0.4c0.5,0.2,0.7,0.8,0.5,1.3c-0.5,1-4.2,4.4-8.7,7.2c-1.8,1.1-2.8,2.8-2.5,4.1c0.4,1.5,2.7,2.4,6.1,2.4
				c3.8,0,6.4-0.6,8.8-1.2c3.1-0.7,6.4-1.5,12.1-1.1c5.6,0.4,8.4-1.4,10.9-3c1.8-1.2,3.6-2.3,6-2.3c0,0,0.1,0,0.1,0
				c5.5,0,10.8,3.5,11,3.6c0.5,0.3,0.6,0.9,0.3,1.4c-0.3,0.5-0.9,0.6-1.4,0.3c0,0-5.1-3.3-9.9-3.3c-1.8,0-3.2,0.9-4.9,2
				c-2.6,1.7-5.9,3.7-12.2,3.3c-5.4-0.4-8.3,0.3-11.5,1c-2.6,0.6-5.2,1.2-9.3,1.3C60.9,135.3,60.8,135.3,60.8,135.3z"/>
		</g>
		<g>
			<path class="st8" d="M109.2,133.5c0,0-0.1,0-0.1,0c-0.5-0.1-0.9-0.6-0.9-1.1c0.4-3.1-1.5-4.7-1.6-4.8c-0.4-0.3-0.5-1-0.2-1.4
				c0.3-0.4,1-0.5,1.4-0.2c0.1,0.1,2.9,2.4,2.4,6.6C110.1,133.2,109.7,133.5,109.2,133.5z"/>
		</g>
		<g>
			<path class="st8" d="M112.1,151.8c-3,0-6.2-0.4-9.3-1c-5.5-1.2-7.2-3.2-8.6-5c-1.1-1.4-2-2.5-4.7-3.2c-4.2-1.1-5.1-1.7-6.1-2.7
				c-0.5-0.5-1-0.9-2.4-1.6c-4.1-2-7.6-5-7.7-5.2c-0.4-0.4-0.5-1-0.1-1.4c0.4-0.4,1-0.5,1.4-0.1c0,0,3.4,3,7.3,4.9
				c1.7,0.8,2.3,1.5,2.9,2c0.7,0.7,1.2,1.2,5.2,2.2c3.4,0.9,4.6,2.4,5.8,3.9c1.3,1.7,2.6,3.3,7.4,4.3c8.9,1.9,19.3,1.6,21.6-4.9
				c2.4-6.8,3.2-21.8,3.2-22c0-0.6,0.5-1,1-0.9c0.6,0,1,0.5,0.9,1c0,0.6-0.8,15.5-3.3,22.5C124.8,149.9,118.8,151.8,112.1,151.8z"/>
		</g>
		<g>
			<path class="st8" d="M129.7,122.2c-0.1,0-0.2,0-0.4,0c-3-0.2-5.1-3.1-5.2-3.2c-0.3-0.5-0.2-1.1,0.2-1.4s1.1-0.2,1.4,0.2
				c0,0,1.6,2.2,3.7,2.4c1.1,0.1,2.2-0.5,3.3-1.6c1.9-2,1.8-3.7,1.7-6.2c-0.1-3-0.2-6.8,2.6-12.5c3-6,2.7-8.7,1.9-9.9
				c-0.9-1.3-2.8-1.4-4.2-1.3c-4.1,0.3-6.4,5.2-6.4,5.3c-0.2,0.5-0.8,0.7-1.3,0.5c-0.5-0.2-0.7-0.8-0.5-1.3c0.1-0.2,2.8-6,8.1-6.4
				c2.8-0.2,4.9,0.5,6,2.2c1.6,2.4,1,6.3-1.8,11.9c-2.6,5.3-2.5,8.8-2.4,11.6c0.1,2.7,0.2,5.1-2.3,7.7
				C132.8,121.5,131.3,122.2,129.7,122.2z"/>
		</g>
		<g>
			<path class="st8" d="M66.6,112.3c-0.5,0-0.9-0.4-1-0.9l-1.5-14c-0.1-0.5,0.3-1,0.9-1.1c0.5-0.1,1,0.3,1.1,0.9l1.5,14
				c0.1,0.5-0.3,1-0.9,1.1C66.7,112.3,66.6,112.3,66.6,112.3z"/>
		</g>
		<g>
			<path class="st8" d="M64.6,97.8c-6.8,0-12.4-5.6-12.4-12.4S57.8,73,64.6,73S77,78.6,77,85.4S71.4,97.8,64.6,97.8z M64.6,75
				c-5.7,0-10.4,4.7-10.4,10.4s4.7,10.4,10.4,10.4S75,91.1,75,85.4S70.3,75,64.6,75z"/>
		</g>
		<g>
			<path class="st8" d="M95.8,97.8c-6.8,0-12.4-5.6-12.4-12.4S89,73,95.8,73s12.4,5.6,12.4,12.4S102.6,97.8,95.8,97.8z M95.8,75
				c-5.7,0-10.4,4.7-10.4,10.4s4.7,10.4,10.4,10.4s10.4-4.7,10.4-10.4S101.5,75,95.8,75z"/>
		</g>
		<g>
			<path class="st8" d="M95.8,97.8c-0.5,0-0.9-0.4-1-0.9c-0.1-0.5,0.3-1,0.9-1.1l15.6-1.7c0.6-0.2,4.2-1.9,4.1-7.5
				c0-5.9-3.8-7.8-4.3-8.1l-13.2-3.2c-0.5-0.1-0.9-0.7-0.7-1.2c0.1-0.5,0.7-0.9,1.2-0.7l13.3,3.3c0,0,0.1,0,0.1,0
				c0.2,0.1,5.6,2.3,5.6,9.9c0.1,7.5-5.3,9.4-5.6,9.5c-0.1,0-0.1,0-0.2,0l-15.7,1.8C95.9,97.8,95.8,97.8,95.8,97.8z"/>
		</g>
		<g>
			<path class="st8" d="M84.2,88.7C84.2,88.7,84.2,88.7,84.2,88.7c-0.6,0-1-0.5-1-1c0.2-6.8-3.7-9-4.3-9.3l-13.2-3.2
				c-0.5-0.1-0.9-0.7-0.7-1.2c0.1-0.5,0.7-0.9,1.2-0.7l13.3,3.3c0.1,0,0.1,0,0.2,0.1c0.2,0.1,5.8,2.6,5.6,11.2
				C85.2,88.3,84.7,88.7,84.2,88.7z"/>
		</g>
		<g>
			<path class="st8" d="M63,75.1C63,75.1,63,75.1,63,75.1c-0.6,0-1-0.4-1-1c0-0.4,0.2-8.8,15.1-12.5c0.5-0.1,1.1,0.2,1.2,0.7
				c0.1,0.5-0.2,1.1-0.7,1.2C64.3,66.9,64,73.9,64,74.2C64,74.7,63.6,75.1,63,75.1z"/>
		</g>
		<g>
			<path class="st8" d="M137.7,88.9c-0.5,0-1-0.4-1-0.9c-0.3-5.6,0.7-8.9,1.9-13.1c0.8-2.6,1.7-5.5,2.5-9.5
				c3.3-17,1.1-27.6-6.9-32.5c-7.2-4.4-18.8-2.2-35.4,6.9c-7.1,3.9-9.2,6.7-11.2,9.4c-1.4,1.9-2.8,3.7-5.6,5.6
				c-6.4,4.3-9.7,10.4-9.8,10.5c-0.3,0.5-0.9,0.7-1.4,0.4c-0.5-0.3-0.7-0.9-0.4-1.4c0.1-0.3,3.6-6.6,10.4-11.2
				c2.5-1.7,3.7-3.3,5.1-5.1c2.1-2.7,4.4-5.9,11.9-9.9c17.3-9.4,29.5-11.7,37.4-6.9c8.8,5.4,11.3,16.7,7.8,34.5
				c-0.8,4.2-1.7,7.1-2.5,9.7c-1.3,4.2-2.2,7.2-1.9,12.4C138.7,88.4,138.3,88.9,137.7,88.9C137.7,88.9,137.7,88.9,137.7,88.9z"/>
		</g>
		<g>
			<path class="st8" d="M147,92c-0.4,0-0.7-0.2-0.9-0.6c0,0-1.3-2.7-3.8-2.8c-0.7,0-2.5-0.1-4.7-0.2c-6.4-0.3-19.8-1-21-0.9
				c-0.5,0.1-1-0.2-1.2-0.7c-0.2-0.5,0.1-1.1,0.6-1.3c0.5-0.2,3.7-0.1,21.7,0.8c2.3,0.1,4,0.2,4.7,0.2c3.7,0.2,5.4,3.8,5.5,4
				c0.2,0.5,0,1.1-0.5,1.3C147.3,92,147.1,92,147,92z"/>
		</g>
		<g>
			<path class="st8" d="M141.8,157.2c-0.2,0-0.3,0-0.5-0.1c-0.5-0.3-0.7-0.9-0.4-1.4c0.1-0.2,2.4-4.4-0.4-8.3
				c-3.1-4.2-13.5-8.9-13.6-8.9c-0.5-0.2-0.7-0.8-0.5-1.3c0.2-0.5,0.8-0.7,1.3-0.5c0.4,0.2,11,4.9,14.4,9.6c3.6,5,0.7,10.2,0.6,10.5
				C142.5,157,142.2,157.2,141.8,157.2z"/>
		</g>
		<g>
			<path class="st8" d="M117.1,169.2c-0.4,0-0.7-0.2-0.9-0.5c-0.3-0.5-0.1-1.1,0.4-1.3c0.1,0,9.5-5,12.1-15.9
				c0.1-0.5,0.7-0.9,1.2-0.7c0.5,0.1,0.9,0.7,0.7,1.2c-2.9,11.8-12.7,17-13.2,17.2C117.4,169.1,117.3,169.2,117.1,169.2z"/>
		</g>
		<g>
			<path class="st8" d="M148.5,151.8c-0.2,0-0.3,0-0.5-0.1c-7.8-4.5-7.9-4.7-8-5.2c-0.2-0.5,0.1-1.1,0.7-1.3c0.4-0.1,0.8,0,1,0.3
				c0.6,0.4,4.1,2.5,7.3,4.4c0.5,0.3,0.6,0.9,0.4,1.4C149.1,151.6,148.8,151.8,148.5,151.8z"/>
		</g>
		<g>
			<path class="st8" d="M79.4,168.2c-0.2,0-0.4-0.1-0.5-0.2c-0.5-0.3-0.6-0.9-0.3-1.4c0-0.1,3.9-6,6-12.5c2.5-8.1,6.7-11.9,7.7-12.2
				c0.3-0.1,0.7-0.1,1,0.1c0.5,0.3,0.6,0.9,0.3,1.4c-0.1,0.2-0.4,0.4-0.6,0.4c-0.8,0.5-4.3,3.9-6.5,10.9c-2.1,6.8-6,12.8-6.2,13
				C80,168,79.7,168.2,79.4,168.2z M92.1,143.7L92.1,143.7L92.1,143.7z"/>
		</g>
		<g>
			<path class="st8" d="M85.4,169.8c-0.2,0-0.3,0-0.5-0.1c-0.5-0.3-0.7-0.9-0.4-1.3l7.2-13.8c0.3-0.5,0.9-0.7,1.3-0.4
				c0.5,0.3,0.7,0.9,0.4,1.3l-7.2,13.8C86.2,169.6,85.8,169.8,85.4,169.8z"/>
		</g>
		<g>
			<path class="st8" d="M78.2,167.7c-0.4,0-0.8-0.1-1.2-0.2c-4.8-1.8-9.2-3.9-9.2-3.9c-0.3-0.2-0.6-0.5-0.6-0.8s0.2-0.7,0.5-0.9
				c0,0,4.1-2.6,7.7-5.1c5.7-4.1,9.9-4.1,10.1-4.1c0.3,0,0.6,0.1,0.8,0.4c0.2,0.2,0.3,0.5,0.2,0.8c-0.3,1.2-2.6,11.4-6.6,13.5
				C79.3,167.6,78.7,167.7,78.2,167.7z M70.3,162.5c1.7,0.8,4.5,2,7.4,3.1c0.4,0.1,0.7,0.1,1.1-0.1c2.3-1.3,4.3-7.3,5.3-10.8
				c-1.5,0.3-4.3,1.2-7.6,3.6C74.3,159.9,71.9,161.5,70.3,162.5z"/>
		</g>
		<g>
			<path class="st8" d="M129.3,116c-0.6,0-1.3-0.2-2.1-0.5c-0.3-0.1-0.4-0.4-0.3-0.7c0.1-0.3,0.4-0.4,0.7-0.3
				c1.2,0.5,2.1,0.6,2.7,0.2c0.8-0.6,1.1-2.1,0.9-4.5l0-0.4c-0.2-2.6-0.4-5,1.1-8.7c0.4-1.1,1-2.2,1.6-3.2c0.9-1.7,1.8-3.4,1.5-4.2
				c0-0.1-0.1-0.3-0.4-0.4c-1.5-0.7-3.7,2.6-4.4,3.8c-0.1,0.2-0.4,0.3-0.7,0.2c-0.2-0.1-0.3-0.4-0.2-0.7c0.3-0.6,3.1-5.4,5.7-4.2
				c0.5,0.2,0.8,0.6,1,1c0.4,1.2-0.5,3-1.6,5c-0.5,1-1.1,2.1-1.5,3.1c-1.4,3.5-1.3,5.7-1.1,8.3l0,0.4c0.1,1.8,0.1,4.4-1.4,5.4
				C130.4,115.9,129.9,116,129.3,116z"/>
		</g>
		<g>
			<path class="st8" d="M104.7,150.6c-0.1,0-0.1,0-0.2,0c-0.3-0.1-0.4-0.4-0.3-0.7c0.1-0.2,0.6-1.6-0.9-2.7c-2.2-1.4-2.3-4.8-2.4-5
				c0-0.3,0.2-0.5,0.5-0.5c0.3,0,0.5,0.2,0.5,0.5c0,0,0.1,3,1.9,4.2c1.9,1.2,1.7,3.1,1.3,3.9C105.1,150.5,104.9,150.6,104.7,150.6z"
				/>
		</g>
		<g>
			<path class="st8" d="M113.5,151.1c-0.1,0-0.3-0.1-0.4-0.2c-0.2-0.2-0.1-0.5,0.1-0.7c0.1,0,1.5-1.3,0.6-3.8
				c-1.4-3.7,1.5-5.7,1.6-5.8c0.2-0.2,0.5-0.1,0.7,0.1c0.2,0.2,0.1,0.5-0.1,0.7c-0.1,0.1-2.3,1.6-1.2,4.6c1.2,3.2-0.8,4.9-0.9,5
				C113.7,151.1,113.6,151.1,113.5,151.1z"/>
		</g>
		<g>
			<path class="st8" d="M119.5,73.3c-0.2,0-0.5-0.2-0.5-0.4c-0.6-4.1-5.6-5.3-5.6-5.3c-0.3-0.1-0.4-0.3-0.4-0.6
				c0.1-0.3,0.3-0.4,0.6-0.4c0.2,0.1,5.7,1.4,6.4,6.2C120,73,119.8,73.2,119.5,73.3C119.5,73.3,119.5,73.3,119.5,73.3z"/>
		</g>
		<g>
			<path class="st8" d="M107.9,103.9c-3.4,0-5.8-1.7-6-1.8c-0.2-0.2-0.3-0.5-0.1-0.7c0.2-0.2,0.5-0.3,0.7-0.1c0,0,3.9,2.7,8.5,1.1
				c0.3-0.1,0.5,0,0.6,0.3s0,0.5-0.3,0.6C110.1,103.7,109,103.9,107.9,103.9z"/>
		</g>
		<g>
			<path class="st8" d="M90.3,87c-0.2,0-0.3-0.1-0.4-0.2c-0.1-0.2-0.1-0.5,0.1-0.7l8.6-5.6c0.2-0.1,0.5-0.1,0.7,0.1
				c0.1,0.2,0.1,0.5-0.1,0.7l-8.6,5.6C90.5,87,90.4,87,90.3,87z"/>
		</g>
		<g>
			<path class="st8" d="M93.1,91.5c-0.2,0-0.3-0.1-0.4-0.2c-0.1-0.2-0.1-0.5,0.2-0.7l7.6-4.5c0.2-0.1,0.5-0.1,0.7,0.2
				c0.1,0.2,0.1,0.5-0.2,0.7l-7.6,4.5C93.3,91.5,93.2,91.5,93.1,91.5z"/>
		</g>
		<g>
			<path class="st8" d="M61,85.9c-0.2,0-0.3-0.1-0.4-0.2c-0.2-0.2-0.1-0.5,0.1-0.7l7.2-5.2c0.2-0.2,0.5-0.1,0.7,0.1
				c0.2,0.2,0.1,0.5-0.1,0.7l-7.2,5.2C61.2,85.9,61.1,85.9,61,85.9z"/>
		</g>
		<g>
			<path class="st8" d="M62.3,90.7c-0.2,0-0.3-0.1-0.4-0.2c-0.1-0.2-0.1-0.5,0.2-0.7l7.2-4.5c0.2-0.1,0.5-0.1,0.7,0.2
				c0.1,0.2,0.1,0.5-0.2,0.7l-7.2,4.5C62.5,90.6,62.4,90.7,62.3,90.7z"/>
		</g>
		<g>
			<path class="st8" d="M125,66.2c-0.2,0-0.4-0.1-0.5-0.4c-1.4-4.8-7.3-5.1-7.4-5.1c-0.3,0-0.5-0.2-0.5-0.5c0-0.3,0.3-0.5,0.5-0.5
				c0.1,0,6.7,0.3,8.3,5.9c0.1,0.3-0.1,0.5-0.3,0.6C125.1,66.2,125,66.2,125,66.2z"/>
		</g>
		<g>
			<path class="st7" d="M133.5,35.6c0,0,6.7,4.2,6.2,14.4s-2.4,18.7-3.8,25.3c-1.4,6.5-0.9,8.4-0.9,8.4h-6.4c0,0,2-10.9,4.8-23
				C137.2,43.3,133.5,35.6,133.5,35.6z"/>
		</g>
		<g>
			<path class="st12" d="M88.2,54.7c4.8-6.2,10.3-10.4,15.8-13.5c7.8-4.4,16-6.8,16-6.8s-9.5,5.8-16,11.2c-4.8,4-8.8,10.2-8.8,10.2
				L88.2,54.7z"/>
		</g>
	</g>
</g>
</svg>
