<?xml version="1.0" encoding="utf-8"?>
<!-- Generator: Adobe Illustrator 21.1.0, SVG Export Plug-In . SVG Version: 6.00 Build 0)  -->
<svg version="1.1" xmlns="http://www.w3.org/2000/svg" xmlns:xlink="http://www.w3.org/1999/xlink" x="0px" y="0px"
	 viewBox="0 0 200 200" style="enable-background:new 0 0 200 200;" xml:space="preserve">
<style type="text/css">
	.st0{fill:none;stroke:#B3C0C7;stroke-miterlimit:10;}
	.st1{fill:#778085;}
	.st2{fill:#FD7E23;}
	.st3{fill:#30E6B6;}
	.st4{fill:#29C49B;}
	.st5{fill:#FDD353;}
	.st6{fill:#FDE4D2;}
	.st7{fill:#F2C2A0;}
	.st8{fill:#4D5052;}
	.st9{fill:#FD6A5D;}
	.st10{fill:#D1584D;}
	.st11{fill:#B8FFEC;}
	.st12{fill:#FFFFFF;}
	.st13{fill:#C9C9C9;}
	.st14{fill:#1DAAF1;}
	.st15{fill:#1682B8;}
	.st16{fill:#5EC9FF;}
	.st17{fill:#DB5F07;}
	.st18{fill:#C4F2EB;}
	.st19{fill:#B4DED7;}
	.st20{fill:#ABABAB;}
	.st21{fill:#757575;}
	.st22{fill:#878787;}
	.st23{fill:#C9EDFF;}
	.st24{fill:#93C2D9;}
	.st25{fill:#FDA29A;}
	.st26{fill:#9C9C9C;}
	.st27{fill:url(#SVGID_1_);}
	.st28{fill:url(#SVGID_2_);}
	.st29{fill:url(#SVGID_3_);}
	.st30{fill:url(#SVGID_4_);}
	.st31{fill:#A5F2DE;}
</style>
<g id="marks">
</g>
<g id="icons">
	<g>
		<g>
			<circle class="st3" cx="90" cy="102.9" r="70"/>
		</g>
		<g>
			<path class="st4" d="M139.9,152c-1-1.8-2.2-3.2-3-3.7c-1.9-1.2-17.8-8.5-25.3-11.9c0.4-0.4,0.6-7,0.6-7c2.8-2,5-3.8,6.2-5.3
				c3.4-4.1,2.5-9.6,3-15.6h0c0.1-0.6,0.2-1.3,0.3-2.1c0.1-0.7,0.1-1.6,0.2-2.6l0,0c0,0,1.3,2.3,5,2.6c6.1,0.5,11.6-10.1,12.2-21
				c0.4-8,0-19.7,0-19.7s-2.3,5.2-6.6,7.7c-4.9,2.8-8.9,6.7-9.3,7.1c0.2-0.2,1.6-1.6,5-5.7c6.8-8.3,6.2-22.1-0.1-30.8
				c-10.9-7-23.9-11.1-37.8-11.1c-2.6,0-5.2,0.2-7.7,0.4C76,35,70.6,38.1,66.6,43.2c-6.8,8.6-7.7,23.1-0.6,31.6
				c3.4,4.1,4.7,5.4,5,5.7c-0.4-0.4-4.5-4.3-9.3-7.1c-4.4-2.5-6.6-7.7-6.6-7.7s-0.4,11.7,0,19.7c0.5,10.9,6.1,21.5,12.2,21
				c3.7-0.3,5-2.6,5-2.6l0,0c0.1,1,0.1,1.9,0.2,2.6c0.1,0.8,0.2,1.5,0.3,2.1h0c0.4,6-0.5,11.5,3,15.6c1,1.2,2.8,2.8,5,4.4v15.2
				c0,0,0.3,0.3,0.8,0.8c-7.8,3.6-23.6,10.8-26.6,12.4c-3,1.6-4,2.9-3.7,4.2c11.1,7.5,24.5,11.9,39,11.9
				C109.5,172.9,127.2,164.9,139.9,152z"/>
		</g>
		<g>
			<path class="st6" d="M132.6,60.1c0,0-2.3,5.2-6.6,7.7c-4.9,2.8-8.9,6.7-9.3,7.1c0.2-0.2,1.6-1.6,5-5.7c7-8.5,6.2-23-0.6-31.6
				C114.1,29,103.4,26,90.6,26c-12.8,0-23.5,3-30.3,11.6c-6.8,8.6-7.7,23.1-0.6,31.6c3.4,4.1,4.7,5.4,5,5.7
				c-0.4-0.4-4.5-4.3-9.3-7.1c-4.4-2.5-6.6-7.7-6.6-7.7s-0.4,11.7,0,19.7c0.5,10.9,6.1,21.5,12.2,21c3.7-0.3,5-2.6,5-2.6l0,0
				c0.1,1,0.1,1.9,0.2,2.6c0.1,0.8,0.2,1.5,0.3,2.1h0c0.4,6-0.5,11.5,3,15.6c2.2,2.6,7.6,6.6,14.5,10.5c4.3,2.4,9.5,2.4,13.8,0
				c6.9-3.9,12.3-7.9,14.5-10.5c3.4-4.1,2.5-9.6,3-15.6h0c0.1-0.6,0.2-1.3,0.3-2.1c0.1-0.7,0.1-1.6,0.2-2.6l0,0c0,0,1.3,2.3,5,2.6
				c6.1,0.5,11.6-10.1,12.2-21C133,71.7,132.6,60.1,132.6,60.1z"/>
		</g>
		<g>
			<path class="st7" d="M97.8,86.4c0.7,1.1,3.1,4.4,8,4.7s6.9-2.2,6.9-4.7c0-2.3-1.6-3.6-1.6-3.6s-1.5,4.2-4.6,5
				S97.8,86.4,97.8,86.4z"/>
		</g>
		<g>
			<path class="st7" d="M83.3,86.4c-0.7,1.1-3.1,4.4-8,4.7s-6.9-2.2-6.9-4.7c0-2.3,1.6-3.6,1.6-3.6s1.5,4.2,4.6,5
				S83.3,86.4,83.3,86.4z"/>
		</g>
		<g>
			<path class="st7" d="M97.8,77c2.1,0.3,5.4,0.4,9.8-1.1c4.9-1.6,5.6-3.1,6.2-3.8c1.6-2.1,1.7-6.7-1.6-8.5c0,0-2,3.4-6.4,7.1
				C100.1,75.5,97.8,77,97.8,77z"/>
		</g>
		<g>
			<path class="st7" d="M97.8,127.9c2.5-1.5,4.9-4.2,6-6.8c1.2-2.6,1.6-7.9,3.7-10.4c2.1-2.5,7.2-6.1,7.2-6.1s0.2,6.7-0.5,8.7
				s-1.6,5.8-6.7,9.2S97.8,127.9,97.8,127.9z"/>
		</g>
		<g>
			<path class="st7" d="M117.8,84.4c0.6-3.3,2-6.1,4.7-8.2s7.2-5.2,7.2-5.2s-0.3,8.4-0.7,10.7s-1.3,6.6-2.6,8.6s-1.3,1.9-1.3,1.9
				s2-2.7,2.3-8.1c0.1-2.5-1.1-4.6-3.2-4.8C119.8,79,117.8,84.4,117.8,84.4z"/>
		</g>
		<g>
			<path class="st7" d="M63.4,84.4c-0.6-3.3-2-6.1-4.7-8.2S51.5,71,51.5,71s0.3,8.4,0.7,10.7c0.3,2.3,1.3,6.6,2.6,8.6
				c1.3,1.9,1.3,1.9,1.3,1.9s-2-2.7-2.3-8.1c-0.1-2.5,1.1-4.6,3.2-4.8C61.3,79,63.4,84.4,63.4,84.4z"/>
		</g>
		<g>
			<path class="st14" d="M88.8,139.8l12.5-3c0,0,26.7,12.2,29.3,13.8s7.8,3.5,4.3,6.2c-3.5,2.7-21.6,16.2-47.1,16.2S47,159,45.5,157
				c-1.5-2-1.2-3.6,2.9-5.8s31.1-14.4,31.1-14.4S84.1,140.9,88.8,139.8z"/>
		</g>
		<g>
			<path class="st15" d="M134.8,156.8c3.2-2.5-1-4.3-3.7-5.8c-3.5-1.7-6.8-3.2-6.8-3.2s0,4.1-6.5,12.4c-3.5,4.5-10.3,8.7-15.9,11.4
				C119.8,168,132,159,134.8,156.8z"/>
		</g>
		<g>
			<path class="st16" d="M50,155.8c1.7-1.8,9.9-5.6,16.2-8.8s8-4.7,8-4.7s1.6,1.2,3.9,2.3s6.6,1.5,6.6,1.5s-12,2.7-22.2,5.7
				C55.5,154,50,155.8,50,155.8z"/>
		</g>
		<g>
			<path class="st8" d="M90,174c-39.1,0-71-31.9-71-71s31.9-71,71-71s71,31.9,71,71S129.1,174,90,174z M90,34c-38,0-69,31-69,69
				s31,69,69,69s69-31,69-69S128,34,90,34z"/>
		</g>
		<g>
			<path class="st8" d="M95.7,75.6c0.6,1.5,3,2,5.9,0.5c6.1-3.3,10.5-12.5,10.5-12.5s-3,3.2-9.1,6.2C99.3,71.7,94.8,73.1,95.7,75.6z
				"/>
		</g>
		<g>
			<path class="st8" d="M103.4,89.2c-4.2,0-6.2-2.5-6.3-2.7c-0.3-0.4-0.3-1.1,0.2-1.4c0.4-0.3,1.1-0.3,1.4,0.2
				c0.1,0.1,2,2.4,6.1,1.8c4.2-0.6,5.1-4.3,5.1-4.5c0.1-0.5,0.6-0.9,1.2-0.8c0.5,0.1,0.9,0.6,0.8,1.2c0,0.2-1.1,5.2-6.8,6
				C104.5,89.2,103.9,89.2,103.4,89.2z"/>
		</g>
		<g>
			<path class="st8" d="M120.8,101.8c-0.2,0-0.3,0-0.5,0c-4.2-0.3-5.7-3-5.7-3.1c-0.3-0.5-0.1-1.1,0.4-1.4c0.5-0.3,1.1-0.1,1.4,0.4
				c0,0.1,1.1,1.8,4.2,2.1c1.3,0.1,2.7-0.5,4.1-1.7c3.8-3.3,6.7-10.9,7-18.4c0.3-5.2,0.2-12,0.1-16.1c-1.2,1.7-2.9,3.7-5.2,5
				c-4.9,2.8-8.1,5.9-8.1,5.9c-0.4,0.4-1,0.4-1.4,0c-0.4-0.4-0.4-1,0-1.4c0.1-0.1,3.4-3.3,8.5-6.2c4-2.3,6.2-7.2,6.2-7.3
				c0.2-0.4,0.6-0.7,1.1-0.6c0.5,0.1,0.8,0.5,0.8,0.9c0,0.1,0.4,11.8,0,19.8c-0.4,8.1-3.5,16.1-7.7,19.8
				C124.2,101.1,122.5,101.8,120.8,101.8z"/>
		</g>
		<g>
			<path class="st8" d="M123,94.5c-0.2,0-0.3-0.1-0.4-0.2c-0.2-0.2-0.1-0.5,0.1-0.7c0,0,4.3-3,5.5-10.4c0.8-5.1,0.9-9.5,0.9-11.3
				c-1.1,0.7-3.3,2.2-6.4,4.7c-4.3,3.5-4.5,8.9-4.5,9c0,0.3-0.2,0.5-0.5,0.5c-0.3,0-0.5-0.2-0.5-0.5c0-0.2,0.2-5.9,4.9-9.7
				c4.5-3.7,7.1-5.2,7.3-5.3c0.2-0.1,0.3-0.1,0.5,0c0.2,0.1,0.3,0.2,0.3,0.4c0,0.1,0.1,5.6-0.9,12.4c-1.2,7.9-5.7,11-5.9,11.1
				C123.2,94.5,123.1,94.5,123,94.5z"/>
		</g>
		<g>
			<path class="st8" d="M90.2,107.1c-2.2,0-4.1-1.5-4.7-3.5c-0.2-0.5,0.1-1.1,0.7-1.2c0.5-0.2,1.1,0.1,1.2,0.7
				c0.4,1.2,1.5,2.1,2.8,2.1c1.3,0,2.5-0.9,2.8-2.1c0.2-0.5,0.7-0.8,1.2-0.7c0.5,0.2,0.8,0.7,0.7,1.2
				C94.4,105.6,92.4,107.1,90.2,107.1z"/>
		</g>
		<g>
			<path class="st8" d="M96.6,115c-0.2,0-0.4-0.1-0.6-0.2c-2.7-2-8.9-2-11.6,0c-0.4,0.3-1.1,0.2-1.4-0.2c-0.3-0.4-0.2-1.1,0.2-1.4
				c3.5-2.6,10.5-2.6,14,0c0.4,0.3,0.5,1,0.2,1.4C97.2,114.8,96.9,115,96.6,115z"/>
		</g>
		<g>
			<path class="st8" d="M106,118.2c-0.6,0-1-0.4-1-1c0-4.6,2-8.5,5.4-10.6c2.9-1.8,3.7-2.4,3.9-5.9c0.2-3.1,0.5-10,0.5-10
				c0-0.6,0.5-1,1-1c0.6,0,1,0.5,1,1c0,0.1-0.3,6.9-0.5,10.1c-0.3,4.4-1.8,5.5-4.9,7.4c-2.8,1.7-4.4,5-4.4,8.9
				C107,117.7,106.5,118.2,106,118.2z"/>
		</g>
		<g>
			<path class="st8" d="M120.9,37.6C114.1,29,103.4,26,90.6,26c-12.8,0-23.5,3-30.3,11.6c-6.8,8.6-7.7,23.1-0.6,31.6
				c2.2,2.7,3.6,4.2,4.3,5c0.3,0.3,0.7,0.1,0.7-0.3V55c0,0,2,1,9.4,2.3c5.9,1,13.2,1.2,16,1.3l0,0c0,0,0.2,0,0.6,0
				c0.4,0,0.6,0,0.6,0l0,0c2.8,0,10.1-0.3,16-1.3c7.4-1.3,9.4-2.3,9.4-2.3v18.7c0,0.4,0.5,0.6,0.8,0.3c0.8-0.8,2.1-2.3,4.2-4.8
				C128.6,60.7,127.7,46.2,120.9,37.6z"/>
		</g>
		<g>
			<path class="st21" d="M61.1,48.7c0,0,2.2,1.1,5.7,2.2c4,1.2,8,1.7,8,1.7s0.8-5.5,2.3-8.7c2.4-5.2,6.3-7.7,6.3-7.7s-2.9,5-3.3,9.5
				C79.7,50,80,53,80,53s2.4,0.2,4.3,0.2c1.7,0,3,0,3,0s-1.8-6.4-0.8-12c1.2-6.3,3.3-8.3,3.3-8.3s-4.2-0.4-11.1,1.6
				C67.3,37.8,61.1,48.7,61.1,48.7z"/>
		</g>
		<g>
			<path class="st8" d="M85.4,75.6c-0.6,1.5-3,2-5.9,0.5C73.4,72.7,69,63.6,69,63.6s3,3.2,9.1,6.2C81.9,71.7,86.4,73.1,85.4,75.6z"
				/>
		</g>
		<g>
			<path class="st8" d="M77.8,89.2c-0.5,0-1.1,0-1.7-0.1c-5.6-0.8-6.7-5.8-6.8-6c-0.1-0.5,0.2-1.1,0.8-1.2c0.5-0.1,1.1,0.2,1.2,0.8
				c0,0.2,0.9,3.8,5.1,4.5c4.2,0.6,6.1-1.7,6.1-1.8c0.3-0.4,1-0.5,1.4-0.2c0.4,0.3,0.5,1,0.2,1.4C84,86.7,82,89.2,77.8,89.2z"/>
		</g>
		<g>
			<path class="st8" d="M60.4,101.8c-1.7,0-3.5-0.7-5.1-2.2C51.1,95.9,48,88,47.6,79.8c-0.4-8,0-19.7,0-19.8c0-0.5,0.4-0.9,0.8-0.9
				c0.5-0.1,0.9,0.2,1.1,0.6c0,0,2.2,5,6.2,7.3c5.2,3,8.4,6.1,8.5,6.3c0.4,0.4,0.4,1,0,1.4c-0.4,0.4-1,0.4-1.4,0c0,0-3.2-3.1-8.1-6
				c-2.3-1.3-4.1-3.3-5.2-5c-0.1,4.1-0.2,10.9,0.1,16.1c0.4,7.5,3.3,15.1,7,18.4c1.4,1.2,2.7,1.8,4.1,1.7c3.1-0.2,4.1-2,4.2-2.1
				c0.3-0.5,0.9-0.6,1.4-0.4c0.5,0.3,0.6,0.9,0.4,1.3c-0.1,0.1-1.6,2.8-5.7,3.1C60.7,101.8,60.6,101.8,60.4,101.8z"/>
		</g>
		<g>
			<path class="st8" d="M58.2,94.5c-0.1,0-0.2,0-0.3-0.1c-0.2-0.1-4.7-3.2-5.9-11.1C50.9,76.5,51,71,51,70.9c0-0.2,0.1-0.3,0.3-0.4
				c0.2-0.1,0.3-0.1,0.5,0c0.1,0.1,2.7,1.6,7.3,5.3c4.7,3.8,4.9,9.5,4.9,9.7c0,0.3-0.2,0.5-0.5,0.5c-0.3,0-0.5-0.2-0.5-0.5
				c0-0.1-0.2-5.4-4.5-9c-3.1-2.5-5.3-4-6.4-4.7c0,1.8,0.1,6.2,0.9,11.3c1.2,7.5,5.5,10.4,5.5,10.4c0.2,0.2,0.3,0.5,0.1,0.7
				C58.5,94.5,58.3,94.5,58.2,94.5z"/>
		</g>
		<g>
			<path class="st8" d="M75.2,118.2c-0.6,0-1-0.4-1-1c0-3.9-1.6-7.1-4.4-8.9c-3.1-1.9-4.5-3-4.9-7.4c-0.2-3.1-0.5-10-0.5-10.1
				c0-0.6,0.4-1,1-1c0.5,0,1,0.4,1,1c0,0.1,0.3,6.9,0.5,10c0.3,3.4,1,4.1,3.9,5.9c3.4,2.1,5.4,6,5.4,10.6
				C76.2,117.7,75.7,118.2,75.2,118.2z"/>
		</g>
		<g>
			<path class="st8" d="M90.6,131.8c-2.6,0-5.1-0.7-7.4-2c-6.9-4-12.5-8-14.8-10.8c-2.9-3.4-3-7.7-3-12.1c0-1.3-0.1-2.7-0.2-4
				c0-0.6,0.4-1,0.9-1.1c0.6,0,1,0.4,1.1,0.9c0.1,1.4,0.1,2.8,0.2,4.1c0.1,4.3,0.2,8,2.6,10.9c2.1,2.6,7.6,6.5,14.2,10.3
				c3.9,2.3,8.9,2.3,12.8,0c6.6-3.8,12.1-7.7,14.2-10.3c2.4-2.9,2.5-6.6,2.6-10.9c0-1.3,0.1-2.7,0.2-4.1c0-0.6,0.5-1,1.1-0.9
				c0.6,0,1,0.5,0.9,1.1c-0.1,1.4-0.1,2.7-0.2,4c-0.1,4.5-0.2,8.7-3,12.1c-2.3,2.8-7.9,6.8-14.8,10.8
				C95.7,131.2,93.1,131.8,90.6,131.8z"/>
		</g>
		<g>
			<path class="st8" d="M97.5,129c-4.3,2.4-9.5,2.4-13.8,0c-3.7-2.1-6.9-4.2-9.5-6.1v15.2c0,0,4.4,5.3,15.8,5.3s15.8-5.3,15.8-5.3
				v-14.3C103.4,125.4,100.6,127.2,97.5,129z"/>
		</g>
		<g>
			<path class="st8" d="M136.4,156c-0.3,0-0.6-0.1-0.8-0.4c0,0-2.1-2.7-8.5-5.6c-3.8-1.7-23.6-11.4-24.4-11.8
				c-0.5-0.2-0.7-0.8-0.5-1.3c0.2-0.5,0.8-0.7,1.3-0.5c0.2,0.1,20.6,10.1,24.4,11.8c7,3.2,9.2,6.2,9.3,6.3c0.3,0.4,0.2,1.1-0.2,1.4
				C136.8,156,136.6,156,136.4,156z"/>
		</g>
		<g>
			<path class="st8" d="M43.9,156c-0.2,0-0.4,0-0.5-0.1c-0.5-0.3-0.6-0.9-0.3-1.4c0.1-0.1,2-3.2,9-6.4c3.8-1.7,24.2-11.7,24.4-11.8
				c0.5-0.2,1.1,0,1.3,0.5c0.2,0.5,0,1.1-0.5,1.3c-0.8,0.4-20.6,10.1-24.4,11.8c-6.4,2.9-8.1,5.5-8.1,5.6
				C44.6,155.8,44.3,156,43.9,156z"/>
		</g>
		<g>
			<path class="st8" d="M90.1,147.4C90,147.4,90,147.4,90.1,147.4c-0.4,0-0.6-0.2-0.6-0.5c0-0.3,0.2-0.5,0.5-0.5
				c0.1,0,8.2,0.1,15.2-4.6c0.2-0.2,0.5-0.1,0.7,0.1c0.2,0.2,0.1,0.5-0.1,0.7C98.9,147.3,91.1,147.4,90.1,147.4z"/>
		</g>
		<g>
			<path class="st12" d="M89.1,100.3L89.1,100.3c-0.8,0-1.5-0.7-1.5-1.5V87c0-0.8,0.7-1.5,1.5-1.5h0c0.8,0,1.5,0.7,1.5,1.5v11.7
				C90.6,99.6,89.9,100.3,89.1,100.3z"/>
		</g>
	</g>
</g>
</svg>
