<?xml version="1.0" encoding="utf-8"?>
<!-- Generator: Adobe Illustrator 21.1.0, SVG Export Plug-In . SVG Version: 6.00 Build 0)  -->
<svg version="1.1" xmlns="http://www.w3.org/2000/svg" xmlns:xlink="http://www.w3.org/1999/xlink" x="0px" y="0px"
	 viewBox="0 0 200 200" style="enable-background:new 0 0 200 200;" xml:space="preserve">
<style type="text/css">
	.st0{fill:none;stroke:#B3C0C7;stroke-miterlimit:10;}
	.st1{fill:#778085;}
	.st2{fill:#FD7E23;}
	.st3{fill:#30E6B6;}
	.st4{fill:#29C49B;}
	.st5{fill:#FDD353;}
	.st6{fill:#FDE4D2;}
	.st7{fill:#F2C2A0;}
	.st8{fill:#4D5052;}
	.st9{fill:#FD6A5D;}
	.st10{fill:#D1584D;}
	.st11{fill:#B8FFEC;}
	.st12{fill:#FFFFFF;}
	.st13{fill:#C9C9C9;}
	.st14{fill:#1DAAF1;}
	.st15{fill:#1682B8;}
	.st16{fill:#5EC9FF;}
	.st17{fill:#DB5F07;}
	.st18{fill:#C4F2EB;}
	.st19{fill:#B4DED7;}
	.st20{fill:#ABABAB;}
	.st21{fill:#757575;}
	.st22{fill:#878787;}
	.st23{fill:#C9EDFF;}
	.st24{fill:#93C2D9;}
	.st25{fill:#FDA29A;}
	.st26{fill:#9C9C9C;}
	.st27{fill:url(#SVGID_1_);}
	.st28{fill:url(#SVGID_2_);}
	.st29{fill:url(#SVGID_3_);}
	.st30{fill:url(#SVGID_4_);}
	.st31{fill:#A5F2DE;}
</style>
<g id="marks">
</g>
<g id="icons">
	<g>
		<path class="st12" d="M66.1,163.6c0,0-2.3-14.4,3.9-21.5c6.1-7.2,6.5-8,6.5-8s5.9,6.4,14.6,9.1s14.8,5.6,16.7,6.7s3.8,3.4,3.8,3.4
			s2.9-4,6.6-6.5c3.7-2.5,12-6.5,16.8-9.7s6.7-4.2,6.7-4.2s6.7,3.9,8.3,8.6s2.7,19.5,2.7,19.5s-18.3,14.5-39.7,16.2
			S66.1,163.6,66.1,163.6z"/>
		<polygon class="st13" points="85.8,142.1 85.8,173.2 89.7,174.6 90.2,142.1 		"/>
		<path class="st13" d="M112.8,153.3c0,0,4.6-5,16.1-6.2c7.4-0.7,17.3,0.2,22.1-3.8c0,0-4.7-7.4-7.1-8.9s-3.9-0.9-3.9-0.9
			s-11.4,8.6-16.1,10.5S113,149.4,112.8,153.3z"/>
		<path class="st6" d="M68.1,102.6c-2.9-1.8-6.3-1.9-9,0.8s-5.5,6.2-3,11c2.4,4.8,6.1,6,9,5.5c2.9-0.5,4.6-2.1,4.4-1.4
			c-0.3,0.7,1.9,13.1,10.5,18.6s20,8,23.8,10.2s8.1,5,8.1,5s5-5.5,13.5-9.4s14.5-7.6,17.4-11.9s5.5-15.8,5.5-15.8s2.6,2.7,6.7,0.3
			c4.1-2.4,5.8-6.5,5.3-9.8s2-5.3-3.8-6.8s-9.4,0.4-9.4,0.4s4.8-29.4-0.3-35.5s-7.8-11-7.8-11l-2.1-1.2c0,0-4.8,3.1-8.9,3.9
			c-4.2,0.7-15.1-2.3-15.1-2.3s-4.2,3.9-9.1,4.4s-20.8-2.3-24.2-6c-3.5-3.7-6.1-4.9-6.1-4.9L68.1,102.6z"/>
		<path class="st7" d="M147.7,107.6c0.8-4.5,3.4-11.6,8.9-8.5c5.5,3.1,5.9,9.2,2.6,12.6c-3.3,3.4-4.6,5.2-8.3,4.7s-4.1-2.9-4.1-2.9
			L147.7,107.6z"/>
		<path class="st7" d="M80.7,130.1c4.1,2.6,8.3,4.9,13.6,4.5c6.5-0.5,11-5,13.2-11.2s1.6-14.3,1.6-14.3S105,123.2,98.7,127
			S80.7,130.1,80.7,130.1z"/>
		<path class="st7" d="M121.1,120.5c6.1,6,11,7.6,16.4,7.6c6.5,0,9.1-4.5,9.1-4.5l0.6-10.7c0,0-4.8,9.2-12.9,8.7
			C126.1,121.1,121.1,120.5,121.1,120.5z"/>
		<path class="st12" d="M116,87.7c0.4-9.9,3-24.4,12-27.6s19.6,0.7,20.3,8.3c0.7,7.7,1.7,37.2-1.8,42.4c-3.5,5.2-7.3,10.8-12.3,10.8
			c-5,0-13.4-6.1-13.4-6.1l3.8-6.2l-6-0.3C118.6,108.9,115.6,98.2,116,87.7z"/>
		<path class="st6" d="M130.2,112.7c2.6-0.3,4.9-0.5,8.7-6.7c5.1-8.4,3.9-30.4,3.9-30.4s4.5,20.2-1,32c-3.9,8.3-9.3,8.5-12.1,7.5
			c-2.8-1-3.7-3.4-3.7-3.4S128.9,112.8,130.2,112.7z"/>
		<path class="st12" d="M88.3,128.1c6.8,0.4,15.6-2.8,17.6-18.8s2.9-30-1.4-37.9s-7.2-10.9-11.5-9.9s-8.1-2.5-13.1,6.8
			s-8.9,23.6-7,33S75.8,127.3,88.3,128.1z"/>
		<path class="st6" d="M85,119.8c1.4,0.1,5.5,1.4,10.3-5.6c5.4-7.9,6.9-29.1,6.9-29.1s1.8,17.7-3.5,29.6
			c-4.6,10.6-11.7,9.1-13.8,7.8c-2.5-1.6-3.2-4.5-3.2-4.5S83.6,119.7,85,119.8z"/>
		<path class="st9" d="M141.7,55.5c0,0,3.1,4.3,5.5,12.9c2.4,8.6,1.3,30.4,1.3,30.4s8.5-1,10.8,3.1c2.3,4.1,0.7,12.4-4.2,13.8
			c-4.9,1.4-7.9,0.1-7.9,0.1s0.1,2.3-0.4,6.6c-0.5,4.3-6.6,9.8-6.6,9.8s8,3.8,10,10.7c2,6.8,3.8,18.1,3.8,18.1s13.4-12.1,15.2-17.4
			c1.8-5.3,11.3-19.1,8.7-45.6c-2.7-26.5-23-43.9-23-43.9s-3.8,1.9-6.8,1.9S141.7,55.5,141.7,55.5z"/>
		<path class="st10" d="M166.6,101c-2.3-1.6-4.5-1.8-6.4-1.5c0-0.4,0.1-0.8,0.1-1.2l0.1-1.4c0.7-9.3,2.2-28.6-6.2-37.7
			c0,0,2.9,1.1,5.5,1.1c-2.2-2.6-4.1-4.6-5.3-5.8c-1.2,0.5-3.9,1.6-6.2,1.6c-3,0-6.4-0.5-6.4-0.5s3.1,4.3,5.5,12.9
			c2.1,7.3,1.6,24.1,1.4,29c2.2,0,5.6,0.3,7.5,2c1.4,0.5,2.6,1.2,3.2,2.5c2.3,4.1,0.7,12.4-4.2,13.8s-7.9,0.1-7.9,0.1
			s0.1,2.3-0.4,6.6s-6.6,9.8-6.6,9.8s8,3.8,10,10.7c1.6,5.5,3.1,14,3.6,17c0.5,0,1-0.1,1.6-0.1c1.4-1.4,3.8-3.7,6.2-6.2
			c-0.4-1.8-0.9-4-0.9-4.3c-2-7.6-7.6-11.6-10.1-13.1c1.6-1.8,2.9-3.8,3.8-6c1.3-3.2,2-6.9,2.4-10.5c1,0.4,2.2,0.8,3.6,0.8
			c1.5,0,3.2-0.4,4.9-1.7c3-2.3,5-6.3,4.9-10.2C170.3,105.3,169,102.6,166.6,101z"/>
		<path class="st9" d="M72.9,45.5c0,0-1.4,16.4-2.2,25.9c-0.7,8.9-1.8,30.2-1.8,30.2s-11.4,0.4-13.6,4.5c-2.3,4.1,0.7,11.7,5.6,13.1
			c4.9,1.4,8.4,0,8.4,0s1-0.3,1.4,4c0.5,4.3,5.8,10.9,5.8,10.9s-6.3,5.3-8.2,12.1c-2,6.8-2.4,16.4-2.4,16.4s-16-15.2-17.9-20.5
			c-1.8-5.3-11.4-16.6-8.8-43.1S61,54.1,61,54.1s2.9-1.6,7.1-4.2C70.7,48.4,72.9,45.5,72.9,45.5z"/>
		<path class="st2" d="M72.9,45.5c3.4-1.8,30.6-16,57.2-16.2c26.7-0.2,30.2,12.6,29,17.6s-5.5,10.9-12.2,8.7s-11.3-4-11.3-4
			s-6.9,5.1-12.3,4.5c-5.5-0.6-10.3-2.8-10.3-2.8s-1.8,3.3-8.2,4.5c-6.3,1.2-19.5-1.4-21.5-3.7S72.9,45.5,72.9,45.5z"/>
		<path class="st17" d="M116,49.8c0,0,3.6,1.7,8.9,1.1s7.9-2.6,7.9-2.6l4.2,3.4c0,0-6.5,4-11.3,4.2s-11.7-2.3-11.7-2.3L116,49.8z"/>
		<path class="st17" d="M80.7,50.9c6.1,2.4,13.9,3.9,19.8,3.2s9-3.2,9-3.2l3.4,2.4c0,0-4.8,5.2-10.7,5.4s-16.6-3.5-18.4-4.6
			S80.7,50.9,80.7,50.9z"/>
		<path class="st17" d="M136.9,51.7c2.9,1.7,11.6,1.3,15.2-3.8s0.8-12.8-3-15.5s8.4,3,10.2,9.3c1.8,6.3-2.7,11.7-6.2,13.2
			s-9,1.3-12.4-0.6C137.4,52.6,136.9,51.7,136.9,51.7z"/>
		<g>
			<path class="st8" d="M108.5,177.9c-39.1,0-71-31.9-71-71c0-25.2,13.6-48.7,35.4-61.4c0.5-0.3,1.1-0.1,1.4,0.4
				c0.3,0.5,0.1,1.1-0.4,1.4c-21.2,12.3-34.4,35.2-34.4,59.7c0,38,31,69,69,69s69-31,69-69c0-19.9-8.6-38.8-23.6-51.9
				c-0.4-0.4-0.5-1-0.1-1.4c0.4-0.4,1-0.5,1.4-0.1c15.4,13.5,24.3,33,24.3,53.4C179.5,146.1,147.7,177.9,108.5,177.9z"/>
		</g>
		<g>
			<path class="st8" d="M112,130.5c-0.2,0-0.3,0-0.5,0c-1.4-0.1-4-0.8-5.6-4.4c-0.2-0.5,0-1.1,0.5-1.3c0.5-0.2,1.1,0,1.3,0.5
				c1.1,2.5,2.7,3.1,3.9,3.2c1.6,0.1,3.2-0.7,4-1.9c0.8-1.3-0.4-5.1-1.5-7.3c-0.2-0.4-0.1-0.9,0.2-1.2l8.2-8.2h-9.5
				c-0.6,0-1-0.4-1-1s0.4-1,1-1h11.9c0.4,0,0.8,0.2,0.9,0.6c0.2,0.4,0.1,0.8-0.2,1.1l-9.5,9.5c0.8,1.7,2.6,6.2,1.1,8.6
				C116.3,129.4,114.2,130.5,112,130.5z"/>
		</g>
		<g>
			<path class="st8" d="M111.8,153.9c-0.3,0-0.6-0.2-0.8-0.4c0,0-2.1-3-7.5-4.9c-1-0.3-2.2-0.7-3.5-1.1c-6.8-1.9-18.1-5.2-25.6-15.1
				c-9.2-12-6.7-34.5-6.5-36.1c0-7.3,4-48.5,4.2-50.4c0,0,0-0.1,0-0.1c0-0.1,0-0.1,0-0.2c0.1-0.2,0.2-0.3,0.4-0.5c0,0,0,0,0.1,0
				c0.3-0.2,6-3.7,15.3-7.5c16.6-6.8,38.9-10.8,51.8-9.2c9.2,1.1,16.6,5.4,19.5,11.1c1.9,3.7,1.7,7.7-0.6,11.7
				c-1.8,3.2-4.6,5.1-8.1,5.6c-4.9,0.7-10.3-1.5-14.1-4c-6.1,3.9-15.8,4.6-21.9,2.1c-0.4-0.2-0.8-0.3-1.2-0.5
				c-0.2,0.2-0.5,0.5-0.7,0.7c-2.8,2.5-8.2,5.1-17.7,3.1c-12-2.5-18.4-7.4-21.1-10c-0.9,9-4,41.9-4,48.1c0,0,0,0.1,0,0.1
				c0,0.2-2.8,23.2,6.1,34.7c7.1,9.3,17.7,12.4,24.6,14.4c1.4,0.4,2.6,0.8,3.7,1.1c3.9,1.4,6.3,3.3,7.5,4.5c1.1-1.7,3.8-4.8,9.5-7.3
				c9.8-4.4,20.3-9.9,23.4-18c3.4-8.7,2.5-22,2.5-22.2c0-0.6,0.4-1,0.9-1.1c0.5,0,1,0.4,1.1,0.9c0,0.6,1,13.9-2.6,23.1
				c-3.5,8.7-14.3,14.5-24.5,19.1c-7.5,3.4-9.1,7.6-9.2,7.6c-0.1,0.4-0.4,0.6-0.8,0.6C111.9,153.9,111.9,153.9,111.8,153.9z
				 M74.6,46.2c2,2.1,8.2,7.5,20.8,10.2c8.7,1.8,13.4-0.4,15.9-2.6c0.1,0,0.1-0.1,0.2-0.1c-3.9-2.2-6.4-5.1-7-8.1
				c-0.4-2.2,0.2-4.2,1.8-5.7c1.5-1.5,3.9-1.9,6.1-1c2.7,1,4.5,3.5,4.7,6.4c0.2,2.1-0.4,5-2.3,7.8c0.2,0.1,0.4,0.2,0.6,0.2
				c5.4,2.1,13.9,1.6,19.4-1.5c-0.6-0.5-1.1-0.9-1.6-1.3c-3.9-3.8-3.9-8.3-2.8-11.1c1.1-2.6,3.4-4.2,6.1-4.1
				c2.3,0.1,4.2,1.3,5.3,3.4c1.6,3.1,1,7.5-1.4,10.9c-0.6,0.8-1.3,1.5-2,2.2c3.5,2.1,8.1,3.8,12,3.3c2.9-0.4,5.1-2,6.6-4.7
				c1.9-3.3,2.1-6.7,0.5-9.8c-2.5-5.1-9.4-8.9-17.9-10c-12.6-1.6-34.5,2.3-50.8,9C81.6,42.4,76.6,45.1,74.6,46.2z M110,40.4
				c-0.9,0-1.8,0.3-2.4,0.9c-1.1,1-1.5,2.4-1.2,3.9c0.5,2.5,2.9,5.1,6.5,7c1.7-2.2,2.3-4.8,2.2-6.7c-0.2-2.6-1.9-4.1-3.4-4.7
				C111,40.5,110.5,40.4,110,40.4z M136.1,37.1c-1.7,0-3.2,1.1-4,2.9c-0.9,2.2-0.9,5.8,2.3,8.8c0.5,0.5,1.2,1.1,2,1.6
				c0.8-0.7,1.6-1.4,2.1-2.2c2-2.8,2.5-6.4,1.3-8.9c-0.5-1-1.5-2.2-3.6-2.3C136.2,37.1,136.2,37.1,136.1,37.1z"/>
		</g>
		<g>
			<g>
				<path class="st8" d="M89,132.6c-4.2,0-7.9-1.6-11-4.6c-6.8-6.8-8.6-19.7-8.5-25.6l0-0.6c0-11.8,0-43,23.1-43
					c4.6,0,8.5,1.6,11.4,4.8c8.4,9.1,6.9,28.4,6.2,37.7l-0.1,1.4C108.7,121.6,101,132.6,89,132.6z M92.6,64.8c-15,0-17,19.7-17,36.9
					l0,0.6c0,0,0,0,0,0c0,4,1.2,15.7,6.8,21.3c1.9,1.9,4.1,2.8,6.7,2.8c11.9,0,14.4-17,15-24.3l0.1-1.4c0.6-7.8,2-25.9-4.6-33
					C97.7,65.8,95.5,64.8,92.6,64.8z M72.5,102.4L72.5,102.4L72.5,102.4z"/>
			</g>
		</g>
		<g>
			<ellipse class="st8" cx="92.9" cy="91.9" rx="4.8" ry="9.5"/>
		</g>
		<g>
			<ellipse class="st8" cx="128" cy="86.9" rx="4.8" ry="9.5"/>
		</g>
		<g>
			<path class="st8" d="M134.8,113.6c-0.2,0-0.4-0.1-0.5-0.3c-0.1-0.2,0-0.5,0.2-0.7l0,0c0,0,4.7-2.4,6.2-13.2
				c0-0.3,0.3-0.5,0.6-0.4c0.3,0,0.5,0.3,0.4,0.6c-1.5,11.4-6.5,13.9-6.7,14C134.9,113.6,134.8,113.6,134.8,113.6z"/>
		</g>
		<g>
			<path class="st8" d="M146.1,58.8c-2.9-3.1-6.6-4.6-11-4.6c-22.2,0-22.2,29.9-22.2,41.2l0,0.6c0,3,0.5,8,1.9,12.9h6.4
				c-1.7-5-2.2-10.5-2.2-12.9v0l0-0.6c0-16.3,1.9-35.1,16.1-35.1c2.7,0,4.8,0.9,6.5,2.7c6.2,6.7,4.9,24,4.3,31.4l-0.1,1.3
				c-0.5,6.9-2.9,23.1-14.2,23.1c-2.4,0-4.5-0.9-6.3-2.7c-1.3-1.3-2.3-2.8-3.1-4.6l-4.5,4.5c0.9,1.6,2,3.1,3.3,4.4
				c3,3,6.5,4.5,10.6,4.5c11.6,0,18.9-10.5,20.3-28.8l0.1-1.3C152.8,86,154.2,67.5,146.1,58.8z"/>
		</g>
		<g>
			<path class="st8" d="M73.1,47c-0.2,0-0.4-0.1-0.5-0.2l-9-5.8c-0.5-0.3-0.6-0.9-0.3-1.4c0.3-0.5,0.9-0.6,1.4-0.3l7.7,4.9l1.2-9.3
				c0.1-0.5,0.6-0.9,1.1-0.9c0.5,0.1,0.9,0.6,0.9,1.1L74,46.1c0,0.3-0.3,0.6-0.6,0.8C73.3,46.9,73.2,47,73.1,47z"/>
		</g>
		<g>
			<path class="st8" d="M152.2,117.3c-2.1,0-3.9-0.9-4.9-1.6c-0.4-0.3-0.5-1-0.2-1.4c0.3-0.4,1-0.5,1.4-0.2c0.2,0.1,3.6,2.7,7.2,0
				c2.4-1.8,3.9-5,3.9-8.1c0-2.4-1-4.5-2.7-5.7c-3.8-2.7-7-0.1-7,0c-0.4,0.4-1.1,0.3-1.4-0.1c-0.3-0.4-0.3-1.1,0.1-1.4
				c1.5-1.3,5.5-2.9,9.5,0c2.3,1.6,3.5,4.2,3.6,7.3c0,3.7-1.8,7.6-4.7,9.7C155.3,116.9,153.7,117.3,152.2,117.3z"/>
		</g>
		<g>
			<path class="st8" d="M64.5,120.8c-3.2,0-6.7-1.2-8.7-5c-1.7-3.3-1.9-6.8-0.5-9.7c1.1-2.5,3.2-4.2,5.8-4.9
				c4.5-1.2,7.7,0.3,7.9,0.4c0.5,0.2,0.7,0.8,0.5,1.3c-0.2,0.5-0.8,0.7-1.3,0.5c0,0-2.7-1.3-6.5-0.3c-2,0.5-3.6,1.9-4.5,3.8
				c-1.1,2.3-0.9,5.2,0.5,8c1.3,2.7,3.7,4,7,3.9c2.6,0,4.7-0.9,4.8-0.9c0.5-0.2,1.1,0,1.3,0.5s0,1.1-0.5,1.3
				C68.6,120.3,66.6,120.8,64.5,120.8z"/>
		</g>
		<g>
			<path class="st8" d="M153.1,161.9C153.1,161.9,153,161.9,153.1,161.9c-0.6-0.1-1-0.5-1-1.1c0-0.1,0.6-7.1-1.6-15.4
				c-2.2-8.3-9.7-11.8-9.7-11.9c-0.5-0.2-0.7-0.8-0.5-1.3c0.2-0.5,0.8-0.7,1.3-0.5c0.3,0.2,8.4,3.9,10.9,13.2
				c2.3,8.7,1.7,15.8,1.6,16.1C154,161.5,153.6,161.9,153.1,161.9z"/>
		</g>
		<g>
			<path class="st8" d="M66.1,163.6L66.1,163.6c-0.6,0-1-0.4-1-1c0-0.5,0-13,3.7-20.8c2.8-6,7.3-8.7,7.5-8.9
				c0.5-0.3,1.1-0.1,1.4,0.3c0.3,0.5,0.1,1.1-0.3,1.4c0,0-4.2,2.6-6.7,8c-3.4,7.4-3.5,19.8-3.5,19.9
				C67.1,163.2,66.7,163.6,66.1,163.6z"/>
		</g>
		<g>
			<path class="st8" d="M89.3,175.3C89.3,175.3,89.3,175.3,89.3,175.3c-0.6,0-1-0.5-1-1l0.8-31.2c0-0.6,0.5-1,1-1c0.6,0,1,0.5,1,1
				l-0.8,31.2C90.3,174.8,89.9,175.3,89.3,175.3z"/>
		</g>
		<g>
			<circle class="st8" cx="98.7" cy="157.9" r="3.5"/>
		</g>
		<g>
			<path class="st8" d="M81.2,82.9C81.2,82.9,81.1,82.9,81.2,82.9c-0.3,0-0.5-0.3-0.5-0.6c0-0.3,0.7-6.5,4.7-10.6
				c3.7-3.8,7.5-3.3,7.6-3.3c0.3,0,0.5,0.3,0.4,0.6c0,0.3-0.3,0.5-0.6,0.4c-0.1,0-3.4-0.4-6.8,3c-3.8,3.9-4.4,9.9-4.4,10
				C81.6,82.7,81.4,82.9,81.2,82.9z"/>
		</g>
		<g>
			<path class="st8" d="M146.1,152.3C146.1,152.3,146.1,152.3,146.1,152.3c-0.3,0-0.5-0.2-0.5-0.5c0.2-9-5.9-12.1-6.2-12.2
				c-0.2-0.1-0.4-0.4-0.2-0.7c0.1-0.2,0.4-0.4,0.7-0.2c0.1,0,7,3.4,6.8,13.1C146.6,152.1,146.4,152.3,146.1,152.3z"/>
		</g>
	</g>
</g>
</svg>
