<?xml version="1.0" encoding="utf-8"?>
<!-- Generator: Adobe Illustrator 21.1.0, SVG Export Plug-In . SVG Version: 6.00 Build 0)  -->
<svg version="1.1" xmlns="http://www.w3.org/2000/svg" xmlns:xlink="http://www.w3.org/1999/xlink" x="0px" y="0px"
	 viewBox="0 0 200 200" style="enable-background:new 0 0 200 200;" xml:space="preserve">
<style type="text/css">
	.st0{fill:none;stroke:#B3C0C7;stroke-miterlimit:10;}
	.st1{fill:#778085;}
	.st2{fill:#FD7E23;}
	.st3{fill:#30E6B6;}
	.st4{fill:#29C49B;}
	.st5{fill:#FDD353;}
	.st6{fill:#FDE4D2;}
	.st7{fill:#F2C2A0;}
	.st8{fill:#4D5052;}
	.st9{fill:#FD6A5D;}
	.st10{fill:#D1584D;}
	.st11{fill:#B8FFEC;}
	.st12{fill:#FFFFFF;}
	.st13{fill:#C9C9C9;}
	.st14{fill:#1DAAF1;}
	.st15{fill:#1682B8;}
	.st16{fill:#5EC9FF;}
	.st17{fill:#DB5F07;}
	.st18{fill:#C4F2EB;}
	.st19{fill:#B4DED7;}
	.st20{fill:#ABABAB;}
	.st21{fill:#757575;}
	.st22{fill:#878787;}
	.st23{fill:#C9EDFF;}
	.st24{fill:#93C2D9;}
	.st25{fill:#FDA29A;}
	.st26{fill:#9C9C9C;}
	.st27{fill:url(#SVGID_1_);}
	.st28{fill:url(#SVGID_2_);}
	.st29{fill:url(#SVGID_3_);}
	.st30{fill:url(#SVGID_4_);}
	.st31{fill:#A5F2DE;}
</style>
<g id="marks">
</g>
<g id="icons">
	<g>
		<g>
			<circle class="st14" cx="106" cy="104.6" r="70"/>
		</g>
		<g>
			<path class="st15" d="M130.5,146.2v-8c0-1.8-1.5-3.3-3.3-3.3h-0.4v-19.8c0.8-0.2,1.6-0.3,2.6-0.4h0c6,0,10.9-4.9,10.9-10.9V92.9
				c0,0,0,4.1,1.9,4.1c1.3,0,3-0.7,4.6-2.6c2-2.3,3.6-6.6,3.2-11.9c-0.4-5.3-2-6.7-4.7-6.2c-2.4,0.5-5.6,3.8-5.6,3.8s0.3-6.3,0-14.7
				c-0.4-8.9-1.3-16.3-2.3-22c-0.1-0.5-0.2-1-0.3-1.5c-9.4-4.7-20-7.4-31.2-7.4c-4.6,0-9.2,0.5-13.6,1.3c-1.7,2.1-2.9,4.7-3.4,7.5
				c-1,5.7-1.9,13-2.3,22c-0.3,8.3,0,14.7,0,14.7s-3.1-3.3-5.6-3.8c-2.7-0.6-4.3,0.9-4.7,6.2c-0.4,5.3,1.3,9.6,3.2,11.9
				c1.6,1.9,3.4,2.6,4.6,2.6c1.9,0,1.9-4.1,1.9-4.1v10.9c0,6,4.9,10.9,10.9,10.9c1,0.1,1.8,0.2,2.6,0.4v19.8H99
				c-1.8,0-3.3,1.5-3.3,3.3v12.7L65.6,161c0,0,1.6,1.5,4.5,3.7c10.5,6.3,22.8,9.9,35.9,9.9c19.1,0,36.5-7.7,49.1-20.1L130.5,146.2z"
				/>
		</g>
		<g>
			<rect x="92.6" y="111.3" class="st7" width="26.9" height="27.4"/>
		</g>
		<g>
			<path class="st6" d="M142.4,79c-0.4-5.2-2-6.7-4.7-6.1c-2.4,0.5-5.5,3.8-5.5,3.8s0.3-6.3,0-14.5c-0.4-8.8-1.3-16.1-2.2-21.7
				c-1.4-7.9-8.2-13.6-16.2-13.6H106h-7.8c-8,0-14.8,5.7-16.2,13.6c-1,5.6-1.9,12.9-2.2,21.7c-0.3,8.2,0,14.5,0,14.5
				s-3.1-3.3-5.5-3.8c-2.7-0.6-4.2,0.9-4.7,6.1c-0.4,5.2,1.2,9.5,3.2,11.8c1.6,1.8,3.3,2.6,4.6,2.6c1.8,0,1.8-4.1,1.8-4.1v10.8
				c0,6,4.8,10.8,10.8,10.8c4.1,0.2,6.6,1.8,6.9,3.1h18.2c0.3-1.4,2.8-2.9,6.9-3.1h0c6,0,10.8-4.8,10.8-10.8V89.3c0,0,0,4.1,1.8,4.1
				c1.2,0,3-0.7,4.6-2.6C141.2,88.5,142.8,84.3,142.4,79z"/>
		</g>
		<g>
			<path class="st7" d="M131.1,88.5c0,0-0.6-10-0.8-10.1c-0.2-0.1,4.3-4.6,6.8-5.1s4.9,0.4,5.2,4.1c0.4,3.7-0.6,10.6-2,12.4
				c-1.3,1.8-4.2,4.2-5.8,3.7C133,92.8,131.1,88.5,131.1,88.5z"/>
		</g>
		<g>
			<circle class="st7" cx="94.1" cy="87.1" r="10.8"/>
		</g>
		<g>
			<circle class="st7" cx="121.4" cy="87.1" r="10.8"/>
		</g>
		<g>
			<path class="st13" d="M128.8,73.8c0.1,2.7,0.3,4.6,0.6,5.6c0.4,1,3-0.9,3.1-3.9c0.2-3,0.2-20.9-1.9-31.6
				c-2.1-10.7-3.3-13.4-10-15.5s-18-1.5-22-1.5s-11.3,2-13.2,5.9s-4.3,7.7-5.3,18.5s-0.9,22.9-0.7,24.3c0.2,1.4,1.3,4.1,2.7,4.3
				c1.4,0.2,0.8-5.9,1-10.6s1.2-22.7,2.3-26.2c1.1-3.4,3.2-6.4,3.2-6.4S89,49,106,49s17.3-10.3,17.3-10.3s-0.2-4.7,1.5,0
				C128.9,50,128.8,73.8,128.8,73.8z"/>
		</g>
		<g>
			<path class="st20" d="M131.9,62.2c-0.4-5.6-4.4-16.8-5.7-20.8c0,0,0.1,1.5,0.3,3.9c2.3,12,2.2,28.5,2.2,28.5c0,0.2,0,0.3,0,0.5
				c0,0.8,0.1,1.4,0.1,1.7c0.1,0.8,0.1,1.4,0.2,2c0.2,0.9,0.6,1.4,0.9,1.6c0.9-0.2,2.4-1.8,2.6-4.1c0-0.3,0-0.7,0-1.1
				C132.5,71.5,132.2,66.3,131.9,62.2z"/>
		</g>
		<g>
			<path class="st20" d="M96.1,42.8c1.9,0.5,8.2,1.8,13.6-0.7c5.3-2.4,7-6,7.5-7.5c0.9-2.3,0.8-5,0.8-5s3.8,3.3,2.2,8.9
				c-1.6,5.6-8.5,8.4-15.7,7.6C97.7,45.4,96.1,42.8,96.1,42.8z"/>
		</g>
		<g>
			<circle class="st12" cx="92.6" cy="83.9" r="10.9"/>
		</g>
		<g>
			<circle class="st12" cx="119.4" cy="83.9" r="10.9"/>
		</g>
		<g>
			<path class="st13" d="M126.2,80.2l-10.4,10.4c1.1,0.6,2.4,0.9,3.7,0.9c4.2,0,7.7-3.4,7.7-7.7C127.1,82.5,126.8,81.3,126.2,80.2z"
				/>
		</g>
		<g>
			<path class="st13" d="M99.4,80.2L89,90.6c1.1,0.6,2.4,0.9,3.7,0.9c4.2,0,7.7-3.4,7.7-7.7C100.3,82.5,100,81.3,99.4,80.2z"/>
		</g>
		<g>
			<path class="st13" d="M106,126.3L106,126.3c-5,0-9.1-4.1-9.1-9.1v-8.6c0-5.3,4.3-9.6,9.6-9.6h0c4.8,0,8.7,3.9,8.7,8.7v9.4
				C115.1,122.2,111,126.3,106,126.3z"/>
		</g>
		<g>
			<path class="st8" d="M106,175.6c-39.1,0-71-31.9-71-71c0-29.9,18.9-56.8,47.1-66.9c0.5-0.2,1.1,0.1,1.3,0.6
				c0.2,0.5-0.1,1.1-0.6,1.3C55.4,49.4,37,75.5,37,104.6c0,38,31,69,69,69s69-31,69-69c0-29.1-18.4-55.2-45.8-65
				c-0.5-0.2-0.8-0.8-0.6-1.3c0.2-0.5,0.8-0.8,1.3-0.6c28.2,10.1,47.1,36.9,47.1,66.9C177,143.8,145.1,175.6,106,175.6z"/>
		</g>
		<g>
			<path class="st8" d="M83.1,79.3C83.1,79.3,83.1,79.3,83.1,79.3c-0.6,0-1-0.5-1-1c0-0.1,0.2-11.1,0.6-19.6
				c0.9-20.3,5-22.7,5.8-22.9c0.3-0.1,0.7,0,0.9,0.2c0.3,0.2,0.4,0.5,0.4,0.9c0,0-0.2,3.7,2.6,6.8c2.7,2.9,7.3,4.4,13.6,4.4
				c6.3,0,10.9-1.5,13.6-4.4c2.9-3.1,2.6-6.8,2.6-6.8c0-0.6,0.4-1,0.9-1.1c0.6-0.1,1,0.4,1.1,0.9c0,0.2,0.3,4.6-3.1,8.3
				C118,48.3,112.9,50,106,50s-12-1.7-15.1-5.1c-1.8-2-2.6-4.1-2.9-5.7c-1.1,2.2-2.8,7.5-3.3,19.5c-0.4,8.5-0.6,19.5-0.6,19.6
				C84.1,78.9,83.7,79.3,83.1,79.3z"/>
		</g>
		<g>
			<path class="st8" d="M128.9,79.3c-0.5,0-1-0.4-1-1c0-0.1-0.2-11.1-0.6-19.6c-0.8-18.9-4.4-21.1-4.5-21.1
				c-0.5-0.2-0.8-0.7-0.6-1.2s0.8-0.8,1.3-0.6c0.8,0.3,4.9,2.6,5.8,22.9c0.4,8.5,0.6,19.5,0.6,19.6
				C129.9,78.9,129.4,79.3,128.9,79.3C128.9,79.3,128.9,79.3,128.9,79.3z"/>
		</g>
		<g>
			<path class="st8" d="M92.6,95.8c-6.6,0-11.9-5.4-11.9-11.9S86,71.9,92.6,71.9s11.9,5.4,11.9,11.9S99.2,95.8,92.6,95.8z
				 M92.6,73.9c-5.5,0-9.9,4.5-9.9,9.9s4.5,9.9,9.9,9.9s9.9-4.5,9.9-9.9S98,73.9,92.6,73.9z"/>
		</g>
		<g>
			<path class="st8" d="M119.4,95.8c-6.6,0-11.9-5.4-11.9-11.9s5.4-11.9,11.9-11.9s11.9,5.4,11.9,11.9S126,95.8,119.4,95.8z
				 M119.4,73.9c-5.5,0-9.9,4.5-9.9,9.9s4.5,9.9,9.9,9.9c5.5,0,9.9-4.5,9.9-9.9S124.9,73.9,119.4,73.9z"/>
		</g>
		<g>
			<path class="st8" d="M119.4,92.1c-0.3,0-0.5-0.2-0.5-0.5s0.2-0.5,0.5-0.5c4,0,7.3-3.3,7.3-7.3c0-0.3,0.2-0.5,0.5-0.5
				s0.5,0.2,0.5,0.5C127.7,88.4,124,92.1,119.4,92.1z"/>
		</g>
		<g>
			<path class="st8" d="M92.6,92.1c-0.3,0-0.5-0.2-0.5-0.5s0.2-0.5,0.5-0.5c4,0,7.3-3.3,7.3-7.3c0-0.3,0.2-0.5,0.5-0.5
				s0.5,0.2,0.5,0.5C100.8,88.4,97.1,92.1,92.6,92.1z"/>
		</g>
		<g>
			<path class="st8" d="M108.5,84.9c-0.2,0-0.4-0.1-0.6-0.2c-2.1-1.5-3.5-0.3-3.7-0.1c-0.4,0.4-1,0.4-1.4,0c-0.4-0.4-0.4-1,0-1.4
				c0.9-0.9,3.4-2.2,6.3-0.1c0.5,0.3,0.6,0.9,0.2,1.4C109.1,84.7,108.8,84.9,108.5,84.9z"/>
		</g>
		<g>
			<path class="st8" d="M105.5,99.3c-0.9,0-1.7-0.3-2.3-0.8c-1.4-1.1-1.2-3.1-1.2-3.3c0.1-0.5,0.6-1,1.1-0.9
				c0.5,0.1,0.9,0.5,0.9,1.1c0,0.3,0,1.2,0.5,1.6c0.4,0.4,1.2,0.4,1.9,0.1c0.5-0.2,1.1-0.7,1.2-1.7c0.1-1.5,0-8.5,0-12
				c0-0.6,0.4-1,1-1c0.5,0,1,0.4,1,1c0,0.4,0.2,10.3,0,12.3c-0.2,1.5-1,2.7-2.4,3.3C106.6,99.2,106,99.3,105.5,99.3z"/>
		</g>
		<g>
			<path class="st8" d="M106,127.3c-5.6,0-10.1-4.5-10.1-10.1v-8.6c0-5.8,4.7-10.6,10.6-10.6c5.3,0,9.7,4.3,9.7,9.7v9.4
				C116.1,122.8,111.6,127.3,106,127.3z M106.4,100.1c-4.7,0-8.6,3.8-8.6,8.6v8.6c0,4.5,3.6,8.1,8.1,8.1s8.1-3.6,8.1-8.1v-9.4
				C114.1,103.5,110.7,100.1,106.4,100.1z"/>
		</g>
		<g>
			<path class="st8" d="M109.9,107.2h-7.8c-0.6,0-1-0.4-1-1s0.4-1,1-1h7.8c0.6,0,1,0.4,1,1S110.5,107.2,109.9,107.2z"/>
		</g>
		<g>
			<path class="st8" d="M119.4,139.7H92.6c-0.6,0-1-0.4-1-1v-27.4c0-0.6,0.4-1,1-1s1,0.4,1,1v26.4h24.9v-26.4c0-0.6,0.4-1,1-1
				s1,0.4,1,1v27.4C120.4,139.3,120,139.7,119.4,139.7z"/>
		</g>
		<g>
			<path class="st8" d="M117.4,144.7h-11.5H94.3l-35.5,11.9c0,0,17.8,17.5,47.1,17.8l0,0.2c29.7,0,46.8-18,46.8-18L117.4,144.7z"/>
		</g>
		<g>
			<path class="st8" d="M136.5,88.1c-0.2,0-0.3,0-0.5-0.1c-0.5-0.3-0.6-0.9-0.4-1.4c1.9-3.3,2.1-4.5,2.3-6.4
				c0.1-0.8-0.1-1.6-0.3-1.9c0,0-0.1,0-0.2,0.1c-1,0.7-2.6,2.2-2.7,2.2c-0.4,0.4-1,0.4-1.4,0c-0.4-0.4-0.4-1,0-1.4
				c0.1-0.1,1.8-1.6,2.9-2.4c1.1-0.7,1.9-0.4,2.2-0.2c1.5,0.9,1.3,3.5,1.3,3.8c-0.2,2.3-0.5,3.8-2.5,7.3
				C137.2,87.9,136.9,88.1,136.5,88.1z"/>
		</g>
		<g>
			<path class="st8" d="M96.9,115.1c-0.5,0-0.9-0.3-1-0.8c-0.2-0.7-2-2.1-5.9-2.3c0,0,0,0,0,0c-6.5,0-11.7-5.3-11.7-11.8v-5.9
				c-0.2,0.1-0.5,0.2-0.8,0.2c-1.8,0-3.8-1.1-5.3-2.9c-1.9-2.3-3.9-6.8-3.4-12.5c0.3-3.4,1-5.4,2.4-6.4c0.9-0.7,2.1-0.9,3.5-0.6
				c1.4,0.3,3,1.4,4.2,2.4c-0.1-2.6-0.1-7,0.1-12.2c0.3-7.7,1.1-15,2.2-21.8c1.5-8.4,8.7-14.4,17.2-14.4h15.6
				c8.5,0,15.7,6.1,17.2,14.4c1.2,6.8,1.9,14.1,2.2,21.8c0.2,5.2,0.2,9.6,0.1,12.2c1.2-1,2.8-2.1,4.2-2.4c1.4-0.3,2.6-0.1,3.5,0.6
				c1.4,1,2.1,3.1,2.4,6.4c0.5,5.7-1.5,10.2-3.4,12.5c-1.5,1.8-3.5,2.9-5.3,2.9c-0.3,0-0.6-0.1-0.8-0.2v5.9
				c0,6.5-5.3,11.8-11.8,11.8c-3.8,0.2-5.7,1.6-5.9,2.3c-0.1,0.5-0.6,0.9-1.2,0.8c-0.5-0.1-0.9-0.6-0.8-1.2c0.5-2.1,3.6-3.7,7.8-3.9
				c5.5,0,9.9-4.4,9.9-9.8V89.3c0,0,0,0,0,0s0,0,0,0c0,0,0,0,0,0c0,0,0,0,0,0c0,0,0,0,0,0s0,0,0,0c0,0,0,0,0,0v0c0,0,0,0,0,0
				c0,0,0,0,0,0s0,0,0,0c0,0,0,0,0,0v0c0,0,0,0,0,0c0,0,0,0,0,0c0,0,0,0,0,0c0,0,0,0,0,0c0-0.5,0.5-1,1-1c0.6,0,1,0.4,1,1
				c0,0,0,0,0,0c0,1.6,0.5,3.1,0.8,3.1c0.9,0,2.4-0.6,3.8-2.2c1.7-2,3.4-5.9,2.9-11c-0.2-2.7-0.7-4.4-1.6-5
				c-0.3-0.2-0.8-0.5-1.9-0.2c-1.7,0.4-4.2,2.6-5,3.5c-0.3,0.3-0.7,0.4-1.1,0.2c-0.4-0.2-0.6-0.6-0.6-1c0-0.1,0.3-6.3,0-14.4
				c-0.3-7.6-1.1-14.9-2.2-21.6c-1.3-7.4-7.7-12.8-15.2-12.8H98.2c-7.5,0-13.9,5.4-15.2,12.8c-1.2,6.7-1.9,14-2.2,21.6
				c-0.3,8.1,0,14.3,0,14.4c0,0.4-0.2,0.8-0.6,1c-0.4,0.2-0.8,0.1-1.1-0.2c-0.8-0.8-3.3-3.1-5-3.5c-1.1-0.2-1.6,0-1.9,0.2
				c-0.8,0.6-1.4,2.3-1.6,5c-0.4,5.1,1.3,9.1,2.9,11c1.4,1.6,2.9,2.2,3.8,2.2c0.4,0,0.8-1.5,0.8-3.1c0-0.6,0.4-1,1-1s1,0.4,1,1v10.8
				c0,5.4,4.4,9.8,9.8,9.8c4.3,0.3,7.4,1.8,7.8,3.9c0.1,0.5-0.2,1.1-0.8,1.2C97,115,96.9,115.1,96.9,115.1z"/>
		</g>
		<g>
			<path class="st8" d="M75.5,88.1c-0.3,0-0.7-0.2-0.9-0.5c-2-3.5-2.3-5-2.5-7.3c0-0.3-0.2-2.9,1.3-3.8c0.4-0.2,1.2-0.5,2.2,0.2
				c1.2,0.8,2.9,2.3,2.9,2.4c0.4,0.4,0.4,1,0,1.4c-0.4,0.4-1,0.4-1.4,0c0,0-1.6-1.5-2.7-2.2c-0.1,0-0.1-0.1-0.2-0.1
				c-0.2,0.3-0.3,1.1-0.3,1.9c0.1,1.9,0.3,3.1,2.3,6.4c0.3,0.5,0.1,1.1-0.4,1.4C75.8,88.1,75.7,88.1,75.5,88.1z"/>
		</g>
		<g>
			<path class="st8" d="M110.4,45.4c-0.3,0-0.5-0.2-0.5-0.5c0-0.3,0.2-0.5,0.5-0.5c0,0,3.9-0.1,7-3.6c2.7-3.1,2.8-6.5,2.8-6.6
				c0-0.3,0.2-0.5,0.5-0.5h0c0.3,0,0.5,0.2,0.5,0.5c0,0.2,0,3.9-3,7.2C114.8,45.3,110.6,45.4,110.4,45.4
				C110.4,45.4,110.4,45.4,110.4,45.4z"/>
		</g>
		<g>
			<path class="st8" d="M111.5,75.3c-0.9,0-1.6,0-1.9-0.1c-0.6,0-1-0.5-0.9-1.1s0.5-1,1.1-0.9c1.5,0.1,4,0.1,4.7-0.2
				c0.5-0.2,1.1,0.1,1.3,0.6c0.2,0.5-0.1,1.1-0.6,1.3C114.3,75.2,112.7,75.3,111.5,75.3z"/>
		</g>
		<g>
			<path class="st8" d="M100.5,75.3c-1.3,0-2.9-0.1-3.7-0.4c-0.5-0.2-0.8-0.8-0.6-1.3c0.2-0.5,0.8-0.8,1.3-0.6
				c0.8,0.3,3.2,0.3,4.7,0.2c0.6,0,1,0.4,1.1,0.9c0,0.6-0.4,1-0.9,1.1C102.1,75.3,101.4,75.3,100.5,75.3z"/>
		</g>
		<g>
			<path class="st7" d="M115.1,69.7c2.9-0.5,5.2-0.8,7.8,0s3.1,1.3,3.1,1.3s0-8-0.5-13.6c-0.6-6.3-1.3-11.2-1.3-11.2
				s-0.3,7.6-4.2,16C117.9,66.7,115.1,69.7,115.1,69.7z"/>
		</g>
		<g>
			<path class="st8" d="M123,147.1H88.7v-13c0-1.8,1.4-3.2,3.2-3.2c0,0,4.6,1.8,13.9,1.8s14-1.8,14-1.8c1.8,0,3.2,1.4,3.2,3.2V147.1
				z"/>
		</g>
		<g>
			<path class="st20" d="M99.7,119.1c0,0,2.8,1.1,5.8,0.4c3.1-0.7,4.4-3,5.3-4.9c1-2.2,1.8-6.2,1.8-6.2s0,6.3,0,9.1
				s-2.6,6.1-6.5,6.1C100.7,123.6,99.7,119.1,99.7,119.1z"/>
		</g>
		<g>
			<path class="st21" d="M106.7,146.3c-7.8,0-13.7-2.8-14.1-3c-0.5-0.2-0.7-0.8-0.5-1.3s0.8-0.7,1.3-0.5c0.1,0.1,13.1,6.1,25.2,0
				c0.5-0.2,1.1,0,1.3,0.4c0.2,0.5,0,1.1-0.4,1.3C115.2,145.5,110.7,146.3,106.7,146.3z"/>
		</g>
		<g>
			<path class="st21" d="M106.6,152.2c-6.8,0-12-2.4-12.3-2.6c-0.5-0.2-0.7-0.8-0.5-1.3s0.8-0.7,1.3-0.5c0.1,0.1,11.3,5.3,21.9,0
				c0.5-0.2,1.1,0,1.3,0.4c0.2,0.5,0,1.1-0.4,1.3C114.1,151.6,110.1,152.2,106.6,152.2z"/>
		</g>
	</g>
</g>
</svg>
