<?xml version="1.0" encoding="utf-8"?>
<!-- Generator: Adobe Illustrator 21.1.0, SVG Export Plug-In . SVG Version: 6.00 Build 0)  -->
<svg version="1.1" xmlns="http://www.w3.org/2000/svg" xmlns:xlink="http://www.w3.org/1999/xlink" x="0px" y="0px"
	 viewBox="0 0 200 200" style="enable-background:new 0 0 200 200;" xml:space="preserve">
<style type="text/css">
	.st0{fill:none;stroke:#B3C0C7;stroke-miterlimit:10;}
	.st1{fill:#778085;}
	.st2{fill:#FD7E23;}
	.st3{fill:#30E6B6;}
	.st4{fill:#29C49B;}
	.st5{fill:#FDD353;}
	.st6{fill:#FDE4D2;}
	.st7{fill:#F2C2A0;}
	.st8{fill:#4D5052;}
	.st9{fill:#FD6A5D;}
	.st10{fill:#D1584D;}
	.st11{fill:#B8FFEC;}
	.st12{fill:#FFFFFF;}
	.st13{fill:#C9C9C9;}
	.st14{fill:#1DAAF1;}
	.st15{fill:#1682B8;}
	.st16{fill:#5EC9FF;}
	.st17{fill:#DB5F07;}
	.st18{fill:#C4F2EB;}
	.st19{fill:#B4DED7;}
	.st20{fill:#ABABAB;}
	.st21{fill:#757575;}
	.st22{fill:#878787;}
	.st23{fill:#C9EDFF;}
	.st24{fill:#93C2D9;}
	.st25{fill:#FDA29A;}
	.st26{fill:#9C9C9C;}
	.st27{fill:url(#SVGID_1_);}
	.st28{fill:url(#SVGID_2_);}
	.st29{fill:url(#SVGID_3_);}
	.st30{fill:url(#SVGID_4_);}
	.st31{fill:#A5F2DE;}
</style>
<g id="marks">
</g>
<g id="icons">
	<g>
		<g>
			<circle class="st2" cx="100" cy="100" r="70"/>
		</g>
		<g>
			<path class="st17" d="M148.3,150.6c-7.5-4.1-17.3-9-20.8-8.8v-3.3c5.3-3.2,10.6-9,14.7-19.3c0,0,1.9,0,3.3,0
				c5.5,0,9.4-6,7.2-11.4c-1-2.5-2.7-3.8-4.1-4.4l2,0c0,0,0,0,0,0c0.8,0,1.5-0.7,1.5-1.5c0-0.8-0.7-1.5-1.5-1.5l-2.5,0
				c0.7-1.8,2-5.6,2.7-7.8c0.9-3,6-17.4-9.1-33.4c-11.8-12.5-32.1-9.2-32.1-9.2s-20.3-3.3-32.1,9.2c-15.1,16-10,30.3-9.1,33.4
				c0.9,3,3.1,8.9,3.1,8.9l1.2-0.9c0.4,0.5,0.8,0.9,1.4,0.9l2-1.4c0,0,0-0.2,0.1-0.7c-0.3,6.1,0.7,12.8,3.5,19.8
				c4.1,10.3,9.6,16.1,15,19.3l-0.2,3.2c-1.7,0-3.3,1-4,2.7c-0.1,0.2-0.1,0.4-0.2,0.7c-0.5,0.4-0.9,0.7-1.4,1.1
				c0.1-0.3,0.1-0.4,0.1-0.4l-14.6,7.6l-8.4,4.4c0,0,5.5,4.9,13.9,9.3C86.3,169,93,170,100,170C118.7,170,135.7,162.6,148.3,150.6z"
				/>
		</g>
		<g>
			<path class="st9" d="M97.3,149.3c2.2-3.3,3.3-6.1,5.7-3c2.4,3.1,3.8,3.7,2.5,7.9s-1.3,4-0.9,6.5c0.4,2.6,5.3,8.4,2,8.8
				s-8.1,0.7-10.1,0.5c-2-0.2-2.1-0.9-0.6-3.8c1.4-2.9,3.9-6.3,1.9-9.9C95.9,152.6,95.3,152.3,97.3,149.3z"/>
		</g>
		<g>
			<path class="st12" d="M109.4,147.8c0.5-0.4-2.5,2.1-3.8,6.3c-1.2,4.2-1.5,5-0.2,8.5c1.3,3.5,1.3,7.1,4,6.7
				c2.7-0.4,8.6,0.3,14.1-6.5c5.6-6.9,5.9-18.3,3.3-19.6c-2.6-1.3-5.6-1.9-5.6-1.9L109.4,147.8z"/>
		</g>
		<g>
			<path class="st13" d="M113.6,168.8c2.2-3.7,2.7-7.7,2.9-10.8c0.2-3.1-1.7-3-1.7-3s3.6-1.8,5.6-5.8s2.1-8.2,2.1-8.2l3.8,2.5
				c0,0,1.9,9.9-1.1,14.6S113.6,168.8,113.6,168.8z"/>
		</g>
		<g>
			<path class="st12" d="M93.1,147.8c-0.5-0.4,2.5,2.1,3.8,6.3c1.2,4.2,1.5,5,0.2,8.5c-1.3,3.5-1.3,7.1-4,6.7
				c-2.7-0.4-8.6,0.3-14.1-6.5c-5.6-6.9-5.9-18.3-3.3-19.6s5.6-1.9,5.6-1.9L93.1,147.8z"/>
		</g>
		<g>
			<g>
				<g>
					<path class="st12" d="M121.7,139.9c-0.7-1.6-2.2-2.7-4-2.7v2.4c0,0-7.1,4.1-16.4,4.1l9.6,13.5c4.1-2.3,7-4.7,8.9-6.8
						C122.4,147.6,123.2,143.5,121.7,139.9z"/>
				</g>
			</g>
			<g>
				<path class="st13" d="M111.1,149.2c-0.4-1,0.2-2.2,1.2-2.6c2.2-0.8,5.4-2.3,7-3.9c2.2-2.3,0.6-3.8,0.6-3.8s4.1,3.7,2.1,7.5
					c-1.4,2.7-11.1,10.7-11.1,10.7S112.7,153.4,111.1,149.2z"/>
			</g>
			<g>
				<path class="st12" d="M84.9,137.3c-1.7,0-3.3,1-4,2.7c-1.5,3.6-0.7,7.7,1.9,10.5c1.9,2,4.7,4.4,8.9,6.8l9.6-13.5
					c-9.4,0-16.4-4.1-16.4-4.1V137.3z"/>
			</g>
		</g>
		<g>
			<path class="st7" d="M117.8,139.6c0,0-9.3,4.1-16.5,4.1c-7.3,0-16-4-16-4V131h32.6V139.6z"/>
		</g>
		<g>
			<path class="st7" d="M143.1,103.3c-1.9-4.9-6.4-5-6.4-5l-4.2,16.4c0,0,1.9,0,3.3,0C141.3,114.7,145.3,108.8,143.1,103.3z"/>
		</g>
		<g>
			<path class="st6" d="M101.3,60.1c0,0-11.8-0.2-22.3,8.6c-10.4,8.7-17,25.8-9,46c9.1,22.9,25.1,23.4,31.2,23.4
				c6.7,0,22.1-0.6,31.2-23.4c8.1-20.2,1.4-37.3-9-46C113.1,59.9,101.3,60.1,101.3,60.1"/>
		</g>
		<g>
			<path class="st7" d="M66.5,95c1.4-4.9,6.4-15,11.3-19.5s5.9-12.4,0.7-9.4S68.2,74,68.2,74l-1.8,10.5L66.5,95z"/>
		</g>
		<g>
			<path class="st7" d="M90.7,76.5c-0.1,0.4-1.8,2.9-1.8,2.9l6,2.5c0,0,3.2-3.6,4.6-8.1c1.4-4.5,2-12.4,2-12.4s-2.2-4.2-3-4.2
				s-2.7,4.2-2.7,4.2L90.7,76.5z"/>
		</g>
		<g>
			<path class="st7" d="M77.9,78.3c0,0-0.1,1.1,0,2.4S78,82,78,82l7.9-0.1c0,0,0.9-6,3-9.6c2.1-3.6,5.4-6.2,5.4-6.2l-1.7-7.5
				L78.6,71.6L77.9,78.3z"/>
		</g>
		<g>
			<path class="st7" d="M124.2,76.5l-10.6,3.6c0,0-6.9-3.5-6.9-11.2s5.7-11.1,5.7-11.1L124.2,76.5z"/>
		</g>
		<g>
			<path class="st7" d="M123.8,72.8c0,0,0.1,0.1,0.4,0.4c1,1.1,3.9,4.5,6,10.1c2.7,6.9,2.7,13.2,2.7,13.2s-1.9-6.9-5.9-8.7
				c-3.9-1.8-4.7-2-4.7-2s0.2-4.6-3-10.8C117.1,70.5,123.8,72.8,123.8,72.8z"/>
		</g>
		<g>
			<path class="st7" d="M96.4,98.5c0,0.1,0,0.3,0,0.4c0,7.8-6.3,14.1-14.1,14.1c-3.7,0-7-1.4-9.5-3.7c2.1,4.3,6.5,7.3,11.6,7.3
				c7.1,0,12.9-5.8,12.9-12.9C97.5,101.8,97.1,100,96.4,98.5z"/>
		</g>
		<g>
			<path class="st7" d="M112.5,133.5c0,0,8.9-3.7,13.6-12.2c4.7-8.5,5.8-15.2,5.8-15.2s-2.6,4.8-8.3,6.2c-5.6,1.4-13.2-0.7-15.3-3.6
				c0,0,2,5,8.4,7.4c3.9,1.4,6.8,1.2,6.8,1.2s-1.1,4.3-3.8,8.1C116.3,130.1,112.5,133.5,112.5,133.5z"/>
		</g>
		<g>
			<path class="st12" d="M71.4,106.1L90,87.5c0,0-8.7-3.6-14.7,0.8C69.3,92.7,68,100.7,71.4,106.1z"/>
		</g>
		<g>
			<path class="st12" d="M107.5,106.1l18.6-18.6c0,0-8.7-3.6-14.7,0.8C105.5,92.7,104.1,100.7,107.5,106.1z"/>
		</g>
		<g>
			<path class="st6" d="M65.9,98.3c0,0-4.4,0.1-6.4,5c-2.2,5.4,1.8,11.4,7.2,11.4c1.4,0,3.3,0,3.3,0"/>
		</g>
		<g>
			<path class="st8" d="M100,171c-39.1,0-71-31.9-71-71s31.9-71,71-71s71,31.9,71,71S139.1,171,100,171z M100,31c-38,0-69,31-69,69
				s31,69,69,69s69-31,69-69S138,31,100,31z"/>
		</g>
		<g>
			<path class="st8" d="M83.3,114c-8.1,0-14.6-6.6-14.6-14.6s6.6-14.6,14.6-14.6c8.1,0,14.6,6.6,14.6,14.6S91.3,114,83.3,114z
				 M83.3,86.7c-7,0-12.6,5.7-12.6,12.6S76.3,112,83.3,112s12.6-5.7,12.6-12.6S90.2,86.7,83.3,86.7z"/>
		</g>
		<g>
			<path class="st8" d="M119.3,114c-8.1,0-14.6-6.6-14.6-14.6s6.6-14.6,14.6-14.6c8.1,0,14.6,6.6,14.6,14.6S127.4,114,119.3,114z
				 M119.3,86.7c-7,0-12.6,5.7-12.6,12.6s5.7,12.6,12.6,12.6s12.6-5.7,12.6-12.6S126.3,86.7,119.3,86.7z"/>
		</g>
		<g>
			<path class="st8" d="M97,98.9c-0.4,0-0.9-0.3-1-0.8c-0.1-0.5,0.2-1.1,0.7-1.2c3-0.8,6.2-0.8,9.1,0c0.5,0.1,0.9,0.7,0.7,1.2
				c-0.1,0.5-0.7,0.9-1.2,0.7c-2.7-0.7-5.5-0.6-8.2,0C97.1,98.9,97,98.9,97,98.9z"/>
		</g>
		<g>
			<circle class="st8" cx="119.3" cy="99.4" r="4.3"/>
		</g>
		<g>
			<circle class="st8" cx="82.8" cy="99.4" r="4.3"/>
		</g>
		<g>
			<path class="st8" d="M100.5,92.4c-0.1,0-0.2,0-0.2-0.1c-0.2-0.1-0.3-0.4-0.2-0.7l3.7-6.9l-6,0c-0.2,0-0.4-0.1-0.4-0.3
				c-0.1-0.2-0.1-0.4,0-0.5l4.5-7.1c0.1-0.2,0.5-0.3,0.7-0.2c0.2,0.1,0.3,0.5,0.2,0.7l-4,6.3l5.9,0c0.2,0,0.3,0.1,0.4,0.2
				c0.1,0.2,0.1,0.3,0,0.5l-4.1,7.6C100.9,92.3,100.7,92.4,100.5,92.4z"/>
		</g>
		<g>
			<path class="st8" d="M101.3,121.1c-3.2,0-6.1-1.7-7.6-4.5c-0.3-0.5-0.1-1.1,0.4-1.4c0.5-0.3,1.1-0.1,1.4,0.4
				c1.2,2.1,3.4,3.5,5.8,3.5c2.4,0,4.7-1.3,5.8-3.5c0.3-0.5,0.9-0.7,1.4-0.4c0.5,0.3,0.7,0.9,0.4,1.4
				C107.4,119.4,104.5,121.1,101.3,121.1z"/>
		</g>
		<g>
			<path class="st8" d="M141.2,98.5C141.2,98.5,141.2,98.5,141.2,98.5l-7.8-0.1c-0.8,0-1.5-0.7-1.5-1.5c0-0.8,0.7-1.5,1.5-1.5
				c0,0,0,0,0,0l7.7,0.1c0.8,0,1.5,0.7,1.5,1.5C142.7,97.9,142,98.5,141.2,98.5z"/>
		</g>
		<g>
			<path class="st8" d="M135.9,115.7C135.9,115.7,135.9,115.7,135.9,115.7h-3.3c-0.6,0-1-0.4-1-1s0.4-1,1-1h3.3h0
				c2.2,0,4.2-1.1,5.5-3c1.4-2.1,1.7-4.7,0.8-7c-1.7-4.2-5.3-4.4-5.5-4.4c-0.5,0-1-0.5-1-1c0-0.5,0.5-1,1-1c0.2,0,5.1,0.2,7.3,5.6
				c1.2,2.9,0.8,6.2-1,8.8C141.4,114.3,138.7,115.7,135.9,115.7z"/>
		</g>
		<g>
			<path class="st8" d="M101.3,139.2c-15.2,0-25.7-7.9-32.2-24.1c-8.7-21.8-0.5-39,9.2-47.2c10.5-8.8,22.2-8.8,22.9-8.8
				c0.7,0,12.4,0,22.9,8.8c9.7,8.1,18,25.4,9.2,47.2C123.8,139.2,107.5,139.2,101.3,139.2z M101.2,61.1c-0.6,0-11.8,0.1-21.6,8.3
				c-9.2,7.7-17,24.1-8.7,44.9c9.1,22.8,25.1,22.8,30.3,22.8c5.8,0,21.2,0,30.3-22.8c8.3-20.8,0.5-37.2-8.7-44.9
				C112.9,61,101.4,61.1,101.2,61.1C101.3,61.1,101.3,61.1,101.2,61.1C101.3,61.1,101.3,61.1,101.2,61.1z"/>
		</g>
		<g>
			<path class="st8" d="M61.4,98.5c-0.8,0-1.5-0.7-1.5-1.5c0-0.8,0.7-1.5,1.5-1.5l7.7-0.1c0,0,0,0,0,0c0.8,0,1.5,0.7,1.5,1.5
				c0,0.8-0.7,1.5-1.5,1.5L61.4,98.5C61.4,98.5,61.4,98.5,61.4,98.5z"/>
		</g>
		<g>
			<path class="st8" d="M70,115.7h-3.3c-2.8,0-5.5-1.5-7.2-3.9c-1.8-2.6-2.1-5.9-1-8.8c2.2-5.4,7.1-5.6,7.3-5.6c0.5,0,1,0.4,1,1
				c0,0.6-0.4,1-1,1c-0.2,0-3.8,0.2-5.5,4.4c-0.9,2.3-0.6,4.9,0.8,7c1.3,1.9,3.3,3,5.5,3H70c0.6,0,1,0.4,1,1S70.6,115.7,70,115.7z"
				/>
		</g>
		<g>
			<path class="st8" d="M132.1,54.8c-11.8-12.5-32.1-9.2-32.1-9.2s-20.3-3.3-32.1,9.2c-15.1,16-10,30.3-9.1,33.4
				c0.9,3,3.1,8.9,3.1,8.9l1.2-0.9c0.4,0.5,0.8,0.9,1.4,0.9l2-1.4c0,0,0.1-1.5,0.5-5.2c0.3-2.2,1.2-5.7,2-8.2c0.5-1,1.2-2.2,2.2-3.5
				c2.2-2.9,3.7-4.5,4.7-5.4l2-2.6c-2.6,5.8-2,8.6-2,8.6h8c0,0,1.1-5.6,4-10.1c2.1-3.2,3.4-5,4-5.7l0.1,4.2
				c-0.3,5.3-3.8,9.4-3.8,9.4l5.5,2.2c0,0,3.7-5.6,4.5-10c0.7-3.8,0.9-6.7,0.9-8.5c0.6,2.5,2.3,8.6,4.7,12.1c3,4.5,6.2,5.6,6.2,5.6
				l6.6-1.6c0,0-6.4-4.2-5.9-13.4c0.6,0.6,7.4,7,9,12.6l5.7-3.8c0,0,1.9,1,5.9,6.3c1,1.3,1.7,2.5,2.2,3.5c0.8,2.5,1.8,6,2,8.2
				c0.4,3.7,0.5,5.2,0.5,5.2l2,1.4c0,0,2.2-5.9,3.1-8.9C142.1,85.1,147.2,70.7,132.1,54.8z"/>
		</g>
		<g>
			<g>
				<path class="st8" d="M123.2,156.2c3.2-6.2,0-14.9,0-14.9l23,11.9c0,0-14.6,13-32.6,15.6C113.6,168.8,119.4,163.6,123.2,156.2z"
					/>
			</g>
			<g>
				<path class="st8" d="M79.4,156.2c-3.2-6.2,0-14.9,0-14.9l-23,11.9c0,0,14.6,13,32.6,15.6C88.9,168.8,83.2,163.6,79.4,156.2z"/>
			</g>
		</g>
		<g>
			<path class="st8" d="M110.9,158.2c-0.3,0-0.6-0.1-0.8-0.4l-9.6-13.5c-0.2-0.3-0.2-0.7-0.1-1c0.2-0.3,0.5-0.5,0.9-0.5
				c7.6,0,13.7-2.8,15.4-3.7v-5c0-0.6,0.4-1,1-1s1,0.4,1,1v2.3c1.7,0.3,3.2,1.5,3.9,3.2c1.6,3.9,0.8,8.5-2.1,11.6
				c-2.3,2.5-5.4,4.9-9.1,7C111.3,158.2,111.1,158.2,110.9,158.2z M103.2,144.7l8,11.2c3.2-1.9,5.8-3.9,7.8-6.1
				c2.4-2.5,3-6.3,1.7-9.5c-0.4-0.9-1.1-1.6-2-1.9v1.2c0,0.4-0.2,0.7-0.5,0.9C117.9,140.7,111.7,144.2,103.2,144.7z"/>
		</g>
		<g>
			<path class="st8" d="M91.6,158.2c-0.2,0-0.3,0-0.5-0.1c-3.7-2.1-6.7-4.4-9.1-7c-2.9-3.1-3.7-7.7-2.1-11.6
				c0.7-1.7,2.2-2.9,3.9-3.2v-2.3c0-0.6,0.4-1,1-1s1,0.4,1,1v5c1.7,0.9,7.8,3.7,15.4,3.7c0.4,0,0.7,0.2,0.9,0.5
				c0.2,0.3,0.1,0.7-0.1,1l-9.6,13.5C92.3,158.1,92,158.2,91.6,158.2z M83.9,138.4c-0.9,0.3-1.7,1-2,1.9c-1.3,3.2-0.6,6.9,1.7,9.5
				c2,2.2,4.7,4.3,7.8,6.1l8-11.2c-8.5-0.5-14.7-4-15-4.2c-0.3-0.2-0.5-0.5-0.5-0.9V138.4z"/>
		</g>
		<g>
			<path class="st8" d="M94.5,170.3c-0.1,0-0.1,0-0.2,0c-0.3-0.1-0.4-0.4-0.3-0.6l4-10.7c0.1-0.3,0.4-0.4,0.6-0.3
				c0.3,0.1,0.4,0.4,0.3,0.6L95,170C94.9,170.2,94.8,170.3,94.5,170.3z"/>
		</g>
		<g>
			<path class="st8" d="M108,170c-0.2,0-0.4-0.1-0.5-0.3l-3.9-10.4c-0.1-0.3,0-0.5,0.3-0.6c0.3-0.1,0.5,0,0.6,0.3l3.9,10.4
				c0.1,0.3,0,0.5-0.3,0.6C108.1,170,108.1,170,108,170z"/>
		</g>
		<g>
			<path class="st8" d="M104.1,160.1h-5.5c-0.4,0-0.8-0.3-0.9-0.7l-2.7-7.9c-0.2-0.5,0.1-1.1,0.6-1.3c0.5-0.2,1.1,0.1,1.3,0.6
				l2.5,7.2h4.1l2.4-7.1c0.2-0.5,0.7-0.8,1.3-0.6c0.5,0.2,0.8,0.7,0.6,1.3l-2.6,7.8C104.9,159.8,104.6,160.1,104.1,160.1z"/>
		</g>
		<g>
			<path class="st21" d="M61.4,72.2c1.5-7,5.8-13.2,11.3-17.2c5.5-4,11.8-6.1,17.3-6.4s7.5,0.9,7.5,0.9s-11.6,1.9-23.3,9
				C66,63.5,61.4,72.2,61.4,72.2z"/>
		</g>
	</g>
</g>
</svg>
