<?xml version="1.0" encoding="utf-8"?>
<!-- Generator: Adobe Illustrator 21.1.0, SVG Export Plug-In . SVG Version: 6.00 Build 0)  -->
<svg version="1.1" xmlns="http://www.w3.org/2000/svg" xmlns:xlink="http://www.w3.org/1999/xlink" x="0px" y="0px"
	 viewBox="0 0 200 200" style="enable-background:new 0 0 200 200;" xml:space="preserve">
<style type="text/css">
	.st0{fill:none;stroke:#B3C0C7;stroke-miterlimit:10;}
	.st1{fill:#778085;}
	.st2{fill:#FD7E23;}
	.st3{fill:#30E6B6;}
	.st4{fill:#29C49B;}
	.st5{fill:#FDD353;}
	.st6{fill:#FDE4D2;}
	.st7{fill:#F2C2A0;}
	.st8{fill:#4D5052;}
	.st9{fill:#FD6A5D;}
	.st10{fill:#D1584D;}
	.st11{fill:#B8FFEC;}
	.st12{fill:#FFFFFF;}
	.st13{fill:#C9C9C9;}
	.st14{fill:#1DAAF1;}
	.st15{fill:#1682B8;}
	.st16{fill:#5EC9FF;}
	.st17{fill:#DB5F07;}
	.st18{fill:#C4F2EB;}
	.st19{fill:#B4DED7;}
	.st20{fill:#ABABAB;}
	.st21{fill:#757575;}
	.st22{fill:#878787;}
	.st23{fill:#C9EDFF;}
	.st24{fill:#93C2D9;}
	.st25{fill:#FDA29A;}
	.st26{fill:#9C9C9C;}
	.st27{fill:url(#SVGID_1_);}
	.st28{fill:url(#SVGID_2_);}
	.st29{fill:url(#SVGID_3_);}
	.st30{fill:url(#SVGID_4_);}
	.st31{fill:#A5F2DE;}
</style>
<g id="marks">
</g>
<g id="icons">
	<g>
		<circle class="st2" cx="103.4" cy="103.2" r="69.6"/>
		<g>
			<path class="st3" d="M133.7,55.6H72.3c-6.5,0-11.8,5.3-11.8,11.8l2.1,93.1c13,7.8,24.5,13.1,40.5,13.1s30.8-5.4,42.6-14.4V67.5
				C145.5,60.9,140.2,55.6,133.7,55.6z"/>
			<path class="st12" d="M128.5,131.5H77.3c-5.5,0-10-4.5-10-10V81.1c0-5.5,4.5-10,10-10h51.1c5.5,0,10,4.5,10,10v40.5
				C138.5,127.1,134,131.5,128.5,131.5z"/>
			<g>
				<path class="st8" d="M128.5,131.5H77.3c-5.5,0-10-4.5-10-10V81.1c0-5.5,4.5-10,10-10h51.1c5.5,0,10,4.5,10,10v40.5
					C138.5,127.1,134,131.5,128.5,131.5z M77.3,73.1c-4.4,0-8,3.6-8,8v40.5c0,4.4,3.6,8,8,8h51.1c4.4,0,8-3.6,8-8V81.1
					c0-4.4-3.6-8-8-8H77.3z"/>
			</g>
			<g>
				<path class="st8" d="M139.6,69.4c-0.3,0-0.5-0.2-0.5-0.5c0-3.5-2.9-6.4-6.4-6.4h-5c-0.3,0-0.5-0.2-0.5-0.5s0.2-0.5,0.5-0.5h5
					c4.1,0,7.4,3.3,7.4,7.4C140.1,69.1,139.9,69.4,139.6,69.4z"/>
			</g>
			<g>
				<path class="st8" d="M128.5,126.3h-4.3c-0.3,0-0.5-0.2-0.5-0.5s0.2-0.5,0.5-0.5h4.3c2,0,3.7-1.7,3.7-3.7v-3.7
					c0-0.3,0.2-0.5,0.5-0.5s0.5,0.2,0.5,0.5v3.7C133.2,124.2,131.1,126.3,128.5,126.3z"/>
			</g>
			<g>
				<path class="st8" d="M73.1,85.4c-0.3,0-0.5-0.2-0.5-0.5V81c0-2.6,2.1-4.7,4.7-4.7h4.3c0.3,0,0.5,0.2,0.5,0.5s-0.2,0.5-0.5,0.5
					h-4.3c-2,0-3.7,1.7-3.7,3.7v3.9C73.6,85.2,73.4,85.4,73.1,85.4z"/>
			</g>
			<g>
				<path class="st8" d="M102.9,111.4c4.1,0,7.4-3.3,7.4-7.4H95.5C95.5,108.1,98.8,111.4,102.9,111.4z"/>
			</g>
			<g>
				<circle class="st8" cx="86.4" cy="93.3" r="4.3"/>
			</g>
			<g>
				<circle class="st8" cx="120.4" cy="93.3" r="4.3"/>
			</g>
			<g>
				<path class="st8" d="M62.5,160.6c-0.5,0-1-0.4-1-1l-1.1-93.3c0-5.9,4.8-10.6,10.6-10.6h63.7c5.9,0,10.6,4.8,10.6,10.6l1.1,92.4
					c0,0.6-0.4,1-1,1c-0.5,0-1-0.4-1-1l-1.1-92.4c0-4.8-3.9-8.6-8.6-8.6H71.1c-4.8,0-8.6,3.9-8.6,8.6l1.1,93.3
					C63.5,160.1,63,160.6,62.5,160.6C62.5,160.6,62.5,160.6,62.5,160.6z"/>
			</g>
			<g>
				<path class="st8" d="M123.7,155h-11c-1.1,0-1.8-1.2-1.2-2.2l5.5-8.7c0.6-0.9,1.8-0.9,2.4,0l5.5,8.7
					C125.5,153.8,124.8,155,123.7,155z"/>
			</g>
			<g>
				<circle class="st8" cx="131.1" cy="140.1" r="3.2"/>
			</g>
			<g>
				<circle class="st8" cx="131.1" cy="151.8" r="3.2"/>
			</g>
			<g>
				<path class="st8" d="M99.9,144.4h-28c-1.4,0-2.5-1.1-2.5-2.5v-0.3c0-1.4,1.1-2.5,2.5-2.5h28c1.4,0,2.5,1.1,2.5,2.5v0.3
					C102.4,143.2,101.2,144.4,99.9,144.4z"/>
			</g>
			<g>
				<path class="st8" d="M93.5,154.5h-4.9v-4.9c0-0.5-0.4-0.9-0.9-0.9h-3.5c-0.5,0-0.9,0.4-0.9,0.9v4.9h-4.9c-0.5,0-0.9,0.4-0.9,0.9
					v3.5c0,0.5,0.4,0.9,0.9,0.9h4.9v4.9c0,0.5,0.4,0.9,0.9,0.9h3.5c0.5,0,0.9-0.4,0.9-0.9v-4.9h4.9c0.5,0,0.9-0.4,0.9-0.9v-3.5
					C94.4,154.9,94,154.5,93.5,154.5z"/>
			</g>
		</g>
		<g>
			<path class="st8" d="M103.4,173.6c-39.1,0-71-31.9-71-71s31.9-71,71-71s71,31.9,71,71S142.6,173.6,103.4,173.6z M103.4,33.6
				c-38,0-69,31-69,69s31,69,69,69s69-31,69-69S141.5,33.6,103.4,33.6z"/>
		</g>
		<circle class="st2" cx="103.4" cy="103.2" r="69.6"/>
		<path class="st17" d="M153.3,74c0-5.9-4.8-10.6-10.6-10.6H79c-5.9,0-10.6,4.8-10.6,10.6l1,89.9c3.7,2.1,7.6,3.8,11.7,5.2l46.3-0.5
			c3.9-1.4,7.5-3.2,11-5.2c5.9-3.7,11.2-8.3,15.7-13.6L153.3,74z"/>
		<path class="st3" d="M131.3,55.6H72.3c-6.5,0-11.8,5.3-11.8,11.8l2.1,93.1c13,7.8,24.5,13.1,40.5,13.1s30.8-5.4,42.6-14.4V69.8
			C145.5,62,139.2,55.6,131.3,55.6z"/>
		<path class="st4" d="M106.5,172.8l37.7-37.7v24.1c0,0-10.7,8-16.9,9.4C121.2,170,106.5,172.8,106.5,172.8z"/>
		<path class="st4" d="M89.2,167.3h-3.5c-1.1,0-2.9-1.4-3.3-2.2l1.4-3.6h-3.9c-1.1,0-2.7-0.9-3.5-2.6l1.5-2.8c0-1.1,0.9-1.9,1.9-1.9
			h3.9v-3.9c0-1.1,0.9-1.9,1.9-1.9l2.1-1.2c1.6,0,3.3,2.1,3.3,3.1v3.9l2.7-1.2c1.5,0,3.1,2,3.1,3.1v3.5c0,1.1-0.9,1.9-1.9,1.9h-3.9
			v3.9C91.2,166.4,90.3,167.3,89.2,167.3z"/>
		<path class="st8" d="M87.6,166.1h-3.5c-1.1,0-1.9-0.9-1.9-1.9v-3.9h-3.9c-1.1,0-1.9-0.9-1.9-1.9v-3.5c0-1.1,0.9-1.9,1.9-1.9h3.9
			V149c0-1.1,0.9-1.9,1.9-1.9h3.5c1.1,0,1.9,0.9,1.9,1.9v3.9h3.9c1.1,0,1.9,0.9,1.9,1.9v3.5c0,1.1-0.9,1.9-1.9,1.9h-3.9v3.9
			C89.5,165.2,88.7,166.1,87.6,166.1z"/>
		<path class="st18" d="M127.4,131.5H78.4c-6.1,0-11.1-5-11.1-11.1V82.1c0-6.1,5-11.1,11.1-11.1h48.9c6.1,0,11.1,5,11.1,11.1v38.3
			C138.5,126.6,133.5,131.5,127.4,131.5z"/>
		<polygon class="st12" points="73.2,101.3 97.7,76.8 104.9,76.8 73.2,108.9 		"/>
		<path class="st19" d="M116.2,125.7h12.2c2.3,0,4.1-1.8,4.1-4.1v-12.4L116.2,125.7z"/>
		<path class="st12" d="M92.8,76.8H78.1c-2.7,0-4.9,2.2-4.9,4.9v14.8L92.8,76.8z"/>
		<g>
			<path class="st8" d="M128.5,131.5H77.3c-5.5,0-10-4.5-10-10V81.1c0-5.5,4.5-10,10-10h51.1c5.5,0,10,4.5,10,10v40.5
				C138.5,127.1,134,131.5,128.5,131.5z M77.3,73.1c-4.4,0-8,3.6-8,8v40.5c0,4.4,3.6,8,8,8h51.1c4.4,0,8-3.6,8-8V81.1
				c0-4.4-3.6-8-8-8H77.3z"/>
		</g>
		<g>
			<path class="st8" d="M139.6,69.4c-0.3,0-0.5-0.2-0.5-0.5c0-3.5-2.9-6.4-6.4-6.4h-5c-0.3,0-0.5-0.2-0.5-0.5s0.2-0.5,0.5-0.5h5
				c4.1,0,7.4,3.3,7.4,7.4C140.1,69.1,139.9,69.4,139.6,69.4z"/>
		</g>
		<g>
			<path class="st8" d="M128.5,126.3h-4.3c-0.3,0-0.5-0.2-0.5-0.5s0.2-0.5,0.5-0.5h4.3c2,0,3.7-1.7,3.7-3.7v-3.7
				c0-0.3,0.2-0.5,0.5-0.5s0.5,0.2,0.5,0.5v3.7C133.2,124.2,131.1,126.3,128.5,126.3z"/>
		</g>
		<g>
			<path class="st8" d="M73.1,85.4c-0.3,0-0.5-0.2-0.5-0.5V81c0-2.6,2.1-4.7,4.7-4.7h4.3c0.3,0,0.5,0.2,0.5,0.5s-0.2,0.5-0.5,0.5
				h-4.3c-2,0-3.7,1.7-3.7,3.7v3.9C73.6,85.2,73.4,85.4,73.1,85.4z"/>
		</g>
		<g>
			<path class="st8" d="M102.9,111.4c4.1,0,7.4-3.3,7.4-7.4H95.5C95.5,108.1,98.8,111.4,102.9,111.4z"/>
		</g>
		<g>
			<circle class="st8" cx="86.4" cy="93.3" r="4.3"/>
		</g>
		<g>
			<circle class="st8" cx="120.4" cy="93.3" r="4.3"/>
		</g>
		<g>
			<path class="st8" d="M62.5,160.6c-0.5,0-1-0.4-1-1l-1.1-93.3c0-5.9,4.8-10.6,10.6-10.6h63.7c5.9,0,10.6,4.8,10.6,10.6l1.1,92.4
				c0,0.6-0.4,1-1,1c-0.5,0-1-0.4-1-1l-1.1-92.4c0-4.8-3.9-8.6-8.6-8.6H71.1c-4.8,0-8.6,3.9-8.6,8.6l1.1,93.3
				C63.5,160.1,63,160.6,62.5,160.6C62.5,160.6,62.5,160.6,62.5,160.6z"/>
		</g>
		<g>
			<path class="st8" d="M122.7,153.8h-11c-1.1,0-1.8-1.2-1.2-2.2l5.5-8.7c0.6-0.9,1.8-0.9,2.4,0l5.5,8.7
				C124.5,152.6,123.9,153.8,122.7,153.8z"/>
		</g>
		<g>
			<circle class="st8" cx="131.1" cy="140.1" r="3.2"/>
		</g>
		<g>
			<circle class="st8" cx="131.1" cy="151.8" r="3.2"/>
		</g>
		<g>
			<path class="st8" d="M99.9,144.4h-28c-1.4,0-2.5-1.1-2.5-2.5v-0.3c0-1.4,1.1-2.5,2.5-2.5h28c1.4,0,2.5,1.1,2.5,2.5v0.3
				C102.4,143.2,101.2,144.4,99.9,144.4z"/>
		</g>
		<path class="st2" d="M83.2,158.2c0.6,0,1,0.4,1,1v4.9l3.4-0.1l-0.1-4.8c0-0.6,0.4-1,1-1h4.9l-0.1-3.3h-4.8c-0.6,0-1-0.4-1-1V149
			l-3.4,0.1l0.1,4.8c0,0.6-0.4,1-1,1h-4.9l0.1,3.4L83.2,158.2z"/>
		<g>
			<path class="st8" d="M103.4,173.6c-39.1,0-71-31.9-71-71s31.9-71,71-71s71,31.9,71,71S142.6,173.6,103.4,173.6z M103.4,33.6
				c-38,0-69,31-69,69s31,69,69,69s69-31,69-69S141.5,33.6,103.4,33.6z"/>
		</g>
	</g>
</g>
</svg>
