<?xml version="1.0" encoding="utf-8"?>
<!-- Generator: Adobe Illustrator 21.1.0, SVG Export Plug-In . SVG Version: 6.00 Build 0)  -->
<svg version="1.1" xmlns="http://www.w3.org/2000/svg" xmlns:xlink="http://www.w3.org/1999/xlink" x="0px" y="0px"
	 viewBox="0 0 200 200" style="enable-background:new 0 0 200 200;" xml:space="preserve">
<style type="text/css">
	.st0{fill:none;stroke:#B3C0C7;stroke-miterlimit:10;}
	.st1{fill:#778085;}
	.st2{fill:#FD7E23;}
	.st3{fill:#30E6B6;}
	.st4{fill:#29C49B;}
	.st5{fill:#FDD353;}
	.st6{fill:#FDE4D2;}
	.st7{fill:#F2C2A0;}
	.st8{fill:#4D5052;}
	.st9{fill:#FD6A5D;}
	.st10{fill:#D1584D;}
	.st11{fill:#B8FFEC;}
	.st12{fill:#FFFFFF;}
	.st13{fill:#C9C9C9;}
	.st14{fill:#1DAAF1;}
	.st15{fill:#1682B8;}
	.st16{fill:#5EC9FF;}
	.st17{fill:#DB5F07;}
	.st18{fill:#C4F2EB;}
	.st19{fill:#B4DED7;}
	.st20{fill:#ABABAB;}
	.st21{fill:#757575;}
	.st22{fill:#878787;}
	.st23{fill:#C9EDFF;}
	.st24{fill:#93C2D9;}
	.st25{fill:#FDA29A;}
	.st26{fill:#9C9C9C;}
	.st27{fill:url(#SVGID_1_);}
	.st28{fill:url(#SVGID_2_);}
	.st29{fill:url(#SVGID_3_);}
	.st30{fill:url(#SVGID_4_);}
	.st31{fill:#A5F2DE;}
</style>
<g id="marks">
</g>
<g id="icons">
	<g>
		<g>
			<path class="st13" d="M100.5,27.6h-0.9c-12.9,0-23.4,10.5-23.4,23.4v23.9h47.8V51C123.9,38.1,113.4,27.6,100.5,27.6z"/>
		</g>
		<path class="st26" d="M99.9,31.2c0,0,8.8-0.1,15.3,6.9c3.7,3.9,4.5,7.8,4.5,10.8c0,2.7,0,26.7,0,26.7h-8.9V47.5
			c0,0-0.3-8.2-4.3-12.3C102.7,31.3,99.9,31.2,99.9,31.2z"/>
		<g>
			<path class="st26" d="M74.2,60c0,0,15.4-3.8,27.2-3.2c11.8,0.7,25,3.2,25,3.2s0.6,15.6,0.3,15.6c-0.3,0-12-1.3-24.9-1.1
				c-12.9,0.2-27.8,1.1-28.2,1.1C73.2,75.6,74.2,60,74.2,60z"/>
		</g>
		<path class="st8" d="M119.8,75c0-2.1,0-9.6,0-16.1c-2.5-0.4-5.6-0.8-8.9-1.2v16.8C114.2,74.7,117.3,74.8,119.8,75z"/>
		<g>
			<path class="st8" d="M123.9,75.5c0,0-0.3-28.1-0.3-28.2c0-0.1-4.5-11-6.5-12.8c-2.4-2.1,25.2,7.5,36,22.3
				c12,16.4,14.4,27.1,14.4,27.1S139.1,74.8,123.9,75.5z"/>
		</g>
		<g>
			<path class="st8" d="M76.1,75.5c0,0,0.3-28.1,0.3-28.2c0-0.1,4.5-11,6.5-12.8c2.4-2.1-25.2,7.5-36,22.3
				c-12,16.4-14.4,27.1-14.4,27.1S60.8,74.8,76.1,75.5z"/>
		</g>
		<g>
			<path class="st13" d="M28.6,101.2c-5.7-2.7-2.1-9.1,6.2-12c8.3-3,29.5-9.2,69-9.2s64.5,8.1,69,14.6s-9.8,11.4-37,15.8
				s-79,0.7-94-3.7C33.9,104.3,28.6,101.2,28.6,101.2z"/>
		</g>
		<g>
			<path class="st3" d="M51.2,143.4c3-7,24.3-43.8,25.6-46.1s6.4-7.7,23.1-7.7s19.6,1.3,23.1,7.6c3.5,6.4,28.9,52.1,28.9,52.1
				s-19.4,23.1-52,23.1s-52.5-23.3-52.5-23.3L51.2,143.4z"/>
		</g>
		<g>
			<polygon class="st11" points="98.7,172.4 100.6,100.1 104.2,99.6 114.4,170.8 			"/>
		</g>
		<g>
			<polygon class="st11" points="70.1,165.7 94.4,93 89.7,94 62.9,161.8 			"/>
		</g>
		<g>
			<ellipse class="st11" cx="100" cy="96" rx="20.7" ry="6.4"/>
		</g>
		<g>
			<path class="st8" d="M32.5,84.9c-0.1,0-0.2,0-0.3,0c-0.5-0.1-0.8-0.7-0.7-1.2C38.3,59,57.9,39.8,82.7,33.5
				c0.5-0.1,1.1,0.2,1.2,0.7c0.1,0.5-0.2,1.1-0.7,1.2C59,41.5,40,60.2,33.4,84.2C33.3,84.6,32.9,84.9,32.5,84.9z"/>
		</g>
		<g>
			<path class="st8" d="M100,173.4c-39.1,0-71-31.9-71-71c0-0.6,0.4-1,1-1s1,0.4,1,1c0,38,31,69,69,69s69-31,69-69c0-0.6,0.4-1,1-1
				s1,0.4,1,1C171,141.6,139.1,173.4,100,173.4z"/>
		</g>
		<g>
			<path class="st8" d="M167.5,84.9c-0.4,0-0.8-0.3-1-0.7c-6.6-24-25.6-42.6-49.7-48.7c-0.5-0.1-0.9-0.7-0.7-1.2
				c0.1-0.5,0.7-0.9,1.2-0.7c24.8,6.2,44.4,25.4,51.2,50.1c0.1,0.5-0.2,1.1-0.7,1.2C167.7,84.9,167.6,84.9,167.5,84.9z"/>
		</g>
		<g>
			<path class="st8" d="M100,113.5c-8.2,0-16.2-0.3-24-0.9c-0.6,0-1-0.5-0.9-1.1c0-0.5,0.5-1,1.1-0.9c7.7,0.6,15.7,0.9,23.8,0.9
				c7,0,13.9-0.2,20.6-0.7l1.4-0.1c0.6,0,1-0.1,1.5-0.1c0.5,0,1,0.4,1.1,0.9s-0.4,1-0.9,1.1c-0.6,0-1,0.1-1.6,0.1l-1.4,0.1
				C114,113.3,107,113.5,100,113.5z"/>
		</g>
		<g>
			<path class="st8" d="M69.1,111.9c0,0-0.1,0-0.1,0c-23.3-2.4-48.2-8.6-48.2-18.5c0-12.5,40.2-20,79.1-20s79.1,7.5,79.1,20
				c0,9.8-24.4,15.9-47.2,18.4c-0.6,0.1-1-0.3-1.1-0.9s0.3-1,0.9-1.1c27.1-3,45.4-9.5,45.4-16.4c0-8.7-31-18-77.1-18
				s-77.1,9.3-77.1,18c0,7,18.6,13.6,46.4,16.5c0.5,0.1,0.9,0.5,0.9,1.1C70.1,111.6,69.6,111.9,69.1,111.9z"/>
		</g>
		<g>
			<path class="st8" d="M29.1,93.5c-0.1,0-0.2,0-0.3-0.1c-0.2-0.2-0.2-0.5,0-0.7c7-7.6,37.1-13.1,71.6-13.1c32.6,0,61.5,4.9,70.3,12
				c0.2,0.2,0.2,0.5,0.1,0.7c-0.2,0.2-0.5,0.3-0.7,0.1c-8.6-6.9-37.3-11.8-69.7-11.8c-34.2,0-64,5.4-70.8,12.8
				C29.4,93.4,29.2,93.5,29.1,93.5z"/>
		</g>
		<g>
			<path class="st8" d="M123.9,60.5c-0.1,0-0.2,0-0.3,0c-5.9-1.7-14.5-2.6-23.6-2.6c-9.1,0-17.7,1-23.6,2.6
				c-0.5,0.2-1.1-0.2-1.2-0.7c-0.1-0.5,0.2-1.1,0.7-1.2c6.1-1.7,14.9-2.7,24.1-2.7c9.2,0,18,1,24.1,2.7c0.5,0.1,0.8,0.7,0.7,1.2
				C124.7,60.2,124.3,60.5,123.9,60.5z"/>
		</g>
		<g>
			<path class="st8" d="M100,103.4c-10.5,0-21.7-2.6-21.7-7.4s11.2-7.4,21.7-7.4s21.7,2.6,21.7,7.4c0,4.3-8.7,6.6-16.2,7.2
				c-0.6,0.1-1-0.4-1.1-0.9c0-0.6,0.4-1,0.9-1.1c9-0.8,14.4-3.2,14.4-5.2c0-2.3-7.5-5.4-19.7-5.4S80.3,93.7,80.3,96
				s7.5,5.4,19.7,5.4c0.6,0,1,0.4,1,1S100.6,103.4,100,103.4z"/>
		</g>
		<g>
			<path class="st8" d="M123.9,75.9c-0.6,0-1-0.4-1-1V51c0-12.4-10.1-22.4-22.4-22.4h-0.9c-12.4,0-22.4,10.1-22.4,22.4v23.9
				c0,0.6-0.4,1-1,1s-1-0.4-1-1V51c0-13.5,11-24.4,24.4-24.4h0.9c13.5,0,24.4,11,24.4,24.4v23.9C124.9,75.5,124.4,75.9,123.9,75.9z"
				/>
		</g>
		<g>
			<path class="st8" d="M152,149.3c-0.4,0-0.7-0.2-0.9-0.5l-26.3-47.6c-0.3-0.5-0.1-1.1,0.4-1.4c0.5-0.3,1.1-0.1,1.4,0.4l26.3,47.6
				c0.3,0.5,0.1,1.1-0.4,1.4C152.3,149.3,152.2,149.3,152,149.3z"/>
		</g>
		<g>
			<path class="st8" d="M48.1,150.1c-0.2,0-0.3,0-0.5-0.1c-0.5-0.3-0.7-0.9-0.4-1.4l26.7-48.4c0.3-0.5,0.9-0.7,1.4-0.4
				c0.5,0.3,0.7,0.9,0.4,1.4l-26.7,48.4C48.8,149.9,48.4,150.1,48.1,150.1z"/>
		</g>
		<g>
			<path class="st8" d="M149.7,152.5c-0.2,0-0.3-0.1-0.4-0.3l-8.5-15.1c-0.1-0.2,0-0.5,0.2-0.7c0.2-0.1,0.5,0,0.7,0.2l8.5,15.1
				c0.1,0.2,0,0.5-0.2,0.7C149.9,152.5,149.8,152.5,149.7,152.5z"/>
		</g>
		<g>
			<path class="st8" d="M132.7,122.1c-0.2,0-0.3-0.1-0.4-0.3l-10.7-19.1c-0.1-0.2,0-0.5,0.2-0.7c0.2-0.1,0.5,0,0.7,0.2l10.7,19.1
				c0.1,0.2,0,0.5-0.2,0.7C132.9,122.1,132.8,122.1,132.7,122.1z"/>
		</g>
		<g>
			<path class="st8" d="M95.2,121.6c-0.1,0-0.1,0-0.2,0c-0.5-0.1-0.9-0.6-0.8-1.2c2.3-13.6,4.2-24.6,4.2-24.6
				c0.1-0.5,0.6-0.9,1.2-0.8c0.5,0.1,0.9,0.6,0.8,1.2c0,0-1.9,11-4.2,24.6C96.1,121.3,95.7,121.6,95.2,121.6z"/>
		</g>
		<g>
			<path class="st8" d="M85.2,171.3c0,0-0.1,0-0.1,0c-0.6-0.1-0.6-0.1,1.3-12.1c0-0.3,0.3-0.5,0.6-0.4c0.3,0,0.5,0.3,0.4,0.6
				c-1.4,8.9-1.7,10.9-1.7,11.3c0,0.1,0,0.1,0,0.2C85.6,171.1,85.4,171.3,85.2,171.3z"/>
		</g>
		<g>
			<path class="st8" d="M125.4,167.7c-0.4,0-0.8-0.3-1-0.7l-4-12.9c-0.2-0.5,0.1-1.1,0.7-1.3c0.5-0.2,1.1,0.1,1.3,0.7l4,12.9
				c0.2,0.5-0.1,1.1-0.7,1.3C125.6,167.7,125.5,167.7,125.4,167.7z"/>
		</g>
		<g>
			<path class="st8" d="M111.9,118.1c-0.4,0-0.8-0.3-1-0.7l-6.5-21c-0.2-0.5,0.1-1.1,0.7-1.3c0.5-0.2,1.1,0.1,1.3,0.7l6.5,21
				c0.2,0.5-0.1,1.1-0.7,1.3C112.1,118.1,112,118.1,111.9,118.1z"/>
		</g>
		<g>
			<path class="st8" d="M86.2,117.6c-0.1,0-0.1,0-0.2,0c-0.3-0.1-0.4-0.4-0.3-0.6l6.8-21c0.1-0.3,0.4-0.4,0.6-0.3
				c0.3,0.1,0.4,0.4,0.3,0.6l-6.8,21C86.6,117.5,86.4,117.6,86.2,117.6z"/>
		</g>
		<g>
			<circle class="st11" cx="83.3" cy="67.9" r="3.6"/>
		</g>
		<g>
			<circle class="st11" cx="100.3" cy="67" r="3.6"/>
		</g>
		<g>
			<circle class="st11" cx="116.2" cy="67.9" r="3.6"/>
		</g>
		<g>
			<g>
				<path class="st8" d="M104.6,35.2c1.1,1,1.6,2.3,1.6,3.9c0,1.2-0.4,2.2-1.2,3c-0.8,0.8-1.9,1.4-3.2,1.6V45H98v-4h2
					c0.7,0,1.2-0.2,1.7-0.5c0.4-0.3,0.6-0.8,0.6-1.3c0-0.6-0.2-1.1-0.6-1.5c-0.4-0.4-0.9-0.6-1.5-0.6c-0.7,0-1.2,0.2-1.6,0.6
					c-0.4,0.4-0.7,1-0.8,1.7l-3.9-0.8c0.2-1.4,0.8-2.6,2-3.6s2.6-1.4,4.4-1.4C102.1,33.7,103.5,34.2,104.6,35.2z M101.5,47.1
					c0.4,0.4,0.6,1,0.6,1.6c0,0.6-0.2,1.2-0.6,1.6c-0.4,0.4-1,0.6-1.6,0.6c-0.7,0-1.2-0.2-1.6-0.6c-0.4-0.4-0.6-0.9-0.6-1.6
					c0-0.6,0.2-1.1,0.6-1.6c0.4-0.4,1-0.6,1.6-0.6C100.5,46.5,101,46.7,101.5,47.1z"/>
			</g>
		</g>
		<g>
			<path class="st8" d="M89.4,148.3h-4.2l-2.7-9.9l-2.7,9.9h-4.2L71,132.2H75l2.8,10.1l2.8-10.1h3.8l2.8,10.1l2.8-10.1H94
				L89.4,148.3z"/>
			<path class="st8" d="M105.6,135.7v12.6h-3.9v-12.6h-5.2v-3.5h14.4v3.5H105.6z"/>
			<path class="st8" d="M118.4,139.1h7.5v3.5h-7.5v5.8h-4v-16.1h12.4v3.5h-8.5V139.1z"/>
		</g>
		<g>
			<path class="st8" d="M31,102.4c0,0,14.6,4.9,20,5.9c5.4,1,18.1,2.6,18.1,2.6l-17.9,32.4l-3.2,5.7C42.1,141.8,28.4,121.5,31,102.4
				z"/>
		</g>
		<g>
			<path class="st8" d="M170,102.4c0,0-14.6,4.9-20,5.9c-5.4,1-18.1,2.6-18.1,2.6l17.9,32.4l3.2,5.7
				C158.9,141.8,172.6,121.5,170,102.4z"/>
		</g>
		<g>
			<path class="st12" d="M65.7,106.2c-4.2-0.6-21.2-2.9-28.6-6.6s1.9-8,12.2-10.1c12-2.4,22.1-3.4,22.1-3.4s-12.8,3.6-13.2,10.4
				C58,102.4,65.7,106.2,65.7,106.2z"/>
		</g>
		<g>
			<path class="st26" d="M136.6,106.2c4.2-0.6,21.2-2.9,28.6-6.6s-1.9-8-12.2-10.1c-12-2.4-22.1-3.4-22.1-3.4s12.8,3.6,13.2,10.4
				C144.4,102.4,136.6,106.2,136.6,106.2z"/>
		</g>
	</g>
</g>
</svg>
