<svg xmlns="http://www.w3.org/2000/svg" width="17" height="22" viewBox="0 0 17 22">
  <path fill="#FFF" d="M14.167,4.75 L12.75,4.75 C12.75,3.99 12.337,3.343 11.51,2.806 C10.684,2.269 9.68,2 8.5,2 C7.32,2 6.316,2.269 5.49,2.806 C4.663,3.343 4.25,3.991 4.25,4.75 L2.833,4.75 C2.051,4.75 1.383,5.019 0.83,5.556 C0.277,6.093 0,6.74 0,7.5 L0,21.25 C0,22.01 0.277,22.657 0.83,23.194 C1.3612962,23.7223309 2.08384175,24.0130806 2.833,24 L14.167,24 C14.949,24 15.617,23.731 16.17,23.194 C16.723,22.657 17,22.009 17,21.25 L17,7.5 C17,6.74 16.723,6.093 16.17,5.556 C15.6387038,5.02766912 14.9161582,4.73691938 14.167,4.75 Z M8.5,3.375 C9.282,3.375 9.95,3.486 10.503,3.708 C11.057,3.93 11.333,4.278 11.333,4.75 L5.667,4.75 C5.667,4.277 5.943,3.93 6.497,3.708 C7.05,3.486 7.717,3.375 8.5,3.375 Z M15.583,21.25 C15.583,21.622 15.443,21.945 15.163,22.217 C14.883,22.489 14.55,22.625 14.167,22.625 L2.833,22.625 C2.45,22.625 2.118,22.489 1.837,22.217 C1.56702684,21.9682262 1.41452432,21.6171073 1.417,21.25 L1.41697032,19.875 L15.583,19.875 L15.583,21.25 Z M15.583,18.5 L1.417,18.5 L1.417,7.5 C1.417,7.128 1.557,6.805 1.837,6.533 C2.117,6.261 2.45,6.125 2.833,6.125 L4.25,6.125 L4.25,10.25 L5.667,10.25 L5.667,6.125 L11.333,6.125 L11.333,10.25 L12.75,10.25 L12.75,6.125 L14.167,6.125 C14.55,6.125 14.882,6.261 15.163,6.533 C15.443,6.805 15.583,7.128 15.583,7.5 L15.583,18.5 Z" transform="translate(0 -2)"/>
</svg>
