<svg xmlns="http://www.w3.org/2000/svg" width="64" height="64" viewBox="0 0 64 64">
  <g fill="none">
    <rect width="64" height="64" fill="#FFF" fill-opacity="0"/>
    <g transform="translate(7 10)">
      <circle cx="37" cy="21" r="2" fill="#FD7E23"/>
      <circle cx="47" cy="21" r="2" fill="#FD7E23"/>
      <path fill="#FD7E23" d="M28.5113078,21.465604 L43,6.98489933 C39.2831858,3.27013423 34.1553589,1 28.5113078,1 C17.1887906,1 8,10.1837248 8,21.5 C8,32.8162752 17.1887906,42 28.5113078,42 C34.1553589,42 39.2831858,39.6954698 43,36.0151007 L28.5113078,21.465604 Z"/>
      <path fill="#4D5052" d="M24.5 50C11.0077465 50 0 38.9767278 0 25.4654443 0 12.7143865 9.93802817 1.96755994 22.6366197 1 22.843662 1 22.9816901 1.13822285 23.0161972 1.31100141 23.0161972 1.51833568 22.878169 1.65655853 22.7056338 1.69111425 10.3521127 2.62411848.690140845 13.0599436.690140845 25.4654443.690140845 38.596615 11.3873239 49.3088858 24.5 49.3088858 37.6126761 49.3088858 48.3098592 38.596615 48.3098592 25.4654443 48.3098592 24.7052186 48.2753521 23.9449929 48.206338 23.1847673 48.171831 23.0119887 48.3443662 22.8392102 48.5169014 22.8046544 48.7239437 22.7700987 48.8619718 22.9428773 48.8964789 23.1156559 48.965493 23.8758815 49 24.6706629 49 25.4654443 49 39.0112835 37.9922535 50 24.5 50zM47.6657993 19C47.5254666 19 47.385134 18.8978328 47.3149677 18.7616099 46.1923068 14.9133127 44.0171512 11.4055728 41.1052495 8.57894737 40.9649168 8.44272446 40.9649168 8.23839009 41.1052495 8.10216718 41.2455821 7.96594427 41.456081 7.96594427 41.5964136 8.10216718 44.6135649 10.996904 46.8238036 14.6408669 47.9815476 18.5572755 48.051714 18.7275542 47.9113813 18.9318885 47.7359656 18.9659443 47.7359656 19 47.7008824 19 47.6657993 19z"/>
      <path fill="#4D5052" d="M29.0376085,41 C17.442623,41 8,31.7986799 8,20.5 C8,9.20132013 17.442623,0 29.0376085,0 C34.6615236,0 39.9382835,2.13118812 43.8958534,5.98762376 C44.0347155,6.12293729 44.0347155,6.32590759 43.8958534,6.46122112 L29.5236258,20.4661716 L43.8958534,34.4711221 C44.0347155,34.6064356 44.0347155,34.8094059 43.8958534,34.9447195 C39.9382835,38.8688119 34.6615236,41 29.0376085,41 Z M29.0376085,0.71039604 C17.8244937,0.71039604 8.69431051,9.60726073 8.69431051,20.5338284 C8.69431051,31.460396 17.8244937,40.3572607 29.0376085,40.3572607 C34.3490839,40.3572607 39.3481196,38.3952145 43.1668274,34.8094059 L28.7945998,20.8044554 C28.6557377,20.6691419 28.6557377,20.4661716 28.7945998,20.3308581 L43.1668274,6.32590759 C39.3828351,2.67244224 34.3837994,0.71039604 29.0376085,0.71039604 Z"/>
      <path fill="#FFF" d="M31.7946636 26C31.7598608 26 31.6902552 26 31.6554524 25.9661877L26.0522042 20.5224007C25.9825986 20.454776 25.9825986 20.353339 26.0522042 20.2857143L40.7041763 6.05071851C40.7737819 5.98309383 40.8781903 5.98309383 40.9477958 6.05071851 41.0174014 6.1183432 41.0174014 6.21978022 40.9477958 6.2874049L26.400232 20.4209637 31.8642691 25.7295013C31.9338747 25.797126 31.9338747 25.898563 31.8642691 25.9661877 31.8642691 26 31.8294664 26 31.7946636 26zM40.8373494 36C40.8012048 36 40.7289157 36 40.6927711 35.9637462L35.0542169 30.3081571C34.9819277 30.2356495 34.9819277 30.1268882 35.0542169 30.0543807 35.126506 29.9818731 35.2349398 29.9818731 35.3072289 30.0543807L40.9457831 35.7099698C41.0180723 35.7824773 41.0180723 35.8912387 40.9457831 35.9637462 40.9096386 35.9637462 40.873494 36 40.8373494 36z"/>
      <path fill="#4D5052" d="M37.5 24C36.1184211 24 35 22.8815789 35 21.5 35 20.1184211 36.1184211 19 37.5 19 38.8815789 19 40 20.1184211 40 21.5 40 22.8815789 38.8815789 24 37.5 24zM37.5 19.6907895C36.4802632 19.6907895 35.6578947 20.5131579 35.6578947 21.5328947 35.6578947 22.5526316 36.4802632 23.375 37.5 23.375 38.5197368 23.375 39.3421053 22.5526316 39.3421053 21.5328947 39.3421053 20.5131579 38.5197368 19.6907895 37.5 19.6907895zM47.5 24C46.1184211 24 45 22.8815789 45 21.5 45 20.1184211 46.1184211 19 47.5 19 48.8815789 19 50 20.1184211 50 21.5 50 22.8815789 48.8815789 24 47.5 24zM47.5 19.6907895C46.4802632 19.6907895 45.6578947 20.5131579 45.6578947 21.5328947 45.6578947 22.5526316 46.4802632 23.375 47.5 23.375 48.5197368 23.375 49.3421053 22.5526316 49.3421053 21.5328947 49.3421053 20.5131579 48.5197368 19.6907895 47.5 19.6907895z"/>
      <path fill="#4D5052" d="M47.2241838,22.9324342 C45.9916336,22.9324342 44.9645085,21.9420439 44.9645085,20.6784425 C44.9645085,19.5172953 45.8546836,18.526905 47.0187588,18.4244508 C46.8133337,17.5365146 46.5736712,16.7168813 46.3340087,16.0338535 C44.930271,11.7990811 41.0271954,8.11073103 41.0271954,8.11073103 L28.4277937,20.6784425 L42.8417832,35.0561777 C39.1441327,38.7445278 34.0427445,40.9985195 28.4277937,40.9985195 C17.1636547,40.9985195 8.02224095,31.8800984 8.02224095,20.6442911 C8.02224095,11.52587 14.0480418,3.80765591 22.3335179,1.21215028 C24.2508182,0.63157665 20.6216427,1.38290723 18.5331549,1.79272391 C16.4446671,2.20254058 2.20186516,6.30070737 0.181852387,22.9324342 C-1.76968538,39.1884958 12.370404,49.36561 24.1481057,48.9899447 C35.9258073,48.6142794 41.9173706,42.2621209 45.7177336,35.5342971 C47.9774089,31.5044331 48.2513089,26.8598441 47.8404589,22.8641315 C47.6350338,22.8982829 47.4296088,22.9324342 47.2241838,22.9324342 Z M37.1583574,22.9324342 C35.9258073,22.9324342 34.8986821,21.9420439 34.8986821,20.6784425 C34.8986821,19.4489925 35.8915697,18.4244508 37.1583574,18.4244508 C38.3909076,18.4244508 39.4180327,19.4148411 39.4180327,20.6784425 C39.4180327,21.9420439 38.3909076,22.9324342 37.1583574,22.9324342 Z"/>
      <path fill="#FDD353" d="M32 3.34976153C30.8108108 3.10492846 29.6216216 3 28.3624801 3 18.2193959 3 10 11.2193959 10 21.3624801 10 22.6216216 10.1399046 23.8108108 10.3497615 25L32 3.34976153zM39 5.61929596C37.9087353 4.95045632 36.7822686 4.42242503 35.5501956 4L12 27.5501956C12.422425 28.7470665 12.9856584 29.9087353 13.619296 31L39 5.61929596z"/>
      <path fill="#DB5F07" d="M32.8067885,31 L25,38.7310924 C26.0522193,38.9327731 27.1044386,39 28.1906005,39 C31.8224543,39 35.1827676,37.9243697 38,36.1092437 L32.8067885,31 Z"/>
    </g>
  </g>
</svg>
