<svg xmlns="http://www.w3.org/2000/svg" width="10" height="10" viewBox="0 0 10 10">
  <path fill="#999" fill-rule="evenodd" d="M6.69319012,4.99982038 L9.64920789,2.0440421 C10.1169307,1.57631929 10.1169307,0.81809582 9.64920789,0.350612494 C9.18196405,-0.116870831 8.42326161,-0.116870831 7.95601777,0.350612494 L5,3.30686975 L2.04398223,0.350612494 C1.57673839,-0.116870831 0.818035947,-0.116870831 0.350792111,0.350612494 C-0.116930704,0.818335309 -0.116930704,1.57655878 0.350792111,2.0440421 L3.30657039,4.99982038 L0.350792111,7.95559866 C-0.116930704,8.42332148 -0.116930704,9.18154495 0.350792111,9.64902827 C0.584294285,9.88300942 0.891080217,9.99964077 1.19738717,9.99964077 C1.50345463,9.99964077 1.81048006,9.88300942 2.04398223,9.64902827 L5,6.69324999 L7.95601777,9.64926776 C8.18975943,9.88324891 8.49630588,9.99988026 8.80261283,9.99988026 C9.10891978,9.99988026 9.41570572,9.88324891 9.64920789,9.64926776 C10.1169307,9.18154495 10.1169307,8.42332148 9.64920789,7.95583815 L6.69319012,4.99982038 Z"/>
</svg>
