<svg xmlns="http://www.w3.org/2000/svg" width="19" height="11" viewBox="0 0 19 11">
  <path fill="#B8C6CC" d="M9.2938541,0 C5.74247364,0 2.52189683,1.92896389 0.14543895,5.06211434 C-0.04847965,5.31880534 -0.04847965,5.67741991 0.14543895,5.93411091 C2.52189683,9.07103611 5.74247364,11 9.2938541,11 C12.8452332,11 16.06581,9.07103611 18.4422679,5.93788566 C18.6361878,5.68119466 18.6361878,5.32258009 18.4422679,5.06588909 C16.06581,1.92896389 12.8452332,0 9.2938541,0 Z M9.54861035,9.37302677 C7.19116365,9.52024736 5.24436811,7.59128347 5.3926588,5.24708375 C5.51433411,3.31434512 7.0923023,1.74776922 9.03909785,1.62697323 C11.3965445,1.47975264 13.3433388,3.40871653 13.1950481,5.75291758 C13.0695713,7.68188013 11.4916018,9.24845603 9.54861035,9.37302677 Z M9.43073782,7.58373397 C8.16075799,7.66300638 7.11131348,6.62491415 7.19496509,5.364105 C7.25960551,4.32223802 8.11132731,3.48043945 9.16077182,3.41249128 C10.4307516,3.33321887 11.4801948,4.3713111 11.3965445,5.63212025 C11.3281027,6.67776198 10.4763796,7.51956055 9.43073782,7.58373397 Z"/>
</svg>
