<svg xmlns="http://www.w3.org/2000/svg" xmlns:xlink="http://www.w3.org/1999/xlink" width="51" height="51" viewBox="0 0 51 51">
  <defs>
    <polygon id="facebook_icon-a" points="50.508 .492 0 .492 0 51 50.508 51 50.508 .492 50.508 51 0 51 0 .492 50.508 .492"/>
  </defs>
  <g fill="none" fill-rule="evenodd">
    <path fill="#FEFEFE" d="M50.508207,25.745769 C50.508207,39.693249 39.201507,50.999949 25.254027,50.999949 C11.306547,50.999949 -0.000153,39.693249 -0.000153,25.745769 C-0.000153,11.798289 11.306547,0.491589 25.254027,0.491589 C39.201507,0.491589 50.508207,11.798289 50.508207,25.745769"/>
    <path fill="#5A5A70" d="M26.9209647,19.7871886 L26.9209647,17.6992856 C26.9209647,16.6980389 27.5754178,16.4582748 28.0491221,16.4582748 L30.9304421,16.4582748 L30.9304421,12 L26.9631056,12 C22.5499894,12 21.5614555,15.30113 21.5614555,17.4456296 L21.5614555,19.7871886 L19,19.7871886 L19,22.9329349 L19,24.993054 L21.5893802,24.993054 L21.5893802,38 L26.7265073,38 L26.7265073,24.993054 L30.5268035,24.993054 L30.6938439,22.9473413 L31,19.7871886 L26.9209647,19.7871886 Z"/>
  </g>
</svg>
