<svg xmlns="http://www.w3.org/2000/svg" width="64" height="64" viewBox="0 0 64 64">
  <g fill="none">
    <rect width="64" height="64" fill="#FFF" fill-opacity="0"/>
    <g transform="translate(8 8)">
      <circle cx="24" cy="28" r="24" fill="#FD7E23"/>
      <path fill="#DB5F07" d="M26.9072021,4 L14.2044787,27.327766 C13.7581668,28.1333291 14.067152,29.1067179 14.8911124,29.5094995 L30.8210142,37.8000868 C31.6449746,38.2364335 32.6405935,37.9343474 33.0525737,37.1287842 L45,15.2443189 C41.189183,9.06833477 34.5974995,4.77199801 26.9072021,4 Z"/>
      <polygon fill="#FFF" points="10 12 40 12 40 31 10 31" transform="rotate(-61.984 25 21.5)"/>
      <path fill="#A5F2DE" d="M25.2362205 10.9434788L23.2519685 9.90240041C23 9.77620908 22.9370079 9.49227861 23.0629921 9.23989596L24.1023622 7.25238264C24.2283465 7 24.511811 6.93690434 24.7637795 7.06309566L26.7480315 8.10417407C27 8.23036539 27.0629921 8.51429586 26.9370079 8.76667851L25.8976378 10.7541918C25.7716535 10.9750266 25.4566929 11.0696701 25.2362205 10.9434788zM30.2362205 13.9434788L28.2519685 12.9024004C28 12.7762091 27.9370079 12.4922786 28.0629921 12.239896L29.1023622 10.2523826C29.2283465 10 29.511811 9.93690434 29.7637795 10.0630957L31.7480315 11.1041741C32 11.2303654 32.0629921 11.5142959 31.9370079 11.7666785L30.8976378 13.7541918C30.7716535 13.9750266 30.488189 14.0696701 30.2362205 13.9434788z"/>
      <path fill="#C9EDFF" d="M35.2362205,17.9370079 L33.2519685,16.8976378 C33,16.7716535 32.9370079,16.488189 33.0629921,16.2362205 L34.1023622,14.2519685 C34.2283465,14 34.511811,13.9370079 34.7637795,14.0629921 L36.7480315,15.1023622 C37,15.2283465 37.0629921,15.511811 36.9370079,15.7637795 L35.8976378,17.7480315 C35.7716535,18 35.488189,18.0629921 35.2362205,17.9370079 Z"/>
      <path fill="#FDD353" d="M23.2362205,15.9434788 L21.2519685,14.9024004 C21,14.7762091 20.9370079,14.4922786 21.0629921,14.239896 L22.1023622,12.2523826 C22.2283465,12 22.511811,11.9369043 22.7637795,12.0630957 L24.7480315,13.1041741 C25,13.2303654 25.0629921,13.5142959 24.9370079,13.7666785 L23.8976378,15.7541918 C23.7716535,15.9750266 23.4566929,16.0696701 23.2362205,15.9434788 Z"/>
      <path fill="#C9EDFF" d="M28.2362205,19.9434788 L26.2519685,18.9024004 C26,18.7762091 25.9370079,18.4922786 26.0629921,18.239896 L27.1023622,16.2523826 C27.2283465,16 27.511811,15.9369043 27.7637795,16.0630957 L29.7480315,17.1041741 C30,17.2303654 30.0629921,17.5142959 29.9370079,17.7666785 L28.8976378,19.7541918 C28.7716535,19.9750266 28.488189,20.0696701 28.2362205,19.9434788 Z"/>
      <path fill="#A5F2DE" d="M33.2362205,21.9434788 L31.2519685,20.9024004 C31,20.7762091 30.9370079,20.4922786 31.0629921,20.239896 L32.1023622,18.2523826 C32.2283465,18 32.511811,17.9369043 32.7637795,18.0630957 L34.7480315,19.1041741 C35,19.2303654 35.0629921,19.5142959 34.9370079,19.7666785 L33.8976378,21.7541918 C33.7716535,21.9750266 33.488189,22.0696701 33.2362205,21.9434788 Z"/>
      <path fill="#B8FFEC" d="M20.2362205,21.9434788 L18.2519685,20.9024004 C18,20.7762091 17.9370079,20.4922786 18.0629921,20.239896 L19.1023622,18.2523826 C19.2283465,18 19.511811,17.9369043 19.7637795,18.0630957 L21.7480315,19.1041741 C22,19.2303654 22.0629921,19.5142959 21.9370079,19.7666785 L20.8976378,21.7541918 C20.7716535,21.9750266 20.488189,22.0696701 20.2362205,21.9434788 Z"/>
      <path fill="#C9EDFF" d="M25.2362205,23.9434788 L23.2519685,22.9024004 C23,22.7762091 22.9370079,22.4922786 23.0629921,22.239896 L24.1023622,20.2523826 C24.2283465,20 24.511811,19.9369043 24.7637795,20.0630957 L26.7480315,21.1041741 C27,21.2303654 27.0629921,21.5142959 26.9370079,21.7666785 L25.8976378,23.7541918 C25.7716535,23.9750266 25.488189,24.0696701 25.2362205,23.9434788 Z"/>
      <path fill="#FDD353" d="M30.2362205,26.9434788 L28.2519685,25.9024004 C28,25.7762091 27.9370079,25.4922786 28.0629921,25.239896 L29.1023622,23.2523826 C29.2283465,23 29.511811,22.9369043 29.7637795,23.0630957 L31.7480315,24.1041741 C32,24.2303654 32.0629921,24.5142959 31.9370079,24.7666785 L30.8976378,26.7541918 C30.7716535,26.9750266 30.488189,27.0696701 30.2362205,26.9434788 Z"/>
      <path fill="#C9EDFF" d="M28.2362205,30.9434788 L26.2519685,29.9024004 C26,29.7762091 25.9370079,29.4922786 26.0629921,29.239896 L27.1023622,27.2523826 C27.2283465,27 27.511811,26.9369043 27.7637795,27.0630957 L29.7480315,28.1041741 C30,28.2303654 30.0629921,28.5142959 29.9370079,28.7666785 L28.8976378,30.7541918 C28.7716535,30.9750266 28.488189,31.0696701 28.2362205,30.9434788 Z"/>
      <path fill="#4D5052" d="M24.5,52 C11.0077465,52 0,40.9922535 0,27.5 C0,14.0077465 11.0077465,3 24.5,3 C37.9922535,3 49,14.0077465 49,27.5 C49,40.9922535 37.9922535,52 24.5,52 Z M24.5,3.69014085 C11.3873239,3.69014085 0.690140845,14.3873239 0.690140845,27.5 C0.690140845,40.6126761 11.3873239,51.3098592 24.5,51.3098592 C37.6126761,51.3098592 48.3098592,40.6126761 48.3098592,27.5 C48.3098592,14.3873239 37.6126761,3.69014085 24.5,3.69014085 Z"/>
      <path fill="#4D5052" d="M25.7034622 39C25.6693735 39 25.6352848 39 25.6352848 38.9665837L9.0681774 30.3451722C9.0340887 30.3117559 9 30.2783396 9 30.2449233 9 30.2115069 9 30.1446743 9 30.111258L23.1127211 4.07994203C23.1468098 4.01310939 23.2490759 3.97969306 23.351342 4.01310939L39.9184494 12.6679371C39.9866268 12.7013535 40.0207155 12.8016024 39.9866268 12.9018514L25.8739057 38.9331674C25.839817 38.9665837 25.8057283 39 25.7716396 39 25.7375509 39 25.7375509 39 25.7034622 39zM9.37497568 30.1446743L25.6352848 38.6324204 39.6116512 12.9018514 23.3172533 4.41410527 9.37497568 30.1446743zM29.6989904 49C29.6372089 49 29.5754275 48.9708013 29.513646 48.9416026L26.1156652 46.5181113C25.9921023 46.4305152 25.9612115 46.2261244 26.0538837 46.1093296 26.1465559 45.9925349 26.3627911 45.9633362 26.486354 46.0509322L29.8843348 48.4744236C30.0078977 48.5620196 30.0387885 48.7664105 29.9461163 48.8832052 29.8843348 48.9416026 29.7916626 49 29.6989904 49zM35.6577947 45C35.6577947 45 35.6577947 45 35.6577947 45L27.3422053 44.8333333C27.1368821 44.8333333 27 44.625 27 44.4166667 27 44.2083333 27.1711027 44 27.3422053 44 27.3422053 44 27.3422053 44 27.3422053 44L35.6577947 44.1666667C35.8631179 44.1666667 36 44.375 36 44.5833333 36 44.7916667 35.8631179 45 35.6577947 45zM22.2809964 50C22.2246039 50 22.1964077 50 22.1400153 49.9632912 21.9990341 49.8531649 21.9708379 49.6329122 22.0272304 49.4493682L23.4652376 46.1822865C23.5498263 45.9987426 23.7190036 45.9620338 23.8599847 46.0354513 24.0009659 46.1455777 24.0291621 46.3658304 23.9727696 46.5493743L22.5347624 49.8164561C22.4783699 49.9265824 22.3937812 50 22.2809964 50zM16.335891 48C16.1983211 48 16.0607511 47.9398595 16.0263586 47.8195785 15.9575737 47.6692273 16.0263586 47.4888059 16.1983211 47.4286654L22.526539 45.023046C22.6985015 44.9629056 22.9048564 45.023046 22.9736414 45.1733972 23.0424263 45.3237485 22.9736414 45.5041699 22.8016789 45.5643104L16.473461 47.9699298C16.4390685 47.9699298 16.3702835 48 16.335891 48zM28.3248258 42C28.1917878 42 28.0587498 41.9290569 28.0254903 41.7871707 27.9589713 41.6098129 28.0254903 41.3969835 28.1917878 41.3260404L35.5421363 38.0271856C35.7084337 37.9562425 35.9079907 38.0271856 35.9745097 38.2045434 36.0410287 38.3819012 35.9745097 38.5947306 35.8082122 38.6656737L28.4578637 41.9645284C28.4246042 42 28.3580853 42 28.3248258 42zM21.6014493 43.995516L17.326087 43.5855976C17.1449275 43.5563177 17 43.4099183 17 43.2635189 17.0362319 43.1171195 17.2173913 43 17.3985507 43L21.673913 43.4099183C21.8550725 43.4391982 22 43.5855976 22 43.731997 21.9637681 43.9076763 21.7826087 44.0247959 21.6014493 43.995516z"/>
      <path fill="#757575" d="M32.8068093,27.3261803 L32.980277,27.0171674 L29.5109233,26.2618026 C29.4415362,26.2618026 29.3721491,26.2618026 29.3374556,26.3304721 L27.0476822,29.695279 L24.2721992,31.5150215 L24.064038,29.5236052 L27.4640046,25.3690987 C27.4986981,25.3004292 27.4986981,25.2317597 27.4986981,25.1974249 L24.6885216,19.8412017 L27.4293111,19.9098712 C27.4293111,19.9098712 27.4293111,19.9098712 27.4293111,19.9098712 C27.4640046,19.9098712 27.4986981,19.9098712 27.4986981,19.8755365 C27.4986981,19.8755365 27.4986981,19.8755365 27.4986981,19.8755365 C27.4986981,19.8755365 27.5333917,19.8412017 27.5333917,19.8412017 C27.5333917,19.8412017 27.5333917,19.8412017 27.5333917,19.8412017 L29.3721491,17.5751073 L32.4251804,17.7811159 C32.4945675,17.7811159 32.5639545,17.7467811 32.5986481,17.6781116 L33.9863896,14.8969957 C34.0210831,14.8283262 33.9863896,14.7253219 33.9170025,14.6566524 C33.8476154,14.6223176 33.7435348,14.6566524 33.6741477,14.7253219 L32.3210998,17.4034335 L29.3027621,17.1974249 C29.233375,17.1974249 29.1986815,17.2317597 29.1639879,17.2660944 L27.4293111,19.3948498 L26.4231985,17.7124464 L30.7598906,13.0772532 C30.8292777,13.0085837 30.8292777,12.9055794 30.7598906,12.8369099 L29.0252138,11.0515021 C28.9558267,10.9828326 28.8517461,10.9828326 28.782359,11.0515021 C28.7129719,11.1201717 28.7129719,11.223176 28.782359,11.2918455 L30.4129552,12.9742489 L24.2375057,19.5665236 C24.2375057,19.5665236 24.2375057,19.5665236 24.2375057,19.6008584 C24.2375057,19.6008584 24.2028121,19.6351931 24.2028121,19.6695279 C24.2028121,19.6695279 24.2028121,19.6695279 24.2028121,19.7038627 C24.2028121,19.7038627 24.2028121,19.7038627 24.2028121,19.7038627 C24.2028121,19.7381974 24.2028121,19.7725322 24.2375057,19.7725322 C24.2375057,19.7725322 24.2375057,19.7725322 24.2375057,19.7725322 L27.1170692,25.3004292 L25.1048441,27.7725322 L24.8272958,24.8197425 C24.8272958,24.7854077 24.7926023,24.751073 24.7926023,24.7167382 L22.259974,21.9012876 L22.6069094,21.248927 C22.641603,21.2145923 22.641603,21.1459227 22.6069094,21.111588 C22.5722159,21.0772532 22.5375223,21.0429185 22.5028288,21.0085837 L19.7273458,19.944206 L20.4212166,16.1330472 C20.4212166,16.0300429 20.3865231,15.9613734 20.2824424,15.9270386 C20.1783618,15.9270386 20.1089748,15.9613734 20.0742812,16.0643777 L19.415104,20.0472103 C19.415104,20.1158798 19.4497976,20.2188841 19.5191846,20.2188841 L22.2252805,21.248927 L21.9130387,21.832618 C21.8783451,21.9012876 21.8783451,21.9699571 21.9477322,22.0386266 L24.4803604,24.888412 L24.7926023,28.1158798 L22.0518128,31.4806867 L20.1783618,30.5879828 L20.1783618,28.1845494 C20.1783618,28.1502146 20.1436683,28.0815451 20.1089748,28.0472103 C20.0742812,28.0128755 20.0048941,28.0128755 19.9702006,28.0128755 L15.147799,28.6309013 C15.0437184,28.6309013 14.9743313,28.7339056 15.0090248,28.8369099 C15.0090248,28.9399142 15.1131054,29.0085837 15.217186,28.9742489 L19.86612,28.3905579 L19.86612,30.7253219 C19.86612,30.7939914 19.9008135,30.8626609 19.9702006,30.8626609 L22.0171193,31.8583691 L24.6885216,36.1845494 L21.9477322,34.3648069 C21.9130387,34.3304721 21.8436516,34.3304721 21.8089581,34.3304721 L18.9293945,34.9484979 L19.415104,35.1888412 L21.8089581,34.6738197 L24.7926023,36.6652361 L22.8844577,37.0429185 L23.3701672,37.2832618 L25.1395376,36.9399142 L26.3191179,38.8283262 L26.6313597,39 L26.7354403,38.8283262 L25.5211665,36.8369099 L28.3660366,35.806867 L28.6088913,35.360515 L25.5558601,36.4592275 L26.7701339,33.1287554 L27.4293111,33.8841202 C27.4293111,33.9184549 27.4640046,33.9527897 27.4986981,33.9871245 L28.6088913,35.2918455 L28.782359,34.9828326 L27.9150206,33.9871245 L29.4762297,33.7124464 L29.8231651,33.0257511 L27.4293111,29.8669528 L29.5803104,26.6738197 L32.8068093,27.3261803 Z M26.1456502,18.0214592 L27.0823757,19.5665236 L24.7579087,19.5321888 L26.1456502,18.0214592 Z M23.7517961,29.9356223 L23.9252638,31.6523605 L22.3987482,31.5493562 L23.7517961,29.9356223 Z M22.3640547,31.9270386 L23.9252638,32.0300429 L24.0987315,34.7424893 L22.3640547,31.9270386 Z M26.457892,32.751073 C26.457892,32.751073 26.457892,32.751073 26.457892,32.751073 L25.1048441,36.3562232 L24.4803604,35.360515 L24.2721992,31.9613734 L26.908908,30.2446352 L26.457892,32.751073 Z M29.5456168,33.3004292 L27.6027787,33.6437768 L26.8395209,32.751073 L27.2905369,30.27897 L29.5456168,33.3004292 Z"/>
      <path fill="#4D5052" d="M42.1537555,8.62854474 L26.4388861,0.203163485 C25.6260481,-0.240277634 24.6438687,0.0667200636 24.2374497,0.88538059 L7.20171855,33.1201388 C6.76143126,33.9387993 7.06624554,34.9280141 7.87908361,35.3373444 L23.5600847,43.7968365 C24.3729227,44.2402776 25.3551021,43.9332799 25.7615211,43.1146194 L42.7972523,10.8798612 C43.2375395,10.0612007 42.9327253,9.037875 42.1537555,8.62854474 Z M16.8880389,38.6802082 C16.1429373,38.6802082 15.567177,38.0662128 15.567177,37.3498849 C15.567177,36.5994461 16.1768055,36.0195615 16.8880389,36.0195615 C17.5992722,36.0195615 18.2089007,36.6335569 18.2089007,37.3498849 C18.2089007,38.1003237 17.5992722,38.6802082 16.8880389,38.6802082 Z M26.2018084,39.669423 L9.74183751,30.8347115 L23.7632942,4.26235526 L40.223265,13.0970668 L26.2018084,39.669423 Z"/>
      <path fill="#757575" d="M8.21739557 31L7.07343597 33.1202532C6.91884683 33.4050633 7.01160031 33.7848101 7.32077858 33.943038L11 36 8.21739557 31zM41.7826044 12L42.926564 9.87974684C43.0811532 9.59493671 42.9883997 9.21518987 42.6792214 9.05696203L39 7 41.7826044 12z"/>
      <circle cx="17.5" cy="37.5" r="1.5" fill="#C9C9C9"/>
      <path fill="#757575" d="M34.4631715,7.96019321 L31.1884544,6.54814437 C31.0142673,6.46342144 30.9445925,6.29397558 31.0491047,6.15277069 C31.153617,6.01156581 31.3626415,5.95508385 31.5368285,6.03980679 L34.8115456,7.45185563 C34.9857327,7.53657856 35.0554075,7.70602442 34.9508953,7.84722931 C34.8812204,7.98843419 34.6373585,8.04491615 34.4631715,7.96019321 Z"/>
    </g>
  </g>
</svg>
