<svg xmlns="http://www.w3.org/2000/svg" width="64" height="64" viewBox="0 0 64 64">
  <g fill="none">
    <rect width="64" height="64" fill="#FFF" fill-opacity="0"/>
    <g transform="translate(4 11)">
      <path fill="#30E6B6" d="M28.8823171,0.483098592 C24.1207317,0.483098592 19.6719512,1.82887324 15.9182927,4.17535211 L13.6591463,5.7971831 C8.09817073,10.2140845 4.55304878,17.0119718 4.55304878,24.6380282 C4.55304878,37.9922535 15.4317073,48.7929577 28.8823171,48.7929577 C42.3329268,48.7929577 53.2115854,37.9922535 53.2115854,24.6380282 C53.2115854,11.2838028 42.2981707,0.483098592 28.8823171,0.483098592 Z"/>
      <path fill="#B8FFEC" d="M31.8365854 17.978169C31.6628049 18.1507042 26.4493902 48.6894366 26.4493902 48.6894366 26.4493902 48.6894366 34.4085366 49.2070423 37.8493902 47.1021127 41.2902439 44.9971831 37.4323171 20.9112676 37.4323171 20.9112676L31.8365854 17.978169zM14.597561 30.6422535L18.6640244 46.2394366C18.6640244 46.2394366 13.172561 43.3408451 10.8091463 40.5457746 8.44573171 37.7507042 6.91646341 34.9556338 6.91646341 34.9556338L8.65426829 29.6415493 14.597561 30.6422535z"/>
      <path fill="#B8FFEC" d="M42.3329268,31.2288732 L35.6597561,47.8267606 C35.6597561,47.8267606 43.2365854,44.7556338 46.5731707,41.2014085 C49.9097561,37.6471831 50.7439024,35.7147887 50.7439024,35.7147887 L48.8670732,31.056338 L42.3329268,31.2288732 Z"/>
      <polygon fill="#FFF" points="23.565 25.673 24.677 21.67 33.957 23.189 34.826 26.536"/>
      <path fill="#FFF" d="M2.60670732,22.5330986 C2.53719512,22.3605634 4.275,20.393662 4.275,20.393662 L11.2957317,20.7732394 L10.0097561,24.3619718 L2.53719512,23.2232394 L2.60670732,22.5330986 Z"/>
      <path fill="#C9C9C9" d="M0.660365854,25.6732394 C0.729878049,26.2943662 0.729878049,26.5704225 1.00792683,26.6739437 C1.28597561,26.7774648 4.3097561,27.2950704 4.3097561,27.2950704 L4.37926829,28.6408451 C4.37926829,28.6408451 4.13597561,28.606338 3.85792683,28.6408451 C3.57987805,28.6753521 3.57987805,29.5035211 3.85792683,29.5380282 C4.13597561,29.5725352 33.5396341,33.9894366 33.5396341,33.9894366 L32.8445122,28.0197183 L33.7829268,28.1577465 L34.2,26.7084507 C34.2,26.7084507 13.1030488,24.7070423 9.66219512,24.1549296 C6.22134146,23.6028169 2.25914634,23.0507042 2.18963415,23.0852113 C2.12012195,23.1197183 0.799390244,23.9823944 0.799390244,23.9823944 L0.660365854,25.6732394 Z"/>
      <path fill="#FFF" d="M1.11219512,23.7408451 L2.8847561,23.1197183 C2.8847561,23.1197183 14.4932927,24.8105634 18.3164634,25.2591549 C22.1396341,25.7077465 34.4780488,26.5704225 34.4780488,26.5704225 C34.4780488,26.5704225 34.895122,26.8119718 34.4780488,27.4676056 C34.0609756,28.1232394 33.3310976,28.1232394 33.3310976,28.1232394 C33.3310976,28.1232394 7.36829268,25.328169 7.26402439,25.293662 C7.1597561,25.2591549 0.938414634,24.0859155 0.938414634,24.0859155 L1.11219512,23.7408451 Z"/>
      <path fill="#C9C9C9" d="M49.7707317 10.8697183C50.4658537 9.45492958 51.6823171 7.66056338 51.6823171 7.66056338 51.6823171 7.66056338 52.0993902 7.62605634 52.2036585 8.48873239 52.3079268 9.35140845 51.0219512 11.9049296 51.0219512 11.9049296L49.7707317 10.8697183zM41.672561 8.10915493C42.4371951 7.45352113 42.7847561 6.83239437 43.2018293 6.65985915 43.6536585 6.48732394 43.7926829 6.97042254 43.9317073 7.45352113 44.0707317 7.93661972 44.3835366 8.2471831 44.3835366 8.2471831L41.8115854 8.07464789 41.672561 8.07464789 41.672561 8.10915493z"/>
      <path fill="#C9C9C9" d="M27.5963415,10.0415493 C28.0829268,9.69647887 28.8128049,9.28239437 28.8128049,9.28239437 C28.8128049,9.28239437 36.7371951,7.72957746 37.1542683,7.72957746 C37.5713415,7.72957746 46.3993902,8.10915493 46.9902439,8.45422535 C47.6158537,8.79929577 47.4768293,8.86830986 47.4768293,8.86830986 C47.4768293,8.86830986 43.6536585,10.3521127 43.5841463,10.3521127 C43.5146341,10.3521127 27.5963415,10.0415493 27.5963415,10.0415493 Z"/>
      <path fill="#FFF" d="M32.1841463,15.3211268 L37.5365854,10.3521127 L42.7152439,10.593662 L38.6835366,15.3211268 C38.6835366,15.3211268 36.8762195,15.9077465 36.7371951,15.9077465 C36.6329268,15.8732394 32.6012195,15.6661972 32.6012195,15.6661972 L32.1841463,15.3211268 Z"/>
      <path fill="#757575" d="M41.8115854,27.9161972 C41.9506098,27.2260563 42.402439,26.6049296 42.402439,26.6049296 C42.402439,26.6049296 45.2871951,26.8464789 46.2603659,26.8464789 C47.1987805,26.8464789 45.6347561,25.6732394 45.0786585,25.4661972 C44.522561,25.2591549 44.7310976,24.7070423 44.9743902,24.534507 C45.2176829,24.3619718 47.9286585,24.534507 48.8670732,25.1211268 C49.8054878,25.7077465 51.0914634,27.1915493 50.570122,28.1922535 C50.0487805,29.1929577 45.8085366,31.3669014 45.8085366,31.3669014 C45.8085366,31.3669014 42.5414634,30.5042254 42.2981707,30.0211268 C42.054878,29.5380282 42.2981707,29.8140845 42.2981707,29.8140845 L41.8115854,27.9161972 Z"/>
      <path fill="#757575" d="M45.6347561,24.534507 C45.6347561,24.534507 46.0170732,23.9133803 45.9128049,22.7401408 C45.8085366,21.5669014 45.1134146,21.4978873 44.1402439,22.5330986 C43.1670732,23.5683099 42.4719512,25.3626761 41.8115854,27.0190141 L42.5067073,26.8464789 C43.1670732,27.1915493 45.6,27.1570423 45.6,27.1570423 L45.3914634,24.6725352 L45.6347561,24.534507 Z"/>
      <path fill="#ABABAB" d="M43.9317073 22.878169C44.3835366 23.3612676 44.6615854 23.9478873 44.8353659 24.6035211 45.0091463 25.2591549 45.1481707 25.8802817 45.1481707 25.8802817L45.4957317 25.8802817C45.4957317 25.8802817 45.5304878 24.534507 44.9743902 23.4647887 44.3835366 22.4295775 44.175 22.4985915 44.175 22.4985915L43.9317073 22.878169zM43.3060976 24.0169014C43.5146341 24.3619718 43.6884146 24.8105634 43.7926829 25.4661972 43.8969512 26.121831 43.9664634 27.0190141 43.9664634 27.0190141 43.9664634 27.0190141 44.9743902 27.5366197 44.8006098 26.6049296 44.6268293 25.6732394 43.7579268 23.3957746 43.6189024 23.4302817 43.479878 23.4302817 43.3060976 24.0169014 43.3060976 24.0169014z"/>
      <path fill="#ABABAB" d="M35.4859756,23.1197183 L36.3896341,25.2246479 L35.0341463,26.1908451 L34.2,26.6049296 L33.7134146,28.1922535 L32.8445122,29.6760563 L33.504878,34.0584507 L39.0658537,31.9535211 C39.0658537,31.9535211 39.7609756,32.0225352 40.3170732,31.0908451 C40.8731707,30.1591549 43.097561,23.8788732 43.9317073,22.9471831 C44.7658537,22.015493 45.6695122,21.6359155 45.9128049,23.1197183 C46.1560976,24.6035211 45.9823171,24.7760563 46.5731707,24.6725352 C47.1640244,24.5690141 48.1719512,24.2239437 49.2841463,22.9471831 C50.3615854,21.6359155 51.6128049,21.6014085 52.4121951,19.6690141 C53.2115854,17.7366197 52.8640244,17.6676056 53.2115854,16.9429577 C53.5591463,16.2183099 53.0378049,16.5633803 53.6981707,17.115493 C54.3237805,17.6676056 54.3237805,18.0816901 54.3237805,18.0816901 L55.2969512,18.0126761 C55.2969512,18.0126761 54.845122,14.4239437 53.3506098,14.5619718 C53.3506098,14.5619718 52.7597561,13.6302817 51.6823171,12.6295775 C49.8402439,10.8697183 47.3030488,8.93732394 47.3030488,8.93732394 L43.7926829,10.1450704 L44.904878,16.2873239 L35.4859756,23.1197183 Z"/>
      <path fill="#757575" d="M53.454878 16.321831C53.8719512 15.8042254 54.4628049 15.8042254 54.6365854 16.356338 54.8103659 16.9084507 54.9841463 17.943662 54.9841463 17.943662L54.2195122 17.7366197 53.454878 16.321831zM46.2603659 21.2908451L51.5780488 17.6330986C51.5780488 17.6330986 51.4042683 19.3929577 50.8134146 20.7732394 50.222561 22.1535211 48.2067073 23.8098592 47.720122 24.1204225 47.2335366 24.3964789 47.1987805 23.5683099 47.0597561 23.0161972 46.9207317 22.4640845 46.2603659 21.2908451 46.2603659 21.2908451z"/>
      <path fill="#757575" d="M52.1341463,20.5661972 C52.1341463,20.5661972 54.2890244,20.9112676 55.1579268,20.5661972 C56.0268293,20.2211268 56.4786585,19.3929577 56.4786585,19.1169014 C56.4786585,18.806338 56.1658537,18.2542254 55.2969512,17.943662 C54.4280488,17.6330986 54.0457317,17.6330986 54.0457317,17.6330986 C54.0457317,17.6330986 54.4280488,18.4612676 54.6713415,18.9788732 C54.9146341,19.4964789 54.497561,19.634507 53.8371951,19.634507 C53.1768293,19.634507 52.6554878,19.5309859 52.6554878,19.5309859 L52.1341463,20.5661972 Z"/>
      <path fill="#757575" d="M52.6554878,18.8408451 C53.072561,17.2190141 53.2115854,16.1838028 53.9414634,17.3570423 C54.6713415,18.5302817 55.4012195,19.7035211 54.3237805,19.9450704 C53.2115854,20.2211268 52.5164634,19.7725352 52.5164634,19.7725352 L52.6554878,18.8408451 Z"/>
      <path fill="#ABABAB" d="M53.0030488,17.6330986 C53.0030488,17.6330986 53.072561,17.9091549 53.454878,18.7028169 C53.7329268,19.2549296 53.8371951,19.634507 53.8371951,19.634507 C53.8371951,19.634507 54.2542683,19.634507 54.3237805,19.6 C54.3585366,19.565493 53.3158537,17.3915493 53.2115854,17.15 C53.1073171,16.9084507 53.0030488,17.6330986 53.0030488,17.6330986 Z"/>
      <path fill="#C9C9C9" d="M7.68109756,19.0823944 C9.66219512,18.3232394 22.2786585,14.0788732 22.2786585,14.0788732 C22.2786585,14.0788732 25.7542683,14.9070423 30.2378049,15.528169 C34.7213415,16.1492958 44.2445122,15.9077465 44.2445122,15.9077465 C44.2445122,15.9077465 45.9823171,15.8732394 44.0359756,17.3225352 C42.0896341,18.771831 35.4859756,23.1197183 35.4859756,23.1197183 C35.4859756,23.1197183 26.2060976,20.6007042 18.4554878,20.0485915 C10.704878,19.4964789 6.15182927,19.6690141 6.15182927,19.6690141 L7.68109756,19.0823944 Z"/>
      <path fill="#4D5052" d="M29.0908537 49C17.5518293 49 7.40304878 40.8908451 4.97012195 29.6760563 4.93536585 29.5035211 5.21341463 29.6760563 5.38719512 29.6415493 5.56097561 29.6070423 5.6304878 29.5380282 5.6304878 29.5380282 7.99390244 40.4077465 17.8646341 48.3098592 29.0908537 48.3098592 42.2981707 48.3098592 53.072561 37.6126761 53.072561 24.5 53.072561 23.9823944 53.0378049 23.4302817 53.0030488 22.9126761 53.0030488 22.7056338 53.1420732 22.5676056 53.3158537 22.5330986 53.5243902 22.5330986 53.6634146 22.6711268 53.6981707 22.843662 53.7329268 23.3957746 53.7676829 23.9478873 53.7676829 24.465493 53.7676829 37.9922535 42.6804878 49 29.0908537 49zM5.17865854 20.393662C5.14390244 20.393662 5.14390244 20.393662 5.10914634 20.393662 4.93536585 20.3591549 4.79634146 20.1866197 4.83109756 19.9795775 7.02073171 8.38521127 17.2042683 0 29.0908537 0 36.1115854 0 42.8195122 2.96760563 47.4768293 8.17816901 47.6506098 8.38521127 47.8591463 8.59225352 48.0329268 8.79929577 48.1719512 8.93732394 48.1371951 9.17887324 47.9981707 9.28239437 47.8591463 9.42042254 47.8591463 9.21338028 47.720122 9.07535211 47.5463415 8.86830986 47.1292683 8.83380282 46.9554878 8.62676056 42.402439 3.58873239 35.9030488.690140845 29.0908537.690140845 17.5518293.690140845 7.64634146 8.86830986 5.52621951 20.0830986 5.49146341 20.2556338 5.31768293 20.393662 5.17865854 20.393662z"/>
      <g fill="#4D5052" transform="translate(0 6.211)">
        <path d="M34.6865854 20.7042254C34.6865854 20.7042254 34.6865854 20.7042254 34.6865854 20.7042254 34.6170732 20.7042254 27.770122 20.3591549 16.370122 19.0823944 4.97012195 17.7711268 2.18963415 17.3570423 2.18963415 17.3570423 2.08536585 17.3225352 1.98109756 17.2535211 1.91158537 17.15 1.87682927 17.0464789 1.87682927 16.9084507 1.94634146 16.8049296L3.78841463 14.0098592C3.85792683 13.906338 3.96219512 13.871831 4.06646341 13.8373239 4.17073171 13.8373239 6.53414634 13.6992958 16.8219512 14.5619718 27.9786585 15.4591549 34.1304878 17.0464789 34.2 17.0809859 34.3390244 17.115493 34.4432927 17.2190141 34.4432927 17.3570423L35.0341463 20.2901408C35.0689024 20.393662 35.0341463 20.4971831 34.9646341 20.5661972 34.895122 20.6697183 34.7908537 20.7042254 34.6865854 20.7042254zM2.8152439 16.7359155C4.06646341 16.9084507 7.71585366 17.3915493 16.4396341 18.3922535 26.1713415 19.4964789 32.5664634 19.9105634 34.2695122 20.0140845L33.8176829 17.7021127C32.6707317 17.4260563 26.727439 16.0802817 16.7871951 15.2521127 8.02865854 14.5274648 5.00487805 14.5274648 4.3097561 14.5274648L2.8152439 16.7359155zM41.1164634 10.1105634C38.8573171 10.1105634 35.625 10.0415493 31.5932927 9.69647887 23.2170732 9.00633803 20.7841463 8.59225352 20.679878 8.59225352 20.5408537 8.55774648 20.4365854 8.45422535 20.4018293 8.31619718 20.3670732 8.17816901 20.4365854 8.04014085 20.5756098 7.97112676L27.9439024 3.65774648C28.0134146 3.62323944 28.0829268 3.58873239 28.152439 3.62323944 28.152439 3.62323944 29.577439 3.72676056 34.7560976 3.83028169 39.6567073 3.93380282 43.7231707 3.83028169 43.7579268 3.83028169 43.9317073 3.83028169 44.0707317 3.93380282 44.1054878 4.10633803L45.1829268 9.62746479C45.2176829 9.73098592 45.1829268 9.83450704 45.1134146 9.90352113 45.0439024 9.97253521 44.9396341 10.0070423 44.8353659 10.0070423 44.8006098 10.0070423 43.5146341 10.1105634 41.1164634 10.1105634zM21.7573171 8.04014085C23.1128049 8.21267606 26.0670732 8.55774648 31.6280488 9.00633803 38.6140244 9.5584507 43.097561 9.42042254 44.3835366 9.35140845L43.445122 4.48591549C42.4371951 4.52042254 38.8573171 4.58943662 34.6865854 4.48591549 30.2378049 4.38239437 28.5695122 4.31338028 28.1871951 4.27887324L21.7573171 8.04014085z"/>
        <g transform="translate(20.506 3.796)">
          <path d="M18.0036585.414084507C16.8567073.414084507 15.5359756.379577465 14.1804878.379577465 8.93231707.241549296 7.57682927.172535211 7.57682927.172535211L.208536585 4.45140845C.208536585 4.45140845 2.64146341 4.86549296 11.0871951 5.5556338 11.4 5.59014085 11.6780488 5.59014085 11.9908537 5.62464789L18.0036585.414084507zM23.2170732.345070423C23.2170732.345070423 22.5219512.379577465 21.3054878.379577465L16.2310976 5.86619718C21.4097561 6.07323944 24.2597561 5.86619718 24.2597561 5.86619718L23.2170732.345070423z"/>
        </g>
        <path d="M33.9914634,22.2915493 C33.9914634,22.2915493 33.9567073,22.2915493 33.9567073,22.2915493 C33.8871951,22.2915493 28.0829268,21.4978873 16.2658537,20.1866197 C4.44878049,18.8753521 0.625609756,18.1507042 0.590853659,18.1161972 C0.451829268,18.0816901 0.347560976,17.978169 0.312804878,17.8401408 C0.27804878,17.7021127 0.382317073,17.5640845 0.486585366,17.4950704 L2.05060976,16.7014085 C2.22439024,16.5978873 2.43292683,16.6669014 2.50243902,16.8394366 C2.57195122,17.0119718 2.53719512,17.2190141 2.36341463,17.2880282 L1.73780488,17.6330986 C3.51036585,17.9091549 7.85487805,18.5647887 16.3353659,19.4964789 C27.2835366,20.7042254 33.0878049,21.4633803 33.9219512,21.6014085 L40.4560976,18.2542254 C40.629878,18.1507042 40.8384146,18.2197183 40.9079268,18.3922535 C41.0121951,18.5647887 40.9426829,18.771831 40.7689024,18.8408451 L34.1304878,22.2225352 C34.0957317,22.2915493 34.0262195,22.2915493 33.9914634,22.2915493 Z"/>
        <path d="M0.382317073,17.8056338 L0.660365854,19.4964789 C0.660365854,19.4964789 3.78841463,20.1866197 14.7713415,21.7049296 C26.1365854,23.2922535 33.122561,23.8098592 33.122561,23.8098592 L38.6835366,22.3950704 L37.9884146,19.9450704 L33.9914634,21.9809859 C33.9914634,21.9809859 18.6640244,20.1521127 15.2231707,19.7380282 C11.7823171,19.3239437 0.382317073,17.8056338 0.382317073,17.8056338 Z"/>
        <path d="M34.895122,20.6007042 C35.2079268,20.393662 37.2237805,19.1169014 37.2237805,19.1169014 L36.4243902,16.356338 C36.4243902,16.356338 31.35,14.8035211 19.7067073,13.871831 C8.06341463,12.9401408 6.36036585,13.1126761 6.36036585,13.1126761 L3.89268293,13.906338 C3.89268293,13.906338 10.6353659,14.4239437 18.4554878,15.0105634 C26.2756098,15.5971831 34.0957317,17.3570423 34.0957317,17.3570423 L34.895122,20.6007042 Z"/>
        <path d="M28.8823171 20.3246479C28.847561 20.3246479 28.847561 20.3246479 28.8128049 20.3246479 28.6390244 20.2901408 28.5 20.1176056 28.5347561 19.9105634L29.1603659 16.2528169C29.195122 16.0802817 29.3689024 15.9422535 29.577439 15.9767606 29.7512195 16.0112676 29.8902439 16.1838028 29.8554878 16.3908451L29.229878 20.0485915C29.195122 20.1866197 29.0560976 20.3246479 28.8823171 20.3246479zM6.01280488 17.8401408C5.97804878 17.8401408 5.90853659 17.8401408 5.87378049 17.8056338 5.7 17.7366197 5.59573171 17.5295775 5.7 17.3570423L7.0902439 14.0443662C7.1597561 13.871831 7.36829268 13.7683099 7.54207317 13.871831 7.71585366 13.9408451 7.82012195 14.1478873 7.71585366 14.3204225L6.32560976 17.6330986C6.29085366 17.7711268 6.15182927 17.8401408 6.01280488 17.8401408zM9.62743902 17.943662L10.8439024 14.2169014 25.1634146 15.7007042 24.1554878 19.565493C24.1554878 19.565493 19.5329268 19.1169014 15.675 18.6683099 11.8170732 18.2197183 9.62743902 17.943662 9.62743902 17.943662zM4.2054878 14.5619718C4.06646341 14.5619718 3.92743902 14.4929577 3.89268293 14.3549296 3.82317073 14.1823944 3.89268293 13.9753521 4.10121951 13.906338 4.17073171 13.8373239 13.5896341 10.1105634 20.7841463 7.93661972 20.9579268 7.86760563 21.1664634 7.97112676 21.2012195 8.17816901 21.2707317 8.35070423 21.1664634 8.55774648 20.9579268 8.59225352 13.7981707 10.7316901 4.41402439 14.4584507 4.3097561 14.4929577 4.275 14.5274648 4.2402439 14.5619718 4.2054878 14.5619718zM41.325 13.4577465C41.2207317 13.4577465 41.1164634 13.4232394 41.0469512 13.3197183 40.9426829 13.1471831 40.977439 12.9401408 41.1164634 12.8366197 42.2286585 12.0429577 43.3408537 11.2147887 44.4182927 10.3866197 44.5573171 10.2830986 44.8006098 10.2830986 44.904878 10.4556338 45.0091463 10.593662 45.0091463 10.8352113 44.8353659 10.9387324 43.7579268 11.7669014 42.6457317 12.5950704 41.5335366 13.3887324 41.4640244 13.4577465 41.3945122 13.4577465 41.325 13.4577465zM34.5823171 17.7711268C34.4432927 17.7711268 34.3390244 17.7021127 34.2695122 17.5985915 34.1652439 17.4260563 34.2347561 17.2190141 34.4085366 17.115493 34.4432927 17.115493 36.2506098 16.1147887 38.8573171 14.3549296 39.0310976 14.2514085 39.2396341 14.2859155 39.3439024 14.4584507 39.4481707 14.6309859 39.4134146 14.8380282 39.2396341 14.9415493 36.5634146 16.7014085 34.7560976 17.7021127 34.7213415 17.7366197 34.6865854 17.7711268 34.6518293 17.7711268 34.5823171 17.7711268zM40.0042683 22.8091549C40.0042683 22.8091549 39.9695122 22.8091549 39.9695122 22.8091549 39.7957317 22.7746479 39.6567073 22.6021127 39.6567073 22.4295775 39.6914634 22.1535211 40.4213415 15.9767606 42.75 14.2169014 44.0012195 13.2852113 44.9396341 13.3887324 45.4957317 13.6647887 46.295122 14.0443662 47.3030488 15.1485915 47.5115854 18.3232394 47.5115854 18.5302817 47.372561 18.6683099 47.1987805 18.7028169 46.9902439 18.7028169 46.8512195 18.5647887 46.8164634 18.3922535 46.677439 16.1838028 46.1213415 14.734507 45.2176829 14.3204225 44.522561 14.0098592 43.7231707 14.3894366 43.2018293 14.8035211 41.1164634 16.3908451 40.3865854 22.4985915 40.3865854 22.5330986 40.3518293 22.6711268 40.1780488 22.8091549 40.0042683 22.8091549zM46.7121951 9.45492958L45.2871951 4.03732394C46.2256098 4.38239437 47.0945122 4.9 47.7896341 5.59014085L49.875 7.66056338 46.7121951 9.45492958z"/>
        <path d="M50.8481707 7.55704225C50.7439024 7.55704225 50.6743902 7.52253521 50.604878 7.45352113 49.2146341 6.07323944 46.7121951 3.83028169 45.947561 3.65774648 45.0091463 3.45070423 36.4243902 3.20915493 33.1573171 3.14014085 32.9487805 3.14014085 32.8097561 2.96760563 32.8097561 2.79507042 32.8097561 2.62253521 32.9835366 2.45 33.1573171 2.45 33.1573171 2.45 33.1573171 2.45 33.1573171 2.45 33.6439024 2.45 44.904878 2.72605634 46.0865854 3.00211268 47.3030488 3.27816901 50.7091463 6.62535211 51.0914634 7.00492958 51.2304878 7.14295775 51.2304878 7.35 51.0914634 7.48802817 51.0567073 7.52253521 50.952439 7.55704225 50.8481707 7.55704225zM46.5731707 15.2521127C46.4341463 15.2521127 46.329878 15.1830986 46.2603659 15.0795775 46.1560976 14.9070423 46.2256098 14.7 46.3993902 14.5964789 46.4341463 14.5964789 48.2414634 13.6302817 49.6664634 12.6295775 50.7439024 11.8704225 51.4390244 11.1802817 51.4390244 11.1457746 51.5780488 11.0077465 51.7865854 11.0077465 51.9256098 11.1457746 52.0646341 11.2838028 52.0646341 11.4908451 51.9256098 11.6288732 51.8908537 11.6633803 51.1609756 12.3880282 50.0487805 13.1816901 48.5890244 14.2169014 46.7817073 15.1830986 46.7121951 15.2176056 46.677439 15.2521127 46.6079268 15.2521127 46.5731707 15.2521127z"/>
        <path d="M47.1640244 18.6683099C47.0597561 18.6683099 46.9207317 18.5992958 46.8512195 18.4957746 46.7469512 18.3232394 46.8164634 18.1161972 46.9902439 18.0126761 47.025 18.0126761 49.5969512 16.4943662 50.5353659 14.3204225 51.0567073 13.1471831 51.2304878 12.0774648 51.3695122 11.1457746 51.5085366 10.2830986 51.6128049 9.52394366 51.995122 9.00633803 52.8292683 7.86760563 53.7329268 8.14366197 53.7676829 8.17816901 53.9414634 8.2471831 54.0457317 8.45422535 53.9762195 8.62676056 53.9067073 8.79929577 53.6981707 8.9028169 53.5243902 8.83380282 53.5243902 8.83380282 53.072561 8.73028169 52.5512195 9.42042254 52.2731707 9.8 52.1689024 10.4556338 52.029878 11.2492958 51.8908537 12.1809859 51.7170732 13.3197183 51.1609756 14.5964789 50.0835366 16.9774648 47.4073171 18.5302817 47.3030488 18.5992958 47.2682927 18.6338028 47.1987805 18.6683099 47.1640244 18.6683099zM52.4121951 7.35C52.3426829 7.35 52.2384146 7.31549296 52.1689024 7.24647887L47.754878 3.14014085C47.2682927 2.6915493 46.6426829 2.41549296 45.947561 2.38098592L37.3628049 2.07042254C37.1542683 2.07042254 37.0152439 1.89788732 37.0152439 1.72535211 37.0152439 1.5528169 37.1890244 1.38028169 37.3628049 1.38028169L45.947561 1.69084507C46.7817073 1.72535211 47.5810976 2.07042254 48.2067073 2.62253521L52.6207317 6.72887324C52.7597561 6.86690141 52.7597561 7.07394366 52.6207317 7.21197183 52.5859756 7.31549296 52.4817073 7.35 52.4121951 7.35z"/>
        <polygon points="47.998 2.899 48.902 1.311 51.682 1.449 50.084 4.865"/>
        <path d="M50.7091463,5.41760563 C50.6743902,5.38309859 52.2036585,2.27746479 52.2036585,2.27746479 L52.725,7.00492958 L50.7091463,5.41760563 Z"/>
        <polygon points="37.085 1.76 37.12 1.553 37.745 .69 41.812 .759 41.325 1.898"/>
        <path d="M51.3695122 16.3908451C51.3 16.3908451 51.2652439 16.3908451 51.1957317 16.356338 51.0219512 16.2528169 50.9871951 16.0457746 51.0567073 15.8732394 51.0567073 15.8732394 51.995122 14.2169014 52.377439 12.3535211 52.8292683 10.1105634 53.2463415 9.59295775 53.4896341 9.45492958 53.6634146 9.35140845 53.8719512 9.42042254 53.9762195 9.59295775 54.0804878 9.73098592 54.0109756 9.93802817 53.8719512 10.0415493 53.8371951 10.0760563 53.4896341 10.5246479 53.072561 12.4915493 52.6554878 14.4584507 51.7170732 16.1492958 51.647561 16.2183099 51.6128049 16.321831 51.5085366 16.3908451 51.3695122 16.3908451zM41.325 23.2577465C41.2554878 23.2577465 41.2207317 23.2577465 41.1512195 23.2232394 40.977439 23.1542254 40.9079268 22.9471831 41.0121951 22.7746479 41.0121951 22.7401408 41.0817073 22.6021127 41.1164634 22.4295775 41.6030488 21.0147887 43.0280488 16.7704225 44.3835366 15.5971831 44.904878 15.1485915 45.2871951 15.2176056 45.5304878 15.3211268 46.329878 15.7352113 46.295122 17.5985915 46.2603659 18.1507042 46.2603659 18.3577465 46.0865854 18.4957746 45.8780488 18.4612676 45.6695122 18.4612676 45.5304878 18.2887324 45.5652439 18.0816901 45.6347561 17.0464789 45.4609756 16.0112676 45.2176829 15.9077465 45.1829268 15.9077465 45.0786585 15.9077465 44.8353659 16.0802817 44.0359756 16.7704225 42.9932927 18.9788732 41.7768293 22.6021127 41.672561 22.9126761 41.6378049 22.9816901 41.6378049 23.0161972 41.5682927 23.1887324 41.4292683 23.2577465 41.325 23.2577465zM4.2054878 21.0838028C4.2054878 21.0838028 11.0871951 21.9119718 18.8030488 23.0852113 26.5189024 24.2584507 33.1920732 24.6725352 33.1920732 24.6725352L39.7957317 23.2577465 39.7957317 24.534507 33.4353659 26.984507 4.41402439 22.4640845 4.2054878 21.0838028z"/>
        <path d="M41.325,21.8774648 C41.325,21.8774648 44.9743902,22.9126761 48.0329268,21.9464789 C50.7786585,21.0838028 50.0140244,19.7380282 49.145122,19.2204225 C48.5890244,18.8753521 48.0676829,18.7028169 48.0676829,18.7028169 C48.0676829,18.7028169 50.5006098,18.9788732 50.8829268,20.6007042 C51.2652439,22.2225352 51.3,23.9478873 50.8829268,24.6035211 C50.4658537,25.2591549 49.2146341,26.5704225 45.8085366,26.6394366 C42.402439,26.7084507 40.0737805,25.6387324 40.0737805,25.6387324 L41.325,21.8774648 Z"/>
        <path d="M45.6347561 20.9112676C45.947561 20.9112676 46.2603659 20.8767606 46.5731707 20.8077465 48.7280488 20.393662 47.372561 19.5309859 46.329878 19.2549296 45.2871951 18.9788732 45.4262195 19.0823944 45.4262195 19.0823944L45.6347561 20.9112676zM52.2036585 14.2169014C52.2036585 14.2169014 53.0378049 14.4929577 54.6365854 14.2514085 56.2353659 14.0098592 56.4786585 12.9056338 56.4786585 12.9056338L56.6871951 15.8387324C56.6871951 15.8387324 56.3743902 16.5978873 54.3585366 16.8394366 52.725 17.0464789 51.1957317 16.321831 51.1957317 16.321831L52.2036585 14.2169014zM54.7756098 13.2852113C54.7060976 13.2852113 54.6365854 13.2161972 54.6018293 13.1471831 54.3585366 12.1464789 53.2115854 10.4211268 53.1768293 10.3866197 53.1073171 10.3176056 53.1420732 10.2140845 53.2115854 10.1450704 53.2810976 10.0760563 53.3853659 10.1105634 53.454878 10.1795775 53.4896341 10.2485915 54.6713415 11.9739437 54.9146341 13.043662 54.9493902 13.1471831 54.879878 13.2161972 54.7756098 13.2507042 54.8103659 13.2852113 54.8103659 13.2852113 54.7756098 13.2852113zM44.8006098 20.7732394C44.6963415 20.7732394 44.6268293 20.7042254 44.6268293 20.6007042 44.522561 18.9098592 43.6536585 17.5295775 43.6536585 17.4950704 43.6189024 17.4260563 43.6189024 17.3225352 43.7231707 17.2535211 43.7926829 17.2190141 43.8969512 17.2190141 43.9664634 17.3225352 44.0012195 17.3915493 44.870122 18.806338 45.0091463 20.5661972 44.9743902 20.7042254 44.904878 20.7732394 44.8006098 20.7732394 44.8006098 20.7732394 44.8006098 20.7732394 44.8006098 20.7732394zM33.5396341 27.9852113C33.504878 27.9852113 33.504878 27.9852113 33.5396341 27.9852113L3.85792683 23.3612676C3.75365854 23.3612676 3.68414634 23.2577465 3.71890244 23.1542254 3.71890244 23.0507042 3.82317073 22.9816901 3.92743902 23.0161972L33.5396341 27.6401408 39.5871951 25.328169C39.6914634 25.293662 39.7609756 25.328169 39.7957317 25.4316901 39.8304878 25.5352113 39.7957317 25.6042254 39.6914634 25.6387324L33.6091463 27.9507042C33.5743902 27.9852113 33.5396341 27.9852113 33.5396341 27.9852113zM44.2445122 2.27746479C44.175 2.27746479 44.1054878 2.24295775 44.0707317 2.13943662 44.0707317 2.13943662 43.827439 1.27676056 43.6536585.75915493 43.5841463.586619718 43.5146341.552112676 43.479878.552112676 43.3060976.517605634 42.9932927.690140845 42.6804878 1.17323944 42.6109756 1.24225352 42.5067073 1.27676056 42.4371951 1.20774648 42.3676829 1.13873239 42.3329268 1.03521127 42.402439.966197183 42.7847561.448591549 43.2018293.172535211 43.5493902.207042254 43.6536585.241549296 43.8969512.31056338 44.0012195.621126761 44.175 1.13873239 44.4530488 2.00140845 44.4530488 2.00140845 44.4878049 2.10492958 44.4182927 2.17394366 44.3487805 2.2084507 44.2792683 2.27746479 44.2445122 2.27746479 44.2445122 2.27746479zM39.5176829 40.2697183C39.5176829 40.2697183 39.4829268 40.2697183 39.4829268 40.2697183 39.3786585 40.2352113 39.3439024 40.1661972 39.3439024 40.0626761L42.3329268 27.9852113C42.3676829 27.8816901 42.4371951 27.8471831 42.5414634 27.8471831 42.6457317 27.8816901 42.6804878 27.9507042 42.6804878 28.0542254L39.6914634 40.1316901C39.6914634 40.2352113 39.6219512 40.2697183 39.5176829 40.2697183zM44.8628566 36.8535211C44.8628566 36.8535211 44.8628566 36.8535211 44.8628566 36.8535211 44.7420938 36.8535211 44.6615854 36.784507 44.6615854 36.6809859L44.7420938 28.4338028C44.7420938 28.3302817 44.8226023 28.2612676 44.943365 28.2612676 44.943365 28.2612676 44.943365 28.2612676 44.943365 28.2612676 45.0641277 28.2612676 45.1446362 28.3302817 45.1446362 28.4338028L45.0641277 36.6809859C45.0641277 36.784507 44.9836193 36.8535211 44.8628566 36.8535211zM48.6932927 32.5401408C48.6237805 32.5401408 48.5195122 32.4711268 48.5195122 32.4021127L47.8591463 28.4683099C47.8591463 28.3647887 47.8939024 28.2957746 47.9981707 28.2612676 48.102439 28.2612676 48.1719512 28.2957746 48.2067073 28.3992958L48.8670732 32.3330986C48.8670732 32.4366197 48.797561 32.5056338 48.6932927 32.5401408 48.6932927 32.5401408 48.6932927 32.5401408 48.6932927 32.5401408zM50.7091463 29.5035211C50.6396341 29.5035211 50.570122 29.4690141 50.5353659 29.4L49.6664634 27.1570423C49.6317073 27.0535211 49.6664634 26.984507 49.7707317 26.95 49.875 26.915493 49.9445122 26.95 49.9792683 27.0535211L50.8481707 29.2964789C50.8829268 29.4 50.8481707 29.4690141 50.7439024 29.5035211 50.7786585 29.5035211 50.7439024 29.5035211 50.7091463 29.5035211zM9.21036585 32.5401408C9.21036585 32.5401408 9.21036585 32.5401408 9.21036585 32.5401408 9.07134146 32.5401408 9.03658537 32.4366197 9.03658537 32.3330986L10.1140244 25.4661972C10.1140244 25.3626761 10.2182927 25.293662 10.322561 25.328169 10.4268293 25.328169 10.4963415 25.4316901 10.4615854 25.5352113L9.38414634 32.3676056C9.38414634 32.4711268 9.31463415 32.5401408 9.21036585 32.5401408zM12.9987805 36.5774648C12.8945122 36.5774648 12.825 36.5084507 12.825 36.4049296L12.3731707 26.4323944C12.3731707 26.3288732 12.4426829 26.2598592 12.5469512 26.2598592 12.6512195 26.2598592 12.7207317 26.3288732 12.7207317 26.4323944L13.172561 36.4049296C13.172561 36.5084507 13.1030488 36.5774648 12.9987805 36.5774648 12.9987805 36.5774648 12.9987805 36.5774648 12.9987805 36.5774648zM17.3432927 35.2661972C17.2737805 35.2661972 17.2042683 35.2316901 17.1695122 35.128169L14.945122 26.4669014C14.9103659 26.3633803 14.979878 26.2943662 15.0841463 26.2598592 15.1884146 26.2253521 15.2579268 26.2943662 15.2926829 26.3978873L17.5518293 35.0591549C17.5865854 35.1626761 17.5170732 35.2316901 17.4128049 35.2661972 17.3780488 35.2661972 17.3780488 35.2661972 17.3432927 35.2661972zM7.0902439 28.9514085C7.0902439 28.9514085 7.0554878 28.9514085 7.02073171 28.9514085 6.91646341 28.9169014 6.88170732 28.8133803 6.91646341 28.7443662L8.13292683 24.9830986C8.16768293 24.8795775 8.27195122 24.8450704 8.34146341 24.8795775 8.44573171 24.9140845 8.4804878 25.0176056 8.44573171 25.0866197L7.22926829 28.8478873C7.22926829 28.9169014 7.1597561 28.9514085 7.0902439 28.9514085z"/>
      </g>
      <path fill="#4D5052" d="M37.0847561,42.0985915 C37.05,42.0985915 37.05,42.0985915 37.0152439,42.0985915 C36.9109756,42.0640845 36.8762195,41.9605634 36.9109756,41.8570423 L40.4560976,33.9204225 C40.4908537,33.8169014 40.595122,33.7823944 40.6993902,33.8169014 C40.8036585,33.8514085 40.8384146,33.9549296 40.8036585,34.0584507 L37.2585366,41.9950704 C37.2237805,42.0640845 37.1542683,42.0985915 37.0847561,42.0985915 Z"/>
      <path fill="#ABABAB" d="M45.4957317,28.1232394 C46.5731707,27.9852113 47.6853659,27.5021127 48.2067073,27.1225352 C49.1103659,26.5014085 48.797561,25.7422535 48.797561,25.7422535 C48.797561,25.7422535 49.9445122,26.1908451 49.0756098,27.0880282 C48.1719512,28.1232394 45.4957317,28.1232394 45.4957317,28.1232394 Z"/>
      <polygon fill="#FFF" points="13 18.654 22.072 15 26 15.423 18.422 19"/>
      <polygon fill="#FFF" points="19 19.918 26.119 16 27 16.041 20.128 20"/>
      <path fill="#FFF" d="M33,20.6451613 C33,20.6451613 33.4268775,20.7096774 33.9960474,20.7741935 C34.5652174,20.8387097 35.027668,21 35.027668,21 L42,17 L40.826087,17 L33,20.6451613 Z"/>
      <path fill="#FD6A5D" d="M24.1109237 27.3902439C24.3867653 27.2195122 24.5936464 27.097561 24.7315672 27.0487805 24.8005276 27.0243902 24.869488 27 24.9384484 27L27.731344 27.2682927C27.9727054 27.2926829 28.076146 27.4878049 27.9382252 27.6097561L27.5589431 27.9268293C27.4899827 27.9756098 27.3865421 28 27.2831015 28L24.2488445 27.7560976C24.0074832 27.7560976 23.9040426 27.5121951 24.1109237 27.3902439zM5.1141581 25.4C5.3664356 25.25 5.58267346 25.125 5.72683203 25.05 5.79891132 25.025 5.8709906 25 5.94306989 25L8.75416203 25.275C8.97039989 25.3 9.07851882 25.475 8.93436024 25.6L8.57396382 25.925C8.50188453 25.975 8.3937656 26 8.32168632 26L5.29435632 25.75C5.00603918 25.75 4.89792025 25.525 5.1141581 25.4z"/>
    </g>
  </g>
</svg>
