<svg xmlns="http://www.w3.org/2000/svg" width="64" height="64" viewBox="0 0 64 64">
  <g fill="none">
    <rect width="64" height="64" fill="#FFF" fill-opacity="0"/>
    <g transform="translate(8 10)">
      <path fill="#1DAAF1" d="M17.9100246 11.3767684L17.9776275 3C17.9776275 3 10.7103159 4.9099032 5.8767087 10.271035 1.04310145 15.6321668-.917382605 25.1481757.400873916 31.2129561 1.71913044 37.2777364 6.65414203 43.476545 9.86527971 45.3864483 13.0764174 47.2963515 16.1861507 48 16.1861507 48 16.1861507 48 11.690558 47.0618019 9.42586087 40.9970216 7.16116377 34.9322413 7.33017102 30.3082651 7.33017102 30.3082651 7.33017102 30.3082651 10.5075072 32.9553239 12.9412116 34.2956069 15.3749159 35.6358898 17.2339957 36.7416232 19.0592739 39.0201042 20.8845522 41.2985853 22 44.5822785 22 44.5822785L21.7971913 27.8957558C21.7971913 27.8957558 18.1804362 29.1355175 16.0509449 24.9471333 13.9214536 20.7587491 14.7326884 11.9128816 14.7326884 11.9128816L17.9100246 11.3767684zM30.1174506 11.3767684L30.0499514 3C30.0499514 3 37.3061145 4.9099032 42.1323066 10.271035 46.9584987 15.6321668 48.9159753 25.1481757 47.5997411 31.2129561 46.2835068 37.3112435 41.3560659 43.476545 38.1498543 45.3864483 34.9436428 47.2963515 31.83868 48 31.83868 48 31.83868 48 36.7661209 46.8272524 39.0273438 40.7624721 41.2885667 34.6976917 40.6473244 30.274758 40.6473244 30.274758 40.6473244 30.274758 38.9935942 32.4862249 35.0448916 34.2620998 32.5136719 35.4013403 30.758693 36.7416232 28.9362148 39.0201042 27.1137366 41.2985853 26 44.5822785 26 44.5822785L26.2024976 27.8957558C26.2024976 27.8957558 29.8137043 29.1355175 31.9399288 24.9471333 34.0999029 20.7922561 33.256163 11.9128816 33.256163 11.9128816L30.1174506 11.3767684z"/>
      <path fill="#5EC9FF" d="M0.68574169,22.0420624 C0.719327804,21.9063772 3.03676963,19.3283582 7.73882552,19.2944369 C13.9522565,19.2605156 18.2848652,22.550882 26.7485658,20.2442334 C35.2122663,17.9375848 40.0822528,10 40.0822528,10 C40.0822528,10 45.1201698,15.2238806 45.9262365,19.2944369 C46.93382,24.3147897 37.3953637,27.7747626 30.980416,25.468114 C25.2036045,23.3989145 26.3119463,25.807327 23.9273322,26.7910448 C21.5427182,27.7747626 16.9078345,25.1628223 11.131023,26.2822252 C3.87642247,27.6729986 1.55898064,35 1.55898064,35 C1.55898064,35 -1.26225289,28.1818182 0.68574169,22.0420624 Z"/>
      <path fill="#5EC9FF" d="M2,33.0502693 C2,33.0502693 5.81571881,28.8815081 13.8185981,29.010772 C21.8214774,29.1400359 27.7645439,30.464991 33.0322619,30.561939 C38.2999799,30.6588869 42.5884426,28.978456 44.7833251,27.2657092 C46.9782076,25.5529623 47.9912303,23 47.9912303,23 C47.9912303,23 47.7548584,26.070018 47.9912303,27.6858169 C48.2276023,29.3016158 43.6690002,34.1166966 36.3414693,35.1831239 C29.0139385,36.2495512 17.397945,35.1831239 13.0757148,37.1543986 C8.75348463,39.1256732 7.30148543,41 7.30148543,41 L2,33.0502693 Z"/>
      <path fill="#1DAAF1" d="M21,3.55720167 C21,3.55720167 21.7903226,2.73140562 24.311828,3.09044738 C26.8333333,3.44948914 28,3.23406409 28,3.23406409 L27.4354839,13 L21.2634409,12.389629 L21,3.55720167 Z"/>
      <polyline fill="#30E6B6" points="22 49 22 28 25 28 25 49"/>
      <path fill="#30E6B6" d="M26.0046266 50C26.0685068 47.9441536 25.3977646 42.539267 29.6457984 38.3612565 33.25503 34.8132635 37.886345 34.2164049 39.9943919 31 39.9943919 31 40.2499127 37.565445 37.3114232 43.069808 33.6063712 50 26.0046266 50 26.0046266 50M21.9953734 50C21.9314932 47.9441536 22.6022354 42.539267 18.3542016 38.3612565 14.7769101 34.8132635 10.1455951 34.2164049 8.00560814 31 8.00560814 31 7.75008731 37.565445 10.6885768 43.069808 14.3936288 50 21.9953734 50 21.9953734 50"/>
      <path fill="#B8FFEC" d="M10,37 C10,37 11.3414634,42.4480553 14.8292683,45.9430343 C18.1829268,49.3009552 21,48.9925747 21,48.9925747 C21,48.9925747 19.8597561,45.7374473 15.902439,42.4823198 C11.945122,39.2271924 10,37 10,37 Z"/>
      <path fill="#4D5052" d="M24,50 C10.7830986,50 0,39.2845269 0,26.1505144 C0,15.1999055 7.47042254,5.66011122 18.1521127,3.00643606 C18.3211268,2.97284523 18.5239437,3.07361771 18.5577465,3.24157183 C18.5915493,3.40952596 18.4901408,3.61107091 18.3211268,3.64466173 C7.94366197,6.26474607 0.676056338,15.5022229 0.676056338,26.1505144 C0.676056338,38.9150278 11.1549296,49.3281835 24,49.3281835 C36.8450704,49.3281835 47.3239437,38.9150278 47.3239437,26.1505144 C47.3239437,15.5022229 40.056338,6.23115524 29.6788732,3.67825256 C29.5098592,3.64466173 29.3746479,3.44311678 29.4422535,3.27516266 C29.4760563,3.10720853 29.6788732,2.97284523 29.8478873,3.04002688 C40.5295775,5.69370205 48,15.1999055 48,26.1841052 C48,39.3181177 37.2507042,50 24,50 Z"/>
      <path fill="#4D5052" d="M21.3623292 4C21.1838972 4 21.0411516 3.84158416 21.0054651 3.64356436 20.9697787 3.44554455 21.1125244 3.24752475 21.3266428 3.20792079 23.4321405 2.93069307 25.5733246 2.93069307 27.6788224 3.20792079 27.8572544 3.24752475 28 3.44554455 28 3.64356436 28 3.84158416 27.7858816 4 27.6074496 4 25.5733246 3.72277228 23.4678269 3.72277228 21.433702 4 21.3980156 4 21.3980156 4 21.3623292 4zM25.6666667 50C25.4666667 50 25.3333333 49.86727 25.3333333 49.668175L25.3333333 28.6636501 22.6666667 28.6636501 22.6666667 49.668175C22.6666667 49.86727 22.5333333 50 22.3333333 50 22.1333333 50 22 49.86727 22 49.668175L22 28.331825C22 28.13273 22.1333333 28 22.3333333 28L25.6666667 28C25.8666667 28 26 28.13273 26 28.331825L26 49.668175C26 49.8340875 25.8666667 50 25.6666667 50z"/>
      <path fill="#4D5052" d="M25.3340523,50 C25.2358696,50 25.1704144,49.9662368 25.1049593,49.8987104 C25.0395041,49.8311839 25.0067766,49.7298943 25.0067766,49.6623679 C25.0067766,49.3922622 25.0067766,49.0883932 25.0067766,48.7507611 C24.974049,46.1847569 24.9085939,41.4241438 28.8359023,37.5751375 C30.6031911,35.8532136 32.6323004,34.7727908 34.4323168,33.8274208 C36.4941537,32.746998 38.2941701,31.801628 39.4069075,30.1472306 C39.4723626,30.0121777 39.6360004,29.9784145 39.7669107,30.0121777 C39.897821,30.0459409 39.9960037,30.1809938 39.9960037,30.3160466 C39.9960037,30.5861523 40.2250967,37.1699789 37.2141603,42.7746723 C33.352307,49.8987104 25.432235,50 25.3340523,50 Z M39.3414523,31.2951798 C38.1305322,32.6457083 36.4614261,33.5235519 34.7268649,34.4351587 C32.894121,35.4142918 30.9631943,36.393425 29.2940883,38.0815857 C25.5958728,41.6942495 25.661328,46.2860465 25.661328,48.7507611 C25.661328,48.9533404 25.661328,49.1559197 25.6612515,49.3247357 C27.1667962,49.2234461 33.4177621,48.4468922 36.625064,42.4708034 C38.9159939,38.2166385 39.2759972,33.3209726 39.3414523,31.2951798 Z"/>
      <path fill="#4D5052" d="M27.3506573,46 C27.283285,46 27.2495988,46 27.1822265,45.967293 C27.0137958,45.8691719 26.9464235,45.6729298 27.047482,45.5421017 C27.1148543,45.4112736 28.698103,42.5330558 32.1004036,40.0473222 C36.8838361,36.5476709 39.2755523,33.7021601 40.3535089,30.2352159 C40.4208812,30.0716808 40.5893119,29.9735597 40.7577427,30.0062667 C40.9261734,30.0716808 41.0272318,30.2352159 40.9935457,30.398751 C39.8819029,34.0292303 37.4228144,36.9401552 32.5046373,40.5379275 C29.2370813,42.92554 27.6875187,45.7710509 27.6538326,45.8037579 C27.5864603,45.934586 27.4517157,46 27.3506573,46 Z"/>
      <path fill="#4D5052" d="M27.1711182 46C27.1375008 46 27.1038834 46 27.070266 45.9632747 27.0030313 45.889824 26.9694139 45.779648 27.0366487 45.7061974 27.1038834 45.6327467 28.5158134 43.5394032 31.4069082 43.0986993 32.5835166 42.9150727 34.1971508 42.6579954 34.8694985 42.2172915 36.2478111 41.372609 36.6512197 40.123948 36.6848371 40.123948 36.7184544 40.013772 36.8193066 39.9770467 36.8865413 40.013772 36.9873935 40.0504973 37.0210109 40.1606733 36.9873935 40.2341239 36.9537761 40.3075746 36.5167501 41.6296863 35.0375854 42.5478194 34.298003 42.9885233 32.7179861 43.2823259 31.4405256 43.4659526 28.6839003 43.8699311 27.3055877 45.889824 27.3055877 45.9265493 27.2719703 45.9632747 27.2383529 46 27.1711182 46zM22.634311 50C22.5689077 50 14.6223994 49.9323594 10.7963029 42.7962745 7.75504664 37.1821035 7.9839584 30.5871435 8.01666008 30.3165811 8.01666008 30.1812998 8.11476512 30.0460186 8.24557184 30.0121983 8.37637856 29.978378 8.53988696 30.0121983 8.60529032 30.1474795 9.71714744 31.8046746 11.5157398 32.7516432 13.5759457 33.833893 15.3745381 34.7808617 17.4020422 35.8631115 19.167933 37.5879472 23.0594329 41.4096419 23.0267312 46.2121256 22.9940295 48.7824689 22.9940295 49.120672 22.9940295 49.4250548 22.9940295 49.6956172 22.9940295 49.7970782 22.9613278 49.8647188 22.8959245 49.9323594 22.7978194 49.9661797 22.7324161 50 22.634311 50zM8.637992 31.2635497C8.70339536 33.2927681 9.06311384 38.230533 11.3522314 42.4580714 14.5569961 48.4104456 20.803017 49.2221329 22.3072942 49.3235939 22.3072942 49.1544923 22.3072942 48.9515705 22.3072942 48.7486486 22.3399959 46.2797662 22.4053993 41.6802044 18.6774078 38.0614315 16.9769204 36.4042364 15.080223 35.3896272 13.2489289 34.4088383 11.5157398 33.4618697 9.84795416 32.616362 8.637992 31.2635497z"/>
      <path fill="#4D5052" d="M21.6497013,46 C21.5150945,46 21.4141395,45.934509 21.3468361,45.8362726 C21.3468361,45.8035271 19.7652064,42.9219248 16.5009919,40.5642502 C11.5878443,36.9622473 9.13127056,34.0151541 8.0207646,30.4131512 C7.95346121,30.2494238 8.0544163,30.0529509 8.25632647,30.0202054 C8.42458495,29.9547145 8.62649512,30.0529509 8.66014682,30.2494238 C9.70334938,33.7204447 12.0926198,36.5693016 16.9048122,40.073068 C20.3036335,42.528979 21.8852632,45.4433268 21.9525666,45.5743088 C22.0535217,45.7380362 21.9862183,45.934509 21.8179598,46 C21.7506564,46 21.7170047,46 21.6497013,46 Z"/>
      <path fill="#4D5052" d="M20.8288818,46 C20.7616471,46 20.7280297,45.9632747 20.6944123,45.9265493 C20.6944123,45.889824 19.2824823,43.8699311 16.5594744,43.4659526 C15.2820139,43.2823259 13.701997,42.9885233 12.9624146,42.5478194 C11.4496325,41.6296863 11.0126065,40.3075746 11.0126065,40.2341239 C10.9789891,40.123948 11.0126065,40.0504973 11.1134587,40.013772 C11.2143108,39.9770467 11.2815456,40.013772 11.3151629,40.123948 C11.3151629,40.123948 11.7185715,41.4093344 13.1305015,42.2172915 C13.8364665,42.6212701 15.4501008,42.9150727 16.5930918,43.0986993 C19.4841866,43.5394032 20.8961166,45.5960214 20.9633513,45.7061974 C21.0305861,45.779648 20.9969687,45.889824 20.929734,45.9632747 C20.8961166,46 20.8624992,46 20.8288818,46 Z"/>
      <g fill="#4D5052" transform="translate(18)">
        <path d="M11.5459459 12.8L8.88648649 12.8C8.69189189 12.8 8.56216216 12.6666667 8.56216216 12.4666667L8.56216216 1.93333333C8.56216216 1 9.30810811.233333333 10.2162162.233333333 11.1243243.233333333 11.8702703 1 11.8702703 1.93333333L11.8702703 12.4666667C11.8702703 12.6666667 11.7081081 12.8 11.5459459 12.8zM9.21081081 12.1333333L11.2216216 12.1333333 11.2216216 1.93333333C11.2216216 1.36666667 10.7675676.9 10.2162162.9 9.66486486.9 9.21081081 1.36666667 9.21081081 1.93333333L9.21081081 12.1333333zM3.11351351 12.8L.454054054 12.8C.259459459 12.8.12972973 12.6666667.12972973 12.4666667L.12972973 1.93333333C.12972973 1 .875675676.233333333 1.78378378.233333333 2.69189189.233333333 3.43783784 1 3.43783784 1.93333333L3.43783784 12.4666667C3.43783784 12.6666667 3.30810811 12.8 3.11351351 12.8zM.810810811 12.1333333L2.82162162 12.1333333 2.82162162 1.93333333C2.82162162 1.36666667 2.36756757.9 1.81621622.9 1.26486486.9.810810811 1.36666667.810810811 1.93333333L.810810811 12.1333333z"/>
      </g>
      <g transform="translate(14 12)">
        <path fill="#4D5052" d="M12.2,16.7057692 L6.8,16.7057692 C3.06666667,16.7057692 0.0666666667,13.7307692 0.0666666667,10.1019231 L0.0666666667,0.163461538 L19,0.163461538 L19,10.1019231 C18.9666667,13.7307692 15.9333333,16.7057692 12.2,16.7057692 Z"/>
        <path fill="#FFF" d="M12.4 15.5615385C12.3 15.5615385 12.2333333 15.4961538 12.2333333 15.3980769 12.2333333 15.3 12.3 15.2346154 12.4 15.2346154 15.2333333 15.2346154 17.5333333 12.9788462 17.5333333 10.2 17.5333333 10.1019231 17.6 10.0365385 17.7 10.0365385 17.8 10.0365385 17.8666667 10.1019231 17.8666667 10.2 17.8333333 13.1423077 15.4 15.5615385 12.4 15.5615385zM1.03333333 4.675C.933333333 4.675.866666667 4.60961538.866666667 4.51153846L.866666667 1.11153846C.866666667 1.01346154.933333333.948076923 1.03333333.948076923L4.53333333.948076923C4.63333333.948076923 4.7 1.01346154 4.7 1.11153846 4.7 1.20961538 4.63333333 1.275 4.53333333 1.275L1.2 1.275 1.2 4.47884615C1.2 4.57692308 1.13333333 4.675 1.03333333 4.675z"/>
      </g>
      <path fill="#B8FFEC" d="M27,45 C27,45 28.3144654,40.875 30.7358491,38.7401316 C33.1572327,36.6052632 35.336478,35.7730263 36.5125786,35.1578947 C37.6540881,34.5427632 38,34 38,34 C38,34 36.1320755,36.8947368 31.9465409,39.8618421 C29.1792453,41.8157895 27,45 27,45 Z"/>
      <polygon fill="#B8FFEC" points="23 29 24 29 24 48 23 48"/>
      <path fill="#C9C9C9" d="M19.4705882 2C19.1764706 2 19 2.13235294 19 2.26470588L19 11 20 11 20 2.26470588C19.9411765 2.13235294 19.7058824 2 19.4705882 2zM29.4705882 2C29.1764706 2 29 2.13235294 29 2.26470588L29 11 30 11 30 2.26470588C29.9411765 2.13235294 29.7647059 2 29.4705882 2z"/>
    </g>
  </g>
</svg>
