<svg xmlns="http://www.w3.org/2000/svg" width="64" height="64" viewBox="0 0 64 64">
  <g fill="none">
    <rect width="64" height="64" fill="#FFF" fill-opacity="0"/>
    <g transform="translate(2 11)">
      <circle cx="35" cy="25" r="24" fill="#FD6A5D"/>
      <path fill="#D1584D" d="M55.5591398,26.8947368 C55.5591398,26.8596491 55.5591398,26.8596491 55.5935484,26.8245614 C55.5935484,26.8245614 55.7311828,26.0175439 55.972043,24.7894737 C56.144086,23.9122807 56.7978495,19.5263158 51.3956989,17.9122807 C47.7483871,16.8245614 45.7870968,19.245614 45.1333333,20.2631579 C44.9956989,20.1929825 44.8236559,20.122807 44.6516129,20.122807 C44.0322581,20.0877193 43.4129032,20.6140351 43.1032258,21.0701754 C42.7935484,21.5614035 42.6215054,22.3333333 42.5182796,22.8596491 C40.8666667,22.0877193 39.9376344,21.8070175 39.5591398,22.3684211 C39.4903226,22.5087719 39.455914,22.6491228 39.4903226,22.8245614 C39.5935484,23.2807018 40.2817204,23.7368421 40.8322581,24.0877193 C40.3505376,24.0175439 39.8,23.9473684 39.3526882,23.8421053 C38.7333333,23.7368421 38.2172043,23.7017544 37.8731183,23.8421053 C36.8064516,23.5964912 29.683871,21.877193 25.6236559,21 C21.288172,20.0877193 15.5075269,18.6842105 15.4387097,18.6842105 C15.2666667,18.6491228 15.1290323,18.7192982 15.0602151,18.8947368 C15.0602151,18.9298246 14.9225806,19.2105263 14.716129,19.7368421 C14.6817204,19.7017544 14.6129032,19.7017544 14.5784946,19.6666667 C13.9935484,19.3859649 13.5806452,19.245614 13.1333333,18.2631579 C12.8236559,17.6315789 12.4795699,17.245614 12.1010753,17 C11.3784946,19.3157895 11,21.7719298 11,24.3333333 C11.172043,24.3684211 11.3096774,24.3684211 11.4817204,24.3684211 C12.2387097,24.3684211 12.7548387,24.1578947 13.0301075,24.0526316 L13.683871,24.2631579 C13.6494624,24.7192982 13.6494624,25 13.6494624,25.0350877 C13.6494624,25.2105263 13.7526882,25.3508772 13.9247312,25.3859649 C13.9591398,25.3859649 18.5354839,26.3684211 22.0451613,27.1754386 C25.7956989,28.0526316 32.0580645,29.4912281 34.6043011,31.4912281 C37.116129,33.4912281 36.8752688,36.122807 36.255914,39.3859649 C35.9806452,40.9649123 34.8451613,46.1578947 34.2258065,48.9649123 C34.5010753,48.9649123 34.8107527,49 35.1204301,49 C41.6236559,49 47.5419355,46.3684211 51.8774194,42.0877193 L52.5655914,39.2807018 C52.5655914,39.2807018 53.8731183,38.3333333 55.455914,37.6315789 C57.2795699,34.7192982 58.5182796,31.3859649 59,27.8070175 C58.0021505,27.4210526 56.7978495,27.1403509 55.5591398,26.8947368 Z"/>
      <path fill="#30E6B6" d="M11.3906197,23.5855907 C11.3906197,23.5855907 10.639847,23.4131959 11.2199896,21.3099797 C11.8001321,19.2067634 12.4826528,18 12.4826528,18 C12.4826528,18 18.7959691,19.5860319 21.4236738,19.9653004 C24.0172523,20.3445689 34.2209365,22.585701 34.2209365,22.585701 C34.2209365,22.585701 35.0399613,23.344238 34.7669531,23.4476749 C34.5280708,23.5166328 33.0947774,23.7579855 33.3677857,24.0682961 C33.6407939,24.3786067 34.8010791,24.8613121 34.8010791,24.8613121 C34.8010791,24.8613121 33.3336596,25.1371437 33.4019117,25.654328 C33.4701638,26.1715123 33.9479283,26.3094282 35.2788436,26.5852598 C36.6097589,26.8610915 38.725573,27.4472337 38.725573,27.4472337 C38.725573,27.4472337 37.3605317,27.8954601 36.678011,28.757434 C35.9954903,29.6194079 36.3026246,30.308987 36.7803891,30.0676343 C37.2922796,29.8607605 38.1795565,29.0677446 39.4422197,29.1022235 C40.704883,29.1367025 40.8072611,30.9296081 43.0937054,31.6191872 C45.3801497,32.3087664 47.2229555,30.308987 47.2229555,30.308987 L42.4794368,30.0676343 L44.1174864,24.3441277 C44.1174864,24.3441277 52.8537511,24.9647489 56.3687326,26.5507809 C59.8837141,28.1368128 60.2591005,29.0677446 59.8837141,30.5848186 C59.5083278,32.0674137 54.5600528,34.9291669 52.751373,35.618746 C50.9085672,36.2738462 49.1681394,37.5495675 49.1681394,37.5495675 L47.3253336,45.0315008 C47.3253336,45.0315008 44.5269988,46.8933643 40.2271185,48.1690857 C35.8931122,49.4103281 30.8083331,48.8931437 30.8083331,48.8931437 C30.8083331,48.8931437 33.5384158,36.7910305 33.743172,34.8257301 C34.1526845,31.033045 31.729736,29.2401393 29.4091657,28.3436865 C27.0885954,27.4472337 11.3906197,23.5855907 11.3906197,23.5855907 Z"/>
      <path fill="#B8FFEC" d="M35.3775179 33.9029536C35.2355766 35.6244726 34.8452378 38.628692 34.2774723 41.3966245 33.7097068 44.164557 33 47 33 47 33 47 35.3775179 45.649789 36.4775636 43.4219409 37.5776092 41.1940928 38.1453747 37.5147679 37.9679479 35.5907173 37.7905212 33.6329114 36.832417 32.4514768 36.1936808 31.8776371 35.5549447 31.3037975 34.9162085 31 34.9162085 31 34.9162085 31 35.483974 32.3164557 35.3775179 33.9029536zM45.747191 24L45 26C45 26 46.6910112 25.2345679 48.3820225 24.8888889 50.3089888 24.4938272 52 24.617284 52 24.617284 52 24.617284 47.3202247 24 45.747191 24zM40 46C41.0404624 44.4734043 41.7687861 43.3191489 42.7745665 42.0531915 44.300578 40.1170213 46 39 46 39 46 39 44.8554913 41.0851064 43.433526 42.9840426 41.9768786 44.8829787 40 46 40 46z"/>
      <g fill="#29C49B" transform="translate(34 26)">
        <path d="M4.7 1.34117647C3.86666667 1.2 1.26666667.776470588.866666667.741176471.366666667.670588235-.3 1.69411765.866666667 1.83529412 1.36666667 1.90588235 2.33333333 2.11764706 3.23333333 2.36470588 3.66666667 1.87058824 4.3 1.51764706 4.7 1.34117647zM.766666667.0352941176C.833333333.0705882353.9.105882353 1 .105882353 1.96666667.423529412 4.1 1.09411765 4.76666667 1.30588235 4.96666667 1.2 5.1 1.16470588 5.1 1.16470588 5.1 1.16470588 3.03333333.564705882 1.73333333.282352941 1.33333333.211764706 1.03333333.141176471.766666667.0352941176zM7.9 4.62352941C7 3.84705882 6.7 2.92941176 5.83333333 2.89411765 5.63333333 2.89411765 5.46666667 2.89411765 5.3 2.92941176 5.4 2.96470588 5.46666667 2.96470588 5.46666667 2.96470588 5.46666667 2.96470588 4.13333333 3.56470588 3.46666667 4.30588235 2.8 5.08235294 3.36666667 6.14117647 4.06666667 5.43529412 4.8 4.76470588 5.9 4.58823529 6.5 4.51764706 6.8 4.55294118 7.33333333 4.62352941 7.9 4.62352941z"/>
      </g>
      <path fill="#29C49B" d="M11.4059197 20C11.3044397 20.8655914 13.3340381 21.8817204 16.0401691 22.8602151 18.7463002 23.8387097 22.5010571 25.0053763 24.3276956 25.6451613 26.1205074 26.2849462 27 27 27 27 27 27 17.7991543 24.0645161 15.0591966 23.5752688 12.2854123 23.0483871 11 22.7096774 11 22.7096774L11.4059197 20zM41 48C42.1939725 47.2722802 44.933086 45.5396141 46.8996289 42.0049753 48.0233678 39.9950826 49.2524571 37.3960834 50.5166634 36.3564838 51.7808696 35.3168841 50.165495 36.8069769 50.165495 37.56935 50.165495 38.3317231 48.7608214 44.2574412 48.7608214 44.2574412L41 48z"/>
      <path fill="#29C49B" d="M51.5537272,29.9431642 C53.1733224,30.2460515 56.479996,30.0441267 57.492243,29.1354648 C58.5382316,28.2268029 57.0873442,25.9383211 54.1518279,25.19793 C51.2163115,24.4575388 59.6854449,25.8710128 60.7314335,28.1594946 C61.7774221,30.4816305 59.5842202,31.996067 57.3235352,33.0393454 C55.0291086,34.0826239 50.473997,36.8759178 50.473997,36.8759178 C50.473997,36.8759178 49.9678735,37.2461134 50.0016151,36.7076471 C50.0353567,36.1691808 51.7561766,34.6883985 54.0506032,33.409541 C56.3450298,32.1306836 56.4462545,31.5585631 54.7591761,30.9864427 C53.0720977,30.4143222 51.5537272,29.9431642 51.5537272,29.9431642 Z"/>
      <path fill="#29C49B" d="M46,33.4087433 C46.8813559,33.7250185 48.9491525,34.3927105 50.9491525,33.6898768 C52.9152542,32.9870431 54,30.9488255 54,30.9488255 L49.3898305,30 L46,33.4087433 Z"/>
      <path fill="#FFF" d="M40.0599878,30.8273616 C40.0599878,30.8273616 41.1848229,32.5114007 41.8795739,34.5895765 C42.6074084,36.7394137 42.1111576,40 42.1111576,40 C42.1111576,40 43.0374924,36.0944625 44.5924114,34.2312704 C45.4856628,33.1563518 46.9413317,32.0814332 46.9413317,32.0814332 C47.4706659,31.8664495 48,30.7915309 48,30.7915309 C48,30.7915309 45.7834133,32.1889251 44.3277444,32.0814332 C42.9051588,31.9739414 39.7953207,29 39.7953207,29 L39.0013195,29.1433225 C38.9682361,29.1791531 39.563737,30.0032573 40.0599878,30.8273616 Z"/>
      <path fill="#C9C9C9" d="M39.8427126 30.8867925C39.8427126 30.8867925 39.8690146 30.9245283 39.8953166 31L41 30.9622642C41 30.9622642 40.6843762 30.3584906 40.3424503 29.8301887 39.9216186 29.3396226 39.6322967 29 39.6322967 29L39.001049 29.1509434C38.974747 29.1509434 39.4481828 30.0188679 39.8427126 30.8867925zM49 30.641791C49 30.641791 46.8032787 32.0970149 45.3606557 31.9850746 44.1803279 31.8731343 41.9508197 29.7835821 41.1639344 29.0373134L41 29C41 29 42.3442623 31.6492537 43.852459 32.8059701 45.3606557 33.9626866 45.8196721 34 45.8196721 34 46.704918 32.9552239 47.9508197 31.9850746 47.9508197 31.9850746 47.9836066 31.9850746 48.0163934 31.9477612 48.0491803 31.9477612L48.4098361 31.6119403C48.7377049 31.2014925 49 30.641791 49 30.641791z"/>
      <path fill="#F2C2A0" d="M44.0342246,31.8779694 C44.9834539,32.1206897 45.9665842,32.0166667 46.8480114,31.4272031 C47.7294387,30.8377395 48.4752617,30.4563219 47.6277355,30.3522989 C46.7802093,30.2482759 42.9493911,30.0749042 42.8476879,30.1095786 C42.7459848,30.1095786 42.8476879,29.0346743 42.8476879,29.0346743 C42.8476879,29.0346743 41.5933492,29.3467433 40.9492293,29.1733716 C40.3051094,29 40,29 40,29 C40,29 41.423844,30.5950192 42.3391722,31.0457855 C43.2545005,31.4965518 44.0342246,31.8779694 44.0342246,31.8779694 Z"/>
      <path fill="#FDE4D2" d="M40.3471487,21.0707253 C40.7637271,19.8799583 41.0067312,18.6123676 42.0134625,19.1117215 C43.0201937,19.6110754 43.0201937,21.1859608 43.0201937,21.6084911 C43.0201937,22.0310213 43.0201937,23.5674949 43.0201937,23.5674949 C43.0201937,23.5674949 43.471487,23.4906712 44.9642265,21.9926095 C46.4569659,20.4945477 46.9429741,20.7250188 47.220693,21.37802 C47.498412,22.0310213 48.4357135,24.1436724 50.1020273,24.6046145 C51.8030559,25.0271447 52.9486466,24.1052606 52.9486466,24.1052606 C52.9486466,24.1052606 53.2957953,26.1794999 52.1849195,25.9874407 C51.0740436,25.7953815 47.2901228,24.8734974 46.1098172,24.8350855 C44.9295116,24.7966737 44.3046439,25.4880868 43.749206,24.71985 C43.1937681,23.9900251 40,22.0310213 40,22.0310213 L40.3471487,21.0707253 Z"/>
      <path fill="#F2C2A0" d="M41 21.1269322C41.0769231 20.4994148 41.4615385 19.7354805 41.8076923 20.0901643 42.1923077 20.4448481 42.4230769 20.7995318 42.2307692 20.9359487 42.0384615 21.0723655 43 20.9359487 43 20.9359487L42.8076923 22 41 21.1269322zM46 23.8461538C47.25 23.6923077 48.3214286 23 48.3214286 23 48.3214286 23 50 24.0769231 51.2142857 23.9615385 52.4285714 23.8461538 53 23.2307692 53 23.2307692L52.4642857 25 46 23.8461538z"/>
      <path fill="#1DAAF1" d="M42.3854575,19.6038274 C42.2785008,18.9781252 41.4941511,18.9155549 42.5280666,17.9770016 C43.5263298,17.0697334 45.5585084,15.1613416 48.8028639,16.4127461 C52.0472193,17.6641505 53.0098303,18.9781252 52.974178,20.1982445 C52.9385258,21.4183638 53.2950483,22.7010534 52.1541761,22.888764 C51.0133038,23.0764747 49.230691,23.1390449 48.1611232,22.1379214 C47.0915555,21.1680829 46.9845987,19.7915381 46.2359013,19.7915381 C45.4872039,19.7915381 44.667202,20.3233849 44.1680704,20.8865169 C43.6689388,21.4496489 42.8132846,22.4507725 42.8132846,22.4507725 L42.171544,22.0127809 C42.2071962,22.0127809 42.5280666,20.4798105 42.3854575,19.6038274 Z"/>
      <path fill="#1682B8" d="M47,19.9639159 C47.6633803,20.855797 49.0291633,21.7146454 50.4339686,21.2191559 C51.838774,20.7236664 51.7217068,19.3362959 51.214416,18.3783495 C50.7071252,17.3873706 48.9901409,16 48.9901409,16 C48.9901409,16 52.9314003,17.7837622 53.5167359,18.8408064 C54.1020714,19.8978506 54.4922952,22.5404612 52.6192214,22.9038202 C50.7461476,23.2671791 48.6389396,22.5074286 48.2487159,22.1771023 C47.8584922,21.8467759 47,19.9639159 47,19.9639159 Z"/>
      <path fill="#FDE4D2" d="M40.918755,21.498295 C38.9975081,20.6402543 36.8950114,19.6449271 36.568762,20.1254299 C36.3512623,20.4343245 37.148761,20.9834706 37.8737599,21.3610085 C38.5987587,21.7385464 39.2512577,22.1504059 39.2512577,22.1504059 C39.2512577,22.1504059 37.3662607,21.9444762 35.9887629,21.7385464 C34.6112651,21.5326166 34.4662654,21.772868 34.4300154,22.0131194 C34.3937655,22.1847276 34.3575155,22.4593006 34.9375146,22.6652303 C34.1400159,22.4593006 33.3425172,22.2190492 33.1250175,22.6652303 C33.0162677,22.9398034 33.0162677,23.3859845 33.8500164,23.6262359 C35.1187643,23.9694522 38.1637594,24.8274929 38.1637594,24.8274929 C38.1637594,24.8274929 34.2487657,24.2440252 33.7050166,24.2097036 C33.1612675,24.1410603 32.4362686,25.1363875 33.7050166,25.2736741 C34.9737645,25.4109606 38.7075085,26.3719661 38.7075085,26.3719661 C38.7075085,26.3719661 37.2575109,26.9554338 36.532512,27.676188 C35.8075132,28.4312638 36.4237622,29.4609126 37.185011,28.7744801 C37.9825097,28.1223692 39.1787578,27.950761 39.8312567,27.8821178 C40.4837557,27.8134745 42.5500023,28.2939773 42.9850016,27.2986501 C43.4200009,26.3376445 44,23.7978441 44,23.7978441 C44,23.7978441 42.8400019,22.3563357 40.918755,21.498295 Z"/>
      <path fill="#F2C2A0" d="M40,28.7239086 C40.928,28.6559299 41.952,28.3160362 42.272,27.5002912 C42.592,26.6845463 42.112,25.9707695 41.728,25.9027907 C41.344,25.834812 42.048,26.0387482 42.4,25.2569926 C42.752,24.4752371 42.08,23.2176303 41.728,23.0136941 C41.376,22.8097578 44,24.9510883 44,24.9510883 L43.264,28.485983 C43.264,28.485983 42.752,29.1657705 41.728,28.9618342 C40.704,28.7918874 40,28.7239086 40,28.7239086 Z"/>
      <path fill="#FDE4D2" d="M12,18.2276277 C11.2235343,17.8151459 10.6735378,17.7807724 10.1235412,16.5089535 C9.54119193,15.2027611 8.70002075,15.1683877 8.21472968,14.6184119 C7.72943861,14.0684362 6.72650374,13.4497135 6.40297636,13.1059786 C6.07944898,12.7622438 5.75592161,13.3122195 6.01474351,13.9309422 C6.27356541,14.5496649 7.43826397,15.6152429 7.43826397,15.6152429 C7.43826397,15.6152429 7.43826397,15.8214838 7.43826397,16.1308452 C7.43826397,16.1308452 2.97358616,15.409002 2.22947319,15.2715081 C1.48536022,15.1340142 1.388302,15.9933513 1.93829855,16.2339657 C2.48829509,16.47458 5.17357233,17.1276762 5.17357233,17.1276762 C5.17357233,17.1276762 2.29417866,16.7839414 1.58241843,16.7839414 C0.8706582,16.7839414 0.903010938,17.5057846 1.19418558,17.7463989 C1.48536022,17.9870133 5.07651411,18.605736 5.07651411,18.605736 C5.07651411,18.605736 2.19712045,18.0901338 1.97065129,18.3651217 C1.71182938,18.6401095 1.67947665,19.1900853 2.48829509,19.4650731 C2.5853533,19.4994466 2.71476425,19.5338201 2.84417521,19.5681936 C2.48829509,19.4650731 2.19712045,20.1869163 2.84417521,20.4962777 C3.49122996,20.805639 6.75885648,21.5962291 8.08531873,21.9055905 C9.41178098,22.2149519 10.2853049,21.6649761 10.2853049,21.6649761 L11.0294179,21.9055905 L12,18.2276277 Z"/>
      <path fill="#F2C2A0" d="M7 16.2568807C7.09059274 16.6238532 7.3019758 17.0642202 7.24158064 17.9449541 7.18118548 18.8256881 7.24158064 20 7.24158064 20 7.24158064 20 8.57027416 19.4495413 8.93264512 19.5963303 9.29501609 19.7431193 8.08711288 19.0091743 7.87572982 17.7614679 7.63414918 16.5137615 7.72474192 16 7.72474192 16L7 16.2568807zM10 16C10.3824907 17.269075 10.5464153 18.3931129 10.7376606 18.8644836 10.9289059 19.3721136 10.6283775 21.2938558 10.3824907 21.4751523 10.1366038 21.6564487 11.1747928 22.0915601 11.2021136 21.9827823 11.2294343 21.8377451 12.076378 18.0667793 11.9944157 18.1030386 11.8851326 18.1392979 10.8469436 17.8492236 10.6283775 17.1965565 10.3551699 16.50763 10 16 10 16z"/>
      <path fill="#4D5052" d="M34.3643073 49C20.9467803 49 10 37.8210263 10 24.1188986 10 23.1727159 10.0343159 22.2265332 10.1372637 21.3153942 10.1715796 21.1401752 10.3431593 21 10.5147389 21 10.6863185 21.0350438 10.8235822 21.2102628 10.8235822 21.3854819 10.7206344 22.2966208 10.6863185 23.2077597 10.6863185 24.1188986 10.6863185 37.4355444 21.3242555 48.2991239 34.3643073 48.2991239 44.0757143 48.2991239 52.6890116 42.3767209 56.3264998 33.1952441 56.3951316 33.020025 56.6010272 32.9148936 56.7726068 32.9849812 56.9441864 33.0550688 57.0471342 33.2653317 56.9785024 33.4405507 53.2037505 42.902378 44.3159258 49 34.3643073 49zM58.5521075 27C58.5521075 27 58.5176543 27 58.5521075 27 58.345388 26.9653846 58.2075749 26.8269231 58.2075749 26.6192308 58.2764814 25.9269231 58.3109347 25.2346154 58.3109347 24.5769231 58.3109347 11.4230769 47.6304224.692307692 34.5381816.692307692 23.9610291.692307692 14.5552876 7.82307692 11.6612133 18 11.5923068 18.1730769 11.4200405 18.2769231 11.2477742 18.2423077 11.0755078 18.1730769 10.972148 18 11.0066013 17.8269231 13.9695821 7.33846154 23.6509497 0 34.5381816 0 48.0094083 0 59 11.0423077 59 24.5769231 59 25.2692308 58.9655467 25.9961538 58.8966402 26.6884615 58.8621869 26.8615385 58.7243739 27 58.5521075 27z"/>
      <path fill="#4D5052" d="M36.8047732,30 C36.6011347,30 36.3974962,29.8936697 36.2617372,29.7518959 C35.9223397,29.3620181 35.8544602,28.6177058 36.3974962,28.0151673 C36.7708335,27.6252895 37.2799297,27.2708551 37.7211464,26.9873076 C36.6011347,26.70376 34.7344485,26.2075519 33.9538343,26.1012216 C33.1732201,25.9948912 32.9695816,25.56957 33.0035213,25.1796921 C33.0714008,24.6834839 33.580497,24.2581627 34.0217138,24.2936061 C34.53081,24.364493 38.0605439,24.931588 38.2302427,24.931588 C38.3999414,24.9670315 38.5357004,25.1442487 38.5017607,25.3214659 C38.4678209,25.4986831 38.2981222,25.6404568 38.1284234,25.6050134 C38.0944837,25.6050134 34.4629305,25.0024749 33.9538343,24.9670315 C33.9198945,24.9670315 33.8180753,25.0024749 33.7501958,25.1088052 C33.6823163,25.1796921 33.6823163,25.250579 33.6823163,25.250579 C33.6823163,25.250579 33.7841355,25.3569093 34.0556535,25.3923528 C35.2435448,25.56957 38.6375197,26.4910994 38.8072184,26.5265428 C38.9429774,26.5619863 39.0447966,26.70376 39.0447966,26.8455338 C39.0447966,26.9873076 38.9769171,27.1290813 38.8411581,27.1999682 C38.8411581,27.1999682 37.5514477,27.7670633 36.9065925,28.4759321 C36.6350745,28.794923 36.6690142,29.113914 36.7708335,29.2202443 C36.838713,29.2911312 37.0084117,29.1493574 37.0762912,29.113914 C37.6872067,28.5468189 38.5357004,28.227828 39.7575314,28.1214977 C39.9272301,28.1214977 40.1648084,28.1214977 40.4363264,28.1569411 C41.1490611,28.1923845 42.2011933,28.2987149 42.4048318,27.7670633 C42.7442293,26.9518641 43.185446,24.9670315 43.321205,24.3999364 C43.0157473,24.0100586 42.0314946,22.9113119 40.6060251,22.2024431 L40.1308686,21.9897825 C39.1126761,21.4935743 37.5853874,20.7492621 37.0423515,20.7138186 C37.1781104,20.8555924 37.4835682,21.1391399 38.0266042,21.4581309 C38.7053992,21.8480087 39.3163146,22.27333 39.3502544,22.3087734 C39.4860134,22.4151038 39.5199531,22.5568775 39.4860134,22.7340947 C39.4181339,22.8758685 39.2823749,22.9821988 39.1466159,22.9467554 C39.1126761,22.9467554 37.3478092,22.7340947 36.0580987,22.4859906 C35.1756653,22.3087734 35.0059665,22.4505472 34.9720268,22.4505472 C34.9720268,22.4505472 34.9720268,22.4505472 34.9720268,22.4859906 C34.9720268,22.5568775 34.9720268,22.5568775 34.9720268,22.5568775 C34.9720268,22.592321 35.1077858,22.7340947 35.6508217,22.8758685 C36.6350745,23.1239726 38.5696402,23.5492939 38.5696402,23.5492939 L38.4338812,24.2581627 C38.4338812,24.2581627 36.4993155,23.7973979 35.5150627,23.5847373 C34.938087,23.4429635 34.5647498,23.2303029 34.395051,22.9467554 C34.2253523,22.6632078 34.2932318,22.4151038 34.3271715,22.3087734 C34.4968703,21.5999046 35.1756653,21.5999046 36.1938577,21.7771218 C36.6350745,21.8480087 37.1781104,21.954339 37.6532669,22.0252259 C37.1102309,21.706235 36.431436,21.2454702 36.3296167,20.7492621 C36.295677,20.5720449 36.295677,20.4302711 36.3974962,20.2884973 C36.8047732,19.615072 38.0605439,20.182167 40.4363264,21.3518006 L40.8775431,21.5644612 C42.7442293,22.4859906 43.8981808,24.0100586 43.9321205,24.0809455 C44,24.1518323 44,24.2581627 44,24.364493 C43.9660603,24.4708233 43.4230243,26.9873076 43.0157473,28.0151673 C42.6084703,29.0075837 41.2848201,28.9012533 40.3684469,28.8303665 C40.1308686,28.8303665 39.8932904,28.794923 39.7914711,28.794923 C38.7393389,28.9012533 37.9926644,29.1493574 37.4835682,29.6101222 C37.2459899,29.9291131 37.0084117,30 36.8047732,30 Z"/>
      <path fill="#4D5052" d="M37.804425 26C37.804425 26 35.0337799 25.1596639 33.9255218 24.8235294 33.5017761 24.6890756 33.2084137 24.487395 33.0780304 24.1848739 32.9802429 23.9495798 32.9802429 23.6806723 33.0454346 23.4453782 33.3062012 22.7731092 34.1210968 23.0084034 34.8708008 23.210084L35.0663757 23.2773109C35.2293549 23.3109244 35.3597382 23.512605 35.2945465 23.6806723 35.2619507 23.8487395 35.0663757 23.9831933 34.9033966 23.9159664L34.7078217 23.8487395C34.4144592 23.7478992 33.7625427 23.5798319 33.6647552 23.6806723 33.6321594 23.7478992 33.6321594 23.8151261 33.6647552 23.8823529 33.7299469 23.9831933 33.892926 24.0840336 34.1210968 24.1848739 35.2619507 24.5210084 38 25.3613445 38 25.3613445L37.804425 26zM42.8927713 27C42.8172604 27 42.7669199 26.9221935 42.7669199 26.8054838 42.7417496 26.3775482 42.6410684 26.0663222 42.4648764 25.8329028 41.9866409 25.2493542 41.1560213 25.4049672 41.1560213 25.4049672 41.0805104 25.4049672 41.0301699 25.3271607 41.0049996 25.2493542 40.9798293 25.1715477 41.0553401 25.054838 41.1056807 25.0159348 41.1560213 25.0159348 42.0369815 24.8603218 42.5907278 25.5216769 42.8424307 25.8329028 42.9682822 26.2219352 42.9934525 26.7665806 43.0186228 26.8832903 42.9682822 27 42.8927713 27 42.8927713 27 42.8927713 27 42.8927713 27zM48.4170067 45C48.3828073 45 48.3828073 45 48.3486078 45 48.1776105 44.965353 48.0408126 44.792118 48.0750121 44.584236L49.5113896 37.6548362C49.5455891 37.5508952 49.5797886 37.4816012 49.682387 37.4123072 49.7165864 37.4123072 52.3841448 35.8878392 55.8040913 34.1208422 59.2582374 32.3538453 60.5236176 31.1412003 60.3184208 29.8592613 60.1474235 28.7852044 59.6344315 28.0922644 57.1378705 27.0182074 55.0175036 26.1173854 52.178948 25.6669744 49.4771902 25.2512104L48.2118099 25.0433284C45.7836479 24.6622115 44.8260628 24.5236235 44.689265 25.0779754 44.6550655 25.2512104 44.4840682 25.3897984 44.2788714 25.3551514 44.107874 25.3205044 43.9710762 25.1472694 44.0052757 24.9393875 44.2446719 23.6920955 45.5100521 23.8999775 48.2802089 24.3503885L49.5455891 24.5582705C52.3157458 24.9740345 55.1885009 25.4244454 57.3772667 26.3599144 59.8396283 27.3993244 60.7288144 28.2308524 60.9682106 29.7206733 61.2760058 31.6262583 59.3266363 33.0467853 56.077687 34.7098412 53.1023335 36.2343092 50.7083709 37.5855422 50.12698 37.9320122L48.7248019 44.688177C48.7248019 44.896059 48.5880041 45 48.4170067 45z"/>
      <path fill="#4D5052" d="M55.6323662,32 C55.5617321,32 55.5264151,32 55.4557811,31.966486 C55.4557811,31.966486 54.0784177,31.2626931 51.1471058,30.659442 C48.1804769,30.0561909 42.3884871,29.8215932 42.3531701,29.8215932 C42.2472191,29.8215932 42.141268,29.7545653 42.070634,29.6875374 C42,29.6205095 42,29.5199676 42,29.4194258 C42,29.4194258 42.2119021,28.5480631 42.6003892,27.241019 C42.6357062,27.0734492 42.8476083,26.9729074 43.0241933,27.0064213 C43.2007784,27.0399353 43.3067294,27.241019 43.2714124,27.4085887 C43.0595103,28.1794096 42.8829253,28.8161747 42.7769742,29.1848281 C44.1896547,29.251856 48.674915,29.4864537 51.2883738,30.0226769 C54.3609538,30.659442 55.7383172,31.3632349 55.8089512,31.3967489 C55.9855363,31.4972907 56.0561703,31.6983744 55.9502193,31.8659442 C55.8795852,31.9329721 55.7736342,32 55.6323662,32 Z"/>
      <path fill="#4D5052" d="M44.6984707 31C44.4804452 31 44.2312732 30.9728793 43.9821011 30.9457585 41.988725 30.5660684 41.0854764 29.4541185 41.0543299 29.4269978 40.9608904 29.2913941 40.9920369 29.1286698 41.1166229 29.0473076 41.2723554 28.9659454 41.4592344 28.9930661 41.5526739 29.101549 41.5526739 29.101549 42.362483 30.0778952 44.1066872 30.403344 45.8197448 30.7287927 47.4705095 29.3727563 47.4705095 29.3727563 47.5950955 29.2642734 47.7819745 29.2642734 47.9065605 29.3727563 48.0311465 29.4812392 48.0311465 29.6439636 47.9065605 29.7524465 47.875414 29.806688 46.4426749 31 44.6984707 31zM40.2941176 21C40.2941176 21 40.2647059 21 40.2647059 21 40.1176471 20.9708881 40 20.8253285 40 20.6797689 40 20.5342093 40.1470588 19.3697325 40.5588235 18.787494 40.8235294 18.3799272 41.3529412 17.9723603 41.8823529 18.0014722 42.1764706 18.0014722 42.4411765 18.1761437 42.5882353 18.438151 42.9705882 19.1077252 43 20.4177616 43 20.5924331 43 20.7671046 42.8823529 20.8835523 42.7058824 20.8835523 42.5294118 20.8835523 42.4117647 20.7671046 42.4117647 20.5924331 42.4117647 20.2139781 42.3235294 19.1950609 42.0588235 18.7292702 41.9705882 18.5837106 41.8823529 18.5837106 41.8235294 18.5837106 41.5882353 18.5837106 41.2352941 18.816606 41.0294118 19.1077252 40.7647059 19.5152921 40.6176471 20.4177616 40.5882353 20.7379927 40.5588235 20.9126642 40.4411765 21 40.2941176 21z"/>
      <path fill="#4D5052" d="M41.8056243 22C41.6687441 22 41.5774907 21.9240365 41.5774907 21.8100912 41.5774907 20.7086202 41.0755968 20.3288026 41.0755968 20.3288026 40.9843434 20.252839 40.9843434 20.1388938 41.0299701 20.0629302 41.1212235 19.9869667 41.2581037 19.9869667 41.3493571 20.0249485 41.3949838 20.0629302 41.9881311 20.4807296 41.9881311 21.7721094 42.0337579 21.8860547 41.9425044 22 41.8056243 22 41.8056243 22 41.8056243 22 41.8056243 22zM52.1812772 25C52.1475382 25 52.1475382 25 52.1137993 25 51.9451046 24.9664983 51.8101489 24.7989898 51.8438878 24.6314813 51.8438878 24.6314813 51.9788436 23.8274405 52.2150161 22.654881 52.8897948 19.4387178 50.5955472 17.5626227 48.2000828 16.8925887 44.3201053 15.7870326 42.7006364 19.0366974 42.6331586 19.1707042 42.5656807 19.3382127 42.3632471 19.4052161 42.1945524 19.3382127 42.0258578 19.2712093 41.9583799 19.0701991 42.0258578 18.9026906 42.0595967 18.8691889 43.948977 14.9829918 48.4025165 16.2560564 53.6657903 17.7636329 53.0584895 21.984847 52.8897948 22.8223895 52.6536223 23.9614473 52.5186665 24.7654881 52.5186665 24.7654881 52.4849276 24.8994949 52.3499718 25 52.1812772 25z"/>
      <path fill="#4D5052" d="M50.4313397 24C50.0975822 24 49.6970732 23.9278985 49.1964369 23.8197462 47.8947826 23.4592386 47.0270131 22.5940204 46.5263768 21.1880407 46.3594981 20.6833301 46.1592436 20.4309748 45.9589891 20.3588732 45.7253588 20.2867717 45.4249771 20.4309748 45.0244681 20.7554316 44.089947 21.5485483 43.288929 22.5219188 43.288929 22.5579696 43.2221775 22.6300711 43.1220503 22.6300711 43.0552988 22.5940204 42.9885473 22.5219188 42.9885473 22.4137666 43.021923 22.341665 43.0552988 22.3056143 43.822941 21.3322438 44.7908378 20.5030763 45.2914741 20.0704672 45.6919831 19.9262641 46.0257406 20.0344164 46.3594981 20.1425687 46.5931284 20.4670255 46.8267586 21.0798884 47.2940191 22.3777158 48.0950371 23.1708325 49.2631884 23.4952894 50.66497 23.8918477 51.2657335 23.5673909 51.8331212 23.2789848L51.9332485 23.4231878 52 23.6034416C51.599491 23.7476447 51.1656062 24 50.4313397 24zM30.9631042 49C30.9296102 49 30.9296102 49 30.8961162 49 30.7286462 48.96545 30.5946702 48.75815 30.6281642 48.5854 30.6616582 48.4817499 32.6043099 39.5332989 32.9727438 37.3911987 33.5756357 34.1780483 33.8100937 31.586798 31.3650321 29.6174478 28.8864765 27.6480975 22.7905695 26.1969974 19.1397242 25.3677973 15.7568307 24.5731472 11.3356235 23.6057471 11.2686355 23.5711971 11.1011655 23.5366471 11.0006836 23.398447 11.0006836 23.225697 11.0006836 23.156597 10.9671896 21.7400468 11.3691175 20.2543967 11.8380334 18.3886965 12.3404433 17.2485463 12.3739373 17.2139963 12.4409253 17.0757963 12.6083953 16.9721463 12.7423713 17.0066963 12.8093592 17.0066963 18.4363503 18.3886965 22.6900876 19.3215466 26.9438248 20.2543967 34.6809375 22.1200969 34.7479255 22.1546469 34.9153955 22.1891969 35.0493715 22.3964969 34.9823835 22.5692469 34.9488895 22.741997 34.7479255 22.880197 34.5804555 22.811097 34.5134676 22.776547 26.7763549 20.9108468 22.5226176 19.9779966 18.8047842 19.1487965 14.015143 18.0086464 12.8093592 17.6976964 12.6418893 18.1122964 12.2734553 19.0796965 11.9385154 20.3925967 11.6705634 21.3945468 11.6035754 22.4310469 11.6035754 22.880197 12.6083953 23.087497 16.3262286 23.9166971 19.2402062 24.6076972 22.9245455 25.4714473 29.1209345 26.9225474 31.733466 28.9955477 34.4799736 31.2067479 34.2120216 34.1434983 33.5756357 37.4602987 33.1737078 39.6023989 31.2310561 48.5854 31.2310561 48.68905 31.2645501 48.89635 31.1305741 49 30.9631042 49z"/>
      <path fill="#4D5052" d="M10.0819605,20 C10.0146985,20 9.98106755,20 9.91380558,19.966204 C9.8801746,19.932408 8.97213807,19.4592637 8.23225646,18.5129753 C7.62689878,17.7018709 7.55963681,16.5190103 7.55963681,16.079662 C7.22332699,15.7754979 6.34892144,14.9643935 6.11350457,14.3898612 C5.91171867,13.8829209 5.97898064,13.3421847 6.31529046,13.1056126 C6.55070734,12.9366325 6.85338618,12.9704285 7.05517207,13.2070006 C7.189696,13.3421847 7.42511288,13.5111648 7.72779172,13.7139409 C8.1649945,14.018105 8.63582825,14.3560652 8.97213807,14.6940253 C9.106662,14.8630054 9.3084479,14.9643935 9.51023379,15.0995775 C9.98106755,15.3699457 10.5527942,15.7079059 10.989997,16.6541943 C11.4271998,17.6004828 11.8307716,17.7694629 12.4024983,18.006035 C12.5370222,18.073627 12.6715461,18.1074231 12.8060701,18.1750151 C12.974225,18.2426071 13.041487,18.4453832 12.974225,18.6143633 C12.906963,18.7833434 12.7051771,18.8509354 12.5370222,18.7833434 C12.4024983,18.7157514 12.2679744,18.6481593 12.1670814,18.6143633 C11.5617237,18.3439952 10.956366,18.1074231 10.4182703,16.9245625 C10.0819605,16.1810501 9.61112674,15.910682 9.20755495,15.6741098 C8.97213807,15.5389258 8.70309021,15.3699457 8.50130432,15.1671696 C8.23225646,14.8630054 7.76142271,14.5588413 7.35785092,14.2884731 C7.08880306,14.085697 6.85338618,13.916717 6.68523127,13.7815329 C6.68523127,13.8829209 6.68523127,13.984309 6.75249323,14.1532891 C6.92064814,14.5250453 7.69416074,15.3023537 8.13136351,15.7079059 C8.19862548,15.7754979 8.26588744,15.8768859 8.23225646,15.978274 C8.23225646,15.978274 8.1649945,17.3639107 8.7367212,18.1412191 C9.34207888,18.9523235 10.1828534,19.3916717 10.1828534,19.3916717 C10.3510084,19.4930597 10.4182703,19.6958358 10.3173774,19.8310199 C10.3173774,19.932408 10.2164844,20 10.0819605,20 Z"/>
      <path fill="#4D5052" d="M4.87673748,21 C4.87673748,21 4.8435615,21 4.8435615,21 C4.74403357,21 2.58759507,20.6934593 1.75819564,20.3486011 C1.0946761,20.080378 0.895620243,19.6972022 0.829268289,19.3906615 C0.762916335,19.1224384 0.829268289,18.8542153 0.961972196,18.6243098 C0.630212427,18.5476747 0.397980588,18.4327219 0.331628634,18.3944043 C0.0662208189,18.1644988 -0.0664830888,17.7046878 0.033044842,17.321512 C0.132572773,16.9000186 0.497508519,16.6701131 0.928796219,16.6701131 C0.928796219,16.6701131 0.961972196,16.6701131 0.995148173,16.6701131 C0.696564381,16.4402076 0.530684496,16.0187142 0.630212427,15.6355383 C0.729740358,15.2523625 1.06150013,14.9075042 1.65866771,15.022457 C2.45489116,15.1757273 7,15.9803966 7,15.9803966 L6.90047207,16.7467482 C6.90047207,16.7467482 2.32218725,15.942079 1.55913978,15.7888087 C1.3932599,15.7504911 1.29373197,15.7888087 1.29373197,15.8654438 C1.29373197,15.942079 1.32690794,16.0570317 1.45961185,16.1336669 C1.92407553,16.3635724 3.9809861,16.9000186 4.71085759,17.0916065 C4.87673748,17.1299241 5.00944138,17.321512 4.97626541,17.5130999 C4.94308943,17.7046878 4.77720954,17.8579582 4.61132966,17.8196406 C4.57815368,17.8196406 1.65866771,17.4364647 0.961972196,17.4364647 C0.862444266,17.4364647 0.729740358,17.4747823 0.696564381,17.5514175 C0.663388404,17.6280527 0.696564381,17.7430054 0.729740358,17.781323 C0.961972196,17.8962757 2.85300288,18.3177692 4.57815368,18.6626274 C4.57815368,18.6626274 4.57815368,18.6626274 4.57815368,18.6626274 C4.74403357,18.700945 4.87673748,18.8925329 4.8435615,19.0841208 C4.81038552,19.2757087 4.64450564,19.4289791 4.47862575,19.3906615 C4.47862575,19.3906615 4.47862575,19.3906615 4.47862575,19.3906615 C4.47862575,19.3906615 4.47862575,19.3906615 4.47862575,19.3906615 C3.31746656,19.160756 1.89089955,18.9691681 1.55913978,19.0458032 C1.5259638,19.0841208 1.5259638,19.160756 1.5259638,19.1990736 C1.55913978,19.3523439 1.72501967,19.5056142 1.99042748,19.620567 C2.78665093,19.9271077 4.90991345,20.2336483 4.94308943,20.2336483 C5.10896931,20.2719659 5.24167322,20.4635538 5.24167322,20.6551417 C5.17532127,20.8467297 5.04261736,21 4.87673748,21 Z"/>
      <path fill="#4D5052" d="M9.32862842 23C9.04813855 23 8.73258744 22.9673113 8.3819751 22.901934 8.34691387 22.901934 3.50846358 21.9212739 2.63193273 21.5290099 2.03589175 21.3001893 1.93070805 20.8098592 2.03589175 20.4502839 2.17613668 20.1233972 2.52674902 19.9272652 2.84230013 20.0253312 3.0176063 20.0907085 3.12279 20.2541519 3.08772877 20.4175952 3.05266753 20.5810386 2.87736136 20.6791046 2.70205519 20.6464159 2.70205519 20.6464159 2.70205519 20.6791046 2.70205519 20.7117932 2.70205519 20.7771706 2.77217766 20.8425479 2.9124226 20.9079252 3.50846358 21.1694346 6.69903587 21.8558966 8.52222004 22.215472 9.78442447 22.4769813 10.6258941 22.01934 10.6609553 22.01934 10.7310778 21.9866513 10.8362615 21.9539626 10.9414452 21.9866513L11.7478536 22.215472C11.9231597 22.2808493 12.0283434 22.4442926 11.9932822 22.6404246 11.9231597 22.803868 11.7478536 22.901934 11.5374862 22.8692453L10.8713227 22.6731133C10.6609553 22.803868 10.0999756 23 9.32862842 23zM7.31861521 20C7.18812087 20 7.05762653 19.9254661 7.02500294 19.7763983 6.95975577 19.5900635 7.02500294 19.3664618 7.18812087 19.2919278 7.25336804 19.2546609 8.42781714 18.7329235 9.76538416 19.180127 9.92850209 19.2546609 10.0263729 19.4409957 9.99374927 19.6273304 9.92850209 19.8136652 9.76538416 19.9254661 9.60226623 19.8881991 8.49306431 19.5155296 7.44910956 19.962733 7.44910956 20 7.38386239 20 7.3512388 20 7.31861521 20zM39.2709037 24C39.1092564 24 39.0014916 23.9506722 39.0014916 23.8766805 39.0014916 23.8520166 38.8937267 23.1860912 40.5101996 22.0515517 40.6179644 22.0022239 40.7796117 21.97756 40.8873766 22.0268878 40.9951414 22.0762156 41.0490239 22.1502074 40.941259 22.1995352 39.432551 23.2600829 39.4864334 23.8766805 39.4864334 23.8766805 39.5403158 23.9260083 39.432551 24 39.2709037 24 39.2709037 24 39.2709037 24 39.2709037 24zM48 44L49.6134454 36.630363 56 33C56 33 54.6890756 36.8118812 52.2352941 39.7524752 50.2184874 42.1848185 48 44 48 44z"/>
      <g fill="#4D5052" transform="translate(19 21)">
        <path d="M0.137931034,22.19 C0.137931034,22.19 0.551724138,22.54 4.20689655,25.025 C7.86206897,27.51 12.7931034,27.825 12.7931034,27.825 L15.7586207,13.545 L0.137931034,22.19 Z"/>
        <polygon points="34.069 3.885 39.793 5.6 39.897 .315"/>
      </g>
      <path fill="#4D5052" d="M50,8.86340206 L49.3214286,6.92010309 L44.2857143,9.16494845 L43.4285714,5.61340206 L47.6428571,4.34020619 C46.8571429,3.83762887 46.0357143,3.3685567 45.3928571,3 L41,4.40721649 L43.6785714,16 C44.1071429,15.7319588 44.7857143,15.4304124 45.7142857,15.3298969 L44.7142857,11.1752577 L50,8.86340206 Z"/>
      <g fill="#4D5052" transform="translate(35 7)">
        <path d="M4.725 14.896C4.445 13.4773333 4.025 11.0791111 3.57 8.47822222 5.18 7.904 7.28 6.41777778 6.825 3.74933333 6.58 2.36444444 5.95 1.35111111 4.935.709333333 4.865.641777778 4.76.608 4.69.574222222 3.745.0675555556 2.59-8.32667268e-16 1.575.304L.105.743111111.21 1.31733333C1.4 8.14044444 2.065 11.9573333 2.45 14.1191111 2.94 14.0515556 3.92 14.4906667 4.725 14.896zM3.78 2.36444444C4.305 2.70222222 4.62 3.24266667 4.76 4.05333333 4.97 5.37066667 4.025 6.04622222 3.22 6.41777778 2.975 5.03288889 3.15 6.04622222 2.52 2.33066667 2.905 2.19555556 3.36 2.128 3.78 2.36444444zM2.59 14.8284444C2.59 14.9084444 2.63375 14.9884444 2.63375 15.0684444 2.63375 15.0284444 2.63375 14.9484444 2.59 14.8284444z"/>
      </g>
      <g fill="#4D5052" transform="translate(17 10)">
        <path d="M5.86666667 9.58846154L9.73333333 10.4884615 8 .103846154 6.06666667.726923077 7.43333333 8.96538462C6.93333333 9.13846154 6.4 9.38076923 5.86666667 9.58846154zM3.2 8.96538462C2.73333333 5.71153846 2.36666667 3.04615385 2.2 1.93846154L.266666667 2.56153846C.4 3.49615385.633333333 5.22692308 1.1 8.48076923L3.2 8.96538462zM9.36666667 16.7192308C9.26666667 16.6846154 9.03333333 16.6153846 8.73333333 16.5461538L9.86666667 23.4 11.8333333 23.0538462 10.8666667 17.2730769C10.3666667 17.0653846 9.76666667 16.8576923 9.36666667 16.7192308zM2 14.85C2.46666667 18.0346154 3.03333333 21.9461538 3.73333333 26.8269231L5.7 26.5153846C5.33333333 23.8846154 4.7 19.6269231 4.1 15.3692308 3.36666667 15.1961538 2.66666667 15.0230769 2 14.85z"/>
      </g>
      <g fill="#4D5052" transform="translate(27 7)">
        <path d="M3.62727273,20.6535211 L3.43636364,23.6619718 L5.34545455,23.7971831 L5.44090909,22.1070423 C5.02727273,21.6338028 4.42272727,21.1267606 3.62727273,20.6535211 Z"/>
        <polygon points="4.041 13.893 5.95 14.332 6.809 .068 4.868 .71 4.582 5.476 1.941 1.656 .032 2.299 4.391 8.62"/>
      </g>
      <path fill="#4D5052" d="M43.1204073 39C43.1204073 39 43.0883238 39 43.0883238 39 42.9920731 38.9663035 42.9599896 38.8989105 42.9599896 38.7978211 42.9599896 38.7641246 43.4412428 35.7314409 42.7674883 33.7770448 42.1258172 31.8900416 41.0349765 30.3063068 41.0349765 30.2726103 40.9708094 30.2052173 41.002893 30.1041279 41.0670601 30.0367349 41.1312272 29.9693419 41.2274778 30.0030384 41.2916449 30.0704314 41.2916449 30.0704314 42.3824857 31.6878627 43.0562402 33.6422588 43.4412428 34.7542428 43.4733264 36.1357987 43.4412428 37.2140863 43.858329 36.0010128 44.5320836 34.3161885 45.430423 33.2715975 46.3287624 32.2270064 47.6762715 31.2835049 47.7404386 31.2498084 47.8046057 31.1824154 47.9008564 31.2161119 47.9650235 31.2835049 48.0291906 31.3508978 47.997107 31.4519873 47.9329399 31.5193803 47.9329399 31.5193803 46.5533472 32.4965783 45.6870914 33.5074729 44.211248 35.1922972 43.3129086 38.8315176 43.3129086 38.8652141 43.2487415 38.9663035 43.1845744 39 43.1204073 39zM38.2628164 42C38.2628164 42 38.2102531 42 38.2102531 42 38.0525633 41.9659091 38 41.8977273 38 41.7954545 38 41.7613636 38.7884491 39.3068182 39.156392 36.9886364 39.5243348 34.6704545 39.4717716 30.2045455 39.4717716 30.1704545 39.4717716 30.0681818 39.5768981 30 39.7345879 30 39.7345879 30 39.7345879 30 39.7345879 30 39.8922777 30 39.9974043 30.0681818 39.9974043 30.1704545 39.9974043 30.2045455 40.0499676 34.7045455 39.6820247 37.0227273 39.3140818 39.3409091 38.5256327 41.8295455 38.5256327 41.8636364 38.4730694 41.9318182 38.3679429 42 38.2628164 42zM46.1928375 43C46.1928375 43 46.1487603 43 46.1487603 43 46.0165289 42.9649123 45.9724518 42.8596491 46.0165289 42.7894737 46.0165289 42.754386 47.4269972 39.0350877 47.5592287 33.1754386 47.5592287 33.0701754 47.6473829 33 47.7796143 33 47.9118457 33 48 33.0701754 48 33.1754386 47.9118457 39.0701754 46.4573003 42.8596491 46.4573003 42.8947368 46.369146 42.9649123 46.2809917 43 46.1928375 43zM51.414966 18L54 16.8387097 53.3197279 15 49 16.9354839C49.7142857 17.0967742 50.6326531 17.3870968 51.414966 18z"/>
    </g>
  </g>
</svg>
