<svg xmlns="http://www.w3.org/2000/svg" width="64" height="64" viewBox="0 0 64 64">
  <defs>
    <linearGradient id="jedi-a" x1="42.498%" x2="55.176%" y1="56.274%" y2="50.691%">
      <stop offset="0%" stop-color="#30E6B6" stop-opacity="0"/>
      <stop offset="100%" stop-color="#30E6B6"/>
    </linearGradient>
    <linearGradient id="jedi-b" x1="58.644%" x2="46.009%" y1="47.735%" y2="52.745%">
      <stop offset="0%" stop-color="#30E6B6" stop-opacity="0"/>
      <stop offset="100%" stop-color="#30E6B6"/>
    </linearGradient>
  </defs>
  <g fill="none">
    <rect width="64" height="64" fill="#FFF" fill-opacity="0"/>
    <g transform="translate(7 8)">
      <path fill="#1DAAF1" d="M24.5,3 C19.705,3 15.225,4.365 11.445,6.745 L9.17,8.39 C3.57,12.87 0,19.765 0,27.5 C0,41.045 10.955,52 24.5,52 C38.045,52 49,41.045 49,27.5 C49,13.955 38.045,3 24.5,3 Z"/>
      <path fill="#1682B8" d="M49.7174903,31.3220482 C49.7174903,31.2169061 49.752804,31.1117639 49.752804,31.0416692 C49.8234314,30.6911954 49.8587451,30.3056743 49.8940589,29.9552005 C49.7881177,30.2005322 49.6468629,30.5510059 49.4702943,31.0066218 C49.505608,30.8313849 49.5409217,30.656148 49.5762354,30.4809112 C49.752804,29.7098689 49.8940589,28.9037792 50,28.132737 C50,27.9224527 50,27.6771211 50,27.4668368 C50,25.8196102 49.8234314,24.2074309 49.5409217,22.6653463 C49.2230983,21.7541145 48.7993337,20.8779301 48.1636869,20.0367931 C45.8682955,16.9175767 42.5841202,16.5320555 38.7702392,17.4082399 C34.9563581,18.2844243 33.120045,20.7377406 31.9546925,23.1560096 C30.78934,25.5742785 28.7764583,31.8127114 28.7764583,31.8127114 L29.9064971,34.0206961 C29.9064971,34.0206961 30.3302617,34.7216437 31.1424771,36.1235387 C31.9546925,37.5254337 32.2372022,38.5418076 30.9659085,39.1025656 C29.6946149,39.6633237 28.7058309,37.0698178 27.7523606,35.5277333 C26.7988904,33.9856488 26.5870081,33.9506014 25.4216556,34.0206961 C24.256303,34.0907909 22.8790682,34.0206961 19.94803,36.0183966 C17.0169918,38.016097 14.9687964,43.2031086 13.3090519,47.1284147 C13.3090519,47.1284147 13.3090519,46.9531779 13.0618559,47.7592675 C12.920601,48.1447886 12.9912285,48.5303098 13.5915616,49.0560204 C17.0876192,50.9485787 21.1133825,52 25.3510281,52 C37.6048866,52 47.8458635,43.0278718 49.7174903,31.3220482 Z"/>
      <path fill="#C9C9C9" d="M10.3405314,45.1961803 C11.9889922,41.2583202 14.0232629,36.0547194 16.9343744,34.0506299 C19.8454859,32.0465404 21.2133575,32.1168594 22.3707874,32.0465404 C23.5282173,31.9762215 23.7386591,32.0465404 24.6856472,33.5583974 C25.6326353,35.1054139 26.6497706,37.7423737 27.8773477,37.1446628 C29.1399985,36.5469519 28.8594095,35.5273275 28.0527159,34.1561083 C27.2460224,32.7497297 26.8251388,32.0465404 26.8251388,32.0465404 L25.7027825,29.8314942 C25.7027825,29.8314942 27.7019796,23.5731094 28.8594095,21.1471064 C30.0168393,18.7211033 31.8757419,16.2951002 35.6636942,15.4161136 C39.4516465,14.537127 42.7134943,14.8887217 44.9932805,18.0530735 C47.2730666,21.2174253 47.2730666,24.8388502 46.3962258,28.530594 C45.5544586,32.2223378 45.414164,35.8086032 45.4492377,35.8437626 C45.4843113,35.8789221 45.5544586,36.7930682 46.2559312,37.2853007 C46.9574039,37.7775332 47.2730666,37.8830116 46.7118885,38.8323171 C46.1507103,39.7816227 44.1865869,43.7546422 40.1881928,46.7783562 C36.1897987,49.8020701 31.1041219,51.8061596 27.947495,51.9467975 C24.7908681,52.0874354 19.3895286,52.1225948 14.86503,49.7317512 C10.3405314,47.3409076 9.77935331,46.6377183 10.0599424,45.8290506 C10.3756051,45.0203829 10.3405314,45.1961803 10.3405314,45.1961803 Z"/>
      <path fill="#ABABAB" d="M14 48.3528069C14.7203669 47.273687 16.1611007 44.8456671 17.1901962 42.4850922 18.253595 40.0907949 18.3908077 39.2814549 19.179781 39.5175124 19.9687542 39.7535699 19.0425682 43.3955997 18.3565045 45.6212846 17.6704408 47.8469694 18.3908077 48.1504719 19.0768714 47.476022 19.7629351 46.801572 20.5176052 44.4409971 21.0664562 42.4850922 21.6496103 40.5291874 21.958339 38 21.958339 38 21.958339 38 22.2670677 40.1245174 21.2036689 44.5758871 20.1402702 49.0272569 19.6257224 50.2075443 18.1506854 49.9714868 16.6756485 49.7017068 14 48.3528069 14 48.3528069zM32.6306306 36C32.6306306 36 34.1801802 38.3865546 34.7207207 39.1932773 35.2612613 39.9663866 34.8648649 40.8739496 34.5045045 41.2773109 34.1441441 41.6806723 34.7207207 42.3193277 34.7207207 42.3193277 34.7207207 42.3193277 35.2612613 42.0840336 35.5135135 42.4537815 35.7657658 42.8235294 35.5135135 43.1260504 35.5135135 43.1260504 35.5135135 43.1260504 35.7297297 42.9915966 35.9459459 43.3277311 36.1621622 43.6638655 35.9459459 44 35.9459459 44 35.9459459 44 36.3423423 43.9327731 36.6306306 44.2689076 36.9189189 44.605042 36.5225225 44.907563 36.5225225 44.907563 36.5225225 44.907563 36.9189189 44.8403361 37.2432432 45.210084 37.5675676 45.6134454 37.0990991 45.9159664 37.0990991 45.9159664 37.0990991 45.9159664 37.4234234 45.8151261 37.7477477 46.1176471 38.0720721 46.4201681 37.6396396 46.789916 37.6396396 46.789916L38 47.3277311 36.5585586 48 30 37.4789916 32.6306306 36zM30.9044131 50.377746C30.1201626 50.4797604 29.2677164 49.6296404 28.5857594 48.6775061 28.0742917 47.9634054 27.4605304 45.4810553 27.3923347 44.4949162 27.3923347 44.4949162 27.2559433 45.4810553 27.1877476 46.025132 27.1195519 46.9772663 26.7103777 47.6233574 26.0625186 47.6573622 25.4146595 47.691367 24.7668004 47.0452759 24.9713874 45.4810553 25.1759745 43.9168346 24.9713874 40.2783214 24.9713874 40.2783214 24.9713874 40.2783214 24.5281154 41.9445564 23.948452 40.9924221 23.3687886 40.0402878 23.1301036 38 23.1301036 38 23.1301036 38 23.2323972 39.0201439 22.9255165 40.516355L22.379951 43.7128058C21.6297983 46.9772663 20.3681779 49.4936213 20.0271994 50.1397124 19.6862209 50.7858035 22.6186359 51.0578419 25.0395831 50.9898323 27.4605304 50.9218227 31.6886636 50.2757316 30.9044131 50.377746z"/>
      <path fill="#FFF" d="M28,31.5337838 L29.4526316,34 C29.4526316,34 30.0210526,34 30.6210526,33.0878378 C31,32.5135135 31,31.8040541 31,31.8040541 L30.2421053,29 C30.2421053,29 30.2421053,30.0810811 29.3578947,30.8243243 C28.4736842,31.5675676 28,31.5337838 28,31.5337838 Z"/>
      <path fill="#FFF" d="M27.0627306,28.4172645 C27.5940959,26.8828433 28.8560886,21.3161059 31.3136531,18.5327372 C33.7712177,15.7493685 35,15 35,15 C35,15 30.5166052,17.3194739 30.0184502,23.3857903 C29.8856089,24.9558957 29.8856089,26.169159 30.1180812,28.2031592 C30.2509225,29.3807383 29.4206642,30.0944226 28.7896679,30.5583173 C27.9926199,31.1292648 26.4317343,31.2006332 26,30.4512647 C26,30.4512647 26.5645756,29.8089488 27.0627306,28.4172645 Z"/>
      <path fill="#878787" d="M31.1455066 42.5862069L30.911486 42.7382125C30.0756984 43.2702322 29.0393218 42.966221 28.5378492 42.0541872L27 39.1280788 30.2094244 37 31.7472736 39.9261084C32.2487462 40.8381422 31.9812942 42.0161858 31.1455066 42.5862069zM37 47.978022L34.1621622 43.1318681C34.0945946 43 33.9256757 42.967033 33.7905405 43.032967L32.1351351 44.021978C32 44.0879121 31.9662162 44.2527473 32.0337838 44.3846154L34.8378378 49 37 47.978022z"/>
      <path fill="#ABABAB" d="M38.1762985,44.7221268 C38.1762985,44.7221268 40.4932499,41.4101091 41.5982576,39.0541378 C42.7032652,36.6981664 43.4874642,35.0592299 43.4874642,35.0592299 C43.4874642,35.0592299 43.5231096,34.7519293 44.6281172,35.537253 C45.7331249,36.3225768 47.408459,37.1761896 46.9094233,38.0298024 C46.4103876,38.8834152 43.9864999,42.9466122 41.6695484,44.7221268 C39.3525969,46.4634969 37,48 37,48 C37,48 37.9980714,45.268439 38.1762985,44.7221268 Z"/>
      <path fill="url(#jedi-a)" d="M19.8965517,32 C20.8965517,31.5504323 24,31.5850144 24,31.5850144 L9.93103448,8 C9.93103448,8 8,9.3832853 7,10.6974063 L19.8965517,32 Z"/>
      <path fill="url(#jedi-b)" d="M15.2364729,5 L29,30.1643568 C29,30.1643568 27.0581162,32.9603964 26.3086172,31.6508589 C25.5591182,30.3413213 12,6.76964534 12,6.76964534 C12,6.76964534 13.2945892,6.0263943 14.1122244,5.60167942 C14.9639279,5.17696453 15.2364729,5 15.2364729,5 Z"/>
      <path fill="#30E6B6" d="M27.3976669,35.8316574 C26.8145798,36.1785768 26.0256973,35.9704252 25.6827049,35.3806622 L6.16643698,1.90293958 C5.82344457,1.31317659 6.02924002,0.515261962 6.61232711,0.168342557 C7.1954142,-0.178576849 7.98429674,0.0295747945 8.32728914,0.619337784 L27.8092578,34.0970604 C28.1865495,34.6868234 27.980754,35.484738 27.3976669,35.8316574 Z"/>
      <path fill="#4D5052" d="M25.017618,52 C11.2403101,52 0,40.7676056 0,27 C0,19.3943662 3.41789993,12.2816901 9.37279774,7.49295775 C9.51374207,7.38732394 9.76039464,7.38732394 9.86610289,7.56338028 C9.97181113,7.70422535 9.97181113,7.95070423 9.79563073,8.05633803 C4.01691332,12.6690141 0.704721635,19.6056338 0.704721635,27 C0.704721635,40.3802817 11.627907,51.2957746 25.017618,51.2957746 C38.4073291,51.2957746 49.3305144,40.3802817 49.3305144,27 C49.3305144,13.6197183 38.4073291,2.70422535 25.017618,2.70422535 C20.4016913,2.70422535 15.9267089,4.00704225 12.05074,6.43661972 C11.8745595,6.54225352 11.6631431,6.50704225 11.5574348,6.33098592 C11.4517266,6.15492958 11.4869626,5.94366197 11.6631431,5.83802817 C15.6448203,3.33802817 20.260747,2 24.982382,2 C38.7596899,2 50,13.2323944 50,27 C50,40.7676056 38.8301621,52 25.017618,52 Z"/>
      <path fill="#4D5052" d="M27.3533209 37C27.214297 37 27.075273 37 26.9362491 36.9300817 26.5191773 36.8252043 26.1716175 36.5455311 25.9283256 36.1959397L6.22168385 2.46036495C6.01314796 2.07581436 5.943636 1.65630462 6.04790394 1.23679488 6.15217189.817285145 6.43021974.467693697 6.81253554.222979684 7.19485135.0132248149 7.61192313-.0566934747 8.02899491.0481839597 8.4460667.153061394 8.79362652.432734552 9.03691839.782326L28.7783161 34.5179007C28.986852 34.9024513 29.056364 35.3219611 28.9520961 35.7414708 28.8478281 36.1609805 28.5697803 36.510572 28.2222204 36.755286 27.9441726 36.9300817 27.6661247 37 27.3533209 37zM7.61192313.712407711C7.43814322.712407711 7.29911929.747366855 7.16009536.85224429 6.95155947.992080869 6.77777956 1.16687659 6.74302358 1.41159061 6.67351162 1.65630462 6.7082676 1.90101863 6.84729153 2.1107735L26.5886893 35.8463482C26.7277132 36.0561031 26.9014931 36.1959397 27.144785 36.265858 27.3880769 36.3357762 27.6313687 36.3008171 27.8399046 36.1609805 27.8399046 36.1609805 27.8399046 36.1609805 27.8399046 36.1609805 28.0484405 36.0211439 28.1874645 35.8463482 28.2569764 35.6016342 28.3264884 35.3569202 28.2917324 35.1122062 28.1527085 34.9024513L8.41131072 1.16687659C8.23753081.887203435 7.92472697.712407711 7.61192313.712407711zM26.3540332 41C26.2520018 41 26.11596 40.9227259 26.0479391 40.8068149 25.9459077 40.6136297 26.0139286 40.3818076 26.1839809 40.2658965L32.4759146 36.0544604C32.6459668 35.9385494 32.8500296 36.0158234 32.9520609 36.2090085 33.0540923 36.4021937 32.9860714 36.6340159 32.8160191 36.7499269L26.5240854 40.961363C26.490075 41 26.4220541 41 26.3540332 41zM32.3515981 46C32.2502685 46 32.1151624 45.9337853 32.0476094 45.8344632 31.9462798 45.6689265 32.0138328 45.4702823 32.1827155 45.3709603L34.4795193 44.0466661C34.6484019 43.9473441 34.8510611 44.0135588 34.9523906 44.1790956 35.0537202 44.3446323 34.9861672 44.5432764 34.8172845 44.6425985L32.5204807 45.9668926C32.4529277 46 32.3853746 46 32.3515981 46zM32.3515981 47C32.2502685 47 32.1151624 46.9337853 32.0476094 46.8344632 31.9462798 46.6689265 32.0138328 46.4702823 32.1827155 46.3709603L34.4795193 45.0466661C34.6484019 44.9473441 34.8510611 45.0135588 34.9523906 45.1790956 35.0537202 45.3446323 34.9861672 45.5432764 34.8172845 45.6425985L32.5204807 46.9668926C32.4867042 46.9668926 32.4191512 47 32.3515981 47zM33.3515981 48C33.2502685 48 33.1151624 47.9337853 33.0476094 47.8344632 32.9462798 47.6689265 33.0138328 47.4702823 33.1827155 47.3709603L35.4795193 46.0466661C35.6484019 45.9473441 35.8510611 46.0135588 35.9523906 46.1790956 36.0537202 46.3446323 35.9861672 46.5432764 35.8172845 46.6425985L33.5204807 47.9668926C33.4529277 48 33.3853746 48 33.3515981 48zM33.3515981 49C33.2502685 49 33.1151624 48.9337853 33.0476094 48.8344632 32.9462798 48.6689265 33.0138328 48.4702823 33.1827155 48.3709603L35.4795193 47.0466661C35.6484019 46.9473441 35.8510611 47.0135588 35.9523906 47.1790956 36.0537202 47.3446323 35.9861672 47.5432764 35.8172845 47.6425985L33.5204807 48.9668926C33.4867042 48.9668926 33.4191512 49 33.3515981 49z"/>
      <path fill="#4D5052" d="M30.5853562,43 C30.4085801,43 30.2318041,42.9663704 30.0196728,42.9327408 C29.4539893,42.7982224 28.9943715,42.4619263 28.6761745,41.9911118 L27.0498346,39.401632 C26.9437689,39.2334839 27.0144794,39.0317063 27.1912555,38.9308175 L30.5853562,37.0475594 C30.6560667,37.0139298 30.7621323,36.9803002 30.868198,37.0139298 C30.9742636,37.0475594 31.044974,37.0811891 31.0803292,37.1820779 L32.7066692,39.7715577 C33.3077079,40.7468163 32.9541557,42.0247414 31.9288544,42.5964447 L31.6813679,42.7309631 C31.3278158,42.8991112 30.9742636,43 30.5853562,43 Z M27.8630046,39.3343728 L29.3125684,41.6548157 C29.736831,42.3274078 30.6207114,42.5291855 31.3278158,42.1592598 L31.5753023,42.0247414 C32.2824066,41.6211861 32.4945379,40.7804459 32.1056305,40.1078537 L30.6560667,37.7874108 L27.8630046,39.3343728 Z"/>
      <polygon fill="#4D5052" points="31 42 32 42 32 44 31 44" transform="rotate(-30.499 31.5 43)"/>
      <circle cx="29.5" cy="39.5" r="1" fill="#4D5052" transform="rotate(-30.499 29.5 39.5)"/>
      <circle cx="30.5" cy="40.5" r="1" fill="#4D5052" transform="rotate(-30.499 30.5 40.5)"/>
      <path fill="#30E6B6" d="M16.1783217 10C16.1503497 10 16.1223776 10 16.0944056 10 16.0104895 9.96566524 15.9825175 9.86266094 16.0104895 9.79399142L16.7377622 7.11587983C16.7657343 7.01287554 16.8496503 6.97854077 16.9055944 7.01287554 16.9895105 7.0472103 17.0174825 7.15021459 16.9895105 7.21888412L16.2622378 9.86266094C16.2622378 9.93133047 16.2342657 9.96566524 16.1783217 10zM22.1650065 18C22.0932345 18 22.0573486 17.9610129 22.0214626 17.9220258 21.9855766 17.8440517 21.9855766 17.7270904 22.0932345 17.6491162L27.7273355 14.0233172C27.7991075 13.9843302 27.9067655 13.9843302 27.9785374 14.1012914 28.0144234 14.1792656 28.0144234 14.2962268 27.9067655 14.374201L22.2726645 18C22.2008925 18 22.1650065 18 22.1650065 18zM20.1483516 14C20.1153846 14 20.0824176 14 20.0494505 13.9605911 19.9835165 13.8817734 19.9835165 13.7635468 20.0494505 13.6847291L22.7197802 10.0591133C22.7857143 9.98029557 22.8846154 9.98029557 22.9505495 10.0591133 23.0164835 10.137931 23.0164835 10.2561576 22.9505495 10.3349754L20.2802198 13.9605911C20.2142857 14 20.1813187 14 20.1483516 14zM24.1691449 22C24.1049043 22 24.0406638 21.9558167 24.0085436 21.8232669 23.9764233 21.690717 24.0406638 21.6023504 24.1049043 21.5581671L27.7987349 20.0117521C27.8950957 19.9675689 27.9593362 20.0559354 27.9914564 20.144302 28.0235767 20.2768519 27.9593362 20.3652184 27.8950957 20.4094017L24.2012651 22C24.2012651 22 24.1691449 22 24.1691449 22zM8.13186813 13.625C8.06593407 13.5625 8 13.4375 8 13.3125 8 13.125 8.0989011 13 8.16483516 13L10.8351648 13.375C10.9340659 13.375 11 13.5625 11 13.6875 11 13.875 10.9010989 14 10.8351648 14L8.13186813 13.625C8.13186813 13.625 8.13186813 13.625 8.13186813 13.625zM9.16457104 26C9.09298848 26 9.05719719 25.9610129 9.02140591 25.9220258 8.98561463 25.8440517 8.98561463 25.7270904 9.09298848 25.6491162L14.7122196 22.0233172C14.7838021 21.9843302 14.891176 21.9843302 14.9627585 22.1012914 15.0343411 22.2182527 14.9985498 22.2962268 14.891176 22.374201L9.27194488 26C9.20036232 26 9.16457104 26 9.16457104 26zM8.1726191 20C8.10705907 20 8.04149905 19.9631445 8.00871904 19.8894335 7.97593902 19.778867 8.04149905 19.705156 8.10705907 19.6683005L12.7946009 18.0098031C12.8929409 17.9729476 12.958501 18.0466586 12.991281 18.1203696 13.024061 18.2309361 12.958501 18.304647 12.8929409 18.3415025L8.20539911 20C8.20539911 20 8.1726191 20 8.1726191 20zM14.1771566 29C14.1443126 29 14.0786246 28.9620471 14.0457805 28.9240943 13.9800925 28.8481885 13.9800925 28.7343299 14.0786246 28.6584242L17.7243113 25.0529016C17.7899993 24.9769959 17.8885314 24.9769959 17.9542195 25.0908545 18.0199075 25.1667602 18.0199075 25.2806188 17.9213754 25.3565246L14.2756887 28.9620471C14.2428447 29 14.2100007 29 14.1771566 29z"/>
      <path fill="#4D5052" d="M37.7656259,43 C37.7656259,43 37.7656259,43 37.7656259,43 C37.6289157,43 37.4922055,42.8937932 37.4238505,42.7521842 C37.4238505,42.716782 36.4327016,39.38897 35.8175057,37.9374776 C35.3390201,36.8046054 34.9288895,35.8841468 34.587114,35.1052972 C33.4934325,32.6271393 32.9124142,31.2818537 32.3655734,28.6266845 C31.4427796,24.0243914 32.2972183,19.7761208 34.587114,17.5457788 C36.0567486,16.1296886 37.9365137,15.6694593 39.952989,16.2358954 C41.9694643,16.8023314 43.4732763,18.2184216 44.2935375,20.3425569 C45.5922843,23.5995644 45.0796211,27.8832372 42.9264356,31.8128875 C39.4403257,38.1498911 38.0732239,42.716782 38.0390463,42.7521842 C38.0390463,42.8937932 37.9023361,43 37.7656259,43 Z M38.3124667,16.6961247 C37.1162525,16.6961247 36.022571,17.156354 35.0997772,18.0414104 C32.9807693,20.0947411 32.1946857,24.0951959 33.0833019,28.4496733 C33.5959651,31.0340379 34.1769834,32.3439213 35.2364874,34.7866769 C35.5782629,35.6009287 35.9883935,36.5213874 36.4668791,37.6542595 C36.8770097,38.6455227 37.458028,40.4156354 37.7998035,41.5485076 C38.4149993,39.8491993 39.8504563,36.1319626 42.4137724,31.4942672 C44.4302477,27.8124327 44.9429109,23.6703689 43.7466967,20.6611772 C42.9947907,18.7494555 41.6276888,17.4749743 39.8504563,16.9793427 C39.3036156,16.7669292 38.7909523,16.6961247 38.3124667,16.6961247 Z"/>
      <path fill="#4D5052" d="M39.9477874,17.225988 C34.5758897,15.7921556 30.7542712,21.3526276 32.3766564,29.0463626 C33.0977165,32.4735718 33.9990416,33.7325466 35.9819569,38.1739299 C36.630911,39.6427338 37.6764481,43 37.6764481,43 C37.6764481,43 39.1185683,38.4886736 42.8680808,32.1238565 C46.6175934,25.7590394 45.2836322,18.6598204 39.9477874,17.225988 Z M35.2969498,25.6541249 C33.8548296,25.059609 33.9629886,24.1503494 33.9629886,24.1503494 C33.9629886,24.1503494 34.7922077,23.9405203 35.8737979,24.5350362 C36.955388,25.129552 37.3159181,25.863954 37.3159181,25.863954 C37.3159181,25.863954 36.2703809,26.0737832 35.2969498,25.6541249 Z M42.6157098,26.8781282 C41.5701727,27.0180143 40.5967415,26.5284129 40.5967415,26.5284129 C40.5967415,26.5284129 41.1375366,25.8989255 42.3633388,25.6541249 C43.5891409,25.4093242 44.310201,25.794011 44.310201,25.794011 C44.310201,25.794011 44.165989,26.7032706 42.6157098,26.8781282 Z"/>
      <path fill="#4D5052" d="M41.1486524 40C41.1139381 40 41.0445094 40 41.0097951 39.9651051 40.8362235 39.8953152 40.7667948 39.6859456 40.8362235 39.511471 40.8362235 39.476576 42.190082 36.2662424 44.7589419 30.9622128 46.390515 27.5774045 47.0500871 21.9942156 45.0366564 18.3302478 43.8910838 16.2714469 42.1206534 15.0850192 39.6906509 14.8058597 36.5663619 14.4569104 34.101645 15.5037584 32.365929 17.9464035 31.0467847 19.7958349 30.6996415 21.8197409 30.6996415 21.8197409 30.6649272 21.9942156 30.4913556 22.1337953 30.2830696 22.0989003 30.109498 22.0640054 29.9706408 21.8895308 30.0053551 21.6801612 30.0053551 21.6103713 31.6369282 13.1309031 39.7600795 14.0730662 42.398368 14.3871206 44.4117986 15.713128 45.6615142 17.9812985 47.7790879 21.8895308 47.1542301 27.6122995 45.3837996 31.2413723 42.8496542 36.5105069 41.4957956 39.7208406 41.4957956 39.7557355 41.426367 39.9302101 41.2875097 40 41.1486524 40zM32.6508899 35C32.552894 35 32.4548982 34.9330634 32.3895676 34.8661268 30.4949816 31.9543848 30.0376678 28.5406182 30.0050025 28.3732768 29.9723372 28.2059353 30.1029983 28.0385938 30.29899 28.0051255 30.4949816 27.9716572 30.6256427 28.1055304 30.658308 28.3063402 30.658308 28.3398085 31.1156219 31.7201067 32.9448773 34.4979755 33.0428732 34.665317 33.0102079 34.8661268 32.8468815 34.9665317 32.781551 34.9665317 32.7162204 35 32.6508899 35z"/>
      <path fill="#4D5052" d="M46.6612204 38C46.4530909 38 46.1062083 37.6848731 43.1230184 34.6911677 42.9842653 34.5336043 42.9495771 34.2972591 43.0883301 34.1396957 43.2270831 33.9821322 43.4352126 33.9427414 43.5739657 34.1003048 44.6839898 35.2032489 46.5224674 37.0152285 46.7999734 37.2515736 46.9734147 37.3303554 47.0427912 37.5667005 46.9734147 37.7636548 46.9387264 37.8818274 46.8346617 37.9606091 46.7305969 38 46.7305969 38 46.6959086 38 46.6612204 38zM47 27C46.9655172 27.0727273 45.8275862 32.3818182 46.7586207 37L44 34.4909091C45.0689655 32.0909091 47 27 47 27zM26.2927803 31C26.1726653 31 26.0525503 30.9437841 26.0225216 30.8313523 25.9624641 30.6908126 26.0225216 30.5221649 26.2026941 30.4659491 26.2327228 30.4659491 26.7131828 30.2691935 27.3137578 30.1005458 28.244649 29.8475743 28.3947927 29.2291995 28.3947927 29.2291995 28.4248215 29.0886598 28.5749652 28.976228 28.7551377 29.004336 28.9052815 29.0324439 29.0253965 29.1729836 28.9953677 29.3416313 28.9953677 29.3697392 28.8151952 30.2973014 27.4939303 30.6627047 26.923384 30.8313523 26.4429241 31 26.4429241 31 26.3828666 31 26.3228091 31 26.2927803 31zM10.6101695 46L10 45.7215777C10 45.7215777 11.0169492 43.1809745 11.6949153 41.5452436L11.7288136 41.4756381C12.440678 39.7354988 13.7627119 36.4988399 16.5423729 33.6102088 17.9661017 32.1136891 19.5254237 31.3132251 21.4576271 31.1392111 22.9830508 31 23.6271186 31 23.6610169 31 23.8644068 31 24 31.1740139 24 31.3480278 24 31.5568445 23.8644068 31.6960557 23.6610169 31.6960557 23.6610169 31.6960557 23.6610169 31.6960557 23.6610169 31.6960557 23.6610169 31.6960557 23.0169492 31.6960557 21.5254237 31.8352668 19.7627119 32.0092807 18.3389831 32.7401392 17.0169492 34.0974478 14.3389831 36.8816705 13.0508475 40.0487239 12.3728814 41.7540603L12.3389831 41.8236659C11.6271186 43.4593968 10.6101695 46 10.6101695 46zM19.3726094 51C19.3028813 51 19.2331533 50.964467 19.1634252 50.928934 18.989105 50.822335 18.9542409 50.6091371 19.0588331 50.4314721 19.0588331 50.3959391 20.6625789 48.0152284 21.603908 43.5025381 22.4057809 39.7005076 22.3011888 37.3908629 22.3011888 37.3553299 22.3011888 37.142132 22.440645 37 22.6498292 37 22.8241494 37 22.9984696 37.142132 22.9984696 37.3553299 22.9984696 37.4619289 23.0681977 39.7715736 22.2663248 43.6446701 21.2901316 48.3350254 19.6863858 50.751269 19.6166577 50.822335 19.5817937 50.928934 19.4772016 51 19.3726094 51zM23.4452213 51C23.3989716 51 23.3527218 51 23.3064721 50.9669811 23.0752234 50.9009434 22.9364742 50.7028302 23.0289737 50.5377358 23.0289737 50.504717 24.2314667 48.0943396 24.0464678 44.3301887 24.0464678 44.1320755 24.2314667 44 24.5089651 44 24.7402138 44 24.9714625 44.1320755 24.9714625 44.3301887 25.2027111 48.2264151 23.9539684 50.6698113 23.9077186 50.8018868 23.8152192 50.9009434 23.6302202 51 23.4452213 51zM30.6252581 51C30.5859191 51 30.54658 51 30.54658 51 27.4781367 50.3162655 27.0060685 47.5093556 27.0060685 47.4013975 26.9667295 47.2214674 27.1240855 47.0055512 27.3207806 47.0055512 27.5174757 46.9695652 27.7535098 47.1135093 27.7535098 47.2934394 27.7535098 47.4013975 28.186239 49.7404891 30.7039361 50.3162655 30.9006312 50.3522516 31.0579873 50.5681677 30.9793092 50.7480978 30.9793092 50.8920419 30.8219532 51 30.6252581 51zM38.0257346 45C37.0394911 45 36.2429098 43.8212155 35.0290717 41.4636465 34.9532068 41.2952487 35.0290717 41.0931714 35.2187339 41.0258122 35.4083961 40.9584531 35.6359908 41.0258122 35.7118556 41.19421 36.2049774 42.1372376 37.3429507 44.3264089 38.0257346 44.3264089 38.4050591 44.3264089 39.4671675 43.0802652 40.3016812 41.6657238 40.4154785 41.497326 40.6430732 41.4299669 40.7948029 41.5310056 40.9844651 41.6320443 41.06033 41.8341216 40.9465327 41.9688398 40.5672083 42.7097901 39.1257755 45 38.0257346 45zM45.6096036 42C45.4354311 42 45.3048018 41.917138 45.2177156 41.792845L44.0420516 39.5970017C43.9549653 39.3898467 43.9985084 39.1412607 44.216224 39.0583987 44.4339396 38.9341056 44.6951982 39.0169677 44.7822844 39.2241227L45.9579484 41.4199659C46.0450347 41.627121 46.0014916 41.875707 45.783776 41.958569 45.7402329 41.958569 45.6531467 42 45.6096036 42zM30.3652579 19C30.2954735 19 30.2256891 18.9646099 30.1559047 18.9292197 29.9814436 18.8230493 29.9465514 18.6107084 30.0861202 18.4337577 30.1210125 18.3983675 33.6102339 13.4791373 39.6814791 14.0453796 39.8559402 14.0453796 40.0304013 14.2223304 39.995509 14.4346712 39.995509 14.611622 39.821048 14.7885727 39.6116947 14.7531825 33.959156 14.2577205 30.6792879 18.8230493 30.6443957 18.8584394 30.5746112 18.9292197 30.4699346 19 30.3652579 19zM25.3247581 30C25.3247581 30 25.289282 30 25.289282 30 25.1119011 29.9652449 24.9699964 29.7914697 25.0054726 29.6176944 25.0054726 29.5481843 25.289282 27.8451865 25.8569007 26.2464539 26.3535672 24.8910067 27.2759476 23.257519 27.3114238 23.1880089 27.4178523 23.0142336 27.6307094 22.9447235 27.8080902 23.0489886 27.9854711 23.1532538 28.0564234 23.3617842 27.9499949 23.5355594 27.9499949 23.5355594 27.0276144 25.2038022 26.5664242 26.4897393 25.9988054 28.0537168 25.7504722 29.7219595 25.714996 29.7567146 25.6440437 29.8957348 25.502139 30 25.3247581 30z"/>
      <path fill="#30E6B6" d="M18.2792338 31C18.235551 31 18.1481854 31 18.1045026 31 18.017137 30.9596732 17.9734542 30.838693 18.017137 30.7177127L19.5897178 28.0964739C19.6334006 28.0158204 19.764449 27.9754936 19.8954974 28.0158204 19.982863 28.0561471 20.0265458 28.1771274 19.982863 28.2981076L18.4102822 30.9193465C18.3665994 30.9596732 18.3229166 30.9596732 18.2792338 31zM27.8550725 26.5C27.8550725 26.5 27.8550725 26.5 27.8550725 26.5L26.1449275 26.4545455C26.057971 26.4545455 26 26.3636364 26 26.2272727 26 26.0909091 26.057971 26 26.1449275 26 26.1449275 26 26.1449275 26 26.1449275 26L27.8550725 26.0454545C27.942029 26.0454545 28 26.1363636 28 26.2727273 28 26.4090909 27.9130435 26.5 27.8550725 26.5z"/>
      <path fill="#FFF" d="M16,36.3699052 C17.4192308,34.826591 18.25,33.6874782 19.7384615,33.2832768 C21.2269231,32.8790755 22.9923077,33.0260578 22.9923077,33.0260578 L25,36.3699052 C25,36.3699052 23.5461538,35.5982481 21.8846154,36.1126862 C20.2230769,36.6271243 19.8423077,36.8843433 18.3884615,36.99458 C16.9692308,37.0680712 16,36.3699052 16,36.3699052 Z"/>
      <path fill="#757575" d="M39.1241661,26.0049068 C39.4273666,26.0049068 39.730567,26.6360421 39.8063671,27.2371233 C39.8442672,27.597772 39.9200673,28.1387451 39.9958674,28.4693398 C40.0337675,28.7097723 39.8063671,28.9502048 39.5031667,28.9802589 C39.3515665,29.0103129 39.1241661,29.0103129 38.8967658,28.9502048 C38.1387646,28.8299886 37.7597641,28.7398264 37.4565636,28.8299886 C36.9259628,28.9502048 36.7743626,28.1387451 37.4565636,28.0185289 C38.366165,27.8682586 38.1387646,26.605988 38.366165,26.2453393 C38.5556653,25.9447987 38.8588657,26.0049068 39.1241661,26.0049068 Z"/>
      <path fill="#30E6B6" d="M35.1945392 25.7088925C33.9049244 25.0490487 34.0016455 24.0398758 34.0016455 24.0398758 34.0016455 24.0398758 34.7431741 23.8069898 35.7103852 24.4668336 36.6775963 25.1266774 37 25.9417785 37 25.9417785 37 25.9417785 36.0650293 26.1746645 35.1945392 25.7088925zM43.1747573 25.98111C42.0485437 26.0862368 41 25.7182932 41 25.7182932 41 25.7182932 41.5825243 25.2452228 42.9029126 25.061251 44.223301 24.8772792 45 25.1663778 45 25.1663778 45 25.1663778 44.8446602 25.8497016 43.1747573 25.98111z"/>
      <path fill="#757575" d="M36.3355667 32.2148183C36.873901 31.8315016 37.0174568 32.0444554 37.5199022 32.2148183 38.0223475 32.3851813 38.0223475 33.1518148 37.9864585 33.6629037 37.9505696 34.1739927 37.3404574 34.0462204 36.5867894 33.6629037 35.8331214 33.279587 35.8690104 32.5555443 36.3355667 32.2148183zM35 23.3174278C35 23.3174278 36.968254 23.5964883 37.7301587 23.9154146 38.4920635 24.2343409 38.8095238 23.5964883 38.8730159 22.9187699 38.9365079 22.2410516 39 21.2444069 39 20.6464201 39 20.0484333 38.3650794 19.6896412 37.5714286 20.3673596 36.7777778 21.045078 35.7936508 21.8822595 35 23.3174278z"/>
    </g>
  </g>
</svg>
