<svg xmlns="http://www.w3.org/2000/svg" width="25" height="21" viewBox="0 0 25 21">
  <path fill="#FFF" d="M23.5947158,8.51733015 L23.6337401,8.52596341 L6.90488199,8.52596341 L12.1638239,3.19574601 C12.4213442,2.93551481 12.5626043,2.58298993 12.5626043,2.21299296 C12.5626043,1.842996 12.4213442,1.49293776 12.1638239,1.2320899 L11.3455314,0.404118908 C11.0882144,0.143887709 10.7453283,0 10.379678,0 C10.0138244,0 9.67073505,0.14285994 9.41341803,0.403091139 L0.398582594,9.51919971 C0.140249317,9.78045868 -0.00101081454,10.1284614 5.44539834e-06,10.4986639 C-0.00101081454,10.870922 0.140249317,11.2191302 0.398582594,11.4799781 L9.41341803,20.5969089 C9.67073505,20.8569345 10.0136212,21 10.379678,21 C10.7453283,21 11.0882144,20.856729 11.3455314,20.5969089 L12.1638239,19.7689379 C12.4213442,19.5091178 12.5626043,19.1621429 12.5626043,18.7921459 C12.5626043,18.4223545 12.4213442,18.0936738 12.1638239,17.8336482 L6.84553241,12.4736255 L23.6134149,12.4736255 C24.3668701,12.4736255 25,11.8168809 25,11.0553038 L25,9.88426338 C25,9.1226863 24.3481709,8.51733015 23.5947158,8.51733015 Z"/>
</svg>
