<svg xmlns="http://www.w3.org/2000/svg" width="14" height="18" viewBox="0 0 14 18">
  <g fill="none">
    <path fill="#FF8916" d="M8 3.59432049L8 .401622718C8 .178498986 7.77777778 0 7.5 0 7.22222222 0 7 .178498986 7 .401622718L7 3.59837728C7 3.82150101 7.22222222 4 7.5 4 7.77777778 3.9959432 8 3.81744422 8 3.59432049zM4.60589014 5C4.70516214 5 4.80840503 4.96027805 4.88385175 4.88480636 5.03871608 4.72989076 5.03871608 4.4836147 4.88385175 4.32869911L2.67207148 2.11618669C2.51720715 1.9612711 2.27101257 1.9612711 2.11614825 2.11618669 1.96128392 2.27110228 1.96128392 2.51737835 2.11614825 2.67229394L4.32792852 4.88480636C4.40337525 4.96027805 4.50661813 5 4.60589014 5zM13.5983773 7L10.4016227 7C10.178499 7 10 7.22222222 10 7.5 10 7.77777778 10.178499 8 10.4016227 8L13.5983773 8C13.821501 8 14 7.77777778 14 7.5 14 7.22222222 13.821501 7 13.5983773 7zM1 7.5C1 7.77777778 1.17849899 8 1.40162272 8L4.59837728 8C4.82150101 8 5 7.77777778 5 7.5 5 7.22222222 4.82150101 7 4.59837728 7L1.40162272 7C1.18255578 7 1 7.22727273 1 7.5zM10.6720715 4.88480636L12.8838518 2.67229394C13.0387161 2.51737835 13.0387161 2.27110228 12.8838518 2.11618669 12.7289874 1.9612711 12.4827929 1.9612711 12.3279285 2.11618669L10.1161482 4.32869911C9.96128392 4.4836147 9.96128392 4.72989076 10.1161482 4.88480636 10.191595 4.96027805 10.2948379 5 10.3941099 5 10.4933819 5 10.5966248 4.96027805 10.6720715 4.88480636z"/>
    <path fill="#15C99D" d="M0,10.7989581 L0,17.0774466 C0,17.4728266 0.334873607,17.7913272 0.74204947,17.7913272 L2.96058712,17.7913272 C3.2155477,17.7913272 3.43625985,17.6705166 3.5732536,17.4838094 C3.92715412,17.80231 4.39902147,18 4.92035879,18 L10.8643653,18 C12.196249,18 13.0448491,17.3263896 13.1970644,16.1548932 L13.9961946,11.2638957 C14,11.2455911 14,11.2272865 14,11.2089818 C14,10.1656179 13.1171514,9.31628297 12.0326176,9.31628297 L9.0606143,9.31628297 L9.0606143,7.26250336 C9.0606143,6.37289828 8.79043218,5.73223619 8.25387334,5.35149986 C7.40527317,4.75476889 6.24463169,5.09523503 6.19516173,5.10987873 C6.03914107,5.15747077 5.93259038,5.29658597 5.93259038,5.4540058 L5.93259038,7.78967674 C5.93259038,9.60915707 3.73307964,10.2315145 3.64175048,10.257141 C3.59608589,10.2681238 3.55042131,10.2900894 3.51617287,10.3193768 C3.37917912,10.1729397 3.18129927,10.0814166 2.9643925,10.0814166 L0.74204947,10.0814166 C0.331068225,10.0814166 0,10.4035781 0,10.7989581 Z M3.70644197,10.9673607 C3.75210655,10.9710216 3.79777113,10.9673607 3.84343572,10.9563779 C3.96140256,10.9234296 6.68605599,10.1656179 6.68605599,7.79333766 L6.68605599,5.7468799 C6.9790704,5.70294878 7.4623539,5.68830508 7.80864365,5.93724806 C8.13971188,6.17154734 8.30714868,6.61818034 8.30714868,7.25884243 L8.30714868,9.67505375 C8.30714868,9.87640469 8.47458549,10.0374854 8.68388149,10.0374854 L12.0326176,10.0374854 C12.694754,10.0374854 13.2313129,10.5463542 13.2465344,11.1796944 L12.4512096,16.0450654 C12.4512096,16.0487263 12.4512096,16.0523872 12.4512096,16.0560482 C12.3484643,16.8614519 11.8157108,17.2678148 10.8643653,17.2678148 L4.92035879,17.2678148 C4.25061158,17.2678148 3.70644197,16.7443023 3.70644197,16.0999793 L3.70644197,10.9673607 Z M0.753465616,10.80628 L2.95297635,10.80628 L2.95297635,17.0664638 L0.753465616,17.0664638 L0.753465616,10.80628 Z"/>
  </g>
</svg>
