<svg xmlns="http://www.w3.org/2000/svg" xmlns:xlink="http://www.w3.org/1999/xlink" width="51" height="51" viewBox="0 0 51 51">
  <defs>
    <polygon id="linkedin_icon-a" points="0 .492 0 51 50.508 51 50.508 .492"/>
  </defs>
  <g fill="none" fill-rule="evenodd">
    <mask id="linkedin_icon-b" fill="#fff">
      <use xlink:href="#linkedin_icon-a"/>
    </mask>
    <path fill="#FEFEFE" d="M50.508207,25.745871 C50.508207,39.693351 39.201507,51.000051 25.254027,51.000051 C11.306547,51.000051 -0.000153,39.693351 -0.000153,25.745871 C-0.000153,11.798391 11.306547,0.491691 25.254027,0.491691 C39.201507,0.491691 50.508207,11.798391 50.508207,25.745871" mask="url(#linkedin_icon-b)"/>
    <path fill="#5B5B70" d="M17.6812405,13 C16.1996107,13 15,14.1996107 15,15.6812405 C15,17.1628703 16.1996107,18.3619663 17.6812405,18.3619663 C19.1628703,18.3619663 20.3619663,17.1628703 20.3619663,15.6812405 C20.3619663,14.1996107 19.1628703,13 17.6812405,13 Z M37.8734002,25.3748769 C37.5203616,22.468227 36.1946657,20.6623781 32.2716146,20.6623781 C29.9712029,20.6623781 28.4190683,21.5089501 27.7701155,22.736351 L27.6996107,22.736351 L27.6996107,20.6623781 L23.423521,20.6623781 L23.423521,23.611228 L23.423521,36 L27.8972299,36 L27.8972299,28.3952609 C27.8972299,26.3907634 28.2919538,24.4583147 30.7482995,24.4583147 C33.2164817,24.4583147 33.3996912,26.743802 33.3996912,28.5357558 L33.3996912,36 L38,36 L38,27.576479 C38,26.786002 37.9572854,26.0526492 37.8734002,25.3748769 Z M15,24.7398192 L15,36 L20.3619663,36 L20.3619663,23.8227423 L20.3619663,20.6623781 L15,20.6623781 L15,24.7398192 Z"/>
  </g>
</svg>
