<svg xmlns="http://www.w3.org/2000/svg" width="64" height="64" viewBox="0 0 64 64">
  <g fill="none">
    <rect width="64" height="64" fill="#FFF" fill-opacity="0"/>
    <g transform="translate(6 3)">
      <path fill="#30E6B6" d="M25.6457143,5 C39.6707143,5.07285714 51,16.475 51,30.5 C51,44.5978571 39.5978571,56 25.5,56 C11.4021429,56 0,44.5978571 0,30.5 C0,17.75 9.32571429,7.22214286 21.5292857,5.29142857"/>
      <path fill="#29C49B" d="M42.2520372,23.021235 C40.9087813,22.7280905 40.5457392,25.549607 40.2553055,26.575613 C39.9648718,27.6016191 39.6381339,28.590982 38.8394412,30.3132064 C38.0770527,32.0720739 37.1331432,32.3652185 36.9153179,32.3652185 L36.7701011,32.2552892 C36.8427095,31.7056432 36.8790137,31.1559971 36.9153179,30.6429941 C36.9516221,28.8474835 36.58858,28.4077667 35.4268452,28.1879082 C34.3014146,28.0046929 33.9020682,28.3711236 33.6116345,29.1772712 C33.5027219,29.5070588 33.3938093,30.2399203 33.3575051,31.0827109 L32.9581587,31.1559971 C33.1396798,29.5437019 33.2122882,28.2611944 33.0307671,27.7115483 C32.7403334,26.7954715 32.3772913,26.6488992 31.0340354,26.6855423 C30.4168638,26.7221853 29.6907795,26.8687576 29.4003458,28.9207697 C29.3640416,29.1772712 29.3277374,29.4704158 29.2914332,29.7635603 C29.2914332,29.7635603 29.2914332,29.7635603 29.2914332,29.7635603 C29.4366501,27.6749052 28.8557827,27.0153299 27.8029605,26.8687576 C27.3310057,26.7954715 26.7501383,26.9420438 26.350792,26.9786868 C24.8986234,27.1252591 23.7731928,29.3604865 23.6642802,30.3498495 C23.5190634,31.4124986 23.9547139,32.14536 23.0834128,35.0768058 C22.7566749,36.212741 22.0305906,36.8356733 21.8127653,36.1028118 C21.2318979,34.5271597 20.0701631,33.2446522 20.0701631,33.2446522 C20.0701631,33.2446522 19.0899494,29.6536311 16.5123503,28.2611944 C15.0238775,27.4916899 14.0436638,27.6016191 13.4264922,27.9314067 C12.9545374,28.1879082 12.8456248,28.8474835 13.2449711,29.2139142 C13.8621427,29.8002034 14.8423565,30.8262094 15.5684407,32.0720739 C16.7301755,34.0874428 17.1658261,35.6630949 17.2021303,36.7623871 C17.2384345,37.8250362 17.1658261,38.4846115 18.0734314,38.9976145 C18.9810367,39.5472606 19.8160336,42.2222049 20.21538,44.4940753 C20.6147263,46.8025889 21.413419,47.7553088 22.5751538,48.3049548 C23.7368886,48.8546009 24.2814518,49.91725 23.4464549,51.8226898 C23.0834128,52.7021235 22.2847201,54.3510618 21.7038527,55.6702124 C23.0108044,55.8900708 24.3540603,56 25.7336203,56 C28.3838279,56 30.961427,55.5969262 33.3575051,54.8274217 C33.8294598,52.7021235 34.2651104,50.430253 35.0274988,49.6607485 C36.1892337,48.4515271 37.096839,46.7659458 37.6414022,44.823863 C38.3311822,42.4420633 38.1859654,40.4266943 39.0935707,38.8876853 C40.001176,37.3120332 39.7107423,35.2966642 40.2190013,34.4172305 C40.6909561,33.5377968 41.6711698,31.0094248 42.2520372,28.6276251 C42.8329046,26.2458254 43.5952931,23.3143796 42.2520372,23.021235 Z"/>
      <path fill="#FD7E23" d="M34.2604252,24.2145371 C34.5833612,22.0313518 37.2027307,20.1756443 36.98744,15.8092737 C36.7362676,10.6424018 32.9686814,8.75030784 32.9686814,8.75030784 C32.9686814,8.75030784 33.829844,10.3876968 33.3274991,12.7528142 C32.8969178,14.8268403 31.3181198,16.3914564 31.3181198,16.3914564 C31.3181198,16.3914564 32.3586912,13.334997 30.2416666,10.314924 C28.7705139,8.24089793 26.5458439,7.73148803 25.7564449,5.40275703 C24.9670459,3.07402604 27.1917158,1 27.1917158,1 C27.1917158,1 24.3570557,1.21831853 22.7423759,3.8381409 C20.6971148,7.1856917 22.0247404,10.4604697 22.7423759,12.5344957 C23.4600114,14.6085217 23.1370754,16.0275922 22.1682675,16.4278428 C21.1994596,16.8280935 19.9077158,16.100365 20.0871246,14.4629761 C20.338297,11.8431537 18.5442084,11.1518117 18.5442084,11.1518117 C19.2259621,12.3161772 19.1541985,13.6624748 18.0059818,14.972386 C17.1089374,15.9912058 15.4583758,18.6110281 16.1760113,22.6499209 C16.9295285,26.6888138 19.8359522,27.9259521 19.8359522,27.9259521 C19.8359522,27.9259521 21.7376862,29.1630904 24.3211739,29.818046 C27.6581789,30.6913202 31.9639917,31.0915708 33.4351445,30.9824115 C35.408642,30.8368658 35.408642,29.126704 35.8751051,27.7076336 L35.0498243,26.7615866 C35.0498243,26.7615866 33.9733711,26.0338582 34.2604252,24.2145371 Z"/>
      <path fill="#FDD353" d="M27.5739979,11 C27.5739979,11 29.7867965,12.4022472 29.5992712,14.7752809 C29.4117459,17.1483146 29.3742408,18.1910112 30.7619281,18.694382 C32.4871609,19.305618 35,17.2561798 35,17.2561798 C35,17.2561798 33.799838,18.7662921 33.8373431,20.6 C33.8373431,21.7146067 33.9873633,23.4404494 33.2747672,24.7707865 C32.7496963,25.705618 31.1369787,27 31.1369787,27 C31.1369787,27 31.0994736,26.1730337 30.6119078,25.6337079 C30.124342,25.094382 29.7492914,24.9865169 28.9241801,24.9865169 C27.1989472,24.9865169 27.048927,26.388764 27.048927,26.388764 C27.048927,26.388764 26.9739169,25.9932584 26.448846,25.5258427 C25.9612802,25.094382 24.8736334,24.9505618 23.8985018,25.3101124 C23.6359664,25.3820225 22.3607943,26.388764 22.3607943,26.388764 C22.3607943,26.388764 20.9731071,25.2741573 20.4480362,24.0157303 C19.5104097,21.8224719 20.335521,19.4134831 20.335521,19.4134831 C20.335521,19.4134831 21.1231273,21.0674157 22.6608348,20.9955056 C23.8985018,20.9235955 24.6861081,20.2044944 24.8361284,18.8741573 C25.0986638,16.788764 25.6987448,16.0337079 26.6363713,15.2426966 C28.7741598,13.3730337 27.5739979,11 27.5739979,11 Z"/>
      <path fill="#FDE4D2" d="M39.2710987,22.0219571 C37.9601008,21.7261798 37.6323513,24.4990921 37.3410184,25.4973405 C37.0496855,26.4955889 36.7219361,27.4568651 35.9936039,29.1575847 C35.2288551,30.8583042 34.3548564,31.1540815 34.1363568,31.1540815 L33.9906903,31.043165 C34.0635235,30.5255547 34.0999402,29.9709723 34.1363568,29.4903341 C34.1727734,27.7156703 33.8086073,27.3089765 32.716109,27.1241157 C31.6236107,26.9392549 31.2594446,27.3089765 30.9681117,28.0853919 C30.8588619,28.4181414 30.7496121,29.1206125 30.7131954,29.9709723 L30.3490293,30.0079444 C30.4946958,28.4551136 30.6039456,27.19806 30.4218626,26.6434775 C30.1305297,25.7561456 29.8027802,25.608257 28.4917822,25.6452291 C27.8726999,25.6822013 27.1807843,25.83009 26.925868,27.8265868 C26.8894514,28.0853919 26.8530348,28.3441971 26.8166182,28.6399744 C26.8166182,28.6399744 26.8166182,28.6399744 26.8166182,28.6399744 C26.9622846,26.6065054 26.3796189,25.9410064 25.3963704,25.83009 C24.9229545,25.7561456 24.3767053,25.9040343 23.9761226,25.9410064 C22.5922915,26.0519229 21.4997932,28.2702527 21.3541267,29.231529 C21.2084603,30.2667496 21.6454596,31.0061928 20.8078776,33.8530494 C20.4801281,34.9622143 19.7882125,35.5537689 19.5697128,34.8512978 C18.9870471,33.298467 17.8945488,32.0783856 17.8945488,32.0783856 C17.8945488,32.0783856 16.9477169,28.56603 14.4349709,27.2350322 C12.9783065,26.4586167 12.0314746,26.6065054 11.4123922,26.9022827 C10.9389763,27.1610878 10.8661431,27.7896146 11.2303092,28.1593362 C11.8493916,28.7508909 12.7598068,29.7121671 13.488139,30.9322485 C14.6170539,32.8917732 15.0176366,34.444604 15.0904698,35.4798246 C15.1633031,36.5150452 15.0540532,37.143572 15.9280519,37.6611822 C16.8020505,38.1787925 17.6032159,40.8038161 18.0037986,43.0221459 C18.3679647,45.2404757 19.1691301,46.201752 20.298045,46.7193623 C21.4269599,47.2369726 21.9367925,48.2721931 21.1356271,50.1577735 C20.4801281,51.6736322 18.6592976,55.6296537 18.6592976,55.6296537 C18.6592976,55.6296537 20.8807108,56.9606516 24.1946223,56.9976237 C27.5085338,57.0345959 29.729947,56.6279021 29.729947,56.6279021 C29.7663636,56.4800134 30.3490293,55.0011269 30.6767788,53.3743517 C31.1501948,51.2299662 31.5871941,48.8267756 32.3519429,48.013388 C33.4808578,46.8672509 34.3548564,45.2035036 34.864689,43.3179233 C35.5201879,40.988677 35.3745215,39.0291523 36.2849367,37.5132936 C37.1589354,35.9974349 36.9040191,34.0009381 37.377435,33.1505783 C37.850851,32.3002185 38.7976828,29.8230836 39.343932,27.4938373 C39.8173479,25.164591 40.5820967,22.3177344 39.2710987,22.0219571 Z"/>
      <g fill="#F2C2A0" transform="translate(14 27)">
        <path d="M11.0294118,19.7857143 C11.4705882,17.7142857 12.3529412,15 13.6029412,13.6428571 C14.3014706,12.8928571 15.8088235,11.6785714 17.0220588,11.5714286 C18.2352941,11.4642857 19.1176471,11.2142857 19.7426471,10.6071429 C20.4044118,10 18.7867647,10.3928571 17.0220588,10.25 C15.2205882,10.1071429 12.6102941,9.75 12.3161765,9.71428571 C12.0220588,9.67857143 9.85294118,9.39285714 9.66911765,9.39285714 C9.55882353,9.39285714 9.52205882,9.64285714 9.52205882,10.0714286 C8.75,9.07142857 7.83088235,8.53571429 7.13235294,8.42857143 C5.88235294,8.25 5.03676471,7.75 5.03676471,7.75 C5.03676471,7.75 4.41176471,5.82142857 3.78676471,5.07142857 C3.16176471,4.32142857 3.16176471,4.32142857 3.16176471,4.32142857 C3.16176471,4.32142857 2.94117647,3.35714286 2.24264706,2.17857143 C1.54411765,1 0.183823529,0.0714285714 0.183823529,0.0714285714 C1.36029412,1.03571429 1.72794118,2.42857143 1.80147059,3.60714286 C1.875,4.82142857 1.47058824,6.14285714 1.47058824,6.14285714 C1.47058824,6.14285714 1.875,5.67857143 2.27941176,5.78571429 C2.68382353,5.89285714 3.38235294,7.64285714 3.41911765,8.53571429 C3.45588235,9.42857143 3.125,9.96428571 3.125,9.96428571 C3.125,9.96428571 4.19117647,9.60714286 5.03676471,9.71428571 C6.47058824,9.92857143 7.5,10.5 8.38235294,12 C9.30147059,13.5 10.5882353,15.8928571 10.8823529,17.5714286 C11.1764706,19.0714286 11.0294118,19.7857143 11.0294118,19.7857143 Z"/>
        <path d="M22.4632353,3.32142857 C21.5441176,3.82142857 20.6617647,3.32142857 20.6617647,3.32142857 L19.5955882,3.89285714 L18.9705882,7.39285714 C18.9705882,7.39285714 19.8529412,7.35714286 20.4779412,8.10714286 C21.1029412,8.85714286 20.9926471,10.5357143 20.1470588,11.7857143 C19.5220588,12.6785714 19.0808824,13.6071429 18.4191176,14.7142857 C18.4191176,14.7142857 18.4191176,14.7142857 18.4191176,14.75 C18.4191176,14.75 18.3823529,14.7857143 18.3823529,14.7857143 C18.125,15.2142857 17.8308824,15.6785714 17.5,16.1428571 C17.3529412,16.3571429 17.1691176,16.5714286 16.9852941,16.75 C16.5073529,17.25 15.9926471,17.6428571 15.2941176,17.8214286 C15.2941176,17.8214286 15.2941176,17.8214286 15.2573529,17.8214286 C14.0441176,18.1428571 13.0147059,18.3571429 13.0147059,18.3571429 C13.0147059,18.3571429 14.2279412,19.6071429 16.0661765,19.8214286 C17.2426471,19.9285714 18.125,19.3928571 18.6397059,19 C19.4852941,17.6785714 20.4779412,15.9642857 20.6617647,14.7857143 C20.9191176,13.0714286 21.8014706,10.0357143 22.3161765,8.89285714 C22.8308824,7.71428571 22.6470588,6.14285714 23.1617647,5.25 C23.5661765,4.60714286 24.4485294,1.67857143 24.8161765,0.535714286 C24.4117647,1.42857143 23.2720588,2.85714286 22.4632353,3.32142857 Z"/>
      </g>
      <path fill="#F2C2A0" d="M34 46L29.9101124 46.2205882C29.9101124 46.2205882 28.6910112 50.5955882 28.3764045 51.8455882 27.9831461 53.4264706 27.4325843 54.9705882 27 56 28.9269663 55.8897059 30.1460674 55.6691176 30.1460674 55.6691176 30.1853933 55.5220588 30.8146067 54.0514706 31.1685393 52.4338235 31.6797753 50.3014706 32.1516854 47.9117647 32.9775281 47.1029412 33.3707865 46.7720588 33.7247191 46.4044118 34 46zM22 34.5069151C22 34.5793316 22.0377626 34.651748 22.0377626 34.7241645 22 36.425951 22.717489 37.3673648 23.7748411 37.9829046 24.9077184 38.6346526 26.2294086 37.7656552 26.2294086 37.7656552 26.2294086 37.7656552 26.9468976 38.8156937 28.2685877 38.9605266 30.118954 39.2139842 31.0630184 38.1639457 31.0630184 38.1639457 31.0630184 38.1639457 32.3847086 39.0329431 33.8574491 38.1277375 35.3301896 37.2225319 35.028089 35.1948714 34.8392761 34.7965809 34.6504632 34.3982905 33.2532479 34 33.2532479 34 33.2532479 34 32.7245718 36.8242414 31.81827 36.8604497 30.9497307 36.8966579 30.118954 34.7603727 30.118954 34.7603727L29.2881773 34.5793316C29.2881773 34.5793316 28.7217387 36.4621592 27.9287246 36.5707839 27.1357104 36.6794085 25.927308 34.4707069 25.927308 34.4707069 25.927308 34.4707069 25.0210061 36.2811181 24.227992 36.2811181 23.1706399 36.2811181 22 34.651748 22 34.651748"/>
      <path fill="#F2C2A0" d="M23.0032338,33.1463415 C23.3020574,33.9146341 24.9082345,32.8902439 25.6926466,31.4268293 C26.6638234,29.6341463 27,27 27,27 C27,27 26.962647,31.097561 26.4770586,33.0731707 C25.9914702,35.0487805 26.5517645,36 25.35647,36 C24.1611754,36 22.9285278,35.7804878 23.0032338,34.902439 C23.0779397,34.0243902 23.0032338,33.1463415 23.0032338,33.1463415 Z"/>
      <path fill="#F2C2A0" d="M26 33.1055483C26 33.1055483 28.037037 33.1055483 28.8148148 31.4821077 29.5925926 29.8939593 30 27 30 27 30 27 29.6296296 32.6114577 29.2222222 34.1996061 28.8148148 35.7524623 27.962963 35.9642155 27.2592593 35.9995077 26.5925926 36.0347998 26 34.1643139 26 33.1055483zM33.8342001 28C33.7534801 29.1599904 32.8655601 32.4224633 31.8162001 33.8362016 30.76684 35.2499399 30 35.2861896 30 35.2861896 30 35.2861896 30.24216 37.5336709 31.8162001 36.8811763 33.3902401 36.2286818 33.1480801 33.5099543 33.7131201 31.9149675 34.2781601 30.3199808 33.8342001 28 33.8342001 28zM39 27.5C39.1 27.3408502 39.15 27.2214878 39.2 27.1021254 39.3 26.8634007 39.2 27.062338 39 27.5z"/>
      <path fill="#4D5052" d="M26.0182798,57 C11.6899032,57 0,45.3183099 0,31 C0,24.7746479 2.23537333,18.7323944 6.30301989,14.0084507 C10.334021,9.35774648 15.9041316,6.24507042 21.9506332,5.29295775 C22.1338605,5.25633803 22.3537333,5.4028169 22.3537333,5.58591549 C22.3903788,5.76901408 22.2437969,5.98873239 22.0605696,5.98873239 C16.1972953,6.97746479 10.810412,9.98028169 6.88934732,14.5211268 C2.93163716,19.0985915 0.732909289,24.9577465 0.732909289,31 C0.732909289,44.915493 12.0930033,56.2676056 26.0182798,56.2676056 C39.9435563,56.2676056 51.3036503,44.915493 51.3036503,31 C51.3036503,17.1577465 40.0168472,5.8056338 26.1648616,5.73239437 C25.9449888,5.73239437 25.798407,5.54929577 25.798407,5.36619718 C25.798407,5.14647887 25.9816343,5 26.1648616,5 C26.1648616,5 26.1648616,5 26.1648616,5 C40.4199473,5.07323944 51.9999141,16.7549296 51.9999141,31 C52.0365595,45.3549296 40.3466564,57 26.0182798,57 Z"/>
      <path fill="#4D5052" d="M17.9244404,55 C17.8883406,55 17.816141,55 17.7800412,54.9638651 C17.5995422,54.8915952 17.5273427,54.6747857 17.5995422,54.494111 C17.635642,54.4579761 19.4045319,50.6276739 20.0543282,49.1822768 C20.6680247,47.7368797 20.451426,46.7973716 19.4045319,46.3276176 C18.0327398,45.6771889 17.2746441,44.5208712 16.9136462,42.4250455 C16.4804486,39.9678705 15.6862532,37.7997749 15.0364569,37.4384256 C14.0978622,36.8964017 14.0617624,36.1737032 14.0256626,35.3425998 C14.0256626,35.2341951 14.0256626,35.1257903 14.0256626,35.0173855 C13.9895628,34.3308219 13.7729641,32.8854248 12.5094713,30.7173292 C11.859675,29.5971465 10.9571802,28.6576384 10.3434837,28.0794796 C10.0907851,27.8265351 9.94638593,27.4651858 10.0185855,27.1038365 C10.0546853,26.7424873 10.3073839,26.4172729 10.632282,26.2727332 C11.2459785,25.9475189 12.3289723,25.7668442 13.9534631,26.5979476 C16.3721492,27.86267 17.3829435,30.9341388 17.5273427,31.4761627 C17.7800412,31.801377 18.8991348,33.1383693 19.3684321,34.6921712 C19.8016297,34.764441 20.7763241,34.9812506 21.7871183,35.6678142 C22.545214,36.1737032 25,38.1249892 25,41.5578072 C25,41.7746168 24.8556008,41.9191565 24.6390021,41.9191565 C24.4224033,41.9191565 24.2780041,41.7746168 24.2780041,41.5578072 C24.2780041,38.4863385 22.0398169,36.7157271 21.3900206,36.2821079 C20.1987274,35.4510046 19.0796338,35.4148697 19.0796338,35.4148697 C18.9352346,35.4148697 18.7908354,35.3064649 18.7547356,35.1257903 C18.3576379,33.4274487 16.9858457,31.9097818 16.9858457,31.9097818 C16.949746,31.8736469 16.9136462,31.801377 16.9136462,31.7652421 C16.9136462,31.7291072 16.0111513,28.4769638 13.6646647,27.2483762 C12.6177707,26.7063523 11.679176,26.5979476 11.0293797,26.9231619 C10.9210804,26.9954318 10.8488808,27.1038365 10.812781,27.2122413 C10.7766812,27.356781 10.8488808,27.4651858 10.9210804,27.5735906 C11.5708767,28.1878843 12.5094713,29.1635274 13.1953674,30.3921149 C14.5310598,32.6686153 14.7837583,34.258552 14.8198581,35.0173855 C14.8198581,35.1257903 14.8198581,35.2341951 14.8198581,35.3425998 C14.8559579,36.1375682 14.8559579,36.4989175 15.4696544,36.8602668 C16.8414466,37.6552352 17.5995422,41.8830216 17.6717418,42.3527756 C18.0688396,44.629276 18.8991348,45.3158396 19.7294301,45.7133238 C20.5597253,46.110808 21.7871183,47.086451 20.7402243,49.5436261 C20.090428,51.0251581 18.2854383,54.8554603 18.2854383,54.8915952 C18.1771389,54.9277301 18.0688396,55 17.9244404,55 Z"/>
      <path fill="#4D5052" d="M24.34521 36C23.9806405 36 23.652528 35.8939836 23.3973294 35.7172896 22.7411043 35.2578851 22.3765348 34.3037373 22.3400779 32.7841687 22.267164 30.6991791 22.3036209 27.9427522 22.3036209 27.9074134 22.3036209 27.6953806 22.4494487 27.5540254 22.6681904 27.5540254 22.8869321 27.5540254 23.0327599 27.7307194 23.0327599 27.9074134 23.0327599 27.9427522 23.0327599 30.6638403 23.0692168 32.7488298 23.1056738 33.9856881 23.3608724 34.8338194 23.8348128 35.1518687 24.0900114 35.3285627 24.4545809 35.3639015 24.8920643 35.2225463 25.1837198 35.1165298 25.8764019 33.4909448 26.2409713 28.0487686 26.3867991 26.0344567 25.7305741 25.7870851 25.1108059 25.7164074 24.8191504 25.6810686 24.4545809 25.7164074 24.1629253 25.7870851 24.0170975 25.8224239 23.9077267 25.8224239 23.7983558 25.8224239 22.6317335 25.9284403 21.6473959 27.8367358 21.5015681 28.6495283 21.4651111 28.9322388 21.4651111 29.1796104 21.4651111 29.4976597 21.5015681 30.2044358 21.5015681 31.1585836 20.9182569 33.1022179 20.6995152 33.8443328 20.1891179 34.5864478 19.6422637 34.5864478 19.6422637 34.5864478 19.6422637 34.5864478 19.6422637 34.5864478 19.4964359 34.5864478 19.1683234 34.551109 19.0224956 34.0563657 18.9495817 33.8796716 19.0589525 33.6676388 19.2776942 33.6323 19.459979 33.5616224 19.6787206 33.6676388 19.7151776 33.8443328 19.8610054 33.7383164 20.0797471 33.455606 20.2620318 32.8901851 20.845343 31.0525672 20.808886 30.2044358 20.7724291 29.4976597 20.7724291 29.1796104 20.7359721 28.8615612 20.808886 28.5435119 20.9547138 27.6600418 22.0484223 25.257003 23.7618989 25.1156477 23.8712697 25.1156477 23.9806405 25.0803089 24.0900114 25.0803089 24.4181239 25.0449701 24.8556073 24.9742925 25.2201768 25.0096313 26.9701103 25.2216642 27.0794812 26.8472492 26.9701103 28.0841075 26.459713 35.4699179 25.4753754 35.7879672 25.1108059 35.8939836 24.8556073 35.9646612 24.6004087 36 24.34521 36zM29.3512805 56C29.3147894 56 29.2782983 56 29.2418071 55.9634182 29.0593515 55.8902546 28.949878 55.7073457 29.0228603 55.4878549L29.0593515 55.3781095C29.460754 54.2806557 29.752683 53.2563655 29.9716299 52.3418207 30.0446121 52.0857482 30.0811033 51.8296756 30.1540855 51.5736031 30.5919792 49.5250226 30.9933817 47.6227694 31.7596956 46.8545518 32.8179385 45.757098 33.6572346 44.2206627 34.2046017 42.3549912 34.4600397 41.4404464 34.6060042 40.5990652 34.7154776 39.7942657 34.8979333 38.6236483 35.080389 37.4896128 35.627756 36.5384861 36.1021408 35.7336867 36.2116142 34.7459783 36.3210876 33.9045971 36.3940699 33.2461248 36.4670522 32.6608161 36.685999 32.2218346 37.1238926 31.4536169 38.036171 29.0392186 38.6200292 26.7345656L38.6930115 26.4419113C39.094414 24.7591488 39.6052899 22.6739866 39.1673963 21.9423508 39.094414 21.8326054 39.0214317 21.7594418 38.8754672 21.7594418 38.1456444 21.6131146 37.7442419 23.3324589 37.5252951 24.2835855 37.4523128 24.5396581 37.4158217 24.7591488 37.3793306 24.9420578 37.0874015 25.9297662 36.7589813 26.8808928 35.9926674 28.6002371 35.2263535 30.3195813 34.2410928 30.7951447 33.7667081 30.7951447 33.5477612 30.7951447 33.4017967 30.6488175 33.4017967 30.4293267 33.4017967 30.209836 33.5477612 30.0635088 33.7667081 30.0635088 33.8031992 30.0635088 34.5695131 29.9537634 35.2993358 28.3075827 36.0656497 26.5882385 36.3575787 25.6736936 36.6495078 24.722567 36.685999 24.5762399 36.7589813 24.3567491 36.7954724 24.1006765 37.0874015 22.8203138 37.5617863 20.7351516 38.9849406 21.0278059 39.3133608 21.1009695 39.5687988 21.2838785 39.7147633 21.539951 40.3351126 22.5276594 39.8242367 24.5762399 39.3133608 26.5882385L39.2403785 26.8808928C38.6565203 29.2952911 37.7077508 31.7462713 37.233366 32.5510707 37.0874015 32.8437251 37.0144192 33.392452 36.9414369 33.9411789 36.8319635 34.8191419 36.7224901 35.9165957 36.1386319 36.8677223 35.627756 37.7091035 35.4817915 38.6968119 35.2993358 39.8674293 35.1898624 40.6722288 35.0438978 41.5501918 34.7519687 42.5013184 34.1681106 44.4767352 33.2923233 46.1229159 32.1246069 47.2935333 31.5042576 47.9154238 31.066364 49.9274224 30.7014526 51.6833484 30.6284703 51.939421 30.5919792 52.1954935 30.5189969 52.4515661 30.3000501 53.4026927 30.008121 54.4635647 29.5702274 55.5976003L29.5337362 55.7073457C29.6432096 55.8902546 29.4972451 56 29.3512805 56z"/>
      <path fill="#4D5052" d="M31.4517375,37 C31.3211528,37 31.1905682,37 31.0599835,36.962139 C29.8194293,36.6971123 29.9500139,34.7283425 30.0805986,32.7974336 C30.1132448,32.2295192 30.1458909,31.5858829 30.1785371,30.9801075 C30.2438294,29.3899472 30.3417679,27.8755089 30.5049987,27.2697335 C30.766168,26.4746534 31.157922,25.7931561 32.4311224,26.0581829 C33.6390305,26.2853486 34.0307844,26.9668459 33.9981383,28.8598938 C33.9654921,30.3364712 33.7043228,32.0023534 33.4757997,33.327487 C33.4105073,33.6682356 33.3778612,33.9711233 33.345215,34.23615 C33.149338,35.2205349 32.8881687,37 31.4517375,37 Z M31.9087838,26.7396801 C31.4190913,26.7396801 31.2558605,27.0047068 31.0926297,27.5347603 C30.9293989,28.0269527 30.8641065,29.617113 30.7988142,31.0179685 C30.766168,31.6616048 30.7335219,32.2673801 30.7008757,32.8352945 C30.6029372,34.4633157 30.4723526,36.091337 31.157922,36.2427808 C32.1373069,36.4320856 32.4311224,35.6748664 32.6596456,34.1225671 C32.6922917,33.8575404 32.7575841,33.5546527 32.8228764,33.2139041 C33.0513995,31.9266315 33.3125688,30.2986103 33.345215,28.8598938 C33.3778612,27.0804288 33.0513995,26.9668459 32.3331839,26.815402 C32.1699531,26.7775411 32.0393684,26.7396801 31.9087838,26.7396801 Z"/>
      <path fill="#4D5052" d="M27.8402274 37C26.8918855 37 26.0952782 36.7091929 26.0194108 34.419087 25.9056098 31.511016 26.3228803 28.3848397 26.474615 27.4760676 26.7780844 25.3677161 27.6126254 25.0405581 28.4851 25.0042072 29.9265798 24.9678563 30.495585 25.1496108 30.8749218 26.2401374 31.1404575 27.003506 30.9507891 28.7483486 30.609386 31.5473669 30.5335187 32.0562793 30.495585 32.6015426 30.4197176 33.146806 30.1162482 35.8367716 29.4713756 36.9272982 28.1816306 36.9636491L28.0298958 36.9636491C27.9540285 37 27.9160948 37 27.8402274 37zM28.8644368 25.7675759C28.7506357 25.7675759 28.6368347 25.7675759 28.4851 25.7675759 28.4851 25.7675759 28.4851 25.7675759 28.4851 25.7675759 28.0678295 25.7675759 27.4608906 25.8039267 27.1953549 27.6214711 27.0815539 28.4938924 26.6642834 31.5837178 26.7780844 34.419087 26.8539518 36.345684 27.3470896 36.3093331 27.9919622 36.3093331L28.1436969 36.3093331C28.5230337 36.3093331 29.2817073 36.3093331 29.6231104 33.146806 29.6989777 32.6015426 29.7369114 32.0562793 29.8127788 31.5473669 30.0783145 29.2936119 30.3438503 27.1852605 30.1162482 26.5309445 29.9265798 25.9493303 29.8507124 25.7675759 28.8644368 25.7675759zM29.662299 47C29.4692443 47 29.3920224 47 29.3534115 47 29.1217458 47 28.9673021 46.8763736 29.005913 46.728022 29.044524 46.5796703 29.1989677 46.4807692 29.4306333 46.5054945 29.4692443 46.5054945 30.9750708 46.5796703 32.4036755 46.0357143 32.5967302 45.9615385 32.8283958 46.010989 32.9442286 46.1098901 33.0600615 46.2335165 32.9828396 46.3818681 32.8283958 46.456044 31.515624 46.9258242 30.241463 47 29.662299 47zM29.2123552 41C29.1737452 41 29.0965251 40.9538619 29.0579151 40.9077238 28.980695 40.8154475 28.980695 40.6770332 29.0579151 40.584757 30.2934363 39.2928897 32.2239382 38.6930942 33.8455598 39.1544754 33.96139 39.2006135 34 39.2928897 34 39.431304 33.96139 39.5697184 33.8841699 39.6158565 33.7683398 39.6158565 32.3011583 39.2006135 30.4478764 39.7542709 29.3281853 40.9538619 29.2895753 40.9538619 29.2509653 41 29.2123552 41zM36.0732015 33C35.6815931 33 35.2899848 32.8656203 35.1996137 32.8320254 35.0489951 32.7648356 34.9586239 32.5632661 35.0188714 32.3952915 35.0791188 32.2273169 35.2598611 32.1265321 35.4104797 32.193722 35.7719643 32.3281016 36.3443149 32.4288864 36.4346861 32.193722 36.4949335 32.0257474 36.6756758 31.9585575 36.8262944 32.0257474 36.976913 32.0929372 37.0371604 32.2945067 36.976913 32.4624813 36.7961707 32.8656203 36.4346861 33 36.0732015 33z"/>
      <path fill="#4D5052" d="M24.1753369 35C24.1753369 35 24.1753369 35 24.1753369 35 24.0701348 35 24 34.8909091 24 34.8181818 24 34.7454545 24.1052021 33 25.0870888 33 25.3676279 33 25.5429648 33.0727273 25.7183017 33.2545455 26.0339081 33.6181818 25.9988407 34.2 25.9988407 34.2363636 25.9988407 34.3454545 25.928706 34.4181818 25.8235038 34.4181818 25.7183017 34.4181818 25.6481669 34.3090909 25.6481669 34.2363636 25.6481669 34.1272727 25.6481669 33.7272727 25.47283 33.5454545 25.4026953 33.4363636 25.2624257 33.4 25.1221562 33.4 24.4909433 33.4 24.3857412 34.8909091 24.3857412 34.8909091 24.3506738 34.9272727 24.2454717 35 24.1753369 35zM28.8040124 37C28.8040124 37 28.7706133 37 28.8040124 37 28.7038151 37 28.637017 36.8753318 28.637017 36.7506635 28.7038151 36.3351027 28.7372142 35.0884203 28.4366225 34.6313034 28.3364253 34.5066352 28.2362281 34.423523 28.1026318 34.423523 27.9356364 34.423523 27.8020401 34.4650791 27.7018429 34.6313034 27.3678521 35.0468642 27.334453 35.961098 27.334453 36.2935466 27.334453 36.4182149 27.2676549 36.501327 27.1674577 36.501327 27.0672604 36.501327 27.0004623 36.4182149 27.0004623 36.2935466 27.0004623 36.2519906 26.9670632 34.922196 27.4680493 34.2988548 27.6350447 34.0910744 27.8688382 33.9664061 28.1026318 34.0079622 28.3364253 34.0079622 28.5368198 34.1326305 28.6704161 34.3819669 29.1380031 35.1299764 28.9710077 36.7506635 28.9710077 36.8337757 28.9376087 36.9168878 28.8708105 37 28.8040124 37zM31.8726221 35C31.8436219 35 31.8436219 35 31.8726221 35 31.7856214 35 31.7276209 34.9225532 31.7276209 34.8451064 31.7566212 34.6385817 31.7566212 34.3804257 31.5826197 34.2771633 31.4376185 34.1997165 31.2636171 34.2513477 31.2346169 34.2771633 31.1766164 34.3287945 31.0896157 34.3029789 31.0316152 34.2513477 30.9736147 34.1997165 31.0026149 34.1222697 31.0606154 34.0706385 31.1476161 34.0190073 31.4666188 33.9415606 31.6986207 34.0706385 31.8726221 34.1739009 32.0466235 34.3804257 31.9886231 34.870922 31.9886231 34.9483688 31.9306226 35 31.8726221 35zM20.210804 28C20.1746009 28 20.1021947 28 20.0659917 27.9632063 19.9211794 27.9264126 16.9525276 26.565046 16.1922631 22.370565 15.3957955 18.0289093 17.2783552 15.2693824 18.1110258 14.3127464 19.1247118 13.1353482 19.2695241 11.9947438 18.6178688 10.8541393 18.5454627 10.7069645 18.5454627 10.5597898 18.6540719 10.412615 18.7626811 10.3022339 18.9074934 10.2654402 19.0523057 10.3022339 19.1247118 10.3390276 21.1158807 11.1484888 20.8262562 14.0183968 20.75385 14.6806833 20.9710684 15.195795 21.3693022 15.4901445 21.6951299 15.7109067 22.0933636 15.7844941 22.4553944 15.6373193 23.288065 15.3061761 23.4328773 13.8344284 22.8174251 12.1051248L22.7088158 11.7739816C21.9485514 9.63994744 20.8262562 6.3653088 22.8536281 3.01708279 24.5551725.257555848 27.4876212 0 27.6324335 0 27.7772458 0 27.922058.073587385 27.9944642.220762155 28.0668703.367936925 28.0306673.515111695 27.922058.625492773 27.885855.662286465 25.858483 2.57555848 26.5825444 4.67279895 27.0169813 5.92378449 27.8496519 6.62286465 28.8633379 7.39553219 29.6236024 7.98423127 30.3838669 8.60972405 31.0717252 9.52956636 32.4112388 11.4060447 32.5560511 13.282523 32.483645 14.5335085 32.9180818 13.9080158 33.3525187 13.0617608 33.533534 12.1051248 34.004174 9.89750329 33.2077064 8.31537451 33.2077064 8.31537451 33.1353003 8.16819974 33.1715033 7.98423127 33.2801125 7.8738502 33.3887217 7.76346912 33.5697371 7.72667543 33.7145494 7.80026281 33.8955647 7.8738502 37.6968872 9.86070959 37.9865117 15.2693824 38.131324 18.1760841 37.081435 20.0525624 36.2125613 21.5243101 35.7419214 22.370565 35.3074845 23.1064389 35.1988753 23.8423127 34.9454538 25.4244415 35.8143275 26.0499343 35.8505306 26.086728 35.9953429 26.1971091 36.0315459 26.4178712 35.9229367 26.6018397 35.8143275 26.7490145 35.5971091 26.8226018 35.4160937 26.6754271 35.3798906 26.6386334 34.1489862 25.7555848 34.4748139 23.7319317 34.6196262 22.848883 35.0902661 22.0394218 35.560906 21.1563732 36.3935766 19.6846255 37.3710595 17.9921156 37.2262473 15.3061761 37.0452319 11.847569 35.3074845 9.89750329 34.2213924 9.05124836 34.4024077 9.8239159 34.54722 10.9277267 34.2575954 12.2522996 33.8231586 14.4599212 32.1940204 16.0788436 32.1216143 16.1156373 32.0130051 16.2260184 31.8319897 16.2628121 31.6871774 16.152431 31.5423651 16.0788436 31.469959 15.8948752 31.5423651 15.7109067 31.5423651 15.674113 32.519848 12.7306176 30.4924761 9.89750329 29.8770239 9.05124836 29.1529625 8.46254928 28.428901 7.91064389 27.379012 7.10118265 26.4015291 6.32851511 25.9308892 4.85676741 25.3878431 3.23784494 26.1119045 1.76609724 26.7273567.88304862 25.7860769 1.17739816 24.4465632 1.83968463 23.5052834 3.34822602 21.6589268 6.4021025 22.7088158 9.45597898 23.4328773 11.4428384L23.5414865 11.8107753C24.301751 13.9816032 23.9759233 15.7477004 22.7450189 16.2628121 22.1657698 16.5203679 21.4779114 16.4099869 20.9710684 16.0420499 20.3556162 15.6005256 20.0659917 14.7910644 20.1383978 13.9080158 20.247007 12.9145861 20.0297886 12.2522996 19.740164 11.7739816 19.8487732 12.7674113 19.4867425 13.760841 18.690275 14.6806833 17.9300105 15.5637319 16.1922631 18.1024967 16.9525276 22.1130092 17.6403859 25.9395532 20.3918193 27.1537451 20.4280224 27.1905388 20.6090377 27.2641261 20.6814439 27.4848883 20.6090377 27.6688568 20.4642255 27.8896189 20.3556162 28 20.210804 28z"/>
      <path fill="#FD7E23" d="M39 13C39.6 14.0769231 39.8 15.1153846 39.7666667 16.2692308 39.7333333 17.5769231 39.2 19 39.2 19 39.2 19 41 17.9615385 41 15.6923077 41 13.3461538 39 13 39 13zM14.7191209 18C13.384945 19.1851852 12.6827472 20.3703704 13.1391758 22.2222222 13.5253846 23.7777778 15 24 15 24 15 24 14.2978022 22.6666667 14.2626923 21.0740741 14.2626923 19.6296296 14.7191209 18 14.7191209 18zM17 8.68431034C17.6442675 8.64974781 18.1274681 8.78799793 18.8683758 9.41012352 19.57707 9.99768656 19.8992038 11 19.8992038 11 19.8992038 11 20.2857643 9.37556098 19.5448567 8.51149768 18.4818153 7.26724651 17 8.68431034 17 8.68431034z"/>
    </g>
  </g>
</svg>
