<svg xmlns="http://www.w3.org/2000/svg" width="64" height="64" viewBox="0 0 64 64">
  <g fill="none">
    <rect width="64" height="64" fill="#FFF" fill-opacity="0"/>
    <g transform="translate(1 6)">
      <path fill="#C9C9C9" d="M40 45.5019763C43.2764505 44.1501976 47.4129693 43.2252964 49.8293515 43.0474308 51.3856655 42.9407115 52 43.0474308 52 43.0474308L48.9692833 46C48.9692833 46 48.3549488 45.8221344 46.4709898 45.2529644 43.440273 44.2924901 40 45.5019763 40 45.5019763zM43 17.778864C43.276593 18.1990122 43.3995233 18.6541727 43.5839186 19.389432 43.7375814 20.1246913 43.7375814 20.1246913 43.7375814 20.1246913 43.7375814 20.1246913 44.0141744 19.1793579 44.9668838 18.8992591 45.858128 18.6541727 46.5342442 19.5995061 46.687907 20.1246913 46.8415698 20.6498765 46.8723024 21 46.8723024 21 46.8723024 21 47.3332908 19.0393085 46.5035117 18.1289875 45.6737326 17.2186664 44.813221 16.8685429 44.2600349 17.0436047 43.7068488 17.2536788 43 17.778864 43 17.778864zM4 27C5.01351351 27.0365297 6.67567568 27.2191781 7.81081081 27.9497717 8.98648649 28.716895 9.67567568 29.8858447 9.67567568 29.8858447 9.67567568 29.8858447 11.5810811 29.2648402 13.2432432 29.8858447 15.6756757 30.7990868 16 33.1369863 16 33.1369863 16 33.1369863 14.8243243 33.1004566 13.7702703 33.5022831 12.7162162 33.9041096 11.0135135 35 11.0135135 35 11.0135135 35 11.7027027 34.4520548 10.8108108 33.5388128 9.91891892 32.6255708 9.31081081 32.5890411 8.7027027 32.6986301 6.83783784 32.9543379 4.97297297 33.5388128 4.97297297 33.5388128 4.97297297 33.5388128 5.25675676 33.0273973 4.97297297 32.6621005 4.64864865 32.2968037 4.04054054 27.2557078 4.04054054 27.2557078L4 27zM18 50.482645C18 50.482645 19.1047619 49.1091888 21.5428571 48.5342536 23.9809524 47.9593184 26.8761905 49.4924789 26.8761905 49.4924789 26.8761905 49.4924789 27.6761905 48.3745494 29.2761905 48.0870818 30.8761905 47.7996142 32.3238095 48.2787268 33.047619 48.7258986 33.7714286 49.1730705 34 49.6202423 34 49.6202423 34 49.6202423 32.7428571 49.460538 31.2952381 49.684124 29.8095238 49.9077099 28.8571429 50.7701126 28.4 51.3450478 27.9428571 51.919983 27.6380952 53.1976168 26.8761905 52.9740308 25.7714286 52.6226816 20.7809524 51.6963971 19.8285714 51.2172844 18.8761905 50.7381718 18 50.482645 18 50.482645zM20 37.3435911C20 37.3812861 21.5100671 36.5519974 23.1208054 37.3435911 24.7315436 38.1351848 25 40.2837962 25 40.2837962 25 40.2837962 24.4295302 39.831457 23.4563758 39.793762 22.4832215 39.793762 21.7114094 40.0199316 21.2751678 40.3591861 20.8389262 40.6984405 20.5369128 41 20.5369128 41 20.5369128 41 20.738255 39.9445418 20.5033557 39.0021683 20.3020134 38.0221 20 37.3435911 20 37.3435911zM27 41.3243808C27 41.3243808 27.9206349 40.7185095 29.031746 41.1628151 30.5873016 41.7686864 31 43.7882574 31 43.7882574 31 43.7882574 29.7936508 43.4651261 29 43.7882574 28.2063492 44.1113888 27.1904762 45 27.1904762 45 27.1904762 45 27.4126984 43.7882574 27.3492063 42.6572977 27.2857143 41.5263379 27 41.3243808 27 41.3243808zM29 14.3265763C30.0297782 14.1025871 31.0240467 15.1329376 31.4501618 15.6705118 32.1603536 16.5664688 32.1603536 18 32.1603536 18 32.1603536 18 33.261151 16.6112667 33.6517565 16.4320753 34.042362 16.2528839 34.1844003 16.521671 33.6517565 15.6705118 33.1191126 14.8193527 32.6219783 14.1025871 31.7342385 14.0129914 30.8464988 13.9233957 29 14.3265763 29 14.3265763zM20 13.0937973C20.9003472 12.3585477 22.888614 12.3177005 24.1265915 14.2375189 25.3645689 16.1573374 24.1265915 19.1391831 24.1265915 19.1391831 24.1265915 19.1391831 25.8147425 18.5673222 27.3153213 19.8744327 29.0785013 21.3857791 28.8534145 24 28.8534145 24 28.8534145 24 29.378617 20.6505295 28.4407553 17.1376702 27.4653791 13.4614221 26.7526042 13.2163389 25.7021991 12.5627837 24.651794 11.9092284 23.1137008 11.9500756 22.5509838 12.0726172 21.9507523 12.1951589 20 13.0937973 20 13.0937973zM43 25C43 25 43.07824 23.2227979 44.9951209 22.5336788 46.9120017 21.8445596 48.5941624 23.1139896 48.5941624 23.1139896 48.5941624 23.1139896 47.655282 21.4455959 49.1418427 19.9948187 50.6284033 18.5440415 53.3276845 19.5595855 53.3276845 19.5595855 53.3276845 19.5595855 53.2885645 18.8704663 53.6406446 18.4352332 53.9927248 18 54.2274449 18 54.2274449 18 54.2274449 18 55.3228054 21.0103627 55.5575255 22.2435233 55.7922456 23.4766839 56.731126 23.984456 54.8533652 24.3108808 52.9756043 24.6373057 50.7066434 24.8549223 49.3374428 24.9637306 47.9682422 25.0725389 46.6381616 24.6010363 45.7384012 24.6735751 44.8386408 24.746114 43 25 43 25zM48.3736563 38C48.3736563 38 49.0729694 37.3274881 49.6618647 37.0350916 50.2507599 36.7426952 50.8764611 36.2163815 52.2750873 36.3625797 53.6737135 36.4795383 54.7042802 37.0643313 55.0355338 36.3625797 55.3667874 35.6608282 55.9188767 34.1111269 55.9188767 34.1111269 55.9188767 34.1111269 56.3605481 33.9064493 55.1827576 34.0526476 54.0049671 34.1988458 49.8827004 35.0175559 49.8827004 35.0175559 49.8827004 35.0175559 48.631298 34.9590766 48.3736563 35.5731092 48.1160147 36.1871418 47.9687909 36.5964969 48.0055968 37.0643313 48.0792087 37.5321656 48.3736563 38 48.3736563 38zM32.0553002 38.9922774C31.69711 40.6720568 33.1298707 42.2373058 34.8810227 41.9700682 34.8810227 41.9700682 34.9208216 41.9700682 34.9208216 41.9700682 36.3933812 41.7410073 36.910767 40.9392944 38.0251364 40.0230511 39.1395059 39.1449846 40.2936742 38.1142109 41.1294513 38.0378573 41.9254295 37.9615037 42.124424 37.5797356 42.1642229 36.93073 42.2040218 36.2817243 41.9254295 34.6019449 42.1642229 33.8384088 42.4030164 33.0748727 43 32.1586294 43 32.1586294 43 32.1586294 41.2886469 31.5859773 39.537495 32.616751 37.0699626 34.1056464 37.8261419 36.5871387 37.8261419 36.5871387 37.8261419 36.5871387 36.9903648 36.2435475 35.7565987 36.1671939 34.2044412 36.0526635 32.6920827 36.93073 32.2144958 38.5341558 32.134898 38.686863 32.0950991 38.8395702 32.0553002 38.9922774z"/>
      <path fill="#1DAAF1" d="M34.8131508,14.6381299 C34.8131508,14.6381299 34.0128762,12.643174 31.3452943,12.643174 C28.5633874,12.643174 27.8012211,14.3795245 27.8012211,14.3795245 C27.8012211,14.3795245 26.9247299,11.0176544 23.037682,11.0176544 C18.7695509,11.0176544 17.7025181,14.6381299 17.7025181,14.6381299 C17.7025181,14.6381299 15.5684526,12.4584559 12.7103291,11.7565269 C9.85220562,11.054598 8.3659814,11.9412451 8.3659814,11.9412451 C8.3659814,11.9412451 6.38434912,14.0100882 11.6432963,7.98827691 C16.9022436,1.9664656 29.4398786,-0.508757449 37.9761407,1.92952198 C46.5124029,4.3678014 52,12.347625 52,12.347625 C52,12.347625 51.3521587,12.1259632 49.5229596,13.7514828 C47.6937606,15.3770024 48.1510604,18 48.1510604,18 C48.1510604,18 47.7318689,16.5961421 45.9407782,16.3005931 C44.1877958,16.0419877 43.2731963,17.0394657 43.2731963,17.0394657 C43.2731963,17.0394657 42.2442718,15.0814534 39.5766899,14.3795245 C36.909108,13.6406519 34.8131508,14.6381299 34.8131508,14.6381299 Z"/>
      <path fill="#C9C9C9" d="M1.11168164,18.3548525 C1.85622593,16.1819648 2.48908858,15.0034495 2.86136072,14.6351635 C3.19640565,14.2668774 3.56867779,13.8617628 4.75994865,14.0459058 C5.98844673,14.2300488 8.63157895,14.7088207 9.11553273,15.2612497 C9.59948652,15.8136788 10.195122,15.703193 10.716303,16.1819648 C11.2002567,16.6975653 11.8331194,16.3661079 13.9922978,16.8448797 C16.1887035,17.3604802 19.4646983,18.9809387 19.4646983,18.9809387 C19.4646983,18.9809387 20.6559692,18.7231385 21.6238768,19.6438536 C22.2939666,20.3067685 22.4801027,22.1113701 22.4801027,22.1113701 C22.4801027,22.1113701 24.1553273,22.1850273 25.3838254,23.1793996 C26.5750963,24.1369433 28.8087291,26.4939739 29.2554557,28.0407753 C29.7021823,29.5875767 30,30.7292634 30,30.7292634 C30,30.7292634 29.4415918,30.950235 28.436457,30.1031771 C27.4313222,29.2561192 27.3196406,27.9302895 27.3196406,27.9302895 L25.4955071,25.0576584 L23.7086008,24.7630295 C23.7086008,24.7630295 24.3414634,25.7574018 24.9743261,27.230546 C25.6071887,28.7036902 26.2400513,29.8453769 26.2400513,31.7604643 C26.2400513,33.6755517 25.9050064,35.2591817 25.6816431,34.9645528 C25.4582798,34.669924 24.6392811,32.9758082 24.8998716,31.6868071 C25.1976893,30.3978059 22.5545571,27.4883462 22.5545571,27.4883462 L20.097561,24.7630295 L16.2259307,23.510857 C16.2259307,23.510857 18.012837,26.1993451 18.9807445,27.4883462 C19.9486521,28.7773474 20.4326059,29.8453769 20.4326059,30.3978059 C20.4326059,30.950235 19.57638,32.6811794 18.3106547,31.2080352 C17.0449294,29.6980625 15.928113,27.5620034 15.928113,27.5620034 C15.928113,27.5620034 14.5879332,27.4515176 14.0667522,26.7517742 C13.5827985,26.0520307 13.5827985,26.0520307 13.5827985,26.0520307 C13.5827985,26.0520307 12.8754814,26.3098309 12.6893453,26.2730023 C12.5404365,26.2361737 10.0462131,24.7998581 9.67394095,24.0264575 C9.30166881,23.2530568 8.07317073,20.9696833 8.07317073,20.9696833 C8.07317073,20.9696833 7.81258023,22.5533133 7.36585366,22.8111135 C6.91912709,23.0689138 6.62130937,23.1057424 4.38767651,22.5901419 C2.19127086,22.0745415 1,22.0008843 1,20.8223689 C1,19.5701964 1.11168164,18.3548525 1.11168164,18.3548525 Z"/>
      <path fill="#FFF" d="M17.7349586 20C17.7349586 20 17.7691462 19.6455142 18.1793975 19.1728665 18.5212736 18.7396061 18.9999001 18.7396061 18.9999001 18.7396061 18.9999001 18.7396061 19.0340877 18.7789934 17.8375215 17.8730853 16.6409552 16.9671772 14.8973872 16.4551422 13.3931325 16.1400438 11.8888778 15.8249453 11 16.1400438 11 16.1400438L11.0683752 17.2035011C11.0683752 17.2035011 12.7777556 17.321663 14.6922616 18.1487965 16.6067676 18.97593 17.7349586 20 17.7349586 20zM14.4004844 23.6530612C14.4404769 23.6122449 14.4404769 23.6122449 14.4804695 23.5714286 15.2003353 22.7959184 15.5202757 22.8367347 15.8402161 23.5306122 16.1601565 24.2244898 17 25.6530612 17 25.6530612 17 25.6530612 16.6400671 25.8571429 16.4001118 26.1428571 16.1601565 26.4285714 16.0801714 27 16.0801714 27 16.0801714 27 13.9605663 25.4897959 14.0005589 24.7959184 14.080544 24.0612245 14.4004844 23.6530612 14.4004844 23.6530612zM3 17L7 15.4642857 4.25217391 15C4.25217391 15 3.31304348 16.25 3 17zM9.03471499 19.7595192C9.13552732 19.418416 9.30354787 19.1796437 9.63958897 19.0090921 10.0092342 18.8385405 13 21.1239322 13 21.1239322 13 21.1239322 12.4287301 21.4309251 12.1935014 21.7038077 11.9582726 21.94258 11.3870027 23 11.3870027 23 11.3870027 23 9.67319308 21.2603735 9.26994376 20.6463876 8.86669444 20.0324018 9.03471499 19.7595192 9.03471499 19.7595192zM2 18.7021277L6 17C6 17 5.68 17.9361702 5.64 18.8723404 5.6 19.8085106 5.64 21 5.64 21L2.04 20.3191489 2 18.7021277z"/>
      <path fill="#FDE4D2" d="M60.8136678,23.624686 C60.6628269,23.175619 60.2103042,22.9136632 59.7200713,23.02593 C59.0412873,23.175619 58.0231112,23.3627303 56.7409635,23.2878857 C54.9308727,23.2130412 51.2729809,23.9240641 50.4056457,24.0363308 C48.7463958,24.2608644 47.9921913,23.9989086 47.1248561,23.9240641 C45.9181289,23.8117973 45.2393449,24.3357089 43.9571972,24.1485976 C42.6750496,23.9614863 42.0339758,23.5498415 40.9403792,23.8492196 C39.8844929,24.1485976 37.6218794,25.1215762 37.0185158,25.2712652 C36.4151522,25.4209543 35.8494989,25.3461097 34.9821637,25.9074436 C34.3410899,26.3565106 32.9081013,26.9552667 32.2293173,27.2172225 C32.0030559,27.3294892 31.9276355,27.591445 32.0784764,27.8159785 C32.3801582,28.2276233 33.0966524,28.7141126 34.8313228,28.3024678 C36.2643113,27.9656676 37.0939363,27.441756 37.0939363,27.441756 C37.0939363,27.441756 38.1498226,27.4043337 38.8663169,27.292067 C39.9222032,27.142378 40.2993054,26.9926889 40.2993054,26.9926889 C40.2993054,26.9926889 41.1289304,27.292067 41.8077144,27.441756 C42.4487882,27.591445 43.0144416,27.741134 43.0144416,27.741134 C43.0144416,27.741134 43.240703,28.4147346 43.9571972,28.8638017 L43.919487,28.9012239 C43.919487,28.9012239 42.5619189,29.9864693 42.0339758,30.6226476 C41.6945837,30.9968702 41.242061,31.9324265 41.242061,33.0925164 C41.242061,34.1029173 41.4306122,38.5187433 41.5060326,39.8285222 C41.5060326,40.0156335 41.732294,40.4272783 41.9208451,40.389856 C42.2602371,40.2775893 42.8258905,40.240167 43.1652825,39.4542997 C43.2029927,39.3794552 43.2029927,39.3046107 43.240703,39.2297662 L43.240703,39.3046107 L43.1652825,39.4542997 C43.1652825,39.8285222 43.0898621,41.0260344 43.2784132,41.5873682 C43.4669643,42.148702 44.4097199,42.298391 44.7868222,40.9886121 C45.1639244,39.6788332 45.0507938,39.0052326 45.0507938,39.0052326 L45.5410267,36.0862968 C45.6918676,35.824341 45.8427085,35.4875407 46.0312596,35.1881627 C45.8804187,35.7869187 45.8427085,36.7973196 46.2198107,37.5083424 C46.6346232,38.331632 46.7100437,38.8929659 47.4642482,39.0800771 C47.9167709,39.1923439 48.4070038,39.3794552 48.934947,39.5665664 C49.1234981,39.641411 49.3497594,39.5291442 49.3874697,39.3046107 C49.4628901,39.0426549 49.4251799,38.6684323 48.9726572,38.2567875 C48.444714,37.7702982 48.0299016,37.1341199 48.0299016,37.1341199 C48.0299016,37.1341199 48.1430322,36.4979416 48.0676118,35.8617633 C48.0676118,35.8617633 48.5578447,34.8887846 48.5201345,34.065495 L48.5578447,34.0280728 C48.6709754,34.0280728 48.7841061,34.065495 48.8972367,34.065495 C51.2729809,34.065495 53.2716228,33.4293167 54.9308727,32.9802497 C57.5705885,32.3066491 57.6837192,30.8097589 58.8150259,30.7349144 C60.2103042,30.6226476 61.9072644,30.6974921 61.9072644,30.6974921 C62.2089462,29.3128687 61.7564235,26.6184664 60.8136678,23.624686 Z"/>
      <path fill="#F2C2A0" d="M41,40.7566856 C41.6225097,40.6771405 41.7262614,39.5635092 41.7608452,38.8078308 C41.7954291,38.0521524 41.7954291,36.7794309 42.106684,35.9442075 C42.4179388,35.108984 42.2450195,33.1203567 42.2450195,33.1203567 C42.2450195,33.1203567 44.9425616,33.0408116 45.0463133,33.001039 C45.1500649,32.9612665 46.0146617,34.0748978 46.5334198,34.3533056 C47.0175941,34.5919409 47.3634328,34.7908036 47.1559296,35.4271644 C46.9484263,36.0635251 46.3259166,37.4953368 46.9830102,38.2510151 C47.6055199,39.0066935 48.0896942,39.5635092 47.9859425,40.0010072 C47.8821909,40.4385052 47.4671844,40.3191875 46.8792586,40.0805523 C46.2567488,39.841917 45.5304875,39.6032817 45.4267359,39.0464661 C45.2884004,38.4896504 44.7350584,37.0180662 44.7696423,36.6601133 C44.8042261,36.3021604 45.3229842,34.7908036 45.3229842,34.7908036 C45.3229842,34.7908036 44.3546358,36.7396584 44.2163003,38.8078308 C44.0433809,40.8760032 43.9396293,42.38736 43.5592067,42.7850854 C43.1787841,43.1828109 42.4871066,43.0237207 42.4179388,42.3475874 C42.3487711,41.6714541 42.2450195,40.7566856 42.2450195,40.7566856 C42.2450195,40.7566856 41.7608452,41.4328188 41.4841742,41.4328188 C41.1383355,41.3532737 41,40.7566856 41,40.7566856 Z"/>
      <path fill="#F2C2A0" d="M44,32.9991551 C45.0322898,33.0338225 46.8019294,31.9938005 47.3180743,31.3351199 C47.8342192,30.6764394 48.719039,30.2257632 49.6775938,30.3991002 C50.5992811,30.5724372 53.1800056,30.5377698 54.5072353,29.5670826 C55.834465,28.5963954 56.7561523,27.7297105 57.1985623,27.2096995 C57.6409722,26.6896885 58.1202496,27.2096995 57.9727796,27.9723823 C57.8253096,28.7003976 57.3091647,29.6364174 56.5718149,30.2604306 C55.834465,30.8844437 53.5486805,31.8897983 52.0739808,31.6817939 C50.5992811,31.4737895 49.7513288,30.8844437 48.9033765,31.1964503 C48.0554242,31.5084569 47.9448217,32.0284679 46.8387969,32.5138115 C45.6590372,32.9991551 44,32.9991551 44,32.9991551 Z"/>
      <path fill="#F2C2A0" d="M46.0018017 34.344184C46.9868989 33.7988591 48.3003619 32.6354993 49.1395187 32.7082093 50.0151607 32.7809193 51.3286236 33.3625992 52.6056014 33.1444692 53.8825793 32.9626943 55.2690124 32.8172743 55.998714 31.9083995 56.7284156 30.9631696 57.3851471 29.7270999 58.4067294 29.3999049 59.4283116 29.07271 60.7052895 29 60.7052895 29 60.7052895 29 61.0336552 30.5632647 60.9971701 31.3630746 60.9606851 32.1628844 60.8147447 32.6718543 60.8147447 32.6718543 60.8147447 32.6718543 58.2972741 32.4900794 57.6770277 32.6718543 57.0567814 32.8536293 57.0932664 33.0354043 56.4730201 33.5807292 55.8527737 34.1260541 55.4514378 34.562314 53.8825793 34.9622189 52.3502059 35.3621238 49.4678845 35.8347387 48.6287276 35.9801587 47.7895707 36.1255787 46.5125929 35.4348338 46.2207122 35.1076389 45.9653167 34.7440889 46.0018017 34.344184 46.0018017 34.344184zM32 28.1765496C32.7811816 28.5951168 34.083151 28.2184063 35.1247265 27.7998391 36.166302 27.3812719 36.2035011 26.7952777 36.2035011 26.7952777 36.2035011 26.7952777 37.1706783 27.1301315 38.2866521 26.9208479 39.4026258 26.7115643 40.2954048 26 40.2954048 26 40.2954048 26 41.0765864 26.753421 41.8577681 26.9627046 42.6389497 27.1719882 43.9037199 26.4185672 43.9037199 26.4185672 43.9037199 26.4185672 44.4617068 27.506842 45.7636761 27.5486988 47.0656455 27.5905555 49 26.7952777 49 26.7952777 49 26.7952777 48.4792123 27.967266 48.0700219 28.3858332 47.6608315 28.8044004 45.131291 29.8089618 44.5733042 29.9763887 44.0153173 30.1438156 43.04814 29.3903946 42.750547 28.6788303 42.452954 27.967266 42.1925602 28.0091227 41.2625821 27.8416958 40.3698031 27.6742689 39.9234136 27.5486988 39.9234136 27.5486988 39.9234136 27.5486988 38.7330416 27.967266 37.8402626 28.0509794 36.9474836 28.1346929 36.5382932 28.1765496 36.5382932 28.1765496 36.5382932 28.1765496 34.8271335 28.9718273 33.8971554 29.181111 32.2603939 29.474108 32 28.1765496 32 28.1765496z"/>
      <path fill="#4D5052" d="M30.820825 54C24.4229732 54 18.3279783 51.8327604 13.4065539 47.7554114 7.95512992 43.2372678 4.66156126 36.9192134 4.09370459 29.9767002 3.86656193 27.405399 4.05584748 24.7973649 4.62370415 22.2995295 4.66156126 22.1158651 4.88870393 21.9689336 5.07798948 22.0056665 5.26727504 22.0423993 5.41870348 22.2627966 5.38084637 22.4464609 4.8129897 24.8708307 4.66156126 27.405399 4.85084681 29.9032344 5.38084637 36.6620833 8.5987008 42.7964733 13.8986963 47.1676854 19.1986919 51.5756303 25.9372576 53.706137 32.9029661 53.1551439 44.2600994 52.3102878 53.6486629 44.4861855 56.2608035 33.7601862 56.2986607 33.5765219 56.5258033 33.4295904 56.7150889 33.5030561 56.9043744 33.539789 57.0558029 33.7601862 56.9800887 33.9438506 54.2922338 45.0004458 44.6008134 53.0082124 32.9408232 53.8898014 32.2593952 54 31.5401101 54 30.820825 54zM56.612724 24C56.4220066 24 56.2694328 23.8493515 56.2312893 23.6610408 54.5911205 9.76371218 42.1944954-.254416285 28.0814145.837785691 19.7279964 1.47804202 12.099304 6.07282275 7.71280594 13.1156424 7.59837556 13.3039531 7.36951479 13.3416152 7.17879748 13.2286288 6.98808017 13.1156424 6.94993671 12.8896696 7.06436709 12.7013589 11.5652956 5.47022855 19.4228487.72479928 28.0051276.0845429491 42.5377866-1.04532116 55.2777028 9.2741044 56.9941586 23.5857165 57.032302 23.7740272 56.8797282 23.9623379 56.6508674 24 56.612724 24 56.612724 24 56.612724 24z"/>
      <path fill="#4D5052" d="M47.9947807 18C47.9194769 18 47.8441731 17.9694292 47.8065213 17.8777167 47.8065213 17.8471458 47.3923505 16.8077376 45.8109713 16.5937418 44.1919403 16.379746 43.3635988 17.1440167 43.3259469 17.1440167 43.2506431 17.2051584 43.1376875 17.2051584 43.0623837 17.1745876 42.9870799 17.1134459 42.9870799 17.0217334 43.0247318 16.9605918 43.0623837 16.9300209 44.0036808 16.0740377 45.8486232 16.2880335 46.8275722 16.4103168 47.3923505 16.8077376 47.7688694 17.1745876 47.7688694 16.4103168 48.0324326 15.1263419 49.2372929 14.209217 51.0069315 12.8641004 51.7599692 12.9863838 51.8729249 13.0169546 51.9858805 13.0475254 52.0235324 13.1392379 51.9858805 13.2003796 51.9482287 13.2920921 51.835273 13.3226629 51.7599692 13.2920921 51.7223173 13.2920921 51.0822353 13.2003796 49.5008561 14.392642 47.8065213 15.646046 48.1830401 17.7554334 48.1830401 17.7860042 48.1830401 17.8777167 48.1453882 17.9388583 48.0324326 17.9694292 48.0324326 18 48.0324326 18 47.9947807 18zM17.2790866 16C17.242124 16 17.168199 15.9636364 17.1312365 15.9272727 17.094274 15.8909091 15.0613362 13.8181818 12.3630733 13.1636364 9.70177292 12.5090909 8.33416021 13.3090909 8.2971977 13.3090909 8.22327269 13.3454545 8.11238518 13.3454545 8.03846017 13.2363636 7.96453515 13.1272727 8.00149766 13.0545455 8.11238518 12.9818182 8.18631019 12.9454545 9.6278479 12.0727273 12.4369983 12.7636364 14.7656362 13.3454545 16.5767989 14.8727273 17.168199 15.4181818 17.5378241 14.5818182 18.9054368 12 22.4168748 12 22.4168748 12 22.4168748 12 22.4168748 12 25.4847628 12 26.7045255 14.1454545 27.0741505 15.0545455 27.4437756 14.5090909 28.4048007 13.6 30.474701 13.6 33.1360014 13.6 33.9861391 15.6363636 33.9861391 15.6727273 34.0231016 15.7818182 33.9861391 15.8545455 33.8752515 15.8909091 33.764364 15.9272727 33.690439 15.8909091 33.6534765 15.7818182 33.616514 15.7090909 32.8772639 13.9636364 30.474701 13.9636364 27.9242882 13.9636364 27.2220005 15.4909091 27.2220005 15.5636364 27.185038 15.6363636 27.111113 15.6727273 27.037188 15.6727273 26.963263 15.6727273 26.889338 15.6 26.889338 15.5272727 26.8523755 15.3818182 26.0022379 12.3636364 22.4538373 12.3636364 22.4538373 12.3636364 22.4538373 12.3636364 22.4538373 12.3636364 18.5358117 12.3636364 17.4638991 15.7454545 17.4638991 15.7818182 17.4269366 15.8545455 17.3899741 15.8909091 17.3160491 15.8909091 17.3160491 16 17.2790866 16 17.2790866 16zM48.6418674 35C48.6418674 35 48.6418674 35 48.6418674 35 48.3112343 35 48.0173381 34.9235373 47.686705 34.8470747 47.3560719 34.7323807 46.9152277 34.5029928 46.5478576 34.1589108 45.8865913 33.5472096 45.7763803 33.2031277 45.7763803 32.9737397 45.7763803 32.7443518 45.9600654 32.5914265 46.1437504 32.5914265 46.3274355 32.5914265 46.4743836 32.7443518 46.5111206 32.9355084 46.5111206 32.9737397 46.6213316 33.1648964 47.0621758 33.5854409 47.3560719 33.8530602 47.723442 34.0059855 47.9806011 34.1206795 48.2010232 34.1971422 48.4214453 34.2353735 48.6786044 34.2353735 48.6786044 34.2353735 48.6786044 34.2353735 48.6786044 34.2353735 50.6256661 34.2353735 52.2788318 33.7765976 53.7483123 33.356053 54.0054714 33.2795903 54.2258935 33.2031277 54.4830526 33.1648964 55.8790592 32.7825831 56.4668514 32.1708819 56.9811696 31.6738746 57.3852767 31.2915614 57.7526469 30.9092481 58.3404391 30.8710168 59.3690755 30.7945542 60.581397 30.7945542 61.0957152 30.8327855 61.3528743 29.5711517 60.9855041 27.1625782 60.0670788 24.1805348 59.9936047 23.9129155 59.6997086 23.7599902 59.4425495 23.7982215 58.7812833 23.9511468 57.7526469 24.1423034 56.4301144 24.0658408 55.0708449 23.9893781 52.4625169 24.4481541 51.0665103 24.7157733 50.7358772 24.792236 50.4787181 24.8304673 50.295033 24.8304673 49.0459745 25.0216239 48.3112343 24.90693 47.649968 24.792236 47.4295459 24.7540047 47.2091238 24.7157733 47.0254388 24.7157733 46.5478576 24.677542 46.1437504 24.7540047 45.7396433 24.8304673 45.2253251 24.9451613 44.6742699 25.0598553 43.9395296 24.9451613 43.5354224 24.8686986 43.2047893 24.792236 42.9108932 24.7157733 42.2863639 24.562848 41.8087828 24.4481541 41.1842535 24.6393107 40.6331983 24.792236 39.788247 25.1363179 39.0167697 25.4421685 38.2820294 25.7480191 37.6575002 25.9774071 37.3636041 26.0538697 37.179919 26.0921011 37.0329709 26.1303324 36.8860229 26.1303324 36.4819157 26.206795 36.0778086 26.2450264 35.5267534 26.665571 34.8654871 27.1243469 33.5062176 27.7360481 32.7714773 28.0418987 33.1388474 28.5771373 33.9470617 28.6918312 35.0491722 28.4242119 36.3349677 28.08013 37.143182 27.5831228 37.143182 27.5831228 37.179919 27.5448915 37.253393 27.5448915 37.326867 27.5066601 37.326867 27.5066601 38.3555034 27.4684288 39.0167697 27.3537348 39.9719321 27.2008095 40.3393022 27.0478842 40.3393022 27.0478842 40.4127762 27.0096529 40.5229873 27.0096529 40.5964613 27.0478842 40.5964613 27.0478842 41.4046756 27.3537348 42.0292048 27.4684288 42.6904711 27.6213541 43.2047893 27.7742794 43.2415263 27.8125107 43.3517374 27.8507421 43.4619484 27.9272047 43.4986854 28.0418987 43.4986854 28.08013 43.8293185 29.0359132 45.004903 29.2653011 45.1885881 29.3035324 45.3355361 29.4946891 45.2987991 29.724077 45.2620621 29.9152337 45.078377 30.068159 44.8579549 30.0299276 43.6088965 29.7623084 43.0578412 28.8829879 42.8741562 28.4624433 42.6537341 28.3859806 42.2863639 28.309518 41.8822568 28.194824 41.3679386 28.08013 40.7434094 27.8507421 40.4862503 27.7742794 40.3025652 27.8507421 39.861721 27.965436 39.1269807 28.08013 38.5391885 28.1565927 37.6942372 28.2330553 37.4370781 28.2330553 37.179919 28.3859806 36.4084417 28.8065252 35.1961202 29.1123758 33.3592695 29.5711517 32.5143182 29.0359132 32.1469481 28.4624433 32 28.2712866 31.963263 28.0036674 32.036737 27.7742794 32.110211 27.5448915 32.2571591 27.3537348 32.4775812 27.2772722 33.0653734 27.0096529 34.498117 26.3979517 35.1226462 25.9774071 35.8206495 25.4803999 36.3349677 25.4039372 36.7758118 25.3274746 36.9227599 25.2892432 37.0697079 25.2892432 37.216656 25.2510119 37.4738151 25.1745492 38.0983443 24.9451613 38.7963476 24.677542 39.5678249 24.3716914 40.4862503 23.9893781 41.0373055 23.8364528 41.8455198 23.6070649 42.433312 23.7599902 43.1313153 23.9129155 43.4252114 23.9893781 43.7558445 24.0658408 44.1232147 24.1423034 44.7477439 24.2569974 45.1885881 24.1423034 45.7029063 24.0658408 46.1437504 23.9893781 46.6213316 23.8746842 47.2091238 23.9511468 47.4295459 23.9893781 47.649968 23.9893781 47.9071271 24.0276095 48.5316563 24.1423034 49.1929226 24.2187661 50.33177 24.0658408 50.4787181 24.0276095 50.7358772 23.9893781 51.0665103 23.9511468 52.4992539 23.7217589 55.1075819 23.262983 56.5770624 23.3012143 57.7893839 23.3776769 58.7812833 23.1865203 59.3690755 23.033595 59.9936047 22.8806697 60.654871 23.262983 60.8752931 23.9129155 61.4630853 25.9009444 62.3815107 29.4946891 61.8304554 31.3297927 61.7937184 31.482718 61.6467704 31.597412 61.4630853 31.597412 61.4630853 31.597412 59.8099197 31.5591807 58.4873872 31.6356433 58.156754 31.6738746 57.973069 31.8650313 57.6056988 32.2473445 57.0913806 32.7825831 56.3566403 33.5089783 54.7769487 33.9295229 54.5565267 34.0059855 54.2993676 34.0442169 54.0422085 34.1206795 52.3890428 34.5029928 50.6991402 35 48.6418674 35z"/>
      <path fill="#4D5052" d="M43.7966182,33 C41.8633473,33 41.2568309,32.0115894 41.1052018,31.5173841 C40.6503145,30.2465704 41.7496254,29.8229659 42.8868437,29.364061 C43.6449891,29.0816579 44.3273201,28.905156 45.0475583,28.7286541 C45.426631,28.622753 45.8057038,28.5168519 46.2226838,28.4109507 C47.3978093,28.0932473 47.8147893,27.7402435 48.3454911,26.7871333 C48.9520075,25.6575212 50.8094639,25.0574147 50.8852785,25.0221144 C51.0748149,24.9515136 51.3022585,25.0574147 51.3780731,25.2339166 C51.4538876,25.4104185 51.3401658,25.6222208 51.1506294,25.6928216 C51.1506294,25.6928216 49.5206166,26.2223272 49.0657293,27.1048367 C48.4592129,28.2344488 47.8526966,28.6933538 46.4880347,29.0816579 C46.0710547,29.2228595 45.6540747,29.2934602 45.2750019,29.3993613 C44.5547637,29.5758632 43.9103401,29.7523651 43.2280091,30.0347682 C41.7875327,30.5995742 41.6738109,30.7760761 41.8633473,31.3055818 C42.1666054,32.1174905 43.2280091,32.4704943 44.7443001,32.2233917 C46.4122201,31.976289 47.0945511,31.4820837 47.8906038,30.952578 L48.1180475,30.7760761 C48.9520075,30.2112701 49.6343384,30.387772 50.5062057,30.5995742 C50.8094639,30.670175 51.1127221,30.7407757 51.4917949,30.8113765 C52.9701786,31.0584792 54.8655423,30.6348746 55.8890387,29.8229659 C56.6850914,29.1875591 57.2916078,28.3756504 57.2916078,28.34035 C57.4053296,28.1638481 57.6327733,28.1285477 57.8223097,28.2344488 C58.011846,28.34035 58.0497533,28.5521523 57.9360315,28.7286541 C57.8981242,28.7639545 57.2916078,29.646464 56.3818332,30.3524716 C55.1688005,31.3055818 53.0459931,31.7644867 51.3780731,31.4820837 C50.9990003,31.4114829 50.6578348,31.3408822 50.3545767,31.2702814 C49.4827093,31.0584792 49.1036366,30.9878784 48.5729348,31.3408822 L48.3454911,31.5173841 C47.5115311,32.0821901 46.7154783,32.6469962 44.8580219,32.9293992 C44.4789492,32.9646996 44.1377837,33 43.7966182,33 Z"/>
      <path fill="#4D5052" d="M41.0505051,43 C40.9292929,43 40.8080808,42.9603826 40.7272727,42.8811477 C40.4444444,42.6830606 40.2828283,42.2472689 40.2828283,42.0095644 C40.2020202,40.6625719 40,35.9084809 40,34.8388104 C40,33.5710528 40.4848485,32.4617649 40.9292929,31.9467384 C41.5353535,31.2732422 42.9494949,30.1639543 43.030303,30.0847194 C43.1919192,29.9658672 43.4747475,29.9658672 43.5959596,30.1243369 C43.7171717,30.2828066 43.7171717,30.5601285 43.5555556,30.6789808 C43.5555556,30.6789808 42.1010101,31.8278861 41.5757576,32.4221475 C41.2929293,32.7390869 40.8484848,33.6502877 40.8484848,34.799193 C40.8484848,35.8688635 41.0505051,40.5833371 41.1313131,41.9303295 C41.1313131,41.9699469 41.1717172,42.0491818 41.2121212,42.1284166 C41.2121212,42.1284166 41.2121212,42.1284166 41.2121212,42.1284166 C41.5757576,42.0491818 41.8989899,41.9699469 42.1414141,41.415303 C42.5454545,40.4248674 42.4242424,39.3948143 42.3434343,38.9986401 C42.3030303,38.8005529 42.3030303,38.6024658 42.3838384,38.4439961 C42.5454545,38.0082044 42.9090909,36.938534 43.030303,36.2650377 C43.1515152,35.3934544 43.1919192,34.4822536 43.1919192,34.4822536 C43.1919192,34.2445491 43.3939394,34.0860794 43.5959596,34.0860794 C43.8383838,34.0860794 44,34.2841665 44,34.4822536 C44,34.521871 43.959596,35.4330718 43.8383838,36.3442726 C43.7171717,37.0970037 43.3131313,38.245909 43.1515152,38.6817007 C43.1515152,38.7213181 43.1111111,38.7609355 43.1515152,38.8401704 C43.2323232,39.3155795 43.3939394,40.5437196 42.9090909,41.7322424 C42.5050505,42.6434432 41.8585859,42.8019129 41.4545455,42.9207651 C41.4141414,42.9207651 41.3737374,42.9603826 41.3333333,42.9603826 C41.1313131,43 41.0909091,43 41.0505051,43 Z"/>
      <path fill="#4D5052" d="M42.9493048,44 C42.5836193,44 42.2511779,43.7197381 42.1182014,43.2793266 C41.9852248,42.7588403 41.9852248,41.9180547 42.018469,41.0372317 L42.018469,40.877082 C42.018469,40.676895 42.1846897,40.4767079 42.3509104,40.4767079 C42.3509104,40.4767079 42.3509104,40.4767079 42.3509104,40.4767079 C42.5503752,40.4767079 42.6833517,40.676895 42.6833517,40.877082 L42.6833517,41.0772691 C42.6833517,41.5176806 42.6501076,42.5986907 42.74984,43.0391022 C42.7830842,43.119177 42.8495724,43.1992518 42.9493048,43.1992518 C43.1155255,43.1992518 43.3149904,42.9990648 43.4479669,42.438541 C43.7471642,41.1573439 43.6806759,40.5167453 43.6806759,40.5167453 C43.6806759,40.4767079 43.6806759,40.4366705 43.6806759,40.3966331 L44.1128497,37.2737151 C44.1128497,37.2336777 44.1460938,37.1936403 44.1460938,37.1536029 C44.6447559,36.0325554 45.3428828,34.2709094 45.376127,34.230872 C45.4426152,34.0306849 45.6420801,33.9506101 45.8083008,34.0306849 C45.9745215,34.1107598 46.0410097,34.3509842 45.9745215,34.5511713 C45.9745215,34.5511713 45.2763946,36.3128173 44.7777325,37.4338648 L44.3788028,40.4366705 C44.3788028,40.676895 44.4120469,41.3975684 44.1128497,42.6387281 C43.7804083,43.8798878 43.1487697,44 42.9493048,44 C42.9493048,44 42.9493048,44 42.9493048,44 Z"/>
      <path fill="#4D5052" d="M48.4022676 41C48.3291005 41 48.2559335 41 48.1461829 40.9640719 47.5974301 40.7844311 47.1218443 40.6047904 46.7560091 40.497006 46.0243386 40.2814371 45.8048375 39.8143713 45.5487528 39.239521 45.4755858 39.0958084 45.4024187 38.9520958 45.3292517 38.8083832 44.8536659 37.9101796 44.9634165 36.6167665 45.2195011 36.0778443 45.2926682 35.8982036 45.5121693 35.8263473 45.6950869 35.8982036 45.8780045 35.9700599 45.9511716 36.1856287 45.8780045 36.3652695 45.6950869 36.760479 45.6219199 37.8383234 45.9511716 38.4850299 46.0243386 38.6646707 46.0975057 38.8083832 46.1706727 38.9520958 46.4267574 39.5269461 46.5365079 39.7065868 46.9023432 39.8143713 47.3047619 39.9221557 47.7803477 40.1017964 48.3291005 40.2814371 48.3656841 40.1017964 48.2559335 39.8862275 47.9998488 39.6347305 47.451096 39.1317365 47.0486772 38.5209581 47.0120937 38.5209581 46.9755102 38.4491018 46.9389267 38.3413174 46.9389267 38.2694611 46.9389267 38.2694611 47.0486772 37.6946108 46.9755102 37.1197605 46.9755102 37.0479042 46.9755102 36.9760479 47.0120937 36.9041916 47.0120937 36.9041916 47.451096 36.0778443 47.4145125 35.3952096 47.4145125 35.1796407 47.5608466 35.0359281 47.7437642 35 47.9632653 35 48.1095994 35.1437126 48.1461829 35.3233533 48.21935 36.0419162 47.8535147 36.8682635 47.7071807 37.1197605 47.7437642 37.5868263 47.7071807 37.9820359 47.6705971 38.1976048 47.8169312 38.3772455 48.1095994 38.7724551 48.4388511 39.0958084 49.0241875 39.6347305 49.060771 40.1377246 48.9510204 40.4610778 48.9144369 40.6407186 48.7681028 40.8203593 48.5851852 40.9281437 48.6583522 40.9640719 48.5486017 41 48.4022676 41zM16.7802526 27C16.7157357 27 16.6512189 26.9684748 16.586702 26.9369495 16.5221851 26.9054243 15.0382973 25.8335658 14.4576456 25.0769599 13.8124769 24.2257782 14.038286 23.5006975 14.038286 23.4691722 14.038286 23.437647 14.038286 23.437647 14.0705444 23.437647 14.6189377 22.3973138 15.7802412 21.8929098 16.5544436 22.0190108 17.1673538 22.1451118 17.3609043 22.7756168 17.5221965 23.311546 17.5867134 23.5322227 17.6512302 23.7528994 17.7480055 23.9420509 18.0383314 24.5725559 18.909309 25.4237376 18.909309 25.4237376 19.0060843 25.5183133 19.0383427 25.7074648 18.9415675 25.8335658 18.8447922 25.9596668 18.6835 26.0227173 18.5544663 25.9596668 18.5544663 25.9596668 18.1351067 25.8020406 17.6512302 25.9911921 17.1673538 26.1803436 17.1028369 26.7162728 17.1028369 26.7162728 17.1028369 26.8423738 17.0060616 26.9369495 16.9092863 26.9684748 16.8447694 27 16.812511 27 16.7802526 27zM14.6511961 23.689849C14.6189377 23.7844247 14.5866793 24.1942529 14.9737805 24.6986569 15.3286232 25.1715356 16.135084 25.8020406 16.586702 26.1488183 16.7157357 25.8650911 16.9415447 25.5498386 17.3931628 25.3922123 17.5544549 25.3291619 17.7157471 25.2976366 17.8770392 25.2661114 17.6189718 24.9508589 17.2963875 24.5410307 17.1350953 24.1942529 17.03832 23.9735762 16.9415447 23.689849 16.8770279 23.4691722 16.7479942 22.9647682 16.6189604 22.6495158 16.4254098 22.6179905 15.9737918 22.55494 15.1028142 22.8701925 14.6511961 23.689849zM43.0282973 33C42.7630458 33 42.5862115 33 42.5420029 33 42.4093772 33 42.32096 32.8972163 42.32096 32.8286938 42.32096 32.7259101 42.4535858 32.6573876 42.5420029 32.6573876 43.1609231 32.6916488 44.4429719 32.6573876 44.531389 32.2805139 44.5755976 32.0749465 44.5755976 31.8008565 44.2661376 31.5952891 43.9124689 31.3211991 43.1609231 31.2869379 42.2767514 31.4582441 42.1441257 31.4925054 42.0557085 31.4239829 42.0115 31.3211991 41.9672914 31.2184154 42.0557085 31.1498929 42.1883343 31.1156317 43.2493402 30.9100642 44.0893032 30.9785867 44.5755976 31.3211991 44.9292663 31.5610278 45.061892 31.9036403 44.9734749 32.2805139 44.8408491 32.9314775 43.691426 33 43.0282973 33z"/>
      <path fill="#878787" d="M17,30.0594363 C17.311451,29.4749197 18.2068726,29 18.2068726,29 C18.2068726,29 19.4916079,29.8402426 18.7908432,30.8266143 C18.2847353,31.4841955 17,30.0594363 17,30.0594363 Z"/>
      <path fill="#4D5052" d="M12.6517227,24.9653783 C12.1624489,24.9653783 11.5916293,24.7230264 10.980037,24.2037009 C8.45212206,22.1956424 6.08729839,20.2568272 7.35125587,18.3872555 C8.49289488,16.6907922 10.4092175,16.8639007 12.121676,17.2793611 C14.1603171,17.7640649 16.3620495,19.3220414 17.3405972,19.9798536 L17.5852342,20.1529621 C17.8298711,20.3260706 17.9521896,20.5338008 17.9929624,20.8107744 C18.074508,21.4685867 17.4221429,22.1956424 17.3405972,22.2648858 C17.1775059,22.4033726 16.932869,22.4379943 16.7697777,22.2995075 C16.6066864,22.1956424 16.5659136,21.9532905 16.7290049,21.8148037 C16.932869,21.6070735 17.2590516,21.1569914 17.2182788,20.8800178 C17.2182788,20.8107744 17.1775059,20.741531 17.0959603,20.7069093 L16.8513234,20.5338008 C15.9543213,19.9106102 13.8341346,18.4218772 11.9585847,17.9717951 C9.87917083,17.4870913 8.81907746,17.6948215 8.12593949,18.7680942 C7.2289374,20.0837187 8.94139592,21.6070735 11.5916293,23.7536188 C12.3255401,24.3421877 12.6924955,24.3421877 12.814814,24.307566 C13.0594509,24.2383226 13.1409966,23.9267273 13.1409966,23.9267273 C13.1817694,23.7536188 13.4264063,23.615132 13.6302704,23.6843754 C13.8341346,23.7189971 13.9972258,23.9267273 13.9156802,24.0998358 C13.9156802,24.1690792 13.7118161,24.7922698 13.0186781,25 C12.8555868,24.9653783 12.7332684,24.9653783 12.6517227,24.9653783 Z"/>
      <path fill="#4D5052" d="M6.01997409,24 C5.98439849,24 5.94882289,24 5.91324729,24 C5.91324729,24 4.20561855,23.3920727 2.03550703,23.088109 C1.82205344,23.0501135 1.60859985,23.0121181 1.43072185,23.0121181 C0.648058682,22.8981317 0.00769790492,22.176218 0.00769790492,21.3403179 C-0.0278776938,20.2004541 0.0432735036,18.6046449 0.576907484,17.2748038 C1.39514625,15.0710672 2.53356541,14.1211808 2.56914101,14.0831853 C2.64029221,14.0451899 2.67586781,14.0071944 2.74701901,14.0071944 C2.7825946,14.0071944 3.67198457,13.9312035 5.23731092,14.2731626 C6.87378846,14.6531172 7.72760283,14.8430945 7.72760283,14.88109 C7.83432962,14.9190854 7.94105642,14.9950763 7.97663202,15.1090627 C8.01220762,15.2230491 8.01220762,15.3750309 7.94105642,15.4510218 C7.94105642,15.4510218 6.80263726,17.1988129 6.34015448,19.3645541 C5.8065205,21.8722543 6.34015448,23.506059 6.34015448,23.5440545 C6.37573007,23.6960363 6.34015448,23.8480182 6.26900328,23.9240091 C6.19785208,23.9620045 6.12670088,24 6.01997409,24 Z M2.924897,14.7291081 C2.67586781,14.9950763 1.85762904,15.8689719 1.21726826,17.540772 C0.754785478,18.7566267 0.68363428,20.2384496 0.719209879,21.3023224 C0.719209879,21.7962634 1.07496587,22.176218 1.53744865,22.2522089 C1.71532664,22.2902044 1.92878024,22.2902044 2.14223383,22.3281998 C3.60083338,22.5561726 4.84597933,22.8601362 5.52191571,23.088109 C5.37961331,22.3281998 5.27288651,20.9603633 5.6642181,19.1745768 C6.01997409,17.540772 6.69591046,16.1349401 7.08724205,15.4510218 C6.69591046,15.3370355 6.01997409,15.1850536 5.09500852,14.9950763 C3.95658936,14.7671036 3.20950179,14.7291081 2.924897,14.7291081 Z"/>
      <circle cx="20" cy="21" r="1" fill="#4D5052"/>
      <circle cx="20.5" cy="21.5" r="1" fill="#878787"/>
      <path fill="#4D5052" d="M18.7865852 30C18.1560491 30 17.4654619 29.2644423 16.6547727 27.793327 15.9641855 26.5228183 15.9641855 26.422515 16.0242365 26.2887772 16.0542621 26.1884739 16.0842876 26.121605 16.1743642 26.0881706 16.3244918 25.9878673 16.504645 26.0547361 16.5947216 26.2219083 16.6247471 26.2553428 16.6247471 26.3222116 16.6247471 26.3556461 16.6547727 26.422515 16.7448492 26.6899905 17.1952322 27.492417 18.3061767 29.4984834 18.8166107 29.4316145 18.9667384 29.3647456 19.2069426 29.2310079 19.5372234 29.0638357 19.3570702 28.0942369 19.1468915 27.1580726 18.6664831 26.3222116 17.8858193 25.586654 17.7657172 25.4529162 17.7356917 25.2523096 17.8557938 25.1185718 17.9758959 24.9848341 18.1560491 24.9513996 18.2761512 25.0851374 19.1468915 25.9209984 19.7173766 26.8905971 19.9275553 27.9604992 20.197785 29.2978768 19.6573255 29.7659589 19.2069426 30 19.0568149 29.9665656 18.9066873 30 18.7865852 30zM16.5646961 26.4893838C16.5346705 26.5562527 16.504645 26.5896872 16.444594 26.656556 16.504645 26.5896872 16.5346705 26.5562527 16.5646961 26.4893838zM23.2493138 25.9685382C22.6253843 25.9685382 21.4815135 25.8741529 20.5802819 25.181994 19.8870269 24.647144 19.5403994 23.9864469 19.4017484 23.6089057 17.8072618 23.8920616 16.1781124 22.6021291 16.1087869 22.5392056 15.9701359 22.4133585 15.9701359 22.2245879 16.0741242 22.0987408 16.2127752 21.9728938 16.4207517 21.9728938 16.5594027 22.0672791 16.5594027 22.0672791 18.188552 23.3886733 19.5057366 22.9167468 19.6097249 22.885285 19.7137131 22.885285 19.8177014 22.9482086 19.9216896 22.9796703 19.9563524 23.0740556 19.9910151 23.1684409 19.9910151 23.1684409 20.1643289 24.0493704 21.0308977 24.7100675 21.7241527 25.2449176 22.5907215 25.3393029 23.1106628 25.3707647 22.9026863 24.9932234 22.521396 24.4269116 22.0014548 23.9549851 21.8628038 23.829138 21.8628038 23.6403674 22.0014548 23.5145204 22.1401058 23.3886733 22.3480823 23.3886733 22.4867333 23.5145204 23.4919531 24.4269116 23.9425689 25.5280735 23.9772316 25.5595353 24.0118944 25.6539206 24.0118944 25.7483059 23.9425689 25.8426912 23.8732434 25.9370765 23.8039179 25.9685382 23.6999296 26 23.6652669 25.9370765 23.4919531 25.9685382 23.2493138 25.9685382zM22.5465145 22C22.3197717 22 22.0930289 21.8244734 22.0930289 21.5611834 22.0023318 19.2354556 20.4151325 18.8844024 20.3697839 18.8844024 20.1430412 18.8405207 19.961647 18.6211124 20.0069955 18.3578225 20.0523441 18.1384142 20.2790868 17.9628876 20.5511782 18.0067692 21.3674521 18.1384142 22.9093029 19.059929 23 21.5173018 23 21.7805917 22.8186058 22 22.5465145 22 22.5465145 22 22.5465145 22 22.5465145 22zM8 19L9.05640662 15.377094C9.13186423 15.1101431 9.43369469 14.9194638 9.69779635 15.0338714L10.6410165 15.3389582C10.9051182 15.4152299 11.0560334 15.7203167 10.9805758 15.9872677L10.3769149 18.1610113C10.3769149 18.1610113 9.92416919 17.8559244 9.16959304 18.237283 8.41501688 18.6186415 8 19 8 19zM19.6226637 18C19.5511064 18 19.4437703 17.9634441 19.4079916 17.9268882 19.4079916 17.9268882 18.1199588 16.8302115 16.044795 16.318429 13.4687294 15.6969789 11.3935656 15.7335347 11.3577869 15.7335347 11.1431148 15.7335347 11 15.5873112 11 15.3679758 11 15.1486405 11.1431148 15.0024169 11.3577869 15.0024169 11.4293443 15.0024169 13.5760655 14.9293051 16.2236884 15.5873112 18.4777457 16.1356495 19.8015572 17.3054381 19.8731145 17.341994 20.0162293 17.4882175 20.052008 17.7075529 19.9088932 17.8537764 19.8373359 17.9634441 19.7299998 18 19.6226637 18z"/>
      <path fill="#4D5052" d="M18.6887367 20C18.6175447 20 18.5463527 19.9565217 18.4751607 19.9130435 15.6630764 17.173913 11.391556 16.8695652 11.35596 16.8695652 11.142384 16.8695652 11 16.6521739 11 16.4347826 11 16.173913 11.17798 16 11.35596 16 11.53394 16 15.8766524 16.3043478 18.8667167 19.2173913 19.0091007 19.3478261 19.0446967 19.6521739 18.9379087 19.826087 18.9023127 19.9565217 18.7955247 20 18.6887367 20zM24.9886404 25C24.9527232 25 24.9527232 25 24.9168061 25 24.880889 25 22.761778 24.5122363 22.1511866 23.211533 21.8997667 22.6831223 21.971601 22.0327707 22.2948552 21.545007 22.6899437 21.0165963 23.300535 20.8540084 23.9829606 21.1385372 25.5992317 21.7482419 26.8563315 23.1708861 26.8922486 23.211533 26.9640829 23.292827 27 23.4147679 27 23.5367088 27 23.6586498 26.9281657 23.7805907 26.8204143 23.8212377L25.1323089 24.918706C25.0963918 25 25.0245575 25 24.9886404 25zM23.3723693 21.8295358C23.1568664 21.8295358 22.9772808 21.9108298 22.8336122 22.0734177 22.6899437 22.2766526 22.6540265 22.6018284 22.761778 22.8457102 23.1209493 23.5773558 24.3421319 24.0244726 24.9168061 24.1870605L26.0661545 23.4147679C25.5992317 22.9676512 24.7731376 22.2766526 23.8033749 21.9108298 23.6237892 21.8701828 23.4801207 21.8295358 23.3723693 21.8295358z"/>
      <path fill="#4D5052" d="M26.5306598,27 C26.4087171,27 26.2867744,26.9270451 26.2054792,26.8540903 L25.0673471,25.4314706 C24.986052,25.3220383 24.986052,25.212606 25.0266995,25.0666963 C25.3112326,24.44658 25.555118,23.2793023 25.5957656,23.2793023 C25.6364132,23.1698701 25.7177083,23.0604378 25.839651,23.0239604 C25.9615938,22.9874829 26.1241841,22.9874829 26.2054792,23.0604378 C26.2461268,23.0969152 27.0184307,23.5711218 27.7094395,24.3736252 C28.4004483,25.1761286 28.9695143,26.1974966 28.9695143,26.233974 C29.0101619,26.3434063 29.0101619,26.4528386 28.9695143,26.5622709 C28.8882192,26.6717031 28.806924,26.744658 28.6443337,26.744658 L26.5713074,26.9635226 C26.5713074,27 26.5713074,27 26.5306598,27 Z M25.8802986,25.1396512 L26.7338977,26.1974966 L27.9939725,26.0515869 C27.7907346,25.6868126 27.4249065,25.1761286 27.0590783,24.7383995 C26.7745453,24.4101026 26.4493647,24.1182832 26.2054792,23.9358961 C26.1241841,24.3371478 26.0022413,24.8113543 25.8802986,25.1396512 Z"/>
      <path fill="#4D5052" d="M29.3270332 29C29.2586683 29 29.2244859 29 29.156121 28.9674797 28.7117493 28.8373984 28.062283 28.5772358 27.6179113 27.9918699 26.9342625 27.1463415 26.8317152 26.4308943 27.2419044 25.8780488 27.5153639 25.5203252 28.0964654 25.097561 28.1648303 25.0650407 28.2331952 25 28.3357425 25 28.4382898 25 28.5408371 25 28.609202 25.0650407 28.6775669 25.1300813 28.7117493 25.1626016 29.156121 25.7804878 29.2586683 26.4308943 29.2928508 26.6910569 29.5321279 27.3414634 29.9423171 28.1869919 30.0448645 28.4146341 30.010682 28.6422764 29.8397698 28.804878 29.6688576 28.9349593 29.4979454 29 29.3270332 29zM28.2673776 25.8130081C28.0964654 25.9430894 27.8913708 26.1382114 27.7888235 26.2682927 27.6862761 26.398374 27.4469991 26.7235772 28.1306479 27.601626 28.4382898 27.9918699 28.8484791 28.1869919 29.1903035 28.3170732 28.8142966 27.4715447 28.5750196 26.8536585 28.5408371 26.5284553 28.5066547 26.300813 28.3699249 26.0406504 28.2673776 25.8130081zM25.3834617 29C25.3492096 29 25.3492096 29 25.3149574 29 24.9039319 28.9684186 24.2873936 28.8105116 23.7051074 28.2736279 22.7460478 27.3893489 22.9173085 26.2840001 23.328334 25.8102792 23.6708553 25.3997211 24.2188893 25.0523258 24.2531415 25.0523258 24.3558979 24.989163 24.4586542 24.989163 24.5614106 25.0207444 24.664167 25.0523258 24.7326713 25.1154886 24.7669234 25.2102327L25.9657479 28.2420465C26.0342521 28.4315349 26 28.6210233 25.8629915 28.7789302 25.7602351 28.9368372 25.5889745 29 25.3834617 29zM24.2873936 25.8102792C24.1503851 25.9050234 23.9791244 26.0629304 23.8763681 26.1892559 23.6708553 26.4103257 23.4995946 27.1682792 24.2188893 27.8314884 24.5956627 28.1788838 25.0066883 28.3052093 25.2807053 28.3683721L24.2873936 25.8102792zM26.0989746 35C25.8618626 35 25.5773283 34.9295976 25.4350611 34.7535914 25.1031044 34.4719817 24.81857 34.1903719 24.6763028 33.9439633 24.1072342 33.1343352 23.5855879 32.1839021 24.4866133 31.4094752 25.1505268 30.8462557 26.146397 30.1422312 26.1938194 30.10703 26.3360865 30.0014263 26.5257761 29.9662251 26.7154657 30.0366275 26.9051552 30.10703 27 30.2126336 27 30.3534385L27 34.3311768C27 34.6127865 26.762888 34.8591951 26.4309313 34.9647988 26.2886641 34.9647988 26.1938194 35 26.0989746 35zM26.0041298 31.1982679C25.7195954 31.4094752 25.4350611 31.6558838 25.1505268 31.8670911 24.7237252 32.2191034 24.81857 32.6767193 25.4350611 33.6271523 25.5773283 33.8031584 25.7195954 34.0143657 25.9567074 34.2255731L25.9567074 31.1982679 26.0041298 31.1982679z"/>
      <path fill="#4D5052" d="M19.3092532,23.1802009 C19.3092532,23.1802009 19.3709236,24.6452135 19.9876281,25.555897 C20.4501564,26.2290108 20.820179,26.743745 20.820179,26.743745 C20.820179,26.743745 20.6043325,26.9813146 20.6043325,27.9711879 C20.6043325,28.7234917 20.6968381,29.2382258 20.6968381,29.2382258 L19.7409463,30.5448586 C19.7409463,30.5448586 18.9700658,31.5743269 19.000901,32.4850104 C19.000901,32.9205547 19.4017589,33.1581243 19.6792759,32.8809597 L22.0227526,30.6636434 C22.207764,30.4656688 22.3311049,30.1885042 22.3619401,29.9113397 C22.4236105,29.3174157 22.5161162,28.3275423 22.5161162,28.3671373 C22.5161162,28.3671373 22.3002696,27.0209095 22.7011275,26.7833399 C23.1019854,26.5457703 23.1636558,26.3477956 22.485281,26.149821 C21.8377413,25.9518463 20.2343098,24.7244034 20.0492985,23.6553401 C19.833452,22.546682 19.3092532,23.1802009 19.3092532,23.1802009 Z"/>
      <path fill="#4D5052" d="M19.9209518 24.5579048C20.1329763 24.885503 19.8856143 25.7491708 19.5675776 26.2256771 19.2495409 26.7319652 18.9315041 27 18.9315041 27L17.305983 25.5109176C17.305983 25.5109176 17.6946946 24.4983416 17.553345 24.3196517 17.4119953 24.1409618 16.7759218 23.9920535 16.3872103 23.783582 15.9984987 23.5751105 15.5037749 22.7114427 17.129296 23.0986041 19.5675776 23.6942371 19.9209518 24.5579048 19.9209518 24.5579048zM16.4828381 30C16.0812364 30.569353 15.7242572 31.209875 16.3043485 31.8148125 16.8844398 32.3841655 18 31.4589669 18 31.4589669L16.4828381 30zM9.61985002 17C9.54182518 17 9.46380035 16.9566671 9.38577552 16.9133341 8.37145268 16.0033423 7.31811744 15.8300105 7.31811744 15.8300105 7.12305535 15.7866776 6.96700569 15.5700129 7.0060181 15.3533481 7.04503052 15.1366834 7.2400926 14.9633516 7.43515468 15.0066846 7.4741671 15.0066846 8.68355202 15.2233493 9.85392451 16.26334 10.0099742 16.3933388 10.0489866 16.6966694 9.93194935 16.8700012 9.85392451 16.9566671 9.73688726 17 9.61985002 17z"/>
      <path fill="#4D5052" d="M8.64789183 17C8.61183884 17 8.53973286 17 8.50367987 16.9683855 7.16971924 16.4309386 6.5568184 16.7154693 6.5568184 16.7154693 6.37655345 16.8103129 6.16023551 16.7470838 6.05207654 16.5890112 5.94391757 16.4309386 6.01602355 16.2412515 6.16023551 16.1780224 6.26839448 16.1147934 7.09761326 15.7038046 8.79210379 16.3993241 8.97236874 16.4625531 9.04447472 16.6522403 8.97236874 16.8103129 8.90026276 16.936771 8.7560508 17 8.64789183 17zM6.61506929 20.992722C6.61506929 20.992722 6.58007559 20.992722 6.58007559 20.992722 5.91519528 20.8976742 5.39028977 20.992722 5.39028977 20.992722 5.21532127 21.0402459 5.00535907 20.8501502 5.00535907 20.5650067 4.97036536 20.327387 5.11034017 20.0422435 5.32030237 20.0422435 5.35529607 20.0422435 5.91519528 19.9471956 6.68505669 20.0422435 6.8600252 20.0897674 7 20.2798631 7 20.5650067 6.9650063 20.8026263 6.7900378 20.992722 6.61506929 20.992722zM11.6651772 23C11.6297003 23 11.5942235 23 11.5587467 22.9675035 11.5587467 22.9675035 10.600872 22.1225944 9.5720437 21.0177134 9.14632164 20.5952588 8.96893745 20.1728043 9.00441429 19.7503498 9.03989112 19.2953987 9.39465951 19.0679232 9.39465951 19.0354267 9.46561319 18.9704337 9.5720437 19.0029302 9.64299738 19.0679232 9.71395106 19.1329162 9.67847422 19.2304057 9.60752054 19.2953987 9.60752054 19.2953987 9.35918267 19.4578812 9.35918267 19.7828463 9.32370583 20.0753148 9.50109002 20.4327763 9.82038157 20.7902378 10.5653952 21.5701539 11.274932 22.2200839 11.5942235 22.545049 11.8425614 21.9601119 12.6940055 20.6277553 14.8226158 20.5952588 14.9290463 20.5952588 15 20.6602518 15 20.7577413 15 20.8552308 14.9290463 20.9202238 14.8226158 20.9202238 12.4101908 20.9527204 11.8425614 22.805021 11.8070845 22.870014 11.8070845 22.935007 11.7361309 22.9675035 11.700654 23 11.700654 23 11.6651772 23 11.6651772 23zM4.92834796 20C4.92834796 20 4.89780801 20 4.92834796 20L2.14921249 19.5064476C2.08813259 19.5064476 2.02705269 19.4447535 2.02705269 19.3830594 2.02705269 19.3522124 1.90489289 18.3342605 2.17975244 17.1929205 2.54623184 15.6814161 3.3097306 15.0644755 3.34027055 15.0336285 3.40135045 14.9719344 3.4929703 15.0027815 3.5540502 15.0644755 3.6151301 15.1261696 3.58459015 15.2187107 3.52351025 15.2804047 3.52351025 15.2804047 2.82109139 15.8664983 2.45461199 17.2546145 2.24083234 18.1183313 2.27137229 18.920354 2.30191224 19.2288243L4.74510826 19.6606827C4.68402836 19.0437421 4.65348841 17.1929205 5.72238666 15.4963339 5.75292661 15.4346399 5.87508641 15.4037928 5.93616631 15.4654869 5.99724621 15.5271809 6.02778616 15.619722 5.96670626 15.6814161 4.74510826 17.5939318 5.05050776 19.8149178 5.05050776 19.8457649 5.05050776 19.9074589 5.05050776 19.9383059 5.01996781 19.969153 5.01996781 19.969153 4.95888791 20 4.92834796 20z"/>
      <path fill="#4D5052" d="M6.41367916 18C6.24396463 18 6.07425011 17.9274919 6.03182147 17.7824758 5.94696421 17.6012056 6.03182147 17.3836814 6.28639326 17.3111733 6.37125053 17.2749193 7.89868126 16.7673628 9.68068379 17.1299031 9.89282695 17.1661572 10.0625415 17.3836814 9.97768421 17.5649516 9.93525558 17.7462217 9.68068379 17.8912379 9.46854063 17.8187298 7.9411099 17.5286975 6.62582232 17.963746 6.62582232 17.963746 6.54096505 18 6.45610779 18 6.41367916 18zM44.8367575 21C44.7218014 21 44.6451641 20.9287028 44.6451641 20.8217571 44.6451641 20.8217571 44.4918894 19.4671109 43.6871971 18.1481133 42.6142741 16.3656842 40.9282522 15.438821 38.7057688 15.3318753 33.5327472 15.1179838 32.4215055 18.7897878 32.3831868 18.9323822 32.3448681 19.0393279 32.2682308 19.0749765 32.1532747 19.0749765 32.0383187 19.0393279 32 18.9680308 32 18.861085 32 18.8254364 33.2261977 14.7614979 38.7057688 15.011038 41.6563071 15.1179838 43.2273729 16.72217 43.9937465 18.005519 44.8367575 19.3958138 44.9900322 20.7504599 44.9900322 20.8217571 45.0283509 20.8930543 44.9517135 20.9643514 44.8367575 21 44.8367575 21 44.8367575 21 44.8367575 21zM32.8678091 46C32.7943304 46 32.757591 45.9618852 32.7208517 45.9237704 32.7208517 45.9237704 31.5451928 44.056144 29.7817044 43.9036847 27.2834292 43.7131105 26.1812489 45.0471294 26.1445096 45.0852442 26.1077703 45.1614739 25.9975522 45.1614739 25.9240735 45.123359 25.8505949 45.0852442 25.8138555 45.0090146 25.8138555 44.8946701 25.8138555 44.8565553 26.622121 41.5786804 24.4544999 40.130317 22.0297034 38.5294944 19.7886036 40.778269 19.7886036 40.8163839 19.7518642 40.8544987 19.6416462 40.8926135 19.5681675 40.8544987 19.4946888 40.8163839 19.4579495 40.7401542 19.4579495 40.6639246 19.4579495 40.6258098 19.7886036 35.4803084 16.0779301 34.2987489 12.3672566 33.1171893 10.0159388 35.7471122 9.97919943 35.785227 9.94246009 35.8614567 9.83224206 35.8614567 9.75876338 35.8233419 9.6852847 35.785227 9.64854536 35.7089974 9.64854536 35.6327677 9.64854536 35.6327677 9.90572075 34.1462896 8.91375853 33.6507969 7.92179632 33.1553042 7.29722751 33.612682 7.29722751 33.612682 7.22374883 33.6889117 7.11353081 33.6507969 7.04005213 33.5745672 6.96657344 33.4983376 7.00331278 33.3839931 7.07679147 33.3077635 7.11353081 33.2696486 7.84831763 32.6598114 9.0607159 33.2696486 9.90572075 33.6889117 10.0159388 34.6036675 10.0159388 35.1753899 10.8242043 34.4512082 13.0653041 32.96473 16.1514088 33.9176006 19.4579495 34.9848157 19.7886036 38.9487575 19.7886036 40.2446615 20.5233904 39.6348243 22.5073148 38.4151499 24.6014573 39.7872836 26.4384243 41.006958 26.3649456 43.3319623 26.2179883 44.3991774 26.7690784 43.9799143 27.907998 43.3319623 29.744965 43.4844216 31.7288895 43.6368809 32.9412877 45.5807369 32.9780271 45.6569666 33.0147664 45.7331962 33.0147664 45.8475407 32.9045484 45.9237704 32.9412877 45.9618852 32.9045484 46 32.8678091 46zM34.1377857 41C33.5403384 41 33.1537548 40.8377415 33.1186109 40.8377415 33.013179 40.8052898 32.978035 40.7079348 33.013179 40.6105797 33.0483229 40.5132246 33.1537548 40.4807729 33.2591867 40.5132246 33.3294746 40.5456763 34.5946572 41 35.7544079 40.1238043 36.0355596 39.8966424 36.3167113 39.6694805 36.6330069 39.409867 37.6873257 38.5012196 38.9173643 37.4627654 40.7799943 37.0084416 40.8854261 36.97599 40.9557141 37.0408933 40.990858 37.1382484 41.026002 37.2356035 40.9557141 37.3005069 40.8502822 37.3329586 39.0579402 37.7548306 37.8630455 38.7608331 36.8438707 39.6370289 36.527575 39.8966424 36.2464234 40.156256 35.9652717 40.3509661 35.3326804 40.8701932 34.6649451 41 34.1377857 41zM35.8013749 37C35.71498 37 35.6717825 36.9596988 35.6285851 36.9193977 34.4622542 35.1864476 32.777554 35.3073511 32.4319744 35.4282546 32.388777 35.5088569 32.3023821 35.5088569 32.1727898 35.5088569 32.0863949 35.4685557 32 35.3879534 32 35.3073511 32 35.1461464 32.2159872 35.0655441 32.3023821 35.0655441 32.9071463 34.9043394 34.7646363 34.9043394 35.9741646 36.7178918 36.0173621 36.7984942 36.0173621 36.9193977 35.8877698 37 35.8877698 37 35.8445723 37 35.8013749 37zM48.1457887 40C48.1125968 40 48.079405 40 48.079405 39.9550617 48.0130213 39.9101234 47.9798295 39.7753084 48.0130213 39.6404935 48.0462132 39.5955551 49.8053808 35.4162916 53.8879775 37.6632075 53.9875531 37.7081458 54.0207449 37.8429608 53.9875531 37.9777757 53.9543612 38.1125907 53.8547857 38.157529 53.7552102 38.1125907 49.9381482 36.0454281 48.3117479 39.865185 48.3117479 39.9101234 48.2453642 39.9550617 48.1789805 40 48.1457887 40zM6.04704669 22.9981482C7.45991764 23.0420578 7.87854607 22.2955944 7.98320318 21.7686791 8.08786029 21.2417638 7.66923186 20.0562043 7.66923186 20.0562043 7.66923186 20.0562043 7.66923186 19.9683851 6.72731789 20.0122947 5.73307537 20.0122947 6.04704669 22.9981482 6.04704669 22.9981482zM7.25316456 14C8.56962025 14.2916667 8.56962025 14.6666667 8.87341772 15 9.07594937 15.25 8.97468354 16 8.97468354 16L7 15.4583333 7.25316456 14zM24.0223464 23.3902825C24.0223464 23.3902825 23.8826816 23.6411783 24.301676 23.9199515 24.5810056 24.1150927 24.8324022 23.8920742 24.8324022 23.8920742L25 23 24.0223464 23.3902825zM26.0334728 26.215274C26.0334728 26.215274 25.8242678 26.538185 26.4518828 26.896975 26.8702929 27.1481281 27.2468619 26.861096 27.2468619 26.861096L28 26 26.0334728 26.215274zM24.372093 31C24.372093 31 24.0465116 31.1025641 24 31.8205128 24 32.5897436 24.744186 33 24.744186 33L26 31.5641026 24.372093 31zM27.1878051 54C27.1502441 54 27.1502441 54 27.1878051 54 27.037561 53.9651311 27 53.8953934 27 53.7907869 27 53.7210492 27.4131713 51.8032621 29.8921989 50.5828521 32.0331774 49.5019176 34.3243999 50.2341636 35.0380594 50.5131144 35.3009866 49.8157373 36.5405004 47.479524 40.4844081 46.3637206 44.6912429 45.1781795 47.88393 47.2703108 47.9214911 47.2703108 47.9966131 47.3400485 48.0341741 47.4446551 47.9590521 47.5143928 47.88393 47.5841305 47.771247 47.6189994 47.6961249 47.5492617 47.6585639 47.5143928 44.5785598 45.526868 40.5595301 46.6775403 36.2024512 47.8979502 35.3009866 50.7571964 35.3009866 50.7920653 35.3009866 50.8269341 35.2634256 50.8966718 35.1883035 50.8966718 35.1507425 50.9315407 35.0756204 50.9315407 35.0380594 50.8966718 35.0004984 50.8966718 32.3712266 49.7459996 30.042443 50.8966718 27.7136595 52.0473441 27.3380492 53.8605246 27.3380492 53.8605246 27.3380492 53.9302623 27.2629272 54 27.1878051 54z"/>
      <path fill="#C9C9C9" d="M28.1605136,19.1032063 C28.1605136,19.1032063 29.7857143,18.6519986 31.2303371,19.6364518 C32.6749599,20.6619238 33,23 33,23 C33,23 32.3138042,21.4412825 30.7247191,21.4412825 C29.0995185,21.4412825 28.3049759,22.5898112 28.3049759,22.5898112 C28.3049759,22.5898112 28.5216693,21.1131315 28.1605136,20.0876594 C27.7993579,19.0621874 28.1605136,19.1032063 28.1605136,19.1032063 Z"/>
      <path fill="#FFF" d="M49,29 C49.4369621,27.7727273 50.3444987,27.1363636 51.4537102,26.6818182 C52.5293091,26.2727273 52.9998837,26 52.9998837,26 C52.9998837,26 53.0334962,27.5 51.9578972,28 C50.8486857,28.5454545 49,29 49,29 Z"/>
    </g>
  </g>
</svg>
