<svg xmlns="http://www.w3.org/2000/svg" width="64" height="64" viewBox="0 0 64 64">
  <g fill="none">
    <rect width="64" height="64" fill="#FFF" fill-opacity="0"/>
    <g transform="translate(5.364 4)">
      <circle cx="26.5" cy="30.5" r="26.5" fill="#FD6A5D"/>
      <path fill="#D1584D" d="M48.2978056,47.3770492 C47.2068966,46.5355191 45.7021944,45.4644809 43.9341693,44.3169399 C41.7523511,42.9016393 39.9090909,42.136612 38.7805643,41.7540984 C38.968652,41.6393443 39.1567398,41.4863388 39.30721,41.3715847 C41.7523511,39.5355191 42.7304075,36.8196721 42.7304075,36.8196721 L42.8808777,38.6557377 C42.8808777,38.6557377 43.2946708,40.4918033 45.7021944,39.9945355 C48.4106583,39.420765 50.5924765,33.2240437 51.3448276,30.6994536 C51.8714734,28.8251366 52.6238245,25.3060109 53,23.5464481 C52.9247649,23.2786885 52.8495298,23.010929 52.7742947,22.7431694 C52.3981191,22.9726776 51.6833856,23.3934426 50.3291536,24.1967213 C47.4326019,25.9180328 45.3636364,30.3551913 45.3636364,30.3551913 C45.3636364,30.3551913 45.4012539,30.0874317 45.476489,29.5901639 C46.0783699,27.8688525 46.8683386,25.2295082 47.507837,21.7868852 C48.1097179,18.5737705 48.0721003,15.4754098 47.2068966,12.7595628 C42.6175549,7.63387978 36.1097179,4.30601093 28.8119122,4 L28.9623824,15.8579235 C28.1347962,14.557377 26.1034483,11.6885246 23.2821317,11 C19.4827586,10.1202186 15.7210031,10.1202186 12.862069,14.7868852 C10.0031348,19.4535519 11.9968652,24.3114754 12.5987461,28.1748634 C13.200627,32 12.7492163,30.6612022 12.3730408,29.5519126 C11.9968652,28.4808743 10.9059561,27.3715847 9.40125392,25.6120219 C7.89655172,23.852459 5,22.4754098 5,22.4754098 C5,22.4754098 5.94043887,26.4535519 6.80564263,30.3934426 C7.67084639,34.3333333 9.43887147,37.8907104 10.7178683,38.8469945 C12.0344828,39.8415301 13.6144201,40.2240437 15.0438871,39.0382514 C15.8714734,38.3114754 15.7962382,37.5464481 15.6081505,37.010929 C15.8714734,37.5081967 16.2852665,38.1967213 16.5862069,38.6557377 C17.0752351,39.4590164 20.8369906,43.3989071 23.507837,44.3551913 C25.539185,45.0819672 27.4200627,45.3497268 29.338558,45.3879781 L29.1880878,45.5027322 C29.1880878,45.5027322 29.1880878,45.5027322 29.1880878,45.5027322 L33.4012539,46.0765027 C37.200627,47.147541 40.3981191,49.6721311 42.3918495,53 C44.6112853,51.4699454 46.6050157,49.557377 48.2978056,47.3770492 Z"/>
      <path fill="#C9EDFF" d="M27.1507064,13.0332886 C28.3186813,10.2846565 32.7268446,6.95532746 37.6248038,8.03929506 C42.522763,9.12326266 44.7456829,13.149428 44.1805338,18.4144135 C43.6153846,23.679399 43.1632653,26.9313018 43.1632653,26.9313018 C43.1632653,26.9313018 45.2354788,22.479292 48.0989011,20.6984881 C51,18.9563973 51,18.9563973 51,18.9563973 C51,18.9563973 49.8697017,24.6859404 49.1538462,27.2410068 C48.4379906,29.7960733 46.66719,35.8353214 43.9544741,36.2611658 C41.2417582,36.6870102 40.7142857,35.2546245 40.7142857,35.2546245 L40.5635793,33.3963943 C40.5635793,33.3963943 39.5839874,36.1450264 37.1726845,37.9645435 C34.7613815,39.7840605 31.4081633,41.7971432 28.9215071,41.9519957 C26.4348509,42.1068482 24.0235479,41.9132826 21.3861852,40.9841675 C18.7488226,40.0163393 15.0188383,36.028887 14.4913658,35.2546245 C14.0015699,34.4416488 13.1726845,32.9705499 13.1726845,32.9705499 C13.1726845,32.9705499 14.3783359,34.4416488 12.9843014,35.6804689 C11.5902669,36.919289 9.97017268,36.4934446 8.68916797,35.4869032 C7.37048666,34.519075 5.63736264,30.9574672 4.77080063,26.9700149 C3.90423862,22.9825627 3,18.9951105 3,18.9951105 C3,18.9951105 5.82574568,20.35007 7.33281005,22.1308739 C8.83987441,23.9116778 9.93249608,24.9956454 10.3092622,26.1183261 C10.6860283,27.2022937 11.100471,28.5959663 10.5353218,24.7246535 C9.97017268,20.8533406 7.93563579,15.9367733 10.7990581,11.2524847 C13.6624804,6.56819617 17.3924647,6.56819617 21.0847724,7.45859813 C24.7770801,8.34900009 27.1507064,13.0332886 27.1507064,13.0332886 Z"/>
      <circle cx="37" cy="23" r="6" fill="#30E6B6"/>
      <circle cx="19" cy="23" r="6" fill="#30E6B6"/>
      <path fill="#B8FFEC" d="M21 18.7608696C20.2771739 18.3043478 19.4402174 18 18.5271739 18 16.0163043 18 14 20.0163043 14 22.5271739 14 23.4402174 14.2663043 24.3152174 14.7608696 25L21 18.7608696zM39 18.7608696C38.2771739 18.3043478 37.4402174 18 36.5271739 18 34.0163043 18 32 20.0163043 32 22.5271739 32 23.4402174 32.2663043 24.3152174 32.7608696 25L39 18.7608696z"/>
      <polygon fill="#FFF" points="28 35 29 37 30 35"/>
      <polygon fill="#FFF" points="24 35 25.04 37 26 35"/>
      <path fill="#93C2D9" d="M6.54055887 29.5155201C5.92106124 27.3881052 6.00366093 24 6.00366093 24 6.00366093 24 10.422744 29.3973304 10.9183421 32.6278493 11.3726403 35.8583682 9.84454619 35.4250059 8.48165142 33.4945739 7.28395601 31.7611247 6.8709576 30.6580207 6.54055887 29.5155201zM17 9.55848649C15.3616307 10.0741476 13.2019622 11.5842982 12.0476565 14.4572674 10.8561153 17.5512343 10.2231089 21.8975212 11.0422936 26.0228104 11.8614782 30.1480996 8.24961869 20.166373 9.14327466 15.5254227 10.0369306 10.8844723 13.3881405 9.41115473 14.6913888 9.07965828 15.994637 8.74816182 17 9.55848649 17 9.55848649zM27.2500687 14.0505314C28.5458146 11.9297585 32.9284847 9.05156664 38.1495786 11.7782747 43.3706725 14.5049828 42.8752403 19.882657 41.8843757 24.2756867 41.0078417 28.176394 39.330994 32.1528433 36.7395021 35.0310352 33.6906882 38.4394202 30.2988826 39.9163871 27.097628 40.1814837 23.8963733 40.4844513 21 39.6891614 21 39.6891614 21 39.6891614 24.6585768 41.2039993 29.1936876 40.9767736 33.7287983 40.7495479 36.930053 37.909227 38.3782397 36.1671635 39.8645365 34.4251 42.8371301 29.8805866 43.904215 22.9502036 44.9712999 16.0198206 46.1908255 13.7475639 42.6084691 9.88472744 39.0261126 6.02189101 36.0916292 5.2644721 33.0809254 6.62782613 30.0702216 7.99118017 27.7836111 11.3238234 27.4406195 12.4978227 27.097628 13.671822 27.2500687 14.0505314 27.2500687 14.0505314zM44.1197546 28.7676939C44.9118741 27.1056108 45.6285536 25.1665138 46.9487527 23.9001648 48.2689519 22.6338157 50.4189905 19.5075166 49.9286308 21.8423476 49.4382711 24.1771786 49.0233514 27.224331 48.080352 29.559162 47.1750726 31.9335664 46.6469929 33.3977825 45.9303134 34.2288241 45.2136339 35.0598656 43.7802748 35.3368795 43.2144751 34.4662645 42.6486755 33.5560761 43.2899151 30.5484972 44.1197546 28.7676939z"/>
      <path fill="#FFF" d="M12,49.9002997 C14.4420512,46.4155845 18.9504533,42.7474632 21.6930647,42.3806511 C24.435676,42.013839 31.1982793,41.6103456 34.0911706,42.7474632 C36.984062,43.8845808 42.9201249,50.0103433 42.9201249,50.0103433 C42.9201249,50.0103433 43.7090953,51.0374172 40.3277937,52.6147094 C36.946492,54.1920015 32.2126697,56.4662367 25.2622164,55.9160185 C18.311763,55.4024815 12.1878501,51.1474609 12.1878501,51.1474609 L12,49.9002997 Z"/>
      <path fill="#C9C9C9" d="M27,44 L29,56.7799564 C29,56.7799564 27,57.3007697 27,56.7398938 C27,54.6967033 27,44 27,44 Z"/>
      <path fill="#C9C9C9" d="M15.1661417 53.9323505C15.7777827 52.2486289 16.6772548 49.8032237 18.4042412 47.7587046 20.1312276 45.7141854 23.081496 43.0282486 27.0391731 42.7075397 30.9968502 42.3868308 21.6063618 41.3846156 19.1597977 42.5471853 16.7132337 43.709755 12.5037044 49.2419831 12.4317466 49.2419831 12.3597888 49.2018945 12 52.3288061 12 52.3288061 12 52.3288061 13.0074087 53.8120846 13.7629653 53.9724391 14.5185218 54.0526163 15.1661417 53.9323505 15.1661417 53.9323505zM30 43.0753631C31.909375 43.4984954 34.996875 45.8834227 36.5 49.1915478 37.8 52.1150072 38.04375 55 38.04375 55L43 52.576606C43 52.576606 41.45625 48.999215 38.85625 46.7296873 36.25625 44.4601596 33.453125 43.4984954 32.1125 43.1907628 30.771875 42.8445637 30 43.0753631 30 43.0753631z"/>
      <path fill="#4D5052" d="M27,57 C12.1309859,57 0,44.8690141 0,30 C0,15.1309859 12.1309859,3 27,3 C41.8690141,3 54,15.1309859 54,30 C54,44.8690141 41.8690141,57 27,57 Z M27,3.76056338 C12.5492958,3.76056338 0.76056338,15.5492958 0.76056338,30 C0.76056338,44.4507042 12.5492958,56.2394366 27,56.2394366 C41.4507042,56.2394366 53.2394366,44.4507042 53.2394366,30 C53.2394366,15.5492958 41.4507042,3.76056338 27,3.76056338 Z"/>
      <path fill="#4D5052" d="M26.9615385,42 C26.9230769,42 26.9230769,42 26.9615385,42 C26.7307692,42 26.5384615,41.8115299 26.5384615,41.6230599 C26.5384615,41.4345898 26.7307692,41.2461197 26.9230769,41.2461197 C26.9230769,41.2461197 26.9230769,41.2461197 26.9615385,41.2461197 C27.4230769,41.2461197 34.6923077,41.1330377 39.1923077,34.9889135 C44,28.3547672 44.1538462,18.3658537 44.1538462,17.2350333 C44.1538462,12.5609756 40.2692308,8.75388027 35.5,8.75388027 C31.7692308,8.75388027 28.4615385,11.0909091 27.3076923,14.5587583 C27.2692308,14.7095344 27.1153846,14.8226164 26.9615385,14.8226164 C26.8076923,14.8226164 26.6538462,14.7095344 26.6153846,14.5587583 C25.4615385,11.0909091 22.1538462,8.75388027 18.4230769,8.75388027 C13.6538462,8.75388027 9.76923077,12.5609756 9.76923077,17.2350333 C9.76923077,17.4611973 9.61538462,17.6119734 9.38461538,17.6119734 C9.15384615,17.6119734 9,17.4611973 9,17.2350333 C9,12.1463415 13.2307692,8 18.4230769,8 C22.1538462,8 25.5,10.1485588 27,13.4279379 C28.5,10.1485588 31.8461538,8 35.5769231,8 C40.7692308,8 44.9615385,12.1463415 45,17.1973392 C45,18.3281596 44.8461538,28.5809313 39.8846154,35.3658537 C35.1153846,41.886918 27.4615385,42 26.9615385,42 Z"/>
      <path fill="#4D5052" d="M36.5 30C32.925 30 30 27.075 30 23.5 30 19.925 32.925 17 36.5 17 40.075 17 43 19.925 43 23.5 43 27.075 40.075 30 36.5 30zM36.5 17.8125C33.371875 17.8125 30.8125 20.371875 30.8125 23.5 30.8125 26.628125 33.371875 29.1875 36.5 29.1875 39.628125 29.1875 42.1875 26.628125 42.1875 23.5 42.1875 20.371875 39.628125 17.8125 36.5 17.8125zM29.1173969 27C29.0358889 27 28.954381 26.9613164 28.913627 26.8839493 26.5091419 21.8937675 29.6064447 18.1027766 29.6471987 18.0640931 29.7287067 17.9867259 29.8509686 17.9867259 29.9324766 18.0254095 30.0139846 18.1027766 30.0139846 18.2188274 29.9732306 18.2961945 29.9324766 18.3348781 26.9574357 21.932451 29.2804128 26.6905314 29.3211668 26.8065821 29.2804128 26.8839493 29.1989049 26.9613164 29.1989049 27 29.1581509 27 29.1173969 27z"/>
      <path fill="#4D5052" d="M40 24.4460094C40 23.3192488 38.9384615 23.0187793 37.7384615 22.7934272L37.7384615 20.3896714C38.3846154 20.5023474 38.9846154 20.7276995 39.2615385 21.1784038L39.7692308 20.9530516C39.3538462 20.3521127 38.5230769 20.0516432 37.7384615 19.9389671L37.7384615 19 37.2769231 19 37.2769231 19.8638498 36.8153846 19.8638498 36.8153846 19 36.3538462 19 36.3538462 19.9389671C35.2461538 20.0892019 34.1846154 20.5774648 34.1846154 21.5539906 34.2307692 22.5305164 35.2 22.8309859 36.3538462 23.0187793L36.3538462 25.6103286C35.6153846 25.4976526 34.8307692 25.2347418 34.5076923 24.7089202L34 24.9342723C34.4615385 25.6478873 35.4307692 25.9859155 36.4 26.0985915L36.4 27 36.8615385 27 36.8615385 26.1361502 37.3230769 26.1361502C37.3230769 26.1361502 37.3230769 26.1361502 37.3230769 26.1361502L37.3230769 27 37.7846154 27 37.7846154 26.0985915C38.8461538 25.9483568 40 25.4600939 40 24.4460094zM37 20.314554C37.0923077 20.314554 37.1384615 20.314554 37.2307692 20.314554L37.2307692 22.7183099C37.1384615 22.7183099 37.0923077 22.6807512 37 22.6807512 36.9076923 22.6807512 36.8153846 22.6431925 36.7230769 22.6431925L36.7230769 20.314554C36.8615385 20.314554 36.9538462 20.314554 37 20.314554zM34.7384615 21.5164319C34.6923077 20.8403756 35.5230769 20.5023474 36.3076923 20.3521127L36.3076923 22.5305164C35.3846154 22.3802817 34.7384615 22.1549296 34.7384615 21.5164319zM37 25.6478873C36.9076923 25.6478873 36.8615385 25.6478873 36.7692308 25.6478873L36.7692308 23.0938967C36.8153846 23.0938967 36.8615385 23.0938967 36.9538462 23.1314554 37.0461538 23.1314554 37.1846154 23.1690141 37.2769231 23.1690141L37.2769231 25.6478873C37.1846154 25.6478873 37.0923077 25.6478873 37 25.6478873zM37.7384615 25.6103286L37.7384615 23.2816901C38.6615385 23.4694836 39.4461538 23.7323944 39.4461538 24.4835681 39.4461538 25.1596244 38.5692308 25.4976526 37.7384615 25.6103286zM31.6052632 35L23.3947368 35C23.1578947 35 23 34.8 23 34.5 23 34.2 23.1578947 34 23.3947368 34L31.6052632 34C31.8421053 34 32 34.2 32 34.5 32 34.8 31.8421053 35 31.6052632 35z"/>
      <path fill="#4D5052" d="M28.5818262,37 C28.4068197,37 28.2755649,36.9178082 28.1880617,36.7534247 L27.05052,34.6164384 C26.9630168,34.4931507 27.0067684,34.3287671 27.05052,34.2054795 C27.1380232,34.0821918 27.269278,34 27.4005328,34 L29.5881131,34 C29.7193679,34 29.8943743,34.0821918 29.9381259,34.2054795 C29.9818775,34.3287671 30.0256291,34.4931507 29.9818775,34.6164384 L28.931839,36.7534247 C28.931839,36.9178082 28.7568326,37 28.5818262,37 C28.5818262,37 28.5818262,37 28.5818262,37 Z M28.1880617,34.8630137 L28.5818262,35.6438356 L28.9755906,34.8630137 L28.1880617,34.8630137 Z"/>
      <path fill="#4D5052" d="M25.5818262 37C25.4068197 37 25.2755649 36.9178082 25.1880617 36.7534247L24.05052 34.6164384C23.9630168 34.4931507 24.0067684 34.3287671 24.05052 34.2054795 24.1380232 34.0821918 24.269278 34 24.4005328 34L26.5881131 34C26.7193679 34 26.8943743 34.0821918 26.9381259 34.2054795 26.9818775 34.3287671 27.0256291 34.4931507 26.9818775 34.6164384L25.931839 36.7534247C25.8880874 36.9178082 25.7568326 37 25.5818262 37 25.5818262 37 25.5818262 37 25.5818262 37zM25.1443101 34.8630137L25.5380745 35.6438356 25.931839 34.8630137 25.1443101 34.8630137zM27 .0216114886C27 .0216114886 35.2714074-.462057462 40.4222384 3.14685701 45.5354721 6.71856619 46.7385859 12.2621565 45.6106667 18.326621 44.4827475 24.3910855 42.7532714 28 42.7532714 28 42.7532714 28 47.3401428 16.0570975 41.4373657 10.6623284 35.5345886 5.26755933 29.5566168 10.5879178 28.8798653 11.4436398 28.2031138 12.2993618 27.1503892 14.4200641 27.1503892 14.4200641L27 .0216114886z"/>
      <path fill="#4D5052" d="M43.0694213,35 C42.480313,35 41.9697526,34.8557412 41.498466,34.6032883 C40.2809756,33.9180589 40.0060584,32.5476001 40.0060584,32.4754707 C39.9667846,32.2951472 40.1238801,32.0787589 40.3202495,32.0787589 C40.5166189,32.0426942 40.7522622,32.1869531 40.7522622,32.3672766 C40.7522622,32.3672766 40.9486316,33.4852824 41.8912048,33.9901883 C42.480313,34.3147706 43.1872429,34.3508353 44.0905422,34.0983824 C45.7400453,33.6295412 48.0572044,31.4295943 49.863803,23.531424 C50.2958157,21.6560594 50.7671023,19.8528242 51.0027456,18.9151419 C50.3350896,19.2036595 49.1568731,19.8528242 47.6251917,21.2232829 C45.2294848,23.3511005 43.4621601,26.4166004 43.4621601,26.4526651 C43.3443385,26.6329886 43.1086952,26.705118 42.9515996,26.5969239 C42.7552302,26.4887298 42.6766825,26.2723416 42.7945041,26.1280827 C42.8730519,25.9838239 44.6403766,22.9183241 47.1146312,20.7183771 C49.8245291,18.3381066 51.4740322,18.0135243 51.55258,18.0135243 C51.6704016,17.9774596 51.8274971,18.0135243 51.9060449,18.1217184 C51.9845927,18.1938478 52.0238665,18.3381066 51.9845927,18.4463007 C51.9845927,18.4823654 51.2776628,21.0068947 50.6492807,23.7117475 C49.1568731,30.3476531 47.0360834,34.0983824 44.3261855,34.8196765 C43.9334467,34.9278706 43.4621601,35 43.0694213,35 Z"/>
      <path fill="#4D5052" d="M44.3948873 30C44.3577266 30 44.3205658 30 44.2462443 29.9623028 44.0604406 29.8869083 43.9489583 29.6607249 44.0232798 29.4722388 44.0604406 29.3591471 45.1381023 26.6449465 47.0704613 24.3077183 48.742695 22.2720679 50.3406073 21.1034538 50.4149288 21.0657565 50.5635718 20.9526648 50.823697 20.9903621 50.9351793 21.141151 51.0466615 21.2919399 51.0095008 21.5558205 50.8608578 21.6689122 50.8608578 21.6689122 49.2629455 22.8375263 47.6650333 24.7977823 45.8069958 27.0219188 44.7664948 29.7361194 44.7293341 29.7738166 44.6921733 29.9246055 44.5435303 30 44.3948873 30zM45.0762267 35C44.6221703 35 44.2135196 34.8850299 43.8048689 34.6167665 42.3064831 33.697006 43.3508126 31.2443114 43.3962183 31.1293413 43.4416239 31.0143713 43.5778408 30.9760479 43.668652 31.0143713 43.8048689 31.0526946 43.8502746 31.1676647 43.8048689 31.2443114 43.8048689 31.2826347 42.8513507 33.5053892 44.0773027 34.2718563 44.5313591 34.5401198 44.9400098 34.6550898 45.3940661 34.5401198 46.3021787 34.348503 47.1194801 33.5053892 47.5735365 32.7772455 47.6189421 32.7005988 47.755159 32.6622754 47.8913759 32.7005988 47.9821872 32.7389222 48.0275928 32.8538922 47.9821872 32.9688623 47.4827252 33.7736527 46.5746125 34.7317365 45.530283 34.9233533 45.3486605 34.9616766 45.2124436 35 45.0762267 35zM42.6336279 53C42.4813925 53 42.3291571 52.9236111 42.2910983 52.7326389 40.083685 46.7743056 34.3748574 42.7638889 28.0190294 42.7638889 21.7012603 42.7638889 15.9543739 46.7743056 13.7469606 52.7326389 13.6708429 52.9236111 13.4424898 53.0381944 13.2521955 52.9618056 13.0619013 52.8854167 12.9477247 52.65625 13.0238424 52.4652778 15.3454323 46.2013889 21.3587306 42 27.9809706 42 34.6412694 42 40.6545677 46.2013889 42.9761576 52.4652778 43.0522753 52.65625 42.9380987 52.8854167 42.7478045 52.9618056 42.7097456 52.9618056 42.6716868 53 42.6336279 53z"/>
      <path fill="#4D5052" d="M32.4076923 41C30.7269231 41.7676768 28.9 42.1717172 27 42.2121212 33.4307692 42.2121212 38.9115385 46.6969697 41.0307692 53 42.8211538 51.7474747 44.5019231 50.1717172 46 48.1515152 42.1634615 44.5555556 37.5230769 42.0505051 32.4076923 41zM26.6187109 43C26.0916555 43 18.6375855 42.8839286 14.0446736 36.2678571 9.11294045 29.1875 9 18.5863095 9 17.3869048 9 17.1547619 9.15058727 17 9.37646818 17 9.60234909 17 9.75293636 17.1547619 9.75293636 17.3869048 9.75293636 17.8511905 9.79058318 28.8005952 14.6470227 35.8035714 19.1269941 42.264881 26.5434173 42.2261905 26.6187109 42.2261905 26.6187109 42.2261905 26.6187109 42.2261905 26.6187109 42.2261905 26.806945 42.2261905 26.9951791 42.3809524 26.9951791 42.6130952 27.0328259 42.8065476 26.8445918 43 26.6187109 43 26.6563577 43 26.6187109 43 26.6187109 43z"/>
      <path fill="#4D5052" d="M18.5,30 C14.925,30 12,27.075 12,23.5 C12,19.925 14.925,17 18.5,17 C22.075,17 25,19.925 25,23.5 C25,27.075 22.075,30 18.5,30 Z M18.5,17.8125 C15.371875,17.8125 12.8125,20.371875 12.8125,23.5 C12.8125,26.628125 15.371875,29.1875 18.5,29.1875 C21.628125,29.1875 24.1875,26.628125 24.1875,23.5 C24.1875,20.371875 21.628125,17.8125 18.5,17.8125 Z"/>
      <path fill="#4D5052" d="M24.8846055 27C24.8445603 27 24.8445603 27 24.8045151 27 24.6843795 26.961222 24.6443342 26.8448879 24.7244247 26.7285538 27.0070017 21.9588559 24.0837013 18.3524989 24.0436561 18.3137209 23.9635657 18.2361648 24.0036109 18.1198307 24.0837013 18.0422746 24.1637917 17.9647186 24.2839274 18.0034966 24.3640178 18.0810527 24.404063 18.1198307 27.4875442 21.9200778 25.0848316 26.9224439 25.0447864 26.961222 24.9646959 27 24.8846055 27zM21 24.4460094C21 23.3192488 19.9384615 23.0187793 18.7384615 22.7934272L18.7384615 20.3896714C19.3846154 20.5023474 19.9846154 20.7276995 20.2615385 21.1784038L20.7692308 20.9530516C20.3538462 20.3521127 19.5230769 20.0516432 18.7384615 19.9389671L18.7384615 19 18.2769231 19 18.2769231 19.8638498 17.8153846 19.8638498 17.8153846 19 17.3538462 19 17.3538462 19.9389671C16.2461538 20.0892019 15.1846154 20.5774648 15.1846154 21.5539906 15.2307692 22.5305164 16.2 22.8309859 17.3538462 23.0187793L17.3538462 25.6103286C16.6153846 25.4976526 15.8307692 25.2347418 15.5076923 24.7089202L15 24.9342723C15.4615385 25.6478873 16.4307692 25.9859155 17.4 26.0985915L17.4 27 17.8615385 27 17.8615385 26.1361502 18.3230769 26.1361502C18.3230769 26.1361502 18.3230769 26.1361502 18.3230769 26.1361502L18.3230769 27 18.7846154 27 18.7846154 26.0985915C19.8461538 25.9483568 21 25.4600939 21 24.4460094zM18 20.314554C18.0923077 20.314554 18.1384615 20.314554 18.2307692 20.314554L18.2307692 22.7183099C18.1384615 22.7183099 18.0923077 22.6807512 18 22.6807512 17.9076923 22.6807512 17.8153846 22.6431925 17.7230769 22.6431925L17.7230769 20.314554C17.8615385 20.314554 17.9538462 20.314554 18 20.314554zM15.7384615 21.5164319C15.6923077 20.8403756 16.5230769 20.5023474 17.3076923 20.3521127L17.3076923 22.5305164C16.3846154 22.3802817 15.7384615 22.1549296 15.7384615 21.5164319zM18 25.6478873C17.9076923 25.6478873 17.8615385 25.6478873 17.7692308 25.6478873L17.7692308 23.0938967C17.8153846 23.0938967 17.8615385 23.0938967 17.9538462 23.1314554 18.0461538 23.1314554 18.1846154 23.1690141 18.2769231 23.1690141L18.2769231 25.6478873C18.1846154 25.6478873 18.0923077 25.6478873 18 25.6478873zM18.7384615 25.6103286L18.7384615 23.2816901C19.6615385 23.4694836 20.4461538 23.7323944 20.4461538 24.4835681 20.4461538 25.1596244 19.5692308 25.4976526 18.7384615 25.6103286z"/>
      <path fill="#4D5052" d="M27,0.0216114886 C27,0.0216114886 18.7285926,-0.462057462 13.5777616,3.14685701 C8.46452792,6.71856619 7.26141411,12.2621565 8.3893333,18.326621 C9.5172525,24.3910855 11.2467286,28 11.2467286,28 C11.2467286,28 6.69745451,16.0198922 12.5626343,10.6251231 C18.4278141,5.23035403 24.4433832,10.5507125 25.1201347,11.4064345 C25.7968862,12.2621565 26.8496108,14.3828588 26.8496108,14.3828588 L27,0.0216114886 Z"/>
      <path fill="#4D5052" d="M11.9405916,35 C11.549134,35 11.1185305,34.9278706 10.6487814,34.8196765 C7.9868693,34.0623177 5.87299796,30.3115884 4.3463131,23.7117475 C3.75912662,21.0068947 3.05450284,18.4823654 3.01535707,18.4463007 C2.97621131,18.3381066 3.01535707,18.1938478 3.0936486,18.1217184 C3.17194014,18.0135243 3.3285232,17.9774596 3.44596049,18.0135243 C3.52425203,18.0135243 5.16837418,18.3381066 7.869432,20.7183771 C10.374761,22.9183241 12.0971747,25.9838239 12.1754662,26.1280827 C12.2929035,26.3084063 12.214612,26.5247945 12.0188831,26.5969239 C11.8231543,26.705118 11.5882797,26.6329886 11.5099882,26.4526651 C11.5099882,26.4166004 9.74842875,23.3511005 7.36053705,21.2232829 C5.83385219,19.8528242 4.65947923,19.2036595 3.99400121,18.9151419 C4.22887581,19.8528242 4.69862499,21.6560594 5.12922841,23.531424 C6.89078786,31.4295943 9.23953379,33.6295412 10.8836559,34.0983824 C11.7840086,34.3508353 12.5277781,34.3147706 13.0758188,33.9901883 C13.9761714,33.4852824 14.211046,32.3672766 14.211046,32.3672766 C14.2501918,32.1869531 14.4459206,32.0426942 14.6807952,32.0787589 C14.876524,32.1148237 15.0331071,32.2951472 14.9939613,32.4754707 C14.9939613,32.5476001 14.719941,33.9180589 13.5064222,34.6032883 C13.0366731,34.8557412 12.5277781,35 11.9405916,35 Z"/>
      <path fill="#4D5052" d="M10.5108988 29.9648241C10.3426271 29.9648241 10.1743554 29.8944724 10.1322874 29.7537688 10.1322874 29.718593 8.9543854 27.1859296 6.85098891 25.1457286 5.8413586 24.160804 5.12620379 23.5979899 5.12620379 23.5979899 4.95793207 23.4572864 4.95793207 23.2462312 5.12620379 23.1055276 5.29447551 22.9648241 5.54688309 22.9648241 5.71515481 23.1055276 5.75722274 23.1407035 6.47237754 23.7035176 7.52407579 24.7236181 9.71160814 26.8693467 10.9315781 29.4371859 10.973646 29.5427136 11.0577819 29.718593 10.9315781 29.9296482 10.7212385 30 10.6371026 29.9648241 10.5529667 29.9648241 10.5108988 29.9648241zM9.93512351 35C9.79837782 35 9.66163212 35 9.47930453 34.9613059 8.43092086 34.7678356 7.51928288 33.8004837 7.017882 32.9879081 6.9723001 32.91052 7.017882 32.7944377 7.1090458 32.7170496 7.20020959 32.6783555 7.33695529 32.7170496 7.42811909 32.7944377 7.88393807 33.5296252 8.70441225 34.4195889 9.61605022 34.5743652 10.0718692 34.6517533 10.5276882 34.5743652 10.9379253 34.3035067 12.1686365 33.5296252 11.2114167 31.2466747 11.2114167 31.2466747 11.1658348 31.1305925 11.2114167 31.0532044 11.3481624 31.0145103 11.4849081 30.9758162 11.5760719 31.0145103 11.6216538 31.1305925 11.6672357 31.2466747 12.6700374 33.6844015 11.2114167 34.6517533 10.8011796 34.8452237 10.3909425 35 9.93512351 35zM20.5923077 41C22.2730769 41.7676768 24.1 42.1717172 26 42.2121212 19.5692308 42.2121212 14.0884615 46.6969697 11.9692308 53 10.1788462 51.7474747 8.49807692 50.1717172 7 48.1515152 10.8365385 44.5555556 15.4769231 42.0505051 20.5923077 41zM27.25 56C27.1 56 27 55.9230769 27 55.8076923L27 43.1923077C27 43.0769231 27.1 43 27.25 43 27.4 43 27.5 43.0769231 27.5 43.1923077L27.5 55.8076923C27.5 55.9230769 27.4 56 27.25 56z"/>
      <path fill="#FFF" d="M14 30C14.2857143 30.2731707 15.1071429 30.6243902 16.1785714 30.7414634 17.1071429 30.8585366 17.9642857 30.7414634 17.9642857 30.7414634 17.9642857 30.7414634 18.1071429 32.4585366 19.0714286 34.9170732 19.9285714 37.1804878 21 38 21 38 21 38 18 36.3219512 16.0714286 33.8634146 14.7857143 32.2634146 14 30 14 30zM14 17C14 17 14.8210046 15.8538336 17.1667322 15.3953671 19.0042188 15.0133116 19.9816053 15.4717782 19.9816053 15.4717782 19.9816053 15.4717782 20.2552735 11.4219903 18.6914551 11.0399349 17.0885413 10.6578794 15.2901502 13.1030343 14.6646228 14.7076673 14.3127637 15.6628059 14 17 14 17z"/>
      <path fill="#757575" d="M21.752809,2.4803431 C17.505618,3.21372409 13.8876404,5.45246605 12,8 C12,8 14.241573,6.34024303 17.8988764,6.22444603 C22.2640449,6.10864904 23.994382,8 23.994382,8 C23.994382,8 23.7977528,6.88062902 24.2696629,4.98927806 C24.8202247,2.8663331 26,2.01715511 26,2.01715511 C26,2.01715511 25.3314607,1.86275911 21.752809,2.4803431 Z"/>
    </g>
  </g>
</svg>
