<svg xmlns="http://www.w3.org/2000/svg" width="19" height="22" viewBox="0 0 19 22">
  <path fill="#FFF" d="M9.5,22 C10.7294118,22 11.7352941,21.01 11.7352941,19.8 L7.26470588,19.8 C7.26470588,21.01 8.27058824,22 9.5,22 Z M16.7647059,15.4 L16.7647059,9.35 C16.7647059,5.94 14.4176471,3.19 11.1764706,2.42 L11.1764706,1.65 C11.1764706,0.77 10.3941176,0 9.5,0 C8.60588235,0 7.82352941,0.77 7.82352941,1.65 L7.82352941,2.42 C4.58235294,3.19 2.23529412,5.94 2.23529412,9.35 L2.23529412,15.4 L0,17.6 L0,18.7 L19,18.7 L19,17.6 L16.7647059,15.4 Z"/>
</svg>
