<svg xmlns="http://www.w3.org/2000/svg" width="64" height="64" viewBox="0 0 64 64">
  <g fill="none">
    <rect width="64" height="64" fill="#FFF" fill-opacity="0"/>
    <g transform="translate(4 2)">
      <path fill="#C9C9C9" d="M13.6033567,17 C13.6033567,17 13.2950848,19.2363888 15.1832506,20.8204975 C17.0714163,22.4046062 20,23.3364348 20,23.3364348 C20,23.3364348 18.4586402,24.3148549 16.0309985,23.895532 C13.6033567,23.4762091 11.291317,21.2864118 11.291317,21.2864118 C11.291317,21.2864118 10.4821031,20.3079917 11.561055,19.050023 C12.6400069,17.7920544 13.6033567,17 13.6033567,17 Z"/>
      <path fill="#C9C9C9" d="M12 24.4036145C12 24.4036145 13.4688797 24.9939759 14.7978662 26.0060241 16.1268526 26.9759036 16.4765859 29 16.4765859 29 16.4765859 29 19.1345588 26.8493976 18.9946655 26.8915663 18.8547722 26.9337349 16.3366926 24.9939759 14.9377595 24.4036145 13.5388264 23.8554217 12.0349733 22 12.0349733 22L12.0349733 24.4036145 12 24.4036145zM15.460177 7C15.460177 7 16.4159292 7.78947368 18.4336283 8.34210526 20.4513274 8.85526316 23 10 23 10 23 10 19.8141593 9.17105263 18.2212389 9.40789474 16.6283186 9.64473684 15 10 15 10L15.460177 7zM29.624808 25L31.2735788 28.0161733C31.2735788 28.0161733 33.0832054 29.2797053 33.6462003 29.8095736 34.2091952 30.3394419 33.3647028 32.1328422 33.3647028 32.1328422L35.4558268 32.7849878C35.4558268 32.7849878 35.3753989 34.0485199 33.0832054 34.089279 30.7910118 34.1300381 24.959993 34.4153518 25.000207 34.4153518 25.0404209 34.4153518 32.8821357 35.6381247 32.8821357 35.6381247L31.6757181 36.6163431C31.6757181 36.6163431 30.9920814 38.4912616 29.1824549 39.7547937 27.3728284 41.0183257 26.1261968 40.9775666 26.1261968 40.9775666 26.1261968 40.9775666 31.0322953 41.3036394 33.1636332 39.46948 35.2949711 37.6353205 36.8633141 35.3120519 37.6273786 33.8447244 38.3914431 32.3773968 38.5120849 31.7660104 38.431657 31.8067694 38.3512292 31.8475285 39.5978608 31.7660104 39.5978608 31.7660104L40 28.1792097C40 28.1792097 39.1957216 27.4047868 36.5818166 27.2417504 33.9679116 27.078714 30.8312257 25.7744229 30.8312257 25.7744229L29.624808 25zM22 51C22 51 23.8414179 51.7610255 28.8955224 52.1795895 33.9496269 52.5981536 39.7089552 52.6362048 39.7089552 52.6362048L43 54.2343584C43 54.2343584 41.9029851 54.9192814 37.9067164 54.9953839 33.9104478 55.0714865 29.7182836 54.1963071 26.3488806 53.1308714 22.9794776 52.0654357 22 51 22 51zM16 47.6818229C16.0790274 47.6818229 21.4924012 45 21.4924012 45L29 45.7839175C29 45.7839175 27.4589666 46.8566466 24.6139818 47.6405641 21.768997 48.4244816 16 47.6818229 16 47.6818229z"/>
      <path fill="#C9C9C9" d="M14 54.6478553C14.3461538 54.734236 17.4230769 56.5050404 24.4615385 55.9003755 31.5 55.2957106 34.0769231 54.5182842 34.0769231 54.5182842L42 54C42 54 38.1538462 56.9369439 34.0769231 58.0167028 30 59.0964616 26.1923077 59.3556037 22.3846154 58.4486063 18.5769231 57.5416089 14 54.6478553 14 54.6478553zM40 42.6144578C40 42.6506024 37.1916168 45 37.1916168 45L33 44.0963855 38.6167665 42 40 42.6144578z"/>
      <polygon fill="#C9C9C9" points="46 48.435 47.843 47 49 48.435 48.096 50"/>
      <path fill="#C9C9C9" d="M28 43.2224854C28 43.2224854 31.0888031 43.5336159 33.1351351 42.4224355 35.1814672 41.3112551 36.1467181 39 36.1467181 39L38 42.6002244C38 42.6002244 35.992278 43.978088 33.9459459 44.8225851 31.8996139 45.6670821 28 43.2224854 28 43.2224854zM12 40L13.7688172 34.2292683 16.2526882 33 16.8548387 33.7512195 17.6827957 33.3414634 19 35.5268293C19 35.5268293 16.8172043 35.595122 15.2741935 36.8926829 13.7311828 38.1902439 12 40 12 40zM38 26.8C38.1354839 26.8375 45 25 45 25L42.2 27.7 40.3483871 28 38 26.8zM35 20.6363636C35.1428571 20.6363636 39.5714286 17 39.5714286 17L42 17.9454545 41.1071429 19.0727273 36.8928571 21 35 20.6363636z"/>
      <polygon fill="#C9C9C9" points="35 12 33.432 8 28 8"/>
      <path fill="#C9C9C9" d="M24,7.30352941 C24.1574803,7.30352941 29.0787402,7.60385027 32.2677165,6.40256685 C35.4566929,5.20128342 36.7559055,4 36.7559055,4 L39,6.28994653 C39,6.28994653 36.992126,7.49122995 34.8267717,7.7540107 C32.6614173,8.01679145 28.2913386,8.09187166 26.5984252,7.86663102 C24.9055118,7.64139038 24,7.30352941 24,7.30352941 Z"/>
      <path fill="#C9C9C9" d="M38.4666667 2L39 6C39 6 36.2 4.08510638 36.1555556 4 36.1111111 3.91489362 35 2.89361702 35 2.89361702L38.4666667 2zM33 24.2227468C33 24.2227468 35.9958101 25.6752524 39.222067 24.2227468 42.448324 22.7702412 43.7541899 21 43.7541899 21 43.7541899 21 44.1382682 21.5900804 43.9462291 22.9518044 43.7541899 24.3135284 42.448324 25.7206432 40.6431564 26.4015052 38.8379888 27.0823672 37.724162 27.127758 35.9574022 26.8100224 34.2290503 26.4922868 33 24.2227468 33 24.2227468z"/>
      <ellipse cx="22" cy="18.5" fill="#FD6A5D" rx="2" ry="1.5"/>
      <path fill="#FD6A5D" d="M34.9555556,20 C33.8444444,20 31,19.1428571 31,18.1688312 C31,17.1948052 33,17 34.1111111,17 C35.2222222,17 37,17.2727273 37,18.2467532 C36.9555556,19.1818182 36.0222222,20 34.9555556,20 Z"/>
      <path fill="#1DAAF1" d="M35,38.9090909 L37.6031106,34.5454545 L38.5792771,32.6753247 L40.0842004,31.8961039 L39.9621796,28.6233766 C39.9621796,28.6233766 40.4095892,28.7402597 42.3212486,27.2987013 C44.2329079,25.8571429 45.2904216,25.038961 45.2904216,25.038961 C45.2904216,25.038961 46.1852409,23.4415584 45.2904216,21.8441558 C44.3956023,20.2467532 43.5821303,18.8831169 43.5821303,18.8831169 L42.5246166,19.5454545 L41.6297973,18.7272727 C41.6297973,18.7272727 42.5246166,18.5714286 42.6059638,17.1298701 C42.687311,15.6883117 42.4432694,13.3116883 42.4432694,13.3116883 L41.4264293,13.3896104 C41.4264293,13.3896104 41.1823877,11.1688312 40.7756516,9.57142857 C40.3689156,7.97402597 39.718138,7 39.718138,7 C39.718138,7 47.8935322,9.22077922 52.937059,19.5454545 C57.9805858,29.8701299 55.7842112,37.8961039 53.5064894,42.1818182 C51.2287677,46.4675325 49.5611499,49 49.5611499,49 L47.812185,47.7532468 L48.1375738,46.8961039 L44.3142551,44.2077922 L43.3787623,45.2987013 C43.3787623,45.2987013 37.6844578,43.038961 37.6844578,43.038961 C37.6844578,43.038961 36.5049233,40.3896104 36.5049233,40.3896104 L35.7321249,39.0649351 L35.0813472,39.6103896 L35,38.9090909 Z"/>
      <path fill="#1682B8" d="M45.3783784,10.627488 C45.3783784,10.627488 46.0859951,12.6142881 46.1253071,13.4713391 C46.1646192,14.3283901 46.6363636,13.8998646 47.1081081,14.2504764 C47.5798526,14.6010882 46.95086,19.1200845 46.95086,19.1200845 C46.95086,19.1200845 48.0515971,19.7044375 48.4447174,21.886022 C48.8378378,24.0676064 47.6977887,25.898579 47.6977887,25.898579 C47.6977887,25.898579 46.6756757,28.4697321 45.4963145,29.2878263 C44.3169533,30.1059205 43.5700246,29.9890499 43.5700246,29.9890499 C43.5700246,29.9890499 43.1769042,32.9887285 42.4692875,33.5341246 C41.7616708,34.0795207 41.6437346,34.9755286 40.8574939,36.8065013 C40.0712531,38.6374739 39.2063882,38.9880857 39.2063882,38.9880857 L40.5823096,41.1696701 C40.5823096,41.1696701 42.7444717,41.6761094 43.8452088,41.9098506 C44.9459459,42.1435918 44.5528256,41.208627 46.1253071,41.9098506 C47.6977887,42.6110741 49.5061425,43.9745644 49.5061425,43.9745644 L49.5061425,45.0263998 L51,45.6497096 L48.7592138,49 L47.5012285,47.5196391 C47.5012285,47.5196391 48.0909091,47.3638117 47.1474201,46.5846744 C46.2039312,45.7665802 44.1990172,44.4810037 44.1990172,44.4810037 L43.0589681,45.3380547 L37.5552826,43.0785565 L35.6683047,39.4166112 L35,40.0009642 L35.039312,38.2868621 C35.039312,38.2868621 37.0835381,35.1313561 38.1056511,33.5341246 C39.0884521,31.9368931 39.5601966,32.3654186 39.5601966,32.3654186 L39.5601966,29.0151282 C39.5601966,29.0151282 41.9189189,28.508689 42.8230958,27.1062419 C43.7272727,25.7037947 44.7493857,25.3142261 44.7493857,25.3142261 C44.7493857,25.3142261 44.8673219,22.1976769 44.3169533,20.4835748 C43.7665848,18.7694728 43.1769042,19.1979983 42.7444717,19.3927826 C42.3120393,19.5875669 41.8796069,19.0811277 41.8796069,19.0811277 C41.8796069,19.0811277 42.2334152,17.1722413 42.2727273,16.0424922 C42.3120393,14.9127431 42.1941032,13.3544685 42.1941032,13.3544685 L41.3292383,13.0038567 C41.3292383,13.0038567 39.3243243,6.80971519 39.5601966,7.00449952 C39.7960688,7.19928384 45.3783784,10.627488 45.3783784,10.627488 Z"/>
      <path fill="#1DAAF1" d="M20.4075609,36.2444444 C20.0400749,36.4388889 15.3444211,38.8111111 14.650281,40.0944444 C13.9561409,41.4166667 11.8328887,42.6222222 9.13799174,42.3888889 C6.44309478,42.1555556 8.11719744,39.5888889 8.11719744,39.5888889 L5.95311351,38.3055556 L6.19810414,33.9111111 C6.19810414,33.9111111 9.7913001,34.4944444 10.4037767,34.4944444 C11.0162533,34.4944444 11.1387486,35.7 9.75046833,36.2055556 C8.36218807,36.7111111 8.44385162,37.9166667 10.526272,37.8777778 C12.6086924,37.8388889 13.4253278,36.1277778 14.6094492,35.1166667 C15.7527388,34.1055556 17.6718321,33.7166667 17.6718321,33.7166667 L18.2026452,34.6111111 L16.9368602,31.9277778 L17.0593556,28.6611111 C17.0593556,28.6611111 15.7119071,29.0111111 13.7928138,27.5722222 C11.8737205,26.1333333 12.7311877,22.4 12.7311877,22.4 C12.7311877,22.4 11.7512252,21.5444444 11.9962158,20.8055556 C12.6086924,19.0944444 13.3844961,18.9 13.3844961,18.9 L16.0385613,17.6555556 L15.7935706,16.4111111 C15.7935706,16.4111111 14.6911128,17.4611111 14.6094492,15.9833333 C14.5277857,14.5055556 14.9361034,11.9388889 14.9361034,11.9388889 L15.5894118,11.5111111 C15.5894118,11.5111111 15.7935706,11.1611111 16.2018883,9.56666667 C16.6102061,7.97222222 17.2635144,7 17.2635144,7 C17.2635144,7 9.13799174,9.29444444 4.07485199,19.6 C-0.988287773,29.9055556 1.21662793,37.9166667 3.50320717,42.1944444 C5.78978642,46.4722222 7.46388908,49 7.46388908,49 L7.8722068,47.1722222 L9.75046833,46.2777778 L10.2404496,46.6666667 L13.6294867,45.3055556 C13.6294867,45.3055556 20.8975421,43.2444444 18.6517947,42.7777778 L19.8359161,41.5333333 L21.3058599,39.0444444 L21.9591682,39.5888889 L22,38.9277778 L20.4075609,36.2444444 Z"/>
      <path fill="#4D5052" d="M28,58 C12.5802817,58 0,45.6557584 0,30.5253556 C0,19.883768 6.34929577,10.0935074 16.2084507,5.60469224 C16.4056338,5.52729888 16.6422535,5.60469224 16.7211268,5.79817565 C16.8,5.99165907 16.7211268,6.22383916 16.5239437,6.30123252 C6.98028169,10.6739576 0.788732394,20.1546448 0.788732394,30.5253556 C0.788732394,45.2300949 13.0140845,57.2260664 28,57.2260664 C42.9859155,57.2260664 55.2112676,45.2300949 55.2112676,30.5253556 C55.2112676,19.5741945 48.5464789,9.86132729 38.2140845,5.75947897 C38.0169014,5.68208561 37.8985915,5.44990551 37.9774648,5.2564221 C38.056338,5.06293869 38.2929577,4.94684864 38.4901408,5.02424201 C49.1380282,9.24218037 56,19.2646211 56,30.4866589 C56,45.6557584 43.4197183,58 28,58 Z"/>
      <path fill="#4D5052" d="M28.6038023 41C28.4043075 41 24.0553212 40.9638011 20.7437079 37.8506973 19.666436 36.8371286 18.74876 35.6063666 18.0305788 34.230809 17.9507809 34.0498146 18.0305788 33.8326213 18.2300736 33.7602236 18.4295684 33.6878258 18.6689621 33.7602236 18.74876 33.941218 19.4270423 35.2443777 20.2649204 36.402742 21.3022933 37.3801118 24.4144118 40.2760224 28.5639033 40.3122212 28.6038023 40.3122212 28.6437012 40.3122212 32.7931927 40.2760224 35.9053113 37.3801118 37.3815727 36.0045543 38.4987434 34.2670079 39.2169246 32.2398705 39.2967226 32.0588761 39.4962173 31.9502795 39.7356111 32.0226772 39.9351059 32.095075 40.0548027 32.2760694 39.9750048 32.4932627 39.2169246 34.6289967 38.0598549 36.4751397 36.5037956 37.923095 33.1522833 40.9638011 28.803297 41 28.6038023 41zM16.1775596 29C15.6062578 29 14.6268833 28.8884116 13.6067015 28.2188812 11.9744106 27.1773894 10.382927 24.9456214 11.2398797 22.2674998 11.280687 22.0815191 11.5255306 21.9699307 11.7295669 22.0071268 11.9336033 22.044323 12.0560251 22.2674998 12.0152178 22.4534804 11.280687 24.7968369 12.6681342 26.6938397 14.0963887 27.623743 15.3206069 28.4048619 16.4632105 28.2560773 16.5040178 28.2560773 16.7080541 28.2188812 16.9528977 28.3676657 16.993705 28.5536464 17.0345123 28.7396271 16.8712832 28.9628039 16.6672468 29 16.6264396 29 16.4632105 29 16.1775596 29zM14.5954862 19C14.3969908 19 14.2381945 18.859375 14.1984954 18.625 14.1984954 18.578125 14.0396991 17.875 14 16.515625 14 16.234375 14.1587963 16.046875 14.3572917 16 14.5557871 16 14.7542825 16.1875 14.7939816 16.421875 14.8733798 17.734375 14.992477 18.390625 14.992477 18.390625 15.0321761 18.625 14.9130788 18.90625 14.6748844 18.953125 14.6748844 19 14.6351853 19 14.5954862 19zM40.6197015 7C40.4989008 7 40.3378332 6.92045455 40.2572994 6.80113636 37.8412856 2.94318182 33.9353965.835227273 29.1839026.835227273 24.7948108.835227273 21.17079 2.58522727 18.7145092 5.88636364 18.5937086 6.04545455 18.3118403 6.08522727 18.1507727 5.96590909 17.9897051 5.84659091 17.9494382 5.56818182 18.0702389 5.40909091 20.6875872 1.86931818 24.5129425 0 29.1839026 0 34.2172648 0 38.3647553 2.26704545 40.9418367 6.32386364 41.0626374 6.52272727 40.9821036 6.76136364 40.821036 6.88068182 40.7807691 6.96022727 40.7002353 7 40.6197015 7zM43.4841307 19C43.3293699 19 43.226196 18.9536546 43.1230221 18.8609639 42.2460443 18.0730927 41.4206533 17.9340566 41.4206533 17.9340566 41.1627187 17.8877112 40.9563709 17.6559844 41.0079579 17.3779122 41.0595448 17.1461854 41.3174795 16.9608039 41.6270011 17.0071493 41.678588 17.0071493 42.7103267 17.1925308 43.8452392 18.2121288 44.0515869 18.3975103 44.0515869 18.6755824 43.8452392 18.8609639 43.7420653 18.9536546 43.6388915 19 43.4841307 19zM50.4115248 50C50.1900116 50 49.9684985 49.9009024 49.9131202 49.7027073 49.9131202 49.7027073 49.5254722 48.9099269 48.1963934 47.8694026 47.9748803 47.6712075 47.919502 47.3739148 48.1410151 47.1757197 48.3625283 46.9775246 48.694798 46.9279758 48.9163111 47.1261709 50.466903 48.3153416 50.9099293 49.2567683 50.9653076 49.3558659 51.0760642 49.6036098 50.9099293 49.9009024 50.6330379 50 50.5222813 50 50.466903 50 50.4115248 50zM43.6013557 45C43.5599444 45 43.5185331 45 43.4771218 44.9602172 42.8145411 44.7215206 42.1519603 44.5226068 41.4479683 44.323693 39.9985729 43.8860826 38.466355 43.4086894 37.2240161 42.7721652 37.0169596 42.6528169 36.934137 42.4141203 37.0583709 42.2152065 37.1826048 42.0162926 37.4310725 41.9367271 37.638129 42.0560754 38.7976453 42.6528169 40.288452 43.0904273 41.6964361 43.5280377 42.3590168 43.7269515 43.0630089 43.9656481 43.7255896 44.1645619 43.9326461 44.2441275 44.05688 44.4828241 43.9740574 44.6817379 43.9326461 44.9204345 43.7670009 45 43.6013557 45z"/>
      <path fill="#4D5052" d="M35.460493 40C35.26253 40 35.1041596 39.872569 35.064567 39.660184 34.866604 38.3009201 35.1833448 37.3239492 35.2229374 37.2814722 35.3021226 37.0690872 35.5396782 36.9416562 35.7376412 37.0266102 35.9356041 37.1115642 36.0543819 37.3664262 35.9751967 37.5788112 35.9751967 37.5788112 35.6980486 38.3858741 35.8564189 39.490276 35.8960115 39.702661 35.7376412 39.957523 35.5396782 39.957523 35.5000856 40 35.460493 40 35.460493 40zM8.3656367 46C8.25240727 46 8.13917784 45.9257654 8.06369155 45.8515307 7.95046212 45.6659441 7.98820527 45.4432402 8.17692098 45.3318883 8.51660928 45.1091844 8.93178385 44.8493631 9.34695843 44.6637765 10.4792527 44.0698995 11.875749 43.6244916 13.2345022 43.1790838 14.3667965 42.845028 15.4990908 42.4738548 16.4804125 42.028447 16.6691282 41.9542123 16.8955871 42.028447 16.9710734 42.2140336 17.0465597 42.3996201 16.9710734 42.6223241 16.7823577 42.6965587 15.7632928 43.1419665 14.5932554 43.5131397 13.4609611 43.8843129 12.139951 44.2926034 10.7434547 44.7380112 9.68664672 45.294771 9.30921529 45.5174749 8.93178385 45.7030615 8.59209556 45.9257654 8.51660928 45.9628827 8.44112299 46 8.3656367 46zM21.5114732 40C21.5114732 40 21.5114732 40 21.5114732 40 21.2372126 40 21.0543722 39.7377237 21.0543722 39.4229922 21.1457924 38.2689766 21.0086621 37.6395136 21.0086621 37.6395136 20.962952 37.3772373 21.1000823 37.0625058 21.3743429 37.0100505 21.6028935 36.9575953 21.8771541 37.114961 21.9228642 37.3772373 21.9228642 37.4296925 22.0599945 38.1116109 21.9685743 39.4754475 21.9685743 39.790179 21.7400238 40 21.5114732 40zM40.1529241 18C38.8084716 18 36.9499637 17.9631555 35.2100839 17.7420882 33.1934052 17.4841763 30.8603846 17.0420418 28.1714796 16.5630626 26.4315999 16.2314617 24.6126347 15.8998608 22.7145841 15.5682598 18.0090003 14.7576798 13.7383864 16.047239 13.6988437 16.047239 13.5802155 16.0840835 13.5011301 16.0840835 13.3825019 16.0103944 13.3034164 15.9735499 13.224331 15.8630162 13.224331 15.7893271 13.224331 15.7524826 12.9079892 14.7945243 13.0266174 13.3207424 13.1452456 11.810116 13.6593009 10.9626914 13.6593009 10.9258468 13.6988437 10.8521577 13.7779291 10.8153132 13.8570145 10.7784686 13.9361 10.7416241 15.9923215 9.93104404 19.8279654 10.0047331 23.2681822 10.0784222 29.6345603 11.073225 34.0238023 11.8838051 37.3849336 12.5101624 42.5650301 12.215406 42.6045728 12.215406 42.723201 12.215406 42.8022864 12.2522506 42.8813718 12.3259396 42.9604573 12.3996287 43 12.5101624 43 12.5838515 43 12.5838515 43 13.357587 43 14.4260789 43 16.0103944 42.5254873 17.6315545 42.4859446 17.7052436 42.4464019 17.8526218 42.288231 17.9631555 42.1300601 17.9631555 42.1300601 17.9631555 41.3392057 18 40.1529241 18zM19.4325382 14.5366125C20.5001917 14.5366125 21.6864733 14.6103016 22.872755 14.8313689 24.7708056 15.1629698 26.5897707 15.4945708 28.3296505 15.8261717 31.0185555 16.3419954 33.351576 16.7472854 35.3287121 17.0051972 38.0176171 17.3367981 40.9042358 17.263109 41.8137184 17.2262645 41.9323465 16.7104408 42.2091456 15.5314153 42.2091456 14.3892343 42.2091456 13.7997216 42.2091456 13.2838979 42.2091456 12.952297 40.8646931 13.0259861 36.7522501 13.1365197 33.8260887 12.5838515 29.4368467 11.7732714 23.149554 10.7784686 19.74888 10.7047795 16.6645477 10.6310904 14.7664971 11.1837587 14.2524418 11.3679814 14.1338136 11.6258932 13.8174718 12.3259396 13.7779291 13.357587 13.7383864 14.168167 13.8174718 14.8313689 13.8570145 15.1998144 14.7269544 15.0155916 16.8227186 14.5366125 19.4325382 14.5366125z"/>
      <path fill="#4D5052" d="M35.5920054,12 C35.514056,12 35.4361065,11.9654137 35.358157,11.9308274 C35.3191823,11.8962411 30.4473399,8.92181973 25.4195985,8.02257605 C20.9764783,7.22709126 17.2738781,6.08574352 16.3384843,5.77446687 C16.1046359,5.98198464 15.636939,6.50077906 15.2861664,7.26167756 C14.8184695,8.368439 14.7794948,10.0285812 14.7794948,10.0285812 C14.7794948,10.2360989 14.5846211,10.3398578 14.3897474,10.3744441 C14.155899,10.3744441 14,10.2015127 14,10.0285812 C14,9.95940858 14.0389747,8.26468012 14.5456463,7.01957349 C15.0912927,5.73988057 15.948737,5.11732726 15.9877117,5.08274096 C16.1046359,5.01356837 16.2605349,4.97898208 16.3774591,5.01356837 C16.4164338,5.01356837 20.5087814,6.39702018 25.5754975,7.29626385 C30.7591378,8.19550753 35.5920054,11.1699289 35.8258539,11.3082741 C36.0207276,11.412033 36.0597023,11.6195508 35.9038034,11.7924822 C35.8258539,11.9308274 35.7089297,12 35.5920054,12 Z"/>
      <path fill="#4D5052" d="M42.581372 13C42.3752151 13 42.2102896 12.8481498 42.1690582 12.6583372 42.1690582 12.6583372 41.92167 10.7602102 41.5093563 9.62133406 41.1382739 8.59634552 40.6434975 7.53339443 40.3548779 6.96395635 39.7776387 7.3056192 38.6231602 7.83709474 36.4378975 8.44449536 32.2322976 9.58337152 26.3774427 8.71023313 26.3362114 8.71023313 26.1300545 8.67227059 25.965129 8.4824579 26.0063604 8.25468267 26.0475918 8.06486998 26.2537486 7.91301982 26.5011369 7.95098236 26.5835996 7.95098236 32.2322976 8.78615821 36.1905093 7.68524459 39.2828622 6.85006874 40.1899524 6.09081797 40.2311837 6.09081797 40.3136465 6.01489289 40.478572 5.97693035 40.6022661 6.01489289 40.7259602 6.05285543 40.8496543 6.1287805 40.8908857 6.20470558 40.9321171 6.28063066 41.7567445 7.87505728 42.2927524 9.39355883 42.7462974 10.6083601 42.9524543 12.506487 42.9936857 12.5824121 43.034917 12.7722248 42.8699916 12.9620375 42.6226033 13 42.6226033 13 42.6226033 13 42.581372 13zM35.918951 28C34.8985418 28 33.8781326 27.8420255 32.8969699 27.5655701 31.6410817 27.2101275 30.8169051 26.736204 30.110468 26.3807614 29.4040308 25.9858251 28.8545797 25.7093697 28.1481426 25.6698761 26.6960219 25.5908888 25.2831476 26.3017741 24.1842454 26.8941785 23.7525338 27.1311402 23.3208223 27.3286084 22.9283572 27.4865829 20.4950738 28.4344299 18.6112414 27.3286084 16.7666556 25.9858251 15.8247395 25.3144335 14.8435768 24.9194972 13.9801536 24.6035482 12.998991 24.2481056 12.1748143 23.8926629 11.6253632 23.3002586 10.3302285 21.8389944 10.0162564 20.6936793 10.0162564 20.6541856 9.97700993 20.5751984 10.0162564 20.4567175 10.0555029 20.3777303 10.0947494 20.298743 10.8404331 18.7979852 12.0178283 18.0081127 13.1167305 17.2577338 13.9016606 17.0207721 13.9016606 17.0207721 14.0978932 16.9417848 14.3333722 17.0997593 14.3726187 17.2972275 14.4511117 17.4946956 14.2941257 17.7316574 14.0978932 17.771151 14.0978932 17.771151 13.4307025 17.9686191 12.4102934 18.6400107 11.6253632 19.1929215 10.9974191 20.1802621 10.8011866 20.5751984 10.9189261 20.8911474 11.3113912 21.7205135 12.2140608 22.7473478 12.6457724 23.2212713 13.391456 23.4977267 14.2548792 23.8531693 15.1575488 24.2086119 16.2172045 24.6035482 17.2376137 25.3539271 19.3176786 26.8151912 20.7697993 27.4865829 22.6928782 26.736204 23.0460967 26.6177231 23.4385618 26.3807614 23.8702734 26.1832932 25.0869151 25.5513952 26.5782823 24.7615227 28.2658821 24.8800036 29.1293053 24.9194972 29.7964959 25.2749398 30.5421795 25.7093697 31.2093701 26.0648123 31.9943003 26.4992422 33.1716955 26.8151912 35.4479929 27.4865829 37.8812763 27.2891147 40.3145597 26.3412677 42.5908571 25.4329143 43.7682523 24.4850673 44.0429779 24.2481056 44.1607174 23.9321566 44.4746895 22.7078542 44.0429779 21.3255773 43.7290058 20.3382366 43.2580478 19.5088705 42.9833222 19.1139342 42.3161316 19.5878578 40.7462713 20.6936793 39.6473691 21.2860837L39.4903831 21.3650709C37.8027833 22.2734243 36.7823741 22.7868414 34.3883372 22.5893733 32.3475188 22.4313988 30.7384121 22.1154498 28.8545797 21.0491219 27.7949241 20.4172239 26.4997893 20.930641 25.3616406 21.4045645 24.929929 21.562539 24.537464 21.7205135 24.1449989 21.8389944L24.1057524 21.8389944C22.6928782 22.194437 20.7697993 22.6683605 18.1402834 21.8389944 14.6865908 20.6936793 13.9801536 18.3240617 13.9801536 18.2450745 13.9409071 18.0476064 14.0586466 17.8106446 14.2548792 17.771151 14.4511117 17.7316574 14.6865908 17.8501382 14.7258373 18.0476064 14.7650838 18.1265936 15.3537814 20.1407685 18.3365159 21.0886155 20.7697993 21.878488 22.5358921 21.4045645 23.8702734 21.0886155L23.9095199 21.0886155C24.2234919 21.0096283 24.615957 20.8516538 25.0476686 20.6936793 26.2643103 20.2197558 27.7949241 19.5878578 29.2077983 20.4172239 30.9346446 21.4045645 32.4260119 21.7205135 34.4275837 21.878488 36.5861416 22.0759562 37.4888112 21.6020327 39.097918 20.7331729L39.2549041 20.6541856C40.6285318 19.9038068 42.8263362 18.3240617 42.8263362 18.3240617 42.9833222 18.2055809 43.2188013 18.2450745 43.3757873 18.403049 43.4150338 18.4425426 44.2784569 19.5878578 44.749415 21.2070964 45.3381126 23.0632968 44.7101685 24.6430418 44.670922 24.7220291 44.6316755 24.7615227 44.6316755 24.84051 44.592429 24.8800036 44.5531825 24.9194972 43.3365408 26.0648123 40.5500388 27.1706339 38.9801785 27.7235446 37.4103182 28 35.918951 28z"/>
      <path fill="#4D5052" d="M37.8328173 18.0020378C37.8328173 18.0020378 36.9040248 17.8319569 35.3947368 17.5768355 35.5495356 17.8744771 35.6656347 18.214639 35.6656347 18.5973211 35.6656347 19.6603271 34.8916409 20.5107318 33.9241486 20.5107318 32.9566563 20.5107318 32.1826625 19.6603271 32.1826625 18.5973211 32.1826625 18.0020378 32.4535604 17.491795 32.8405573 17.1091129 30.3250774 16.6413903 27.2291022 16.0461069 24.4040248 15.4508236 22.5077399 15.0256213 18.5216718 14.6429391 15 15.5783843L15.0773994 17.7469164C15.0773994 17.7469164 16.1996904 20.8508937 20.3018576 21.7012984 21.7337461 21.9989401 24.249226 21.4036568 26.4164087 20.5957723 28.5835913 19.7878878 28.9318885 20.2981306 28.9318885 20.2981306 28.9318885 20.2981306 31.0216718 21.6587782 33.1888545 21.9138996 36.4783282 22.339102 37.755418 21.1060151 38.7229102 20.0430092 40 18.5973211 40 17.9595176 40 17.9595176L37.8328173 18.0020378zM21.8498452 20.553252C20.8823529 20.553252 20.1083591 19.7028473 20.1083591 18.6398414 20.1083591 17.5768355 20.8823529 16.7264307 21.8498452 16.7264307 22.8173375 16.7264307 23.5913313 17.5768355 23.5913313 18.6398414 23.5913313 19.6603271 22.8173375 20.553252 21.8498452 20.553252zM29.978339 6C29.478936 6 29.0211499 6 28.4801299 5.94980458 23.1115475 5.5482412 20.3648308 3.99218313 20.2399801 3.94198771 20.0318955 3.84159686 19.9486617 3.54042433 20.0318955 3.28944722 20.1151293 3.03847011 20.3648308 2.93807927 20.5729154 3.03847011 20.6145323 3.03847011 23.319632 4.59452819 28.4801299 4.94589614 33.6406278 5.29726409 37.3861505 3.54042433 37.4277674 3.49022891 37.635852 3.38983807 37.8855535 3.49022891 37.9687873 3.79140144 38.0520211 4.04237855 37.9687873 4.34355108 37.7190858 4.44394192 37.635852 4.49413735 34.5145831 6 29.978339 6z"/>
      <path fill="#4D5052" d="M24.3608247 5C24.2525773 5 24.1804124 4.96144926 24.1082474 4.88434779 23.9639175 4.73014484 23.9639175 4.49884041 24.1082474 4.34463746 24.2525773 4.19043451 27.5721649.643766659 30.6752577 1.02927403 30.8556701 1.06782477 31 1.26057846 31 1.45333215 30.9639175 1.64608584 30.7835052 1.80028879 30.6030928 1.80028879 27.8247423 1.45333215 24.685567 4.88434779 24.6494845 4.88434779 24.5773196 4.96144926 24.4690722 5 24.3608247 5zM38.2736884 5.9983509C38.1260379 5.9983509 37.9783874 5.87625062 37.9414748 5.71345026 37.8676495 5.5099498 37.9783874 5.26574925 38.1629505 5.18434907 39.7501934 4.57384769 41.1897858 4.73664806 42.0387761 4.94014852L40.8206595 1.88764164C40.377708 1.80624146 39.196504 1.68414118 37.8676495 2.05044201 36.3911445 2.41674283 35.6159794 2.98654412 35.5790668 2.98654412 35.3945037 3.10864439 35.1730279 3.0679443 35.0622901 2.86444384 34.9515522 2.66094338 34.9884648 2.41674283 35.1730279 2.29464256 35.2099406 2.25394247 36.0589309 1.64344109 37.6830864 1.23644018 39.491805.788739168 41.0421353 1.1143399 41.1159605 1.1143399 41.2266984 1.15503999 41.3374363 1.23644018 41.3743489 1.35854045L42.9615917 5.42854962C43.035417 5.59134998 42.9985044 5.75415035 42.8877665 5.87625062 42.7770286 5.9983509 42.6293781 6.03905099 42.4817276 5.95765081 42.444815 5.95765081 40.4884459 5.14364897 38.310601 5.95765081 38.3844263 5.95765081 38.3475137 5.9983509 38.2736884 5.9983509zM13.3803935 27C13.3803935 27 13.3803935 27 13.3803935 27 13.1521574 27 13 26.8055843 13 26.6111686 13 26.5334023 13.0380394 24.6281284 16.5376598 24.0059982 16.7278565 23.967115 16.9560927 24.1226476 16.994132 24.3170633 17.0321714 24.511479 16.8800139 24.7447778 16.6898172 24.783661 13.8749051 25.2891418 13.760787 26.6500517 13.760787 26.6500517 13.760787 26.8444674 13.6086296 27 13.3803935 27zM39.2315567 33C38.8710843 33 37.8297196 32.9572014 36.5480399 32.3580215 35.3865177 31.8444386 34.505363 31.0740644 33.6642607 30.2608916 33.0234209 29.6617116 32.4226335 29.1053302 31.7417412 28.7629416 30.4600616 28.1209631 29.5388543 28.0781645 28.0168597 28.0781645 27.7765448 28.0781645 27.5362299 28.0781645 27.2558624 28.0781645 26.6550751 28.0781645 26.0542878 28.1209631 25.4535004 28.1209631 24.1718208 28.2065602 22.8100361 28.2921574 21.2880415 27.8213731 21.0877791 27.7785745 20.9676216 27.5217831 21.0076741 27.3077903 21.0477266 27.0937974 21.2880415 26.9654017 21.488304 27.0082003 22.8901411 27.436186 24.1317683 27.3505888 25.4134479 27.2649917 26.0142353 27.2221931 26.6150226 27.1793946 27.2558624 27.2221931 27.5362299 27.2221931 27.7765448 27.2221931 28.0168597 27.2221931 29.5789068 27.2221931 30.660324 27.2649917 32.0621611 27.9925674 32.8231584 28.3777545 33.4639983 28.9769345 34.1448906 29.5761144 34.9459404 30.3036901 35.7870426 31.0740644 36.7883549 31.5020501 38.190192 32.1440286 39.2716092 32.0584315 39.2716092 32.0584315L39.9525015 32.0584315 40.1928164 28.8485388C40.1928164 28.6345459 40.3930789 28.4205531 40.6333938 28.4633516 40.8737087 28.4633516 41.0339187 28.6773445 40.9938662 28.9341359L40.7134988 32.5292157C40.7134988 32.7432086 40.5132363 32.9144029 40.3129739 32.9144029 40.3129739 32.9144029 40.3129739 32.9144029 40.3129739 32.9144029L39.2716092 32.9144029C39.3517142 33 39.3116617 33 39.2315567 33zM40.1913991 28C39.9393323 28 39.6872654 27.9213886 39.5072177 27.8427772 39.0030839 27.6462487 37.310635 26.9387461 37.2386159 26.8994404 37.0585682 26.820829 36.9505395 26.5849947 37.0225586 26.3884662 37.0945777 26.1919377 37.310635 26.0740206 37.4906828 26.152632 37.4906828 26.152632 39.2191413 26.8601347 39.7592845 27.0566632 40.1913991 27.213886 40.7315424 27.2531917 41.8478385 26.3884662 42.4239913 25.9167978 42.9641346 25.1306838 43.3242301 24.2266527 43.3962492 24.0301242 43.6123065 23.9515128 43.7923543 24.0301242 43.972402 24.1087356 44.0444211 24.3445698 43.972402 24.5410983 43.576297 25.6023522 42.9641346 26.4670776 42.2439436 27.0173575 41.3437048 27.7641658 40.6955329 28 40.1913991 28z"/>
      <path fill="#4D5052" d="M16.6865346 34C16.6473129 34 16.6080912 34 16.6080912 34 16.490426 33.9621959 16.4119825 33.9243917 16.3727608 33.8109793 16.333539 33.735371 15.5491043 32.3366179 15.3137739 31.1268855 15 29.4256993 15 28.5562041 15 28.5184 15 28.4049876 15.0392217 28.2915751 15.1176652 28.253771 15.1176652 28.253771 15.6275478 27.8379255 16.8826433 27.1196469 18.3730693 26.2879558 19.2359475 26.0233268 19.2751692 26.0233268 19.4712779 25.9477186 19.7066083 26.061131 19.74583 26.2879558 19.8242735 26.4769765 19.7066083 26.7038013 19.4712779 26.7416055 19.4712779 26.7416055 18.6476214 26.9684303 17.2356389 27.7623172 16.4119825 28.2159669 15.9413217 28.5562041 15.7059912 28.7074207 15.7059912 29.0476579 15.7844347 29.8037407 16.0197651 31.0134731 16.1766521 31.7695558 16.5688694 32.639051 16.8041998 33.0927007 17.5886346 32.639051 19.4712779 31.6183393 21.5108081 31.1268855 24.060221 30.5220193 26.6880772 29.8793489 30.3356987 30.3708027 33.9048766 30.8622565 37.6309415 32.7146593 37.7878285 32.7902676 37.9839371 32.90368 38.0623806 33.1305048 37.9447154 33.3195255 37.8270502 33.5085462 37.5917198 33.5841545 37.4348328 33.4707421 37.3956111 33.4707421 33.6695462 31.5805352 30.2572552 31.1268855 26.7665207 30.6732358 24.2171079 31.2781021 21.7461385 31.8829683 19.2751692 32.4878345 16.9218651 33.9621959 16.9218651 33.9621959 16.8434216 34 16.7649781 34 16.6865346 34zM36.5928512 37C36.5529018 37 36.5129523 37 36.4730029 37 36.4330534 37 32.0386149 35.5665263 27.6841257 35.0340932 25.9662998 34.8293113 23.0100411 34.6654857 18.7354508 35.1979188 18.3759059 35.2388752 18.2161081 35.2798316 18.0563103 35.0340932 17.936462 34.8293113 18.0163609 34.5835729 18.2161081 34.4607038 18.296007 34.4197474 18.3359564 34.4197474 18.4158553 34.4197474 18.4558047 34.4197474 18.5357036 34.4197474 18.655552 34.378791 22.1711028 33.9282707 25.2472098 33.8873143 27.8039741 34.2149654 32.2383621 34.7883549 36.6727501 36.2218286 36.7126995 36.2218286 36.9124467 36.3037414 37.0322951 36.5085233 36.9923456 36.7542617 36.9124467 36.8771308 36.752649 37 36.5928512 37z"/>
      <path fill="#4D5052" d="M22.7840478,39 C21.8920239,39 21.3716766,38.9218408 21.334509,38.9218408 C21.1486707,38.8827612 21,38.6873632 21,38.4919653 C21.0371677,38.2965673 21.223006,38.1402489 21.4088443,38.1402489 C21.446012,38.1402489 23.7132394,38.4138061 27.4300057,37.749453 C31.146772,37.0850999 33.4511672,36.0690305 33.4883348,36.0299509 C33.6741731,35.9517917 33.8971791,36.0299509 33.9715144,36.2253488 C34.0458498,36.4207468 33.9715144,36.6552244 33.7856761,36.7333836 C33.6741731,36.7724632 31.4069457,37.7885326 27.5786764,38.4919653 C25.4972872,38.9218408 23.8619101,39 22.7840478,39 Z"/>
      <path fill="#4D5052" d="M27.6400896 45C26.3619638 45 25.0438966 44.9272727 23.7258295 44.7090909 18.9727993 44.0181818 17.1754349 42.0909091 17.0955521 41.9818182 17.0156692 41.9090909 16.9757278 41.7636364 17.0156692 41.6545455 17.0556106 41.5454545 17.1354935 41.4363636 17.2553178 41.4 17.2553178 41.4 18.3337364 41 18.9328579 40.3090909 19.5319793 39.5818182 19.6518036 38.3454545 19.6518036 38.3454545 19.6518036 38.2363636 19.7316865 38.1272727 19.8515107 38.0545455 19.971335 37.9818182 20.1311008 37.9818182 20.2109836 38.0545455L21.1296365 38.5272727C22.4077623 39.1818182 24.2850095 39.8727273 28.3590353 39.9818182 34.9094299 40.1272727 36.1476142 38.4545455 36.1476142 38.4181818 36.227497 38.3090909 36.3473213 38.2363636 36.5070871 38.2363636 36.6668528 38.2363636 36.7866771 38.3090909 36.8665599 38.4181818L38.9435143 41.6909091C38.9834557 41.7636364 39.0233971 41.8727273 38.9834557 41.9818182 38.9435143 42.0909091 38.8636314 42.1636364 38.7837486 42.2 38.7837486 42.2 37.3857985 42.8545455 35.1890199 43.7636364 33.5114798 44.4545455 30.7954626 45 27.6400896 45zM18.0940878 41.8727273C18.8130336 42.4181818 20.6103979 43.5090909 23.8456537 44.0181818 28.3590353 44.6727273 32.7126512 44.0181818 34.8694884 43.1454545 36.3872628 42.5272727 37.5056228 42.0181818 38.0248614 41.7636364L36.4272042 39.2545455C35.6283756 39.8727273 33.5514212 40.8545455 28.3590353 40.7454545 24.1252438 40.6363636 22.1281723 39.9090909 20.7701636 39.2181818L20.3707493 39C20.250925 39.5090909 20.0112765 40.2363636 19.6118622 40.7818182 19.132565 41.2545455 18.5334436 41.6545455 18.0940878 41.8727273zM5.38834951 39C5.38834951 39 5.38834951 39 5.38834951 39 5.15533981 39 5 38.7882206 5 38.5764413L5.19417476 33.4090245C5.19417476 33.2819569 5.27184466 33.1548893 5.34951456 33.0701775 5.46601942 32.9854658 5.58252427 32.9854658 5.69902913 33.0278216 5.73786408 33.0278216 7.83495146 33.7902274 9.11650485 33.7902274 10.0485437 33.7902274 10.4757282 34.3832096 10.5145631 34.8914801 10.592233 35.4844624 10.2427184 36.289224 9.23300971 36.628071 8.61165049 36.8398504 8.37864078 37.1786974 8.41747573 37.305765 8.41747573 37.3904768 8.68932039 37.644612 9.34951456 37.6869679 10.9417476 37.8140355 11.7184466 37.3481209 13.038835 35.5691741 13.8543689 34.4679214 15.0582524 33.578448 16.4563107 33.0701775L16.4951456 33.0701775 16.6504854 33.4513804 17 33.6208039C16.9223301 33.7902274 16.8058252 33.8325833 16.6893204 33.8749391 15.4466019 34.3408538 14.3592233 35.1032595 13.6213592 36.1198005 12.3009709 37.8563914 11.3300971 38.661153 9.27184466 38.5340854 7.87378641 38.4493736 7.6407767 37.7293238 7.60194175 37.4328326 7.52427184 36.7551386 8.06796117 36.1621564 8.96116505 35.8656653 9.50485437 35.6962418 9.77669903 35.3150389 9.73786408 35.0609036 9.69902913 34.8491243 9.46601942 34.6797008 9.0776699 34.6797008 8.06796117 34.6797008 6.63106796 34.256142 5.89320388 34.0443626L5.73786408 38.661153C5.77669903 38.8305765 5.62135922 39 5.38834951 39z"/>
      <path fill="#4D5052" d="M9.16780327,43 C8.89270132,43 8.65689965,43 8.46039826,42.95945 C7.59579213,42.8783501 6.92768739,42.0673504 7.00628795,41.1347008 L7.75299324,36.7147527 C7.79229352,36.5120028 7.98879491,36.3498029 8.22459659,36.3903529 C8.42109798,36.4309029 8.57829909,36.6336528 8.53899881,36.8769527 L7.75299324,41.2158008 C7.71369296,41.6618506 8.06739547,42.0673504 8.53899881,42.1484504 C9.52150578,42.2295503 10.9756161,42.1484504 12.233225,41.2158008 C12.7441286,40.810301 13.215732,40.2426012 13.7266356,39.6343515 C14.5126411,38.6611519 15.337947,37.6474023 16.5562556,37.1202526 C17.735264,36.5931028 19.3858757,36.025403 19.4644762,36.025403 C19.6609776,35.9443031 19.8967793,36.065953 19.9753799,36.2687029 C20.0539804,36.4714528 19.9360796,36.7147527 19.7395782,36.7958527 C19.7395782,36.7958527 18.0496662,37.3635524 16.9099581,37.8907022 C15.8881509,38.336752 15.1414456,39.2694016 14.3947403,40.2020512 C13.8838367,40.8508509 13.3729331,41.4591007 12.7834289,41.9051505 C11.52582,42.7567001 10.2289108,43 9.16780327,43 Z"/>
      <path fill="#4D5052" d="M7.57925285 39C7.53928052 39 7.4993082 39 7.4993082 39L5.30083016 38.1648263C5.10096852 38.1051711 4.94107921 37.7472395 5.02102387 37.4489632 5.0609962 37.1506868 5.30083016 36.9120658 5.5006918 37.0313763L7.69916984 37.86655C7.89903148 37.9262053 8.05892079 38.2841368 7.97897613 38.5824132 7.9390038 38.8210342 7.77911449 39 7.57925285 39zM30 39.970868C30 39.970868 33.2357774 38.603282 34.283987 37.919489 35.3321966 37.235696 35.9246628 36.4151444 35.9702372 37.6003856 35.9702372 38.1018338 36.0613858 38.5121096 35.9246628 38.831213 35.7879399 39.287075 35.3321966 39.6061784 34.010541 39.7885232 31.7773989 40.1076266 30 39.970868 30 39.970868zM21 37.45C21.1022727 37.5 21.2045455 38.7 21.2045455 38.7L24 40C24 40 22.0227273 37.85 21.9886364 37.8 21.9204545 37.75 21.0681818 37 21.0681818 37L21 37.45zM20.687724 48C20.2841485 48 19.8402154 48 19.3962824 47.963876 12.8987168 47.6026364 11.1229846 45.6519426 11.082627 45.5796947 10.9615544 45.4351989 10.9615544 45.1823312 11.1633421 45.0739593 11.3247723 44.9655874 11.6072752 44.9655874 11.7283478 45.1462072 11.7687054 45.1823312 13.423365 46.9162812 19.4769975 47.2413969 25.6517027 47.6026364 29.3242397 45.1823312 29.3645973 45.1823312 29.5260275 45.0739593 29.8085303 45.1100833 29.929603 45.2545791 30.0506756 45.3990749 30.0103181 45.6519426 29.8488879 45.7603145 29.6874577 45.8325624 26.3781386 48 20.687724 48z"/>
      <path fill="#4D5052" d="M22 48.0007477C22 48.0007477 30.6734007 47.9143372 36.8686869 49.5993424 43.0639731 51.2843476 45 52.7533264 45 52.7533264L42.3670034 55C42.3670034 55 39.6565657 53.0557633 33.9646465 51.0683213 26.956229 48.5624161 22 48.0007477 22 48.0007477zM49.5999696 50C49.5173827 50 49.4347958 49.9594947 49.3522089 49.9189894 49.3109154 49.8784841 46.0900258 47.812713 42.0845605 46.5570482 38.0378017 45.3013835 33.4129346 44.8153197 33.3716411 44.8153197 33.1651738 44.7748144 33 44.6127931 33 44.3697612 33.0412935 44.1672347 33.2064673 43.9647081 33.454228 44.0052134 33.4955215 44.0052134 38.2029756 44.4912772 42.3323212 45.7874473 46.4616669 47.0836173 49.6825566 49.1493884 49.8064369 49.2709043 50.0129042 49.3924203 50.0541977 49.6354522 49.9303173 49.8379787 49.8890238 49.9594947 49.72385 50 49.5999696 50z"/>
      <path fill="#4D5052" d="M44.3513989 49C44.2070489 49 44.0987865 48.9128857 44.0266115 48.738657 43.9544365 48.5208711 44.0266115 48.2595281 44.2070489 48.1724138 45.2896738 47.6061706 45.9031612 46.7785844 46.1918611 46.3430127 45.5783737 45.6896552 44.062699 44.600726 43.2326866 44.0344828 43.0161616 44.3829401 42.6191992 44.862069 41.8974493 45.2976407 40.7426495 46.0381125 38.5052249 46.2123412 38.3969624 46.2123412 38.1804375 46.2123412 38.0360875 46.0381125 38 45.8203267 38 45.5589837 38.14435 45.384755 38.3247874 45.3411978 38.3608749 45.3411978 40.5261246 45.1669691 41.5365744 44.5136116 42.5109367 43.9038113 42.7274617 43.2940109 42.7274617 43.2940109 42.7635492 43.1633394 42.8357242 43.076225 42.9439867 43.0326679 43.0522491 42.9891107 43.1605116 42.9891107 43.2326866 43.0326679 43.5574741 43.2504537 46.2640361 45.0798548 46.913611 45.9945554 47.0218735 46.1252269 47.0218735 46.3430127 46.9496985 46.5172414 46.913611 46.5607985 46.1918611 48.0417423 44.4957489 48.9564428 44.4235739 49 44.3874864 49 44.3513989 49zM37.6489607 55C36.0747295 55 34.4611424 54.9624609 33.08369 54.8873827 26.3144956 54.5119917 20.7259746 53.2732013 15.5310114 50.983316 12.1464142 49.4817518 10.2573366 47.6423358 9.62764413 46.8164755 9.15537475 47.1167883 8.21083599 47.7549531 7.73856661 48.7309698 7.65985505 48.9186653 7.42372036 48.9937435 7.22694145 48.9186653 7.03016254 48.8435871 6.95145098 48.6183525 7.03016254 48.4306569 7.85663396 46.8540146 9.50957679 46.0281543 9.58828835 46.0281543 9.7063557 45.9906152 9.82442304 45.9906152 9.94249039 46.0281543 10.021202 46.0656934 10.0999135 46.1407716 10.1392693 46.2533889 10.2966924 46.5537018 12.0677026 48.6934307 15.8852134 50.3826903 21.0014651 52.5974974 26.4719187 53.8362878 33.1624016 54.2116788 38.3573648 54.5119917 42.5290777 54.2492179 43.2374817 53.9489051 43.2768375 53.8362878 43.3949049 53.7612096 43.5129722 53.7236705 43.7097511 53.6861314 43.9458858 53.8362878 43.9852416 54.0239833 44.0245974 54.1741397 43.9852416 54.3242961 43.8671742 54.4369135 43.3555491 54.8498436 40.6006444 55 37.6489607 55zM35.531721 25C33.8815438 25 32.2313665 24.4303356 31.2335849 23.753859 29.9671698 22.8637583 29.2380217 22.472114 28.1634877 22.3653019 28.048359 22.3653019 27.9716066 22.2584899 28.0099828 22.1516778 28.0099828 22.0448657 28.1251114 21.9736576 28.2402401 22.0092617 29.3915265 22.1160737 30.1974271 22.5433221 31.5022184 23.4690268 32.6918811 24.2879194 34.8793254 24.9287919 36.7597599 24.5371476 36.8748886 24.5015436 36.951641 24.5727517 36.9900172 24.6795637 37.0283934 24.7863758 36.951641 24.8575839 36.8365123 24.8931879 36.414374 24.964396 35.9922356 25 35.531721 25zM21.706068 26C20.216314 26 19.1817626 25.1771651 19.0989985 25.1138701 19.0162344 25.0505751 18.9748523 24.8606901 19.0162344 24.6708052 19.0576164 24.5442152 19.1817626 24.4809202 19.3059088 24.5442152 19.3472908 24.5442152 21.9543603 26.6329499 24.685576 24.0378552 24.7683401 23.9745602 24.8924863 23.9745602 24.9752504 24.1644452 25.0166324 24.2910352 25.0166324 24.4809202 24.8924863 24.6075102 23.7751708 25.683525 22.6578553 26 21.706068 26zM36.1993743 11C36.0797497 11 36 10.8984573 36 10.7461433 36 10.5938293 36.0797497 10.4922866 36.1993743 10.4922866 36.2392491 10.4922866 38.3924913 10.390744 40.7052329 9.01991784 40.7849826 8.9691465 40.9046072 9.01991784 40.9843569 9.12146052 41.0242318 9.22300319 40.9843569 9.3753172 40.9046072 9.47685988 38.472241 10.8984573 36.279124 11 36.1993743 11 36.1993743 11 36.1993743 11 36.1993743 11zM11.2064343 39C11.1689008 39 11.0938338 38.9636364 11.0563003 38.9272727 10.9812332 38.8545455 10.9812332 38.7454545 11.0563003 38.6727273 11.1313673 38.6 12.6327078 37.2545455 14.1715818 36.3454545 16.536193 35 17.7747989 35 17.8123324 35 17.924933 35 18 35.0727273 18 35.1818182 18 35.2909091 17.924933 35.3636364 17.8123324 35.3636364 17.8123324 35.3636364 16.6112601 35.4 14.3592493 36.6727273 12.8203753 37.5454545 11.3190349 38.9272727 11.2815013 38.9636364 11.2815013 39 11.2439678 39 11.2064343 39z"/>
      <path fill="#4D5052" d="M28.650307 56C22.7287192 56 17.2241446 53.617866 17.140742 53.5583127 17.015638 53.4987593 16.9739367 53.3200993 17.015638 53.2009926 17.0573393 53.0223325 17.1824433 52.9627792 17.2658459 53.0223325 17.3492486 53.0818859 27.232462 57.369727 34.7387001 54.3325062 34.8638041 54.2729529 34.9472067 54.3920596 34.988908 54.5111663 35.0306093 54.6898263 34.9472067 54.808933 34.8638041 54.8684864 32.8621406 55.7022333 30.7353731 56 28.650307 56zM14.84299 22C14.84299 22 14.8071021 22 14.7712141 22 11.4336311 20.9056604 12.0437269 18.1509434 12.0437269 18.1509434 12.0796149 18.0377358 12.1513908 18 12.2590548 18 12.3667188 18.0377358 12.4026068 18.1132075 12.4026068 18.2264151 12.3667188 18.3396226 11.8642869 20.6415094 14.878878 21.6226415 14.986542 21.6603774 15.02243 21.7735849 14.986542 21.8490566 14.986542 21.9622642 14.914766 22 14.84299 22z"/>
      <path fill="#C9C9C9" d="M30,12 C30,12 31.5277778,12.3539505 34.8125,12.8258845 C38.0972222,13.2978184 41,13.1405071 41,13.1405071 L40.7326389,15.972111 C40.7326389,15.972111 38.3645833,16.1294223 36.3020833,15.6968162 C32.8263889,14.9495874 30,12 30,12 Z"/>
    </g>
  </g>
</svg>
