<svg xmlns="http://www.w3.org/2000/svg" xmlns:xlink="http://www.w3.org/1999/xlink" width="51" height="51" viewBox="0 0 51 51">
  <defs>
    <polygon id="pinterest_icon-a" points="0 .491 0 50.917 50.508 50.917 50.508 .491"/>
  </defs>
  <g fill="none" fill-rule="evenodd">
    <mask id="pinterest_icon-b" fill="#fff">
      <use xlink:href="#pinterest_icon-a"/>
    </mask>
    <path fill="#FEFEFE" d="M50.508207,25.7038026 C50.508207,39.6284926 39.201507,50.9167176 25.254027,50.9167176 C11.306547,50.9167176 -0.000153,39.6284926 -0.000153,25.7038026 C-0.000153,11.7791126 11.306547,0.490887583 25.254027,0.490887583 C39.201507,0.490887583 50.508207,11.7791126 50.508207,25.7038026" mask="url(#pinterest_icon-b)"/>
    <path fill="#5C5B70" d="M26.1194797,14 C18.7449186,14 15,19.0666044 15,23.3147693 C15,24.1048981 15.0856783,24.8672308 15.2850749,25.5590439 C15.7264478,27.1537143 16.6803323,28.4374806 18.1898274,29.030978 C18.545522,29.1859153 18.8726571,29.030978 18.9578161,28.663967 C19.0440136,28.3957865 19.1997923,27.7461822 19.2854706,27.4641036 C19.3997082,27.0831946 19.3566095,26.9560534 19.0720538,26.631766 C18.7018199,26.1937207 18.3887048,25.6995684 18.2178676,25.0787897 C18.1036299,24.6695699 18.032491,24.2181413 18.032491,23.6956783 C18.032491,19.9277676 20.979823,16.5402512 25.7066663,16.5402512 C29.8784185,16.5402512 32.184981,18.981672 32.184981,22.2564599 C32.184981,23.2303516 32.0852826,24.1476216 31.899906,25.0226829 C31.2451165,28.0287755 29.536744,30.2020158 27.2442016,30.2020158 C25.6215073,30.2020158 24.3825478,28.9177347 24.7813412,27.3225496 C25.0092973,26.4341051 25.3364324,25.5024223 25.6215073,24.5990503 C25.9200831,23.6529547 26.1760793,22.7361994 26.1760793,22.0304882 C26.1760793,20.7884161 25.4927303,19.7867283 24.0554127,19.7867283 C22.3891004,19.7867283 21.0509619,21.4519184 21.0509619,23.6529547 C21.0509619,24.0626892 21.0930221,24.458011 21.1506602,24.7539876 C21.3069581,25.5446311 21.5494535,26.0243706 21.5494535,26.0243706 C21.5494535,26.0243706 19.8410811,32.9543406 19.5560061,34.168102 C18.9578161,36.59511 19.4703279,39.5450958 19.5134266,39.8415871 C19.527966,40.0109372 19.7694229,40.0531461 19.8836606,39.9260048 C20.0399585,39.7288587 22.0188665,37.3996516 22.7022155,35.0431632 C22.873572,34.3657629 23.7988972,30.9221397 23.7988972,30.9221397 C24.3259483,31.9243421 25.906063,32.7988886 27.6004154,32.7988886 C31.6579299,32.7988886 34.6764008,29.8777284 35.6588448,25.6295635 C35.8868009,24.6695699 36,23.6251586 36,22.5529513 C36,18.1071255 32.0852826,14 26.1194797,14"/>
  </g>
</svg>
