<svg xmlns="http://www.w3.org/2000/svg" width="16" height="12" viewBox="0 0 16 12">
  <g fill="none">
    <path fill="#15C99D" d="M8.9658828,3.55028943 L8.96666111,0.724814024 C8.9667545,0.431720342 8.79029605,0.167428493 8.51956868,0.0552414603 C8.24896584,-0.0569455721 7.93726823,0.00489274219 7.72992643,0.212110256 L4.21233858,3.7283626 C3.92934504,4.01130558 3.92918938,4.470111 4.21205839,4.7531474 L7.72780943,8.27136138 C7.86637975,8.41010837 8.05183547,8.48377879 8.24040443,8.48377879 C8.33373937,8.48377879 8.42775923,8.4657504 8.51732715,8.42866609 C8.78805452,8.31657247 8.96469977,8.05237404 8.96479316,7.75934263 L8.96550921,5.00731968 C12.104745,5.36735816 14.5509423,8.04082217 14.5509423,11.2753459 C14.5509423,11.6755512 14.875342,12 15.2754867,12 C15.6756315,12 16,11.6755512 16,11.2753459 C16,7.24106532 12.9054704,3.91655534 8.9658828,3.55028943 Z"/>
    <path fill="#FF8916" d="M1.76090528,4.49931253 L4.78623542,1.31244315 C5.07112945,1.01231364 5.07128616,0.525552853 4.78651749,0.225291212 C4.5016548,-0.0750364934 4.03983813,-0.0750695255 3.75500679,0.225026955 L0.213764579,3.95524108 C-0.0711294516,4.25540362 -0.071286159,4.74213137 0.213482506,5.04239302 L3.75287556,8.77472119 C3.89529124,8.92491807 4.08208644,9 4.26875629,9 C4.45539478,9 4.6419706,8.92501717 4.78438627,8.77495241 C5.0692803,8.47478987 5.06943701,7.98806211 4.78466835,7.68780047 L1.76090528,4.49931253 Z"/>
  </g>
</svg>
