<svg xmlns="http://www.w3.org/2000/svg" width="22" height="23" viewBox="0 0 22 23">
  <path fill="#FFF" fill-rule="evenodd" d="M21.6817775,20.9082949 L16.2613332,15.2312981 C17.6639083,13.5634289 18.4316914,11.4328126 18.4235049,9.23122013 C18.3493843,4.08072378 14.231335,-0.0425200031 9.2042449,0.000330990948 C4.18299116,-0.0340223646 0.0740954403,4.0867677 0,9.23122013 C0.0740954403,14.3756726 4.18299116,18.4964626 9.2042449,18.4621093 C11.0776757,18.5116177 12.9213433,17.9749511 14.4895535,16.9236277 L19.9550432,22.646779 C20.4272221,23.1177403 21.1795685,23.1177403 21.6517474,22.646779 C21.8745782,22.4213142 22,22.1138009 22,21.7929218 C22,21.4720426 21.8745782,21.1645293 21.6517474,20.9390645 L21.6817775,20.9082949 Z M9.2042449,2.44651661 C12.907107,2.41203462 15.9471845,5.43777721 16.0210919,9.23122013 C15.9798408,13.0427612 12.9393452,16.1031091 9.21925998,16.0774629 C5.49333441,16.1116331 2.44366461,13.0488124 2.40241302,9.23122013 C2.46001714,5.4317434 5.49571669,2.38995567 9.2042449,2.41574698 L9.2042449,2.44651661 Z"/>
</svg>
