<svg xmlns="http://www.w3.org/2000/svg" width="64" height="64" viewBox="0 0 64 64">
  <g fill="none">
    <rect width="64" height="64" fill="#FFF" fill-opacity="0"/>
    <g transform="translate(4 4)">
      <circle cx="27.5" cy="27.5" r="27.5" fill="#FFF"/>
      <path fill="#C9C9C9" d="M51,25.5384615 C51,22.5 48.4444444,20 45.25,20 C42.734375,20 40.2986111,21.5 39.5,23.6538462 C38.7413194,21.5 36.265625,20 33.75,20 C30.5954861,20 28,22.4615385 28,25.5384615 C28,27 28.3993056,28.1923077 29.5572917,29.3461538 L29.6770833,29.4615385 C29.6770833,29.4615385 39.3802083,39 39.3802083,39 L48.8836806,29.8461538 C49.9618056,28.7307692 51,27.2692308 51,25.5384615 Z"/>
      <path fill="#29C49B" d="M36,36 L16.2555066,36 C12.2511013,36 9,32.863388 9,29 C9,25.136612 12.2511013,22 16.2555066,22 L27.1585903,22 C27.1585903,22 25.4537445,24.715847 27.3568282,27.3169399 C28.7048458,29.1530055 36,36 36,36 Z"/>
      <path fill="#30E6B6" d="M36,36 C36,36 28.6625767,29.0649351 27.3466258,27.1948052 C26.5490798,26.0649351 26.3895706,24.9350649 26.4693252,24 L17.297546,24 C13.2699387,24 10,27.1948052 10,31.1298701 C10,31.8311688 10.1196319,32.4935065 10.2791411,33.1168831 C11.595092,34.8701299 13.7484663,36 16.1411043,36 L36,36 Z"/>
      <path fill="#FD6A5D" d="M49,23.5384615 C49,20.5 46.4444444,18 43.25,18 C40.734375,18 38.2986111,19.5 37.5,21.6538462 C36.7413194,19.5 34.265625,18 31.75,18 C28.5954861,18 26,20.4615385 26,23.5384615 C26,25 26.3993056,26.1923077 27.5572917,27.3461538 L27.6770833,27.4615385 C27.6770833,27.4615385 37.3802083,37 37.3802083,37 L46.8836806,27.8461538 C47.921875,26.7307692 49,25.2692308 49,23.5384615 Z"/>
      <path fill="#FDA29A" d="M28.058351,24.1778735 C28.3812184,22.5141244 29.0269532,20.7604428 30.8430823,20.1758823 C32.6592114,19.5913218 34.3542652,20.5805781 35,21.4349357 L29.10767,28 C29.1480285,28 27.6951252,26.1114199 28.058351,24.1778735 Z"/>
      <path fill="#29C49B" d="M48.9142857,28 L40,37 L41.1571429,37 C45.4857143,37 49,33.5023697 49,29.1943128 C49,28.8104265 48.9571429,28.3838863 48.9142857,28 Z"/>
      <path fill="#4D5052" d="M28,56 C12.5802817,56 0,43.4197183 0,28 C0,12.5802817 12.5802817,0 28,0 C43.4197183,0 56,12.5802817 56,28 C56,43.4197183 43.4197183,56 28,56 Z M28,0.788732394 C13.0140845,0.788732394 0.788732394,13.0140845 0.788732394,28 C0.788732394,42.9859155 13.0140845,55.2112676 28,55.2112676 C42.9859155,55.2112676 55.2112676,42.9859155 55.2112676,28 C55.2112676,13.0140845 42.9859155,0.788732394 28,0.788732394 Z"/>
      <path fill="#4D5052" d="M40.6156603 38L39.4366649 38C39.174666 38 39 37.8269554 39 37.5673885 39 37.3078215 39.174666 37.1347769 39.4366649 37.1347769L40.6156603 37.1347769C44.7639773 37.1347769 48.1699639 33.8036681 48.1699639 29.6505974 48.1699639 29.261247 48.1262974 28.8718966 48.0826309 28.4825462 48.0389644 28.2662404 48.2136304 28.0066735 48.4319629 28.0066735 48.6502953 27.9634124 48.9122943 28.136457 48.9122943 28.3527627 48.9996273 28.7853743 48.9996273 29.2179858 48.9996273 29.6505974 49.0432938 34.2362796 45.2443087 38 40.6156603 38zM36.64 36L16.72 36C12.48 36 9 32.6580311 9 28.5 9 24.3419689 12.44 21 16.72 21L27.72 21C27.96 21 28.12 21.1554404 28.12 21.388601 28.12 21.6217617 27.96 21.7772021 27.72 21.7772021L16.72 21.7772021C12.92 21.7772021 9.8 24.7694301 9.8 28.5 9.8 32.2305699 12.88 35.2227979 16.72 35.2227979L36.6 35.2227979C36.84 35.2227979 37 35.3782383 37 35.611399 37 35.8445596 36.84 36 36.64 36z"/>
      <path fill="#4D5052" d="M37.8791946,38 C37.8791946,38 37.8791946,38 37.8791946,38 C37.7583893,38 37.6778523,37.9610136 37.5973154,37.8830409 C37.5973154,37.8830409 27.8926174,28.2534113 27.8120805,28.214425 L27.6912752,28.0974659 C27.6912752,28.0974659 27.6510067,28.0584795 27.6510067,28.0584795 C26.4832215,26.8888889 26,25.6803119 26,24.0038986 C26,20.6900585 28.7785235,18 32.2013423,18 C34.6174497,18 36.9127517,19.2865497 38,21.1578947 C39.0872483,19.2865497 41.3825503,18 43.7986577,18 C47.2214765,18 50,20.6900585 50,24.0038986 C50,25.5633528 49.2751678,27.0448343 47.7449664,28.6042885 L38.1610738,37.8830409 C38.0805369,37.9610136 38,38 37.8791946,38 Z M28.3355705,27.6296296 L28.3758389,27.668616 C28.3758389,27.668616 33.4899329,32.6978558 37.8791946,37.0643275 L47.1812081,28.0584795 C48.5503356,26.6549708 49.1946309,25.3294347 49.1946309,23.9649123 C49.1946309,21.079922 46.7785235,18.7407407 43.7986577,18.7407407 C41.3825503,18.7407407 39.0872483,20.1832359 38.4026846,22.2105263 C38.3624161,22.3664717 38.2013423,22.4834308 38.0402685,22.4834308 C38.0402685,22.4834308 38.0402685,22.4834308 38.0402685,22.4834308 C37.8791946,22.4834308 37.7181208,22.3664717 37.6778523,22.2105263 C36.9530201,20.2222222 34.6979866,18.7407407 32.2818792,18.7407407 C29.3020134,18.7407407 26.885906,21.079922 26.885906,23.9649123 C26.885906,25.4853801 27.3288591,26.4990253 28.3355705,27.5516569 C28.295302,27.5906433 28.295302,27.5906433 28.3355705,27.6296296 Z"/>
      <path fill="#4D5052" d="M33.819398,32 C33.7792642,32 33.6989967,32 33.6588629,31.921288 L31.090301,29.3631485 C30.1270903,28.3792487 29.4046823,27.6708408 29.4046823,27.6708408 L29.3244147,27.5921288 C29.3244147,27.5921288 29.3244147,27.5527728 29.2842809,27.5527728 C28.4013378,26.647585 28,25.7030411 28,24.3649374 C28,23.1055456 28.4816054,21.9248658 29.4046823,21.059034 C29.4849498,20.980322 29.6053512,20.980322 29.6856187,21.059034 C29.7658863,21.137746 29.7658863,21.255814 29.6856187,21.3345259 C28.8428094,22.1610018 28.4013378,23.2236136 28.4013378,24.3649374 C28.4013378,25.5849732 28.7625418,26.490161 29.6053512,27.3166369 C29.6053512,27.3166369 29.6053512,27.3559928 29.6454849,27.3559928 L29.6856187,27.3953488 C29.6856187,27.3953488 30.4080268,28.1037567 31.3712375,29.0876565 L33.9397993,31.6457961 C34.0200669,31.7245081 34.0200669,31.842576 33.9397993,31.921288 C33.9397993,32 33.8996656,32 33.819398,32 Z"/>
      <path fill="#D1584D" d="M37.2732364,36 C37.1574877,35.9184953 45.1827356,27.645768 46.0701428,26.7084639 C46.95755,25.7711599 47.2276305,23.8557994 46.8032183,23 L36,34.4106583 L37.2732364,36 Z"/>
    </g>
  </g>
</svg>
