<svg xmlns="http://www.w3.org/2000/svg" width="13" height="12" viewBox="0 0 13 12">
  <defs>
    <linearGradient id="star_icon-a" x1="0%" x2="98.378%" y1="50%" y2="50%">
      <stop offset="0%" stop-color="#FF7E00"/>
      <stop offset="100%" stop-color="#F49819"/>
    </linearGradient>
  </defs>
  <path fill="url(#star_icon-a)" d="M6.04944357,0.271150537 C6.13442247,0.105206408 6.30942851,0 6.50070115,0 C6.69197378,0 6.86726029,0.105206408 6.95195872,0.271150537 L8.5704842,3.44225606 C8.64368384,3.5856947 8.7855958,3.68520694 8.94966397,3.70825474 L12.5692602,4.216662 C12.7591305,4.24323475 12.9161872,4.3717601 12.975364,4.5477368 C13.0345407,4.7237135 12.98518,4.91731498 12.8480358,5.04638264 L10.2291152,7.51493712 C10.1104813,7.62665114 10.0563528,7.78771456 10.0841182,7.94552417 L10.7022486,11.4311643 C10.7342208,11.6139198 10.6570948,11.7983021 10.5017208,11.9073047 C10.3466273,12.0157649 10.1416122,12.0301359 9.9716544,11.9444523 L6.73404254,10.2985685 C6.58764325,10.2240021 6.41235675,10.2240021 6.265677,10.2985685 L3.02806514,11.9441811 C2.85866826,12.0301359 2.65309225,12.016036 2.49799875,11.9073047 C2.34290525,11.7985733 2.26549873,11.6139198 2.29775144,11.4311643 L2.91588177,7.94552417 C2.94392761,7.78771456 2.88951868,7.62665114 2.77088478,7.51493712 L0.151964162,5.04638264 C0.0148200005,4.91704383 -0.0345406793,4.7237135 0.0246360448,4.5477368 C0.0838127689,4.3717601 0.241149936,4.24323475 0.431020278,4.216662 L4.05117741,3.70825474 C4.21496512,3.68520694 4.35687707,3.5856947 4.43007672,3.44198491 L6.04944357,0.271150537 Z"/>
</svg>
