<svg xmlns="http://www.w3.org/2000/svg" width="30" height="30" viewBox="0 0 30 30">
  <g fill="none" fill-rule="evenodd">
    <circle cx="15" cy="15" r="15" fill="#15C99D" fill-rule="nonzero"/>
    <path fill="#FFF" fill-rule="nonzero" d="M20.6 10.74L9.7 10.74 12.58 7.86C12.82004 7.69723195 12.9389878 7.40633343 12.8817609 7.12201363 12.8245341 6.83769384 12.6023062 6.6154659 12.3179864 6.55823906 12.0336666 6.50101222 11.742768 6.61995996 11.58 6.86L7.48 10.96C7.21076447 11.2389675 7.21076447 11.6810325 7.48 11.96L11.58 16.06C11.7147539 16.1958676 11.8986466 16.2715881 12.09 16.27 12.2805022 16.2673181 12.4628437 16.1922363 12.6 16.06 12.8745556 15.7832022 12.8745556 15.3367978 12.6 15.06L9.7 12.17 20.6 12.17C20.9937343 12.1645309 21.310038 11.8437723 21.31 11.45 21.31 11.0578778 20.9921222 10.74 20.6 10.74zM18.56 14.92C18.4297469 14.7830356 18.2490108 14.7054997 18.06 14.7054997 17.8709892 14.7054997 17.6902531 14.7830356 17.56 14.92 17.4174801 15.0471227 17.3359821 15.2290233 17.3359821 15.42 17.3359821 15.6109767 17.4174801 15.7928773 17.56 15.92L20.29 18.66 10.76 18.66C10.3844464 18.66 10.08 18.9644464 10.08 19.34 10.08 19.7155536 10.3844464 20.02 10.76 20.02L20.33 20.02 17.6 22.72C17.4213672 22.8986328 17.3516031 23.1589958 17.4169873 23.4030127 17.4823714 23.6470297 17.6729703 23.8376286 17.9169873 23.9030127 18.1610042 23.9683969 18.4213672 23.8986328 18.6 23.72L22.5 19.82C22.6369644 19.6897469 22.7145003 19.5090108 22.7145003 19.32 22.7145003 19.1309892 22.6369644 18.9502531 22.5 18.82L18.56 14.92z"/>
  </g>
</svg>
