<svg xmlns="http://www.w3.org/2000/svg" xmlns:xlink="http://www.w3.org/1999/xlink" width="51" height="51" viewBox="0 0 51 51">
  <defs>
    <polygon id="twitter_icon-a" points="50.508 51 0 51 0 .492 50.508 .492 50.508 51"/>
  </defs>
  <g fill="none" fill-rule="evenodd">
    <mask id="twitter_icon-b" fill="#fff">
      <use xlink:href="#twitter_icon-a"/>
    </mask>
    <path fill="#FEFEFE" d="M50.508105,25.745871 C50.508105,39.693351 39.201405,51.000051 25.253925,51.000051 C11.306955,51.000051 0.000255,39.693351 0.000255,25.745871 C0.000255,11.798391 11.306955,0.491691 25.253925,0.491691 C39.201405,0.491691 50.508105,11.798391 50.508105,25.745871" mask="url(#twitter_icon-b)"/>
    <path fill="#5D5B70" d="M36,19.135216 C35.1999356,19.4897912 34.3295303,19.7335941 33.4110503,19.8552367 C34.3533146,19.2817047 35.0688687,18.4027722 35.4033675,17.3292115 C34.5329622,17.8535688 33.5542623,18.2319549 32.5284998,18.4395238 C31.7162902,17.5492034 30.5361825,17 29.2229839,17 C26.7418227,17 24.7130699,19.0379019 24.7130699,21.5395986 C24.7130699,21.9055616 24.7732898,22.2471962 24.8446428,22.5769253 C21.0867185,22.3936849 17.7579243,20.5876805 15.5383908,17.8297579 C15.1568294,18.513027 14.91848,19.2817047 14.91848,20.1114626 C14.91848,21.6979928 15.7296775,23.0893771 16.9224364,23.8948065 C16.1830979,23.882901 15.4908221,23.6753321 14.8830565,23.33318 L14.8830565,23.3947777 C14.8830565,23.9802151 14.989833,24.5169955 15.1927589,25.0294473 C15.7423287,26.4575833 16.9942954,27.5316616 18.509914,27.8365445 C18.1157013,27.9462817 17.7341399,28.0073618 17.316649,28.0073618 C17.030731,28.0073618 16.7438009,27.9706102 16.469016,27.9100477 C17.0545153,29.7160522 18.7123338,31.0339334 20.6813728,31.0831081 C19.1298247,32.3031575 17.1977274,33.0231782 15.0854764,33.0231782 C14.7150481,33.0231782 14.3699223,32.9983321 14,32.9620981 C16.0039564,34.2437453 18.3783411,35 20.9197221,35 C27.9710172,35 32.3250679,30.0085121 33.4586189,24.8218784 C33.6620509,23.8948065 33.7566822,22.97964 33.7566822,22.0763789 L33.7566822,21.4904239 C34.6275935,20.8439064 35.4033675,20.038477 36,19.135216"/>
  </g>
</svg>
