<svg xmlns="http://www.w3.org/2000/svg" width="64" height="64" viewBox="0 0 64 64">
  <g fill="none">
    <rect width="64" height="64" fill="#FFF" fill-opacity="0"/>
    <g transform="translate(1 1)">
      <path fill="#C9C9C9" d="M31.6589958,1 L31.3012552,1 C26.1736402,1 22,5.21775899 22,10.3995772 L22,20 L41,20 L41,10.3995772 C40.960251,5.21775899 36.7866109,1 31.6589958,1 Z"/>
      <path fill="#9C9C9C" d="M32,2 C32,2 35.5555556,1.95949081 38.1818182,4.79732372 C39.6767677,6.37840205 40,7.95948038 40,9.17569449 C40,10.2702872 40,20 40,20 L36.4040404,20 L36.4040404,8.60812791 C36.4040404,8.60812791 36.2828283,5.28380936 34.6666667,3.62165008 C33.1313131,2.04057175 32,2 32,2 Z"/>
      <path fill="#9C9C9C" d="M21.2737192,14.2112719 C21.2737192,14.2112719 27.3437162,12.8011971 31.9947529,13.0238405 C36.6457896,13.2835911 41.8486442,14.2112719 41.8486442,14.2112719 C41.8486442,14.2112719 42.0851376,20 41.9668909,20 C41.8486442,20 37.2370231,19.517606 32.1524152,19.5918205 C27.0678073,19.6660349 21.1948881,20 21.0372258,20 C20.8795636,20 21.2737192,14.2112719 21.2737192,14.2112719 Z"/>
      <path fill="#4D5052" d="M40 20C40 19.150289 40 16.1156069 40 13.4855491 39.1573034 13.3236994 38.1123596 13.1618497 37 13L37 19.7976879C38.1123596 19.8786127 39.1573034 19.9190751 40 20zM41.7487783 19.6188731C41.7487783 19.6188731 41.6300773 8.3081984 41.6300773 8.26794689 41.6300773 8.22769537 39.8495613 3.84028065 39.0582208 3.11575345 38.1086123 2.27047171 49.0291104 6.13461679 53.3023488 12.0918405 58.0503915 18.6930883 59 23 59 23 59 23 47.7629657 19.3371125 41.7487783 19.6188731zM22.2512217 19.6188731C22.2512217 19.6188731 22.3699227 8.3081984 22.3699227 8.26794689 22.3699227 8.22769537 24.1504387 3.84028065 24.9417792 3.11575345 25.8913877 2.27047171 14.9708896 6.13461679 10.6976512 12.0918405 5.94960853 18.6930883 5 23 5 23 5 23 16.1974673 19.3371125 22.2512217 19.6188731z"/>
      <path fill="#C9C9C9" d="M3.10598864,29.511886 C0.83044159,28.427825 2.2676292,25.8581991 5.58114508,24.6938373 C8.89466097,23.4893251 17.3580991,21 33.127241,21 C48.8963828,21 58.8768524,24.2521829 60.6733369,26.8619592 C62.4698214,29.4717356 56.7609928,31.4391055 45.902242,33.2057233 C35.0434911,34.9723412 14.3639583,33.4867762 8.37567655,31.7201583 C5.22184818,30.7565486 3.10598864,29.511886 3.10598864,29.511886 Z"/>
      <path fill="#30E6B6" d="M12.5272727,46.442029 C13.7330144,43.6521739 22.2937799,28.9855072 22.8162679,28.0688406 C23.338756,27.1521739 25.3885167,25 32.1004785,25 C38.8124402,25 39.9779904,25.5181159 41.384689,28.0289855 C42.7913876,30.5797101 53,48.7934783 53,48.7934783 C53,48.7934783 45.2028708,58 32.1004785,58 C18.9980861,58 11,48.7137681 11,48.7137681 L12.5272727,46.442029 Z"/>
      <polygon fill="#B8FFEC" points="32 60 32.726 30.206 34.102 30 38 59.341"/>
      <polygon fill="#B8FFEC" points="19.971 56 30 26 28.06 26.413 17 54.391"/>
      <ellipse cx="32.5" cy="27.5" fill="#B8FFEC" rx="8.5" ry="2.5"/>
      <path fill="#4D5052" d="M4.40814358 23C4.36809653 23 4.32804948 23 4.28800243 23 4.08776718 22.961104 3.96762603 22.727728 4.00767308 22.5332479 6.73087244 12.9259343 14.5800941 5.45790097 24.5117623 3.00745254 24.7119976 2.96855653 24.9522799 3.08524455 24.9923269 3.27972459 25.032374 3.47420462 24.9122328 3.70758066 24.7119976 3.74647667 15.0206116 6.11913308 7.41167227 13.3926863 4.76856702 22.727728 4.72851997 22.883312 4.56833177 23 4.40814358 23zM31.5 59C15.8049296 59 3 46.5944444 3 31.3888889 3 31.1555556 3.16056338 31 3.40140845 31 3.64225352 31 3.8028169 31.1555556 3.8028169 31.3888889 3.8028169 46.1666667 16.2464789 58.2222222 31.5 58.2222222 46.7535211 58.2222222 59.1971831 46.1666667 59.1971831 31.3888889 59.1971831 31.1555556 59.3577465 31 59.5985915 31 59.8394366 31 60 31.1555556 60 31.3888889 60 46.6333333 47.1950704 59 31.5 59zM59.5921165 23C59.4320304 23 59.2719443 22.8831607 59.1919012 22.727375 56.5504802 13.3802332 48.9463893 6.13619824 39.3012005 3.76046635 39.1010928 3.72151992 38.9410067 3.48784138 39.0210497 3.29310926 39.0610713 3.09837713 39.3012005 2.94259144 39.5013081 3.02048428 49.4266477 5.4351626 57.2708677 12.9128761 59.9923318 22.5326429 60.0323533 22.727375 59.9122887 22.9610536 59.7121811 23 59.6721596 23 59.632138 23 59.5921165 23z"/>
      <path fill="#4D5052" d="M32.0610649,35 C28.749819,35 25.5193352,34.8970088 22.3696135,34.6910265 C22.1273272,34.6910265 21.9658031,34.5193745 22.0061841,34.3133922 C22.0061841,34.1417402 22.2080893,33.9700882 22.4503756,34.0044186 C25.5597163,34.210401 28.7902001,34.3133922 32.0610649,34.3133922 C34.8877382,34.3133922 37.6740305,34.2447314 40.3795607,34.0730794 L40.9448954,34.038749 C41.1871816,34.038749 41.3487058,34.0044186 41.5506111,34.0044186 C41.7525163,34.0044186 41.9544215,34.1417402 41.9948026,34.3133922 C42.0351836,34.4850441 41.8332784,34.6566961 41.6313732,34.6910265 C41.3890869,34.6910265 41.2275627,34.7253569 40.9852764,34.7253569 L40.4199417,34.7596873 C37.7144116,34.9313392 34.8877382,35 32.0610649,35 Z"/>
      <path fill="#4D5052" d="M19.2345133,35 C19.2345133,35 19.1946903,35 19.1946903,35 C9.9159292,34.0025974 0,31.425974 0,27.3116883 C0,22.1168831 16.0088496,19 31.5,19 C46.9911504,19 63,22.1168831 63,27.3116883 C63,31.3844156 53.2831858,33.9194805 44.2035398,34.9584416 C43.9646018,35 43.8053097,34.8337662 43.7654867,34.5844156 C43.7256637,34.3350649 43.8849558,34.1688312 44.1238938,34.1272727 C54.9159292,32.8805195 62.2035398,30.1792208 62.2035398,27.3116883 C62.2035398,23.6961039 49.8584071,19.8311688 31.5,19.8311688 C13.1415929,19.8311688 0.796460177,23.6961039 0.796460177,27.3116883 C0.796460177,30.2207792 8.20353982,32.9636364 19.2743363,34.1688312 C19.4734513,34.2103896 19.6327434,34.3766234 19.6327434,34.625974 C19.6327434,34.8753247 19.4336283,35 19.2345133,35 Z"/>
      <path fill="#4D5052" d="M3.18035985 26C3.14027989 26 3.10019992 26 3.06011995 25.9640288 2.97996002 25.8920863 2.97996002 25.7841727 3.06011995 25.7122302 5.86571765 22.9784173 17.9297878 21 31.7573764 21 44.8234457 21 56.4065562 22.7625899 59.9335933 25.3165468 60.0137533 25.3884892 60.0137533 25.4964029 59.9736733 25.5683453 59.8935134 25.6402878 59.7732735 25.676259 59.6931135 25.6043165 56.2462364 23.1223022 44.7432858 21.3597122 31.7573764 21.3597122 18.0500277 21.3597122 6.10619745 23.3021583 3.38075969 25.9640288 3.30059975 25.9640288 3.22043982 26 3.18035985 26zM41.629657 13.9773907C41.5893656 13.9773907 41.5490741 13.9773907 41.5087827 13.9773907 39.131587 13.2466159 35.6665221 12.8597351 32 12.8597351 28.3334779 12.8597351 24.868413 13.2896026 22.4912173 13.9773907 22.2897601 14.0633642 22.0480114 13.8914172 22.0077199 13.6764834 21.9674285 13.4615496 22.0883028 13.2036291 22.2897601 13.1606423 24.7475386 12.4298675 28.2931864 12 32 12 35.7068136 12 39.2524614 12.4298675 41.7102399 13.1606423 41.9116972 13.2036291 42.0325715 13.4615496 41.9922801 13.6764834 41.9519886 13.8484304 41.7908228 13.9773907 41.629657 13.9773907z"/>
      <path fill="#4D5052" d="M32 31C27.6451613 31 23 29.9459459 23 28 23 26.0540541 27.6451613 25 32 25 36.3548387 25 41 26.0540541 41 28 41 29.7432432 37.3917051 30.6756757 34.281106 30.9189189 34.0322581 30.9594595 33.8663594 30.7567568 33.8248848 30.5540541 33.8248848 30.3108108 33.9907834 30.1486486 34.1981567 30.1081081 37.9308756 29.7837838 40.1705069 28.8108108 40.1705069 28 40.1705069 27.0675676 37.0599078 25.8108108 32 25.8108108 26.9400922 25.8108108 23.8294931 27.0675676 23.8294931 28 23.8294931 28.9324324 26.9400922 30.1891892 32 30.1891892 32.2488479 30.1891892 32.4147465 30.3513514 32.4147465 30.5945946 32.4147465 30.8378378 32.2488479 31 32 31zM41.5975855 20C41.3561368 20 41.195171 19.8377282 41.195171 19.5943205L41.195171 9.89858012C41.195171 4.86815416 37.1307847.811359026 32.1810865.811359026L31.8189135.811359026C26.8289738.811359026 22.804829 4.90872211 22.804829 9.89858012L22.804829 19.5943205C22.804829 19.8377282 22.6438632 20 22.4024145 20 22.1609658 20 22 19.8377282 22 19.5943205L22 9.89858012C22 4.42190669 26.4265594 0 31.8189135 0L32.1810865 0C37.6136821 0 42 4.46247465 42 9.89858012L42 19.5943205C42 19.8377282 41.7987928 20 41.5975855 20zM53.5598799 50C53.3907581 50 53.2639167 49.9194214 53.1793558 49.7985534L42.059596 30.6208398C41.9327546 30.4193932 42.0173155 30.1776573 42.2287178 30.0567894 42.4401201 29.9359215 42.6938028 30.0165001 42.8206442 30.2179467L53.940404 49.3956603C54.0672454 49.5971069 53.9826845 49.8388427 53.7712822 49.9597107 53.6867213 50 53.6444408 50 53.5598799 50zM11.4340035 50C11.3506178 50 11.3089249 50 11.2255392 49.9603497 11.0170749 49.8413987 10.9336892 49.6034968 11.0587677 49.4052452L22.1907608 30.21449C22.3158394 30.0162384 22.5659965 29.9369377 22.7744608 30.0558887 22.9829251 30.1748397 23.0663108 30.4127416 22.9412323 30.6109932L11.8092392 49.8017484C11.7258535 49.9206994 11.559082 50 11.4340035 50zM51.7724396 50C51.6880378 50 51.6458368 49.9628235 51.6036359 49.8884705L48.0165556 44.27482C47.9743547 44.200467 48.0165556 44.0889375 48.1009575 44.0145845 48.1853594 43.977408 48.3119622 44.0145845 48.3963641 44.0889375L51.9834444 49.7025881C52.0256453 49.776941 51.9834444 49.8884705 51.8990425 49.9628235 51.8568415 50 51.8146406 50 51.7724396 50zM44.8153077 39C44.7468055 39 44.7125544 38.9602765 44.6783033 38.8808296L41.0134369 31.293648C40.9791858 31.214201 41.0134369 31.0950306 41.081939 31.0155837 41.1504412 30.9758602 41.2531945 31.0155837 41.3216967 31.0950306L44.9865631 38.6822123C45.0208142 38.7616592 44.9865631 38.8808296 44.918061 38.9602765 44.8838099 39 44.8495588 39 44.8153077 39z"/>
      <path fill="#4D5052" d="M29.3259349 38C29.2938366 38 29.2938366 38 29.2617382 38 29.1012465 37.9586706 28.9728532 37.7520235 29.0049515 37.504047 29.7432133 31.8832465 30.3530817 27.3370108 30.3530817 27.3370108 30.3851801 27.1303638 30.5456717 26.9650461 30.7382618 27.0063755 30.8987535 27.0477049 31.0271468 27.254352 30.9950485 27.5023285 30.9950485 27.5023285 30.3851801 32.0485642 29.6469183 37.6693647 29.6148199 37.8760118 29.4864266 38 29.3259349 38zM26.169423 58C26.169423 58 26.1321107 58 26.1321107 58 25.9082368 57.9600831 25.9082368 57.9600831 26.6171708 53.1700513 26.6171708 53.0503005 26.7291078 52.9704666 26.8410447 53.0103836 26.9529816 53.0103836 27.0276063 53.1301344 26.990294 53.2498852 26.4679216 56.8024921 26.3559846 57.6008307 26.3559846 57.7604984 26.3559846 57.8004153 26.3559846 57.8004153 26.3559846 57.8403323 26.3186723 57.9201661 26.2440477 58 26.169423 58zM41.6532309 57C41.5225847 57 41.3919385 56.8796929 41.3266155 56.7192833L40.0201536 51.5460759C39.9548305 51.345564 40.0528152 51.1049497 40.2487845 51.024745 40.4120922 50.9445402 40.6080615 51.0648473 40.6733845 51.3054616L41.9798464 56.478669C42.0451695 56.6791809 41.9471848 56.9197952 41.7512155 57 41.718554 57 41.6858925 57 41.6532309 57zM36.6306434 36C36.4914872 36 36.3523311 35.8829228 36.2827531 35.7268198L34.0214664 27.5314152C33.9518883 27.3362865 34.0562554 27.1021321 34.2649896 27.0240806 34.4389347 26.9460292 34.6476689 27.0631064 34.7172469 27.2972608L36.9785336 35.4926654C37.0481117 35.6877941 36.9437446 35.9219485 36.7350104 36 36.7002214 36 36.6654324 36 36.6306434 36zM26.2073955 35C26.1688103 35 26.1688103 35 26.1302251 35 26.0144695 34.9635328 25.9758842 34.8541311 26.0144695 34.7811966L28.6382637 27.1230769C28.6768489 27.0136752 28.7926045 26.977208 28.8697749 27.0136752 28.9855305 27.0501425 29.0241158 27.1595442 28.9855305 27.2324786L26.3617363 34.8905983C26.3617363 34.9635328 26.2845659 35 26.2073955 35z"/>
      <circle cx="25.5" cy="16.5" r="1.5" fill="#B8FFEC"/>
      <circle cx="31.5" cy="16.5" r="1.5" fill="#B8FFEC"/>
      <circle cx="38.5" cy="16.5" r="1.5" fill="#B8FFEC"/>
      <path fill="#4D5052" d="M33.3495935,3.64739884 C33.796748,4.05202312 34,4.57803468 34,5.22543353 C34,5.71098266 33.8373984,6.11560694 33.5121951,6.43930636 C33.1869919,6.76300578 32.7398374,7.00578035 32.2113821,7.0867052 L32.2113821,7.61271676 L30.6666667,7.61271676 L30.6666667,5.99421965 L31.4796748,5.99421965 C31.7642276,5.99421965 31.9674797,5.9132948 32.1707317,5.79190751 C32.3333333,5.67052023 32.4146341,5.46820809 32.4146341,5.26589595 C32.4146341,5.02312139 32.3333333,4.82080925 32.1707317,4.65895954 C32.0081301,4.49710983 31.804878,4.41618497 31.5609756,4.41618497 C31.2764228,4.41618497 31.0731707,4.49710983 30.9105691,4.65895954 C30.7479675,4.82080925 30.6260163,5.06358382 30.5853659,5.34682081 L29,5.02312139 C29.0813008,4.4566474 29.3252033,3.97109827 29.8130081,3.56647399 C30.300813,3.16184971 30.8699187,3 31.601626,3 C32.3333333,3.04046243 32.902439,3.24277457 33.3495935,3.64739884 Z M32.0894309,8.46242775 C32.2520325,8.62427746 32.3333333,8.86705202 32.3333333,9.10982659 C32.3333333,9.35260116 32.2520325,9.59537572 32.0894309,9.75722543 C31.9268293,9.91907514 31.6829268,10 31.4390244,10 C31.1544715,10 30.9512195,9.91907514 30.7886179,9.75722543 C30.6260163,9.59537572 30.5447154,9.39306358 30.5447154,9.10982659 C30.5447154,8.86705202 30.6260163,8.66473988 30.7886179,8.46242775 C30.9512195,8.30057803 31.195122,8.21965318 31.4390244,8.21965318 C31.6829268,8.21965318 31.8861789,8.30057803 32.0894309,8.46242775 Z"/>
      <g fill="#4D5052" transform="translate(20 42)">
        <polygon points="7.229 5.753 5.579 5.753 4.518 2.259 3.457 5.753 1.807 5.753 0 .071 1.571 .071 2.671 3.635 3.771 .071 5.264 .071 6.364 3.635 7.464 .071 9.036 .071"/>
        <polygon points="13.593 1.306 13.593 5.753 12.061 5.753 12.061 1.306 10.018 1.306 10.018 .071 15.675 .071 15.675 1.306"/>
        <polygon points="18.621 2.506 21.568 2.506 21.568 3.741 18.621 3.741 18.621 5.788 17.05 5.788 17.05 .106 21.921 .106 21.921 1.341 18.582 1.341 18.582 2.506"/>
      </g>
      <path fill="#4D5052" d="M4.13512147 31C4.13512147 31 10.2145762 32.9978541 12.4631417 33.4055794 14.7117072 33.8133047 20 34.4656652 20 34.4656652L12.5464219 47.6759657 11.2139387 50C8.7571727 47.0643777 3.05247884 38.7875536 4.13512147 31zM59.8648785 30C59.8648785 30 53.7854238 31.9978541 51.5368583 32.4055794 49.2882928 32.8133047 44 33.4656652 44 33.4656652L51.4535781 46.6759657 52.7860613 49C55.2428273 46.0643777 60.9475212 37.7875536 59.8648785 30z"/>
      <path fill="#FFF" d="M18.6869461,32 C16.9825907,31.761194 10.084009,30.8457711 7.08109697,29.3731343 C4.07818494,27.9004975 7.85211492,26.1890547 12.0318438,25.3532338 C16.9014309,24.39801 21,24 21,24 C21,24 15.8057738,25.4328358 15.6434542,28.1393035 C15.5622944,30.4875622 18.6869461,32 18.6869461,32 Z"/>
      <path fill="#9C9C9C" d="M46.3130539,32 C48.0174093,31.761194 54.915991,30.8457711 57.918903,29.3731343 C60.9218151,27.9004975 57.1478851,26.1890547 52.9681562,25.3532338 C48.0985691,24.39801 44,24 44,24 C44,24 49.1942262,25.4328358 49.3565458,28.1393035 C49.4782854,30.4875622 46.3130539,32 46.3130539,32 Z"/>
    </g>
  </g>
</svg>
