<svg xmlns="http://www.w3.org/2000/svg" width="51" height="51" viewBox="0 0 51 51">
  <g fill="none" fill-rule="evenodd">
    <path fill="#FEFEFE" d="M50.508309,25.745871 C50.508309,39.693351 39.201609,51.000051 25.254129,51.000051 C11.306649,51.000051 -5.1e-05,39.693351 -5.1e-05,25.745871 C-5.1e-05,11.798391 11.306649,0.491691 25.254129,0.491691 C39.201609,0.491691 50.508309,11.798391 50.508309,25.745871"/>
    <path fill="#5E5B70" d="M29.3478957,25.2124161 L22.3152984,28.9896757 L22.3152984,23.1755128 L22.3152984,21.4064749 L25.5008599,23.134027 L29.3478957,25.2124161 Z M37.7466147,20.1004394 C37.7466147,20.1004394 37.4793524,18.2330647 36.7037777,17.4182009 C35.7179908,16.3513492 34.6042264,16.3370084 34.111333,16.2663288 C30.4750232,16 25.0218436,16 25.0218436,16 L24.9925475,16 C24.9925475,16 19.5537589,16 15.9169352,16.2663288 C15.3962876,16.3370084 14.2974282,16.3513492 13.3111274,17.4182009 C12.5355526,18.2330647 12.2688042,20.1004394 12.2688042,20.1004394 C12.2688042,20.1004394 12,22.2909939 12,24.4538912 L12,24.7345607 L12,26.5179395 C12,28.7084939 12.2688042,30.8713912 12.2688042,30.8713912 C12.2688042,30.8713912 12.5355526,32.7392781 13.3111274,33.5674583 C14.2974282,34.6486508 15.5941645,34.607165 16.1862534,34.7193304 C18.2575365,34.9298326 25.0218436,35 25.0218436,35 C25.0218436,35 30.4750232,34.9723428 34.111333,34.7193304 C34.6042264,34.6486508 35.7179908,34.6486508 36.7037777,33.5674583 C37.4793524,32.7392781 37.7466147,30.8713912 37.7466147,30.8713912 C37.7466147,30.8713912 38,28.7084939 38,26.5179395 L38,24.8472383 L38,24.4538912 C38,22.2909939 37.7466147,20.1004394 37.7466147,20.1004394 Z"/>
  </g>
</svg>
