<?xml version="1.0" encoding="utf-8"?>
<!-- Generator: Adobe Illustrator 22.0.1, SVG Export Plug-In . SVG Version: 6.00 Build 0)  -->
<svg version="1.1" xmlns="http://www.w3.org/2000/svg" xmlns:xlink="http://www.w3.org/1999/xlink" x="0px" y="0px"
	 viewBox="0 0 80 80" style="enable-background:new 0 0 80 80;" xml:space="preserve">
<style type="text/css">
	.st0{fill:#F7F7F7;}
	.st1{fill:#FC7769;}
	.st2{fill:#FFFFFF;}
	.st3{fill:#27C79D;}
	.st4{fill:#27B1F1;}
	.st5{fill:none;stroke:#27C79D;stroke-linecap:round;stroke-linejoin:round;stroke-miterlimit:10;}
	.st6{fill:none;stroke:#FFFFFF;stroke-linecap:round;stroke-linejoin:round;stroke-miterlimit:10;}
	.st7{fill:none;stroke:#000000;stroke-linecap:round;stroke-linejoin:round;stroke-miterlimit:10;}
	.st8{fill:none;stroke:#27B1F1;stroke-linecap:round;stroke-linejoin:round;stroke-miterlimit:10;}
	.st9{fill:none;stroke:#FFFFFF;stroke-miterlimit:10;}
	.st10{fill:#6BD1FF;}
	.st11{clip-path:url(#SVGID_2_);}
	.st12{clip-path:url(#SVGID_4_);}
	.st13{clip-path:url(#SVGID_6_);}
	.st14{fill:#C9C9C9;}
	.st15{fill:#D14D3F;}
	.st16{fill:#1F8CBF;}
	.st17{fill:none;}
	.st18{fill:none;stroke:#FC7769;stroke-miterlimit:10;}
	.st19{clip-path:url(#SVGID_8_);}
	.st20{fill:none;stroke:#FC7769;stroke-width:7;stroke-linecap:round;stroke-linejoin:round;stroke-miterlimit:10;}
</style>
<g id="Layer_1">
</g>
<g id="Layer_2">
	<g>
		<g>
			<rect x="13.3" y="17.1" class="st2" width="46.3" height="5.8"/>
		</g>
		<g>
			<path class="st2" d="M59.5,62.7H13.3V11.3h46.3V62.7z M61.2,3.7H11.5L5.8,9.5v66.8h9.6l5.7-5.7h30.5l5.7,5.7H67V9.5L61.2,3.7z"/>
		</g>
		<g>
			<g>
				<path class="st4" d="M74.2,10H67c-0.1,0-0.3-0.1-0.4-0.1l-5.7-5.7c-0.1-0.1-0.2-0.4-0.1-0.5s0.3-0.3,0.5-0.3h7.2
					c0.1,0,0.3,0.1,0.4,0.1l5.7,5.7c0.1,0.1,0.2,0.4,0.1,0.5S74.4,10,74.2,10z M67.2,9H73l-4.7-4.7h-5.8L67.2,9z"/>
			</g>
			<g>
				<polygon class="st4" points="61.2,3.7 67,9.5 74.2,9.5 68.5,3.7 				"/>
			</g>
		</g>
		<g>
			<path class="st4" d="M74.2,76.8H67c-0.3,0-0.5-0.2-0.5-0.5V9.5C66.5,9.2,66.7,9,67,9h7.2c0.3,0,0.5,0.2,0.5,0.5v66.8
				C74.7,76.6,74.5,76.8,74.2,76.8z M67.5,75.8h6.2V10h-6.2V75.8z"/>
		</g>
		<g>
			<rect x="67" y="9.5" class="st4" width="7.2" height="66.8"/>
		</g>
		<g>
			<g>
				<path class="st4" d="M22.6,76.8h-7.2c-0.2,0-0.4-0.1-0.5-0.3s0-0.4,0.1-0.5l5.7-5.7c0.1-0.1,0.2-0.1,0.4-0.1h7.2
					c0.2,0,0.4,0.1,0.5,0.3s0,0.4-0.1,0.5L23,76.6C22.9,76.7,22.8,76.8,22.6,76.8z M16.6,75.8h5.8l4.7-4.7h-5.8L16.6,75.8z"/>
			</g>
			<g>
				<polygon class="st4" points="28.4,70.5 22.6,76.3 15.4,76.3 21.1,70.5 				"/>
			</g>
		</g>
		<g>
			<polygon class="st4" points="32.5,55.2 40.3,55.2 40.3,62.1 47.3,62.1 47.3,48.2 39.4,48.2 39.4,42.3 32.5,42.3 			"/>
		</g>
		<g>
			<polygon class="st1" points="25.5,55.2 33.4,55.2 33.4,62.1 40.3,62.1 40.3,48.2 32.5,48.2 32.5,41.3 25.5,41.3 			"/>
		</g>
		<g>
			<polygon class="st1" points="36.9,42.3 30.9,42.3 30.9,41.3 35.9,41.3 35.9,29.6 36.9,29.6 			"/>
		</g>
		<g>
			<rect x="34.2" y="26" class="st1" width="4.4" height="4.4"/>
		</g>
		<g>
			<path d="M59.5,23.3H13.3c-0.3,0-0.5-0.2-0.5-0.5v-5.8c0-0.3,0.2-0.5,0.5-0.5h46.3c0.3,0,0.5,0.2,0.5,0.5v5.8
				C60,23.1,59.8,23.3,59.5,23.3z M13.8,22.3H59v-4.8H13.8V22.3z"/>
		</g>
		<g>
			<rect x="30.7" y="14.7" width="11.3" height="11.3"/>
		</g>
		<g>
			<path d="M67,76.8h-9.6c-0.1,0-0.3-0.1-0.4-0.1L51.5,71H21.3l-5.6,5.6c-0.1,0.1-0.2,0.1-0.4,0.1H5.8c-0.3,0-0.5-0.2-0.5-0.5V9.5
				c0-0.1,0.1-0.3,0.1-0.4l5.7-5.7c0.1-0.1,0.2-0.1,0.4-0.1h49.7c0.1,0,0.3,0.1,0.4,0.1l5.7,5.7c0.1,0.1,0.1,0.2,0.1,0.4v66.8
				C67.5,76.6,67.2,76.8,67,76.8z M57.6,75.8h8.9V9.7L61,4.2H11.7L6.3,9.7v66.1h8.9l5.6-5.6c0.1-0.1,0.2-0.1,0.4-0.1h30.5
				c0.1,0,0.3,0.1,0.4,0.1L57.6,75.8z M59.5,63.2H13.3c-0.3,0-0.5-0.2-0.5-0.5V11.3c0-0.3,0.2-0.5,0.5-0.5h46.3
				c0.3,0,0.5,0.2,0.5,0.5v51.4C60,63,59.8,63.2,59.5,63.2z M13.8,62.2H59V11.8H13.8V62.2z"/>
		</g>
	</g>
</g>
</svg>
