<?xml version="1.0" encoding="utf-8"?>
<!-- Generator: Adobe Illustrator 22.0.1, SVG Export Plug-In . SVG Version: 6.00 Build 0)  -->
<svg version="1.1" xmlns="http://www.w3.org/2000/svg" xmlns:xlink="http://www.w3.org/1999/xlink" x="0px" y="0px"
	 viewBox="0 0 80 80" style="enable-background:new 0 0 80 80;" xml:space="preserve">
<style type="text/css">
	.st0{fill:#F7F7F7;}
	.st1{fill:#FC7769;}
	.st2{fill:#FFFFFF;}
	.st3{fill:#27C79D;}
	.st4{fill:#27B1F1;}
	.st5{fill:none;stroke:#27C79D;stroke-linecap:round;stroke-linejoin:round;stroke-miterlimit:10;}
	.st6{fill:none;stroke:#FFFFFF;stroke-linecap:round;stroke-linejoin:round;stroke-miterlimit:10;}
	.st7{fill:none;stroke:#000000;stroke-linecap:round;stroke-linejoin:round;stroke-miterlimit:10;}
	.st8{fill:none;stroke:#27B1F1;stroke-linecap:round;stroke-linejoin:round;stroke-miterlimit:10;}
	.st9{fill:none;stroke:#FFFFFF;stroke-miterlimit:10;}
	.st10{fill:#6BD1FF;}
	.st11{clip-path:url(#SVGID_2_);}
	.st12{clip-path:url(#SVGID_4_);}
	.st13{clip-path:url(#SVGID_6_);}
	.st14{fill:#C9C9C9;}
	.st15{fill:#D14D3F;}
	.st16{fill:#1F8CBF;}
	.st17{fill:none;}
	.st18{fill:none;stroke:#FC7769;stroke-miterlimit:10;}
	.st19{clip-path:url(#SVGID_8_);}
	.st20{fill:none;stroke:#FC7769;stroke-width:7;stroke-linecap:round;stroke-linejoin:round;stroke-miterlimit:10;}
</style>
<g id="Layer_1">
</g>
<g id="Layer_2">
	<g>
		<g>
			<path class="st2" d="M75.8,62.3v-0.9c0-7.6-6.1-13.7-13.7-13.7H27.8c-7.6,0-13.7,6.1-13.7,13.7v0.9c0,7.6,6.1,13.7,13.7,13.7
				h34.4C69.7,76,75.8,69.8,75.8,62.3z"/>
		</g>
		<g>
			<path d="M62.2,76.5H27.8c-7.8,0-14.2-6.4-14.2-14.2v-0.9c0-7.8,6.4-14.2,14.2-14.2h34.4c7.8,0,14.2,6.4,14.2,14.2v0.9
				C76.3,70.1,70,76.5,62.2,76.5z M27.8,48.2c-7.3,0-13.2,5.9-13.2,13.2v0.9c0,7.3,5.9,13.2,13.2,13.2h34.4
				c7.3,0,13.2-5.9,13.2-13.2v-0.9c0-7.3-5.9-13.2-13.2-13.2H27.8z"/>
		</g>
		<g>
			<circle cx="15" cy="46.6" r="10.8"/>
		</g>
		<g>
			<circle class="st1" cx="15" cy="46.6" r="6.3"/>
		</g>
		<g>
			<path class="st1" d="M42,50.1c-1.9,0-3.5-1.6-3.5-3.5V25c0-5.5-4.5-10-10-10s-10,4.5-10,10v21.6c0,1.9-1.6,3.5-3.5,3.5
				s-3.5-1.6-3.5-3.5V25c0-9.4,7.6-17,17-17s17,7.6,17,17v21.6C45.5,48.5,43.9,50.1,42,50.1z"/>
		</g>
		<g>
			<circle cx="42" cy="46.6" r="10.8"/>
		</g>
		<g>
			<path class="st1" d="M42,53.4c-3.7,0-6.8-3-6.8-6.8s3-6.8,6.8-6.8s6.8,3,6.8,6.8S45.7,53.4,42,53.4z M42,40.8
				c-3.2,0-5.8,2.6-5.8,5.8s2.6,5.8,5.8,5.8s5.8-2.6,5.8-5.8S45.2,40.8,42,40.8z"/>
		</g>
		<g>
			<rect x="11.5" y="25.9" width="7" height="2.2"/>
		</g>
		<g>
			<rect x="38.5" y="25.9" width="7" height="2.2"/>
		</g>
		<g>
			<path d="M61.7,72.3c-6,0-10.8-4.7-10.8-10.5s4.9-10.5,10.8-10.5c6,0,10.8,4.7,10.8,10.5S67.7,72.3,61.7,72.3z M61.7,52.4
				c-5.4,0-9.8,4.3-9.8,9.5s4.4,9.5,9.8,9.5s9.8-4.3,9.8-9.5S67.1,52.4,61.7,52.4z"/>
		</g>
		<g>
			<path class="st4" d="M61.7,4c-2.2,0-4.2,0.6-5.9,1.7c-4,2.5-5.8,7.5-4.7,12.1l10.6,44.1l10.6-44.1c1.1-4.6-0.7-9.6-4.7-12.1
				C65.9,4.6,63.9,4,61.7,4z"/>
		</g>
		<g>
			<path class="st2" d="M65.9,17.7C65.9,17.7,65.9,17.7,65.9,17.7C65.9,17.6,65.9,17.6,65.9,17.7V10c0-0.2-0.1-0.4-0.3-0.6
				c-0.2-0.1-0.4-0.1-0.6-0.1l-5.5,2.3C59.2,11.8,59,12,59,12.3v5.9c-0.2-0.1-0.5-0.1-0.7-0.1c-1.1,0-2.1,0.9-2.1,2.1
				s0.9,2.1,2.1,2.1c1.1,0,2-0.9,2.1-2c0,0,0,0,0-0.1v-7.4l4.2-1.8v4.7c-0.2-0.1-0.5-0.1-0.7-0.1c-1.1,0-2.1,0.9-2.1,2.1
				s0.9,2.1,2.1,2.1c1.1,0,2-0.9,2.1-1.9C65.9,17.8,65.9,17.8,65.9,17.7L65.9,17.7z"/>
		</g>
		<g>
			<path class="st4" d="M31.7,64.2c-0.1,0-0.2,0-0.3-0.1c-1.6-1.4-4.1-1.4-5.7,0c-0.2,0.2-0.5,0.2-0.7-0.1c-0.2-0.2-0.2-0.5,0.1-0.7
				c2-1.7,5.1-1.7,7.1,0c0.2,0.2,0.2,0.5,0.1,0.7C31.9,64.2,31.8,64.2,31.7,64.2z"/>
		</g>
		<g>
			<circle class="st4" cx="28.5" cy="67.1" r="1.7"/>
		</g>
		<g>
			<path class="st4" d="M23.3,62c-0.1,0-0.3-0.1-0.4-0.2c-0.2-0.2-0.2-0.5,0.1-0.7c1.5-1.3,3.5-2,5.5-2c2,0,4,0.7,5.5,2
				c0.2,0.2,0.2,0.5,0.1,0.7c-0.2,0.2-0.5,0.2-0.7,0.1C32,60.7,30.3,60,28.5,60c-1.8,0-3.5,0.6-4.8,1.8C23.6,61.9,23.4,62,23.3,62z"
				/>
		</g>
		<g>
			<path class="st4" d="M21.3,59.7c-0.1,0-0.3-0.1-0.4-0.2c-0.2-0.2-0.2-0.5,0-0.7c2.1-1.8,4.8-2.8,7.5-2.8c2.7,0,5.3,1,7.4,2.7
				c0.2,0.2,0.2,0.5,0.1,0.7c-0.2,0.2-0.5,0.2-0.7,0.1C33.4,57.9,31,57,28.6,57c-2.5,0-5,0.9-6.9,2.6C21.6,59.7,21.5,59.7,21.3,59.7
				z"/>
		</g>
	</g>
</g>
</svg>
