<?xml version="1.0" encoding="utf-8"?>
<!-- Generator: Adobe Illustrator 22.0.1, SVG Export Plug-In . SVG Version: 6.00 Build 0)  -->
<svg version="1.1" xmlns="http://www.w3.org/2000/svg" xmlns:xlink="http://www.w3.org/1999/xlink" x="0px" y="0px"
	 viewBox="0 0 80 80" style="enable-background:new 0 0 80 80;" xml:space="preserve">
<style type="text/css">
	.st0{fill:#F7F7F7;}
	.st1{fill:#FC7769;}
	.st2{fill:#FFFFFF;}
	.st3{fill:#27C79D;}
	.st4{fill:#27B1F1;}
	.st5{fill:none;stroke:#27C79D;stroke-linecap:round;stroke-linejoin:round;stroke-miterlimit:10;}
	.st6{fill:none;stroke:#FFFFFF;stroke-linecap:round;stroke-linejoin:round;stroke-miterlimit:10;}
	.st7{fill:none;stroke:#000000;stroke-linecap:round;stroke-linejoin:round;stroke-miterlimit:10;}
	.st8{fill:none;stroke:#27B1F1;stroke-linecap:round;stroke-linejoin:round;stroke-miterlimit:10;}
	.st9{fill:none;stroke:#FFFFFF;stroke-miterlimit:10;}
	.st10{fill:#6BD1FF;}
	.st11{clip-path:url(#SVGID_2_);}
	.st12{clip-path:url(#SVGID_4_);}
	.st13{clip-path:url(#SVGID_6_);}
	.st14{fill:#C9C9C9;}
	.st15{fill:#D14D3F;}
	.st16{fill:#1F8CBF;}
	.st17{fill:none;}
	.st18{fill:none;stroke:#FC7769;stroke-miterlimit:10;}
	.st19{clip-path:url(#SVGID_8_);}
	.st20{fill:none;stroke:#FC7769;stroke-width:7;stroke-linecap:round;stroke-linejoin:round;stroke-miterlimit:10;}
</style>
<g id="Layer_1">
</g>
<g id="Layer_2">
	<g>
		<g>
			<rect x="33.4" y="55" class="st2" width="12" height="16.6"/>
		</g>
		<g>
			<path d="M53.1,55.5H26.9c-0.3,0-0.5-0.2-0.5-0.5s0.2-0.5,0.5-0.5h26.2c0.3,0,0.5,0.2,0.5,0.5S53.4,55.5,53.1,55.5z"/>
		</g>
		<g>
			<path d="M53.1,72.1H26.9c-0.3,0-0.5-0.2-0.5-0.5s0.2-0.5,0.5-0.5h26.2c0.3,0,0.5,0.2,0.5,0.5S53.4,72.1,53.1,72.1z"/>
		</g>
		<g>
			<rect x="37.6" y="8.4" width="27.2" height="7"/>
		</g>
		<g>
			<path class="st4" d="M61.7,52.4H18.3c-3.1,0-5.6-2.5-5.6-5.6V16.9c0-3.1,2.5-5.6,5.6-5.6h43.4c3.1,0,5.6,2.5,5.6,5.6v29.9
				C67.3,49.9,64.8,52.4,61.7,52.4z"/>
		</g>
		<g>
			<path d="M60.9,36.5H41.5c-2.4,0-4.4-2-4.4-4.4V17.5c0-2.4,2-4.4,4.4-4.4h19.4c2.4,0,4.4,2,4.4,4.4v14.5
				C65.3,34.5,63.3,36.5,60.9,36.5z M41.5,14.1c-1.9,0-3.4,1.5-3.4,3.4v14.5c0,1.9,1.5,3.4,3.4,3.4h19.4c1.9,0,3.4-1.5,3.4-3.4V17.5
				c0-1.9-1.5-3.4-3.4-3.4H41.5z"/>
		</g>
		<g>
			<circle cx="51.2" cy="24.8" r="7.4"/>
		</g>
		<g>
			<rect x="18.1" y="22.1" class="st2" width="13.8" height="13.8"/>
		</g>
		<g>
			<circle class="st1" cx="51.2" cy="24.8" r="1.9"/>
		</g>
		<g>
			<path d="M13.6,69.2l-8.1,1.5V55.9l8.1,1.5c2.1,0.4,3.5,2.2,3.5,4.2v3.3C17.2,67,15.7,68.8,13.6,69.2z"/>
		</g>
		<g>
			<path class="st4" d="M6,58.8c-0.1,0-0.3,0-0.4,0v8.8c0.1,0,0.3,0,0.4,0c2.5,0,4.5-2,4.5-4.5C10.4,60.8,8.4,58.8,6,58.8z"/>
		</g>
		<g>
			<path d="M45.4,72.1h-12c-0.3,0-0.5-0.2-0.5-0.5V55c0-0.3,0.2-0.5,0.5-0.5s0.5,0.2,0.5,0.5v16.1h11V55c0-0.3,0.2-0.5,0.5-0.5
				s0.5,0.2,0.5,0.5v16.6C45.9,71.9,45.7,72.1,45.4,72.1z"/>
		</g>
		<g>
			<path d="M39.4,72.1c-0.3,0-0.5-0.2-0.5-0.5V55c0-0.3,0.2-0.5,0.5-0.5s0.5,0.2,0.5,0.5v16.6C39.9,71.9,39.7,72.1,39.4,72.1z"/>
		</g>
		<g>
			<rect x="45.4" y="60.7" width="3.9" height="5.2"/>
		</g>
		<g>
			<rect x="15.7" y="60.7" width="17.5" height="5.2"/>
		</g>
	</g>
</g>
</svg>
