<?xml version="1.0" encoding="utf-8"?>
<!-- Generator: Adobe Illustrator 22.0.1, SVG Export Plug-In . SVG Version: 6.00 Build 0)  -->
<svg version="1.1" xmlns="http://www.w3.org/2000/svg" xmlns:xlink="http://www.w3.org/1999/xlink" x="0px" y="0px"
	 viewBox="0 0 80 80" style="enable-background:new 0 0 80 80;" xml:space="preserve">
<style type="text/css">
	.st0{fill:#F7F7F7;}
	.st1{fill:#FC7769;}
	.st2{fill:#FFFFFF;}
	.st3{fill:#27C79D;}
	.st4{fill:#27B1F1;}
	.st5{fill:none;stroke:#27C79D;stroke-linecap:round;stroke-linejoin:round;stroke-miterlimit:10;}
	.st6{fill:none;stroke:#FFFFFF;stroke-linecap:round;stroke-linejoin:round;stroke-miterlimit:10;}
	.st7{fill:none;stroke:#000000;stroke-linecap:round;stroke-linejoin:round;stroke-miterlimit:10;}
	.st8{fill:none;stroke:#27B1F1;stroke-linecap:round;stroke-linejoin:round;stroke-miterlimit:10;}
	.st9{fill:none;stroke:#FFFFFF;stroke-miterlimit:10;}
	.st10{fill:#6BD1FF;}
	.st11{clip-path:url(#SVGID_2_);}
	.st12{clip-path:url(#SVGID_4_);}
	.st13{clip-path:url(#SVGID_6_);}
	.st14{fill:#C9C9C9;}
	.st15{fill:#D14D3F;}
	.st16{fill:#1F8CBF;}
	.st17{fill:none;}
	.st18{fill:none;stroke:#FC7769;stroke-miterlimit:10;}
	.st19{clip-path:url(#SVGID_8_);}
	.st20{fill:none;stroke:#FC7769;stroke-width:7;stroke-linecap:round;stroke-linejoin:round;stroke-miterlimit:10;}
</style>
<g id="Layer_1">
</g>
<g id="Layer_2">
	<g>
		<g>
			<rect x="51" y="15.7" class="st1" width="6.9" height="28.6"/>
		</g>
		<g>
			<polygon class="st3" points="46.7,21.4 39.8,21.4 39.8,28.3 32.1,28.3 32.1,42.1 39,42.1 39,35.2 46.7,35.2 			"/>
		</g>
		<g>
			<rect x="14.7" y="39.4" class="st2" width="36.5" height="36.5"/>
		</g>
		<g>
			<polygon class="st1" points="21.2,18.7 35.9,18.7 35.9,11.9 28.1,11.9 28.1,4.1 21.2,4.1 			"/>
		</g>
		<path class="st4" d="M29.1,39L20,29.9c-0.1-0.1-0.2-0.1-0.4-0.1H5.8c-0.2,0-0.4,0.1-0.5,0.3s0,0.4,0.1,0.5l9,9
			c0.1,0.1,0.2,0.1,0.3,0.1l14,0.1c0,0,0,0,0,0c0.2,0,0.4-0.1,0.5-0.3C29.3,39.4,29.2,39.2,29.1,39z"/>
		<path class="st4" d="M65.4,38.9H51.3c-0.3,0-0.5,0.2-0.5,0.5v36.5c0,0.3,0.2,0.5,0.5,0.5h14.1c0.3,0,0.5-0.2,0.5-0.5V39.4
			C65.9,39.1,65.7,38.9,65.4,38.9z"/>
		<g>
			<path d="M51.3,76.4H14.7c-0.3,0-0.5-0.2-0.5-0.5V39.4c0-0.3,0.2-0.5,0.5-0.5h36.5c0.3,0,0.5,0.2,0.5,0.5v36.5
				C51.8,76.2,51.6,76.4,51.3,76.4z M15.2,75.4h35.5V39.9H15.2V75.4z"/>
		</g>
		<g>
			<g>
				<rect x="19.9" y="44.7" class="st2" width="25.3" height="25.3"/>
			</g>
			<g>
				
					<rect x="24.9" y="61.5" transform="matrix(-1.836970e-16 1 -1 -1.836970e-16 93.1666 39.9737)" class="st1" width="3.4" height="10.1"/>
			</g>
			<g>
				<polygon class="st3" points="28.3,46.3 28.3,53.1 24.9,53.1 24.9,46.3 21.5,46.3 21.5,56.5 28.3,56.5 28.3,63.2 31.7,63.2 
					31.7,46.3 				"/>
			</g>
			<g>
				<g>
					<path class="st4" d="M33.3,51.4v16.9h3.4v-6.7h6.7V51.4H33.3z M40,58.1h-3.4v-3.4H40V58.1z"/>
				</g>
				<g>
					<rect x="33.3" y="46.3" class="st1" width="10.1" height="3.4"/>
				</g>
				<g>
					<rect x="38.4" y="63.2" class="st3" width="5.1" height="5.1"/>
				</g>
			</g>
			<g>
				<rect x="21.5" y="58.1" class="st4" width="5.1" height="5.1"/>
			</g>
		</g>
		<g>
			<polygon points="51.3,39.4 60.4,30.2 74.2,30.2 65.3,39.2 			"/>
		</g>
		<g>
			<path d="M51.3,39.9c-0.2,0-0.4-0.1-0.5-0.3c-0.1-0.2,0-0.4,0.1-0.5l9.1-9.1c0.1-0.1,0.2-0.1,0.4-0.1h13.8c0.2,0,0.4,0.1,0.5,0.3
				s0,0.4-0.1,0.5l-9,9c-0.1,0.1-0.2,0.1-0.3,0.1L51.3,39.9C51.3,39.9,51.3,39.9,51.3,39.9z M60.6,30.8l-8.1,8.1l12.6-0.1l8-8H60.6z
				"/>
		</g>
	</g>
</g>
</svg>
