<?xml version="1.0" encoding="utf-8"?>
<!-- Generator: Adobe Illustrator 22.0.1, SVG Export Plug-In . SVG Version: 6.00 Build 0)  -->
<svg version="1.1" xmlns="http://www.w3.org/2000/svg" xmlns:xlink="http://www.w3.org/1999/xlink" x="0px" y="0px"
	 viewBox="0 0 80 80" style="enable-background:new 0 0 80 80;" xml:space="preserve">
<style type="text/css">
	.st0{fill:#F7F7F7;}
	.st1{fill:#FC7769;}
	.st2{fill:#FFFFFF;}
	.st3{fill:#27C79D;}
	.st4{fill:#27B1F1;}
	.st5{fill:none;stroke:#27C79D;stroke-linecap:round;stroke-linejoin:round;stroke-miterlimit:10;}
	.st6{fill:none;stroke:#FFFFFF;stroke-linecap:round;stroke-linejoin:round;stroke-miterlimit:10;}
	.st7{fill:none;stroke:#000000;stroke-linecap:round;stroke-linejoin:round;stroke-miterlimit:10;}
	.st8{fill:none;stroke:#27B1F1;stroke-linecap:round;stroke-linejoin:round;stroke-miterlimit:10;}
	.st9{fill:none;stroke:#FFFFFF;stroke-miterlimit:10;}
	.st10{fill:#6BD1FF;}
	.st11{clip-path:url(#SVGID_2_);}
	.st12{clip-path:url(#SVGID_4_);}
	.st13{clip-path:url(#SVGID_6_);}
	.st14{fill:#C9C9C9;}
	.st15{fill:#D14D3F;}
	.st16{fill:#1F8CBF;}
	.st17{fill:none;}
	.st18{fill:none;stroke:#FC7769;stroke-miterlimit:10;}
	.st19{clip-path:url(#SVGID_8_);}
	.st20{fill:none;stroke:#FC7769;stroke-width:7;stroke-linecap:round;stroke-linejoin:round;stroke-miterlimit:10;}
</style>
<g id="Layer_1">
</g>
<g id="Layer_2">
	<g>
		<g>
			<g>
				<polygon class="st2" points="44.6,58.7 29.6,58.7 31.6,43 42.6,43 				"/>
			</g>
			<g>
				<path d="M44.6,59.2h-15c-0.1,0-0.3-0.1-0.4-0.2c-0.1-0.1-0.1-0.3-0.1-0.4l2-15.7c0-0.2,0.2-0.4,0.5-0.4h11.1
					c0.3,0,0.5,0.2,0.5,0.4l2,15.7c0,0.1,0,0.3-0.1,0.4S44.8,59.2,44.6,59.2z M30.2,58.2H44l-1.8-14.7H32L30.2,58.2z"/>
			</g>
			<g>
				<g>
					<path class="st2" d="M68.4,40.7H5.8V6.2c0-1.6,1.3-2.9,2.9-2.9h57c1.6,0,2.9,1.3,2.9,2.9V40.7z"/>
				</g>
				<g>
					<path class="st4" d="M68.4,40.7H5.8v4.7c0,1.6,1.3,2.9,2.9,2.9h57c1.6,0,2.9-1.3,2.9-2.9V40.7z"/>
				</g>
				<g>
					<path d="M65.6,5.3c0.5,0,0.9,0.4,0.9,0.9v32.5H7.8V6.2c0-0.5,0.4-0.9,0.9-0.9H65.6 M65.6,3.3h-57C7,3.3,5.8,4.6,5.8,6.2v34.5
						h62.7V6.2C68.4,4.6,67.2,3.3,65.6,3.3L65.6,3.3z"/>
				</g>
			</g>
			<g>
				<path d="M49,59.2H25.2c-0.3,0-0.5-0.2-0.5-0.5s0.2-0.5,0.5-0.5H49c0.3,0,0.5,0.2,0.5,0.5S49.3,59.2,49,59.2z"/>
			</g>
			<g>
				<rect x="23.7" y="8.6" class="st2" width="26.8" height="26.8"/>
			</g>
			<g>
				
					<rect x="29" y="26.4" transform="matrix(-1.836970e-16 1 -1 -1.836970e-16 62.5898 0.9422)" class="st1" width="3.6" height="10.7"/>
			</g>
			<g>
				<polygon class="st3" points="32.6,10.4 32.6,17.5 29,17.5 29,10.4 25.5,10.4 25.5,21.1 32.6,21.1 32.6,28.2 36.2,28.2 
					36.2,10.4 				"/>
			</g>
			<g>
				<g>
					<path class="st4" d="M37.9,15.7v17.8h3.6v-7.1h7.1V15.7H37.9z M45,22.8h-3.6v-3.6H45V22.8z"/>
				</g>
				<g>
					<rect x="37.9" y="10.4" class="st1" width="10.7" height="3.6"/>
				</g>
				<g>
					<rect x="43.3" y="28.2" class="st3" width="5.3" height="5.3"/>
				</g>
			</g>
			<g>
				<rect x="25.5" y="22.9" class="st4" width="5.3" height="5.3"/>
			</g>
		</g>
		<g>
			<g>
				<path d="M68.8,72.1H53.4c-2.7,0-4.9-2.2-4.9-4.9V40.3c0-2.7,2.2-4.9,4.9-4.9h15.4c2.7,0,4.9,2.2,4.9,4.9v26.9
					C73.8,69.9,71.5,72.1,68.8,72.1z"/>
			</g>
			<g>
				<path class="st4" d="M63.4,68.1h-4.7c-1.6,0-2.9-1.3-2.9-2.9V48.5c0-1.6,1.3-2.9,2.9-2.9h4.7c1.6,0,2.9,1.3,2.9,2.9v16.8
					C66.3,66.8,65,68.1,63.4,68.1z M58.7,46.6c-1,0-1.9,0.8-1.9,1.9v16.8c0,1,0.8,1.9,1.9,1.9h4.7c1,0,1.9-0.8,1.9-1.9V48.5
					c0-1-0.8-1.9-1.9-1.9H58.7z"/>
			</g>
			<g>
				<circle class="st4" cx="61.1" cy="40.7" r="2.1"/>
			</g>
		</g>
		<g>
			<path class="st4" d="M19.8,61.4c0-0.1,0-0.2,0-0.3h0c0-2-0.1-4-0.2-5.5c-0.1-1.7-1.4-3-3.2-3.3c-1-0.1-1.4-0.1-1.4-0.1
				s-0.4,0-1.4,0.1c-1.8,0.3-3.1,1.6-3.2,3.3c-0.1,1.5-0.1,3.5-0.2,5.5h0c0,0.1,0,0.2,0,0.3c0,0.1,0,0.2,0,0.3h0c0,2,0.1,4,0.2,5.5
				c0.1,1.7,1.4,3,3.2,3.3c1,0.1,1.4,0.1,1.4,0.1s0.4,0,1.4-0.1c1.8-0.3,3.1-1.6,3.2-3.3c0.1-1.5,0.1-3.5,0.2-5.5h0
				C19.8,61.6,19.8,61.5,19.8,61.4z"/>
		</g>
	</g>
</g>
</svg>
