<?xml version="1.0" encoding="utf-8"?>
<!-- Generator: Adobe Illustrator 22.0.1, SVG Export Plug-In . SVG Version: 6.00 Build 0)  -->
<svg version="1.1" xmlns="http://www.w3.org/2000/svg" xmlns:xlink="http://www.w3.org/1999/xlink" x="0px" y="0px"
	 viewBox="0 0 80 80" style="enable-background:new 0 0 80 80;" xml:space="preserve">
<style type="text/css">
	.st0{fill:#F7F7F7;}
	.st1{fill:#FC7769;}
	.st2{fill:#FFFFFF;}
	.st3{fill:#27C79D;}
	.st4{fill:#27B1F1;}
	.st5{fill:none;stroke:#27C79D;stroke-linecap:round;stroke-linejoin:round;stroke-miterlimit:10;}
	.st6{fill:none;stroke:#FFFFFF;stroke-linecap:round;stroke-linejoin:round;stroke-miterlimit:10;}
	.st7{fill:none;stroke:#000000;stroke-linecap:round;stroke-linejoin:round;stroke-miterlimit:10;}
	.st8{fill:none;stroke:#27B1F1;stroke-linecap:round;stroke-linejoin:round;stroke-miterlimit:10;}
	.st9{fill:none;stroke:#FFFFFF;stroke-miterlimit:10;}
	.st10{fill:#6BD1FF;}
	.st11{clip-path:url(#SVGID_2_);}
	.st12{clip-path:url(#SVGID_4_);}
	.st13{clip-path:url(#SVGID_6_);}
	.st14{fill:#C9C9C9;}
	.st15{fill:#D14D3F;}
	.st16{fill:#1F8CBF;}
	.st17{fill:none;}
	.st18{fill:none;stroke:#FC7769;stroke-miterlimit:10;}
	.st19{clip-path:url(#SVGID_8_);}
	.st20{fill:none;stroke:#FC7769;stroke-width:7;stroke-linecap:round;stroke-linejoin:round;stroke-miterlimit:10;}
</style>
<g id="Layer_1">
</g>
<g id="Layer_2">
	<g>
		<g>
			<path class="st2" d="M74.3,45.8L74.3,45.8c-0.5-0.5-1.3-0.5-1.8-0.1L63,53.4c-0.9,0.8-1.6,1.8-1.9,2.9l-0.4,1.6
				c-0.1,0.4,0,0.8,0.3,1.1h0c0.3,0.3,0.7,0.4,1.1,0.3l1.6-0.4c1.2-0.3,2.2-1,2.9-1.9l7.8-9.4C74.8,47,74.7,46.2,74.3,45.8z"/>
		</g>
		<g>
			<path class="st2" d="M45.6,74.4L45.6,74.4c0.5,0.5,1.3,0.5,1.8,0.1l9.4-7.8c0.9-0.8,1.6-1.8,1.9-2.9l0.4-1.6
				c0.1-0.4,0-0.8-0.3-1.1l0,0c-0.3-0.3-0.7-0.4-1.1-0.3l-1.6,0.4c-1.2,0.3-2.2,1-2.9,1.9l-7.8,9.4C45.1,73.1,45.2,73.9,45.6,74.4z"
				/>
		</g>
	</g>
	<g>
		<g>
			<path class="st2" d="M34.2,5.7L34.2,5.7c-0.5-0.5-1.3-0.5-1.8-0.1L23,13.4c-0.9,0.8-1.6,1.8-1.9,2.9l-0.4,1.6
				c-0.1,0.4,0,0.8,0.3,1.1l0,0c0.3,0.3,0.7,0.4,1.1,0.3l1.6-0.4c1.2-0.3,2.2-1,2.9-1.9l7.8-9.4C34.8,7,34.7,6.2,34.2,5.7z"/>
		</g>
		<g>
			<path class="st2" d="M5.6,34.3L5.6,34.3c0.5,0.5,1.3,0.5,1.8,0.1l9.4-7.8c0.9-0.8,1.6-1.8,1.9-2.9l0.4-1.6c0.1-0.4,0-0.8-0.3-1.1
				l0,0c-0.3-0.3-0.7-0.4-1.1-0.3l-1.6,0.4c-1.2,0.3-2.2,1-2.9,1.9l-7.8,9.4C5.1,33.1,5.1,33.9,5.6,34.3z"/>
		</g>
	</g>
	<g>
		<g>
			<path class="st2" d="M74.2,34.2L74.2,34.2c0.5-0.5,0.5-1.3,0.1-1.8L66.6,23c-0.8-0.9-1.8-1.6-2.9-1.9l-1.6-0.4
				c-0.4-0.1-0.8,0-1.1,0.3l0,0c-0.3,0.3-0.4,0.7-0.3,1.1l0.4,1.6c0.3,1.2,1,2.2,1.9,2.9l9.4,7.8C73,34.8,73.8,34.7,74.2,34.2z"/>
		</g>
		<g>
			<path class="st2" d="M45.6,5.6L45.6,5.6c-0.5,0.5-0.5,1.3-0.1,1.8l7.8,9.4c0.8,0.9,1.8,1.6,2.9,1.9l1.6,0.4
				c0.4,0.1,0.8,0,1.1-0.3l0,0c0.3-0.3,0.4-0.7,0.3-1.1l-0.4-1.6c-0.3-1.2-1-2.2-1.9-2.9l-9.4-7.8C46.9,5.1,46.1,5.1,45.6,5.6z"/>
		</g>
	</g>
	<g>
		<g>
			<path class="st2" d="M34.1,74.4L34.1,74.4c0.5-0.5,0.5-1.3,0.1-1.8l-7.8-9.4c-0.8-0.9-1.8-1.6-2.9-1.9l-1.6-0.4
				c-0.4-0.1-0.8,0-1.1,0.3l0,0c-0.3,0.3-0.4,0.7-0.3,1.1l0.4,1.6c0.3,1.2,1,2.2,1.9,2.9l9.4,7.8C32.9,74.9,33.6,74.9,34.1,74.4z"/>
		</g>
		<g>
			<path class="st2" d="M5.5,45.8L5.5,45.8C5,46.2,5,47,5.4,47.6l7.8,9.4c0.8,0.9,1.8,1.6,2.9,1.9l1.6,0.4c0.4,0.1,0.8,0,1.1-0.3
				l0,0c0.3-0.3,0.4-0.7,0.3-1.1l-0.4-1.6c-0.3-1.2-1-2.2-1.9-2.9l-9.4-7.8C6.8,45.2,6,45.3,5.5,45.8z"/>
		</g>
	</g>
	<g>
		<rect x="52.2" y="27.1" width="2.4" height="25.2"/>
	</g>
	<g>
		<rect x="25.3" y="27.1" width="2.4" height="25.2"/>
	</g>
	<g>
		<path d="M43.8,55.5H36c-1.9,0-3.4-1.5-3.4-3.4v-8.6h14.5v8.6C47.1,54,45.6,55.5,43.8,55.5z"/>
	</g>
	<path class="st4" d="M59,55.6l-6.7-6.7c-4.9-4.9-4.9-12.9,0-17.8l6.6-6.6c1.5,0.3,3.1-0.1,4.3-1.2c1.8-1.8,1.8-4.7,0-6.5
		s-4.7-1.8-6.5,0c-1.1,1.1-1.5,2.6-1.3,4l-6.7,6.7c-4.9,4.9-12.9,4.9-17.8,0l-6.6-6.6c0.3-1.5-0.1-3-1.3-4.1c-1.8-1.8-4.7-1.8-6.5,0
		s-1.8,4.7,0,6.5c1.1,1.1,2.7,1.5,4.1,1.3l6.6,6.6c4.9,4.9,4.9,12.9,0,17.8l-6.7,6.7c-1.4-0.2-2.9,0.2-4,1.3c-1.8,1.8-1.8,4.7,0,6.5
		s4.7,1.8,6.5,0c1.2-1.2,1.6-2.8,1.2-4.3l6.6-6.6c4.9-4.9,12.9-4.9,17.8,0l6.7,6.7c-0.3,1.5,0.1,3,1.3,4.1c1.8,1.8,4.7,1.8,6.5,0
		s1.8-4.7,0-6.5C62.1,55.7,60.5,55.3,59,55.6z"/>
	<g>
		<circle class="st1" cx="39.9" cy="40" r="5.5"/>
	</g>
	<g>
		<path d="M74.6,45.4c-0.7-0.7-1.7-0.7-2.5-0.1L62.7,53c-1,0.8-1.7,1.9-2.1,3.2l-0.4,1.5c-0.7-0.1-1.4,0.1-2,0.7
			c-0.5,0.5-0.8,1.3-0.7,2l-1.5,0.4c-1.3,0.3-2.4,1.1-3.2,2.1l-7.8,9.4c-0.6,0.7-0.5,1.8,0.1,2.5c0.4,0.4,0.8,0.5,1.3,0.5
			c0.4,0,0.8-0.1,1.2-0.4l9.4-7.8c1-0.8,1.7-1.9,2.1-3.2l0.4-1.5c0.7,0.1,1.4-0.1,2-0.7c0.5-0.5,0.8-1.3,0.7-2l1.5-0.4
			c1.3-0.3,2.4-1.1,3.2-2.1l7.8-9.4C75.3,47.1,75.3,46.1,74.6,45.4z M58.3,63.6c-0.3,1.1-0.9,2-1.7,2.7l-9.4,7.8
			c-0.3,0.3-0.8,0.2-1.1-0.1c-0.3-0.3-0.3-0.8-0.1-1.1l7.8-9.4c0.7-0.8,1.6-1.4,2.7-1.7l1.5-0.4c0.1,0.2,0.2,0.3,0.4,0.5
			c0.1,0.1,0.3,0.3,0.5,0.4L58.3,63.6z M74,47.2l-7.8,9.4c-0.7,0.8-1.6,1.4-2.7,1.7L62,58.8c-0.1-0.2-0.2-0.3-0.3-0.4
			c-0.1-0.1-0.3-0.2-0.4-0.3l0.4-1.5c0.3-1.1,0.9-2,1.7-2.7l9.4-7.8c0.2-0.1,0.3-0.2,0.5-0.2c0.2,0,0.4,0.1,0.6,0.2
			C74.2,46.4,74.2,46.9,74,47.2z"/>
		<path d="M32.1,5.3L22.7,13c-1,0.8-1.7,1.9-2.1,3.2l-0.4,1.5c-0.7-0.1-1.4,0.1-2,0.7c-0.5,0.5-0.8,1.3-0.7,2l-1.5,0.4
			c-1.3,0.3-2.4,1.1-3.2,2.1l-7.8,9.4C4.6,33,4.6,34,5.3,34.7c0.4,0.4,0.8,0.5,1.3,0.5c0.4,0,0.8-0.1,1.2-0.4l9.4-7.8
			c1-0.8,1.7-1.9,2.1-3.2l0.4-1.5c0.7,0.1,1.4-0.1,2-0.7c0.5-0.5,0.8-1.3,0.7-2l1.5-0.4c1.3-0.3,2.4-1.1,3.2-2.1l7.8-9.4
			c0.6-0.7,0.5-1.8-0.1-2.5C33.9,4.7,32.9,4.7,32.1,5.3z M18.3,23.6c-0.3,1.1-0.9,2-1.7,2.7L7.1,34C6.8,34.3,6.3,34.3,6,34
			c-0.3-0.3-0.3-0.8-0.1-1.1l7.8-9.4c0.7-0.8,1.6-1.4,2.7-1.7l1.5-0.4c0.1,0.2,0.2,0.3,0.4,0.5c0.1,0.1,0.3,0.3,0.5,0.4L18.3,23.6z
			 M33.9,7.2l-7.8,9.4c-0.7,0.8-1.6,1.4-2.7,1.7L22,18.8c-0.1-0.2-0.2-0.3-0.3-0.4c-0.1-0.1-0.3-0.2-0.4-0.3l0.4-1.5
			c0.3-1.1,0.9-2,1.7-2.7L32.8,6c0.2-0.1,0.3-0.2,0.5-0.2c0.2,0,0.4,0.1,0.6,0.2C34.2,6.4,34.2,6.9,33.9,7.2z"/>
		<path d="M52.9,17.2c0.8,1,1.9,1.7,3.2,2.1l1.6,0.4c-0.1,0.7,0.1,1.5,0.7,2c0.5,0.5,1.2,0.7,1.9,0.7l0.4,1.4
			c0.3,1.3,1.1,2.4,2.1,3.2l9.4,7.8c0.3,0.3,0.8,0.4,1.2,0.4c0.5,0,0.9-0.2,1.3-0.5c0.7-0.7,0.7-1.7,0.1-2.5L67,22.7
			c-0.8-1-1.9-1.7-3.2-2.1l-1.4-0.4c0.1-0.7-0.2-1.4-0.7-1.9c-0.6-0.6-1.3-0.8-2-0.7l-0.4-1.6c-0.3-1.3-1.1-2.4-2.1-3.2l-9.4-7.8
			C47,4.6,46,4.6,45.3,5.3c-0.7,0.7-0.7,1.7-0.1,2.5L52.9,17.2z M63.5,21.6c1.1,0.3,2,0.9,2.7,1.7l7.8,9.4c0.3,0.3,0.2,0.8-0.1,1.1
			s-0.8,0.3-1.1,0.1l-9.4-7.8c-0.8-0.7-1.4-1.6-1.7-2.7l-0.4-1.4c0.2-0.1,0.4-0.2,0.5-0.4c0.2-0.2,0.3-0.3,0.4-0.5L63.5,21.6z M46,6
			c0.2-0.2,0.4-0.2,0.6-0.2c0.2,0,0.4,0.1,0.5,0.2l9.4,7.8c0.8,0.7,1.4,1.6,1.7,2.7l0.4,1.6c0,0,0,0.1,0,0.1
			c-0.1,0.1-0.3,0.2-0.4,0.3c-0.1,0.1-0.2,0.2-0.3,0.4c0,0-0.1,0-0.1,0l-1.6-0.4c-1.1-0.3-2-0.9-2.7-1.7l-7.8-9.4
			C45.7,6.8,45.7,6.3,46,6z"/>
		<path d="M26.8,62.8c-0.8-1-1.9-1.7-3.2-2.1l-1.4-0.4c0.1-0.7-0.2-1.4-0.7-1.9c-0.6-0.6-1.3-0.8-2-0.7l-0.4-1.6
			c-0.3-1.3-1.1-2.4-2.1-3.2l-9.4-7.8c-0.7-0.6-1.8-0.5-2.5,0.1c-0.7,0.7-0.7,1.7-0.1,2.5l7.8,9.4c0.8,1,1.9,1.7,3.2,2.1l1.6,0.4
			c-0.1,0.7,0.1,1.5,0.7,2c0.5,0.5,1.2,0.7,1.9,0.7l0.4,1.4c0.3,1.3,1.1,2.4,2.1,3.2l9.4,7.8c0.3,0.3,0.8,0.4,1.2,0.4
			c0.5,0,0.9-0.2,1.3-0.5c0.7-0.7,0.7-1.7,0.1-2.5L26.8,62.8z M17.8,58.8l-1.6-0.4c-1.1-0.3-2-0.9-2.7-1.7l-7.8-9.4
			c-0.3-0.3-0.2-0.8,0.1-1.1C6,46,6.2,45.9,6.4,45.9c0.2,0,0.4,0.1,0.5,0.2l9.4,7.8c0.8,0.7,1.4,1.6,1.7,2.7l0.4,1.6
			c0,0,0,0.1,0,0.1c-0.1,0.1-0.3,0.2-0.4,0.3S18,58.7,17.8,58.8C17.9,58.8,17.8,58.8,17.8,58.8z M33.8,74c-0.3,0.3-0.8,0.3-1.1,0.1
			l-9.4-7.8c-0.8-0.7-1.4-1.6-1.7-2.7l-0.4-1.4c0.2-0.1,0.4-0.2,0.5-0.4s0.3-0.3,0.4-0.5l1.4,0.4c1.1,0.3,2,0.9,2.7,1.7l7.8,9.4
			C34.1,73.2,34.1,73.7,33.8,74z"/>
	</g>
</g>
</svg>
