<?xml version="1.0" encoding="utf-8"?>
<!-- Generator: Adobe Illustrator 22.0.1, SVG Export Plug-In . SVG Version: 6.00 Build 0)  -->
<svg version="1.1" xmlns="http://www.w3.org/2000/svg" xmlns:xlink="http://www.w3.org/1999/xlink" x="0px" y="0px"
	 viewBox="0 0 80 80" style="enable-background:new 0 0 80 80;" xml:space="preserve">
<style type="text/css">
	.st0{fill:#F7F7F7;}
	.st1{fill:#FC7769;}
	.st2{fill:#FFFFFF;}
	.st3{fill:#27C79D;}
	.st4{fill:#27B1F1;}
	.st5{fill:none;stroke:#27C79D;stroke-linecap:round;stroke-linejoin:round;stroke-miterlimit:10;}
	.st6{fill:none;stroke:#FFFFFF;stroke-linecap:round;stroke-linejoin:round;stroke-miterlimit:10;}
	.st7{fill:none;stroke:#000000;stroke-linecap:round;stroke-linejoin:round;stroke-miterlimit:10;}
	.st8{fill:none;stroke:#27B1F1;stroke-linecap:round;stroke-linejoin:round;stroke-miterlimit:10;}
	.st9{fill:none;stroke:#FFFFFF;stroke-miterlimit:10;}
	.st10{fill:#6BD1FF;}
	.st11{clip-path:url(#SVGID_2_);}
	.st12{clip-path:url(#SVGID_4_);}
	.st13{clip-path:url(#SVGID_6_);}
	.st14{fill:#C9C9C9;}
	.st15{fill:#D14D3F;}
	.st16{fill:#1F8CBF;}
	.st17{fill:none;}
	.st18{fill:none;stroke:#FC7769;stroke-miterlimit:10;}
	.st19{clip-path:url(#SVGID_8_);}
	.st20{fill:none;stroke:#FC7769;stroke-width:7;stroke-linecap:round;stroke-linejoin:round;stroke-miterlimit:10;}
</style>
<g id="Layer_1">
</g>
<g id="Layer_2">
	<g>
		<g>
			<rect x="29.8" y="65.4" class="st2" width="20.5" height="10.8"/>
		</g>
		<g>
			<path d="M27.8,23.1c-0.3,0-0.5-0.2-0.5-0.5V6.9c0-0.3,0.2-0.5,0.5-0.5s0.5,0.2,0.5,0.5v15.7C28.3,22.9,28,23.1,27.8,23.1z"/>
		</g>
		<g>
			<rect x="32" y="59.9" width="16" height="5.2"/>
		</g>
		<g>
			<path d="M52.9,24.4c-0.3,0-0.5-0.2-0.5-0.5V10.7c0-0.3,0.2-0.5,0.5-0.5s0.5,0.2,0.5,0.5v13.2C53.4,24.1,53.1,24.4,52.9,24.4z"/>
		</g>
		<g>
			<polygon class="st3" points="48,61.4 32,61.4 24.5,53.9 24.5,34.5 55.5,34.5 55.5,53.9 			"/>
		</g>
		<g>
			<rect x="41.2" y="21.5" class="st4" width="6.5" height="11"/>
		</g>
		<g>
			<rect x="32.9" y="21.5" class="st4" width="6.5" height="11"/>
		</g>
		<g>
			<rect x="24.5" y="21.5" class="st4" width="6.5" height="11"/>
		</g>
		<g>
			<polygon class="st4" points="22.2,53.3 15.9,42.8 22.2,42.8 			"/>
		</g>
		<g>
			<rect x="50.2" y="23.6" class="st4" width="5.3" height="8.9"/>
		</g>
		<g>
			<rect x="50.7" y="15.9" class="st4" width="4.3" height="5.9"/>
		</g>
		<g>
			<rect x="25.1" y="11.9" class="st4" width="5.3" height="7.9"/>
		</g>
		<g>
			<path d="M52.9,38.1c-0.3,0-0.5-0.2-0.5-0.5v-8.8c0-0.3,0.2-0.5,0.5-0.5s0.5,0.2,0.5,0.5v8.8C53.4,37.9,53.1,38.1,52.9,38.1z"/>
		</g>
		<g>
			<path d="M44.5,38.1c-0.3,0-0.5-0.2-0.5-0.5v-10c0-0.3,0.2-0.5,0.5-0.5s0.5,0.2,0.5,0.5v10C45,37.9,44.8,38.1,44.5,38.1z"/>
		</g>
		<g>
			<path d="M27.8,38.1c-0.3,0-0.5-0.2-0.5-0.5v-10c0-0.3,0.2-0.5,0.5-0.5s0.5,0.2,0.5,0.5v10C28.3,37.9,28,38.1,27.8,38.1z"/>
		</g>
		<g>
			<path d="M36.1,38.1c-0.3,0-0.5-0.2-0.5-0.5v-10c0-0.3,0.2-0.5,0.5-0.5s0.5,0.2,0.5,0.5v10C36.6,37.9,36.4,38.1,36.1,38.1z"/>
		</g>
		<g>
			<path d="M27.9,3.7h-0.2c-1.1,0-2,0.9-2,2v6.1h4.3V5.8C29.9,4.6,29,3.7,27.9,3.7z"/>
		</g>
		<g>
			<path d="M53,9.7h-0.2c-0.9,0-1.7,0.8-1.7,1.7v4.5h3.5v-4.5C54.6,10.4,53.9,9.7,53,9.7z"/>
		</g>
		<g>
			<path d="M17.8,26.5L17.8,26.5c-1,0-1.9,0.8-1.9,1.9V41h6.3v-6.4l-2.7-6.8C19.2,27,18.5,26.5,17.8,26.5z"/>
		</g>
		<g>
			<path d="M50.3,76.8H29.8c-0.3,0-0.5-0.2-0.5-0.5V65.4c0-0.3,0.2-0.5,0.5-0.5h20.5c0.3,0,0.5,0.2,0.5,0.5v10.8
				C50.8,76.6,50.5,76.8,50.3,76.8z M30.3,75.8h19.5v-9.8H30.3V75.8z"/>
		</g>
		<g>
			<path d="M36.6,18.5h-0.9c-1.6,0-2.8,1.3-2.8,2.8v0.2h6.5v-0.2C39.4,19.8,38.1,18.5,36.6,18.5z"/>
		</g>
		<g>
			<path d="M44.9,18.5h-0.9c-1.6,0-2.8,1.3-2.8,2.8v0.2h6.5v-0.2C47.8,19.8,46.5,18.5,44.9,18.5z"/>
		</g>
	</g>
</g>
</svg>
