<?xml version="1.0" encoding="utf-8"?>
<!-- Generator: Adobe Illustrator 22.0.1, SVG Export Plug-In . SVG Version: 6.00 Build 0)  -->
<svg version="1.1" xmlns="http://www.w3.org/2000/svg" xmlns:xlink="http://www.w3.org/1999/xlink" x="0px" y="0px"
	 viewBox="0 0 80 80" style="enable-background:new 0 0 80 80;" xml:space="preserve">
<style type="text/css">
	.st0{fill:#F7F7F7;}
	.st1{fill:#FC7769;}
	.st2{fill:#FFFFFF;}
	.st3{fill:#27C79D;}
	.st4{fill:#27B1F1;}
	.st5{fill:none;stroke:#27C79D;stroke-linecap:round;stroke-linejoin:round;stroke-miterlimit:10;}
	.st6{fill:none;stroke:#FFFFFF;stroke-linecap:round;stroke-linejoin:round;stroke-miterlimit:10;}
	.st7{fill:none;stroke:#000000;stroke-linecap:round;stroke-linejoin:round;stroke-miterlimit:10;}
	.st8{fill:none;stroke:#27B1F1;stroke-linecap:round;stroke-linejoin:round;stroke-miterlimit:10;}
	.st9{fill:none;stroke:#FFFFFF;stroke-miterlimit:10;}
	.st10{fill:#6BD1FF;}
	.st11{clip-path:url(#SVGID_2_);}
	.st12{clip-path:url(#SVGID_4_);}
	.st13{clip-path:url(#SVGID_6_);}
	.st14{fill:#C9C9C9;}
	.st15{fill:#D14D3F;}
	.st16{fill:#1F8CBF;}
	.st17{fill:none;}
	.st18{fill:none;stroke:#FC7769;stroke-miterlimit:10;}
	.st19{clip-path:url(#SVGID_8_);}
	.st20{fill:none;stroke:#FC7769;stroke-width:7;stroke-linecap:round;stroke-linejoin:round;stroke-miterlimit:10;}
</style>
<g id="Layer_1">
</g>
<g id="Layer_2">
	<g>
		<g>
			<path class="st2" d="M38.7,59.8H16.4c-2.1,0-3.8-1.7-3.8-3.8V7.9c0-2.1,1.7-3.8,3.8-3.8h22.3c2.1,0,3.8,1.7,3.8,3.8V56
				C42.5,58.1,40.8,59.8,38.7,59.8z"/>
		</g>
		<g>
			<path class="st2" d="M32.6,8.7H22.5c-0.7,0-1.4-0.4-1.6-1.1l-1.4-3.5h16.2l-1.4,3.5C34,8.3,33.4,8.7,32.6,8.7z"/>
		</g>
	</g>
	<g>
		<path class="st4" d="M66.4,31.9h-11c-2.5,0-4.6-2.1-4.6-4.6V13.3c0-2.5,2.1-4.6,4.6-4.6h11c2.5,0,4.6,2.1,4.6,4.6v14.1
			C71,29.9,68.9,31.9,66.4,31.9z"/>
	</g>
	<g>
		<path class="st3" d="M60.9,68.1c-0.3,0-0.5-0.2-0.5-0.5V44.2c0-0.3,0.2-0.5,0.5-0.5s0.5,0.2,0.5,0.5v23.4
			C61.4,67.9,61.2,68.1,60.9,68.1z"/>
	</g>
	<g>
		<path class="st3" d="M52.7,76.3h-17c-4.8,0-8.7-3.9-8.7-8.7v-4.2c0-0.3,0.2-0.5,0.5-0.5s0.5,0.2,0.5,0.5v4.2
			c0,4.2,3.4,7.7,7.7,7.7h17c0.3,0,0.5,0.2,0.5,0.5S53,76.3,52.7,76.3z"/>
	</g>
	<g>
		<path class="st3" d="M52.7,76.3c-4.8,0-8.7-3.9-8.7-8.7c0-4.8,3.9-8.7,8.7-8.7c4.8,0,8.7,3.9,8.7,8.7
			C61.4,72.4,57.5,76.3,52.7,76.3z M52.7,60c-4.2,0-7.7,3.4-7.7,7.7s3.4,7.7,7.7,7.7s7.7-3.4,7.7-7.7S57,60,52.7,60z"/>
	</g>
	<g>
		<g>
			<rect x="25.5" y="59.8" width="4.2" height="4.9"/>
		</g>
	</g>
	<path d="M38.7,3.6H16.4c-2.4,0-4.3,1.9-4.3,4.3V56c0,2.4,1.9,4.3,4.3,4.3h22.3c2.4,0,4.3-1.9,4.3-4.3V7.9C43,5.6,41.1,3.6,38.7,3.6
		z M42,56c0,1.8-1.5,3.3-3.3,3.3H16.4c-1.8,0-3.3-1.5-3.3-3.3V7.9c0-1.8,1.5-3.3,3.3-3.3h3.3l1.2,3c0.3,0.7,0.9,1.1,1.6,1.1h10.1
		c0.7,0,1.4-0.4,1.6-1.1l1.2-3h3.3c1.8,0,3.3,1.5,3.3,3.3V56z"/>
	<g>
		<g>
			<path class="st2" d="M66,12.5c-2.1,0-3.7,1.7-3.7,3.7v11.9h2.4v-8.4c0.4,0.1,0.8,0.2,1.3,0.2c1.2,0,2.2-0.6,2.9-1.4v-4.6
				C68.2,13.1,67.2,12.5,66,12.5z"/>
		</g>
	</g>
	<g>
		<g>
			<path class="st2" d="M56.1,12.5c2.1,0,3.7,1.7,3.7,3.7v11.9h-2.4v-8.4c-0.4,0.1-0.8,0.2-1.3,0.2c-1.2,0-2.2-0.6-2.9-1.4v-4.6
				C53.8,13.1,54.9,12.5,56.1,12.5z"/>
		</g>
	</g>
	<polygon points="62.9,41 62.9,37.4 58.8,37.4 58.8,41 57.4,41 57.4,49.1 64.4,49.1 64.4,41 	"/>
	<g>
		<polygon class="st3" points="38.2,29.9 28,29.9 28,19.9 17,34.6 26.5,34.6 26.5,43.9 		"/>
	</g>
</g>
</svg>
