<?xml version="1.0" encoding="utf-8"?>
<!-- Generator: Adobe Illustrator 22.0.1, SVG Export Plug-In . SVG Version: 6.00 Build 0)  -->
<svg version="1.1" xmlns="http://www.w3.org/2000/svg" xmlns:xlink="http://www.w3.org/1999/xlink" x="0px" y="0px"
	 viewBox="0 0 80 80" style="enable-background:new 0 0 80 80;" xml:space="preserve">
<style type="text/css">
	.st0{fill:#F7F7F7;}
	.st1{fill:#FC7769;}
	.st2{fill:#FFFFFF;}
	.st3{fill:#27C79D;}
	.st4{fill:#27B1F1;}
	.st5{fill:none;stroke:#27C79D;stroke-linecap:round;stroke-linejoin:round;stroke-miterlimit:10;}
	.st6{fill:none;stroke:#FFFFFF;stroke-linecap:round;stroke-linejoin:round;stroke-miterlimit:10;}
	.st7{fill:none;stroke:#000000;stroke-linecap:round;stroke-linejoin:round;stroke-miterlimit:10;}
	.st8{fill:none;stroke:#27B1F1;stroke-linecap:round;stroke-linejoin:round;stroke-miterlimit:10;}
	.st9{fill:none;stroke:#FFFFFF;stroke-miterlimit:10;}
	.st10{fill:#6BD1FF;}
	.st11{clip-path:url(#SVGID_2_);}
	.st12{clip-path:url(#SVGID_4_);}
	.st13{clip-path:url(#SVGID_6_);}
	.st14{fill:#C9C9C9;}
	.st15{fill:#D14D3F;}
	.st16{fill:#1F8CBF;}
	.st17{fill:none;}
	.st18{fill:none;stroke:#FC7769;stroke-miterlimit:10;}
	.st19{clip-path:url(#SVGID_8_);}
	.st20{fill:none;stroke:#FC7769;stroke-width:7;stroke-linecap:round;stroke-linejoin:round;stroke-miterlimit:10;}
</style>
<g id="Layer_1">
</g>
<g id="Layer_2">
	<g>
		<g>
			<g>
				<polygon class="st2" points="29.2,61.5 50.1,61.5 53.1,57.6 26.2,57.6 				"/>
			</g>
			<g>
				<path class="st2" d="M53.3,63.5v12.8h13.3l-4.5-12.8V52c0-0.7-0.6-1.3-1.3-1.3h-3.3v-13h5.1V27.1c0-1.3-1.1-2.4-2.4-2.4h-2.7
					v-3.4c0-9.8-8-17.8-17.8-17.8s-17.8,8-17.8,17.8v3.4h-2.7c-1.3,0-2.4,1.1-2.4,2.4v10.7h5.1v13h-3.3c-0.7,0-1.3,0.6-1.3,1.3v11.5
					l-4.5,12.8h13.3V63.5h-4.2V50.9h35.6v12.6H53.3z"/>
			</g>
		</g>
		<g>
			<rect x="35.6" y="38" class="st4" width="7.1" height="9.9"/>
		</g>
		<g>
			
				<rect x="18.5" y="37.7" transform="matrix(-1 -4.532964e-11 4.532964e-11 -1 40.1128 88.539)" class="st4" width="3.1" height="13.1"/>
		</g>
		<g>
			<rect x="57.7" y="37.7" class="st4" width="3.1" height="13.1"/>
		</g>
		<g>
			<rect x="21.9" y="50.9" class="st1" width="35.6" height="6.2"/>
		</g>
		<g>
			<rect x="21.5" y="20.3" class="st4" width="36.2" height="4.7"/>
		</g>
		<g>
			<path d="M57.5,25.3H21.9c-0.3,0-0.5-0.2-0.5-0.5v-3.5C21.4,11.2,29.6,3,39.7,3C49.8,3,58,11.2,58,21.3v3.5
				C58,25.1,57.8,25.3,57.5,25.3z M22.4,24.3H57v-3C57,11.8,49.2,4,39.7,4c-9.5,0-17.3,7.8-17.3,17.3V24.3z"/>
		</g>
		<g>
			<circle cx="35.3" cy="12.2" r="3.9"/>
		</g>
		<g>
			<circle class="st1" cx="28.4" cy="20.2" r="2.1"/>
		</g>
		<g>
			<path d="M57.5,51.4H21.9c-0.3,0-0.5-0.2-0.5-0.5v-26c0-0.3,0.2-0.5,0.5-0.5h35.6c0.3,0,0.5,0.2,0.5,0.5v26
				C58,51.2,57.8,51.4,57.5,51.4z M22.4,50.4H57v-25H22.4V50.4z"/>
		</g>
		<g>
			<path d="M50.1,62H29.2c-0.2,0-0.3-0.1-0.4-0.2l-3-4c-0.1-0.2-0.1-0.4,0-0.5s0.3-0.3,0.4-0.3h26.8c0.2,0,0.4,0.1,0.4,0.3
				s0.1,0.4,0,0.5l-3,4C50.4,62,50.3,62,50.1,62z M29.5,61h20.4l2.2-3H27.2L29.5,61z"/>
		</g>
		<g>
			<polygon points="47,61.5 32.4,61.5 35.3,65.9 44,65.9 			"/>
		</g>
		<g>
			<polygon class="st4" points="44,65.9 35.3,65.9 31.1,76.9 48.4,76.9 			"/>
		</g>
		<g>
			<path d="M28.1,45.8c-0.3,0-0.5-0.2-0.5-0.5V30.1c0-0.3,0.2-0.5,0.5-0.5s0.5,0.2,0.5,0.5v15.2C28.6,45.6,28.4,45.8,28.1,45.8z"/>
		</g>
		<g>
			<path d="M52.4,45.8c-0.3,0-0.5-0.2-0.5-0.5V30.1c0-0.3,0.2-0.5,0.5-0.5s0.5,0.2,0.5,0.5v15.2C52.9,45.6,52.7,45.8,52.4,45.8z"/>
		</g>
		<g>
			<path d="M47.5,34.5H31.9c-0.3,0-0.5-0.2-0.5-0.5s0.2-0.5,0.5-0.5h15.6c0.3,0,0.5,0.2,0.5,0.5S47.8,34.5,47.5,34.5z"/>
		</g>
		<g>
			<path d="M47.5,30.8H31.9c-0.3,0-0.5-0.2-0.5-0.5s0.2-0.5,0.5-0.5h15.6c0.3,0,0.5,0.2,0.5,0.5S47.8,30.8,47.5,30.8z"/>
		</g>
		<g>
			<path d="M62.6,38.2h-5.1c-0.3,0-0.5-0.2-0.5-0.5v-13c0-0.3,0.2-0.5,0.5-0.5h2.7c1.6,0,2.9,1.3,2.9,2.9v10.7
				C63.1,38,62.8,38.2,62.6,38.2z M58,37.2h4.1V27.1c0-1-0.8-1.9-1.9-1.9H58V37.2z"/>
		</g>
		<g>
			<path d="M62.1,64h-4.6c-0.3,0-0.5-0.2-0.5-0.5V50.7c0-0.3,0.2-0.5,0.5-0.5h3.3c1,0,1.8,0.8,1.8,1.8v11.5
				C62.6,63.8,62.4,64,62.1,64z M58,63h3.6V52c0-0.5-0.4-0.8-0.8-0.8H58V63z"/>
		</g>
		<g>
			<path d="M66.6,76.8H53.3c-0.3,0-0.5-0.2-0.5-0.5V63.5c0-0.3,0.2-0.5,0.5-0.5h8.8c0.2,0,0.4,0.1,0.5,0.3l4.5,12.8
				c0.1,0.2,0,0.3-0.1,0.5S66.7,76.8,66.6,76.8z M53.8,75.8h12.1L61.8,64h-8V75.8z"/>
		</g>
		<g>
			<polygon points="52.9,63.2 57.2,58.5 57.2,63.2 			"/>
		</g>
		<g>
			<polygon points="26.5,63.2 22.2,58.5 22.1,63.2 			"/>
		</g>
		<g>
			<path d="M21.9,38.2h-5.1c-0.3,0-0.5-0.2-0.5-0.5V27.1c0-1.6,1.3-2.9,2.9-2.9h2.7c0.3,0,0.5,0.2,0.5,0.5v13
				C22.4,38,22.1,38.2,21.9,38.2z M17.3,37.2h4.1v-12h-2.2c-1,0-1.9,0.8-1.9,1.9V37.2z"/>
		</g>
		<g>
			<path d="M21.9,64h-4.6c-0.3,0-0.5-0.2-0.5-0.5V52c0-1,0.8-1.8,1.8-1.8h3.3c0.3,0,0.5,0.2,0.5,0.5v12.8C22.4,63.8,22.1,64,21.9,64
				z M17.7,63h3.6V51.2h-2.8c-0.5,0-0.8,0.4-0.8,0.8V63z"/>
		</g>
		<g>
			<path d="M26.1,76.8H12.8c-0.2,0-0.3-0.1-0.4-0.2s-0.1-0.3-0.1-0.5l4.5-12.8c0.1-0.2,0.3-0.3,0.5-0.3h8.8c0.3,0,0.5,0.2,0.5,0.5
				v12.8C26.6,76.6,26.3,76.8,26.1,76.8z M13.5,75.8h12.1V64h-8L13.5,75.8z"/>
		</g>
		<g>
			<path class="st4" d="M25.3,62.3L25.3,62.3c1.6,0,2.8,1.3,2.8,2.8v6.3c0,1.6-1.3,2.8-2.8,2.8h0c-1.6,0-2.8-1.3-2.8-2.8v-6.3
				C22.5,63.6,23.8,62.3,25.3,62.3z"/>
		</g>
		<g>
			<path class="st4" d="M54.2,62.3L54.2,62.3c1.6,0,2.8,1.3,2.8,2.8v6.3c0,1.6-1.3,2.8-2.8,2.8h0c-1.6,0-2.8-1.3-2.8-2.8v-6.3
				C51.4,63.6,52.7,62.3,54.2,62.3z"/>
		</g>
	</g>
</g>
</svg>
