<?xml version="1.0" encoding="utf-8"?>
<!-- Generator: Adobe Illustrator 22.0.1, SVG Export Plug-In . SVG Version: 6.00 Build 0)  -->
<svg version="1.1" xmlns="http://www.w3.org/2000/svg" xmlns:xlink="http://www.w3.org/1999/xlink" x="0px" y="0px"
	 viewBox="0 0 80 80" style="enable-background:new 0 0 80 80;" xml:space="preserve">
<style type="text/css">
	.st0{fill:#F7F7F7;}
	.st1{fill:#FC7769;}
	.st2{fill:#FFFFFF;}
	.st3{fill:#27C79D;}
	.st4{fill:#27B1F1;}
	.st5{fill:none;stroke:#27C79D;stroke-linecap:round;stroke-linejoin:round;stroke-miterlimit:10;}
	.st6{fill:none;stroke:#FFFFFF;stroke-linecap:round;stroke-linejoin:round;stroke-miterlimit:10;}
	.st7{fill:none;stroke:#000000;stroke-linecap:round;stroke-linejoin:round;stroke-miterlimit:10;}
	.st8{fill:none;stroke:#27B1F1;stroke-linecap:round;stroke-linejoin:round;stroke-miterlimit:10;}
	.st9{fill:none;stroke:#FFFFFF;stroke-miterlimit:10;}
	.st10{fill:#6BD1FF;}
	.st11{clip-path:url(#SVGID_2_);}
	.st12{clip-path:url(#SVGID_4_);}
	.st13{clip-path:url(#SVGID_6_);}
	.st14{fill:#C9C9C9;}
	.st15{fill:#D14D3F;}
	.st16{fill:#1F8CBF;}
	.st17{fill:none;}
	.st18{fill:none;stroke:#FC7769;stroke-miterlimit:10;}
	.st19{clip-path:url(#SVGID_8_);}
	.st20{fill:none;stroke:#FC7769;stroke-width:7;stroke-linecap:round;stroke-linejoin:round;stroke-miterlimit:10;}
</style>
<g id="Layer_1">
</g>
<g id="Layer_2">
	<g>
		<g>
			<g>
				<path class="st2" d="M51.2,68.5H28.9c-2.1,0-3.8-1.7-3.8-3.8V16.6c0-2.1,1.7-3.8,3.8-3.8h22.3c2.1,0,3.8,1.7,3.8,3.8v48.1
					C55,66.8,53.3,68.5,51.2,68.5z"/>
			</g>
			<g>
				<path class="st2" d="M45.1,17.3H35c-0.7,0-1.4-0.4-1.6-1.1L32,12.7h16.2l-1.4,3.5C46.5,16.9,45.8,17.3,45.1,17.3z"/>
			</g>
		</g>
		<g>
			<path class="st3" d="M67.7,76.8H40c-0.3,0-0.5-0.2-0.5-0.5V49.9c0-0.3,0.2-0.5,0.5-0.5s0.5,0.2,0.5,0.5v25.9h26.7V17.3
				c0-0.3,0.2-0.5,0.5-0.5s0.5,0.2,0.5,0.5v59C68.2,76.6,68,76.8,67.7,76.8z"/>
		</g>
		<g>
			<path class="st3" d="M12.3,63c-0.3,0-0.5-0.2-0.5-0.5v-59c0-0.3,0.2-0.5,0.5-0.5H40c0.3,0,0.5,0.2,0.5,0.5v26.4
				c0,0.3-0.2,0.5-0.5,0.5s-0.5-0.2-0.5-0.5V4H12.8v58.5C12.8,62.8,12.6,63,12.3,63z"/>
		</g>
		<g>
			<rect x="4.5" y="55.2" class="st4" width="15.7" height="15.7"/>
		</g>
		<g>
			<polygon class="st3" points="40,29.1 27.6,41.6 52.5,41.6 			"/>
		</g>
		<g>
			<rect x="31.5" y="40.8" class="st3" width="17.1" height="11.3"/>
		</g>
		<path d="M51.2,12.2H28.9c-2.4,0-4.3,1.9-4.3,4.3v48.1c0,2.4,1.9,4.3,4.3,4.3h22.3c2.4,0,4.3-1.9,4.3-4.3V16.6
			C55.5,14.2,53.6,12.2,51.2,12.2z M54.5,64.6c0,1.8-1.5,3.3-3.3,3.3H28.9c-1.8,0-3.3-1.5-3.3-3.3V16.6c0-1.8,1.5-3.3,3.3-3.3h3.3
			l1.2,3c0.3,0.7,0.9,1.1,1.6,1.1h10.1c0.7,0,1.4-0.4,1.6-1.1l1.2-3h3.3c1.8,0,3.3,1.5,3.3,3.3V64.6z"/>
		<g>
			<path class="st2" d="M42.8,45c-0.1,0-0.2,0-0.3-0.1c-1.4-1.2-3.5-1.2-4.9,0C37.3,45,37,45,36.8,44.8c-0.2-0.2-0.2-0.5,0.1-0.7
				c1.7-1.5,4.5-1.5,6.2,0c0.2,0.2,0.2,0.5,0.1,0.7C43.1,44.9,42.9,45,42.8,45z"/>
		</g>
		<g>
			<circle class="st2" cx="40" cy="47.4" r="1.5"/>
		</g>
		<g>
			<path class="st2" d="M44.5,43c-0.1,0-0.2,0-0.3-0.1c-1.2-1-2.6-1.5-4.2-1.5s-3,0.5-4.2,1.5c-0.2,0.2-0.5,0.2-0.7-0.1
				c-0.2-0.2-0.2-0.5,0.1-0.7c1.3-1.2,3.1-1.8,4.8-1.8s3.5,0.6,4.8,1.8c0.2,0.2,0.2,0.5,0.1,0.7C44.8,42.9,44.7,43,44.5,43z"/>
		</g>
		<g>
			<path class="st2" d="M33.8,41.1c-0.1,0-0.3-0.1-0.4-0.2c-0.2-0.2-0.2-0.5,0-0.7c1.8-1.6,4.2-2.5,6.6-2.5c2.4,0,4.7,0.8,6.5,2.4
				c0.2,0.2,0.2,0.5,0.1,0.7c-0.2,0.2-0.5,0.2-0.7,0.1c-1.6-1.4-3.7-2.1-5.8-2.1c-2.2,0-4.3,0.8-5.9,2.2
				C34.1,41,33.9,41.1,33.8,41.1z"/>
		</g>
		<g>
			<rect x="4.5" y="9.1" class="st1" width="15.7" height="15.7"/>
		</g>
		<g>
			<rect x="4.5" y="32.2" class="st3" width="15.7" height="15.7"/>
		</g>
		<g>
			<rect x="59.9" y="55.2" class="st3" width="15.7" height="15.7"/>
		</g>
		<g>
			<rect x="59.9" y="9.1" class="st4" width="15.7" height="15.7"/>
		</g>
		<g>
			<path class="st2" d="M15.9,39c0-0.5-0.1-1-0.5-1.3c-0.5-0.5-1.3-0.5-1.9-0.1c-0.5-0.8-1.3-1.3-2.3-1.3c-1.5,0-2.7,1.2-2.7,2.7
				c0,0,0,0.1,0,0.1c-0.9,0.2-1.6,1-1.6,2c0,1.2,0.9,2.1,2.1,2.1h6.8c1.2,0,2.1-0.9,2.1-2.1C17.8,39.9,17,39.1,15.9,39z"/>
		</g>
		<g>
			<g>
				<path class="st2" d="M15.6,60.5c0-1.8-1.5-3.3-3.4-3.2c-1.6,0.1-3,1.4-3.1,3c-0.1,1.3,0.6,2.4,1.7,3c0.4,0.2,0.6,0.6,0.6,1.1
					v0.5h1.8v-0.5c0-0.5,0.3-0.9,0.7-1.1C14.9,62.8,15.6,61.7,15.6,60.5z"/>
			</g>
			<g>
				<rect x="10.7" y="64.7" class="st2" width="3.3" height="0.9"/>
			</g>
			<g>
				<rect x="10.7" y="66.5" class="st2" width="3.3" height="0.9"/>
			</g>
			<g>
				<rect x="11.4" y="67.9" class="st2" width="1.9" height="0.9"/>
			</g>
		</g>
		<path class="st2" d="M15.4,15.8v-1.7c0-1.7-1.4-3-3-3s-3,1.4-3,3v1.7H7.8v6.7h9.1v-6.7H15.4z M12.9,19.9v1.4h-1.1v-1.4
			c-0.5-0.2-0.9-0.7-0.9-1.3c0-0.8,0.7-1.5,1.5-1.5c0.8,0,1.5,0.7,1.5,1.5C13.8,19.1,13.4,19.7,12.9,19.9z M14.4,15.8h-4.1v-1.7
			c0-1.1,0.9-2,2-2s2,0.9,2,2V15.8z"/>
		<g>
			<g>
				<rect x="59.9" y="32.2" class="st1" width="15.7" height="15.7"/>
			</g>
			<g>
				<rect x="62.2" y="35.7" class="st2" width="11" height="6.7"/>
			</g>
			<g>
				<rect x="66" y="43.4" class="st2" width="3.3" height="0.9"/>
			</g>
		</g>
		<g>
			<path class="st2" d="M71.1,18.7c0,1.9-1.5,3.4-3.4,3.4c-1.9,0-3.4-1.5-3.4-3.4c0-3,3.4-6.9,3.4-6.9S71.1,15.8,71.1,18.7z"/>
		</g>
		<g>
			<g>
				<path class="st2" d="M66.5,58.1V64v0.5l0.4,0.3c0.5,0.4,0.7,0.9,0.7,1.5c0,1.1-0.9,1.9-1.9,1.9s-1.9-0.9-1.9-1.9
					c0-0.6,0.3-1.1,0.7-1.5l0.4-0.3V64v-5.9H66.5 M67.5,57.1h-3.7V64c-0.7,0.5-1.1,1.4-1.1,2.3c0,1.6,1.3,2.9,2.9,2.9
					c1.6,0,2.9-1.3,2.9-2.9c0-0.9-0.4-1.8-1.1-2.3V57.1L67.5,57.1z"/>
			</g>
			<g>
				<rect x="64.3" y="57.6" class="st2" width="2.9" height="3.9"/>
			</g>
			<g>
				<rect x="69" y="58.3" class="st2" width="3.6" height="1"/>
			</g>
			<g>
				<rect x="70.3" y="57.1" class="st2" width="1" height="3.6"/>
			</g>
			<g>
				<rect x="69" y="63.1" class="st2" width="3.6" height="1"/>
			</g>
		</g>
	</g>
</g>
</svg>
