<?xml version="1.0" encoding="utf-8"?>
<!-- Generator: Adobe Illustrator 22.0.1, SVG Export Plug-In . SVG Version: 6.00 Build 0)  -->
<svg version="1.1" xmlns="http://www.w3.org/2000/svg" xmlns:xlink="http://www.w3.org/1999/xlink" x="0px" y="0px"
	 viewBox="0 0 80 80" style="enable-background:new 0 0 80 80;" xml:space="preserve">
<style type="text/css">
	.st0{fill:#F7F7F7;}
	.st1{fill:#FC7769;}
	.st2{fill:#FFFFFF;}
	.st3{fill:#27C79D;}
	.st4{fill:#27B1F1;}
	.st5{fill:none;stroke:#27C79D;stroke-linecap:round;stroke-linejoin:round;stroke-miterlimit:10;}
	.st6{fill:none;stroke:#FFFFFF;stroke-linecap:round;stroke-linejoin:round;stroke-miterlimit:10;}
	.st7{fill:none;stroke:#000000;stroke-linecap:round;stroke-linejoin:round;stroke-miterlimit:10;}
	.st8{fill:none;stroke:#27B1F1;stroke-linecap:round;stroke-linejoin:round;stroke-miterlimit:10;}
	.st9{fill:none;stroke:#FFFFFF;stroke-miterlimit:10;}
	.st10{fill:#6BD1FF;}
	.st11{clip-path:url(#SVGID_2_);}
	.st12{clip-path:url(#SVGID_4_);}
	.st13{clip-path:url(#SVGID_6_);}
	.st14{fill:#C9C9C9;}
	.st15{fill:#D14D3F;}
	.st16{fill:#1F8CBF;}
	.st17{fill:none;}
	.st18{fill:none;stroke:#FC7769;stroke-miterlimit:10;}
	.st19{clip-path:url(#SVGID_8_);}
	.st20{fill:none;stroke:#FC7769;stroke-width:7;stroke-linecap:round;stroke-linejoin:round;stroke-miterlimit:10;}
</style>
<g id="Layer_1">
</g>
<g id="Layer_2">
	<g>
		<g>
			<rect x="12.8" y="38.6" class="st2" width="54.4" height="37.7"/>
		</g>
		<g>
			<rect x="12.6" y="38.9" class="st2" width="54.6" height="37.2"/>
		</g>
		<g>
			<path class="st4" d="M17.6,53.5c0,3,2.5,5.4,5.5,5.2c2.7-0.1,4.8-2.3,5-4.9c0.1-2.1-1-4-2.7-4.9c-0.7-0.4-1-1-1-1.8v-1.8h-2.8
				v1.8c0,0.8-0.4,1.4-1.1,1.8C18.7,49.8,17.6,51.5,17.6,53.5z"/>
		</g>
		<g>
			<path d="M67.2,76.8H12.8c-0.3,0-0.5-0.2-0.5-0.5V38.6c0-0.3,0.2-0.5,0.5-0.5h54.4c0.3,0,0.5,0.2,0.5,0.5v37.7
				C67.7,76.6,67.5,76.8,67.2,76.8z M13.3,75.8h53.4V39.1H13.3V75.8z"/>
		</g>
		<g>
			<polygon class="st3" points="40,2.7 2.1,40.6 77.9,40.6 			"/>
		</g>
		<g>
			<rect x="32.7" y="49.4" class="st1" width="14.5" height="27.4"/>
		</g>
		<path d="M25.3,44.8h-4.9c-0.3,0-0.5,0.2-0.5,0.5s0.2,0.5,0.5,0.5h1.9v5.5c-1,0.2-1.7,1.1-1.7,2.1c0,1.2,1,2.2,2.2,2.2
			s2.2-1,2.2-2.2c0-1-0.7-1.9-1.7-2.1v-5.5h2c0.3,0,0.5-0.2,0.5-0.5S25.6,44.8,25.3,44.8z"/>
		<g>
			<path d="M29.4,64.1c0-1.2-1-2.2-2.2-2.2s-2.2,1-2.2,2.2c0,1,0.7,1.9,1.7,2.1V76c0,0.3,0.2,0.5,0.5,0.5s0.5-0.2,0.5-0.5v-9.7
				C28.7,66,29.4,65.1,29.4,64.1z"/>
			<path d="M19.8,66.6c-1.2,0-2.2,1-2.2,2.2c0,1,0.7,1.9,1.7,2.1V76c0,0.3,0.2,0.5,0.5,0.5s0.5-0.2,0.5-0.5v-5.1
				c1-0.2,1.7-1.1,1.7-2.1C22,67.6,21,66.6,19.8,66.6z"/>
		</g>
		<path d="M62.3,49.4h-4.5v-2.6c1-0.2,1.7-1.1,1.7-2.1c0-1.2-1-2.2-2.2-2.2s-2.2,1-2.2,2.2c0,1,0.7,1.9,1.7,2.1v2.6h-4.5
			c-0.3,0-0.5,0.2-0.5,0.5v10c0,0.3,0.2,0.5,0.5,0.5h4.5v3.3H45.6c-0.2-1-1.1-1.7-2.1-1.7c-1.2,0-2.2,1-2.2,2.2s1,2.2,2.2,2.2
			c1,0,1.9-0.7,2.1-1.7h11.8c0.3,0,0.5-0.2,0.5-0.5v-3.8h4.5c0.3,0,0.5-0.2,0.5-0.5v-10C62.8,49.7,62.6,49.4,62.3,49.4z M61.8,50.4
			v4h-4v-4H61.8z M56.9,50.4v4h-4v-4H56.9z M52.9,59.4v-4h4v4H52.9z M57.9,59.4v-4h4v4H57.9z"/>
		<g>
			<path d="M39.9,25.6c-1.7,0-3.3,0.6-4.5,1.7c-0.2,0.2-0.2,0.5-0.1,0.7c0.2,0.2,0.5,0.2,0.7,0.1c1.1-0.9,2.4-1.4,3.9-1.4
				c1.4,0,2.8,0.5,3.9,1.4c0.1,0.1,0.2,0.1,0.3,0.1c0.1,0,0.3-0.1,0.4-0.2c0.2-0.2,0.2-0.5-0.1-0.7C43.2,26.2,41.6,25.6,39.9,25.6z"
				/>
			<path d="M39.9,29.8c-1,0-1.9,0.7-2.1,1.7H22.9c-0.3,0-0.5,0.2-0.5,0.5l-0.1,10.6h-1.9c-0.3,0-0.5,0.2-0.5,0.5s0.2,0.5,0.5,0.5
				h2.4h0h2.5c0.3,0,0.5-0.2,0.5-0.5s-0.2-0.5-0.5-0.5h-2l0.1-10.1h14.4c0.2,1,1.1,1.7,2.2,1.7c1.2,0,2.2-1,2.2-2.2
				C42.1,30.8,41.1,29.8,39.9,29.8z"/>
			<path d="M39.9,21.7c-2.6,0-5.1,0.9-7.1,2.6c-0.2,0.2-0.2,0.5-0.1,0.7c0.1,0.1,0.2,0.2,0.4,0.2c0.1,0,0.2,0,0.3-0.1
				c1.8-1.5,4.1-2.4,6.4-2.4c2.4,0,4.6,0.8,6.4,2.4c0.2,0.2,0.5,0.2,0.7-0.1c0.2-0.2,0.2-0.5-0.1-0.7C45,22.6,42.5,21.7,39.9,21.7z"
				/>
			<path d="M40.1,17.7c-3.6,0-7.1,1.3-9.8,3.7c-0.2,0.2-0.2,0.5,0,0.7c0.1,0.1,0.2,0.2,0.4,0.2c0.1,0,0.2,0,0.3-0.1
				c2.5-2.2,5.8-3.4,9.1-3.4c3.3,0,6.4,1.2,8.9,3.3c0.2,0.2,0.5,0.2,0.7-0.1c0.2-0.2,0.2-0.5-0.1-0.7C47,18.9,43.6,17.7,40.1,17.7z"
				/>
			<path d="M62.3,12.5c0-1.2-1-2.2-2.2-2.2s-2.2,1-2.2,2.2c0,1,0.7,1.9,1.7,2.1v9.9l-6,5.7c-0.3-0.2-0.8-0.4-1.2-0.4
				c-1.2,0-2.2,1-2.2,2.2s1,2.2,2.2,2.2c1.2,0,2.2-1,2.2-2.2c0-0.4-0.1-0.8-0.3-1.1l6.2-5.9c0.1-0.1,0.2-0.2,0.2-0.4V14.6
				C61.6,14.4,62.3,13.5,62.3,12.5z"/>
		</g>
	</g>
</g>
</svg>
