<?xml version="1.0" encoding="utf-8"?>
<!-- Generator: Adobe Illustrator 22.0.1, SVG Export Plug-In . SVG Version: 6.00 Build 0)  -->
<svg version="1.1" xmlns="http://www.w3.org/2000/svg" xmlns:xlink="http://www.w3.org/1999/xlink" x="0px" y="0px"
	 viewBox="0 0 80 80" style="enable-background:new 0 0 80 80;" xml:space="preserve">
<style type="text/css">
	.st0{fill:#F7F7F7;}
	.st1{fill:#FC7769;}
	.st2{fill:#FFFFFF;}
	.st3{fill:#27C79D;}
	.st4{fill:#27B1F1;}
	.st5{fill:none;stroke:#27C79D;stroke-linecap:round;stroke-linejoin:round;stroke-miterlimit:10;}
	.st6{fill:none;stroke:#FFFFFF;stroke-linecap:round;stroke-linejoin:round;stroke-miterlimit:10;}
	.st7{fill:none;stroke:#000000;stroke-linecap:round;stroke-linejoin:round;stroke-miterlimit:10;}
	.st8{fill:none;stroke:#27B1F1;stroke-linecap:round;stroke-linejoin:round;stroke-miterlimit:10;}
	.st9{fill:none;stroke:#FFFFFF;stroke-miterlimit:10;}
	.st10{fill:#6BD1FF;}
	.st11{clip-path:url(#SVGID_2_);}
	.st12{clip-path:url(#SVGID_4_);}
	.st13{clip-path:url(#SVGID_6_);}
	.st14{fill:#C9C9C9;}
	.st15{fill:#D14D3F;}
	.st16{fill:#1F8CBF;}
	.st17{fill:none;}
	.st18{fill:none;stroke:#FC7769;stroke-miterlimit:10;}
	.st19{clip-path:url(#SVGID_8_);}
	.st20{fill:none;stroke:#FC7769;stroke-width:7;stroke-linecap:round;stroke-linejoin:round;stroke-miterlimit:10;}
</style>
<g id="Layer_1">
</g>
<g id="Layer_2">
	<g>
		<g>
			<rect x="6.2" y="61.4" class="st3" width="67.6" height="14.9"/>
		</g>
		<g>
			<path d="M67.5,71.4c-0.2,0-0.4-0.1-0.5-0.4l-7.8-25.7c-0.1-0.3,0.1-0.5,0.3-0.6c0.3-0.1,0.5,0.1,0.6,0.3l7.8,25.7
				c0.1,0.3-0.1,0.5-0.3,0.6C67.6,71.4,67.5,71.4,67.5,71.4z"/>
		</g>
		<g>
			<polygon class="st4" points="55.7,71.7 11.3,71.7 23.3,32.3 67.7,32.3 			"/>
		</g>
		<g>
			<g>
				<polygon class="st2" points="42.6,68.9 32.3,35.2 28.2,35.2 38.4,68.9 				"/>
			</g>
		</g>
		<g>
			<g>
				<polygon class="st2" points="49.9,68.9 39.6,35.2 35.5,35.2 45.7,68.9 				"/>
			</g>
		</g>
		<g>
			<polygon class="st2" points="61.7,43.9 59.1,35.2 54.9,35.2 59.6,50.7 			"/>
		</g>
		<g>
			<path d="M18.2,68.9c0,0-0.1,0-0.1,0c-0.3-0.1-0.4-0.4-0.3-0.6l10-32.8c0.1-0.3,0.4-0.4,0.6-0.3c0.3,0.1,0.4,0.4,0.3,0.6l-10,32.8
				C18.6,68.7,18.4,68.9,18.2,68.9z"/>
		</g>
		<g>
			<path d="M24.5,68.9c0,0-0.1,0-0.1,0c-0.3-0.1-0.4-0.4-0.3-0.6l10-32.8c0.1-0.3,0.4-0.4,0.6-0.3c0.3,0.1,0.4,0.4,0.3,0.6L25,68.5
				C24.9,68.7,24.7,68.9,24.5,68.9z"/>
		</g>
		<g>
			<path d="M30.9,68.9c0,0-0.1,0-0.1,0c-0.3-0.1-0.4-0.4-0.3-0.6l10-32.8c0.1-0.3,0.4-0.4,0.6-0.3c0.3,0.1,0.4,0.4,0.3,0.6l-10,32.8
				C31.3,68.7,31.1,68.9,30.9,68.9z"/>
		</g>
		<g>
			<path d="M37.2,68.9c0,0-0.1,0-0.1,0c-0.3-0.1-0.4-0.4-0.3-0.6l10-32.8c0.1-0.3,0.4-0.4,0.6-0.3c0.3,0.1,0.4,0.4,0.3,0.6l-10,32.8
				C37.7,68.7,37.5,68.9,37.2,68.9z"/>
		</g>
		<g>
			<path d="M43.6,68.9c0,0-0.1,0-0.1,0c-0.3-0.1-0.4-0.4-0.3-0.6l10-32.8c0.1-0.3,0.4-0.4,0.6-0.3c0.3,0.1,0.4,0.4,0.3,0.6l-10,32.8
				C44,68.7,43.8,68.9,43.6,68.9z"/>
		</g>
		<g>
			<path d="M49.9,68.9c0,0-0.1,0-0.1,0c-0.3-0.1-0.4-0.4-0.3-0.6l10-32.8c0.1-0.3,0.4-0.4,0.6-0.3c0.3,0.1,0.4,0.4,0.3,0.6l-10,32.8
				C50.4,68.7,50.2,68.9,49.9,68.9z"/>
		</g>
		<g>
			<path d="M62.9,40.3H23.3c-0.3,0-0.5-0.2-0.5-0.5s0.2-0.5,0.5-0.5h39.6c0.3,0,0.5,0.2,0.5,0.5S63.2,40.3,62.9,40.3z"/>
		</g>
		<g>
			<path d="M62.1,43.5H22.5c-0.3,0-0.5-0.2-0.5-0.5s0.2-0.5,0.5-0.5h39.6c0.3,0,0.5,0.2,0.5,0.5S62.4,43.5,62.1,43.5z"/>
		</g>
		<g>
			<path d="M59.4,51H19.8c-0.3,0-0.5-0.2-0.5-0.5s0.2-0.5,0.5-0.5h39.6c0.3,0,0.5,0.2,0.5,0.5S59.7,51,59.4,51z"/>
		</g>
		<g>
			<path d="M58.6,54.2H19c-0.3,0-0.5-0.2-0.5-0.5s0.2-0.5,0.5-0.5h39.6c0.3,0,0.5,0.2,0.5,0.5S58.8,54.2,58.6,54.2z"/>
		</g>
		<g>
			<path d="M56.5,61.5H16.9c-0.3,0-0.5-0.2-0.5-0.5s0.2-0.5,0.5-0.5h39.6c0.3,0,0.5,0.2,0.5,0.5S56.8,61.5,56.5,61.5z"/>
		</g>
		<g>
			<path d="M55.7,64.7H16.1c-0.3,0-0.5-0.2-0.5-0.5s0.2-0.5,0.5-0.5h39.6c0.3,0,0.5,0.2,0.5,0.5S56,64.7,55.7,64.7z"/>
		</g>
		<g>
			<circle class="st1" cx="18" cy="15.1" r="11.4"/>
		</g>
		<g>
			<polygon points="67.7,32.3 55.6,72.1 58.2,72.1 70.1,32.3 			"/>
		</g>
		<g>
			<path d="M57.7,72.2H11.6c-0.3,0-0.5-0.2-0.5-0.5s0.2-0.5,0.5-0.5h46.1c0.3,0,0.5,0.2,0.5,0.5S58,72.2,57.7,72.2z"/>
		</g>
	</g>
</g>
</svg>
