<?xml version="1.0" encoding="utf-8"?>
<!-- Generator: Adobe Illustrator 22.0.1, SVG Export Plug-In . SVG Version: 6.00 Build 0)  -->
<svg version="1.1" xmlns="http://www.w3.org/2000/svg" xmlns:xlink="http://www.w3.org/1999/xlink" x="0px" y="0px"
	 viewBox="0 0 80 80" style="enable-background:new 0 0 80 80;" xml:space="preserve">
<style type="text/css">
	.st0{fill:#F7F7F7;}
	.st1{fill:#FC7769;}
	.st2{fill:#FFFFFF;}
	.st3{fill:#27C79D;}
	.st4{fill:#27B1F1;}
	.st5{fill:none;stroke:#27C79D;stroke-linecap:round;stroke-linejoin:round;stroke-miterlimit:10;}
	.st6{fill:none;stroke:#FFFFFF;stroke-linecap:round;stroke-linejoin:round;stroke-miterlimit:10;}
	.st7{fill:none;stroke:#000000;stroke-linecap:round;stroke-linejoin:round;stroke-miterlimit:10;}
	.st8{fill:none;stroke:#27B1F1;stroke-linecap:round;stroke-linejoin:round;stroke-miterlimit:10;}
	.st9{fill:none;stroke:#FFFFFF;stroke-miterlimit:10;}
	.st10{fill:#6BD1FF;}
	.st11{clip-path:url(#SVGID_2_);}
	.st12{clip-path:url(#SVGID_4_);}
	.st13{clip-path:url(#SVGID_6_);}
	.st14{fill:#C9C9C9;}
	.st15{fill:#D14D3F;}
	.st16{fill:#1F8CBF;}
	.st17{fill:none;}
	.st18{fill:none;stroke:#FC7769;stroke-miterlimit:10;}
	.st19{clip-path:url(#SVGID_8_);}
	.st20{fill:none;stroke:#FC7769;stroke-width:7;stroke-linecap:round;stroke-linejoin:round;stroke-miterlimit:10;}
</style>
<g id="Layer_1">
</g>
<g id="Layer_2">
	<g>
		<g>
			<rect x="9.2" y="23.7" class="st2" width="7.4" height="33.1"/>
		</g>
		<g>
			<path d="M16.6,57.3H9.2c-0.3,0-0.5-0.2-0.5-0.5V23.7c0-0.3,0.2-0.5,0.5-0.5h7.4c0.3,0,0.5,0.2,0.5,0.5v33.1
				C17.1,57.1,16.9,57.3,16.6,57.3z M9.7,56.3h6.4V24.2H9.7V56.3z"/>
		</g>
		<g>
			<path class="st3" d="M65.3,29C63.8,16.5,53.1,6.8,40.1,6.8S16.5,16.5,14.9,29L11.9,61l21.4,12.2H47L68.4,61L65.3,29z"/>
		</g>
		<g>
			<path class="st1" d="M28.9,73.2h4.4H47h4.3L51,70.9c0,0-0.5-2.6-0.4-6.2c0.2-3.7,1-8.5,3.7-12.9c2.4-4,5.3-6.5,7.7-8.1
				c2.6-1.7,4.5-2.3,4.5-2.3v0L65.3,29c0-0.1,0-0.2-0.1-0.3H15c0,0.1,0,0.2-0.1,0.3l-1.2,12.3v0c0,0,7.1,2.2,12.2,10.4
				c5.4,8.9,3.4,19.1,3.4,19.1L28.9,73.2z"/>
		</g>
		<g>
			<path d="M50.6,65.2C50.6,65.2,50.6,65.2,50.6,65.2c-0.3,0-0.5-0.2-0.5-0.5c0.2-3.4,0.9-8.5,3.8-13.1c2.1-3.4,4.7-6.1,7.8-8.3
				c0.2-0.2,0.5-0.1,0.7,0.1c0.2,0.2,0.1,0.5-0.1,0.7c-3,2-5.5,4.7-7.5,8c-2.8,4.5-3.5,9.4-3.7,12.6C51.1,65,50.9,65.2,50.6,65.2z"
				/>
		</g>
		<g>
			<path d="M29.6,65.2c-0.3,0-0.5-0.2-0.5-0.5c-0.1-3.3-0.9-8.2-3.7-12.6c-2-3.2-4.5-5.9-7.5-8c-0.2-0.2-0.3-0.5-0.1-0.7
				c0.2-0.2,0.5-0.3,0.7-0.1c3.1,2.1,5.8,4.9,7.8,8.3c2.9,4.7,3.7,9.7,3.8,13.1C30.1,64.9,29.9,65.2,29.6,65.2
				C29.6,65.2,29.6,65.2,29.6,65.2z"/>
		</g>
		<g>
			<polygon points="61.6,37.7 61.1,32.8 40.6,32.8 40.1,32.8 19.6,32.8 19.2,37.7 33.3,42.4 33.3,73.2 47,73.2 47,42.6 			"/>
		</g>
		<g>
			<path d="M12.9,24.2c-0.3,0-0.5-0.2-0.5-0.5V6.8c0-0.3,0.2-0.5,0.5-0.5s0.5,0.2,0.5,0.5v16.9C13.4,24,13.2,24.2,12.9,24.2z"/>
		</g>
		<g>
			<polygon points="21.6,9 11.2,10 11.2,5.6 21.6,6.6 			"/>
		</g>
		<g>
			<path d="M60.6,29.2H20.1c-0.3,0-0.5-0.2-0.5-0.5s0.2-0.5,0.5-0.5h40.5c0.3,0,0.5,0.2,0.5,0.5S60.9,29.2,60.6,29.2z"/>
		</g>
		<g>
			<path d="M55.7,26.4c-0.3,0-0.5-0.2-0.5-0.5v-4.4c0-0.3,0.2-0.5,0.5-0.5s0.5,0.2,0.5,0.5v4.4C56.2,26.2,56,26.4,55.7,26.4z"/>
		</g>
		<g>
			<path d="M58.7,26.4c-0.3,0-0.5-0.2-0.5-0.5v-4.4c0-0.3,0.2-0.5,0.5-0.5s0.5,0.2,0.5,0.5v4.4C59.2,26.2,59,26.4,58.7,26.4z"/>
		</g>
	</g>
</g>
</svg>
