<?xml version="1.0" encoding="UTF-8"?>
<svg width="23px" height="30px" viewBox="0 0 23 30" version="1.1" xmlns="http://www.w3.org/2000/svg" xmlns:xlink="http://www.w3.org/1999/xlink">
    <!-- Generator: sketchtool 52.2 (67145) - http://www.bohemiancoding.com/sketch -->
    <title>03E105FE-E882-4FDD-94F7-3D6EFC23A165</title>
    <desc>Created with sketchtool.</desc>
    <g id="Main-pages---mobile-view" stroke="none" stroke-width="1" fill="none" fill-rule="evenodd">
        <g id="Main-page-new-way---mobile" transform="translate(-257.000000, -54.000000)" fill="#000000" fill-rule="nonzero">
            <g id="shopping_bag" transform="translate(257.000000, 52.000000)">
                <g id="bag">
                    <g id="Group">
                        <path d="M18.5260769,6.3333334 L16.6730769,6.3333334 C16.6730769,5.32000005 16.133,4.45733337 15.0515385,3.74133335 C13.9713846,3.02533334 12.6584615,2.66666667 11.1153846,2.66666667 C9.57230769,2.66666667 8.25938462,3.02533334 7.17923077,3.74133335 C6.09776923,4.45733337 5.55769231,5.32133338 5.55769231,6.3333334 L3.70469231,6.3333334 C2.68207692,6.3333334 1.80853846,6.69200007 1.08538462,7.40800009 C0.362230769,8.1240001 0,8.98666678 0,10.0000001 L0,28.3333338 C0,29.3466672 0.362230769,30.2093338 1.08538462,30.9253339 C1.78015657,31.629775 2.72502383,32.0174414 3.70469231,32.0000005 L18.5260769,32.0000005 C19.5486923,32.0000005 20.4222308,31.6413339 21.1453846,30.9253339 C21.8685385,30.2093338 22.2307692,29.3453338 22.2307692,28.3333338 L22.2307692,10.0000001 C22.2307692,8.98666678 21.8685385,8.1240001 21.1453846,7.40800009 C20.4506127,6.70355889 19.5057454,6.31589258 18.5260769,6.3333334 Z M11.1153843,4.5 C12.1379997,4.5 13.0115381,4.648 13.7346919,4.944 C14.4591535,5.24 14.8200765,5.704 14.8200765,6.33333333 L7.41069207,6.33333333 C7.41069207,5.70266667 7.77161514,5.24 8.49607666,4.944 C9.21923049,4.648 10.0914612,4.5 11.1153843,4.5 Z M20.3777696,28.3333333 C20.3777696,28.8293333 20.1946927,29.26 19.8285388,29.6226667 C19.462385,29.9853333 19.0269234,30.1666667 18.5260773,30.1666667 L3.70469241,30.1666667 C3.20384625,30.1666667 2.76969239,29.9853333 2.40223085,29.6226667 C2.04918901,29.2909683 1.84976264,28.8228097 1.85300007,28.3333333 L1.85296126,26.5 L20.3777696,26.5 L20.3777696,28.3333333 Z M20.3777698,24.6666667 L1.85300007,24.6666667 L1.85300007,10 C1.85300007,9.504 2.036077,9.07333333 2.40223086,8.71066667 C2.76838471,8.348 3.20384626,8.16666667 3.70469243,8.16666667 L5.55769248,8.16666667 L5.55769248,13.6666667 L7.41069252,13.6666667 L7.41069252,8.16666667 L14.8200773,8.16666667 L14.8200773,13.6666667 L16.6730774,13.6666667 L16.6730774,8.16666667 L18.5260774,8.16666667 C19.0269236,8.16666667 19.4610775,8.348 19.828539,8.71066667 C20.1946929,9.07333333 20.3777698,9.504 20.3777698,10 L20.3777698,24.6666667 Z" id="Shape"></path>
                    </g>
                </g>
            </g>
        </g>
    </g>
</svg>