<?xml version="1.0" encoding="utf-8"?>
<!-- Generator: Adobe Illustrator 22.0.1, SVG Export Plug-In . SVG Version: 6.00 Build 0)  -->
<svg version="1.1" xmlns="http://www.w3.org/2000/svg" xmlns:xlink="http://www.w3.org/1999/xlink" x="0px" y="0px"
	 viewBox="0 0 130 130" style="enable-background:new 0 0 130 130;" xml:space="preserve">
<style type="text/css">
	.st0{fill:#231F20;}
	.st1{fill:#FFFFFF;}
	.st2{fill:none;stroke:#FC7769;stroke-width:0.5;stroke-miterlimit:10;}
	.st3{fill:none;stroke:#000000;stroke-width:0.5;stroke-linecap:round;stroke-linejoin:round;stroke-miterlimit:10;}
	.st4{fill:#929292;}
	.st5{fill:#FC7769;}
	.st6{fill:#27C79D;}
	.st7{fill:#27B1F1;}
	.st8{fill:#26B18E;}
	.st9{fill:#868686;}
	.st10{fill:#E55C4E;}
	.st11{fill:#2092C7;}
	.st12{fill:#30DEAF;}
	.st13{fill:#FF9C7D;}
	.st14{fill:#61CCFF;}
	.st15{fill:url(#SVGID_1_);}
	.st16{fill:url(#SVGID_2_);}
	.st17{fill:url(#SVGID_3_);}
	.st18{fill:#CFF0FF;}
	.st19{fill:#8ADAFF;}
	.st20{fill:none;stroke:#777676;stroke-width:0.5;stroke-linecap:round;stroke-linejoin:round;stroke-miterlimit:10;}
	.st21{fill:#777676;}
</style>
<g id="Layer_1">
</g>
<g id="Layer_2">
	<g>
		<rect x="11" y="11" class="st1" width="108" height="108"/>
		
			<rect x="32.5" y="82.8" transform="matrix(-1.836970e-16 1 -1 -1.836970e-16 144.0388 64.6954)" class="st5" width="14.4" height="43.2"/>
		<polygon class="st6" points="46.9,18 46.9,46.8 32.5,46.8 32.5,18 18.1,18 18.1,61.2 46.9,61.2 46.9,90 61.3,90 61.3,18 		"/>
		<g>
			<path class="st7" d="M68.3,39.6v72h14.4V82.8h28.8V39.6H68.3z M97.1,68.3H82.7V54h14.4V68.3z"/>
			<rect x="68.3" y="18" class="st5" width="43.2" height="14.6"/>
			<rect x="89.9" y="90" class="st6" width="21.6" height="21.6"/>
		</g>
		<rect x="18.1" y="68.4" class="st7" width="21.6" height="21.6"/>
	</g>
</g>
</svg>
